<svg width="253" height="382" viewBox="0 0 253 382" fill="none" xmlns="http://www.w3.org/2000/svg">
<g filter="url(#filter0_d_283_1550)">
<path d="M153.5 298C154.7 298 162.667 298 166.5 298" stroke="black"/>
</g>
<g filter="url(#filter1_d_283_1550)">
<path d="M171 298H240" stroke="black"/>
</g>
<g filter="url(#filter2_d_283_1550)">
<path d="M167 344L126.5 362.5L113 354.5L144 333L167 344Z" fill="black"/>
<path d="M167 344L126.5 362.5L113 354.5L144 333L167 344Z" stroke="black"/>
</g>
<g filter="url(#filter3_d_283_1550)">
<path d="M145 330.116L170.008 340.451" stroke="black"/>
</g>
<g filter="url(#filter4_d_283_1550)">
<path d="M143 325.5L174 338" stroke="black"/>
</g>
<g filter="url(#filter5_d_283_1550)">
<path d="M146 321L175.5 335.5" stroke="black"/>
</g>
<g filter="url(#filter6_d_283_1550)">
<path d="M183 334.5C184.6 334.5 198.667 334.5 205.5 334.5" stroke="black"/>
</g>
<g filter="url(#filter7_d_283_1550)">
<path d="M150 301.5H239.5" stroke="black"/>
</g>
<g filter="url(#filter8_d_283_1550)">
<path d="M145 307C147 307.4 214.833 307.167 248.5 307" stroke="black"/>
</g>
<g filter="url(#filter9_d_283_1550)">
<path d="M146.5 313.5H157.5" stroke="black"/>
</g>
<g filter="url(#filter10_d_283_1550)">
<path d="M165 314H245" stroke="black"/>
</g>
<g filter="url(#filter11_d_283_1550)">
<path d="M144.5 320L244 325" stroke="black"/>
</g>
<g filter="url(#filter12_d_283_1550)">
<path d="M162 324L212 331" stroke="black"/>
</g>
<g filter="url(#filter13_d_283_1550)">
<path d="M166.5 327L179 334" stroke="black"/>
</g>
<g filter="url(#filter14_d_283_1550)">
<path d="M70.5 291.081C72.5 320.581 85.5 341.081 82.5 356.081L92 359.581C94 336.081 81.5 317.581 85.5 291.081" stroke="black" stroke-linecap="round"/>
<path d="M60.5 183.081C54.2637 188.504 51.4409 189.185 42.5 204.081C29.5538 226.648 22.1033 239.221 5 260.081C10.002 268.054 14.8497 271.066 27.5 273.581M27.5 273.581C44 250.081 45 217.081 65.5 197.581M27.5 273.581C29.4902 280.176 34.5 285.581 48.5 285.581C57.0402 285.712 60.8519 286.993 67 290.081C74.7765 292.185 78.6576 292.047 85.5 291.581C85.4809 290.188 85.4708 288.858 85.4714 287.581M12 255.081C16.5426 260.198 20.3284 261.593 27.5 263.581M18.5 247.081C18.8652 247.629 19.2257 248.127 19.5849 248.581M30.5 254.081C25.5645 253.115 22.6219 252.421 19.5849 248.581M26 240.581C40 224.081 42.5 206.581 60.5 190.081M32 248.581C32.5556 247.576 33.0931 246.576 33.6151 245.581M62.5 194.581C47.3467 211.629 42.957 227.779 33.6151 245.581M38.5 260.081L41 261.581M54 276.581C56.4182 278.12 57.3594 279.331 62.5 278.581C69.0007 278.08 72.299 278.49 77 281.581C78.9527 282.932 80.0474 283.236 82 281.581M83.5 271.581C80.959 272.901 79.541 272.862 77 271.581C72.2138 268.935 69.1003 268.135 63 267.581C59.8341 267.602 57.5114 267.34 55.5 266.846M47.5 263.581C50.5155 265.027 52.7079 266.16 55.5 266.846M67 226.581L51.5 248.581M61 244.081L44.5 262.581M57.5 254.081L42.5 269.581M78.5 245.581L40 275.081M73 256.081L54 271.581M42.5 279.581L55.5 266.846M69 287.581C69.8828 288.746 75.316 288.86 77.5 288.081M45 282.081C45.8 280.881 48.6667 278.581 50 277.581M33 267.581C33.911 269.796 34.9645 270.751 38.5 271.581M41.5 249.081C42.9922 251.016 44.2804 251.903 47.5 253.081M74.5 243.581C75.3 242.781 79.1667 238.914 81 237.081M61 250.581L64.5 247.081M85.4714 287.581C85.477 275.335 86.4687 268.01 90 257.081C89.0493 268.336 87.2424 273.599 89 287.081M85.4714 287.581C87.1933 288.321 87.9106 288.063 89 287.081M89 287.081C93.6028 290.614 97.2736 292.738 112.5 292.422M159.5 282.581C158.921 284.022 158.348 284.725 154 284.581C147.804 284.797 144.37 285.246 138.5 288.081C135.029 290.16 132.674 290.864 128 291.581C121.779 292.061 116.7 292.334 112.5 292.422M159.5 282.581C152.765 250.634 145.366 229.118 129.5 188.081M159.5 282.581L163.5 282.081C156.649 238.665 145.82 220.011 131 183.081M31 260.081C31.8 259.281 34.3333 254.748 35.5 252.581M36.5 248.081C36.5 247.681 37.8333 244.581 38.5 243.081M29 243.081L33.6151 245.581M19.5849 248.581L24.5 243.081M112.5 292.422C111.533 255.786 108.67 237.544 104.5 204.081" stroke="black" stroke-linecap="round"/>
<path d="M157 249.581C169.982 248.694 176.762 246.702 187.5 239.081L183 229.081C175.189 216.54 170.557 209.391 160 195.581C151.164 181.656 144.547 176.276 133.5 165.581" stroke="black" stroke-linecap="round"/>
<path d="M112.5 260.081C114.114 262.229 120.515 262.184 123.5 260.081M112.5 272.581C117.582 273.567 120.538 273.097 126 270.581M112.5 282.581C116.403 283.496 118.715 283.563 123 283.081" stroke="black" stroke-linecap="round"/>
<path d="M157 271.081C151.453 275.457 148.11 276.101 142 276.081M157.5 275.581C156.134 277.011 155.147 277.568 152.5 277.581" stroke="black" stroke-linecap="round"/>
<path d="M158.5 279.081C155.226 281.827 153.102 282.326 149 282.081" stroke="black" stroke-linecap="round"/>
<path d="M123.5 278.581C123.9 278.181 126.667 275.748 128 274.581" stroke="black" stroke-linecap="round"/>
<path d="M124.5 281.581L131.5 276.081" stroke="black" stroke-linecap="round"/>
<path d="M126.5 283.081C127.3 282.681 136.5 274.581 143 279.581" stroke="black" stroke-linecap="round"/>
<path d="M124 288.581L136 281.581" stroke="black" stroke-linecap="round"/>
<path d="M128.5 289.581L142.5 282.081" stroke="black" stroke-linecap="round"/>
<path d="M128.5 271.581L133.5 267.581" stroke="black" stroke-linecap="round"/>
<path d="M134 268.581C135.946 269.696 137.105 269.947 139.5 268.581C142.359 265.828 144.89 266.032 149.5 266.581" stroke="black" stroke-linecap="round"/>
<path d="M130 257.581C130 257.981 125.333 263.414 123 266.081" stroke="black" stroke-linecap="round"/>
<path d="M129 256.581C128.6 256.981 124.833 261.081 123 263.081" stroke="black" stroke-linecap="round"/>
<path d="M147 236.581C145.828 239.358 144.908 240.694 141.5 241.581M148.673 241.432C147.485 243.527 146.279 244.593 143.5 245.581M150.5 246.581C148.197 249.899 146.441 251.223 142 252.081M152 252.081C149.77 255.656 147.888 257.114 141.5 257.081M153 256.081C151.863 259.007 150.777 259.862 148 260.081M154.5 261.081C153.713 263.451 152.911 264.274 151 265.081M155.5 266.081C154.832 267.724 154.161 268.362 152 268.581M145.5 231.581C145.2 234.969 144.277 236.391 141.5 236.581M144.132 227.573C143.097 229.966 142.445 230.918 139.5 231.581M142.5 223.081C141.889 224.973 142.116 226.232 138.5 227.081M140.5 217.581C140.193 219.469 139.663 220.812 137.5 221.581M137.5 208.581C137.091 209.903 136.809 210.595 135.5 211.081M139.5 214.081C138.835 215.759 138.438 216.676 136.5 217.081" stroke="black" stroke-linecap="round"/>
<path d="M130.5 218.081C130.5 218.881 130.5 221.081 130.5 222.081" stroke="black" stroke-linecap="round"/>
<path d="M79.5 286.581C77.5001 272.581 87 259.081 87 247.081" stroke="black" stroke-linecap="round"/>
<path d="M92.5 263.081C93.9004 264.807 99.0883 264.547 101 263.081M92.5 271.581C95 274.081 97 273.581 100 272.581M91.5 281.081C93.5 282.581 101.5 282.081 101.5 280.081" stroke="black" stroke-linecap="round"/>
<path d="M126 234.081L124.5 236.581" stroke="black" stroke-linecap="round"/>
<path d="M124 228.081L118 242.581" stroke="black" stroke-linecap="round"/>
<path d="M122.5 222.081C122.1 222.881 118 231.081 116 235.081" stroke="black" stroke-linecap="round"/>
<path d="M120.5 218.581L113 231.581" stroke="black" stroke-linecap="round"/>
<path d="M117 210.581L112 226.081" stroke="black" stroke-linecap="round"/>
<path d="M116 207.081C115.2 207.881 112.667 211.081 111.5 212.581" stroke="black" stroke-linecap="round"/>
<path d="M95.5 223.581L94 234.581" stroke="black" stroke-linecap="round"/>
<path d="M94.5 238.081C93.3935 244.764 92.8927 248.638 92.5 256.081" stroke="black" stroke-linecap="round"/>
<path d="M109.5 231.081C111.086 236.976 112.239 240.165 111.5 247.081" stroke="black" stroke-linecap="round"/>
<path d="M109 216.081V223.581" stroke="black" stroke-linecap="round"/>
<path d="M131.5 210.581V215.081" stroke="black" stroke-linecap="round"/>
<path d="M127 243.581L124 250.081" stroke="black" stroke-linecap="round"/>
<path d="M126.5 251.581C125.7 252.381 123.167 255.248 122 256.581" stroke="black" stroke-linecap="round"/>
<path d="M73.5 259.581L76 260.581" stroke="black" stroke-linecap="round"/>
<path d="M51 280.081L57.5 281.081" stroke="black" stroke-linecap="round"/>
<path d="M61.5 282.581L65 284.081" stroke="black" stroke-linecap="round"/>
<path d="M77.5 259.581L80.5 261.081" stroke="black" stroke-linecap="round"/>
<path d="M50 252.581L66.5 233.581" stroke="black" stroke-linecap="round"/>
<path d="M89.5 233.081L88 244.081" stroke="black" stroke-linecap="round"/>
<path d="M92 231.581L91 251.581" stroke="black" stroke-linecap="round"/>
<path d="M109.5 291.581L110.5 273.581" stroke="black" stroke-linecap="round"/>
<path d="M107 292.081L109.5 268.081" stroke="black" stroke-linecap="round"/>
<path d="M104.5 291.081L109 258.081" stroke="black" stroke-linecap="round"/>
<path d="M102 292.081L108 243.581" stroke="black" stroke-linecap="round"/>
<path d="M98.5 221.081C99.8753 236.08 100.968 244.54 99.5 259.081" stroke="black" stroke-linecap="round"/>
<path d="M102 211.581L104 247.081" stroke="black" stroke-linecap="round"/>
<path d="M106.5 221.581V243.081" stroke="black" stroke-linecap="round"/>
<path d="M132 182.581C147.523 207.966 154.299 222.183 167.5 248.081" stroke="black" stroke-linecap="round"/>
<path d="M171.5 247.581C156.547 223.247 148.5 207.603 134 180.581" stroke="black" stroke-linecap="round"/>
<path d="M163 249.081C156.125 228.187 145.788 210.693 132.5 184.081" stroke="black" stroke-linecap="round"/>
<path d="M158.5 249.081C151.905 227.058 144.798 210.647 131.438 182.906" stroke="black" stroke-linecap="round"/>
<path d="M174 246.581C156.019 218.168 149.215 204.739 135.5 179.581M176.5 245.581C160.971 220.336 152.3 204.473 137.5 177.581" stroke="black" stroke-linecap="round"/>
<path d="M140.5 176.081C157.271 201.726 167.378 215.62 181.5 243.081" stroke="black" stroke-linecap="round"/>
<path d="M184.5 241.081C171.499 214.477 160.387 200.858 142 176.081" stroke="black" stroke-linecap="round"/>
<path d="M179 244.081L139.5 177.581" stroke="black" stroke-linecap="round"/>
<path d="M129.5 188.081L143.5 175.581L133.5 166.081C117.998 184.664 108.884 194.885 91.5 212.581V220.581L91 230.081C100.645 202.37 109.263 193.572 129.5 188.081Z" fill="black" stroke="black" stroke-linecap="round"/>
<path d="M144.5 176.081C143.5 172.581 147 170.081 149 172.081C151 174.081 154.753 181.01 155.5 188.081" stroke="black" stroke-linecap="round"/>
<path d="M147.5 175.581L151.5 180.581" stroke="black" stroke-linecap="round"/>
<path d="M126.5 189.081V203.081" stroke="black" stroke-linecap="round"/>
<path d="M129.5 203.581C130 205.581 129.5 208.581 129.5 209.081" stroke="black" stroke-linecap="round"/>
<path d="M91.5001 212.581C112.596 191.531 121.727 179.691 138.5 158.581C141.239 149.442 140.941 143.359 141.5 133.081L128.5 128.581H121C121.716 137.783 122.998 143.187 119 151.081C112.529 159.157 110.547 164.113 107.5 173.081C102.547 182.434 98.4734 186.133 91.5001 193.081C82.0001 189.581 75.5001 193.081 73.0001 197.581C71.5001 201.081 73.0001 203.081 76.5001 201.081C78.3432 199.669 79.1784 198.499 80.5001 196.081C81.2687 200.35 82.3491 201.946 84.5001 201.864M87.5001 201.081C86.3129 201.552 85.3273 201.832 84.5001 201.864M84.5001 201.864C85.4092 207.804 86.0232 211.057 91.5001 213.581" stroke="black" stroke-linecap="round"/>
<path d="M59.5002 127.581C48.5 159.081 57.5 169.581 70.5002 202.581C69.3593 208.563 69.0718 211.966 72.5 218.581M72.5 218.581C74.2585 221.292 76.3759 222.94 82 226.081C84 227.081 85 220.581 83 219.581C75.5 219.581 74 218.581 72.5 218.581Z" stroke="black" stroke-linecap="round"/>
<path d="M82 219.581C84 215.081 83.8698 212.412 83 206.081" stroke="black" stroke-linecap="round"/>
<path d="M73.5 207.081L78 212.081M78 212.081V207.081M78 212.081V219.081M78 212.081L79.5 210.081" stroke="black" stroke-linecap="round"/>
<path d="M74 221.081C71.8856 220.128 70.7555 219.586 69 218.581C64.5 220.581 74.5001 227.581 82 226.081" stroke="black" stroke-linecap="round"/>
<path d="M92 221.581C89.1724 226.605 88.759 229.69 81 233.581C76.7381 231.075 75.2558 229.517 76.5 226.081C78.5986 226.528 79.8613 226.621 82.5 226.081C83.5 226.081 85 222.081 83.5 220.081C86.052 217.419 86.9267 215.448 87.5 211.081C88.9459 212.514 89.6965 213.406 92 213.581V221.581Z" fill="black" stroke="black" stroke-linecap="round"/>
<path d="M75.5 138.081C75.4454 145.359 75.9028 148.665 74.5 158.081C76.5056 171.228 77.8567 178.571 81 191.581" stroke="black" stroke-linecap="round"/>
<path d="M98 205.581L94.5 203.581" stroke="black" stroke-linecap="round"/>
<path d="M100.5 203.581L97 201.081" stroke="black" stroke-linecap="round"/>
<path d="M102 201.081L99.5 199.581" stroke="black" stroke-linecap="round"/>
<path d="M104 199.081L101.5 197.581" stroke="black" stroke-linecap="round"/>
<path d="M106.5 197.081L103.5 195.581" stroke="black" stroke-linecap="round"/>
<path d="M108 195.081L105.5 193.581" stroke="black" stroke-linecap="round"/>
<path d="M110 192.581L108 191.581" stroke="black" stroke-linecap="round"/>
<path d="M112 191.081L110 189.581" stroke="black" stroke-linecap="round"/>
<path d="M115 183.581L117 184.581L115 187.081M115 187.081L113 186.081M115 187.081L113.5 189.081L111.5 188.081" stroke="black" stroke-linecap="round"/>
<path d="M117.5 181.581L119 182.581L120.5 181.081M120.5 181.081L119 179.581M120.5 181.081L123 178.581M123 178.581L120.5 177.081M123 178.581L125 176.581M125 176.581L123 174.581M125 176.581L127 174.081M127 174.081L125 172.581M127 174.081L128 172.081M128 172.081L127 170.581M128 172.081L130 170.581M130 170.581L128 168.581M130 170.581L131.5 169.081L129.5 167.581" stroke="black" stroke-linecap="round"/>
<path d="M80.5 188.581L77.5 189.581M79.5 186.081L77.5 186.581M79 182.581L76 183.581M78 179.081L76 180.081M77.5 175.581L75.5 176.581M77 173.081L75.5 173.581M75.5 164.581H73M75 161.081L73 161.581M76.5 170.081C75.5 170.081 74.1 170.081 74.5 170.081C74.9 170.081 75.8333 170.081 76.5 170.081Z" stroke="black" stroke-linecap="round"/>
<path d="M78.5 155.581C91.7742 158.781 100.138 157.933 115 156.581" stroke="black" stroke-linecap="round"/>
<path d="M83.5 163.081C81.9 163.881 79.5 167.081 78.5 168.581" stroke="black" stroke-linecap="round"/>
<path d="M84.5 166.081L79.5 173.081" stroke="black" stroke-linecap="round"/>
<path d="M86 180.581V191.581" stroke="black" stroke-linecap="round"/>
<path d="M81 180.581C81.3355 184.406 81.3971 186.612 84.5 189.081" stroke="black" stroke-linecap="round"/>
<path d="M92.5 173.081C92.5 173.481 92.8333 181.581 93 185.581" stroke="black" stroke-linecap="round"/>
<path d="M96.4999 167.081C96.0999 168.281 96.3332 178.581 96.4999 183.581" stroke="black" stroke-linecap="round"/>
<path d="M103.5 166.081C103.5 167.081 103.5 169.081 103.5 170.581C103.5 171.781 103.5 173.081 103.5 173.581" stroke="black" stroke-linecap="round"/>
<path d="M87 163.081C88.6 162.681 94 162.914 96.5 163.081" stroke="black" stroke-linecap="round"/>
<path d="M100.5 163.081H106.5" stroke="black" stroke-linecap="round"/>
<path d="M79 155.581V161.581L76 166.581" stroke="black" stroke-linecap="round"/>
<path d="M99.9999 360.081H91.9999C94 334.081 83.5244 330.498 84.9999 292.581C85.2087 291.601 85.4208 290.652 85.9999 288.081C87.2939 288.447 87.9691 288.336 88.9999 287.081C96.5734 292.246 101.968 293.558 114 292.581C112.5 317.581 105.16 328.183 108 351.581C103.623 354.332 101.539 356.042 99.9999 360.081Z" stroke="black" stroke-linecap="round"/>
<path d="M82.5001 356.081C77.6679 359.196 76.8025 361.765 78.0001 367.581C81.3267 369.777 83.3765 370.35 87.5001 370.081L91.5001 359.581" stroke="black" stroke-linecap="round"/>
<path d="M116.5 366.581C107.5 366.581 93.5 378 88 370.5C89.5 366.581 90.6876 364.126 92 360.581H100C101.029 355.626 101.952 352.956 108 349.581C111.907 351.64 114.275 352.59 120.5 351.581C134 350.581 132.5 360.581 116.5 366.581Z" fill="black" stroke="white" stroke-linecap="round"/>
<path d="M112.777 304.377L99 350.081" stroke="black" stroke-linecap="round"/>
<path d="M105.5 329.081V348.081" stroke="black" stroke-linecap="round"/>
<path d="M113 293.081L102.5 310.581" stroke="black" stroke-linecap="round"/>
<path d="M108 292.581L99 307.081" stroke="black" stroke-linecap="round"/>
<path d="M89.9998 287.581L84.5 298.081" stroke="black" stroke-linecap="round"/>
<path d="M107.5 293.081L113.5 297.081" stroke="black" stroke-linecap="round"/>
<path d="M113.5 298.581L104 314.081" stroke="black" stroke-linecap="round"/>
<path d="M92 289.581L85 302.581" stroke="black" stroke-linecap="round"/>
<path d="M95 290.581L86 305.081" stroke="black" stroke-linecap="round"/>
<path d="M97 291.581L88 306.081" stroke="black" stroke-linecap="round"/>
<path d="M100 291.581L91 306.081" stroke="black" stroke-linecap="round"/>
<path d="M103 291.581L94 306.081" stroke="black" stroke-linecap="round"/>
<path d="M105 292.581L96 307.081" stroke="black" stroke-linecap="round"/>
<path d="M111 292.581L102 307.081" stroke="black" stroke-linecap="round"/>
<path d="M102 292.581L113 300.081" stroke="black" stroke-linecap="round"/>
<path d="M112 305.581L87 288.081" stroke="black" stroke-linecap="round"/>
<path d="M113 303.581L96.5 291.581" stroke="black" stroke-linecap="round"/>
<path d="M112 308.081L85.5 290.081" stroke="black" stroke-linecap="round"/>
<path d="M111 309.581L85 292.581" stroke="black" stroke-linecap="round"/>
<path d="M79 292.081L85.0003 298.581" stroke="black" stroke-linecap="round"/>
<path d="M85 301.581L75.5 291.581" stroke="black" stroke-linecap="round"/>
<path d="M72 291.081L85 304.581" stroke="black" stroke-linecap="round"/>
<path d="M85 307.581L70.5 293.081" stroke="black" stroke-linecap="round"/>
<path d="M85 292.581L71.5 301.081" stroke="black" stroke-linecap="round"/>
<path d="M81.5 292.081L71.5 298.081" stroke="black" stroke-linecap="round"/>
<path d="M76 292.081L71 294.581" stroke="black" stroke-linecap="round"/>
<path d="M84.5 296.081L72 303.581" stroke="black" stroke-linecap="round"/>
<path d="M78 302.581L73 305.581" stroke="black" stroke-linecap="round"/>
<path d="M78 140.581L79 156.081" stroke="black" stroke-linecap="round"/>
<path d="M72 20.0811C71.1921 17.0931 72 14.5811 74 12.0811C77.8631 7.89597 82.5225 4.9315 87.4999 3.12836C91.0621 1.83794 94.7871 1.1423 98.4999 1.0197C101.367 0.925012 104.228 1.17215 107 1.75109C110.724 2.52883 114.289 3.90537 117.5 5.85642C119.484 7.06214 121.333 8.48727 123 10.1261C127.322 14.3748 130.424 20.0598 131.5 27.0811L129.392 28.8311L127.285 30.5811C127.749 32.5849 127.657 34.5336 127.041 36.581C126.655 37.8631 126.063 39.1839 125.272 40.5811C126.996 44.4291 128.559 49.2594 130 55.5811L133 68.5811H129C131.972 74.6274 133.696 77.999 135 84.5811L133 85.0811H131.5C128.708 79.2967 126.118 76.9131 121 73.0811C126.5 91.5811 148.5 90.0811 147 102.081C145 97.5811 144 98.5811 134.5 95.0811C127.687 92.425 124.918 89.8181 121 84.0811C121.333 89.869 121.487 92.9659 121 95.0811C118.354 93.3705 117.193 93.7573 116 98.0811V106.081C113.384 121.697 113.499 128.332 116 137.081C113.944 136.157 113.044 136.07 113 138.581L109 134.581C108.89 134.705 108.784 134.827 108.682 134.947C106.245 137.81 106.026 139.548 107 142.581L103.5 140.581L101.368 139.363L99.9999 138.581L96.9999 137.081L94.4999 140.581C93.5446 139.972 92.8378 139.335 91.9999 139.069C91.3204 138.853 90.5546 138.88 89.4999 139.363C88.9287 139.624 88.2728 140.019 87.4999 140.581L83.9999 135.581L81.9999 138.581C81.537 137.954 81.1277 137.454 80.745 137.081C79.6539 136.019 78.7799 136.001 77.4999 137.081C74.6624 132.961 72.9599 131.114 69.4999 129.581C68.4999 131.581 67.4999 131.581 66.9999 134.581C63.261 130.408 61.6161 127.236 59.9225 121.153L59.4999 130.581L57.9999 121.581L51.4999 135.581C50.7132 133.876 50.0278 131.944 49.3052 129.581C48.4854 126.9 47.6177 123.666 46.4999 119.581L47.4999 129.081C45.6714 126.887 45.389 122.205 43.8617 116.581C43.4266 114.979 42.8905 113.3 42.1889 111.581C41.9861 111.084 41.7695 110.584 41.5375 110.081C41.0746 114.716 41.5728 120.771 43.4999 129.581C39.9999 123.581 39.0537 117.47 38.2012 107.081C37.5 112.581 36.9677 114.057 37.5 118.581C32.3612 101.763 40.7533 98.4763 46.7716 80.5811C47.1946 79.3232 47.6059 77.9931 48 76.5811C47.9988 75.3353 48.0405 74.1722 48.1259 73.0811C48.8888 63.3337 53.1421 59.3367 61.5 53.5811C65.924 42.1253 64.1591 38.0272 64 29.0811C64 25.5811 67.5 21.5811 72 20.0811Z" fill="black"/>
<path d="M49.9999 86.5811C47.0645 93.1857 40.6287 98.1748 38.2012 107.081M38.2012 107.081C37.5 112.581 36.9677 114.057 37.5 118.581C32.3612 101.763 40.7533 98.4763 46.7716 80.5811M38.2012 107.081C39.0537 117.47 39.9999 123.581 43.4999 129.581C41.5728 120.771 41.0746 114.716 41.5375 110.081M49.9999 92.0811C45.9283 98.3833 42.3288 102.158 41.5375 110.081M41.5375 110.081C41.7695 110.584 41.9861 111.084 42.1889 111.581M49.3052 129.581C48.4854 126.9 47.6177 123.666 46.4999 119.581L47.4999 129.081C45.6714 126.887 45.389 122.205 43.8617 116.581M49.3052 129.581C50.0278 131.944 50.7132 133.876 51.4999 135.581L57.9999 121.581L59.4999 130.581L60.6204 105.581M49.3052 129.581C49.7384 126.752 50.2125 124.588 50.9812 122.717M71.4999 66.0811C71.0814 67.1694 70.6622 68.1606 70.2452 69.0811M60.6204 105.581C59.9631 109.456 58.6834 112.773 55.4999 116.581C53.2665 118.631 51.9092 120.46 50.9812 122.717M60.6204 105.581C61.0669 102.949 61.2262 100.058 61.5 96.5811C61.5404 96.0678 61.583 95.568 61.6278 95.0811M59.4999 119.581C61.3583 126.718 62.9517 130.062 66.9999 134.581M66.9999 134.581C64.2957 125.081 63.5147 119.953 64.9999 111.581M66.9999 134.581C67.4999 131.581 68.4999 131.581 69.4999 129.581M69.4999 129.581C69.4999 104.581 75.4999 104.081 79.9999 80.5811M69.4999 129.581C72.9599 131.114 74.6624 132.961 77.4999 137.081M64.4999 106.081C64.6126 91.8024 74.9999 89.0811 74.9999 75.5811M69.4999 102.081C74.9999 94.5811 73.4999 86.5811 78.9999 79.5811M61.6278 95.0811C63.0305 79.8284 66.5546 77.226 70.2452 69.0811M61.6278 95.0811C68.0024 83.9702 70.2452 75.5811 70.2452 69.0811M43.8617 116.581C43.4266 114.979 42.8905 113.3 42.1889 111.581M43.8617 116.581C50.1265 106.732 51.2592 99.9414 54.6852 92.0811M57.9999 85.5811C56.6463 87.8719 55.5864 90.0135 54.6852 92.0811M42.1889 111.581C44.9999 111.081 49.9999 96.0811 54.6852 92.0811M46.7716 80.5811C47.1946 79.3232 47.6059 77.9931 48 76.5811C47.9988 75.3353 48.0405 74.1722 48.1259 73.0811M46.7716 80.5811C55.1199 75.7054 56.6547 69.3921 59.986 62.5811M62.4999 58.0811C61.5183 59.5981 60.7098 61.1014 59.986 62.5811M48.1259 73.0811C48.8888 63.3337 53.1421 59.3367 61.5 53.5811C65.924 42.1253 64.1591 38.0272 64 29.0811C64 25.5811 67.5 21.5811 72 20.0811C71.1921 17.0931 72 14.5811 74 12.0811C77.8631 7.89597 82.5225 4.9315 87.4999 3.12836M48.1259 73.0811C51.9725 67.6165 54.691 65.5283 59.986 62.5811M54.6852 86.5811C51.4999 83.5811 66.9999 71.5811 68.4999 64.0811M64 61.0811C60.8155 70.4069 55.4999 76.5811 51.4999 82.5811M50.9812 122.717C57.9999 106.081 56.4999 92.0811 64.9999 75.5811M48.1259 115.081C49.0693 113.881 52.8919 105.914 54.6852 102.081M77.4999 137.081C75.6751 116.877 79.6044 108.535 83.9999 92.0811M77.4999 137.081C78.7799 136.001 79.6539 136.019 80.745 137.081M83.9999 135.581L81.9999 138.581C81.537 137.954 81.1277 137.454 80.745 137.081M83.9999 135.581L87.4999 140.581C88.2728 140.019 88.9287 139.624 89.4999 139.363M83.9999 135.581C83.9001 125.106 84.9073 119.607 87.4999 110.081M96.9999 137.081L94.4999 140.581C93.5446 139.972 92.8378 139.335 91.9999 139.069M96.9999 137.081L99.9999 138.581L101.368 139.363M96.9999 137.081C92.515 125.995 96.0404 120.984 99.9999 111.581M116 106.081C113.384 121.697 113.499 128.332 116 137.081C113.944 136.157 113.044 136.07 113 138.581L109 134.581C108.89 134.705 108.784 134.827 108.682 134.947M116 106.081L111 98.0811M116 106.081V98.0811C117.193 93.7573 118.354 93.3705 121 95.0811C121.487 92.9659 121.333 89.869 121 84.0811C124.918 89.8181 127.687 92.425 134.5 95.0811C144 98.5811 145 97.5811 147 102.081C148.5 90.0811 126.5 91.5811 121 73.0811M80.745 137.081C76.4999 114.581 85.4999 108.581 89.4999 93.0811C89.7843 91.1774 89.9773 89.5763 90.0704 88.0811M89.4999 79.5811C90.0715 82.8897 90.2435 85.3025 90.0704 88.0811M91.9999 139.069C89.4907 131.274 89.4999 122.717 91.9999 118.581C94.4999 114.445 98.6077 94.5686 100.5 79.0811M91.9999 139.069C91.3204 138.853 90.5545 138.88 89.4999 139.363M91.9999 139.069C93.0288 138.687 92.9789 130.625 91.9999 125.581M89.4999 139.363C89.0999 138.337 88.6666 134.414 88.4999 132.581M89.4999 118.581C91.6775 113.827 91.7742 110.86 91.9999 105.581M88.4999 129.081C87.7078 126.124 87.6798 124.389 88.4999 121.081M88.4999 108.081C91.5662 101.046 91.3246 96.4821 90.0704 88.0811M101.368 139.363C99.0158 131.894 98.9022 127.924 99.9999 121.081M101.368 139.363L103.5 140.581M99.9999 130.581C104.291 122.433 104.513 116.71 106 107.081M108.682 134.947C106.245 137.81 106.026 139.548 107 142.581L103.5 140.581M108.682 134.947C111.877 125.918 111.39 120.327 111.5 110.581M103.5 140.581C106.952 130.373 106.912 124.516 107 114.081M121 73.0811C126.118 76.9131 128.708 79.2967 131.5 85.0811H133M121 73.0811C122 55.5811 113 38.0965 100.5 29.0811M133 85.0811C130.842 77.668 128.191 74.4725 123 69.0811M133 85.0811L135 84.5811C133.696 77.999 131.972 74.6274 129 68.5811M123 69.0811C121.774 51.0635 117.725 42.5713 106 29.5811M123 69.0811L126 68.8311M129 68.5811H133M129 68.5811C127.515 48.4141 124.445 47.7188 121 40.0811M129 68.5811L126 68.8311M133 68.5811C135.125 77.4121 140.5 79.0811 144 87.0811M133 68.5811L130 55.5811C128.559 49.2594 126.996 44.4291 125.272 40.5811M109.5 23.5811C117.781 30.1994 120.416 29.7446 125.272 40.5811M126 68.8311C122.216 53.2711 126.693 44.0811 104.5 24.0811M76.9999 66.5811C72.5204 55.6023 71.3354 49.9382 77.9999 43.0811C74.7379 51.2797 75.645 55.4391 78.9999 62.5811M82.9999 35.0811C84.0516 30.2125 86.3569 29.2334 90.0704 27.0811M78.9999 35.0811C77.2548 28.6073 78.5093 26.8773 80.4999 23.5811M81.9999 35.0811C79.6386 29.9917 81.593 28.3735 83.9999 25.0811M94.4999 40.5811C101.638 52.1748 102.302 60.322 101 76.0811M99.4999 38.0811C118 44.0811 108.5 84.0811 116 92.0811M103.5 102.081C101 88.0811 111 74.5811 107 59.5811M109.5 47.0811C120 51.5811 109.5 83.5811 117.5 82.0811M82.9999 43.0811C86.888 43.6108 88.8354 45.0369 91.9999 49.0811M92.9999 50.5811C98.7337 59.525 98.7399 67.4062 97.4999 82.5811M80.4999 44.0811C85.6736 53.2623 86.568 61.0834 83.9999 80.5811M85.4999 49.0811C91.8384 53.9481 94.0142 58.113 94.4999 69.0811M91.9999 70.0811C91.4747 78.4763 92.0556 82.7281 94.4999 89.5811M86.4999 57.0811C87.9351 60.3856 88.6904 81.9033 86.4999 88.0811M74.9999 40.0811C72.188 41.0754 70.9201 42.0056 70.2452 45.5811M73.4999 32.5811C64.4572 38.0811 69.9999 48.5811 64.4999 55.5811M70.2452 50.5811C71.3685 56.0834 67.4999 58.5811 70.2452 61.0811M125.272 40.5811C126.063 39.1839 126.655 37.8631 127.041 36.581M116 15.0811C122.616 21.5744 126.272 26.2089 127.285 30.5811M127.285 30.5811L129.392 28.8311M127.285 30.5811C127.749 32.5849 127.657 34.5336 127.041 36.581M103.5 12.0811C106.442 7.73744 109.624 6.46616 117.5 5.85642M117.5 5.85642C119.484 7.06214 121.333 8.48727 123 10.1261M117.5 5.85642C114.289 3.90537 110.724 2.52883 107 1.75109M107 12.0811C111.953 9.19975 115.011 8.04426 123 10.1261M123 10.1261C127.322 14.3748 130.424 20.0598 131.5 27.0811L129.392 28.8311M129.392 28.8311C128.752 19.9479 124.758 17.0934 117.5 12.0811M127.041 36.581C124.343 24.4478 120.164 20.546 109.5 17.081M107 1.75109C103.117 3.73459 101.061 4.9818 99.9999 10.1261M107 1.75109C104.228 1.17215 101.367 0.925012 98.4999 1.0197M87.4999 3.12836C83.3857 7.20086 81.7918 9.41663 81.9999 13.081M87.4999 3.12836C91.0621 1.83794 94.7871 1.1423 98.4999 1.0197M98.4999 1.0197C94.2255 2.49024 92.9406 3.58325 91.9999 5.85642" stroke="white" stroke-width="0.5" stroke-linecap="round"/>
<path d="M125.5 118.081C127.749 116.637 132.911 121.01 133 125.581M133 125.581L139 122.581M133 125.581L128.5 127.081M139 122.581C139.035 119.685 138.434 118.219 135.5 116.081M139 122.581C141.744 122.348 142.804 123.031 144.5 124.581M144.5 124.581C145.72 121.522 145.756 119.67 144.5 116.081M144.5 124.581L150.545 128.081M145.5 130.081C149.557 131.479 151.129 130.932 154 130.081L150.545 128.081M145.5 130.081V128.081M145.5 130.081C145.807 132.209 146.011 133.621 141.5 133.081L128.5 129.081M128.5 129.081L121 128.081C120.234 123.278 119.209 122.054 116.5 118.081M128.5 129.081V127.081M116.5 118.081L128.5 127.081M116.5 118.081C118.751 115.27 120.126 113.804 124 112.581C128.762 110.846 131.359 110.187 135.5 111.081C142.438 111.621 144.006 110.3 147 108.081M116.5 118.081C115.796 113.395 115.764 110.767 116.5 106.081C116.51 106.058 116.52 106.035 116.53 106.012M150.545 128.081L153.5 125.081M153.5 125.081C165.5 128.081 169.5 118.081 158.5 109.581C166.5 104.581 150.545 98.0811 136.5 84.5811L129 85.0811M153.5 125.081L155 116.081C152.267 112.254 150.435 110.648 147 108.081M147 108.081V103.081C146.687 100.4 146.332 98.9485 141.5 97.5811C135.896 96.1235 133.243 94.9712 129 92.5811C125.989 92.5674 124.508 92.9103 122.5 94.5811C117.836 98.0286 116.963 100.72 116.53 106.012M125.5 96.0811C119.994 98.1803 118.709 100.977 116.53 106.012" stroke="black" stroke-linecap="round"/>
<path d="M138.5 33.5C134.197 32.9886 132.848 31.4348 131 28L128 30C127.762 34.1519 127.804 36.6308 125.5 39C128.573 48.8014 129.369 53.2804 131 61.5C136 60 138.5 61.5 137 55C137.528 49.6762 137.01 45.8718 136 39C137.579 37.3394 137.997 36.0306 138.5 33.5Z" fill="white" stroke="black" stroke-linecap="round"/>
<path d="M80 142.581L88 154.581" stroke="black" stroke-linecap="round"/>
<path d="M85.5 142.581L92.5 153.081" stroke="black" stroke-linecap="round"/>
<path d="M112 140.581L119 151.081" stroke="black" stroke-linecap="round"/>
<path d="M104 141.581L111 152.081" stroke="black" stroke-linecap="round"/>
<path d="M92 142.581L99 153.081" stroke="black" stroke-linecap="round"/>
<path d="M98 142.581L105 153.081" stroke="black" stroke-linecap="round"/>
<path d="M109.5 352.081L102 360.581C116 364.581 125 363.581 117.5 354.081C114.81 354.437 113.121 354.168 109.5 352.081Z" fill="white" stroke="black" stroke-linecap="round"/>
<path d="M162.257 274.657C165.417 278.007 166.619 279.178 172 276C177.489 272.412 180.292 270.092 188 269C194.777 266.864 195.931 265.218 194.5 262C189.526 254.624 186.165 250.777 180 244" stroke="black" stroke-linecap="round"/>
<path d="M159.892 249.379C164.735 258.911 167.877 265.109 170.5 276.5" stroke="black" stroke-linecap="round"/>
<path d="M164.5 249C168.695 258.05 171.098 263.028 174 274.5" stroke="black" stroke-linecap="round"/>
<path d="M169.353 248.034C174.162 256.412 176.661 261.734 178.5 271.5" stroke="black" stroke-linecap="round"/>
<path d="M172.5 247.5C177.722 255.939 180.541 260.695 182 270" stroke="black" stroke-linecap="round"/>
<path d="M176 246C182.053 253.914 185.429 258.367 188.5 269" stroke="black" stroke-linecap="round"/>
<path d="M178 245C185.269 252.831 188.545 257.526 191.5 267" stroke="black" stroke-linecap="round"/>
<path d="M174 264C177 258 184 259.5 187 258.5" stroke="black" stroke-linecap="round"/>
<path d="M160.5 257.5C163.5 254 176.5 259 181 250" stroke="black" stroke-linecap="round"/>
<path d="M168.5 273.5C168.879 272.084 177.427 267.351 182 266" stroke="black" stroke-linecap="round"/>
<path d="M162.5 267C166.492 268.219 168.13 267.291 171 265.5" stroke="black" stroke-linecap="round"/>
</g>
<g filter="url(#filter15_d_283_1550)">
<path d="M213.5 281H248.5" stroke="black"/>
</g>
<g filter="url(#filter16_d_283_1550)">
<path d="M206 286.5H244.5" stroke="black"/>
</g>
<g filter="url(#filter17_d_283_1550)">
<path d="M206.5 289.5H240" stroke="black"/>
</g>
<g filter="url(#filter18_d_283_1550)">
<path d="M185 293.5H191.5" stroke="black"/>
</g>
<g filter="url(#filter19_d_283_1550)">
<path d="M194 293H198.5" stroke="black"/>
</g>
<g filter="url(#filter20_d_283_1550)">
<path d="M200.5 293H239.5" stroke="black"/>
</g>
<g filter="url(#filter21_d_283_1550)">
<path d="M225 278H248.5" stroke="black"/>
</g>
<g filter="url(#filter22_d_283_1550)">
<path d="M147 332H170.5" stroke="black"/>
</g>
<g filter="url(#filter23_d_283_1550)">
<path d="M147 334H170.5" stroke="black"/>
</g>
<g filter="url(#filter24_d_283_1550)">
<path d="M146 336H169.5" stroke="black"/>
</g>
<g filter="url(#filter25_d_283_1550)">
<path d="M145 338H168.5" stroke="black"/>
</g>
<g filter="url(#filter26_d_283_1550)">
<path d="M151 341H174.5" stroke="black"/>
</g>
<g filter="url(#filter27_d_283_1550)">
<path d="M147 329H170.5" stroke="black"/>
</g>
<g filter="url(#filter28_d_283_1550)">
<path d="M154 327H177.5" stroke="black"/>
</g>
<g filter="url(#filter29_d_283_1550)">
<path d="M154 343H177.5" stroke="black"/>
</g>
<defs>
<filter id="filter0_d_283_1550" x="149.5" y="297.5" width="21" height="9" filterUnits="userSpaceOnUse" color-interpolation-filters="sRGB">
<feFlood flood-opacity="0" result="BackgroundImageFix"/>
<feColorMatrix in="SourceAlpha" type="matrix" values="0 0 0 0 0 0 0 0 0 0 0 0 0 0 0 0 0 0 127 0" result="hardAlpha"/>
<feOffset dy="4"/>
<feGaussianBlur stdDeviation="2"/>
<feComposite in2="hardAlpha" operator="out"/>
<feColorMatrix type="matrix" values="0 0 0 0 0 0 0 0 0 0 0 0 0 0 0 0 0 0 0.25 0"/>
<feBlend mode="normal" in2="BackgroundImageFix" result="effect1_dropShadow_283_1550"/>
<feBlend mode="normal" in="SourceGraphic" in2="effect1_dropShadow_283_1550" result="shape"/>
</filter>
<filter id="filter1_d_283_1550" x="167" y="297.5" width="77" height="9" filterUnits="userSpaceOnUse" color-interpolation-filters="sRGB">
<feFlood flood-opacity="0" result="BackgroundImageFix"/>
<feColorMatrix in="SourceAlpha" type="matrix" values="0 0 0 0 0 0 0 0 0 0 0 0 0 0 0 0 0 0 127 0" result="hardAlpha"/>
<feOffset dy="4"/>
<feGaussianBlur stdDeviation="2"/>
<feComposite in2="hardAlpha" operator="out"/>
<feColorMatrix type="matrix" values="0 0 0 0 0 0 0 0 0 0 0 0 0 0 0 0 0 0 0.25 0"/>
<feBlend mode="normal" in2="BackgroundImageFix" result="effect1_dropShadow_283_1550"/>
<feBlend mode="normal" in="SourceGraphic" in2="effect1_dropShadow_283_1550" result="shape"/>
</filter>
<filter id="filter2_d_283_1550" x="108.075" y="332.424" width="64.1057" height="38.6399" filterUnits="userSpaceOnUse" color-interpolation-filters="sRGB">
<feFlood flood-opacity="0" result="BackgroundImageFix"/>
<feColorMatrix in="SourceAlpha" type="matrix" values="0 0 0 0 0 0 0 0 0 0 0 0 0 0 0 0 0 0 127 0" result="hardAlpha"/>
<feOffset dy="4"/>
<feGaussianBlur stdDeviation="2"/>
<feComposite in2="hardAlpha" operator="out"/>
<feColorMatrix type="matrix" values="0 0 0 0 0 0 0 0 0 0 0 0 0 0 0 0 0 0 0.25 0"/>
<feBlend mode="normal" in2="BackgroundImageFix" result="effect1_dropShadow_283_1550"/>
<feBlend mode="normal" in="SourceGraphic" in2="effect1_dropShadow_283_1550" result="shape"/>
</filter>
<filter id="filter3_d_283_1550" x="140.809" y="329.654" width="33.3904" height="19.26" filterUnits="userSpaceOnUse" color-interpolation-filters="sRGB">
<feFlood flood-opacity="0" result="BackgroundImageFix"/>
<feColorMatrix in="SourceAlpha" type="matrix" values="0 0 0 0 0 0 0 0 0 0 0 0 0 0 0 0 0 0 127 0" result="hardAlpha"/>
<feOffset dy="4"/>
<feGaussianBlur stdDeviation="2"/>
<feComposite in2="hardAlpha" operator="out"/>
<feColorMatrix type="matrix" values="0 0 0 0 0 0 0 0 0 0 0 0 0 0 0 0 0 0 0.25 0"/>
<feBlend mode="normal" in2="BackgroundImageFix" result="effect1_dropShadow_283_1550"/>
<feBlend mode="normal" in="SourceGraphic" in2="effect1_dropShadow_283_1550" result="shape"/>
</filter>
<filter id="filter4_d_283_1550" x="138.813" y="325.036" width="39.374" height="21.4272" filterUnits="userSpaceOnUse" color-interpolation-filters="sRGB">
<feFlood flood-opacity="0" result="BackgroundImageFix"/>
<feColorMatrix in="SourceAlpha" type="matrix" values="0 0 0 0 0 0 0 0 0 0 0 0 0 0 0 0 0 0 127 0" result="hardAlpha"/>
<feOffset dy="4"/>
<feGaussianBlur stdDeviation="2"/>
<feComposite in2="hardAlpha" operator="out"/>
<feColorMatrix type="matrix" values="0 0 0 0 0 0 0 0 0 0 0 0 0 0 0 0 0 0 0.25 0"/>
<feBlend mode="normal" in2="BackgroundImageFix" result="effect1_dropShadow_283_1550"/>
<feBlend mode="normal" in="SourceGraphic" in2="effect1_dropShadow_283_1550" result="shape"/>
</filter>
<filter id="filter5_d_283_1550" x="141.779" y="320.551" width="37.9412" height="23.3975" filterUnits="userSpaceOnUse" color-interpolation-filters="sRGB">
<feFlood flood-opacity="0" result="BackgroundImageFix"/>
<feColorMatrix in="SourceAlpha" type="matrix" values="0 0 0 0 0 0 0 0 0 0 0 0 0 0 0 0 0 0 127 0" result="hardAlpha"/>
<feOffset dy="4"/>
<feGaussianBlur stdDeviation="2"/>
<feComposite in2="hardAlpha" operator="out"/>
<feColorMatrix type="matrix" values="0 0 0 0 0 0 0 0 0 0 0 0 0 0 0 0 0 0 0.25 0"/>
<feBlend mode="normal" in2="BackgroundImageFix" result="effect1_dropShadow_283_1550"/>
<feBlend mode="normal" in="SourceGraphic" in2="effect1_dropShadow_283_1550" result="shape"/>
</filter>
<filter id="filter6_d_283_1550" x="179" y="334" width="30.5" height="9" filterUnits="userSpaceOnUse" color-interpolation-filters="sRGB">
<feFlood flood-opacity="0" result="BackgroundImageFix"/>
<feColorMatrix in="SourceAlpha" type="matrix" values="0 0 0 0 0 0 0 0 0 0 0 0 0 0 0 0 0 0 127 0" result="hardAlpha"/>
<feOffset dy="4"/>
<feGaussianBlur stdDeviation="2"/>
<feComposite in2="hardAlpha" operator="out"/>
<feColorMatrix type="matrix" values="0 0 0 0 0 0 0 0 0 0 0 0 0 0 0 0 0 0 0.25 0"/>
<feBlend mode="normal" in2="BackgroundImageFix" result="effect1_dropShadow_283_1550"/>
<feBlend mode="normal" in="SourceGraphic" in2="effect1_dropShadow_283_1550" result="shape"/>
</filter>
<filter id="filter7_d_283_1550" x="146" y="301" width="97.5" height="9" filterUnits="userSpaceOnUse" color-interpolation-filters="sRGB">
<feFlood flood-opacity="0" result="BackgroundImageFix"/>
<feColorMatrix in="SourceAlpha" type="matrix" values="0 0 0 0 0 0 0 0 0 0 0 0 0 0 0 0 0 0 127 0" result="hardAlpha"/>
<feOffset dy="4"/>
<feGaussianBlur stdDeviation="2"/>
<feComposite in2="hardAlpha" operator="out"/>
<feColorMatrix type="matrix" values="0 0 0 0 0 0 0 0 0 0 0 0 0 0 0 0 0 0 0.25 0"/>
<feBlend mode="normal" in2="BackgroundImageFix" result="effect1_dropShadow_283_1550"/>
<feBlend mode="normal" in="SourceGraphic" in2="effect1_dropShadow_283_1550" result="shape"/>
</filter>
<filter id="filter8_d_283_1550" x="140.902" y="306.5" width="111.6" height="9.22095" filterUnits="userSpaceOnUse" color-interpolation-filters="sRGB">
<feFlood flood-opacity="0" result="BackgroundImageFix"/>
<feColorMatrix in="SourceAlpha" type="matrix" values="0 0 0 0 0 0 0 0 0 0 0 0 0 0 0 0 0 0 127 0" result="hardAlpha"/>
<feOffset dy="4"/>
<feGaussianBlur stdDeviation="2"/>
<feComposite in2="hardAlpha" operator="out"/>
<feColorMatrix type="matrix" values="0 0 0 0 0 0 0 0 0 0 0 0 0 0 0 0 0 0 0.25 0"/>
<feBlend mode="normal" in2="BackgroundImageFix" result="effect1_dropShadow_283_1550"/>
<feBlend mode="normal" in="SourceGraphic" in2="effect1_dropShadow_283_1550" result="shape"/>
</filter>
<filter id="filter9_d_283_1550" x="142.5" y="313" width="19" height="9" filterUnits="userSpaceOnUse" color-interpolation-filters="sRGB">
<feFlood flood-opacity="0" result="BackgroundImageFix"/>
<feColorMatrix in="SourceAlpha" type="matrix" values="0 0 0 0 0 0 0 0 0 0 0 0 0 0 0 0 0 0 127 0" result="hardAlpha"/>
<feOffset dy="4"/>
<feGaussianBlur stdDeviation="2"/>
<feComposite in2="hardAlpha" operator="out"/>
<feColorMatrix type="matrix" values="0 0 0 0 0 0 0 0 0 0 0 0 0 0 0 0 0 0 0.25 0"/>
<feBlend mode="normal" in2="BackgroundImageFix" result="effect1_dropShadow_283_1550"/>
<feBlend mode="normal" in="SourceGraphic" in2="effect1_dropShadow_283_1550" result="shape"/>
</filter>
<filter id="filter10_d_283_1550" x="161" y="313.5" width="88" height="9" filterUnits="userSpaceOnUse" color-interpolation-filters="sRGB">
<feFlood flood-opacity="0" result="BackgroundImageFix"/>
<feColorMatrix in="SourceAlpha" type="matrix" values="0 0 0 0 0 0 0 0 0 0 0 0 0 0 0 0 0 0 127 0" result="hardAlpha"/>
<feOffset dy="4"/>
<feGaussianBlur stdDeviation="2"/>
<feComposite in2="hardAlpha" operator="out"/>
<feColorMatrix type="matrix" values="0 0 0 0 0 0 0 0 0 0 0 0 0 0 0 0 0 0 0.25 0"/>
<feBlend mode="normal" in2="BackgroundImageFix" result="effect1_dropShadow_283_1550"/>
<feBlend mode="normal" in="SourceGraphic" in2="effect1_dropShadow_283_1550" result="shape"/>
</filter>
<filter id="filter11_d_283_1550" x="140.475" y="319.501" width="107.55" height="13.9985" filterUnits="userSpaceOnUse" color-interpolation-filters="sRGB">
<feFlood flood-opacity="0" result="BackgroundImageFix"/>
<feColorMatrix in="SourceAlpha" type="matrix" values="0 0 0 0 0 0 0 0 0 0 0 0 0 0 0 0 0 0 127 0" result="hardAlpha"/>
<feOffset dy="4"/>
<feGaussianBlur stdDeviation="2"/>
<feComposite in2="hardAlpha" operator="out"/>
<feColorMatrix type="matrix" values="0 0 0 0 0 0 0 0 0 0 0 0 0 0 0 0 0 0 0.25 0"/>
<feBlend mode="normal" in2="BackgroundImageFix" result="effect1_dropShadow_283_1550"/>
<feBlend mode="normal" in="SourceGraphic" in2="effect1_dropShadow_283_1550" result="shape"/>
</filter>
<filter id="filter12_d_283_1550" x="157.931" y="323.505" width="58.1387" height="15.9902" filterUnits="userSpaceOnUse" color-interpolation-filters="sRGB">
<feFlood flood-opacity="0" result="BackgroundImageFix"/>
<feColorMatrix in="SourceAlpha" type="matrix" values="0 0 0 0 0 0 0 0 0 0 0 0 0 0 0 0 0 0 127 0" result="hardAlpha"/>
<feOffset dy="4"/>
<feGaussianBlur stdDeviation="2"/>
<feComposite in2="hardAlpha" operator="out"/>
<feColorMatrix type="matrix" values="0 0 0 0 0 0 0 0 0 0 0 0 0 0 0 0 0 0 0.25 0"/>
<feBlend mode="normal" in2="BackgroundImageFix" result="effect1_dropShadow_283_1550"/>
<feBlend mode="normal" in="SourceGraphic" in2="effect1_dropShadow_283_1550" result="shape"/>
</filter>
<filter id="filter13_d_283_1550" x="162.256" y="326.564" width="20.9885" height="15.8726" filterUnits="userSpaceOnUse" color-interpolation-filters="sRGB">
<feFlood flood-opacity="0" result="BackgroundImageFix"/>
<feColorMatrix in="SourceAlpha" type="matrix" values="0 0 0 0 0 0 0 0 0 0 0 0 0 0 0 0 0 0 127 0" result="hardAlpha"/>
<feOffset dy="4"/>
<feGaussianBlur stdDeviation="2"/>
<feComposite in2="hardAlpha" operator="out"/>
<feColorMatrix type="matrix" values="0 0 0 0 0 0 0 0 0 0 0 0 0 0 0 0 0 0 0.25 0"/>
<feBlend mode="normal" in2="BackgroundImageFix" result="effect1_dropShadow_283_1550"/>
<feBlend mode="normal" in="SourceGraphic" in2="effect1_dropShadow_283_1550" result="shape"/>
</filter>
<filter id="filter14_d_283_1550" x="0.385376" y="0.75" width="199.156" height="380.802" filterUnits="userSpaceOnUse" color-interpolation-filters="sRGB">
<feFlood flood-opacity="0" result="BackgroundImageFix"/>
<feColorMatrix in="SourceAlpha" type="matrix" values="0 0 0 0 0 0 0 0 0 0 0 0 0 0 0 0 0 0 127 0" result="hardAlpha"/>
<feOffset dy="4"/>
<feGaussianBlur stdDeviation="2"/>
<feComposite in2="hardAlpha" operator="out"/>
<feColorMatrix type="matrix" values="0 0 0 0 0 0 0 0 0 0 0 0 0 0 0 0 0 0 0.25 0"/>
<feBlend mode="normal" in2="BackgroundImageFix" result="effect1_dropShadow_283_1550"/>
<feBlend mode="normal" in="SourceGraphic" in2="effect1_dropShadow_283_1550" result="shape"/>
</filter>
<filter id="filter15_d_283_1550" x="209.5" y="280.5" width="43" height="9" filterUnits="userSpaceOnUse" color-interpolation-filters="sRGB">
<feFlood flood-opacity="0" result="BackgroundImageFix"/>
<feColorMatrix in="SourceAlpha" type="matrix" values="0 0 0 0 0 0 0 0 0 0 0 0 0 0 0 0 0 0 127 0" result="hardAlpha"/>
<feOffset dy="4"/>
<feGaussianBlur stdDeviation="2"/>
<feComposite in2="hardAlpha" operator="out"/>
<feColorMatrix type="matrix" values="0 0 0 0 0 0 0 0 0 0 0 0 0 0 0 0 0 0 0.25 0"/>
<feBlend mode="normal" in2="BackgroundImageFix" result="effect1_dropShadow_283_1550"/>
<feBlend mode="normal" in="SourceGraphic" in2="effect1_dropShadow_283_1550" result="shape"/>
</filter>
<filter id="filter16_d_283_1550" x="202" y="286" width="46.5" height="9" filterUnits="userSpaceOnUse" color-interpolation-filters="sRGB">
<feFlood flood-opacity="0" result="BackgroundImageFix"/>
<feColorMatrix in="SourceAlpha" type="matrix" values="0 0 0 0 0 0 0 0 0 0 0 0 0 0 0 0 0 0 127 0" result="hardAlpha"/>
<feOffset dy="4"/>
<feGaussianBlur stdDeviation="2"/>
<feComposite in2="hardAlpha" operator="out"/>
<feColorMatrix type="matrix" values="0 0 0 0 0 0 0 0 0 0 0 0 0 0 0 0 0 0 0.25 0"/>
<feBlend mode="normal" in2="BackgroundImageFix" result="effect1_dropShadow_283_1550"/>
<feBlend mode="normal" in="SourceGraphic" in2="effect1_dropShadow_283_1550" result="shape"/>
</filter>
<filter id="filter17_d_283_1550" x="202.5" y="289" width="41.5" height="9" filterUnits="userSpaceOnUse" color-interpolation-filters="sRGB">
<feFlood flood-opacity="0" result="BackgroundImageFix"/>
<feColorMatrix in="SourceAlpha" type="matrix" values="0 0 0 0 0 0 0 0 0 0 0 0 0 0 0 0 0 0 127 0" result="hardAlpha"/>
<feOffset dy="4"/>
<feGaussianBlur stdDeviation="2"/>
<feComposite in2="hardAlpha" operator="out"/>
<feColorMatrix type="matrix" values="0 0 0 0 0 0 0 0 0 0 0 0 0 0 0 0 0 0 0.25 0"/>
<feBlend mode="normal" in2="BackgroundImageFix" result="effect1_dropShadow_283_1550"/>
<feBlend mode="normal" in="SourceGraphic" in2="effect1_dropShadow_283_1550" result="shape"/>
</filter>
<filter id="filter18_d_283_1550" x="181" y="293" width="14.5" height="9" filterUnits="userSpaceOnUse" color-interpolation-filters="sRGB">
<feFlood flood-opacity="0" result="BackgroundImageFix"/>
<feColorMatrix in="SourceAlpha" type="matrix" values="0 0 0 0 0 0 0 0 0 0 0 0 0 0 0 0 0 0 127 0" result="hardAlpha"/>
<feOffset dy="4"/>
<feGaussianBlur stdDeviation="2"/>
<feComposite in2="hardAlpha" operator="out"/>
<feColorMatrix type="matrix" values="0 0 0 0 0 0 0 0 0 0 0 0 0 0 0 0 0 0 0.25 0"/>
<feBlend mode="normal" in2="BackgroundImageFix" result="effect1_dropShadow_283_1550"/>
<feBlend mode="normal" in="SourceGraphic" in2="effect1_dropShadow_283_1550" result="shape"/>
</filter>
<filter id="filter19_d_283_1550" x="190" y="292.5" width="12.5" height="9" filterUnits="userSpaceOnUse" color-interpolation-filters="sRGB">
<feFlood flood-opacity="0" result="BackgroundImageFix"/>
<feColorMatrix in="SourceAlpha" type="matrix" values="0 0 0 0 0 0 0 0 0 0 0 0 0 0 0 0 0 0 127 0" result="hardAlpha"/>
<feOffset dy="4"/>
<feGaussianBlur stdDeviation="2"/>
<feComposite in2="hardAlpha" operator="out"/>
<feColorMatrix type="matrix" values="0 0 0 0 0 0 0 0 0 0 0 0 0 0 0 0 0 0 0.25 0"/>
<feBlend mode="normal" in2="BackgroundImageFix" result="effect1_dropShadow_283_1550"/>
<feBlend mode="normal" in="SourceGraphic" in2="effect1_dropShadow_283_1550" result="shape"/>
</filter>
<filter id="filter20_d_283_1550" x="196.5" y="292.5" width="47" height="9" filterUnits="userSpaceOnUse" color-interpolation-filters="sRGB">
<feFlood flood-opacity="0" result="BackgroundImageFix"/>
<feColorMatrix in="SourceAlpha" type="matrix" values="0 0 0 0 0 0 0 0 0 0 0 0 0 0 0 0 0 0 127 0" result="hardAlpha"/>
<feOffset dy="4"/>
<feGaussianBlur stdDeviation="2"/>
<feComposite in2="hardAlpha" operator="out"/>
<feColorMatrix type="matrix" values="0 0 0 0 0 0 0 0 0 0 0 0 0 0 0 0 0 0 0.25 0"/>
<feBlend mode="normal" in2="BackgroundImageFix" result="effect1_dropShadow_283_1550"/>
<feBlend mode="normal" in="SourceGraphic" in2="effect1_dropShadow_283_1550" result="shape"/>
</filter>
<filter id="filter21_d_283_1550" x="221" y="277.5" width="31.5" height="9" filterUnits="userSpaceOnUse" color-interpolation-filters="sRGB">
<feFlood flood-opacity="0" result="BackgroundImageFix"/>
<feColorMatrix in="SourceAlpha" type="matrix" values="0 0 0 0 0 0 0 0 0 0 0 0 0 0 0 0 0 0 127 0" result="hardAlpha"/>
<feOffset dy="4"/>
<feGaussianBlur stdDeviation="2"/>
<feComposite in2="hardAlpha" operator="out"/>
<feColorMatrix type="matrix" values="0 0 0 0 0 0 0 0 0 0 0 0 0 0 0 0 0 0 0.25 0"/>
<feBlend mode="normal" in2="BackgroundImageFix" result="effect1_dropShadow_283_1550"/>
<feBlend mode="normal" in="SourceGraphic" in2="effect1_dropShadow_283_1550" result="shape"/>
</filter>
<filter id="filter22_d_283_1550" x="143" y="331.5" width="31.5" height="9" filterUnits="userSpaceOnUse" color-interpolation-filters="sRGB">
<feFlood flood-opacity="0" result="BackgroundImageFix"/>
<feColorMatrix in="SourceAlpha" type="matrix" values="0 0 0 0 0 0 0 0 0 0 0 0 0 0 0 0 0 0 127 0" result="hardAlpha"/>
<feOffset dy="4"/>
<feGaussianBlur stdDeviation="2"/>
<feComposite in2="hardAlpha" operator="out"/>
<feColorMatrix type="matrix" values="0 0 0 0 0 0 0 0 0 0 0 0 0 0 0 0 0 0 0.25 0"/>
<feBlend mode="normal" in2="BackgroundImageFix" result="effect1_dropShadow_283_1550"/>
<feBlend mode="normal" in="SourceGraphic" in2="effect1_dropShadow_283_1550" result="shape"/>
</filter>
<filter id="filter23_d_283_1550" x="143" y="333.5" width="31.5" height="9" filterUnits="userSpaceOnUse" color-interpolation-filters="sRGB">
<feFlood flood-opacity="0" result="BackgroundImageFix"/>
<feColorMatrix in="SourceAlpha" type="matrix" values="0 0 0 0 0 0 0 0 0 0 0 0 0 0 0 0 0 0 127 0" result="hardAlpha"/>
<feOffset dy="4"/>
<feGaussianBlur stdDeviation="2"/>
<feComposite in2="hardAlpha" operator="out"/>
<feColorMatrix type="matrix" values="0 0 0 0 0 0 0 0 0 0 0 0 0 0 0 0 0 0 0.25 0"/>
<feBlend mode="normal" in2="BackgroundImageFix" result="effect1_dropShadow_283_1550"/>
<feBlend mode="normal" in="SourceGraphic" in2="effect1_dropShadow_283_1550" result="shape"/>
</filter>
<filter id="filter24_d_283_1550" x="142" y="335.5" width="31.5" height="9" filterUnits="userSpaceOnUse" color-interpolation-filters="sRGB">
<feFlood flood-opacity="0" result="BackgroundImageFix"/>
<feColorMatrix in="SourceAlpha" type="matrix" values="0 0 0 0 0 0 0 0 0 0 0 0 0 0 0 0 0 0 127 0" result="hardAlpha"/>
<feOffset dy="4"/>
<feGaussianBlur stdDeviation="2"/>
<feComposite in2="hardAlpha" operator="out"/>
<feColorMatrix type="matrix" values="0 0 0 0 0 0 0 0 0 0 0 0 0 0 0 0 0 0 0.25 0"/>
<feBlend mode="normal" in2="BackgroundImageFix" result="effect1_dropShadow_283_1550"/>
<feBlend mode="normal" in="SourceGraphic" in2="effect1_dropShadow_283_1550" result="shape"/>
</filter>
<filter id="filter25_d_283_1550" x="141" y="337.5" width="31.5" height="9" filterUnits="userSpaceOnUse" color-interpolation-filters="sRGB">
<feFlood flood-opacity="0" result="BackgroundImageFix"/>
<feColorMatrix in="SourceAlpha" type="matrix" values="0 0 0 0 0 0 0 0 0 0 0 0 0 0 0 0 0 0 127 0" result="hardAlpha"/>
<feOffset dy="4"/>
<feGaussianBlur stdDeviation="2"/>
<feComposite in2="hardAlpha" operator="out"/>
<feColorMatrix type="matrix" values="0 0 0 0 0 0 0 0 0 0 0 0 0 0 0 0 0 0 0.25 0"/>
<feBlend mode="normal" in2="BackgroundImageFix" result="effect1_dropShadow_283_1550"/>
<feBlend mode="normal" in="SourceGraphic" in2="effect1_dropShadow_283_1550" result="shape"/>
</filter>
<filter id="filter26_d_283_1550" x="147" y="340.5" width="31.5" height="9" filterUnits="userSpaceOnUse" color-interpolation-filters="sRGB">
<feFlood flood-opacity="0" result="BackgroundImageFix"/>
<feColorMatrix in="SourceAlpha" type="matrix" values="0 0 0 0 0 0 0 0 0 0 0 0 0 0 0 0 0 0 127 0" result="hardAlpha"/>
<feOffset dy="4"/>
<feGaussianBlur stdDeviation="2"/>
<feComposite in2="hardAlpha" operator="out"/>
<feColorMatrix type="matrix" values="0 0 0 0 0 0 0 0 0 0 0 0 0 0 0 0 0 0 0.25 0"/>
<feBlend mode="normal" in2="BackgroundImageFix" result="effect1_dropShadow_283_1550"/>
<feBlend mode="normal" in="SourceGraphic" in2="effect1_dropShadow_283_1550" result="shape"/>
</filter>
<filter id="filter27_d_283_1550" x="143" y="328.5" width="31.5" height="9" filterUnits="userSpaceOnUse" color-interpolation-filters="sRGB">
<feFlood flood-opacity="0" result="BackgroundImageFix"/>
<feColorMatrix in="SourceAlpha" type="matrix" values="0 0 0 0 0 0 0 0 0 0 0 0 0 0 0 0 0 0 127 0" result="hardAlpha"/>
<feOffset dy="4"/>
<feGaussianBlur stdDeviation="2"/>
<feComposite in2="hardAlpha" operator="out"/>
<feColorMatrix type="matrix" values="0 0 0 0 0 0 0 0 0 0 0 0 0 0 0 0 0 0 0.25 0"/>
<feBlend mode="normal" in2="BackgroundImageFix" result="effect1_dropShadow_283_1550"/>
<feBlend mode="normal" in="SourceGraphic" in2="effect1_dropShadow_283_1550" result="shape"/>
</filter>
<filter id="filter28_d_283_1550" x="150" y="326.5" width="31.5" height="9" filterUnits="userSpaceOnUse" color-interpolation-filters="sRGB">
<feFlood flood-opacity="0" result="BackgroundImageFix"/>
<feColorMatrix in="SourceAlpha" type="matrix" values="0 0 0 0 0 0 0 0 0 0 0 0 0 0 0 0 0 0 127 0" result="hardAlpha"/>
<feOffset dy="4"/>
<feGaussianBlur stdDeviation="2"/>
<feComposite in2="hardAlpha" operator="out"/>
<feColorMatrix type="matrix" values="0 0 0 0 0 0 0 0 0 0 0 0 0 0 0 0 0 0 0.25 0"/>
<feBlend mode="normal" in2="BackgroundImageFix" result="effect1_dropShadow_283_1550"/>
<feBlend mode="normal" in="SourceGraphic" in2="effect1_dropShadow_283_1550" result="shape"/>
</filter>
<filter id="filter29_d_283_1550" x="150" y="342.5" width="31.5" height="9" filterUnits="userSpaceOnUse" color-interpolation-filters="sRGB">
<feFlood flood-opacity="0" result="BackgroundImageFix"/>
<feColorMatrix in="SourceAlpha" type="matrix" values="0 0 0 0 0 0 0 0 0 0 0 0 0 0 0 0 0 0 127 0" result="hardAlpha"/>
<feOffset dy="4"/>
<feGaussianBlur stdDeviation="2"/>
<feComposite in2="hardAlpha" operator="out"/>
<feColorMatrix type="matrix" values="0 0 0 0 0 0 0 0 0 0 0 0 0 0 0 0 0 0 0.25 0"/>
<feBlend mode="normal" in2="BackgroundImageFix" result="effect1_dropShadow_283_1550"/>
<feBlend mode="normal" in="SourceGraphic" in2="effect1_dropShadow_283_1550" result="shape"/>
</filter>
</defs>
</svg>
