<svg width="296" height="335" viewBox="0 0 296 335" fill="none" xmlns="http://www.w3.org/2000/svg">
<path d="M114.902 116.974C109.116 110.531 109.214 100.331 118.991 94.3511C117.992 90.78 119.208 90.1758 123.052 90.4407L118.094 84.9182C144.476 95.0336 156.719 91.2904 179.348 87.5368L170.398 94.4372C178.067 92.1749 178.34 93.7618 177.43 97.5827C183.061 96.3565 189.363 112.2 181.046 116.602C188.581 114.686 193.947 125.347 179.366 133.474C178.405 133.729 177.463 133.977 176.537 134.218C177.77 149.501 192.661 156.713 203.684 147.435C236.462 114 300.209 146.226 286.499 182.497C273.447 221.376 252.382 248.52 206.676 255.721C183.55 258.842 174.472 275.755 195.053 303.601C203.174 303.777 203.432 316.902 194.004 318.45C160.658 323.923 142.105 326 105.014 317.743C96.161 314.444 99.4097 300.257 111.246 301.256C125.589 286.305 125.363 270.123 118.499 265.291C29.956 241.654 10.5428 224.537 13.0048 181.361C15.5835 136.141 53.0486 116.602 90.0401 136.141C112.86 155.931 121.907 138.831 119.764 132.696C109.09 129.243 107.03 122.264 114.902 116.974Z" fill="white"/>
<path d="M118.991 94.3511C109.214 100.331 109.116 110.531 114.902 116.974M118.991 94.3511C131.875 104.649 179.265 99.8303 177.43 97.5827M118.991 94.3511C117.992 90.78 119.208 90.1758 123.052 90.4407L118.094 84.9182C144.476 95.0336 156.719 91.2904 179.348 87.5368L170.398 94.4372C178.067 92.1749 178.34 93.7618 177.43 97.5827M114.902 116.974C107.03 122.264 109.09 129.243 119.764 132.696M114.902 116.974C140.718 128.927 155.201 127.742 181.046 116.602M119.764 132.696C121.907 138.831 112.86 155.931 90.0401 136.141C53.0486 116.602 15.5835 136.141 13.0048 181.361C10.5428 224.537 29.956 241.654 118.499 265.291C125.363 270.123 125.589 286.305 111.246 301.256M119.764 132.696C144.349 141.007 156.722 139.369 176.537 134.218M181.046 116.602C188.581 114.686 193.947 125.347 179.366 133.474C178.405 133.729 177.463 133.977 176.537 134.218M181.046 116.602C189.363 112.2 183.061 96.3565 177.43 97.5827M111.246 301.256C136.804 314.5 160.792 312.025 192.7 303.879C203.051 301.35 204.271 316.765 194.004 318.45C160.658 323.923 142.105 326 105.014 317.743C96.161 314.444 99.4097 300.257 111.246 301.256ZM195.431 304.109C174.362 275.961 183.409 258.861 206.676 255.721C252.382 248.52 273.447 221.376 286.499 182.497C300.209 146.226 236.462 114 203.684 147.435C192.661 156.713 177.77 149.501 176.537 134.218" stroke="black" stroke-width="2"/>
<path d="M156.815 146.09C159.869 152.302 167.55 144.5 157.151 142.715C149.867 142.101 144.225 153 152.74 159.356C166.671 168.382 176.063 167.423 193.796 161.971C217.818 151.239 234.459 150.092 241.968 166.888C244.196 172.18 254.296 172.182 262.994 167.812C269.045 162.368 260.444 156.538 255.555 159.528C251.661 161.752 254.883 166.277 258.861 163.21" stroke="black"/>
<path d="M166.742 278.721C162.596 283.475 161.615 274.886 167.077 275.346C176.099 276.959 174.441 286.39 166.897 286.39C150.508 285.007 149.848 272.771 160.563 257.784C171.776 244.523 182.803 243.106 203.467 241.84C237.285 236.116 232.145 223.156 239.113 206.57C242.446 191.54 242.375 183.027 260.585 184.564C266.874 185.945 267.197 191.927 260.572 193.92C252.952 196.679 250.892 189.7 256.523 188.474C256.523 188.474 259.503 189.024 259.003 191.235" stroke="black"/>
<path d="M144.83 147.056C141.955 153.348 133.623 144.892 144.397 143.692C151.661 142.883 157.589 154.5 149.284 160.209C135.616 169.603 126.201 168.895 108.318 163.918C83.9975 153.831 67.3301 153.128 60.3054 170.118C58.2302 175.468 48.1347 175.739 39.3145 171.603C33.1099 166.323 41.5405 160.265 46.5127 163.124C50.4689 165.242 47.3778 169.852 43.3135 166.892" stroke="black"/>
<path d="M138.394 279.905C142.674 284.547 143.409 275.935 137.962 276.541C128.99 278.394 130.979 286.703 138.459 287.576C155.887 287 155.111 273.507 143.97 258.812C132.381 245.855 121.317 244.733 100.626 244.019C66.6564 239.199 71.4229 226.107 63.9816 209.713C60.2194 194.777 60.046 186.266 41.8871 188.288C35.6397 189.836 35.4886 195.824 42.1687 197.64C49.8647 200.195 51.7235 193.163 46.0595 192.088C46.0595 192.088 43.0964 192.718 43.6601 194.914" stroke="black"/>
<path d="M118.093 84.9187L114.717 72.7245C143.78 62.8128 158.356 65.4873 183.339 75.1145L178.522 86.6169C154.517 94.1493 141.247 94.5636 118.093 84.9187Z" fill="white"/>
<path d="M114.717 72.7245L118.093 84.9187C141.247 94.5636 154.517 94.1493 178.522 86.6169L183.339 75.1145M114.717 72.7245C142.06 84.1415 157.005 83.1207 183.339 75.1145M114.717 72.7245C143.78 62.8128 158.356 65.4873 183.339 75.1145" stroke="black" stroke-width="2"/>
<path d="M118.049 57.6939L128.948 77.3283C145.562 83.3031 155.3 82.4177 172.904 78.4867L181.951 61.3867C208.117 56.7899 208.745 22.8168 184.33 19.0549C165.713 12.3793 152.092 6.27898 126.633 17.5872C105.86 14.1324 88.3388 51.7834 118.049 57.6939Z" fill="white"/>
<path d="M181.951 112L172.904 116M128.948 77.3283L118.049 57.6939C88.3388 51.7834 105.86 14.1324 126.633 17.5872C152.092 6.27898 165.713 12.3793 184.33 19.0549C208.745 22.8168 208.117 56.7899 181.951 61.3867L172.904 78.4867C155.3 82.4177 145.562 83.3031 128.948 77.3283Z" stroke="black"/>
<path d="M174.971 24.5C185.573 28 195.645 42.5 178.682 52.5" stroke="black"/>
<path d="M127.864 25C117.262 28.5 107.19 43 124.153 53" stroke="black"/>
<path d="M115.07 113L124.082 117" stroke="black"/>
<path d="M77.9632 133C52.1631 136.815 41.5682 142.781 32.3749 163" stroke="black"/>
<path d="M252.365 1C234.663 43.4793 228.824 68.8512 183.983 101C186.157 106.035 186.557 108.726 183.983 113C244.318 82.1418 248.88 50.9887 268.798 1L252.365 20V1Z" fill="white" stroke="black"/>
<path d="M246.004 115.5C221.532 119.825 209.277 117.681 187.693 113L190.344 119C212.002 125.28 224.171 127.79 246.004 127.5L234.872 123L246.004 115.5Z" fill="white" stroke="black"/>
<path d="M90.6466 145.5C99.4231 151.65 105.153 153.856 119.802 151" stroke="black" stroke-width="0.5"/>
<path d="M165.39 247.5C172.113 241.65 176.883 238.952 190.305 237" stroke="black" stroke-width="0.5"/>
<path d="M198.786 236.5C219.129 233.489 226.065 227.153 233.773 211" stroke="black" stroke-width="0.5"/>
<path d="M115.031 308.5C138.233 315.735 151.891 317.62 178.643 313" stroke="black" stroke-width="0.5"/>
<path d="M168.571 319.5C180.959 317.253 186.447 315.953 191.365 313.5" stroke="black" stroke-width="0.5"/>
<path d="M63.0815 189.5C68.8424 189.545 78.3888 209.588 78.4544 221" stroke="black" stroke-width="0.5"/>
<path d="M125.103 102C130.387 109.351 158.648 110.734 172.282 107.5" stroke="black" stroke-width="0.5"/>
<path d="M126.693 59.5L131.994 72.5C146.696 77.4547 155.416 76.4081 171.221 72.5L177.583 59.5" stroke="black" stroke-width="0.5"/>
<path d="M166.451 69L170.691 59" stroke="black" stroke-width="0.5"/>
<path d="M130.934 59.5L134.645 69.5" stroke="black" stroke-width="0.5"/>
<path d="M126.693 88.75V97.75" stroke="black" stroke-width="0.5"/>
<path d="M133.054 90.75V99.75" stroke="black" stroke-width="0.5"/>
<path d="M140.476 91.75V99.75" stroke="black" stroke-width="0.5"/>
<path d="M145.777 92.75V100.75" stroke="black" stroke-width="0.5"/>
<path d="M153.198 91.75V100.75" stroke="black" stroke-width="0.5"/>
<path d="M159.559 91.75V99.75" stroke="black" stroke-width="0.5"/>
<path d="M166.981 90.75V99.75" stroke="black" stroke-width="0.5"/>
<path d="M192.955 100.5C224.747 74.668 233.554 56.5587 248.616 24" stroke="black" stroke-width="0.5"/>
<path d="M211.509 87C237.422 69.0503 244.308 54.4463 253.386 26.5" stroke="black" stroke-width="0.5"/>
<path d="M195.076 117.5C196.772 117.9 218.753 122.667 229.532 125" stroke="black" stroke-width="0.5"/>
<path d="M115.561 126C118.165 129.499 121.307 131.14 132.524 133" stroke="black" stroke-width="0.5"/>
<path d="M152.138 128C166.065 125.939 171.81 124.08 181.293 120.5" stroke="black" stroke-width="0.5"/>
<path d="M157.969 134.5C164.817 134.682 169.201 133.48 177.583 130" stroke="black" stroke-width="0.5"/>
<path d="M129.609 138.993L130.691 136.308M127.342 138.45L128.067 135.569M124.793 137.988L126.361 134.867M122.45 137.169L123.888 134.68" stroke="black"/>
<path d="M140.662 140.964L141.366 138.169M138.339 140.703L138.662 137.758M135.749 140.556L136.874 137.27M133.313 140.031L134.397 137.387" stroke="black"/>
<path d="M172.984 138.343L172.572 135.497M170.717 138.889L169.894 136.032M168.245 139.632L168.039 136.184M165.772 139.97L165.773 137.135" stroke="black"/>
<path d="M152.097 141.327L151.969 138.213M149.695 141.39L149.142 138.171M147.059 141.616L147.207 137.91M144.466 141.412L144.763 138.404" stroke="black"/>
<path d="M162.364 140.562L162.221 137.693M160.055 140.917L159.502 138.003M157.523 141.452L157.641 138M155.028 141.583L155.294 138.759" stroke="black"/>
<path d="M124.159 305.983L125.343 303.337M121.914 305.363L122.749 302.509M119.385 304.813L121.072 301.748M117.075 303.915L118.607 301.477" stroke="black"/>
<path d="M145.108 309.898L145.578 307.06M142.77 309.808L142.85 306.849M140.176 309.852L141.027 306.493M137.704 309.507L138.566 306.792" stroke="black"/>
<path d="M186.627 304.842L185.742 302.094M184.482 305.721L183.187 303.024M182.166 306.826L181.382 303.453M179.782 307.531L179.305 304.732" stroke="black"/>
<path d="M165.524 309.113L165.284 306.25M163.229 309.538L162.578 306.641M160.715 310.148L160.717 306.695M158.227 310.354L158.397 307.523" stroke="black"/>
<path d="M96.4777 252C95.6516 255.238 111.499 258.979 120.862 258.5" stroke="black" stroke-width="0.5"/>
<path d="M109.2 253C112.067 255.915 118.751 256.528 121.392 255.5" stroke="black" stroke-width="0.5"/>
<path d="M258.687 219.5C249.718 232.305 244.712 239.498 223.171 245" stroke="black" stroke-width="0.5"/>
<path d="M65.2019 199C70.0526 206.675 71.7643 210.774 69.4427 217" stroke="black" stroke-width="0.5"/>
<path d="M31.2756 155.5C17.4932 159 12.7223 196.5 24.3843 210" stroke="black" stroke-width="0.5"/>
<path d="M41.8777 231C50.8675 238.252 57.1468 240.799 69.4427 244" stroke="black" stroke-width="0.5"/>
<path d="M38.167 222.5C41.0552 226.21 43.0636 228.072 48.2388 230.5" stroke="black" stroke-width="0.5"/>
<path d="M226.882 140.5C232.713 132.5 266.789 142.603 272.47 150.5" stroke="black" stroke-width="0.5"/>
<path d="M103.369 169.5C124.84 174.979 135.432 173.709 152.668 166.5" stroke="black" stroke-width="0.5"/>
<path d="M111.85 239.5C126.503 241.486 134.811 242.456 145.247 251" stroke="black" stroke-width="0.5"/>
<path d="M231.652 240C245.495 234.827 249.997 229.236 257.097 218.5" stroke="black" stroke-width="0.5"/>
<path d="M177.583 30.5C182.624 38.4003 182.267 41.9132 177.583 47" stroke="black" stroke-width="0.5"/>
<path d="M126.163 31C120.862 35.5 118.212 42 124.042 45.5" stroke="black" stroke-width="0.5"/>
<path d="M198.787 36.5C197.715 43.9699 198.98 48.879 189.245 53" stroke="black" stroke-width="0.5"/>
<path d="M107.61 32.5C104.268 42.8408 104.53 47.6766 113.441 52.5" stroke="black" stroke-width="0.5"/>
</svg>
