<svg width="178" height="318" viewBox="0 0 178 318" fill="none" xmlns="http://www.w3.org/2000/svg">
<path d="M88 4L94 20" stroke="black"/>
<path d="M112 0V32" stroke="black" stroke-width="2"/>
<path d="M131 2.75L124.5 17.25" stroke="black"/>
<path d="M2 317V104.398H43.4286V59.6398H62.2095L43.4286 19.1851C43.6815 -8.77492 137.886 -1.04216 135.124 19.1851L115.79 59.6398H135.124V104.398H176V317H2Z" fill="white"/>
<path d="M43.4286 104.398H2V317H176V104.398H135.124M43.4286 104.398V59.6398H62.2095M43.4286 104.398H135.124M135.124 104.398V59.6398H115.79M62.2095 59.6398L43.4286 19.1851C43.6815 -8.77492 137.886 -1.04216 135.124 19.1851L115.79 59.6398M62.2095 59.6398H115.79" stroke="black" stroke-width="2"/>
<path d="M44 70C52.878 70 108.366 70 135 70" stroke="black" stroke-width="2"/>
<path d="M73.1989 86L67 70H111L102.537 86H73.1989Z" fill="white" stroke="black" stroke-width="2"/>
<path d="M177 255H1V169H177V255Z" fill="white" stroke="black"/>
<path d="M82 86C82 85.6 82 79.8333 82 77M92 86V81.5" stroke="black" stroke-width="2"/>
<path d="M8 253H33.5" stroke="black" stroke-width="0.5"/>
<path d="M21.5 250.5H36" stroke="black" stroke-width="0.5"/>
<path d="M38.5 253.5H52.5" stroke="black" stroke-width="0.5"/>
<path d="M123 173H172.5" stroke="black" stroke-width="0.5"/>
<path d="M145.5 174.5C147.9 174.9 156.833 174.667 161 174.5" stroke="black" stroke-width="0.5"/>
<path d="M5 263.5V285.5" stroke="black" stroke-width="0.5"/>
<path d="M7.5 273.5V290.5" stroke="black" stroke-width="0.5"/>
<path d="M9.5 273V278.5" stroke="black" stroke-width="0.5"/>
<path d="M77.5 85.5L73 71" stroke="black" stroke-width="0.5"/>
<path d="M82.5 85.5C82.5 84.7 81.1667 75.5 80.5 71" stroke="black" stroke-width="0.5"/>
<path d="M88.5 85.5V71" stroke="black" stroke-width="0.5"/>
<path d="M94 85L96 70.5" stroke="black" stroke-width="0.5"/>
<path d="M99 85L104 71" stroke="black" stroke-width="0.5"/>
<path d="M70 59L48 11" stroke="black" stroke-width="0.5"/>
<path d="M79.5 58.5L67.5 2.5" stroke="black" stroke-width="0.5"/>
<path d="M88.5 59.5V1.5" stroke="black" stroke-width="0.5"/>
<path d="M98.5 59L109.5 4.5" stroke="black" stroke-width="0.5"/>
<path d="M107.5 60L127 10" stroke="black" stroke-width="0.5"/>
<path d="M46.5 60V70" stroke="black" stroke-width="0.5"/>
<path d="M61 60V70" stroke="black" stroke-width="0.5"/>
<path d="M58 60V70" stroke="black" stroke-width="0.5"/>
<path d="M55 60V70" stroke="black" stroke-width="0.5"/>
<path d="M52 60V70" stroke="black" stroke-width="0.5"/>
<path d="M49 60V70" stroke="black" stroke-width="0.5"/>
<path d="M115 60V70" stroke="black" stroke-width="0.5"/>
<path d="M129.5 60V70" stroke="black" stroke-width="0.5"/>
<path d="M126.5 60V70" stroke="black" stroke-width="0.5"/>
<path d="M123.5 60V70" stroke="black" stroke-width="0.5"/>
<path d="M120.5 60V70" stroke="black" stroke-width="0.5"/>
<path d="M117.5 60V70" stroke="black" stroke-width="0.5"/>
<path d="M98 60V70" stroke="black" stroke-width="0.5"/>
<path d="M112.5 60V70" stroke="black" stroke-width="0.5"/>
<path d="M132 60V70" stroke="black" stroke-width="0.5"/>
<path d="M109.5 60V70" stroke="black" stroke-width="0.5"/>
<path d="M106.5 60V70" stroke="black" stroke-width="0.5"/>
<path d="M103.5 60V70" stroke="black" stroke-width="0.5"/>
<path d="M100.5 60V70" stroke="black" stroke-width="0.5"/>
<path d="M81 60V70" stroke="black" stroke-width="0.5"/>
<path d="M95.5 60V70" stroke="black" stroke-width="0.5"/>
<path d="M92.5 60V70" stroke="black" stroke-width="0.5"/>
<path d="M89.5 60V70" stroke="black" stroke-width="0.5"/>
<path d="M86.5 60V70" stroke="black" stroke-width="0.5"/>
<path d="M83.5 60V70" stroke="black" stroke-width="0.5"/>
<path d="M64 60V70" stroke="black" stroke-width="0.5"/>
<path d="M78.5 60V70" stroke="black" stroke-width="0.5"/>
<path d="M75.5 60V70" stroke="black" stroke-width="0.5"/>
<path d="M72.5 60V70" stroke="black" stroke-width="0.5"/>
<path d="M69.5 60V70" stroke="black" stroke-width="0.5"/>
<path d="M66.5 60V70" stroke="black" stroke-width="0.5"/>
<path d="M7 108H64" stroke="black" stroke-width="0.5"/>
<path d="M7.5 110C9.1 109.6 19.1667 109.833 24 110" stroke="black" stroke-width="0.5"/>
<path d="M7.5 113V141" stroke="black" stroke-width="0.5"/>
<path d="M9.5 136.5V151.5" stroke="black" stroke-width="0.5"/>
<path d="M148.5 253H174.5V232" stroke="black" stroke-width="0.5"/>
<path d="M154 258.5H171" stroke="black" stroke-width="0.5"/>
<path d="M163.5 260.5C166.3 260.5 171 260.5 173 260.5" stroke="black" stroke-width="0.5"/>
<path d="M65 165.5H94.5" stroke="black" stroke-width="0.5"/>
<path d="M48 163C49.2 163.4 67.1667 163.167 76 163" stroke="black" stroke-width="0.5"/>
<path d="M57.5 160.5H64" stroke="black" stroke-width="0.5"/>
</svg>
