<svg width="109" height="119" viewBox="0 0 109 119" fill="none" xmlns="http://www.w3.org/2000/svg">
<g clip-path="url(#clip0_182_525)">
<path d="M50.6835 42.6059C49.8057 40.3388 50.8114 37.6063 53.9157 36.9036C54.0005 35.8513 54.3732 35.8015 55.3423 36.2283L54.5903 34.2852C60.4433 39.4449 63.9705 39.5715 70.1856 40.6563L67.2068 41.6829C69.4084 41.7844 69.3264 42.2362 68.7238 43.179C70.2987 43.3704 70.4058 48.2118 67.8309 48.6255C69.9647 48.8077 70.3281 52.1696 65.7747 53.0049C65.5017 52.9846 65.234 52.964 64.9714 52.9432C63.8214 57.165 66.9805 60.4811 70.724 59.0072C82.4181 53.0533 95.8124 67.6129 88.7789 76.0933C81.6651 85.3355 73.6062 90.6823 61.0894 88.3891C54.8068 87.0884 50.8324 90.7943 53.4804 100.183C55.5643 100.982 54.3696 104.533 51.7816 104.077C42.6288 102.463 37.6292 101.305 28.827 95.6535C26.8537 93.9477 29.0578 90.4351 32.024 91.7988C37.1716 89.1072 38.6689 84.737 37.3574 82.8031C16.7224 68.258 13.3454 61.8612 18.1324 50.4841C23.1462 38.5685 34.7169 36.7831 42.4089 45.4573C46.4103 52.8877 50.3947 49.1287 50.4298 47.2814C48.0003 45.3657 48.1384 43.2994 50.6835 42.6059Z" fill="white"/>
<path d="M53.9157 36.9036C50.8114 37.6063 49.8057 40.3388 50.6835 42.6059M53.9157 36.9036C56.2589 40.8634 68.9825 43.9529 68.7238 43.179M53.9157 36.9036C54.0005 35.8513 54.3732 35.8015 55.3423 36.2283L54.5903 34.2852C60.4433 39.4449 63.9705 39.5715 70.1856 40.6563L67.2068 41.6829C69.4085 41.7844 69.3264 42.2362 68.7238 43.179M50.6835 42.6059C48.1384 43.2994 48.0003 45.3657 50.4298 47.2814M50.6835 42.6059C56.2131 48.207 60.0742 49.2286 67.8309 48.6255M68.7238 43.179C70.2987 43.3705 70.4058 48.2118 67.8309 48.6255M50.4298 47.2814C50.3947 49.1287 46.4103 52.8877 42.4089 45.4573C34.7169 36.7831 23.1462 38.5685 18.1324 50.4841C13.3454 61.8612 16.7224 68.258 37.3574 82.8031C38.6689 84.737 37.1716 89.1072 32.024 91.7988M50.4298 47.2814C55.9913 51.7898 59.3499 52.4944 64.9714 52.9432M67.8309 48.6255C69.9647 48.8077 70.3281 52.1696 65.7747 53.0049C65.5017 52.9846 65.234 52.964 64.9714 52.9432M32.024 91.7988C37.3631 97.7231 43.807 99.2773 52.8448 100.04C55.766 100.318 54.5997 104.574 51.7816 104.077C42.6288 102.463 37.6292 101.305 28.827 95.6535C26.8537 93.9477 29.0578 90.4351 32.024 91.7988ZM64.9714 52.9432C63.8214 57.165 66.9805 60.4811 70.724 59.0072C82.4181 53.0533 95.8126 67.613 88.7789 76.0933C81.6651 85.3355 73.6062 90.6823 61.0894 88.3891C54.7685 87.0804 50.7841 90.8395 53.5293 100.354" stroke="black" stroke-width="2"/>
<path d="M58.728 54.3095C58.9209 56.2616 61.658 54.8753 59.1394 53.4334C57.3138 52.5944 54.8067 55.0019 56.3985 57.498C59.135 61.2129 61.6571 61.8241 66.7688 61.9994C74.0151 61.3374 78.4305 62.5687 78.7588 67.7779C78.8264 69.4064 81.439 70.3413 84.1096 69.9716C86.1982 69.0681 84.5333 66.7054 82.9815 67.0568C81.7603 67.2943 82.1589 68.8086 83.4828 68.3523" stroke="black"/>
<path d="M48.5475 90.8763C47.0178 91.7705 47.5897 89.3712 48.9586 90.0002C51.1374 91.2684 49.8022 93.6499 47.8504 92.9519C43.7432 91.0638 44.7487 87.714 48.9615 84.6772C53.137 82.1504 56.126 82.7897 61.5937 84.3613C70.893 85.9517 70.8087 81.9927 74.2059 78.1795C76.5127 74.448 77.3128 72.1534 81.8762 74.2513C83.3705 75.2044 82.8792 76.8421 80.9733 76.7647C78.7368 76.8013 78.8747 74.7349 80.4496 74.9265C80.4496 74.9265 81.1674 75.3499 80.8255 75.8979" stroke="black"/>
<path d="M55.5345 53.4602C54.1858 54.8853 52.8433 51.8418 55.7459 52.516C57.7028 52.9706 58.1199 56.6415 55.4224 57.4075C50.9834 58.6679 48.6155 57.6064 44.4676 54.6142C39.1452 49.6529 34.9008 47.9219 31.4503 51.8385C30.3992 53.0845 27.7613 52.2233 25.877 50.2956C24.7793 48.3024 27.5427 47.4541 28.5543 48.6826C29.3742 49.6179 28.1314 50.571 27.3644 49.3993" stroke="black"/>
<path d="M41.0999 88.5718C41.761 90.2155 42.7789 87.9687 41.3114 87.6276C38.812 87.2956 38.5281 89.713 40.3793 90.6396C44.9436 92.0973 46.0395 88.3988 44.5699 83.4183C42.8171 78.8635 40.0625 77.5383 34.7781 75.432C26.4532 70.9937 28.9448 67.9158 28.5954 62.821C29.0578 58.4584 29.831 56.1548 24.9388 55.0182C23.1737 54.8562 22.559 56.4517 24.1127 57.5578C25.8582 58.9566 27.015 57.2385 25.653 56.4256C25.653 56.4256 24.8258 56.3208 24.7606 56.9631" stroke="black"/>
<path d="M54.59 34.2853L54.8885 30.6953C63.3602 30.7202 66.8742 32.7877 72.4123 37.6867L70.0604 40.3326C63.126 40.1362 59.653 39.0198 54.59 34.2853Z" fill="white"/>
<path d="M54.8885 30.6953L54.59 34.2853C59.653 39.0198 63.126 40.1362 70.0604 40.3326L72.4123 37.6867M54.8885 30.6953C60.8651 36.2938 64.8298 37.4022 72.4123 37.6867M54.8885 30.6953C63.3602 30.7202 66.8742 32.7877 72.4123 37.6867" stroke="black" stroke-width="2"/>
<path d="M57.1954 26.9637L58.128 33.2495C61.852 36.3925 64.4564 37.0555 69.3885 37.6276L73.3729 33.8686C80.584 35.0539 84.0119 25.9807 78.0571 22.7107C73.8826 19.1941 70.9447 16.2941 63.2714 16.9781C58.2292 14.1275 50.0773 22.6263 57.1954 26.9637Z" fill="white"/>
<path d="M68.5078 47.4724L65.7826 47.7104M58.128 33.2495L57.1954 26.9637C50.0773 22.6263 58.2292 14.1275 63.2714 16.9781C70.9447 16.2941 73.8826 19.1941 78.0571 22.7107C84.0119 25.9807 80.584 35.0539 73.3729 33.8686L69.3884 37.6276C64.4564 37.0555 61.852 36.3925 58.128 33.2495Z" stroke="black"/>
<path d="M42.6438 70.054L41.192 69.5667C41.1296 69.4983 41.1185 69.4073 41.1591 69.2939C41.1985 69.1837 41.2659 69.1172 41.3609 69.0945L42.4312 69.4772C42.4762 69.4933 42.5071 69.4777 42.524 69.4304L44.7071 63.3261C44.7228 63.2821 44.7082 63.252 44.6632 63.2359L43.7583 62.9229C43.5097 62.8376 43.3219 62.7953 43.1946 62.7959C43.0707 62.7979 42.9628 62.8463 42.8706 62.9413C42.7799 63.0332 42.6798 63.2017 42.5705 63.4467L42.1922 64.2918C42.0932 64.3452 42.0034 64.3576 41.923 64.3289C41.8202 64.2921 41.7572 64.225 41.7341 64.1279L42.5378 62.0174C42.5547 61.9701 42.5855 61.9548 42.6305 61.9708L45.1804 62.9306L47.7654 63.8072C47.8104 63.8233 47.8245 63.8547 47.8076 63.902L47.0857 66.0418C46.9966 66.0988 46.9038 66.1101 46.8072 66.0756C46.7268 66.0468 46.6655 65.9804 46.6229 65.8763L46.8759 64.9864C46.9435 64.7265 46.9696 64.5315 46.9544 64.4018C46.9437 64.27 46.8893 64.1635 46.7915 64.0822C46.6967 64.0022 46.5263 63.9164 46.2798 63.8246L45.3816 63.4928C45.3366 63.4767 45.3062 63.4907 45.2905 63.5348L43.1074 69.639C43.0905 69.6863 43.1046 69.718 43.1495 69.7341L44.2247 70.1186C44.2797 70.1986 44.2879 70.2922 44.2497 70.3992C44.2103 70.5094 44.1457 70.5733 44.0558 70.5909L42.6438 70.054ZM50.5155 72.8585L49.3918 72.4885C49.3272 72.4157 49.3145 72.3241 49.3539 72.2139C49.3922 72.107 49.4612 72.041 49.5608 72.016L50.337 72.2936C50.3787 72.3085 50.4079 72.2926 50.4248 72.2453L51.5941 68.9758C51.7011 68.6764 51.6928 68.4212 51.5688 68.2101C51.4495 67.9968 51.2546 67.8419 50.9847 67.7454C50.7853 67.6741 50.5868 67.6367 50.3884 67.6334C50.1934 67.6312 50.0241 67.6486 49.8802 67.686C49.7396 67.7245 49.5877 67.7893 49.4247 67.8802C49.266 67.9693 49.1441 68.0463 49.0591 68.1117C48.9782 68.1753 48.8774 68.2601 48.756 68.3659L48.7566 68.334L47.7056 71.2728C47.6887 71.3201 47.7012 71.351 47.7431 71.366L48.5194 71.6436C48.5805 71.726 48.5918 71.8207 48.5535 71.9277C48.5141 72.0379 48.4465 72.1007 48.3504 72.1161L47.2466 71.6895L46.1421 71.3263C46.0797 71.2473 46.0673 71.1559 46.1045 71.0519C46.1405 70.9511 46.2093 70.885 46.3111 70.8538L47.1019 71.1366C47.1403 71.1504 47.1681 71.1339 47.185 71.0866L49.3579 65.0106C49.3759 64.9603 49.3624 64.927 49.3175 64.911L48.5363 64.6316C48.4774 64.5429 48.4649 64.4515 48.4987 64.3571C48.5347 64.2563 48.6035 64.1903 48.7053 64.1591C48.7716 64.1864 48.8664 64.2258 48.9896 64.2768C49.1168 64.3259 49.2219 64.3669 49.3044 64.4C49.3899 64.4342 49.4425 64.4549 49.4617 64.4617C49.5292 64.4859 49.6124 64.5014 49.7114 64.5083C49.8115 64.5122 49.8761 64.5193 49.9052 64.5297C50.0305 64.5745 50.07 64.6614 50.0238 64.7907L49.01 67.6255C49.6533 67.1449 50.3781 67.0489 51.1848 67.3374C51.6028 67.4868 51.9008 67.7177 52.0792 68.0301C52.2618 68.3406 52.2935 68.6627 52.174 68.9968L50.9457 72.4315C50.9288 72.4788 50.9396 72.5091 50.9783 72.5229L51.7688 72.8056C51.8236 72.8859 51.8319 72.9795 51.7937 73.0864C51.7542 73.1966 51.6896 73.2605 51.5998 73.2781L50.5155 72.8585ZM53.5387 73.9397L52.4339 73.5764C52.3718 73.4975 52.3591 73.406 52.3963 73.3019C52.4323 73.2012 52.5014 73.1352 52.6029 73.1039L53.389 73.385C53.4244 73.3977 53.4503 73.3806 53.4672 73.3333L54.8645 69.426C54.8826 69.3755 54.8675 69.3416 54.8192 69.3243L54.0526 69.0502C53.9938 68.9619 53.9817 68.8687 54.0166 68.7711C54.0526 68.6703 54.1217 68.6044 54.2232 68.5731C54.2898 68.6006 54.3844 68.6396 54.5075 68.6908C54.635 68.7401 54.7401 68.781 54.8223 68.814C54.9081 68.8483 54.9604 68.8689 54.9796 68.8758C55.0504 68.9011 55.132 68.916 55.2247 68.9206C55.3174 68.9253 55.3798 68.9334 55.4119 68.9448C55.5372 68.9897 55.5768 69.0769 55.5307 69.2059L53.9881 73.5196C53.9711 73.5669 53.9836 73.5977 54.0253 73.6126L54.8111 73.8936C54.8701 73.9823 54.8816 74.0771 54.8456 74.1779C54.8084 74.2819 54.7405 74.3446 54.6422 74.3662L53.5387 73.9397ZM56.0882 67.8598C55.9697 67.9169 55.8464 67.9228 55.7177 67.8768C55.5891 67.8308 55.4958 67.7474 55.4373 67.627C55.3786 67.5066 55.3719 67.3836 55.417 67.2575C55.4631 67.1285 55.5465 67.0373 55.6671 66.9847C55.7875 66.9316 55.9119 66.9282 56.0405 66.9742C56.1691 67.0202 56.2615 67.1011 56.3179 67.2174C56.3742 67.3334 56.3792 67.4561 56.3331 67.5851C56.288 67.7112 56.2064 67.8026 56.0882 67.8598ZM59.9221 76.2225L58.7934 75.8507C58.731 75.7823 58.7199 75.6913 58.7604 75.5779C58.7999 75.4677 58.8673 75.4012 58.9624 75.3782L59.7436 75.6576C59.782 75.6713 59.8098 75.6549 59.8267 75.6076L60.996 72.3382C61.103 72.0387 61.0961 71.784 60.9753 71.5741C60.8561 71.3608 60.6612 71.2059 60.3913 71.1094C60.2015 71.0415 60.0098 71.0048 59.8159 70.9994C59.622 70.994 59.4474 71.0116 59.2917 71.0517C59.1389 71.0932 58.9865 71.1542 58.8346 71.2348C58.6834 71.3123 58.5557 71.3909 58.4511 71.4705C58.3476 71.5472 58.2481 71.6325 58.153 71.7265L58.1535 71.6945L57.1025 74.6334C57.0856 74.6807 57.0981 74.7115 57.1398 74.7264L57.9259 75.0075C57.9848 75.0962 57.9961 75.1909 57.9601 75.2917C57.9229 75.3957 57.8553 75.4585 57.7569 75.4801L56.6531 75.0535L55.5487 74.6903C55.4863 74.6113 55.4735 74.5198 55.5107 74.4158C55.5468 74.315 55.6158 74.249 55.7176 74.2178L56.5035 74.4988C56.5388 74.5115 56.565 74.4945 56.582 74.4472L57.9793 70.5399C57.9973 70.4894 57.9822 70.4555 57.934 70.4383L57.1674 70.1641C57.1083 70.0757 57.0962 69.9825 57.1311 69.8849C57.1671 69.7842 57.2362 69.7182 57.338 69.687C57.4043 69.7144 57.4976 69.7529 57.6173 69.803C57.7382 69.8498 57.84 69.8896 57.9225 69.9227C58.005 69.9559 58.0557 69.9758 58.0752 69.9828C58.1457 70.008 58.2243 70.0219 58.3104 70.0242C58.3965 70.0265 58.4559 70.0334 58.4879 70.0449C58.5458 70.0656 58.5808 70.0942 58.5931 70.1307C58.6088 70.1682 58.6037 70.223 58.5777 70.2956L58.3006 71.0705C58.4261 70.9732 58.5615 70.8885 58.7069 70.8159C58.8535 70.7407 59.0238 70.6755 59.2174 70.6202C59.4113 70.5652 59.626 70.5426 59.8617 70.5523C60.0976 70.5621 60.3376 70.6106 60.5818 70.6979C60.9998 70.8474 61.2972 71.085 61.474 71.4114C61.6554 71.7355 61.6781 72.0883 61.5418 72.4694L60.3523 75.7955C60.3353 75.8428 60.3462 75.8731 60.3849 75.8869L61.1657 76.1662C61.2269 76.2487 61.2385 76.3435 61.2002 76.4504C61.1608 76.5606 61.0929 76.6234 60.9968 76.6387L59.9221 76.2225Z" fill="black"/>
<path d="M75.1125 23.3084C77.519 25.23 78.7309 30.0592 73.3811 31.1775" stroke="black"/>
<path d="M62.8773 19.0844C59.798 19.0442 55.7986 22.0096 59.2259 26.2669" stroke="black"/>
<path d="M51.1088 41.5533L53.0557 43.4622" stroke="black"/>
<path d="M39.5864 43.4957C32.5449 42.134 29.2304 42.7573 24.9085 47.3412" stroke="black"/>
<path d="M97.3941 24.1526C88.7309 33.9323 84.7817 40.2115 70.0907 44.7038C70.169 46.2582 70.014 47.0185 68.9372 47.9291C87.5128 45.2174 91.6875 37.2661 101.645 25.673L95.5678 29.2594L97.3941 24.1526Z" fill="white" stroke="black"/>
<path d="M84.7425 54.3393C77.9955 53.2376 75.0311 51.5275 69.8972 48.2724L70.0062 50.1303C75.0056 53.822 77.9129 55.6226 83.589 57.5647L81.1416 55.3252L84.7425 54.3393Z" fill="white" stroke="black"/>
<path d="M41.6662 48.0289C43.3456 50.4939 44.6161 51.617 48.6803 52.2047" stroke="black" stroke-width="0.5"/>
<path d="M51.1988 82.3597C53.5003 81.4093 54.9937 81.1255 58.6537 81.8426" stroke="black" stroke-width="0.5"/>
<path d="M60.8961 82.493C66.4482 83.5657 68.8518 82.5045 72.3985 78.8761" stroke="black" stroke-width="0.5"/>
<path d="M32.3069 94.096C37.6142 98.1873 40.9663 99.9575 48.3314 101.191" stroke="black" stroke-width="0.5"/>
<path d="M45.1009 102.006C48.5216 102.548 50.0665 102.707 51.5747 102.502" stroke="black" stroke-width="0.5"/>
<path d="M30.3055 57.3048C31.7916 57.8499 32.3347 64.1203 31.2548 67.1937" stroke="black" stroke-width="0.5"/>
<path d="M54.7617 39.5249C55.4221 41.9896 62.6005 44.976 66.4386 45.3682" stroke="black" stroke-width="0.5"/>
<path d="M59.2582 28.2489L59.3801 32.2335C62.7073 34.9255 65.0639 35.4509 69.5286 35.8628L72.4238 32.9573" stroke="black" stroke-width="0.5"/>
<path d="M68.6308 34.4807L70.6891 32.1853" stroke="black" stroke-width="0.5"/>
<path d="M60.3554 28.6413L60.3542 31.6724" stroke="black" stroke-width="0.5"/>
<path d="M56.4467 36.1107L55.5816 38.5297" stroke="black" stroke-width="0.5"/>
<path d="M57.9001 37.2368L57.0351 39.6558" stroke="black" stroke-width="0.5"/>
<path d="M59.7241 38.1922L58.9551 40.3425" stroke="black" stroke-width="0.5"/>
<path d="M60.9993 38.9515L60.2304 41.1017" stroke="black" stroke-width="0.5"/>
<path d="M63.0154 39.3693L62.1503 41.7883" stroke="black" stroke-width="0.5"/>
<path d="M64.6611 39.9579L63.8922 42.1081" stroke="black" stroke-width="0.5"/>
<path d="M66.6772 40.3757L65.8122 42.7947" stroke="black" stroke-width="0.5"/>
<path d="M72.46 45.3995C83.1677 41.3977 87.1868 37.3452 94.2132 29.9876" stroke="black" stroke-width="0.5"/>
<path d="M78.5576 43.4876C86.987 41.0606 90.1722 37.7724 95.2071 31.101" stroke="black" stroke-width="0.5"/>
<path d="M71.3745 50.1649C71.7749 50.4294 77.0034 53.7444 79.5678 55.3687" stroke="black" stroke-width="0.5"/>
<path d="M49.9862 45.0928C50.3235 46.2742 50.9788 47.006 53.7019 48.5437" stroke="black" stroke-width="0.5"/>
<path d="M59.2568 49.0145C63.0578 49.749 64.7229 49.7809 67.5205 49.6961" stroke="black" stroke-width="0.5"/>
<path d="M60.1405 51.301C61.8946 51.9835 63.1443 52.066 65.6473 51.9062" stroke="black" stroke-width="0.5"/>
<path d="M52.3719 49.8849L52.9097 49.2632M51.8374 49.5291L52.3019 48.8218M51.2224 49.1691L51.9281 48.4753M50.695 48.7322L51.3061 48.1962" stroke="black"/>
<path d="M55.0418 51.4372L55.4923 50.751M54.4659 51.1521L54.8327 50.3905M53.81 50.873L54.4169 50.0939M53.2302 50.5065L53.7646 49.8961" stroke="black"/>
<path d="M63.6555 53.7231L63.8227 52.9201M63.0169 53.6602L63.0784 52.8161M62.3056 53.6311L62.5841 52.6854M61.6335 53.4932L61.9062 52.7313" stroke="black"/>
<path d="M57.9651 52.5927L58.2312 51.7438M57.3375 52.3873L57.504 51.471M56.6339 52.2042L57.0285 51.2219M55.9826 51.9095L56.3488 51.1285" stroke="black"/>
<path d="M60.695 53.3371L60.9335 52.5526M60.0635 53.2188L60.2004 52.3844M59.3568 53.1283L59.7194 52.2115M58.6988 52.9327L59.0391 52.1983" stroke="black"/>
<path d="M34.9102 94.2639L35.4709 93.6623M34.3891 93.8896L34.8796 93.1998M33.7875 93.5077L34.5188 92.8401M33.2765 93.0527L33.9071 92.5392" stroke="black"/>
<path d="M39.9537 97.2544L40.3483 96.5352M39.3575 97.014L39.6625 96.226M38.6821 96.7858L39.2253 95.9617M38.076 96.4644L38.5599 95.8144" stroke="black"/>
<path d="M51.1812 99.7369L51.2163 98.9164M50.5418 99.7747L50.4659 98.9299M49.8363 99.8574L49.9578 98.8783M49.1517 99.8263L49.2973 99.0298" stroke="black"/>
<path d="M45.311 98.9324L45.5242 98.1407M44.6763 98.8342L44.7864 97.9954M43.9676 98.7657L44.2998 97.8377M43.3038 98.5908L43.6201 97.8457" stroke="black"/>
<path d="M32.9378 77.1934C32.4129 77.9873 36.1531 80.4589 38.6216 81.1965" stroke="black" stroke-width="0.5"/>
<path d="M36.1331 78.6392C36.5946 79.688 38.2647 80.4711 39.0471 80.4392" stroke="black" stroke-width="0.5"/>
<path d="M78.0271 83.4658C74.4758 86.0777 72.4893 87.5478 66.3875 87.0337" stroke="black" stroke-width="0.5"/>
<path d="M29.9409 60.0544C30.4581 62.5661 30.5069 63.8262 29.3079 65.2848" stroke="black" stroke-width="0.5"/>
<path d="M25.3451 45.2237C21.443 44.8892 16.6041 54.527 18.3236 59.2345" stroke="black" stroke-width="0.5"/>
<path d="M20.8307 66.4974C22.4594 69.2783 23.8391 70.5439 26.7125 72.5419" stroke="black" stroke-width="0.5"/>
<path d="M20.6878 63.8695C21.0784 65.1338 21.419 65.8201 22.5245 66.9515" stroke="black" stroke-width="0.5"/>
<path d="M77.3922 59.2895C79.6698 57.6788 87.5144 63.547 88.2252 66.1952" stroke="black" stroke-width="0.5"/>
<path d="M42.6507 55.6567C47.6788 59.1158 50.5412 59.7545 55.6932 59.4115" stroke="black" stroke-width="0.5"/>
<path d="M38.1165 75.2559C41.7164 77.1454 43.7725 78.1748 45.651 81.4367" stroke="black" stroke-width="0.5"/>
<path d="M69.0624 86.4745C73.1407 86.3647 74.843 85.2786 77.7118 83.0499" stroke="black" stroke-width="0.5"/>
<path d="M32.3614 61.0716C32.7653 62.7027 32.7739 63.5343 32.6684 64.9709" stroke="black" stroke-width="0.5"/>
<path d="M75.2114 25.1627C75.7562 27.7525 75.3264 28.6638 73.6254 29.5975" stroke="black" stroke-width="0.5"/>
<path d="M61.8606 20.5397C60.0566 21.2588 58.7461 22.7606 59.9183 24.2408" stroke="black" stroke-width="0.5"/>
<path d="M80.1203 28.7371C79.1253 30.6458 78.9804 32.0822 76.0658 32.2892" stroke="black" stroke-width="0.5"/>
<path d="M56.9164 19.2263C55.0579 21.6965 54.6608 23.0205 56.5026 25.1414" stroke="black" stroke-width="0.5"/>
</g>
<defs>
<clipPath id="clip0_182_525">
<rect width="81.5627" height="95.6257" fill="white" transform="translate(32.2006 0.534855) rotate(19.6782)"/>
</clipPath>
</defs>
</svg>
