<svg width="197" height="317" viewBox="0 0 197 317" fill="none" xmlns="http://www.w3.org/2000/svg">
<path d="M118.708 43.1091L116.051 47.6989C116.212 58.7815 116.338 69.416 116.591 79.4111C117.547 117.104 120.31 145.701 133.509 154.936C239.015 211.267 190.816 296.806 135.406 316H62.1594C12.8218 302.23 -46.3833 223.367 62.1594 156.605C79.248 140.454 82.2556 116.56 81.7283 79.4111C81.5881 69.5338 81.1979 58.7194 80.7561 46.8644L78.0995 43.1091C79.7158 41.7207 81.5068 40.6059 83.4127 39.729L78.0995 9.31056C77.1917 6.15811 80.0174 3.94697 84.551 2.60223C90.8994 0.719213 100.597 0.535069 108.081 1.84417C115.109 3.0733 120.185 5.61884 118.708 9.31056L113.395 40.1141C115.626 41.0241 117.459 42.0588 118.708 43.1091Z" fill="white"/>
<path d="M116.051 47.6989L118.708 43.1091C117.459 42.0587 115.626 41.0241 113.395 40.1141M116.051 47.6989C116.212 58.7815 116.338 69.416 116.591 79.4111M116.051 47.6989C115.201 47.1378 114.314 46.6069 113.395 46.1109M80.7561 46.8644L78.0995 43.1091C79.7158 41.7207 81.5068 40.6058 83.4127 39.729M80.7561 46.8644C81.1979 58.7194 81.5881 69.5338 81.7283 79.4111M80.7561 46.8644C81.63 46.2755 82.5165 45.7441 83.4127 45.2676M113.395 40.1141L118.708 9.31056C120.185 5.61884 115.109 3.0733 108.081 1.84417M113.395 40.1141C105.636 36.9498 93.0547 35.2931 83.4127 39.729M83.4127 39.729L78.0995 9.31056C77.1917 6.15811 80.0174 3.94697 84.551 2.60223M84.551 2.60223L85.6896 18.4905M84.551 2.60223C90.8994 0.719213 100.597 0.535069 108.081 1.84417M97.4547 13.066V25.584M108.081 1.84417V15.5696M81.7283 79.4111C82.2556 116.56 79.248 140.454 62.1594 156.605C-46.3833 223.367 12.8218 302.23 62.1594 316H135.406C190.816 296.806 239.015 211.267 133.509 154.936C120.31 145.701 117.547 117.104 116.591 79.4111M81.7283 79.4111C95.343 82.4283 102.977 81.4099 116.591 79.4111M81.7283 79.4111C86.4482 74.8212 107.701 74.4039 116.591 79.4111M83.4127 45.2676L87.2073 61.4687C93.233 63.1644 97.4299 63.6019 102.008 63.078M83.4127 45.2676C93.5005 39.9041 104.825 41.4858 113.395 46.1109M113.395 46.1109L109.978 61.4687C106.991 62.2478 104.446 62.7991 102.008 63.078M102.008 51.8716V63.078M37.4903 179.972C82.851 191.052 109.236 191.763 158.557 179.972C183.33 229.747 176.792 253.547 165.009 295.971C111.5 315.899 82.3913 316.182 32.1771 295.971C12.9456 244.42 23.1202 221.666 37.4903 179.972Z" stroke="black" stroke-width="2"/>
<path d="M84.5 85.5C95.1674 88.6556 100.581 87.9063 110 85.5" stroke="black" stroke-width="0.5"/>
<path d="M109 97L111.5 130.5" stroke="black" stroke-width="0.5"/>
<path d="M88 96.5L85 129.5" stroke="black" stroke-width="0.5"/>
<path d="M47.5 175C62.3225 180.041 71.0344 180.55 87 179" stroke="black" stroke-width="0.5"/>
<path d="M100.5 181C110.36 183.136 115.373 182.727 124 181" stroke="black" stroke-width="0.5"/>
<path d="M119.5 184C123.231 185.015 146.153 180.37 155 177.5" stroke="black" stroke-width="0.5"/>
<path d="M39.4999 185C28.6589 216.235 25.5 232.5 25.5 252.5" stroke="black" stroke-width="0.5"/>
<path d="M89.5 44L92 61" stroke="black" stroke-width="0.5"/>
<path d="M95.5 42.5V62.5" stroke="black" stroke-width="0.5"/>
<path d="M105 43L102 62.5" stroke="black" stroke-width="0.5"/>
<path d="M110 45.5L107 61.5" stroke="black" stroke-width="0.5"/>
<path d="M89.5 1.5L91 37.5" stroke="black" stroke-width="0.5"/>
<path d="M113 3L114.5 39" stroke="black" stroke-width="0.5"/>
<path d="M107 2L108.5 38" stroke="black" stroke-width="0.5"/>
<path d="M84 3L85.5 39" stroke="black" stroke-width="0.5"/>
<path d="M101 1L102.5 37" stroke="black" stroke-width="0.5"/>
<path d="M95 1L96.5 37" stroke="black" stroke-width="0.5"/>
<path d="M161.5 291C167.617 273.771 168.569 260.943 171 239" stroke="black" stroke-width="0.5"/>
<path d="M35.5 208C31.3726 224.322 28.9615 233.5 29.5 248.5" stroke="black" stroke-width="0.5"/>
<path d="M169.5 198C176.938 212.794 179.292 220.688 180 234" stroke="black" stroke-width="0.5"/>
<path d="M72 182.5C78.4493 183.395 81.8197 183.325 87.5 182" stroke="black" stroke-width="0.5"/>
<path d="M113 126C113.4 126.8 113.5 129.333 113.5 130.5" stroke="black" stroke-width="0.5"/>
<path d="M67 157.5C71.4684 155.086 73.2176 152.865 75 147.5" stroke="black" stroke-width="0.5"/>
<path d="M71 158C72.7863 158.386 76.1071 155.412 76 153" stroke="black" stroke-width="0.5"/>
<path d="M118 151.5C117.837 154.476 118.961 155.798 121.5 158" stroke="black" stroke-width="0.5"/>
<path d="M17.4999 258C18.4052 267.828 19.5923 273.041 22.4999 282M32 184C30.3765 186.502 29.6253 187.963 29.5 191" stroke="black" stroke-width="0.5"/>
<path d="M111.5 76.5V70" stroke="black" stroke-width="0.5"/>
<path d="M83 78V70" stroke="black" stroke-width="0.5"/>
<path d="M114 78V70" stroke="black" stroke-width="0.5"/>
<path d="M85 78V70" stroke="black" stroke-width="0.5"/>
<path d="M100 76V70" stroke="black" stroke-width="0.5"/>
<path d="M97 76V70" stroke="black" stroke-width="0.5"/>
<path d="M94 75V70" stroke="black" stroke-width="0.5"/>
<path d="M91 76.5V70" stroke="black" stroke-width="0.5"/>
<path d="M88 76.5V70" stroke="black" stroke-width="0.5"/>
<path d="M103 76V70" stroke="black" stroke-width="0.5"/>
<path d="M106 76.5V70" stroke="black" stroke-width="0.5"/>
<path d="M109 76.5V70" stroke="black" stroke-width="0.5"/>
</svg>
