<svg width="259" height="335" viewBox="0 0 259 335" fill="none" xmlns="http://www.w3.org/2000/svg">
<path d="M87.3784 116.974C81.9211 110.531 82.0129 100.331 91.2347 94.3511C90.2925 90.78 91.4399 90.1758 95.0657 90.4407L90.3885 84.9182C115.273 95.0336 126.821 91.2904 148.165 87.5368L139.723 94.4372C146.957 92.1749 147.214 93.7618 146.356 97.5827C151.667 96.3565 157.611 112.2 149.766 116.602C156.874 114.686 161.935 125.347 148.182 133.474C147.276 133.729 146.387 133.977 145.514 134.218C146.677 149.501 160.722 156.713 171.119 147.435C202.037 114 262.164 146.226 249.232 182.497C236.921 221.376 217.052 248.52 173.941 255.721C152.128 258.842 143.566 275.755 162.979 303.601C170.638 303.777 170.882 316.902 161.989 318.45C130.537 323.923 113.037 326 78.0515 317.743C69.7012 314.444 72.7654 300.257 83.9298 301.256C97.458 286.305 97.2454 270.123 90.7711 265.291C7.25513 241.654 -11.0559 224.537 -8.73362 181.361C-6.3014 136.141 29.0366 116.602 63.9279 136.141C85.4522 155.931 93.9858 138.831 91.9642 132.696C81.8961 129.243 79.9534 122.264 87.3784 116.974Z" fill="white"/>
<path d="M91.2347 94.3511C82.0129 100.331 81.9211 110.531 87.3784 116.974M91.2347 94.3511C103.387 104.649 148.087 99.8303 146.356 97.5827M91.2347 94.3511C90.2925 90.78 91.4399 90.1758 95.0657 90.4407L90.3885 84.9182C115.273 95.0336 126.821 91.2904 148.165 87.5368L139.723 94.4372C146.957 92.1749 147.214 93.7618 146.356 97.5827M87.3784 116.974C79.9534 122.264 81.8961 129.243 91.9642 132.696M87.3784 116.974C111.728 128.927 125.39 127.742 149.766 116.602M91.9642 132.696C93.9858 138.831 85.4522 155.931 63.9279 136.141C29.0366 116.602 -6.3014 136.141 -8.73362 181.361C-11.0559 224.537 7.25513 241.654 90.7711 265.291C97.2454 270.123 97.458 286.305 83.9298 301.256M91.9642 132.696C115.153 141.007 126.824 139.369 145.514 134.218M149.766 116.602C156.874 114.686 161.935 125.347 148.182 133.474C147.276 133.729 146.387 133.977 145.514 134.218M149.766 116.602C157.611 112.2 151.667 96.3565 146.356 97.5827M83.9298 301.256C108.037 314.5 130.663 312.025 160.759 303.879C170.523 301.35 171.673 316.765 161.989 318.45C130.537 323.923 113.037 326 78.0515 317.743C69.7012 314.444 72.7654 300.257 83.9298 301.256ZM163.335 304.109C143.462 275.961 151.996 258.861 173.941 255.721C217.052 248.52 236.921 221.376 249.232 182.497C262.164 146.226 202.037 114 171.119 147.435C160.722 156.713 146.677 149.501 145.514 134.218" stroke="black" stroke-width="2"/>
<path d="M126.912 146.09C129.792 152.302 137.037 144.5 127.229 142.715C120.358 142.101 115.037 153 123.068 159.356C136.208 168.382 145.067 167.423 161.793 161.971C184.451 151.239 200.147 150.092 207.23 166.888C209.331 172.18 218.857 172.182 227.062 167.812C232.769 162.368 224.656 156.538 220.046 159.528C216.373 161.752 219.412 166.277 223.164 163.21" stroke="black"/>
<path d="M136.274 278.721C132.364 283.475 131.439 274.886 136.591 275.346C145.1 276.959 143.537 286.39 136.421 286.39C120.962 285.007 120.34 272.771 130.447 257.784C141.023 244.523 151.424 243.106 170.915 241.84C202.812 236.116 197.964 223.156 204.537 206.57C207.68 191.54 207.614 183.027 224.79 184.564C230.722 185.945 231.026 191.927 224.777 193.92C217.59 196.679 215.647 189.7 220.958 188.474C220.958 188.474 223.769 189.024 223.297 191.235" stroke="black"/>
<path d="M115.607 147.056C112.895 153.348 105.037 144.892 115.199 143.692C122.05 142.883 127.642 154.5 119.808 160.209C106.916 169.603 98.0352 168.895 81.1681 163.918C58.2282 153.831 42.5072 153.128 35.8813 170.118C33.924 175.468 24.4017 175.739 16.0822 171.603C10.2299 166.323 18.1818 160.265 22.8718 163.124C26.6033 165.242 23.6877 169.852 19.8542 166.892" stroke="black"/>
<path d="M109.537 279.905C113.574 284.547 114.267 275.935 109.129 276.541C100.666 278.394 102.543 286.703 109.598 287.576C126.037 287 125.304 273.507 114.796 258.812C103.865 245.855 93.4294 244.733 73.9123 244.019C41.8719 239.199 46.3677 226.107 39.3489 209.713C35.8004 194.777 35.6368 186.266 18.5089 188.288C12.6162 189.836 12.4737 195.824 18.7745 197.64C26.0336 200.195 27.7868 193.163 22.4444 192.088C22.4444 192.088 19.6496 192.718 20.1812 194.914" stroke="black"/>
<path d="M90.3882 84.9187L87.2032 72.7245C114.616 62.8128 128.365 65.4873 151.93 75.1145L147.386 86.6169C124.744 94.1493 112.227 94.5636 90.3882 84.9187Z" fill="white"/>
<path d="M87.2032 72.7245L90.3882 84.9187C112.227 94.5636 124.744 94.1493 147.386 86.6169L151.93 75.1145M87.2032 72.7245C112.994 84.1415 127.09 83.1207 151.93 75.1145M87.2032 72.7245C114.616 62.8128 128.365 65.4873 151.93 75.1145" stroke="black" stroke-width="2"/>
<path d="M90.3465 57.6939L100.627 77.3283C116.298 83.3031 125.483 82.4177 142.087 78.4867L150.621 61.3867C175.301 56.7899 175.893 22.8168 152.864 19.0549C135.305 12.3793 122.456 6.27898 98.4427 17.5872C78.8491 14.1324 62.3232 51.7834 90.3465 57.6939Z" fill="white"/>
<path d="M150.621 112L142.087 116M100.627 77.3283L90.3465 57.6939C62.3232 51.7834 78.8491 14.1324 98.4427 17.5872C122.456 6.27898 135.305 12.3793 152.864 19.0549C175.893 22.8168 175.301 56.7899 150.621 61.3867L142.087 78.4867C125.483 82.4177 116.298 83.3031 100.627 77.3283Z" stroke="black"/>
<path d="M144.037 24.5C154.037 28 163.537 42.5 147.537 52.5" stroke="black"/>
<path d="M99.6042 25C89.6042 28.5 80.1042 43 96.1042 53" stroke="black"/>
<path d="M87.5366 113L96.0366 117" stroke="black"/>
<path d="M52.5366 133C28.2013 136.815 18.208 142.781 9.53662 163" stroke="black"/>
<path d="M217.037 1C200.339 43.4793 194.832 68.8512 152.537 101C154.587 106.035 154.965 108.726 152.537 113C209.447 82.1418 213.75 50.9887 232.537 1L217.037 20V1Z" fill="white" stroke="black"/>
<path d="M211.037 115.5C187.954 119.825 176.395 117.681 156.037 113L158.537 119C178.965 125.28 190.444 127.79 211.037 127.5L200.537 123L211.037 115.5Z" fill="white" stroke="black"/>
<path d="M64.5 145.5C72.7782 151.65 78.1831 153.856 92 151" stroke="black" stroke-width="0.5"/>
<path d="M135 247.5C141.341 241.65 145.84 238.952 158.5 237" stroke="black" stroke-width="0.5"/>
<path d="M166.5 236.5C185.687 233.489 192.23 227.153 199.5 211" stroke="black" stroke-width="0.5"/>
<path d="M87.5 308.5C109.385 315.735 122.267 317.62 147.5 313" stroke="black" stroke-width="0.5"/>
<path d="M138 319.5C149.684 317.253 154.861 315.953 159.5 313.5" stroke="black" stroke-width="0.5"/>
<path d="M38.5 189.5C43.9338 189.545 52.9381 209.588 53 221" stroke="black" stroke-width="0.5"/>
<path d="M97 102C101.984 109.351 128.64 110.734 141.5 107.5" stroke="black" stroke-width="0.5"/>
<path d="M98.5 59.5L103.5 72.5C117.367 77.4547 125.592 76.4081 140.5 72.5L146.5 59.5" stroke="black" stroke-width="0.5"/>
<path d="M136 69L140 59" stroke="black" stroke-width="0.5"/>
<path d="M102.5 59.5L106 69.5" stroke="black" stroke-width="0.5"/>
<path d="M98.5 88.75V97.75" stroke="black" stroke-width="0.5"/>
<path d="M104.5 90.75V99.75" stroke="black" stroke-width="0.5"/>
<path d="M111.5 91.75V99.75" stroke="black" stroke-width="0.5"/>
<path d="M116.5 92.75V100.75" stroke="black" stroke-width="0.5"/>
<path d="M123.5 91.75V100.75" stroke="black" stroke-width="0.5"/>
<path d="M129.5 91.75V99.75" stroke="black" stroke-width="0.5"/>
<path d="M136.5 90.75V99.75" stroke="black" stroke-width="0.5"/>
<path d="M161 100.5C190.986 74.668 199.293 56.5587 213.5 24" stroke="black" stroke-width="0.5"/>
<path d="M178.5 87C202.942 69.0503 209.437 54.4463 218 26.5" stroke="black" stroke-width="0.5"/>
<path d="M163 117.5C164.6 117.9 185.333 122.667 195.5 125" stroke="black" stroke-width="0.5"/>
<path d="M88 126C90.4555 129.499 93.4198 131.14 104 133" stroke="black" stroke-width="0.5"/>
<path d="M122.5 128C135.636 125.939 141.055 124.08 150 120.5" stroke="black" stroke-width="0.5"/>
<path d="M128 134.5C134.459 134.682 138.594 133.48 146.5 130" stroke="black" stroke-width="0.5"/>
<path d="M101.251 138.993L102.271 136.308M99.1118 138.45L99.7958 135.569M96.7081 137.988L98.1867 134.867M94.4981 137.169L95.8542 134.68" stroke="black"/>
<path d="M111.676 140.964L112.339 138.169M109.485 140.703L109.79 137.758M107.042 140.556L108.103 137.27M104.744 140.031L105.766 137.387" stroke="black"/>
<path d="M142.162 138.343L141.774 135.497M140.025 138.889L139.248 136.032M137.692 139.632L137.499 136.184M135.36 139.97L135.361 137.135" stroke="black"/>
<path d="M122.461 141.327L122.34 138.213M120.195 141.39L119.674 138.171M117.709 141.616L117.849 137.91M115.263 141.412L115.544 138.404" stroke="black"/>
<path d="M132.146 140.562L132.01 137.693M129.968 140.917L129.446 138.003M127.579 141.452L127.691 138M125.226 141.583L125.477 138.759" stroke="black"/>
<path d="M96.1094 305.983L97.2264 303.337M93.9917 305.363L94.78 302.509M91.6064 304.813L93.1975 301.748M89.4276 303.915L90.8733 301.477" stroke="black"/>
<path d="M115.869 309.898L116.313 307.06M113.664 309.808L113.739 306.849M111.217 309.852L112.02 306.493M108.886 309.507L109.699 306.792" stroke="black"/>
<path d="M155.031 304.842L154.196 302.094M153.008 305.721L151.786 303.024M150.823 306.826L150.084 303.453M148.574 307.531L148.124 304.732" stroke="black"/>
<path d="M135.126 309.113L134.9 306.25M132.961 309.538L132.347 306.641M130.59 310.148L130.592 306.695M128.243 310.354L128.404 307.523" stroke="black"/>
<path d="M70 252C69.2208 255.238 84.1681 258.979 93 258.5" stroke="black" stroke-width="0.5"/>
<path d="M82 253C84.7038 255.915 91.0083 256.528 93.5 255.5" stroke="black" stroke-width="0.5"/>
<path d="M223 219.5C214.54 232.305 209.818 239.498 189.5 245" stroke="black" stroke-width="0.5"/>
<path d="M40.5 199C45.0753 206.675 46.6898 210.774 44.5 217" stroke="black" stroke-width="0.5"/>
<path d="M8.49986 155.5C-4.5 159 -9 196.5 1.99986 210" stroke="black" stroke-width="0.5"/>
<path d="M18.5 231C26.9794 238.252 32.9022 240.799 44.5 244" stroke="black" stroke-width="0.5"/>
<path d="M15 222.5C17.7242 226.21 19.6186 228.072 24.5 230.5" stroke="black" stroke-width="0.5"/>
<path d="M193 140.5C198.5 132.5 230.641 142.603 236 150.5" stroke="black" stroke-width="0.5"/>
<path d="M76.5 169.5C96.7519 174.979 106.743 173.709 123 166.5" stroke="black" stroke-width="0.5"/>
<path d="M84.5 239.5C98.3209 241.486 106.157 242.456 116 251" stroke="black" stroke-width="0.5"/>
<path d="M197.5 240C210.556 234.827 214.803 229.236 221.5 218.5" stroke="black" stroke-width="0.5"/>
<path d="M49.5 199.5C52.6912 204.404 53.6802 207.137 55 212" stroke="black" stroke-width="0.5"/>
<path d="M146.5 30.5C151.255 38.4003 150.919 41.9132 146.5 47" stroke="black" stroke-width="0.5"/>
<path d="M97.9994 31C92.9999 35.5 90.4999 42 95.9994 45.5" stroke="black" stroke-width="0.5"/>
<path d="M166.5 36.5C165.49 43.9699 166.682 48.879 157.5 53" stroke="black" stroke-width="0.5"/>
<path d="M80.5002 32.5C77.3479 42.8408 77.5947 47.6766 86.0002 52.5" stroke="black" stroke-width="0.5"/>
</svg>
