<svg width="134" height="143" viewBox="0 0 134 143" fill="none" xmlns="http://www.w3.org/2000/svg">
<g clip-path="url(#clip0_268_1477)">
<path d="M48.436 31.6273L48.5653 33.646C51.0391 36.9582 53.4036 40.1433 55.6701 43.1049C64.2181 54.2731 71.3731 62.2623 77.7289 61.9194C124.714 53.8912 127.556 91.1987 113.536 110.162L89.4596 127.558C70.2344 135.113 33.5467 125.332 54.6409 79.3698C56.7299 70.4284 52.499 62.4905 44.2108 51.3849C42.007 48.4321 39.5165 45.2554 36.7816 41.7764L35.0881 41.272C35.3161 40.4684 35.6612 39.706 36.0961 38.9882L27.705 31.0541C26.718 30.3167 27.1638 28.9771 28.3602 27.4938C30.0356 25.4167 33.183 23.0579 35.9289 21.6761C38.5075 20.3786 40.732 19.9425 41.053 21.4094L46.0354 31.9838C46.9675 31.729 47.796 31.6065 48.436 31.6273Z" fill="white"/>
<path d="M48.5653 33.646L48.436 31.6273C47.796 31.6064 46.9675 31.729 46.0354 31.9838M48.5653 33.646C51.0391 36.9582 53.4036 40.1433 55.6701 43.1049M48.5653 33.646C48.1633 33.6782 47.7558 33.7284 47.3454 33.7967M46.0354 31.9838L41.053 21.4094C40.732 19.9425 38.5075 20.3786 35.9289 21.6761M46.0354 31.9838C42.7938 32.8699 38.2965 35.3572 36.0961 38.9882M55.6701 43.1049C64.2181 54.2731 71.3731 62.2623 77.7289 61.9194C124.714 53.8912 127.556 91.1987 113.536 110.162L89.4596 127.558C70.2344 135.113 33.5467 125.332 54.6409 79.3698C56.7299 70.4284 52.499 62.4905 44.2108 51.3849M55.6701 43.1049C51.6318 46.9426 49.345 49.0636 44.2108 51.3849M55.6701 43.1049C51.6542 43.7026 44.7595 48.8763 44.2108 51.3849M47.3454 33.7967C43.5181 34.4339 39.4502 36.6453 37.306 40.6627M47.3454 33.7967L49.577 39.2512C48.7654 40.1962 48.0493 40.9673 47.3088 41.6306M36.7816 41.7764L35.0881 41.272C35.3161 40.4684 35.6612 39.706 36.0961 38.9882M36.7816 41.7764C39.5165 45.2554 42.007 48.4321 44.2108 51.3849M36.7816 41.7764C36.9402 41.3908 37.1155 41.0196 37.306 40.6627M36.0961 38.9882L27.705 31.0541C26.718 30.3167 27.1638 28.9771 28.3602 27.4938M37.306 40.6627L42.0923 44.6593C44.4434 43.7408 45.9184 42.8763 47.3088 41.6306M35.9289 21.6761C33.183 23.0579 30.0356 25.4167 28.3602 27.4938M35.9289 21.6761L38.9271 25.8256M28.3602 27.4938L32.2052 32.0267M34.8874 27.5925L37.6219 31.3769M47.3088 41.6306L44.8609 38.2427M51.6366 92.2931C68.9669 84.8694 77.795 78.8178 91.4311 63.5393C110.447 72.7035 113.497 81.4515 118.891 97.0755C105.656 115.809 96.1496 122.808 75.2293 128.624C57.647 117.606 56.0209 108.311 51.6366 92.2931Z" stroke="black" stroke-width="2"/>
<path d="M76.7554 111.413L75.1143 112.647C74.9772 112.66 74.8663 112.608 74.7818 112.491C74.6999 112.378 74.6827 112.252 74.7303 112.115L75.7934 111.347C75.8473 111.308 75.8553 111.262 75.8169 111.209L70.8558 104.343C70.82 104.294 70.7751 104.288 70.7212 104.327L69.658 105.095C69.5207 105.108 69.4098 105.056 69.3253 104.939C69.241 104.823 69.2225 104.696 69.2701 104.559L70.9689 103.404L72.7022 102.079C72.8407 102.076 72.9536 102.134 73.0405 102.255C73.1277 102.375 73.1441 102.496 73.0901 102.616L71.9172 103.463C71.8633 103.502 71.8542 103.546 71.89 103.596L76.7742 110.355C76.8126 110.409 76.8651 110.441 76.9318 110.452C77.0024 110.46 77.0666 110.444 77.1244 110.402L78.9578 109.045C79.5434 108.605 79.8801 108.236 79.9676 107.935C80.0554 107.634 79.9469 107.225 79.6426 106.706L78.992 105.623C78.9896 105.49 79.0519 105.377 79.179 105.285C79.2907 105.205 79.4095 105.187 79.5351 105.231L81.3527 108.026C81.3938 108.083 81.3833 108.133 81.3216 108.178L76.7554 111.413ZM83.9027 106.248L82.5794 107.253C82.4422 107.266 82.3314 107.214 82.2468 107.097C82.1649 106.984 82.1478 106.858 82.1953 106.721L83.0216 106.124C83.0678 106.091 83.0719 106.048 83.0335 105.995L79.8424 101.579C79.8016 101.522 79.7541 101.513 79.7002 101.552L78.8855 102.141C78.7457 102.15 78.6336 102.096 78.549 101.979C78.4621 101.859 78.4449 101.734 78.4977 101.604C78.5734 101.554 78.689 101.479 78.8445 101.378C78.9971 101.273 79.1268 101.184 79.2334 101.113C79.3398 101.041 79.4124 100.991 79.4509 100.964C79.5549 100.888 79.6602 100.791 79.767 100.671C79.8775 100.548 79.9577 100.468 80.0078 100.432C80.1888 100.301 80.342 100.323 80.4674 100.496L83.9579 105.327C83.9964 105.38 84.0385 105.39 84.0847 105.356L84.9167 104.755C85.0553 104.752 85.1668 104.809 85.2514 104.926C85.3383 105.046 85.355 105.167 85.3008 105.287L83.9027 106.248ZM79.0607 99.5228C78.8758 99.6564 78.677 99.714 78.4641 99.6952C78.2525 99.6701 78.0864 99.5742 77.9661 99.4077C77.8483 99.2447 77.8153 99.061 77.867 98.8567C77.916 98.6487 78.031 98.4791 78.212 98.3483C78.4007 98.2119 78.5998 98.1546 78.8088 98.1762C79.0152 98.1941 79.1773 98.2845 79.295 98.4474C79.4154 98.614 79.4543 98.8017 79.4117 99.0106C79.3665 99.2158 79.2494 99.3864 79.0607 99.5228ZM85.7595 103.402C85.5907 103.168 85.5186 102.894 85.5433 102.579C85.5696 102.259 85.69 101.951 85.9046 101.655C85.0657 101.663 84.3864 101.307 83.8668 100.588C83.4061 99.9501 83.268 99.2925 83.4523 98.6145C83.6367 97.9364 84.0757 97.3472 84.7691 96.8462C85.1928 96.5401 85.6317 96.3361 86.0858 96.2345C86.544 96.1298 86.9799 96.1411 87.3942 96.2678C87.3203 95.9384 87.3226 95.621 87.4011 95.3163C87.4799 95.0113 87.6447 94.7685 87.8948 94.5877C88.1223 94.4234 88.364 94.3481 88.6206 94.3624C88.8745 94.3732 89.0781 94.4846 89.2316 94.6972C89.3546 94.8674 89.3978 95.0248 89.3618 95.1696C89.3298 95.3114 89.2538 95.4257 89.1344 95.5119C89.0306 95.587 88.9259 95.6249 88.8207 95.6254C88.7155 95.626 88.6258 95.6071 88.5514 95.5692C88.4808 95.5282 88.3989 95.5041 88.3052 95.4964C88.2154 95.4857 88.1282 95.5111 88.0434 95.5723C87.9126 95.6669 87.839 95.8088 87.8236 95.998C87.8092 96.181 87.8407 96.3547 87.9188 96.5196C88.2177 96.7137 88.4614 96.9416 88.651 97.204C89.1117 97.8416 89.2504 98.5043 89.0673 99.192C88.8815 99.8766 88.442 100.469 87.7487 100.97C87.3519 101.257 86.9592 101.451 86.5704 101.554C86.3494 101.768 86.2191 101.973 86.179 102.169C86.1427 102.362 86.1797 102.535 86.2898 102.687C86.4305 102.882 86.6061 102.971 86.8165 102.954C87.0269 102.937 87.3439 102.783 87.7676 102.493L89.9692 100.951C90.245 100.757 90.4979 100.604 90.7275 100.492C90.9546 100.376 91.1827 100.298 91.4107 100.257C91.6407 100.21 91.8534 100.228 92.0496 100.313C92.2497 100.395 92.4261 100.543 92.5797 100.755C92.8691 101.156 92.9684 101.625 92.878 102.166C92.7873 102.706 92.541 103.245 92.1388 103.783C91.7401 104.32 91.2349 104.809 90.6224 105.251C89.9021 105.772 89.2127 106.084 88.5547 106.187C87.9004 106.288 87.43 106.14 87.1432 105.743C86.9641 105.495 86.9228 105.19 87.0194 104.829C87.1202 104.466 87.3266 104.082 87.6388 103.678C87.2049 103.889 86.8278 103.959 86.5073 103.889C86.1881 103.812 85.9389 103.65 85.7595 103.402ZM87.4107 100.502C87.846 100.188 88.0942 99.8091 88.1554 99.3659C88.2174 98.9166 88.0591 98.4296 87.6803 97.9053C87.2937 97.3702 86.8747 97.0583 86.4235 96.9692C85.9758 96.8772 85.5344 96.9885 85.0992 97.303C84.6678 97.6148 84.423 97.9941 84.3646 98.4408C84.3036 98.8838 84.4613 99.3657 84.8375 99.8863C85.2241 100.421 85.6424 100.737 86.0925 100.832C86.5437 100.921 86.9832 100.811 87.4107 100.502ZM90.5948 101.696L88.3898 103.208C88.0879 103.61 87.8982 103.976 87.8206 104.307C87.747 104.635 87.7819 104.899 87.9252 105.097C88.1198 105.366 88.4295 105.474 88.8539 105.421C89.2786 105.367 89.7626 105.145 90.3057 104.752C91.0376 104.223 91.5618 103.634 91.8779 102.985C92.1947 102.335 92.2122 101.816 91.9306 101.426C91.8614 101.331 91.7789 101.269 91.6826 101.242C91.5931 101.215 91.4864 101.222 91.3632 101.262C91.2463 101.303 91.1304 101.358 91.0148 101.425C90.9029 101.489 90.7631 101.58 90.5948 101.696ZM98.5383 95.6733L97.1859 96.6988C97.0604 96.7196 96.9513 96.6663 96.8591 96.5387C96.7696 96.4148 96.7506 96.2909 96.8019 96.1673L97.6339 95.5662C97.6802 95.5327 97.6842 95.4898 97.6458 95.4366L94.9194 91.6633C94.7044 91.3658 94.4509 91.2095 94.1583 91.1944C93.8698 91.176 93.5811 91.2715 93.2922 91.4802C93.0841 91.6306 92.909 91.8058 92.7661 92.0062C92.6249 92.1998 92.5192 92.3866 92.4498 92.5661C92.3841 92.7433 92.3362 92.9449 92.3066 93.1711C92.2807 93.395 92.2681 93.5845 92.269 93.7403C92.274 93.8932 92.284 94.0691 92.299 94.2685L94.6875 97.5741C94.7259 97.6273 94.7679 97.637 94.8143 97.6035L95.6462 97.0024C95.785 96.9992 95.8963 97.0563 95.9809 97.1733C96.0678 97.2936 96.0847 97.414 96.0302 97.5338L94.6323 98.4956L93.3089 99.5001C93.1718 99.5132 93.0611 99.4611 92.9766 99.3441C92.8946 99.2307 92.8773 99.1057 92.9249 98.9687L93.7513 98.3716C93.7973 98.3383 93.8016 98.2952 93.7632 98.2419L88.8098 91.3866C88.7689 91.33 88.7214 91.3211 88.6675 91.36L87.8527 91.9488C87.7205 91.9688 87.6099 91.9167 87.5201 91.7925C87.4305 91.6685 87.4121 91.5419 87.4647 91.4119C87.5752 91.3376 87.7531 91.2224 87.998 91.067C88.2473 90.9086 88.3932 90.8142 88.4356 90.7836C88.5395 90.7085 88.6452 90.6077 88.7532 90.4809C88.8585 90.351 88.9365 90.2679 88.9865 90.2318C89.1597 90.1066 89.3116 90.134 89.4422 90.3148L91.6924 93.429C91.7336 92.3422 92.2014 91.476 93.0951 90.8302C93.5997 90.4656 94.1034 90.2903 94.606 90.3045C95.1061 90.3154 95.4947 90.5118 95.771 90.8942L98.5704 94.7685C98.6088 94.8217 98.6508 94.8313 98.6972 94.7979L99.5291 94.1967C99.6626 94.1868 99.7742 94.2437 99.8638 94.3677C99.956 94.4953 99.9723 94.6155 99.9131 94.7282L98.5383 95.6733ZM97.8908 88.4243L97.1687 88.9461C96.98 89.0825 96.8282 89.0711 96.7129 88.9115C96.5848 88.7343 96.6362 88.5624 96.8673 88.3954C97.2565 88.1142 97.4691 87.8934 97.5054 87.7324C97.5452 87.5687 97.4469 87.3108 97.21 86.9587C97.0642 86.7084 97.0914 86.5107 97.2919 86.3658C97.3843 86.299 97.4768 86.2727 97.5692 86.2869C97.6651 86.2986 97.7415 86.3433 97.7976 86.421L98.4158 87.2765L100.232 85.8834C100.321 85.8195 100.413 85.7931 100.509 85.8043C100.609 85.813 100.694 85.8651 100.763 85.9609C100.832 86.0565 100.856 86.155 100.836 86.2559C100.816 86.3509 100.76 86.4269 100.666 86.4838L98.8154 87.7562L101.58 91.5827C101.803 91.8907 102.02 92.0687 102.229 92.1163C102.437 92.1602 102.67 92.0891 102.928 91.9027C103.121 91.7635 103.274 91.5857 103.387 91.3691C103.501 91.1462 103.567 90.9127 103.584 90.6684C103.592 90.4524 103.641 90.3121 103.729 90.2482C103.872 90.1451 104.001 90.1734 104.116 90.3327C104.169 90.4071 104.197 90.5221 104.198 90.6778C104.199 90.8336 104.174 90.994 104.124 91.16C103.981 91.7164 103.615 92.2074 103.025 92.6332C102.902 92.7223 102.77 92.799 102.629 92.8632C102.494 92.9283 102.344 92.9771 102.18 93.0097C102.016 93.0419 101.857 93.0491 101.703 93.0306C101.549 93.0123 101.391 92.9566 101.23 92.8629C101.072 92.7665 100.931 92.6314 100.805 92.4579L97.8908 88.4243Z" fill="black"/>
<path d="M46.4519 52.5674C50.6476 50.9879 52.2633 49.4756 54.8337 46.5111" stroke="black" stroke-width="0.5"/>
<path d="M57.0171 50.2253L65.1567 59.7592" stroke="black" stroke-width="0.5"/>
<path d="M50.0053 55.0617L56.2278 65.7507" stroke="black" stroke-width="0.5"/>
<path d="M53.8407 88.4126C59.814 86.4162 62.7888 84.501 67.6981 80.2405" stroke="black" stroke-width="0.5"/>
<path d="M72.5724 77.6388C76.28 75.9428 77.8384 74.6285 80.2968 72.0575" stroke="black" stroke-width="0.5"/>
<path d="M79.473 74.0332C80.9211 73.4539 87.4408 66.6056 89.7219 63.6367" stroke="black" stroke-width="0.5"/>
<path d="M53.3955 93.3359C56.6551 105.354 59.1697 111.021 63.5386 117.067" stroke="black" stroke-width="0.5"/>
<path d="M39.03 38.8337L43.5653 43.3793" stroke="black" stroke-width="0.5"/>
<path d="M40.6746 36.9552L45.0434 43.0016" stroke="black" stroke-width="0.5"/>
<path d="M43.9064 34.85L47.1799 41.4578" stroke="black" stroke-width="0.5"/>
<path d="M46.096 34.4183L48.6049 39.968" stroke="black" stroke-width="0.5"/>
<path d="M29.7462 25.9852L38.1032 36.5124" stroke="black" stroke-width="0.5"/>
<path d="M37.7983 20.8573L46.1553 31.3845" stroke="black" stroke-width="0.5"/>
<path d="M35.6077 21.98L43.9647 32.5072" stroke="black" stroke-width="0.5"/>
<path d="M28.266 27.7449L36.623 38.2721" stroke="black" stroke-width="0.5"/>
<path d="M33.417 23.1027L41.774 33.6299" stroke="black" stroke-width="0.5"/>
<path d="M31.4448 24.5277L39.8018 35.0549" stroke="black" stroke-width="0.5"/>
<path d="M116.652 96.4061C114.899 89.7447 112.41 85.6404 108.415 78.4293" stroke="black" stroke-width="0.5"/>
<path d="M57.1049 101.239C59.3137 107.154 60.526 110.501 63.9796 114.908" stroke="black" stroke-width="0.5"/>
<path d="M98.9661 66.3904C104.643 69.0964 107.141 70.9238 110.281 74.7801" stroke="black" stroke-width="0.5"/>
<path d="M109.847 72.7936C111.724 74.8913 112.822 75.9954 114.215 78.8399M104.162 68.3882C104.998 68.7046 105.465 68.9829 106.294 69.6083" stroke="black" stroke-width="0.5"/>
<path d="M63.5321 84.8611C65.8475 83.6 66.94 82.7783 68.5177 81.0287" stroke="black" stroke-width="0.5"/>
<path d="M64.6667 58.0425C64.973 58.1893 65.5592 58.9314 65.8141 59.2842" stroke="black" stroke-width="0.5"/>
<path d="M56.4276 78.4907C57.369 76.6997 57.4588 75.6128 56.8728 73.5675" stroke="black" stroke-width="0.5"/>
<path d="M57.8516 77.6918C58.5231 77.3843 58.965 75.6965 58.4029 74.9927" stroke="black" stroke-width="0.5"/>
<path d="M71.8806 64.5641C72.4771 65.5025 73.1353 65.6352 74.4509 65.6979" stroke="black" stroke-width="0.5"/>
<path d="M62.1104 120.63C64.5549 123.386 66.0838 124.68 68.9966 126.698M50.7118 94.8148C50.7247 95.9568 50.797 96.5769 51.4192 97.5248" stroke="black" stroke-width="0.5"/>
<path d="M53.3608 43.4339L51.9409 41.4689" stroke="black" stroke-width="0.5"/>
<path d="M44.3205 50.6563L42.573 48.2377" stroke="black" stroke-width="0.5"/>
<path d="M54.5102 43.2937L52.7627 40.8751" stroke="black" stroke-width="0.5"/>
<path d="M44.9779 50.1813L43.2303 47.7628" stroke="black" stroke-width="0.5"/>
<path d="M49.4715 46.0141L48.1609 44.2002" stroke="black" stroke-width="0.5"/>
<path d="M48.4855 46.7266L47.1748 44.9127" stroke="black" stroke-width="0.5"/>
<path d="M47.2809 47.1368L46.1887 45.6252" stroke="black" stroke-width="0.5"/>
<path d="M46.6225 48.3028L45.2026 46.3377" stroke="black" stroke-width="0.5"/>
<path d="M45.6363 49.0153L44.2164 47.0502" stroke="black" stroke-width="0.5"/>
<path d="M50.4576 45.3016L49.147 43.4877" stroke="black" stroke-width="0.5"/>
<path d="M51.5529 44.7402L50.1331 42.7751" stroke="black" stroke-width="0.5"/>
<path d="M52.539 44.0277L51.1191 42.0626" stroke="black" stroke-width="0.5"/>
</g>
<defs>
<clipPath id="clip0_268_1477">
<rect width="79.8885" height="118.235" fill="white" transform="translate(0 46.7883) rotate(-35.8503)"/>
</clipPath>
</defs>
</svg>
