<svg width="100" height="109" viewBox="0 0 100 109" fill="none" xmlns="http://www.w3.org/2000/svg">
<path d="M3.33236 29.9313L51.436 2.07353C53.0851 1.11851 55.2109 1.69581 56.1817 3.37199L97.0234 73.8956C97.994 75.5718 97.4367 77.703 95.7876 78.658L47.684 106.516C46.0349 107.471 43.9091 106.894 42.9383 105.217L2.09663 34.6938C1.12596 33.0175 1.68327 30.8863 3.33236 29.9313Z" fill="black" stroke="white" stroke-width="0.5"/>
<path d="M52.0301 5.16962L6.23517 31.6904C5.20791 32.2853 4.86344 33.6107 5.46576 34.6508L44.803 102.577C45.4053 103.617 46.7263 103.978 47.7536 103.383L93.5485 76.8618C94.5758 76.2669 94.9203 74.9415 94.3179 73.9014L54.9807 5.97567C54.3784 4.93559 53.0573 4.57471 52.0301 5.16962Z" fill="black" stroke="white" stroke-width="0.5"/>
<path d="M9.38744 36.5417L5.1543 38.9932L9.96803 47.3053L14.2012 44.8538L9.38744 36.5417Z" fill="black"/>
<path d="M10.8395 42.971L10.1363 43.3918C10.0839 43.4244 10.0503 43.4608 10.0356 43.5009C10.0213 43.5397 10.0271 43.5854 10.0532 43.6381L10.1379 43.8075C10.1384 43.8354 10.125 43.8574 10.0974 43.8734C10.0682 43.8903 10.0416 43.8915 10.0176 43.8771L9.69258 43.2812C9.68377 43.266 9.6873 43.2538 9.70317 43.2446C9.70567 43.2432 9.79427 43.193 9.96896 43.0941C10.1432 42.9943 10.3218 42.8926 10.5048 42.7888C10.6874 42.6842 10.7907 42.6249 10.815 42.6109C10.845 42.5935 10.875 42.5885 10.905 42.596C10.9345 42.6026 10.9573 42.6199 10.9735 42.6478C10.9848 42.6673 10.9909 42.6971 10.9918 42.7371L11.0246 44.2612C11.024 44.2909 11.0241 44.3123 11.0249 44.3253C11.0258 44.3384 11.0284 44.3554 11.0329 44.3766C11.0376 44.3964 11.0449 44.4147 11.0548 44.4317C11.0665 44.452 11.0864 44.467 11.1144 44.4768C11.1431 44.486 11.172 44.4925 11.2008 44.4961C11.23 44.4985 11.2608 44.5082 11.2931 44.5256C11.3264 44.5426 11.3527 44.5679 11.3724 44.6018C11.3978 44.6457 11.4042 44.6923 11.3914 44.7415C11.3781 44.7898 11.3468 44.8282 11.2975 44.8567C11.2399 44.8901 11.1772 44.8983 11.1093 44.8811C11.0417 44.8627 10.9859 44.8154 10.9418 44.7393C10.9114 44.6868 10.8907 44.6289 10.8795 44.5653C10.8687 44.5004 10.8613 44.4212 10.8573 44.3276L10.8395 42.971Z" fill="white"/>
<path d="M80.6219 80.3993L84.855 77.9478L80.0413 69.6356L75.8082 72.0871L80.6219 80.3993Z" fill="black"/>
<path d="M9.95918 41.5519L9.63138 40.9859C10.9543 39.9738 9.34225 39.379 7.82433 38.5856C7.75847 40.5342 7.83878 42.0249 9.16658 41.3771L9.45924 41.8415L9.95918 41.5519Z" fill="white"/>
<path d="M79.7754 73.0985L79.0606 73.499C79.0061 73.5283 78.9578 73.5393 78.9158 73.532C78.875 73.5252 78.8383 73.4973 78.8054 73.4485L78.7007 73.2908C78.6768 73.2764 78.651 73.2771 78.6234 73.2931C78.5943 73.31 78.5799 73.3325 78.5805 73.3604L78.9356 73.9389C78.9444 73.9541 78.9568 73.9572 78.9727 73.9479C78.9751 73.9465 79.0627 73.8946 79.2354 73.7923C79.4087 73.6909 79.5858 73.5866 79.7669 73.4795C79.9486 73.3732 80.0514 73.313 80.0755 73.299C80.1057 73.2816 80.125 73.2581 80.1334 73.2282C80.1423 73.1995 80.1386 73.1711 80.1225 73.1432C80.1112 73.1237 80.0884 73.1036 80.0541 73.0828L78.7486 72.2959C78.7225 72.2816 78.7039 72.2709 78.6931 72.2636C78.6822 72.2564 78.6688 72.2456 78.6526 72.2313C78.6378 72.2173 78.6256 72.2018 78.6157 72.1848C78.604 72.1645 78.6008 72.1398 78.6062 72.1107C78.6126 72.0812 78.6212 72.0529 78.6324 72.0261C78.645 71.9996 78.6519 71.968 78.6529 71.9313C78.6546 71.8941 78.6459 71.8586 78.6263 71.8247C78.6008 71.7808 78.5635 71.7521 78.5146 71.7386C78.4661 71.7262 78.4171 71.7342 78.3679 71.7627C78.3103 71.7961 78.2719 71.8464 78.253 71.9139C78.2353 71.9817 78.2486 72.0537 78.2926 72.1298C78.323 72.1822 78.363 72.229 78.4126 72.2703C78.4634 72.312 78.5286 72.3579 78.6077 72.4079L79.7754 73.0985Z" fill="white"/>
<path d="M80.5682 74.5683L80.896 75.1343C82.4322 74.4906 82.1458 76.185 82.0785 77.8964C80.3556 76.9837 79.1026 76.1721 80.3254 75.3428L80.0682 74.8579L80.5682 74.5683Z" fill="white"/>
<path d="M25.7777 42.181L24.9594 40.6389C28.7713 37.5816 24.4089 36.1601 20.3373 34.1647C19.8541 39.6611 19.8456 43.8456 23.6146 41.8131L24.3516 43.0747L25.7777 42.181Z" stroke="white" stroke-width="0.5"/>
<path d="M52.5877 26.6546L51.7693 25.1125C55.5813 22.0553 51.2188 20.6337 47.1473 18.6384C46.6641 24.1347 46.6556 28.3192 50.4246 26.2867L51.1616 27.5483L52.5877 26.6546Z" stroke="white" stroke-width="0.5"/>
<path d="M44.9411 43.9174L44.1227 42.3753C47.9346 39.318 43.5722 37.8965 39.5006 35.9011C39.0175 41.3974 39.0089 45.582 42.778 43.5495L43.5149 44.8111L44.9411 43.9174Z" stroke="white" stroke-width="0.5"/>
<path d="M37.1661 61.2543L36.3478 59.7122C40.1597 56.6549 35.7973 55.2334 31.7257 53.238C31.2425 58.7344 31.234 62.9189 35.003 60.8864L35.74 62.148L37.1661 61.2543Z" stroke="white" stroke-width="0.5"/>
<path d="M63.9757 45.7279L63.1573 44.1858C66.9693 41.1286 62.6068 39.7071 58.5352 37.7116C58.0521 43.208 58.0436 47.3925 61.8126 45.36L62.5495 46.6216L63.9757 45.7279Z" stroke="white" stroke-width="0.5"/>
<path d="M53.4655 89.1034L52.6472 87.5613C56.4591 84.5041 52.0967 83.0825 48.0251 81.0871C47.5419 86.5835 47.5334 90.768 51.3024 88.7355L52.0394 89.9971L53.4655 89.1034Z" stroke="white" stroke-width="0.5"/>
<path d="M80.2751 73.577L79.4567 72.0349C83.2687 68.9777 78.9062 67.5562 74.8346 65.5607C74.3515 71.0571 74.343 75.2417 78.112 73.2091L78.8489 74.4708L80.2751 73.577Z" stroke="white" stroke-width="0.5"/>
<path d="M59.4131 68.3153L58.5947 66.7732C62.4067 63.716 58.0442 62.2945 53.9726 60.299C53.4895 65.7954 53.481 69.9799 57.25 67.9474L57.9869 69.209L59.4131 68.3153Z" stroke="white" stroke-width="0.5"/>
</svg>
