<svg width="209" height="122" viewBox="0 0 209 122" fill="none" xmlns="http://www.w3.org/2000/svg">
<g clip-path="url(#clip0_341_4)">
<path d="M205.696 52.2352L166.235 3.41218C164.877 1.73211 162.318 1.51925 160.514 2.97766L85.7376 63.4153C83.9332 64.8737 83.6046 67.4207 84.9625 69.1008L124.424 117.924C125.782 119.604 128.341 119.817 130.145 118.358L204.921 57.9207C206.726 56.4624 207.054 53.9153 205.696 52.2352Z" fill="black" stroke="white" stroke-width="0.5"/>
<path d="M164.206 6.55932L201.772 53.0385C202.615 54.0811 202.404 55.6488 201.301 56.5402L129.279 114.752C128.177 115.643 126.599 115.521 125.757 114.478L88.19 67.9988C87.3474 66.9562 87.5582 65.3884 88.661 64.4971L160.683 6.28541C161.786 5.39408 163.363 5.51671 164.206 6.55932Z" fill="black" stroke="white" stroke-width="0.5"/>
<path d="M196.26 57.0635L199.733 61.3599L190.919 68.4833L187.447 64.1869L196.26 57.0635Z" fill="black"/>
<path d="M195.873 61.0242C196.921 58.5403 193.09 58.9097 193.774 62.7202C197.606 63.9867 198.41 60.6882 195.873 61.0242Z" fill="white" stroke="white"/>
<path d="M190.497 65.235C190.664 65.441 190.868 65.5438 191.111 65.5438C191.355 65.5428 191.598 65.4449 191.839 65.2499C191.979 65.137 192.096 65.0046 192.192 64.8532C192.287 64.7018 192.357 64.5392 192.4 64.3654C192.443 64.1909 192.454 64.0043 192.435 63.8057C192.415 63.6072 192.362 63.41 192.274 63.2142C192.265 63.192 192.255 63.1733 192.242 63.1581C192.23 63.1428 192.215 63.1357 192.196 63.1366C192.178 63.136 192.162 63.1415 192.147 63.1531C192.115 63.1792 192.109 63.2184 192.129 63.2708C192.216 63.5142 192.243 63.7519 192.209 63.9836C192.175 64.2144 192.066 64.4276 191.883 64.6232C191.903 64.5499 191.902 64.4693 191.881 64.3811C191.86 64.2929 191.817 64.2081 191.751 64.1267C191.69 64.0505 191.616 63.9884 191.532 63.9405C191.447 63.8925 191.357 63.8613 191.26 63.8467C191.164 63.832 191.061 63.8415 190.952 63.8751C190.843 63.9072 190.738 63.9637 190.638 64.045C190.511 64.1478 190.419 64.2694 190.364 64.4097C190.308 64.5499 190.292 64.6924 190.316 64.8372C190.339 64.982 190.4 65.1146 190.497 65.235ZM190.629 65.1345C190.548 65.0337 190.53 64.9183 190.576 64.7884C190.623 64.657 190.732 64.5214 190.906 64.3815C191.24 64.1112 191.492 64.0807 191.661 64.29C191.748 64.3977 191.772 64.514 191.732 64.6387C191.691 64.7627 191.59 64.8902 191.427 65.0214C191.258 65.1583 191.102 65.2355 190.959 65.253C190.816 65.2698 190.707 65.2303 190.629 65.1345Z" fill="white"/>
<path d="M93.2894 64.3079L90.0368 60.2837L98.8502 53.1603L102.103 57.1845L93.2894 64.3079Z" fill="black"/>
<path d="M93.8729 60.6955C92.8243 63.1795 96.6556 62.81 95.9713 58.9995C92.1392 57.7331 91.3362 61.0316 93.8729 60.6955Z" fill="white" stroke="white"/>
<path d="M99.0336 56.1137C98.8672 55.9077 98.6624 55.8048 98.4196 55.8049C98.1756 55.8059 97.9333 55.9038 97.692 56.0988C97.5522 56.2118 97.4344 56.344 97.3389 56.4954C97.2435 56.6469 97.1741 56.8095 97.1308 56.9833C97.0882 57.1579 97.0766 57.3444 97.0962 57.5429C97.1159 57.7414 97.1693 57.9387 97.2565 58.1345C97.2655 58.1567 97.276 58.1753 97.2884 58.1906C97.3007 58.2059 97.3162 58.2129 97.3346 58.2121C97.353 58.2127 97.3693 58.2073 97.3837 58.1956C97.416 58.1696 97.422 58.1303 97.4019 58.0778C97.3147 57.8345 97.2879 57.5968 97.3215 57.3651C97.3558 57.1343 97.4643 56.921 97.6474 56.7255C97.6278 56.7988 97.6285 56.8794 97.6495 56.9676C97.6705 57.0558 97.7137 57.1405 97.7795 57.2219C97.8411 57.2982 97.9144 57.3604 97.999 57.4082C98.0835 57.4561 98.1741 57.4873 98.2704 57.502C98.3667 57.5167 98.4694 57.5071 98.5786 57.4735C98.6878 57.4415 98.7923 57.3849 98.8929 57.3037C99.0201 57.2008 99.1116 57.0794 99.1673 56.939C99.2228 56.7987 99.2388 56.6562 99.2151 56.5114C99.1915 56.3667 99.1309 56.234 99.0336 56.1137ZM98.9016 56.2142C98.983 56.315 99.0007 56.4304 98.9544 56.5602C98.908 56.6918 98.7984 56.8273 98.6253 56.9672C98.2909 57.2375 98.039 57.268 97.8698 57.0587C97.7827 56.951 97.7592 56.8346 97.7992 56.71C97.8399 56.586 97.9413 56.4585 98.1036 56.3272C98.273 56.1903 98.4292 56.1132 98.5722 56.0957C98.7143 56.0788 98.8241 56.1184 98.9016 56.2142Z" fill="white"/>
<path d="M135.894 42.7241C146.915 40.2884 141.57 55.3931 126.976 49.9322C125.759 33.6594 139.8 32.7884 135.894 42.7241Z" stroke="white" stroke-width="0.5"/>
<path d="M162.472 21.2427C173.493 18.8069 168.148 33.9116 153.554 28.4508C152.337 12.1779 166.377 11.307 162.472 21.2427Z" stroke="white" stroke-width="0.5"/>
<path d="M108.077 65.2075C119.097 62.7718 113.753 77.8764 99.159 72.4156C97.942 56.1428 111.982 55.2718 108.077 65.2075Z" stroke="white" stroke-width="0.5"/>
<path d="M159.676 72.1479C170.696 69.7122 165.352 84.8169 150.758 79.356C149.541 63.0832 163.581 62.2123 159.676 72.1479Z" stroke="white" stroke-width="0.5"/>
<path d="M186.254 50.666C197.274 48.2302 191.93 63.335 177.336 57.8741C176.119 41.6013 190.159 40.7303 186.254 50.666Z" stroke="white" stroke-width="0.5"/>
<path d="M131.859 94.6308C142.879 92.1951 137.535 107.3 122.941 101.839C121.724 85.5661 135.764 84.6952 131.859 94.6308Z" stroke="white" stroke-width="0.5"/>
</g>
<g clip-path="url(#clip1_341_4)">
<path d="M32.6669 37.02L2.16446 55.7182C1.16564 56.3305 0.857821 57.6732 1.50114 58.7227L29.479 104.363C30.1224 105.412 31.4586 105.747 32.4574 105.135L62.9598 86.437C63.9582 85.8247 64.2653 84.4823 63.6223 83.433L35.6444 37.7926C35.0012 36.7433 33.6656 36.408 32.6669 37.02Z" fill="black" stroke="white" stroke-width="0.5"/>
<path d="M3.71064 56.9631L32.7489 39.1624C33.4003 38.7631 34.2628 38.9851 34.6754 39.6582L61.6227 83.6174C62.0353 84.2905 61.8418 85.1599 61.1904 85.5592L32.1521 103.36C31.5007 103.759 30.6382 103.537 30.2256 102.864L3.27832 58.9048C2.86571 58.2317 3.05926 57.3624 3.71064 56.9631Z" fill="black" stroke="white" stroke-width="0.5"/>
<path d="M34.5699 42.4985L37.2541 40.853L40.5517 46.2324L37.8675 47.8778L34.5699 42.4985Z" fill="black"/>
<path d="M37.8082 45.361L38.2618 45.092C38.2964 45.0723 38.3274 45.0646 38.3548 45.0689C38.3813 45.073 38.4057 45.0907 38.4279 45.1223L38.4992 45.2242C38.515 45.2334 38.5317 45.2327 38.5491 45.2219C38.5677 45.2106 38.5764 45.1957 38.5754 45.1775L38.333 44.8033C38.3269 44.7935 38.3189 44.7916 38.3088 44.7978C38.3072 44.7988 38.2517 44.8336 38.1422 44.9022C38.0324 44.9703 37.9201 45.0402 37.8053 45.1121C37.6902 45.1834 37.625 45.2238 37.6096 45.2332C37.5906 45.2449 37.5786 45.2605 37.5738 45.28C37.5687 45.2989 37.5717 45.3174 37.5827 45.3355C37.5905 45.3481 37.6057 45.361 37.6283 45.3742L38.4902 45.8746C38.5074 45.8836 38.5196 45.8905 38.5268 45.8951C38.534 45.8997 38.543 45.9066 38.5537 45.9158C38.5636 45.9248 38.5719 45.9348 38.5787 45.9458C38.5867 45.9589 38.5893 45.975 38.5864 45.9941C38.583 46.0134 38.578 46.032 38.5713 46.0496C38.5638 46.0671 38.56 46.0877 38.5602 46.1117C38.5598 46.1361 38.5663 46.1592 38.5798 46.1811C38.5972 46.2095 38.6219 46.2279 38.6539 46.2361C38.6856 46.2438 38.717 46.238 38.7483 46.2189C38.7848 46.1965 38.8085 46.1632 38.8192 46.119C38.8291 46.0745 38.819 46.0276 38.7888 45.9784C38.768 45.9444 38.7411 45.9143 38.7081 45.8878C38.6743 45.8611 38.6312 45.8318 38.5789 45.7999L37.8082 45.361Z" fill="white"/>
<path d="M30.4856 100.276L27.8014 101.922L24.5039 96.5425L27.1881 94.8971L30.4856 100.276Z" fill="black"/>
<path d="M37.2629 44.4092L37.0384 44.0429C36.0588 44.4794 36.2067 43.3697 36.2124 42.2511C37.3471 42.8293 38.1756 43.3463 37.4029 43.9007L37.5799 44.2148L37.2629 44.4092Z" fill="white"/>
<path d="M26.5654 97.4852L27.0109 97.203C27.0442 97.1811 27.0651 97.157 27.0737 97.1307C27.0821 97.1052 27.0773 97.0754 27.0593 97.0412L27.0008 96.9315C26.9998 96.9132 27.008 96.8987 27.0255 96.888C27.044 96.8767 27.0612 96.8756 27.077 96.8847L27.3005 97.2706C27.3065 97.2804 27.3045 97.2885 27.2944 97.2946C27.2928 97.2956 27.2366 97.3293 27.1258 97.3957C27.0154 97.4627 26.902 97.531 26.7859 97.6007C26.6701 97.671 26.6045 97.7107 26.5892 97.7201C26.5701 97.7318 26.5508 97.7354 26.5312 97.7308C26.5121 97.7268 26.4969 97.7157 26.4858 97.6977C26.4781 97.6851 26.4735 97.6657 26.472 97.6395L26.4171 96.6444C26.4169 96.625 26.4164 96.611 26.4155 96.6024C26.4147 96.5939 26.4126 96.5829 26.4093 96.5691C26.4057 96.5562 26.4006 96.5443 26.3938 96.5333C26.3858 96.5202 26.3726 96.5106 26.3543 96.5044C26.3355 96.4987 26.3167 96.4948 26.298 96.4927C26.279 96.4915 26.2589 96.4855 26.2376 96.4745C26.2157 96.4637 26.1981 96.4475 26.1846 96.4255C26.1672 96.3971 26.1621 96.3667 26.1692 96.3345C26.1768 96.3028 26.1962 96.2774 26.2274 96.2582C26.264 96.2358 26.3043 96.2298 26.3487 96.2403C26.3928 96.2516 26.43 96.2819 26.4602 96.3312C26.481 96.3652 26.4957 96.4028 26.5043 96.4442C26.5127 96.4864 26.5192 96.5382 26.5239 96.5993L26.5654 97.4852Z" fill="white"/>
<path d="M27.1662 98.4032L27.3907 98.7695C26.5573 99.4444 27.6133 99.8161 28.6128 100.319C28.6124 99.0451 28.5274 98.0721 27.6828 98.5092L27.4833 98.2089L27.1662 98.4032Z" fill="white"/>
<path d="M32.833 53.6516L32.1986 52.6963C29.2954 53.9095 29.8031 50.966 29.8945 48.0075C33.1851 49.4684 35.5815 50.7861 33.2775 52.2986L33.7761 53.1187L32.833 53.6516Z" stroke="white" stroke-width="0.5"/>
<path d="M15.833 64.073L15.1986 63.1177C12.2954 64.3308 12.8031 61.3874 12.8945 58.4288C16.185 59.8898 18.5815 61.2075 16.2775 62.7199L16.7761 63.54L15.833 64.073Z" stroke="white" stroke-width="0.5"/>
<path d="M28.0238 65.157L27.3894 64.2017C24.4862 65.4149 24.9939 62.4714 25.0852 59.5128C28.3758 60.9738 30.7723 62.2915 28.4683 63.804L28.9669 64.6241L28.0238 65.157Z" stroke="white" stroke-width="0.5"/>
<path d="M40.2959 66.1912L39.6615 65.2359C36.7583 66.4491 37.266 63.5056 37.3574 60.547C40.648 62.008 43.0444 63.3257 40.7404 64.8382L41.239 65.6582L40.2959 66.1912Z" stroke="white" stroke-width="0.5"/>
<path d="M23.2959 76.6121L22.6615 75.6568C19.7583 76.87 20.2661 73.9265 20.3574 70.9679C23.648 72.4289 26.0444 73.7466 23.7404 75.2591L24.239 76.0791L23.2959 76.6121Z" stroke="white" stroke-width="0.5"/>
<path d="M51.2923 84.3123L50.6579 83.357C47.7547 84.5702 48.2625 81.6267 48.3538 78.6681C51.6444 80.1291 54.0408 81.4468 51.7369 82.9593L52.2354 83.7793L51.2923 84.3123Z" stroke="white" stroke-width="0.5"/>
<path d="M34.2923 94.7332L33.6579 93.7779C30.7547 94.991 31.2625 92.0476 31.3538 89.089C34.6444 90.55 37.0408 91.8676 34.7369 93.3801L35.2354 94.2002L34.2923 94.7332Z" stroke="white" stroke-width="0.5"/>
<path d="M37.5992 81.1423L36.9648 80.1871C34.0616 81.4002 34.5693 78.4568 34.6607 75.4982C37.9513 76.9591 40.3477 78.2768 38.0437 79.7893L38.5423 80.6094L37.5992 81.1423Z" stroke="white" stroke-width="0.5"/>
</g>
<defs>
<clipPath id="clip0_341_4">
<rect width="71.146" height="105" fill="white" transform="matrix(-0.628599 -0.777729 -0.777729 0.628599 208.521 55.3325)"/>
</clipPath>
<clipPath id="clip1_341_4">
<rect width="40.5476" height="58.4624" fill="white" transform="matrix(-0.852562 0.522626 0.522626 0.852562 34.5694 35.5605)"/>
</clipPath>
</defs>
</svg>
