<svg width="99" height="109" viewBox="0 0 99 109" fill="none" xmlns="http://www.w3.org/2000/svg">
<g clip-path="url(#clip0_341_5)">
<path d="M47.1123 2.05011L95.4265 29.541C97.0828 30.4835 97.6563 32.6103 96.6984 34.2939L56.3947 105.126C55.4366 106.81 53.3153 107.403 51.6589 106.461L3.34473 78.9699C1.68841 78.0275 1.1149 75.9006 2.07278 74.217L42.3765 3.38465C43.3346 1.70113 45.4559 1.10767 47.1123 2.05011Z" fill="black" stroke="white" stroke-width="0.5"/>
<path d="M93.0526 31.6153L47.0571 5.44385C46.0254 4.85678 44.7071 5.2277 44.1127 6.27232L5.29359 74.4955C4.6992 75.5401 5.05375 76.8629 6.08551 77.4499L52.0809 103.621C53.1127 104.209 54.4309 103.838 55.0253 102.793L93.8445 34.5698C94.4389 33.5252 94.0843 32.2024 93.0526 31.6153Z" fill="black" stroke="white" stroke-width="0.5"/>
<path d="M44.4572 10.6126L40.2056 8.19336L35.4552 16.5419L39.7069 18.9611L44.4572 10.6126Z" fill="black"/>
<path d="M39.6376 15.1087L38.9197 14.7136C38.865 14.6848 38.8167 14.6742 38.7746 14.6817C38.7339 14.6889 38.6974 14.717 38.665 14.7661L38.5615 14.9246C38.5376 14.9392 38.5118 14.9386 38.4841 14.9229C38.4548 14.9062 38.4403 14.8838 38.4407 14.8559L38.7913 14.2747C38.8 14.2594 38.8124 14.2563 38.8283 14.2654C38.8308 14.2668 38.9188 14.318 39.0923 14.419C39.2663 14.5191 39.4443 14.622 39.6261 14.7278C39.8085 14.8327 39.9119 14.892 39.9362 14.9059C39.9664 14.923 39.9858 14.9465 39.9945 14.9761C40.0036 15.0049 40.0002 15.0334 39.9843 15.0614C39.9731 15.081 39.9505 15.1012 39.9164 15.1222L38.6168 15.9191C38.5909 15.9335 38.5724 15.9444 38.5616 15.9518C38.5508 15.9591 38.5374 15.9699 38.5213 15.9845C38.5067 15.9985 38.4945 16.0141 38.4848 16.0312C38.4732 16.0515 38.4702 16.0762 38.4759 16.1054C38.4824 16.1348 38.4914 16.163 38.5028 16.1897C38.5155 16.2162 38.5226 16.2476 38.5239 16.2843C38.526 16.3216 38.5175 16.3571 38.4981 16.3912C38.473 16.4353 38.436 16.4643 38.3871 16.4781C38.3386 16.4909 38.2897 16.4833 38.2402 16.4551C38.1823 16.4222 38.1436 16.3722 38.1242 16.3048C38.1061 16.2372 38.1187 16.1651 38.1622 16.0887C38.1922 16.036 38.2318 15.9889 38.2811 15.9472C38.3316 15.9052 38.3963 15.8588 38.4751 15.8081L39.6376 15.1087Z" fill="white"/>
<path d="M54.4583 98.844L58.71 101.263L63.4603 92.9147L59.2086 90.4954L54.4583 98.844Z" fill="black"/>
<path d="M40.4192 13.6328L40.7426 13.0643C42.2838 13.6963 41.9845 12.0043 41.9041 10.2934C40.1883 11.2192 38.9414 12.0403 40.1705 12.8602L39.917 13.3471L40.4192 13.6328Z" fill="white"/>
<path d="M60.3359 94.4314L59.6296 94.016C59.5769 93.9838 59.543 93.9476 59.5281 93.9076C59.5134 93.8689 59.519 93.8232 59.5445 93.7702L59.6279 93.6003C59.6283 93.5723 59.6147 93.5504 59.587 93.5347C59.5577 93.518 59.531 93.517 59.5072 93.5316L59.1867 94.1299C59.178 94.1452 59.1816 94.1574 59.1976 94.1665C59.2001 94.1679 59.2891 94.2173 59.4645 94.3149C59.6394 94.4134 59.8188 94.5138 60.0026 94.6161C60.186 94.7194 60.2899 94.7778 60.3141 94.7916C60.3444 94.8088 60.3744 94.8137 60.4044 94.8059C60.4337 94.7991 60.4564 94.7816 60.4724 94.7535C60.4835 94.734 60.4894 94.7042 60.49 94.6641L60.5112 93.1398C60.5104 93.1102 60.5103 93.0887 60.5111 93.0757C60.5118 93.0627 60.5144 93.0456 60.5186 93.0244C60.5232 93.0046 60.5304 92.9862 60.5402 92.9691C60.5517 92.9488 60.5715 92.9336 60.5993 92.9235C60.6281 92.9142 60.6568 92.9074 60.6856 92.9035C60.7148 92.901 60.7456 92.8911 60.7778 92.8734C60.8108 92.8562 60.8371 92.8307 60.8564 92.7966C60.8815 92.7526 60.8875 92.7059 60.8744 92.6568C60.8607 92.6086 60.8291 92.5704 60.7796 92.5423C60.7218 92.5094 60.659 92.5016 60.5911 92.5193C60.5237 92.5382 60.4682 92.5859 60.4247 92.6624C60.3948 92.7151 60.3745 92.7732 60.3638 92.8369C60.3535 92.9018 60.3467 92.9811 60.3434 93.0748L60.3359 94.4314Z" fill="white"/>
<path d="M59.4665 95.8572L59.143 96.4257C60.4735 97.4276 58.866 98.0347 57.3542 98.8396C57.2735 96.8917 57.3425 95.4003 58.6752 96.0381L58.9643 95.5714L59.4665 95.8572Z" fill="white"/>
<path d="M47.8531 27.6099L48.772 26.1256C53.3344 27.8756 52.362 23.3916 52.0318 18.8694C47.0419 21.2239 43.4241 23.3268 47.0799 25.5565L46.3621 26.8291L47.8531 27.6099Z" stroke="white" stroke-width="0.5"/>
<path d="M74.7803 42.9317L75.6993 41.4473C80.2616 43.1974 79.2892 38.7134 78.9591 34.1912C73.9692 36.5457 70.3514 38.6485 74.0072 40.8782L73.2894 42.1508L74.7803 42.9317Z" stroke="white" stroke-width="0.5"/>
<path d="M56.0173 45.0338L56.9363 43.5495C61.4986 45.2995 60.5263 40.8155 60.1961 36.2932C55.2062 38.6478 51.5884 40.7506 55.2442 42.9804L54.5264 44.253L56.0173 45.0338Z" stroke="white" stroke-width="0.5"/>
<path d="M37.1256 47.0626L38.0446 45.5783C42.6069 47.3283 41.6346 42.8443 41.3044 38.322C36.3145 40.6766 32.6967 42.7795 36.3525 45.0092L35.6347 46.2818L37.1256 47.0626Z" stroke="white" stroke-width="0.5"/>
<path d="M64.0529 62.3839L64.9718 60.8995C69.5342 62.6496 68.5618 58.1656 68.2317 53.6433C63.2418 55.9979 59.6239 58.1007 63.2797 60.3304L62.5619 61.6031L64.0529 62.3839Z" stroke="white" stroke-width="0.5"/>
<path d="M21.2963 75.1818L22.2152 73.6974C26.7776 75.4474 25.8052 70.9635 25.4751 66.4412C20.4851 68.7957 16.8673 70.8986 20.5231 73.1283L19.8053 74.4009L21.2963 75.1818Z" stroke="white" stroke-width="0.5"/>
<path d="M48.2235 90.503L49.1425 89.0187C53.7048 90.7687 52.7324 86.2847 52.4023 81.7625C47.4124 84.117 43.7946 86.2199 47.4504 88.4496L46.7326 89.7222L48.2235 90.503Z" stroke="white" stroke-width="0.5"/>
<path d="M42.2467 69.8346L43.1657 68.3502C47.728 70.1003 46.7556 65.6163 46.4255 61.094C41.4356 63.4486 37.8178 65.5514 41.4736 67.7811L40.7558 69.0537L42.2467 69.8346Z" stroke="white" stroke-width="0.5"/>
</g>
<defs>
<clipPath id="clip0_341_5">
<rect width="63" height="89" fill="white" transform="translate(44.0148) rotate(29.64)"/>
</clipPath>
</defs>
</svg>
