<svg width="209" height="122" viewBox="0 0 209 122" fill="none" xmlns="http://www.w3.org/2000/svg">
<g clip-path="url(#clip0_341_3)">
<path d="M2.82485 52.2352L42.286 3.41218C43.644 1.73211 46.2033 1.51925 48.0077 2.97766L122.784 63.4153C124.588 64.8737 124.917 67.4207 123.559 69.1008L84.0976 117.924C82.7396 119.604 80.1802 119.817 78.3759 118.358L3.59997 57.9207C1.79569 56.4624 1.46728 53.9153 2.82485 52.2352Z" fill="black" stroke="white" stroke-width="0.5"/>
<path d="M44.3157 6.55932L6.74896 53.0385C5.90628 54.0811 6.11714 55.6488 7.21993 56.5402L79.2419 114.752C80.3447 115.643 81.9218 115.521 82.7645 114.478L120.331 67.9988C121.174 66.9562 120.963 65.3884 119.86 64.4971L47.8383 6.28541C46.7355 5.39408 45.1584 5.51671 44.3157 6.55932Z" fill="black" stroke="white" stroke-width="0.5"/>
<path d="M12.2613 57.0635L8.7887 61.3599L17.6021 68.4833L21.0746 64.1869L12.2613 57.0635Z" fill="black"/>
<path d="M12.6485 61.0242C11.5999 58.5403 15.4313 58.9097 14.7469 62.7202C10.9148 63.9867 10.1117 60.6882 12.6485 61.0242Z" fill="white" stroke="white"/>
<path d="M18.0241 65.235C17.8577 65.441 17.6529 65.5438 17.4101 65.5438C17.1661 65.5428 16.9237 65.4449 16.6825 65.2499C16.5427 65.137 16.4249 65.0046 16.3294 64.8532C16.234 64.7018 16.1646 64.5392 16.1213 64.3654C16.0787 64.1909 16.0671 64.0043 16.0867 63.8057C16.1064 63.6072 16.1598 63.41 16.2469 63.2142C16.2559 63.192 16.2666 63.1733 16.2789 63.1581C16.2912 63.1428 16.3067 63.1357 16.3252 63.1366C16.3435 63.136 16.3598 63.1415 16.3741 63.1531C16.4064 63.1792 16.4125 63.2184 16.3924 63.2708C16.3052 63.5142 16.2784 63.7519 16.312 63.9836C16.3462 64.2144 16.4548 64.4276 16.6378 64.6232C16.6183 64.5499 16.619 64.4693 16.64 64.3811C16.6609 64.2929 16.7042 64.2081 16.77 64.1267C16.8317 64.0505 16.9048 63.9884 16.9895 63.9405C17.074 63.8925 17.1646 63.8613 17.2609 63.8467C17.3572 63.832 17.46 63.8415 17.5692 63.8751C17.6782 63.9072 17.7828 63.9637 17.8834 64.045C18.0106 64.1478 18.102 64.2694 18.1577 64.4097C18.2133 64.5499 18.2293 64.6924 18.2056 64.8372C18.1819 64.982 18.1214 65.1146 18.0241 65.235ZM17.892 65.1345C17.9735 65.0337 17.9912 64.9183 17.945 64.7884C17.8985 64.657 17.7888 64.5214 17.6157 64.3815C17.2813 64.1112 17.0294 64.0807 16.8602 64.29C16.7732 64.3977 16.7498 64.514 16.7897 64.6387C16.8304 64.7627 16.9318 64.8902 17.0941 65.0214C17.2635 65.1583 17.4197 65.2355 17.5627 65.253C17.7048 65.2698 17.8146 65.2303 17.892 65.1345Z" fill="white"/>
<path d="M115.232 64.3079L118.484 60.2837L109.671 53.1603L106.419 57.1845L115.232 64.3079Z" fill="black"/>
<path d="M114.648 60.6955C115.697 63.1795 111.866 62.81 112.55 58.9995C116.382 57.7331 117.185 61.0316 114.648 60.6955Z" fill="white" stroke="white"/>
<path d="M109.488 56.1137C109.654 55.9077 109.859 55.8048 110.102 55.8049C110.346 55.8059 110.588 55.9038 110.829 56.0988C110.969 56.2118 111.087 56.344 111.182 56.4954C111.278 56.6469 111.347 56.8095 111.39 56.9833C111.433 57.1579 111.445 57.3444 111.425 57.5429C111.405 57.7414 111.352 57.9387 111.265 58.1345C111.256 58.1567 111.245 58.1753 111.233 58.1906C111.221 58.2059 111.205 58.2129 111.187 58.2121C111.168 58.2127 111.152 58.2073 111.138 58.1956C111.105 58.1696 111.099 58.1303 111.119 58.0778C111.207 57.8345 111.233 57.5968 111.2 57.3651C111.166 57.1343 111.057 56.921 110.874 56.7255C110.893 56.7988 110.893 56.8794 110.872 56.9676C110.851 57.0558 110.808 57.1405 110.742 57.2219C110.68 57.2982 110.607 57.3604 110.522 57.4082C110.438 57.4561 110.347 57.4873 110.251 57.502C110.155 57.5167 110.052 57.5071 109.943 57.4735C109.834 57.4415 109.729 57.3849 109.628 57.3037C109.501 57.2008 109.41 57.0794 109.354 56.939C109.298 56.7987 109.282 56.6562 109.306 56.5114C109.33 56.3667 109.39 56.234 109.488 56.1137ZM109.62 56.2142C109.538 56.315 109.521 56.4304 109.567 56.5602C109.613 56.6918 109.723 56.8273 109.896 56.9672C110.23 57.2375 110.482 57.268 110.652 57.0587C110.739 56.951 110.762 56.8346 110.722 56.71C110.681 56.586 110.58 56.4585 110.418 56.3272C110.248 56.1903 110.092 56.1132 109.949 56.0957C109.807 56.0788 109.697 56.1184 109.62 56.2142Z" fill="white"/>
<path d="M72.6269 42.7241C61.6067 40.2884 66.9508 55.3931 81.5451 49.9322C82.762 33.6594 68.7218 32.7884 72.6269 42.7241Z" stroke="white" stroke-width="0.5"/>
<path d="M46.049 21.2427C35.0287 18.8069 40.3729 33.9116 54.9671 28.4508C56.184 12.1779 42.1438 11.307 46.049 21.2427Z" stroke="white" stroke-width="0.5"/>
<path d="M100.444 65.2075C89.424 62.7718 94.7681 77.8764 109.362 72.4156C110.579 56.1428 96.539 55.2718 100.444 65.2075Z" stroke="white" stroke-width="0.5"/>
<path d="M48.8451 72.1479C37.825 69.7122 43.1691 84.8169 57.7633 79.356C58.9802 63.0832 44.94 62.2123 48.8451 72.1479Z" stroke="white" stroke-width="0.5"/>
<path d="M22.2672 50.666C11.247 48.2302 16.5912 63.335 31.1854 57.8741C32.4023 41.6013 18.3621 40.7303 22.2672 50.666Z" stroke="white" stroke-width="0.5"/>
<path d="M76.6624 94.6308C65.6423 92.1951 70.9864 107.3 85.5806 101.839C86.7975 85.5661 72.7573 84.6952 76.6624 94.6308Z" stroke="white" stroke-width="0.5"/>
</g>
<g clip-path="url(#clip1_341_3)">
<path d="M175.854 37.02L206.357 55.7182C207.356 56.3305 207.663 57.6732 207.02 58.7227L179.042 104.363C178.399 105.412 177.063 105.747 176.064 105.135L145.561 86.437C144.563 85.8247 144.256 84.4823 144.899 83.433L172.877 37.7926C173.52 36.7433 174.856 36.408 175.854 37.02Z" fill="black" stroke="white" stroke-width="0.5"/>
<path d="M204.811 56.9631L175.772 39.1624C175.121 38.7631 174.258 38.9851 173.846 39.6582L146.899 83.6174C146.486 84.2905 146.679 85.1599 147.331 85.5592L176.369 103.36C177.02 103.759 177.883 103.537 178.296 102.864L205.243 58.9048C205.656 58.2317 205.462 57.3624 204.811 56.9631Z" fill="black" stroke="white" stroke-width="0.5"/>
<path d="M173.951 42.4985L171.267 40.853L167.97 46.2324L170.654 47.8778L173.951 42.4985Z" fill="black"/>
<path d="M170.713 45.361L170.259 45.092C170.225 45.0723 170.194 45.0646 170.167 45.0689C170.14 45.073 170.116 45.0907 170.093 45.1223L170.022 45.2242C170.006 45.2334 169.99 45.2327 169.972 45.2219C169.954 45.2106 169.945 45.1957 169.946 45.1775L170.188 44.8033C170.194 44.7935 170.202 44.7916 170.212 44.7978C170.214 44.7988 170.27 44.8336 170.379 44.9022C170.489 44.9703 170.601 45.0402 170.716 45.1121C170.831 45.1834 170.896 45.2238 170.912 45.2332C170.931 45.2449 170.943 45.2605 170.947 45.28C170.953 45.2989 170.95 45.3174 170.939 45.3355C170.931 45.3481 170.916 45.361 170.893 45.3742L170.031 45.8746C170.014 45.8836 170.002 45.8905 169.994 45.8951C169.987 45.8997 169.978 45.9066 169.968 45.9158C169.958 45.9248 169.949 45.9348 169.943 45.9458C169.935 45.9589 169.932 45.975 169.935 45.9941C169.938 46.0134 169.943 46.032 169.95 46.0496C169.958 46.0671 169.961 46.0877 169.961 46.1117C169.961 46.1361 169.955 46.1592 169.942 46.1811C169.924 46.2095 169.899 46.2279 169.867 46.2361C169.836 46.2438 169.804 46.238 169.773 46.2189C169.736 46.1965 169.713 46.1632 169.702 46.119C169.692 46.0745 169.702 46.0276 169.732 45.9784C169.753 45.9444 169.78 45.9143 169.813 45.8878C169.847 45.8611 169.89 45.8318 169.942 45.7999L170.713 45.361Z" fill="white"/>
<path d="M178.036 100.276L180.72 101.922L184.017 96.5425L181.333 94.8971L178.036 100.276Z" fill="black"/>
<path d="M171.258 44.4092L171.483 44.0429C172.462 44.4794 172.315 43.3697 172.309 42.2511C171.174 42.8293 170.346 43.3463 171.118 43.9007L170.941 44.2148L171.258 44.4092Z" fill="white"/>
<path d="M181.956 97.4852L181.51 97.203C181.477 97.1811 181.456 97.157 181.448 97.1307C181.439 97.1052 181.444 97.0754 181.462 97.0412L181.52 96.9315C181.521 96.9132 181.513 96.8987 181.496 96.888C181.477 96.8767 181.46 96.8756 181.444 96.8847L181.221 97.2706C181.215 97.2804 181.217 97.2885 181.227 97.2946C181.228 97.2956 181.285 97.3293 181.395 97.3957C181.506 97.4627 181.619 97.531 181.735 97.6007C181.851 97.671 181.917 97.7107 181.932 97.7201C181.951 97.7318 181.97 97.7354 181.99 97.7308C182.009 97.7268 182.024 97.7157 182.035 97.6977C182.043 97.6851 182.048 97.6657 182.049 97.6395L182.104 96.6444C182.104 96.625 182.105 96.611 182.106 96.6024C182.107 96.5939 182.109 96.5829 182.112 96.5691C182.116 96.5562 182.121 96.5443 182.127 96.5333C182.135 96.5202 182.149 96.5106 182.167 96.5044C182.186 96.4987 182.205 96.4948 182.223 96.4927C182.242 96.4915 182.262 96.4855 182.284 96.4745C182.306 96.4637 182.323 96.4475 182.337 96.4255C182.354 96.3971 182.359 96.3667 182.352 96.3345C182.344 96.3028 182.325 96.2774 182.294 96.2582C182.257 96.2358 182.217 96.2298 182.173 96.2403C182.128 96.2516 182.091 96.2819 182.061 96.3312C182.04 96.3652 182.026 96.4028 182.017 96.4442C182.009 96.4864 182.002 96.5382 181.997 96.5993L181.956 97.4852Z" fill="white"/>
<path d="M181.355 98.4032L181.13 98.7695C181.964 99.4444 180.908 99.8161 179.908 100.319C179.909 99.0451 179.994 98.0721 180.838 98.5092L181.038 98.2089L181.355 98.4032Z" fill="white"/>
<path d="M175.688 53.6516L176.323 52.6963C179.226 53.9095 178.718 50.966 178.627 48.0075C175.336 49.4684 172.94 50.7861 175.244 52.2986L174.745 53.1187L175.688 53.6516Z" stroke="white" stroke-width="0.5"/>
<path d="M192.688 64.073L193.323 63.1177C196.226 64.3308 195.718 61.3874 195.627 58.4288C192.336 59.8898 189.94 61.2075 192.244 62.7199L191.745 63.54L192.688 64.073Z" stroke="white" stroke-width="0.5"/>
<path d="M180.497 65.157L181.132 64.2017C184.035 65.4149 183.527 62.4714 183.436 59.5128C180.145 60.9738 177.749 62.2915 180.053 63.804L179.554 64.6241L180.497 65.157Z" stroke="white" stroke-width="0.5"/>
<path d="M168.225 66.1912L168.86 65.2359C171.763 66.4491 171.255 63.5056 171.164 60.547C167.873 62.008 165.477 63.3257 167.781 64.8382L167.282 65.6582L168.225 66.1912Z" stroke="white" stroke-width="0.5"/>
<path d="M185.225 76.6121L185.86 75.6568C188.763 76.87 188.255 73.9265 188.164 70.9679C184.873 72.4289 182.477 73.7466 184.781 75.2591L184.282 76.0791L185.225 76.6121Z" stroke="white" stroke-width="0.5"/>
<path d="M157.229 84.3123L157.863 83.357C160.767 84.5702 160.259 81.6267 160.167 78.6681C156.877 80.1291 154.48 81.4468 156.784 82.9593L156.286 83.7793L157.229 84.3123Z" stroke="white" stroke-width="0.5"/>
<path d="M174.229 94.7332L174.863 93.7779C177.767 94.991 177.259 92.0476 177.167 89.089C173.877 90.55 171.48 91.8676 173.784 93.3801L173.286 94.2002L174.229 94.7332Z" stroke="white" stroke-width="0.5"/>
<path d="M170.922 81.1423L171.556 80.1871C174.46 81.4002 173.952 78.4568 173.861 75.4982C170.57 76.9591 168.174 78.2768 170.478 79.7893L169.979 80.6094L170.922 81.1423Z" stroke="white" stroke-width="0.5"/>
</g>
<defs>
<clipPath id="clip0_341_3">
<rect width="71.146" height="105" fill="white" transform="translate(0 55.3325) rotate(-51.0531)"/>
</clipPath>
<clipPath id="clip1_341_3">
<rect width="40.5476" height="58.4624" fill="white" transform="translate(173.952 35.5605) rotate(31.5086)"/>
</clipPath>
</defs>
</svg>
