<svg width="63" height="65" viewBox="0 0 63 65" fill="none" xmlns="http://www.w3.org/2000/svg">
<path d="M5.67384 29.7818L6.68356 29.0009L20.8128 44.1001C20.8179 41.0178 23.7156 39.8962 26.457 43.0932C28.5582 46.5057 25.9722 50.4646 21.5767 46.8675L5.67384 29.7818Z" fill="white"/>
<path d="M22.1801 45.5613C21.7016 45.1264 21.388 44.7719 20.8128 44.1001M20.8128 44.1001L6.68356 29.0009L5.67384 29.7818L21.5767 46.8675C25.9722 50.4646 28.5582 46.5057 26.457 43.0932C23.7156 39.8962 20.8179 41.0178 20.8128 44.1001Z" stroke="black" stroke-width="0.5"/>
<path d="M22.3119 46.0185C21.5376 45.017 21.6071 43.802 22.2926 43.2718C22.9782 42.742 24.1709 42.9808 24.9454 43.9819C25.7198 44.9833 25.6514 46.1984 24.9661 46.7288C24.2805 47.259 23.0865 47.0201 22.3119 46.0185Z" fill="black" stroke="black" stroke-width="0.5"/>
<path d="M21.3073 44.6298C21.3579 43.673 21.6292 43.0586 22.5787 42.5191" stroke="black" stroke-width="0.5"/>
<path d="M24.7299 39.9957C26.5835 41.8882 26.878 42.8049 27.0361 44.3688C26.628 43.4114 26.6137 42.8053 24.7662 41.6024L9.6759 25.5674L10.3819 24.7415L24.7299 39.9957Z" fill="white" stroke="black" stroke-width="0.5"/>
<path d="M6.90962 25.468C6.26931 25.6833 5.84294 25.132 6.23247 24.5924C6.55704 20.1436 2.03654 22.6443 4.17618 25.0633L6.78218 28.0852C7.45929 28.9608 5.74358 30.5675 4.76274 29.647C2.09103 27.2355 0.933887 23.6528 2.51419 21.871C4.43103 19.8288 7.4677 20.9198 10.6856 24.7866C9.84592 25.8192 9.20341 26.1906 6.90962 25.468Z" fill="black" stroke="black" stroke-width="0.5"/>
<path d="M7.01239 25.173C8.46208 25.5137 9.18541 25.4972 10.1481 24.7069" stroke="white" stroke-width="0.5"/>
<path d="M9.91409 25.4477L12.1833 27.817" stroke="black" stroke-width="0.5"/>
<path d="M10.1911 25.3379L13.1843 28.4579" stroke="black" stroke-width="0.5"/>
<path d="M10.3565 25.1118L13.735 28.6494" stroke="black" stroke-width="0.5"/>
<path d="M7.21358 24.7376C7.82104 24.8275 9.54076 24.617 9.74188 24.1815" stroke="white" stroke-width="0.5"/>
<path d="M5.13647 29.7022C3.9037 28.4127 3.29978 27.6084 2.59619 26.0698M5.77673 29.4869C6.39913 29.1843 6.5648 28.9385 6.51559 28.3558" stroke="white" stroke-width="0.5"/>
<path d="M20.9984 44.3008C21.2653 43.2549 21.5576 42.6645 22.667 42.0153" stroke="black" stroke-width="0.5"/>
<path d="M20.8959 43.2252C21.5091 42.0453 22.3291 41.5817 23.1493 41.518" stroke="black" stroke-width="0.5"/>
<path d="M21.339 45.4367L18.023 41.8445" stroke="black" stroke-width="0.5"/>
<path d="M17.3459 40.969L14.3007 37.7269" stroke="black" stroke-width="0.5"/>
<path d="M26.1208 42.5783C26.2379 42.0014 25.2093 40.8608 23.0059 38.5507M25.4108 42.008C25.7646 41.8022 24.4956 40.4769 22.9402 39.1612" stroke="black" stroke-width="0.5"/>
<path d="M23.6702 46.7123C24.7167 47.0223 25.2545 46.3266 25.353 45.4108" stroke="white" stroke-width="0.5"/>
<path d="M50.6011 37.2819L31.1584 44.4823L48.8739 36.2068C46.7094 33.9481 47.8821 31.0482 51.9866 31.42C55.8092 32.4089 56.8779 37.7448 50.6011 37.2819Z" fill="white"/>
<path d="M50.8273 36.2947C50.1975 36.3199 49.7358 36.2856 48.8739 36.2068M48.8739 36.2068L31.1584 44.4823L50.6011 37.2819C56.8779 37.7448 55.8092 32.4089 51.9866 31.42C47.8821 31.0482 46.7094 33.9481 48.8739 36.2068Z" stroke="black" stroke-width="0.5"/>
<path d="M33.5841 43.4459L42.109 40.2113" stroke="black" stroke-width="0.5"/>
<path d="M51.238 36.5399C50.0208 36.3646 49.2054 35.4321 49.2978 34.5402C49.3902 33.6483 50.372 32.9746 51.5893 33.1499C52.8065 33.3252 53.6219 34.2577 53.5295 35.1496C53.437 36.0415 52.4552 36.7152 51.238 36.5399Z" fill="black" stroke="black" stroke-width="0.5"/>
<path d="M49.5812 36.2396C48.9425 35.5033 48.694 34.8591 48.9573 33.7829" stroke="black" stroke-width="0.5"/>
<path d="M48.6386 30.3932C51.2245 30.4476 52.0687 30.907 53.2758 31.9377C52.326 31.5301 51.8901 31.097 49.7933 31.5426L28.2994 30.6394L28.1965 29.5286L48.6386 30.3932Z" fill="white" stroke="black" stroke-width="0.5"/>
<path d="M28.3765 30.3808L31.5791 30.4859" stroke="black" stroke-width="0.5"/>
<path d="M28.4868 30.1018L32.7076 30.2367" stroke="black" stroke-width="0.5"/>
<path d="M28.4397 29.8177L33.215 29.9816" stroke="black" stroke-width="0.5"/>
<path d="M49.1407 36.2206C48.5857 35.2639 48.3683 34.6221 48.6626 33.3511" stroke="black" stroke-width="0.5"/>
<path d="M48.3147 35.5072C47.9 34.2039 48.129 33.2763 48.6394 32.6412" stroke="black" stroke-width="0.5"/>
<path d="M51.3967 31.2846C51.0701 30.7784 49.5716 30.682 46.4551 30.573M50.5149 31.3768C50.6097 30.9723 48.8185 30.9133 46.8401 31.0668" stroke="black" stroke-width="0.5"/>
<path d="M52.6454 36.0677C53.572 35.5435 53.4467 34.6486 52.8692 33.9079" stroke="white" stroke-width="0.5"/>
<path d="M35.2013 42.755L43.1187 39.4304" stroke="black" stroke-width="0.5"/>
<path d="M26.4678 33.2259C20.1429 28.6759 29.7444 26.2145 33.2636 33.4333C29.2636 40.651 20.826 37.7837 26.4678 33.2259Z" fill="white" stroke="black" stroke-width="0.5"/>
<path d="M27.2806 33.2088C20.792 28.9917 29.8955 27.5484 32.3412 33.4929C29.4226 39.1082 21.4563 37.1534 27.2806 33.2088Z" fill="black" stroke="black" stroke-width="0.5"/>
<path d="M26.5089 34.6452C26.0409 36.1265 28.8769 37.0116 31.5327 33.8384" stroke="white" stroke-width="0.5"/>
<path d="M31.7667 33.0976C31.6126 32.4494 30.3354 31.304 29.6696 31.0814" stroke="white" stroke-width="0.5"/>
<path d="M26.8664 29.8911C26.2275 29.8612 25.5689 30.5455 25.6555 31.1074" stroke="white" stroke-width="0.5"/>
</svg>
