<svg width="150" height="150" viewBox="0 0 150 150" fill="none" xmlns="http://www.w3.org/2000/svg">
<path d="M134.837 62.6064L132.834 64.8396L95.1761 37.1822C96.3044 44.1607 90.1414 48.0359 82.736 42.0644C76.7043 35.3101 81.1104 25.157 92.4185 31.271L134.837 62.6064Z" fill="white"/>
<path d="M91.5318 34.5057C92.7789 35.2692 93.6219 35.9269 95.1761 37.1822M95.1761 37.1822L132.834 64.8396L134.837 62.6064L92.4185 31.271C81.1104 25.157 76.7043 35.3101 82.736 42.0644C90.1414 48.0359 96.3044 44.1607 95.1761 37.1822Z" stroke="black" stroke-width="0.5"/>
<path d="M91.2881 33.2796C93.4831 35.2486 93.8957 38.2349 92.3581 39.9489C90.8205 41.6629 87.8071 41.5758 85.6121 39.6068C83.4172 37.6377 83.0045 34.6515 84.5421 32.9374C86.0798 31.2234 89.0931 31.3105 91.2881 33.2796Z" fill="black" stroke="black" stroke-width="0.5"/>
<path d="M93.8578 36.2114C94.0967 38.4002 93.708 39.9159 91.7522 41.5752" stroke="black" stroke-width="0.5"/>
<path d="M87.8022 48.2785C82.8945 44.8502 81.8869 42.9112 80.9495 39.4444C82.2302 41.4232 82.4868 42.7882 87.1255 44.6587L127.311 73.9909L126.014 76.1857L87.8022 48.2785Z" fill="white" stroke="black" stroke-width="0.5"/>
<path d="M133.627 72.94C135.001 72.1574 136.173 73.2085 135.488 74.6094C136.397 84.8283 145.733 77.0831 139.982 72.5952L132.949 66.9576C131.088 65.2882 134.388 60.8603 136.955 62.4913C143.912 66.7168 147.864 74.292 144.935 79.0538C141.339 84.5601 134.042 83.4914 125.308 76.224C126.832 73.4995 128.153 72.3625 133.627 72.94Z" fill="black" stroke="black" stroke-width="0.5"/>
<path d="M133.503 73.655C130.086 73.5527 128.45 73.9236 126.557 76.1563" stroke="white" stroke-width="0.5"/>
<path d="M126.814 74.3719L120.787 70.0561" stroke="black" stroke-width="0.5"/>
<path d="M126.226 74.748L118.278 69.067" stroke="black" stroke-width="0.5"/>
<path d="M125.934 75.336L116.957 68.8876" stroke="black" stroke-width="0.5"/>
<path d="M133.207 74.7333C131.795 74.8098 127.969 76.0796 127.674 77.158" stroke="white" stroke-width="0.5"/>
<path d="M136.086 62.5386C139.362 64.8888 141.03 66.4304 143.196 69.5884M134.713 63.3212C133.412 64.2934 133.127 64.926 133.454 66.2221" stroke="white" stroke-width="0.5"/>
<path d="M94.6804 36.8133C94.4615 39.3037 94.0163 40.7748 91.7381 42.756" stroke="black" stroke-width="0.5"/>
<path d="M95.311 39.2006C94.3554 42.1539 92.6654 43.5814 90.8271 44.1039" stroke="black" stroke-width="0.5"/>
<path d="M93.4872 34.3995L102.343 41.0005" stroke="black" stroke-width="0.5"/>
<path d="M104.204 42.6699L112.316 48.6031" stroke="black" stroke-width="0.5"/>
<path d="M83.6898 43.0748C83.6374 44.4346 86.3941 46.5417 92.2501 50.754M85.5124 44.0381C84.7853 44.6673 88.156 47.0813 92.1735 49.3419" stroke="black" stroke-width="0.5"/>
<path d="M87.7238 32.5878C85.2334 32.3688 84.27 34.1915 84.385 36.3097" stroke="white" stroke-width="0.5"/>
<path d="M28.2604 78.657L69.7325 53.3921L32.5788 80.2936C38.3276 84.4074 36.7381 91.5119 27.2834 92.5635C18.2403 92.0885 13.8408 80.5045 28.2604 78.657Z" fill="white"/>
<path d="M28.1121 80.9957C29.5324 80.6481 30.593 80.5128 32.5788 80.2936M32.5788 80.2936L69.7325 53.3921L28.2604 78.657C13.8408 80.5045 18.2403 92.0885 27.2834 92.5635C36.7381 91.5119 38.3276 84.4074 32.5788 80.2936Z" stroke="black" stroke-width="0.5"/>
<path d="M64.6095 56.8567L46.4541 68.1098" stroke="black" stroke-width="0.5"/>
<path d="M27.07 80.3051C30.0138 80.1336 32.4244 81.9439 32.5583 84.2426C32.6922 86.5413 30.508 88.6192 27.5643 88.7907C24.6205 88.9622 22.2099 87.1519 22.076 84.8532C21.9421 82.5544 24.1263 80.4765 27.07 80.3051Z" fill="black" stroke="black" stroke-width="0.5"/>
<path d="M30.9612 80.5457C32.6833 81.9176 33.4855 83.261 33.286 85.8181" stroke="black" stroke-width="0.5"/>
<path d="M35.2629 93.3434C29.3727 94.4129 27.2865 93.7626 24.1652 91.9864C26.4719 92.4709 27.6217 93.2501 32.2166 91.2744L81.3421 83.4044L81.9866 85.8711L35.2629 93.3434Z" fill="white" stroke="black" stroke-width="0.5"/>
<path d="M81.2628 84.0252L73.954 85.2646" stroke="black" stroke-width="0.5"/>
<path d="M81.1156 84.7077L71.4845 86.3495" stroke="black" stroke-width="0.5"/>
<path d="M81.3274 85.329L70.4269 87.1608" stroke="black" stroke-width="0.5"/>
<path d="M31.9678 80.3856C33.5816 82.295 34.3124 83.6472 34.1144 86.6598" stroke="black" stroke-width="0.5"/>
<path d="M34.1068 81.6192C35.5303 84.3777 35.3535 86.5828 34.4297 88.2557" stroke="black" stroke-width="0.5"/>
<path d="M28.6724 92.5979C29.6008 93.5929 33.0382 93.1199 40.1529 91.9292M30.6399 91.9825C30.5744 92.9418 34.6622 92.249 39.0965 90.989" stroke="black" stroke-width="0.5"/>
<path d="M24.0686 82.3483C22.1592 83.9621 22.7746 85.9296 24.3594 87.3398" stroke="white" stroke-width="0.5"/>
<path d="M61.1941 59.1664L44.4509 70.343" stroke="black" stroke-width="0.5"/>
<path d="M84.5434 76.7057C100.584 84.0863 79.6985 94.0861 69.04 79.3708C75.4507 61.1898 95.6647 63.7874 84.5434 76.7057Z" fill="white" stroke="black" stroke-width="0.5"/>
<path d="M82.7045 77.1193C98.9933 83.6711 78.8621 91.1366 71.1118 78.8105C75.6602 64.7548 94.4668 65.5048 82.7045 77.1193Z" fill="black" stroke="black" stroke-width="0.5"/>
<path d="M83.925 73.5123C84.4395 69.9437 77.6744 69.2485 72.8195 77.6556" stroke="white" stroke-width="0.5"/>
<path d="M72.5622 79.4399C73.1518 80.8359 76.4746 82.8393 78.0684 83.036" stroke="white" stroke-width="0.5"/>
<path d="M84.8718 84.4372C86.333 84.2102 87.5751 82.3576 87.1706 81.1258" stroke="white" stroke-width="0.5"/>
</svg>
