<svg width="115" height="123" viewBox="0 0 115 123" fill="none" xmlns="http://www.w3.org/2000/svg">
<path d="M47.3291 13.9727L49.2944 15.2731L30.5243 50.1291C36.0069 48.1652 39.6566 52.6136 35.5393 59.5476C30.6733 65.4782 22.1574 63.4018 26.0408 53.2626L47.3291 13.9727Z" fill="white"/>
<path d="M28.7078 53.5023C29.2075 52.3707 29.6585 51.5847 30.5243 50.1291M30.5243 50.1291L49.2944 15.2731L47.3291 13.9727L26.0408 53.2626C22.1574 63.4018 30.6733 65.4782 35.5393 59.5476C39.6566 52.6136 36.0069 48.1652 30.5243 50.1291Z" stroke="black" stroke-width="0.5"/>
<path d="M27.7932 53.9142C28.4764 52.8817 29.4074 52.1646 30.3504 51.8334C31.2933 51.5023 32.2335 51.5606 32.9681 52.0467C33.7025 52.5329 34.1232 53.375 34.1871 54.3721C34.251 55.3696 33.955 56.5068 33.2717 57.5394C32.5884 58.5719 31.6576 59.2891 30.7145 59.6202C29.7718 59.9511 28.8321 59.8932 28.0976 59.4074C27.363 58.9213 26.9418 58.0787 26.8778 57.0815C26.8138 56.084 27.11 54.9468 27.7932 53.9142Z" fill="black" stroke="black" stroke-width="0.5"/>
<path d="M29.8652 51.3497C31.595 50.8276 32.8423 50.918 34.3441 52.2655" stroke="black" stroke-width="0.5"/>
<path d="M40.0593 54.4856C37.754 59.0018 36.2925 60.1138 33.6025 61.3968C35.0714 60.0562 36.1407 59.6427 37.2236 55.5789L57.1083 18.4103L58.9799 19.1404L40.0593 54.4856Z" fill="white" stroke="black" stroke-width="0.5"/>
<path d="M55.7044 13.4148C54.9558 12.411 55.6923 11.2979 56.8741 11.647C64.9688 9.37794 57.9399 2.91916 54.8621 8.2823L50.9787 14.8629C49.809 16.6306 45.9722 14.6001 47.0483 12.2622C49.8087 5.95522 55.5169 1.59881 59.5877 3.27571C64.3136 5.38601 64.1091 11.4984 59.0735 19.7108C56.7578 18.8747 55.7305 17.9669 55.7044 13.4148Z" fill="black" stroke="black" stroke-width="0.5"/>
<path d="M56.2874 13.4092C56.5102 16.2119 56.9528 17.491 58.9078 18.7015" stroke="white" stroke-width="0.5"/>
<path d="M57.4573 18.7585L54.5418 24.3208" stroke="black" stroke-width="0.5"/>
<path d="M57.8107 19.1821L53.9742 26.5158" stroke="black" stroke-width="0.5"/>
<path d="M58.3072 19.3322L53.9485 27.6201" stroke="black" stroke-width="0.5"/>
<path d="M57.1766 13.489C57.3637 14.6296 58.7207 17.5609 59.6097 17.6407" stroke="white" stroke-width="0.5"/>
<path d="M47.1636 12.9637C48.7518 9.94034 49.8365 8.34884 52.1699 6.10949M47.9122 13.9674C48.8059 14.8833 49.3374 15.0214 50.3453 14.5607" stroke="white" stroke-width="0.5"/>
<path d="M30.2733 50.5887C32.2853 50.3949 33.502 50.5382 35.2901 52.1005" stroke="black" stroke-width="0.5"/>
<path d="M32.1271 49.7172C34.5751 50.0553 35.8678 51.2205 36.4497 52.642" stroke="black" stroke-width="0.5"/>
<path d="M28.4486 51.923L32.9402 43.7114" stroke="black" stroke-width="0.5"/>
<path d="M34.1098 41.9437L38.1335 34.4393" stroke="black" stroke-width="0.5"/>
<path d="M36.2626 58.6185C37.3553 58.458 38.7953 55.894 41.6432 50.4869M36.8708 56.9876C37.439 57.4867 39.0699 54.3759 40.5203 50.7605" stroke="black" stroke-width="0.5"/>
<path d="M27.5129 56.8956C27.5597 58.96 29.1038 59.4734 30.7883 59.0629" stroke="white" stroke-width="0.5"/>
<path d="M59.6665 98.8741L35.756 68.8192L60.5909 95.1065C63.3697 89.8016 69.1953 90.0362 70.8795 97.592C71.3057 105.04 62.4301 110.361 59.6665 98.8741Z" fill="white"/>
<path d="M61.5508 98.6455C61.1461 97.5387 60.9433 96.6938 60.5909 95.1065M60.5909 95.1065L35.756 68.8192L59.6665 98.8741C62.4301 110.361 71.3057 105.04 70.8795 97.592C69.1953 90.0362 63.3697 89.8016 60.5909 95.1065Z" stroke="black" stroke-width="0.5"/>
<path d="M38.9846 72.4805L49.6063 85.6089" stroke="black" stroke-width="0.5"/>
<path d="M61.1354 99.5874C60.7387 97.228 61.9648 95.0231 63.7596 94.5781C65.5544 94.1332 67.3943 95.5781 67.7914 97.9375C68.1883 100.297 66.9623 102.503 65.1674 102.948C63.3725 103.393 61.5323 101.947 61.1354 99.5874Z" fill="black" stroke="black" stroke-width="0.5"/>
<path d="M60.9368 96.3885C61.8809 94.7786 62.8842 93.9232 64.9477 93.7037" stroke="black" stroke-width="0.5"/>
<path d="M70.7921 90.9658C72.1728 95.6111 71.8385 97.4102 70.6958 100.222C70.8777 98.2678 71.3987 97.2133 69.4083 93.7603L58.7324 54.8609L60.6485 53.9663L70.7921 90.9658Z" fill="white" stroke="black" stroke-width="0.5"/>
<path d="M59.2362 54.8327L60.8793 60.6099" stroke="black" stroke-width="0.5"/>
<path d="M59.7954 54.8508L61.9675 62.4623" stroke="black" stroke-width="0.5"/>
<path d="M60.2736 54.5851L62.7109 63.2038" stroke="black" stroke-width="0.5"/>
<path d="M60.719 95.5912C62.1027 93.9893 63.1194 93.1909 65.5473 92.902" stroke="black" stroke-width="0.5"/>
<path d="M61.5153 93.6618C63.5953 92.0881 65.3752 91.9027 66.796 92.4061" stroke="black" stroke-width="0.5"/>
<path d="M70.7832 96.4538C71.4964 95.5476 70.8116 92.8141 69.2247 87.188M70.1154 94.9407C70.8888 94.8507 69.9701 91.6195 68.5667 88.1904" stroke="black" stroke-width="0.5"/>
<path d="M62.9934 101.742C64.4548 103.058 65.974 102.262 66.961 100.758" stroke="white" stroke-width="0.5"/>
<path d="M41.137 74.9214L51.5715 86.9092" stroke="black" stroke-width="0.5"/>
<path d="M53.0877 53.2508C57.5626 39.0619 67.4248 54.6046 56.602 65.4998C41.4848 62.9885 41.761 46.1097 53.0877 53.2508Z" fill="white" stroke="black" stroke-width="0.5"/>
<path d="M53.5826 54.6892C57.3722 40.4214 65.1397 55.7279 55.9692 63.8935C44.3184 62.2845 43.2418 46.8302 53.5826 54.6892Z" fill="black" stroke="black" stroke-width="0.5"/>
<path d="M50.588 54.2328C47.687 54.3466 47.734 59.9695 54.8929 62.6731" stroke="white" stroke-width="0.5"/>
<path d="M56.3434 62.6162C57.4077 61.9265 58.7142 58.9162 58.7296 57.5866" stroke="white" stroke-width="0.5"/>
<path d="M59.2441 51.827C58.9322 50.6689 57.3393 49.9326 56.3899 50.4467" stroke="white" stroke-width="0.5"/>
</svg>
