<svg width="66" height="61" viewBox="0 0 66 61" fill="none" xmlns="http://www.w3.org/2000/svg">
<path d="M57.5899 18.203L57.0449 19.499L36.6981 13.261C38.2 16.1504 36.0889 18.8214 32.0104 17.3606C28.4142 15.3401 28.8524 10.1863 34.6444 11.0966L57.5899 18.203Z" fill="white"/>
<path d="M34.7291 12.6574C35.3808 12.797 35.8419 12.9535 36.6981 13.261M36.6981 13.261L57.0449 19.499L57.5899 18.203L34.6444 11.0966C28.8524 10.1863 28.4142 15.3401 32.0104 17.3606C36.0889 18.8214 38.2 16.1504 36.6981 13.261Z" stroke="black" stroke-width="0.5"/>
<path d="M34.3944 12.2794C35.5804 12.7783 36.1343 13.9555 35.7517 14.8662C35.3688 15.7769 34.1397 16.2052 32.9533 15.7065C31.7669 15.2076 31.2125 14.0293 31.5955 13.1185C31.9787 12.208 33.2081 11.7806 34.3944 12.2794Z" fill="black" stroke="black" stroke-width="0.5"/>
<path d="M35.9855 13.0415C36.4066 13.9658 36.4579 14.6929 35.8503 15.7293" stroke="black" stroke-width="0.5"/>
<path d="M35.1094 19.2955C32.4833 18.5599 31.765 17.8661 30.8554 16.4899C31.698 17.1583 32.0073 17.7178 34.2908 17.8111L55.977 24.388L55.7327 25.5563L35.1094 19.2955Z" fill="white" stroke="black" stroke-width="0.5"/>
<path d="M58.5643 22.934C59.0467 22.3743 59.7075 22.6521 59.6137 23.3753C61.4903 27.7231 64.4166 22.8529 61.2707 21.7843L57.402 20.4117C56.3527 19.9705 57.1419 17.5062 58.4919 17.8197C62.1225 18.5837 64.9356 21.2918 64.3562 23.8443C63.5953 26.8288 60.2752 27.5054 55.4321 25.684C55.6979 24.2473 56.1061 23.5402 58.5643 22.934Z" fill="black" stroke="black" stroke-width="0.5"/>
<path d="M58.6141 23.2677C57.1172 23.7595 56.4615 24.1794 55.9642 25.4579" stroke="white" stroke-width="0.5"/>
<path d="M55.817 24.6334L52.5764 23.6838" stroke="black" stroke-width="0.5"/>
<path d="M55.6164 24.8911L51.3444 23.6433" stroke="black" stroke-width="0.5"/>
<path d="M55.5751 25.1953L50.7455 23.772" stroke="black" stroke-width="0.5"/>
<path d="M58.6424 23.788C58.0409 24.0435 56.5656 25.2025 56.5939 25.7227" stroke="white" stroke-width="0.5"/>
<path d="M58.122 17.977C59.8837 18.4952 60.831 18.9106 62.2287 19.958M57.6397 18.5367C57.2164 19.1682 57.1845 19.491 57.5145 20.0092" stroke="white" stroke-width="0.5"/>
<path d="M36.4296 13.1768C36.696 14.3055 36.7163 15.0219 36.0155 16.2504" stroke="black" stroke-width="0.5"/>
<path d="M37.0495 14.1267C37.0634 15.5747 36.5375 16.4674 35.8159 16.9858" stroke="black" stroke-width="0.5"/>
<path d="M35.5619 12.3035L40.3609 13.813" stroke="black" stroke-width="0.5"/>
<path d="M41.4102 14.2543L45.7895 15.5873" stroke="black" stroke-width="0.5"/>
<path d="M32.5708 17.6548C32.7453 18.2606 34.2467 18.7535 37.398 19.6845M33.5011 17.7918C33.277 18.1825 35.0893 18.7138 37.1599 19.076" stroke="black" stroke-width="0.5"/>
<path d="M32.7991 12.4127C31.6871 12.7077 31.5336 13.66 31.8908 14.5728" stroke="white" stroke-width="0.5"/>
<path d="M12.6934 36.3062L27.0168 18.6891L14.804 36.347C17.8944 37.2517 18.2356 40.6234 14.2871 42.5707C10.2957 43.7825 6.70678 39.3832 12.6934 36.3062Z" fill="white"/>
<path d="M12.9683 37.3572C13.534 36.9813 13.9744 36.7553 14.804 36.347M14.804 36.347L27.0168 18.6891L12.6934 36.3062C6.70678 39.3832 10.2957 43.7825 14.2871 42.5707C18.2356 40.6234 17.8944 37.2517 14.804 36.347Z" stroke="black" stroke-width="0.5"/>
<path d="M25.2973 21.0164L19.0549 28.8134" stroke="black" stroke-width="0.5"/>
<path d="M12.4661 37.3423C13.6741 36.8236 14.889 37.2412 15.2444 38.1388C15.5996 39.0364 15.0204 40.2247 13.8126 40.7437C12.6045 41.2626 11.3888 40.8452 11.0334 39.9476C10.678 39.0498 11.2579 37.8612 12.4661 37.3423Z" fill="black" stroke="black" stroke-width="0.5"/>
<path d="M14.1389 36.7119C15.0849 37.0442 15.6277 37.5085 15.9122 38.6636" stroke="black" stroke-width="0.5"/>
<path d="M17.8614 41.6599C15.4616 43.0551 14.4624 43.0971 12.8508 42.8069C13.9217 42.6574 14.5335 42.8193 16.2399 41.2293L36.4067 30.0539L37.0441 31.0366L17.8614 41.6599Z" fill="white" stroke="black" stroke-width="0.5"/>
<path d="M36.4624 30.3391L33.472 32.0319" stroke="black" stroke-width="0.5"/>
<path d="M36.4975 30.6622L32.5581 32.8966" stroke="black" stroke-width="0.5"/>
<path d="M36.6796 30.9019L32.2171 33.4193" stroke="black" stroke-width="0.5"/>
<path d="M14.5523 36.4834C15.5293 37.069 16.0425 37.5484 16.3936 38.9033" stroke="black" stroke-width="0.5"/>
<path d="M15.6591 36.6895C16.6767 37.6781 16.9199 38.6748 16.762 39.5551" stroke="black" stroke-width="0.5"/>
<path d="M14.8945 42.3676C15.4416 42.659 16.864 41.9111 19.7773 40.2703M15.6587 41.7881C15.7695 42.2199 17.4421 41.2734 19.1827 40.0231" stroke="black" stroke-width="0.5"/>
<path d="M11.4107 38.5867C10.8166 39.5958 11.369 40.3638 12.261 40.7345" stroke="white" stroke-width="0.5"/>
<path d="M24.1509 22.5679L18.5099 30.1094" stroke="black" stroke-width="0.5"/>
<path d="M36.8235 26.6073C44.8518 27.3309 37.2435 35.006 30.4854 30.2139C30.6284 21.2175 39.7733 19.1836 36.8235 26.6073Z" fill="white" stroke="black" stroke-width="0.5"/>
<path d="M36.0858 27.078C44.1017 27.3983 36.4527 33.8413 31.3028 29.6422C31.2365 22.7512 39.5028 20.1264 36.0858 27.078Z" fill="black" stroke="black" stroke-width="0.5"/>
<path d="M36.092 25.3012C35.7974 23.6522 32.7621 24.4094 31.876 28.8664" stroke="white" stroke-width="0.5"/>
<path d="M32.0232 29.691C32.4814 30.2118 34.2134 30.5702 34.9333 30.4063" stroke="white" stroke-width="0.5"/>
<path d="M38.0876 29.9533C38.6885 29.624 38.9585 28.6147 38.6043 28.137" stroke="white" stroke-width="0.5"/>
</svg>
