<svg width="345" height="464" viewBox="0 0 345 464" fill="none" xmlns="http://www.w3.org/2000/svg">
<g filter="url(#filter0_d_352_6452)">
<path d="M147.429 111.447L142.088 111.147C141.72 110.86 141.566 110.405 141.627 109.781C141.687 109.157 141.927 108.722 142.346 108.474L145.794 108.807C146.187 108.845 146.424 108.715 146.507 108.417L162.703 72.8001C163.044 72.0596 163.66 71.7323 164.551 71.8182C165.46 71.9059 166.011 72.3457 166.205 73.1378L175.248 111.134C175.322 111.483 175.484 111.67 175.734 111.694L179.075 112.016C179.491 112.362 179.67 112.838 179.612 113.444C179.552 114.068 179.287 114.483 178.817 114.689L171.621 113.779L163.447 113.207C163.025 112.915 162.845 112.456 162.905 111.833C162.963 111.227 163.23 110.794 163.705 110.534L168.142 110.962C168.249 110.972 168.341 110.945 168.42 110.881C168.498 110.816 168.541 110.739 168.55 110.65C168.56 110.543 168.46 110.093 168.248 109.299L165.957 99.2037L154.516 98.1004L149.889 108.311C149.734 108.62 149.651 108.819 149.643 108.908C149.626 109.086 149.733 109.187 149.965 109.209L154.402 109.637C154.767 109.96 154.919 110.433 154.859 111.057C154.798 111.681 154.56 112.098 154.144 112.31L147.429 111.447ZM155.723 95.3838L165.292 96.3066L162.033 81.4231L155.723 95.3838Z" fill="white"/>
</g>
<path d="M292.331 288.798L286.723 366.686C285.343 380.506 280.77 389.738 227.53 423.847L243.107 443.947C188.898 478.494 124.096 459.022 106.649 443.947L121.604 423.847C103.637 414.171 91.0504 405.778 82.3487 398.263L77.364 403.118L51.8171 382.39L14.4315 381.133L6.3313 301.989L60.0179 300.104L59.2943 288.798C147.774 307.642 220.676 310.154 292.331 288.798Z" fill="black"/>
<path d="M60.0179 300.104L59.2943 288.798C147.774 307.642 220.676 310.154 292.331 288.798L286.723 366.686C285.343 380.506 280.77 389.738 227.53 423.847L243.107 443.947C188.898 478.494 124.096 459.022 106.649 443.947L121.604 423.847C103.637 414.171 91.0504 405.778 82.3487 398.263M60.0179 300.104L6.3313 301.989L14.4315 381.133L51.8171 382.39L77.364 403.118L82.3487 398.263M60.0179 300.104L60.9424 314.551M82.3487 398.263C70.9468 388.417 66.2142 380.078 64.7846 372.34M60.9424 314.551L64.279 366.686C64.279 368.543 64.4305 370.423 64.7846 372.34M60.9424 314.551L20.0394 315.808L28.1396 369.199L64.7846 372.34" stroke="white"/>
<path d="M226.799 423.296C210.104 430.211 200.536 431.757 180.195 430.523M196.312 433.804C210.268 431.983 217.712 430.47 228.547 424.61" stroke="white" stroke-width="0.5"/>
<path d="M204.885 435.898C207.519 436.112 223.118 431.693 229.576 427.499" stroke="white" stroke-width="0.5"/>
<path d="M211.058 438.007C220.042 436.177 224.339 434.019 231.633 429.601" stroke="white" stroke-width="0.5"/>
<path d="M125.257 414.564C162.724 426.125 185.122 427.003 228.547 414.564M95.8348 400.179C112.628 413.713 121.071 422.101 149.045 426.448" stroke="white" stroke-width="0.5"/>
<path d="M289.245 298.255L284.101 368.656" stroke="white" stroke-width="0.5"/>
<path d="M285.13 337.133C284.394 361.793 283.356 372.387 278.957 378.113" stroke="white" stroke-width="0.5"/>
<path d="M63.9429 293.001C94.6758 301.448 112.013 304.3 143.159 305.419M80.1603 299.21C96.5125 304.137 106.029 305.349 123.199 306.661" stroke="white" stroke-width="0.5"/>
<path d="M58.799 288.987C85.6489 242.199 256.74 248.522 292.331 288.987C214.903 309.854 154.979 309.647 58.799 288.987Z" fill="white" stroke="black" stroke-width="0.5"/>
<path d="M240.331 410.725C254.473 401.96 261.714 396.25 274.331 385.725M251.831 399.225L271.831 383.725" stroke="white" stroke-width="0.5"/>
<path d="M111.831 442.725C112.631 441.525 120.831 431.558 124.831 426.725" stroke="white" stroke-width="0.5"/>
<path d="M114.331 442.725L121.831 434.725" stroke="white" stroke-width="0.5"/>
<path d="M22.3313 313.225C25.9313 312.825 45.498 311.725 54.8313 311.225" stroke="white" stroke-width="0.5"/>
<path d="M8.8313 303.725L54.8313 302.225" stroke="white" stroke-width="0.5"/>
<path d="M8.3313 306.725L16.8313 376.225" stroke="white" stroke-width="0.5"/>
<path d="M25.8313 378.725L49.8313 379.725" stroke="white" stroke-width="0.5"/>
<circle cx="49.8313" cy="306.725" r="3.25" stroke="white" stroke-width="0.5"/>
<circle cx="33.3313" cy="307.225" r="1.75" stroke="white" stroke-width="0.5"/>
<circle cx="41.3313" cy="376.225" r="1.75" stroke="white" stroke-width="0.5"/>
<circle cx="73.3313" cy="394.225" r="1.75" stroke="white" stroke-width="0.5"/>
<circle cx="18.3313" cy="342.225" r="1.75" stroke="white" stroke-width="0.5"/>
<circle cx="59.8313" cy="378.725" r="3.25" stroke="white" stroke-width="0.5"/>
<circle cx="22.8313" cy="373.725" r="3.25" stroke="white" stroke-width="0.5"/>
<circle cx="14.8313" cy="308.725" r="3.25" stroke="white" stroke-width="0.5"/>
<path d="M25.3313 357.725L26.8313 367.725" stroke="white" stroke-width="0.5"/>
<path d="M24.8313 363.225L25.8313 369.225" stroke="white" stroke-width="0.5"/>
<path d="M24.8313 311.225C26.0313 311.225 31.998 310.891 34.8313 310.725" stroke="white" stroke-width="0.5"/>
<path d="M63.8313 321.725L65.8313 351.225" stroke="white" stroke-width="0.5"/>
<path d="M66.3313 336.725L67.3313 352.725" stroke="white" stroke-width="0.5"/>
<path d="M65.8313 357.225L66.8313 367.725" stroke="white" stroke-width="0.5"/>
<path d="M67.8313 362.725V368.225" stroke="white" stroke-width="0.5"/>
<path d="M68.3313 348.725L68.8313 361.725" stroke="white" stroke-width="0.5"/>
<path d="M65.8313 331.225L64.3313 309.225" stroke="white" stroke-width="0.5"/>
<path d="M233.331 305.725C256.78 302.766 269.014 299.48 290.331 292.725" stroke="white" stroke-width="0.5"/>
<path d="M259.831 304.225C272.676 302.603 277.72 300.153 287.331 296.225M185.331 306.225C195.093 308.14 200.569 307.231 210.331 306.225" stroke="white" stroke-width="0.5"/>
<path d="M19.2874 183.44L48.4342 255.887C53.9725 268.623 61.1492 276.016 122.267 292.218L116.831 295.725C181.331 306.225 231.502 294.095 243.505 274.408L223.123 259.841C237.273 245.137 246.691 233.299 252.68 223.484L258.91 226.582C258.91 226.582 260.611 190.787 276.898 199.037C293.185 207.288 300.047 198.1 312.11 186.414C326.909 174.931 303.804 134.037 295.632 108.581C287.516 91.4792 251.999 100.256 243.938 123.197L241.172 112.21C162.687 157.197 94.0416 181.872 19.2874 183.44Z" fill="white"/>
<path d="M243.938 123.197L241.172 112.21C162.687 157.197 94.0417 181.872 19.2874 183.44L48.4342 255.887C53.9725 268.623 61.1492 276.016 122.267 292.218L116.831 295.725C181.331 306.225 231.502 294.095 243.505 274.408L223.123 259.841C237.273 245.137 246.691 233.299 252.68 223.484M243.938 123.197C251.999 100.256 287.516 91.4792 295.632 108.581C303.804 134.037 326.909 174.931 312.11 186.414C300.047 198.1 293.185 207.288 276.898 199.037C260.611 190.787 258.91 226.582 258.91 226.582L252.68 223.484M243.938 123.197L247.474 137.235M252.68 223.484C260.526 210.623 262.483 201.237 261.479 193.432M247.474 137.235L260.233 187.895C260.8 189.663 261.231 191.499 261.479 193.432M247.474 137.235C251.325 119.376 285.689 113.595 286.804 125.929C292.849 152.257 301.853 163.593 295.411 179.241C291.539 198.889 269.97 177.456 261.479 193.432" stroke="black"/>
<path d="M122.831 292.156C140.84 293.637 150.386 291.498 169.377 284.106M155.033 292.156C141.189 294.688 132.438 295.991 120.331 293.724" stroke="black" stroke-width="0.5"/>
<path d="M216.807 252.12C184.666 274.579 163.609 282.261 118.46 283.691M240.424 229.43C228.572 247.449 223.096 258.017 197.79 270.706" stroke="black" stroke-width="0.5"/>
<path d="M25.1166 191.501L51.533 256.96" stroke="black" stroke-width="0.5"/>
<path d="M40.9182 227.261C49.1562 250.516 53.3829 260.285 59.3212 264.392" stroke="black" stroke-width="0.5"/>
<path d="M238.03 117.633C211.35 135.069 195.715 143.084 166.401 153.67M224.487 128.502C210.423 138.191 201.733 142.254 185.786 148.751" stroke="black" stroke-width="0.5"/>
<path d="M241.701 112.239C201.835 75.8967 40.8652 134.213 19.3453 183.62C99.4455 179.821 156.439 161.308 241.701 112.239Z" fill="black" stroke="white" stroke-width="0.5"/>
<path d="M106.067 283.637C89.9231 279.615 81.283 276.392 66.0526 270.226M91.6022 276.203L67.8216 267.558" stroke="black" stroke-width="0.5"/>
<path d="M238.198 274.829C237.07 273.931 226.216 266.948 220.93 263.568" stroke="black" stroke-width="0.5"/>
<path d="M235.818 275.593L226.231 270.268" stroke="black" stroke-width="0.5"/>
<path d="M282.985 114.989C279.06 113.919 260.015 118.487 251.429 123.018" stroke="black" stroke-width="0.5"/>
<path d="M293.782 110.998C281.75 98.0556 253.356 106.12 249.525 123.63" stroke="black" stroke-width="0.5"/>
<path d="M295.175 113.701C309.217 154.114 321.141 182.938 308.325 182.473" stroke="black" stroke-width="0.5"/>
<path d="M300.52 187.604C294.99 201.458 289.848 199.829 277.974 195.892" stroke="black" stroke-width="0.5"/>
<path d="M311.187 166.852L312.815 176.831" stroke="black" stroke-width="0.5"/>
<path d="M297.386 156.578L298.268 162.597" stroke="black" stroke-width="0.5"/>
<path d="M275.556 114.75C274.022 114.521 268.04 115.724 265.882 117.33" stroke="black" stroke-width="0.5"/>
<path d="M246.916 144.948L254.029 173.648" stroke="black" stroke-width="0.5"/>
<path d="M249.121 159.994L253.059 175.534" stroke="black" stroke-width="0.5"/>
<path d="M255.863 179.36L258.12 189.663" stroke="black" stroke-width="0.5"/>
<path d="M255.64 185.208L257.321 190.445" stroke="black" stroke-width="0.5"/>
<path d="M250.884 172.031L254.382 184.562" stroke="black" stroke-width="0.5"/>
<path d="M247.915 154.604L242.619 133.198" stroke="black" stroke-width="0.5"/>
<path d="M80.6375 181.522C57.4069 185.873 44.754 186.484 22.3919 186.567" stroke="black" stroke-width="0.5"/>
<path d="M54.9473 188.194C42.2221 190.577 36.6706 189.785 26.3181 188.983M126.493 167.327C117.784 172.135 112.292 172.943 102.69 174.969" stroke="black" stroke-width="0.5"/>
<path d="M46.4184 198.296C52.8406 185.096 65.7547 201.698 47.25 212.815C27.4981 202.155 38.25 186.973 46.4184 198.296Z" stroke="black" stroke-width="0.5"/>
<path d="M75.8866 193.869C80.5575 179.952 95.4997 194.755 78.5787 208.16C57.6197 200.129 66.3295 183.69 75.8866 193.869Z" stroke="black" stroke-width="0.5"/>
<path d="M104.9 186.635C109.109 172.572 124.532 186.873 108.063 200.83C86.85 193.495 95.012 176.777 104.9 186.635Z" stroke="black" stroke-width="0.5"/>
<path d="M225.924 141.721C213.018 134.726 212.18 155.742 233.698 154.011C243.554 133.846 225.975 127.759 225.924 141.721Z" stroke="black" stroke-width="0.5"/>
<path d="M199.385 155.273C187.486 146.676 183.952 167.409 205.514 168.461C217.882 149.731 201.231 141.433 199.385 155.273Z" stroke="black" stroke-width="0.5"/>
<path d="M169.278 165.646C157.67 156.66 153.453 177.265 174.968 179.029C187.948 160.717 171.581 151.874 169.278 165.646Z" stroke="black" stroke-width="0.5"/>
<path d="M137.375 177.268C140.625 162.953 156.978 176.18 141.488 191.217C119.829 185.331 126.844 168.1 137.375 177.268Z" stroke="black" stroke-width="0.5"/>
<path d="M237.337 40.2863L228.883 99.4411C227.077 109.916 222.968 116.719 178.914 139.909L183.792 141.523C136.02 161.093 95.4173 152.35 82.3287 139.91L94.749 134.248C80.9697 125.903 71.4 118.823 64.8718 112.622L60.6618 116.061C60.6618 116.061 52.4044 89.771 41.4273 98.8736C30.4503 107.976 23.3693 102.4 11.7864 95.9166C-1.86906 90.0833 8.04096 55.478 9.4137 35.0703C12.3635 20.8808 41.4936 20.9232 52.1681 36.5011L52.1736 27.8319C121.509 46.9447 179.306 52.7588 237.337 40.2863Z" fill="black"/>
<path d="M52.1681 36.5011L52.1736 27.8319C121.509 46.9448 179.306 52.7588 237.337 40.2863L228.883 99.4411C227.077 109.916 222.968 116.719 178.914 139.909L183.792 141.523C136.02 161.093 95.4173 152.35 82.3287 139.91L94.749 134.248C80.9697 125.903 71.4 118.823 64.8718 112.622M52.1681 36.5011C41.4936 20.9232 12.3635 20.8808 9.4137 35.0703C8.04096 55.478 -1.86906 90.0833 11.7864 95.9166C23.3693 102.4 30.4503 107.976 41.4273 98.8736C52.4044 89.771 60.6618 116.061 60.6618 116.061L64.8718 112.622M52.1681 36.5011L52.161 47.5783M64.8718 112.622C56.3177 104.496 52.9855 97.8784 52.2468 91.895M52.161 47.5783L52.1354 87.5528C52.04 88.9701 52.0639 90.4131 52.2468 91.895M52.161 47.5783C45.7229 35.0091 18.0648 36.9827 19.5962 46.3513C20.0353 67.0196 15.2808 77.0866 23.2911 87.5392C30.092 101.434 42.591 81.5721 52.2468 91.895" stroke="white"/>
<path d="M178.467 139.968C164.847 144.354 157.06 144.506 140.961 142.477M153.599 145.843C164.781 145.199 171.792 144.57 180.702 140.677" stroke="white" stroke-width="0.5"/>
<path d="M98.1284 127.359C127.305 138.186 145.057 140.053 180.199 132.879M75.4891 114.806C88.1374 126.034 94.4156 132.889 116.419 137.701" stroke="white" stroke-width="0.5"/>
<path d="M234.4 47.3423L226.698 100.806" stroke="white" stroke-width="0.5"/>
<path d="M229.134 76.7977C227.284 95.5825 225.915 103.613 222.125 107.749" stroke="white" stroke-width="0.5"/>
<path d="M55.6515 31.291C79.6372 39.3814 93.2661 42.4852 117.956 45.0037M68.2185 36.8973C80.9585 41.5319 88.4579 42.9661 102.033 44.8849" stroke="white" stroke-width="0.5"/>
<path d="M51.7697 27.9492C75.506 -6.33062 211.125 7.63988 237.327 40.43C174.734 52.22 127.131 48.8591 51.7697 27.9492Z" fill="white" stroke="black" stroke-width="0.5"/>
<path d="M189.761 130.581C201.447 124.646 207.494 120.674 218.06 113.314M199.489 122.417L216.176 111.654" stroke="white" stroke-width="0.5"/>
<path d="M88.3289 142.007C88.8898 141.458 94.5627 136.97 97.3291 134.794" stroke="white" stroke-width="0.5"/>
<path d="M92.3289 143.33L98.6989 137.624" stroke="white" stroke-width="0.5"/>
<path d="M20.4237 37.5263C23.2473 36.0158 38.84 35.9354 46.3498 37.7366" stroke="white" stroke-width="0.5"/>
<path d="M11.3114 36.5307C18.0922 24.7177 41.5833 25.5311 47.9386 37.8441" stroke="white" stroke-width="0.5"/>
<path d="M10.7602 38.7934C7.75547 71.387 4.1388 94.9827 13.9457 92.2989" stroke="white" stroke-width="0.5"/>
<path d="M20.9685 94.6885C27.9265 103.974 31.5813 101.826 39.9868 96.7345" stroke="white" stroke-width="0.5"/>
<path d="M8.70544 81.2119L9.38387 88.9254" stroke="white" stroke-width="0.5"/>
<path d="M17.3704 71.0596L17.8569 75.693" stroke="white" stroke-width="0.5"/>
<path d="M26.114 35.994C27.2539 35.5439 32.1071 35.3471 34.0853 36.1468" stroke="white" stroke-width="0.5"/>
<path d="M54.0891 53.2109L54.1636 75.836" stroke="white" stroke-width="0.5"/>
<path d="M55.3048 64.793L55.2779 77.0597" stroke="white" stroke-width="0.5"/>
<path d="M53.855 80.415L54.1105 88.4834" stroke="white" stroke-width="0.5"/>
<path d="M55.162 84.7207L54.8796 88.919" stroke="white" stroke-width="0.5"/>
<path d="M56.2786 74.0605L56.0084 84.0105" stroke="white" stroke-width="0.5"/>
<path d="M55.1904 60.5687L55.1281 43.6953" stroke="white" stroke-width="0.5"/>
<path d="M189.589 50.0551C208.372 49.05 218.262 47.1958 235.547 43.1781" stroke="white" stroke-width="0.5"/>
<path d="M210.722 50.3255C221.011 49.7745 225.145 48.1736 232.984 45.6886M151.424 47.8706C159.082 49.8545 163.48 49.4532 171.289 49.2067" stroke="white" stroke-width="0.5"/>
<defs>
<filter id="filter0_d_352_6452" x="137.5" y="69.9775" width="49.9501" height="52.7764" filterUnits="userSpaceOnUse" color-interpolation-filters="sRGB">
<feFlood flood-opacity="0" result="BackgroundImageFix"/>
<feColorMatrix in="SourceAlpha" type="matrix" values="0 0 0 0 0 0 0 0 0 0 0 0 0 0 0 0 0 0 127 0" result="hardAlpha"/>
<feOffset dy="4"/>
<feGaussianBlur stdDeviation="2"/>
<feComposite in2="hardAlpha" operator="out"/>
<feColorMatrix type="matrix" values="0 0 0 0 0 0 0 0 0 0 0 0 0 0 0 0 0 0 0.25 0"/>
<feBlend mode="normal" in2="BackgroundImageFix" result="effect1_dropShadow_352_6452"/>
<feBlend mode="normal" in="SourceGraphic" in2="effect1_dropShadow_352_6452" result="shape"/>
</filter>
</defs>
</svg>
