<svg width="345" height="464" viewBox="0 0 345 464" fill="none" xmlns="http://www.w3.org/2000/svg">
<path d="M291.331 288.798L285.723 366.686C284.343 380.506 279.769 389.738 226.529 423.847L242.106 443.947C187.897 478.494 123.095 459.022 105.649 443.947L120.603 423.847C102.636 414.171 90.0499 405.778 81.3482 398.263L76.3634 403.118L50.8166 382.39L13.431 381.133L5.33075 301.989L59.0173 300.104L58.2937 288.798C146.773 307.642 219.675 310.154 291.331 288.798Z" fill="black"/>
<path d="M59.0173 300.104L58.2937 288.798C146.773 307.642 219.675 310.154 291.331 288.798L285.723 366.686C284.343 380.506 279.769 389.738 226.529 423.847L242.106 443.947C187.897 478.494 123.095 459.022 105.649 443.947L120.603 423.847C102.636 414.171 90.0499 405.778 81.3482 398.263M59.0173 300.104L5.33075 301.989L13.431 381.133L50.8166 382.39L76.3634 403.118L81.3482 398.263M59.0173 300.104L59.9419 314.551M81.3482 398.263C69.9463 388.417 65.2137 380.078 63.784 372.34M59.9419 314.551L63.2785 366.686C63.2785 368.543 63.4299 370.423 63.784 372.34M59.9419 314.551L19.0388 315.808L27.139 369.199L63.784 372.34" stroke="white"/>
<path d="M225.798 423.296C209.104 430.211 199.535 431.757 179.194 430.523M195.312 433.804C209.268 431.983 216.712 430.47 227.547 424.61" stroke="white" stroke-width="0.5"/>
<path d="M203.885 435.898C206.518 436.112 222.117 431.693 228.575 427.499" stroke="white" stroke-width="0.5"/>
<path d="M210.057 438.007C219.042 436.177 223.338 434.019 230.633 429.601" stroke="white" stroke-width="0.5"/>
<path d="M124.256 414.564C161.724 426.125 184.122 427.003 227.547 414.564M94.8344 400.179C111.627 413.713 120.071 422.101 148.044 426.448" stroke="white" stroke-width="0.5"/>
<path d="M288.244 298.255L283.101 368.656" stroke="white" stroke-width="0.5"/>
<path d="M284.129 337.133C283.394 361.793 282.355 372.387 277.957 378.113" stroke="white" stroke-width="0.5"/>
<path d="M62.9423 293.001C93.6752 301.448 111.012 304.3 142.158 305.419M79.1597 299.21C95.5119 304.137 105.029 305.349 122.198 306.661" stroke="white" stroke-width="0.5"/>
<path d="M57.7984 288.987C84.6484 242.199 255.739 248.522 291.331 288.987C213.903 309.854 153.979 309.647 57.7984 288.987Z" fill="white" stroke="black" stroke-width="0.5"/>
<path d="M239.331 410.725C253.472 401.96 260.714 396.25 273.331 385.725M250.831 399.225L270.831 383.725" stroke="white" stroke-width="0.5"/>
<path d="M110.831 442.725C111.631 441.525 119.831 431.558 123.831 426.725" stroke="white" stroke-width="0.5"/>
<path d="M113.331 442.725L120.831 434.725" stroke="white" stroke-width="0.5"/>
<path d="M21.3307 313.225C24.9307 312.825 44.4974 311.725 53.8307 311.225" stroke="white" stroke-width="0.5"/>
<path d="M7.83075 303.725L53.8307 302.225" stroke="white" stroke-width="0.5"/>
<path d="M7.33075 306.725L15.8307 376.225" stroke="white" stroke-width="0.5"/>
<path d="M24.8307 378.725L48.8307 379.725" stroke="white" stroke-width="0.5"/>
<circle cx="48.8307" cy="306.725" r="3.25" stroke="white" stroke-width="0.5"/>
<circle cx="32.3307" cy="307.225" r="1.75" stroke="white" stroke-width="0.5"/>
<circle cx="40.3307" cy="376.225" r="1.75" stroke="white" stroke-width="0.5"/>
<circle cx="72.3307" cy="394.225" r="1.75" stroke="white" stroke-width="0.5"/>
<circle cx="17.3307" cy="342.225" r="1.75" stroke="white" stroke-width="0.5"/>
<circle cx="58.8307" cy="378.725" r="3.25" stroke="white" stroke-width="0.5"/>
<circle cx="21.8307" cy="373.725" r="3.25" stroke="white" stroke-width="0.5"/>
<circle cx="13.8307" cy="308.725" r="3.25" stroke="white" stroke-width="0.5"/>
<path d="M24.3307 357.725L25.8307 367.725" stroke="white" stroke-width="0.5"/>
<path d="M23.8307 363.225L24.8307 369.225" stroke="white" stroke-width="0.5"/>
<path d="M23.8307 311.225C25.0307 311.225 30.9974 310.891 33.8307 310.725" stroke="white" stroke-width="0.5"/>
<path d="M62.8307 321.725L64.8307 351.225" stroke="white" stroke-width="0.5"/>
<path d="M65.3307 336.725L66.3307 352.725" stroke="white" stroke-width="0.5"/>
<path d="M64.8307 357.225L65.8307 367.725" stroke="white" stroke-width="0.5"/>
<path d="M66.8307 362.725V368.225" stroke="white" stroke-width="0.5"/>
<path d="M67.3307 348.725L67.8307 361.725" stroke="white" stroke-width="0.5"/>
<path d="M64.8307 331.225L63.3307 309.225" stroke="white" stroke-width="0.5"/>
<path d="M232.331 305.725C255.779 302.766 268.013 299.48 289.331 292.725" stroke="white" stroke-width="0.5"/>
<path d="M258.831 304.225C271.675 302.603 276.719 300.153 286.331 296.225M184.331 306.225C194.093 308.14 199.568 307.231 209.331 306.225" stroke="white" stroke-width="0.5"/>
<path d="M19.2864 183.44L48.4332 255.887C53.9714 268.623 61.1482 276.016 122.266 292.218L116.83 295.725C181.33 306.225 231.501 294.095 243.504 274.408L223.122 259.841C237.272 245.137 246.69 233.299 252.679 223.484L258.909 226.582C258.909 226.582 260.61 190.787 276.897 199.037C293.184 207.288 300.046 198.1 312.109 186.414C326.908 174.931 303.803 134.037 295.631 108.581C287.515 91.4792 251.998 100.256 243.937 123.197L241.171 112.21C162.686 157.197 94.0406 181.872 19.2864 183.44Z" fill="white"/>
<path d="M243.937 123.197L241.171 112.21C162.686 157.197 94.0406 181.872 19.2864 183.44L48.4332 255.887C53.9714 268.623 61.1482 276.016 122.266 292.218L116.83 295.725C181.33 306.225 231.501 294.095 243.504 274.408L223.122 259.841C237.272 245.137 246.69 233.299 252.679 223.484M243.937 123.197C251.998 100.256 287.515 91.4792 295.631 108.581C303.803 134.037 326.908 174.931 312.109 186.414C300.046 198.1 293.184 207.288 276.897 199.037C260.61 190.787 258.909 226.582 258.909 226.582L252.679 223.484M243.937 123.197L247.473 137.235M252.679 223.484C260.525 210.623 262.482 201.237 261.478 193.432M247.473 137.235L260.232 187.895C260.799 189.663 261.23 191.499 261.478 193.432M247.473 137.235C251.324 119.376 285.687 113.595 286.802 125.929C292.847 152.257 301.852 163.593 295.409 179.241C291.538 198.889 269.969 177.456 261.478 193.432" stroke="black"/>
<path d="M122.83 292.156C140.839 293.637 150.385 291.498 169.376 284.106M155.032 292.156C141.188 294.688 132.437 295.991 120.33 293.724" stroke="black" stroke-width="0.5"/>
<path d="M216.806 252.119C184.665 274.578 163.608 282.26 118.459 283.69M240.423 229.429C228.571 247.448 223.096 258.016 197.789 270.705" stroke="black" stroke-width="0.5"/>
<path d="M25.1155 191.501L51.532 256.96" stroke="black" stroke-width="0.5"/>
<path d="M40.9171 227.261C49.1551 250.516 53.3818 260.285 59.3202 264.392" stroke="black" stroke-width="0.5"/>
<path d="M238.029 117.633C211.349 135.069 195.714 143.084 166.4 153.67M224.486 128.502C210.422 138.191 201.732 142.254 185.785 148.751" stroke="black" stroke-width="0.5"/>
<path d="M241.7 112.239C201.834 75.8967 40.8642 134.213 19.3443 183.62C99.4446 179.821 156.438 161.308 241.7 112.239Z" fill="black" stroke="white" stroke-width="0.5"/>
<path d="M106.066 283.637C89.922 279.614 81.2819 276.391 66.0515 270.225M91.6011 276.202L67.8205 267.557" stroke="black" stroke-width="0.5"/>
<path d="M238.197 274.828C237.069 273.93 226.215 266.947 220.929 263.567" stroke="black" stroke-width="0.5"/>
<path d="M235.817 275.593L226.23 270.268" stroke="black" stroke-width="0.5"/>
<path d="M282.984 114.988C279.059 113.918 260.014 118.486 251.428 123.017" stroke="black" stroke-width="0.5"/>
<path d="M293.781 110.998C281.749 98.0556 253.355 106.12 249.524 123.63" stroke="black" stroke-width="0.5"/>
<path d="M295.174 113.701C309.216 154.114 321.14 182.938 308.324 182.473" stroke="black" stroke-width="0.5"/>
<path d="M300.519 187.604C294.989 201.458 289.847 199.829 277.973 195.892" stroke="black" stroke-width="0.5"/>
<path d="M311.186 166.851L312.814 176.83" stroke="black" stroke-width="0.5"/>
<path d="M297.385 156.577L298.267 162.596" stroke="black" stroke-width="0.5"/>
<path d="M275.555 114.75C274.021 114.521 268.039 115.724 265.881 117.33" stroke="black" stroke-width="0.5"/>
<path d="M246.915 144.947L254.028 173.647" stroke="black" stroke-width="0.5"/>
<path d="M249.12 159.994L253.058 175.534" stroke="black" stroke-width="0.5"/>
<path d="M255.862 179.36L258.119 189.663" stroke="black" stroke-width="0.5"/>
<path d="M255.638 185.208L257.32 190.445" stroke="black" stroke-width="0.5"/>
<path d="M250.883 172.031L254.381 184.562" stroke="black" stroke-width="0.5"/>
<path d="M247.914 154.604L242.618 133.198" stroke="black" stroke-width="0.5"/>
<path d="M80.6365 181.522C57.4059 185.873 44.7529 186.484 22.3909 186.567" stroke="black" stroke-width="0.5"/>
<path d="M54.9462 188.194C42.221 190.577 36.6695 189.785 26.317 188.983M126.492 167.327C117.783 172.135 112.291 172.943 102.688 174.969" stroke="black" stroke-width="0.5"/>
<path d="M46.4173 198.296C52.8395 185.096 65.7536 201.698 47.2489 212.815C27.497 202.155 38.2489 186.973 46.4173 198.296Z" stroke="black" stroke-width="0.5"/>
<path d="M75.8855 193.869C80.5565 179.952 95.4987 194.755 78.5777 208.16C57.6187 200.129 66.3284 183.69 75.8855 193.869Z" stroke="black" stroke-width="0.5"/>
<path d="M104.899 186.635C109.108 172.572 124.531 186.873 108.062 200.83C86.849 193.495 95.011 176.777 104.899 186.635Z" stroke="black" stroke-width="0.5"/>
<path d="M225.923 141.721C213.017 134.726 212.179 155.742 233.697 154.011C243.553 133.846 225.974 127.759 225.923 141.721Z" stroke="black" stroke-width="0.5"/>
<path d="M199.383 155.273C187.485 146.676 183.951 167.409 205.513 168.461C217.881 149.731 201.23 141.433 199.383 155.273Z" stroke="black" stroke-width="0.5"/>
<path d="M169.277 165.646C157.669 156.66 153.452 177.265 174.967 179.029C187.947 160.717 171.58 151.874 169.277 165.646Z" stroke="black" stroke-width="0.5"/>
<path d="M137.374 177.268C140.623 162.953 156.977 176.18 141.487 191.217C119.828 185.331 126.843 168.1 137.374 177.268Z" stroke="black" stroke-width="0.5"/>
<path d="M237.337 40.2873L228.883 99.442C227.076 109.917 222.968 116.72 178.914 139.91L183.792 141.524C136.02 161.094 95.4172 152.351 82.3287 139.911L94.7489 134.249C80.9697 125.904 71.4 118.824 64.8717 112.623L60.6617 116.062C60.6617 116.062 52.4043 89.7719 41.4272 98.8745C30.4502 107.977 23.3693 102.401 11.7863 95.9176C-1.86912 90.0843 8.0409 55.4789 9.41364 35.0713C12.3635 20.8818 41.4935 20.9242 52.168 36.5021L52.1736 27.8329C121.509 46.9457 179.306 52.7598 237.337 40.2873Z" fill="black"/>
<path d="M52.168 36.5021L52.1736 27.8329C121.509 46.9457 179.306 52.7598 237.337 40.2873L228.883 99.442C227.076 109.917 222.968 116.72 178.914 139.91L183.792 141.524C136.02 161.094 95.4172 152.351 82.3287 139.911L94.7489 134.249C80.9696 125.904 71.4 118.824 64.8717 112.623M52.168 36.5021C41.4935 20.9242 12.3635 20.8818 9.41364 35.0713C8.0409 55.4789 -1.86912 90.0843 11.7863 95.9176C23.3693 102.401 30.4502 107.977 41.4272 98.8745C52.4043 89.7719 60.6617 116.062 60.6617 116.062L64.8717 112.623M52.168 36.5021L52.1609 47.5793M64.8717 112.623C56.3177 104.497 52.9854 97.8794 52.2468 91.896M52.1609 47.5793L52.1353 87.5538C52.04 88.9711 52.0638 90.4141 52.2468 91.896M52.1609 47.5793C45.7229 35.0101 18.0648 36.9836 19.5961 46.3522C20.0352 67.0206 15.2807 77.0876 23.2911 87.5402C30.092 101.435 42.591 81.573 52.2468 91.896" stroke="white"/>
<path d="M178.467 139.969C164.847 144.355 157.06 144.507 140.961 142.478M153.599 145.844C164.781 145.2 171.791 144.571 180.701 140.678" stroke="white" stroke-width="0.5"/>
<path d="M98.1283 127.36C127.305 138.187 145.057 140.054 180.199 132.88M75.4891 114.807C88.1373 126.035 94.4155 132.89 116.419 137.702" stroke="white" stroke-width="0.5"/>
<path d="M234.4 47.3423L226.698 100.806" stroke="white" stroke-width="0.5"/>
<path d="M229.134 76.7986C227.284 95.5835 225.915 103.614 222.125 107.75" stroke="white" stroke-width="0.5"/>
<path d="M55.6514 31.291C79.6371 39.3814 93.266 42.4852 117.956 45.0037M68.2185 36.8973C80.9585 41.5319 88.4578 42.9661 102.033 44.8849" stroke="white" stroke-width="0.5"/>
<path d="M51.7697 27.9501C75.506 -6.32965 211.125 7.64086 237.327 40.431C174.734 52.221 127.131 48.8601 51.7697 27.9501Z" fill="white" stroke="black" stroke-width="0.5"/>
<path d="M189.761 130.582C201.447 124.647 207.494 120.675 218.06 113.315M199.489 122.418L216.176 111.655" stroke="white" stroke-width="0.5"/>
<path d="M88.3288 142.008C88.8897 141.459 94.5626 136.971 97.329 134.795" stroke="white" stroke-width="0.5"/>
<path d="M92.3288 143.331L98.6988 137.625" stroke="white" stroke-width="0.5"/>
<path d="M20.4235 37.5263C23.2471 36.0158 38.8399 35.9354 46.3497 37.7366" stroke="white" stroke-width="0.5"/>
<path d="M11.3114 36.5317C18.0921 24.7187 41.5832 25.5321 47.9385 37.8451" stroke="white" stroke-width="0.5"/>
<path d="M10.76 38.7944C7.75535 71.388 4.13868 94.9837 13.9456 92.2999" stroke="white" stroke-width="0.5"/>
<path d="M20.9684 94.6895C27.9264 103.975 31.5812 101.827 39.9867 96.7354" stroke="white" stroke-width="0.5"/>
<path d="M8.70544 81.2129L9.38387 88.9263" stroke="white" stroke-width="0.5"/>
<path d="M17.3703 71.0605L17.8568 75.694" stroke="white" stroke-width="0.5"/>
<path d="M26.114 35.995C27.2539 35.5449 32.1071 35.3481 34.0853 36.1478" stroke="white" stroke-width="0.5"/>
<path d="M54.0891 53.2119L54.1636 75.837" stroke="white" stroke-width="0.5"/>
<path d="M55.3048 64.7939L55.2779 77.0606" stroke="white" stroke-width="0.5"/>
<path d="M53.8549 80.416L54.1103 88.4844" stroke="white" stroke-width="0.5"/>
<path d="M55.162 84.7217L54.8796 88.92" stroke="white" stroke-width="0.5"/>
<path d="M56.2785 74.0615L56.0083 84.0115" stroke="white" stroke-width="0.5"/>
<path d="M55.1903 60.5697L55.128 43.6963" stroke="white" stroke-width="0.5"/>
<path d="M189.589 50.0561C208.372 49.051 218.262 47.1968 235.547 43.1791" stroke="white" stroke-width="0.5"/>
<path d="M210.722 50.3265C221.011 49.7754 225.145 48.1746 232.984 45.6896M151.424 47.8716C159.082 49.8555 163.48 49.4542 171.289 49.2077" stroke="white" stroke-width="0.5"/>
</svg>
