<svg width="345" height="464" viewBox="0 0 345 464" fill="none" xmlns="http://www.w3.org/2000/svg">
<path d="M292.329 288.797L286.721 366.685C285.341 380.505 280.767 389.737 227.527 423.846L243.104 443.946C188.895 478.493 124.094 459.021 106.647 443.946L121.601 423.846C103.634 414.17 91.048 405.777 82.3463 398.262L77.3615 403.117L51.8147 382.389L14.4291 381.132L6.32886 301.988L60.0154 300.103L59.2918 288.797C147.771 307.641 220.673 310.153 292.329 288.797Z" fill="white"/>
<path d="M60.0154 300.103L59.2918 288.797C147.771 307.641 220.673 310.153 292.329 288.797L286.721 366.685C285.341 380.505 280.767 389.737 227.527 423.846L243.104 443.946C188.895 478.493 124.094 459.021 106.647 443.946L121.601 423.846C103.634 414.17 91.048 405.777 82.3463 398.262M60.0154 300.103L6.32886 301.988L14.4291 381.132L51.8147 382.389L77.3615 403.117L82.3463 398.262M60.0154 300.103L60.94 314.55M82.3463 398.262C70.9444 388.416 66.2118 380.077 64.7821 372.339M60.94 314.55L64.2766 366.685C64.2766 368.542 64.428 370.422 64.7821 372.339M60.94 314.55L20.0369 315.807L28.1371 369.198L64.7821 372.339" stroke="black"/>
<path d="M226.796 423.295C210.102 430.21 200.533 431.756 180.192 430.522M196.31 433.803C210.266 431.982 217.71 430.469 228.545 424.609" stroke="black" stroke-width="0.5"/>
<path d="M204.883 435.897C207.517 436.111 223.115 431.693 229.573 427.498" stroke="black" stroke-width="0.5"/>
<path d="M211.055 438.006C220.04 436.176 224.336 434.018 231.631 429.6" stroke="black" stroke-width="0.5"/>
<path d="M125.254 414.563C162.722 426.124 185.12 427.002 228.545 414.563M95.8324 400.178C112.625 413.712 121.069 422.1 149.042 426.447" stroke="black" stroke-width="0.5"/>
<path d="M289.243 298.254L284.099 368.655" stroke="black" stroke-width="0.5"/>
<path d="M285.127 337.132C284.392 361.793 283.353 372.386 278.955 378.112" stroke="black" stroke-width="0.5"/>
<path d="M63.9404 293C94.6733 301.447 112.01 304.299 143.156 305.418M80.1578 299.209C96.5101 304.136 106.027 305.348 123.196 306.66" stroke="black" stroke-width="0.5"/>
<path d="M58.7965 288.986C85.6465 242.198 256.737 248.521 292.329 288.986C214.901 309.853 154.977 309.646 58.7965 288.986Z" fill="black" stroke="white" stroke-width="0.5"/>
<path d="M240.329 410.724C254.47 401.959 261.712 396.249 274.329 385.724M251.829 399.224L271.829 383.724" stroke="black" stroke-width="0.5"/>
<path d="M111.829 442.724C112.629 441.524 120.829 431.557 124.829 426.724" stroke="black" stroke-width="0.5"/>
<path d="M114.329 442.724L121.829 434.724" stroke="black" stroke-width="0.5"/>
<path d="M22.3289 313.224C25.9289 312.824 45.4955 311.724 54.8289 311.224" stroke="black" stroke-width="0.5"/>
<path d="M8.82886 303.724L54.8289 302.224" stroke="black" stroke-width="0.5"/>
<path d="M8.32886 306.724L16.8289 376.224" stroke="black" stroke-width="0.5"/>
<path d="M25.8289 378.724L49.8289 379.724" stroke="black" stroke-width="0.5"/>
<circle cx="49.8289" cy="306.724" r="3.25" stroke="black" stroke-width="0.5"/>
<circle cx="33.3289" cy="307.224" r="1.75" stroke="black" stroke-width="0.5"/>
<circle cx="41.3289" cy="376.224" r="1.75" stroke="black" stroke-width="0.5"/>
<circle cx="73.3289" cy="394.224" r="1.75" stroke="black" stroke-width="0.5"/>
<circle cx="18.3289" cy="342.224" r="1.75" stroke="black" stroke-width="0.5"/>
<circle cx="59.8289" cy="378.724" r="3.25" stroke="black" stroke-width="0.5"/>
<circle cx="22.8289" cy="373.724" r="3.25" stroke="black" stroke-width="0.5"/>
<circle cx="14.8289" cy="308.724" r="3.25" stroke="black" stroke-width="0.5"/>
<path d="M25.3289 357.724L26.8289 367.724" stroke="black" stroke-width="0.5"/>
<path d="M24.8289 363.224L25.8289 369.224" stroke="black" stroke-width="0.5"/>
<path d="M24.8289 311.224C26.0289 311.224 31.9955 310.89 34.8289 310.724" stroke="black" stroke-width="0.5"/>
<path d="M63.8289 321.724L65.8289 351.224" stroke="black" stroke-width="0.5"/>
<path d="M66.3289 336.724L67.3289 352.724" stroke="black" stroke-width="0.5"/>
<path d="M65.8289 357.224L66.8289 367.724" stroke="black" stroke-width="0.5"/>
<path d="M67.8289 362.724V368.224" stroke="black" stroke-width="0.5"/>
<path d="M68.3289 348.724L68.8289 361.724" stroke="black" stroke-width="0.5"/>
<path d="M65.8289 331.224L64.3289 309.224" stroke="black" stroke-width="0.5"/>
<path d="M233.329 305.724C256.777 302.765 269.012 299.479 290.329 292.724" stroke="black" stroke-width="0.5"/>
<path d="M259.829 304.224C272.673 302.602 277.717 300.152 287.329 296.224M185.329 306.224C195.091 308.139 200.566 307.23 210.329 306.224" stroke="black" stroke-width="0.5"/>
<path d="M19.2855 183.439L48.4323 255.886C53.9705 268.622 61.1473 276.015 122.265 292.217L116.829 295.724C181.329 306.224 231.5 294.094 243.504 274.407L223.121 259.84C237.271 245.136 246.689 233.298 252.678 223.483L258.908 226.581C258.908 226.581 260.609 190.786 276.896 199.036C293.183 207.287 300.045 198.099 312.108 186.413C326.907 174.93 303.802 134.036 295.63 108.58C287.514 91.4782 251.997 100.255 243.937 123.196L241.17 112.209C162.685 157.196 94.0397 181.871 19.2855 183.439Z" fill="black"/>
<path d="M243.937 123.196L241.17 112.209C162.685 157.196 94.0397 181.871 19.2855 183.439L48.4323 255.886C53.9705 268.622 61.1473 276.015 122.265 292.217L116.829 295.724C181.329 306.224 231.5 294.094 243.504 274.407L223.121 259.84C237.271 245.136 246.689 233.298 252.678 223.483M243.937 123.196C251.997 100.255 287.514 91.4782 295.63 108.58C303.802 134.036 326.907 174.93 312.108 186.413C300.045 198.099 293.183 207.287 276.896 199.036C260.609 190.786 258.908 226.581 258.908 226.581L252.678 223.483M243.937 123.196L247.472 137.234M252.678 223.483C260.524 210.622 262.481 201.236 261.477 193.431M247.472 137.234L260.231 187.894C260.798 189.662 261.229 191.498 261.477 193.431M247.472 137.234C251.323 119.375 285.687 113.594 286.802 125.928C292.847 152.256 301.851 163.592 295.409 179.24C291.537 198.888 269.968 177.455 261.477 193.431" stroke="white"/>
<path d="M122.829 292.156C140.838 293.637 150.385 291.498 169.375 284.106M155.031 292.156C141.187 294.688 132.436 295.991 120.329 293.724" stroke="white" stroke-width="0.5"/>
<path d="M216.805 252.119C184.664 274.578 163.607 282.26 118.459 283.69M240.422 229.429C228.57 247.448 223.095 258.016 197.788 270.705" stroke="white" stroke-width="0.5"/>
<path d="M25.1146 191.5L51.531 256.959" stroke="white" stroke-width="0.5"/>
<path d="M40.9162 227.26C49.1542 250.515 53.3809 260.284 59.3193 264.391" stroke="white" stroke-width="0.5"/>
<path d="M238.028 117.632C211.348 135.068 195.713 143.083 166.399 153.669M224.485 128.501C210.421 138.19 201.731 142.253 185.784 148.75" stroke="white" stroke-width="0.5"/>
<path d="M241.699 112.238C201.833 75.8957 40.8633 134.212 19.3433 183.619C99.4436 179.82 156.437 161.307 241.699 112.238Z" fill="white" stroke="black" stroke-width="0.5"/>
<path d="M106.065 283.637C89.921 279.614 81.2809 276.391 66.0505 270.225M91.6001 276.202L67.8196 267.557" stroke="white" stroke-width="0.5"/>
<path d="M238.196 274.828C237.068 273.93 226.214 266.947 220.928 263.567" stroke="white" stroke-width="0.5"/>
<path d="M235.816 275.592L226.229 270.267" stroke="white" stroke-width="0.5"/>
<path d="M282.983 114.988C279.058 113.918 260.013 118.486 251.427 123.017" stroke="white" stroke-width="0.5"/>
<path d="M293.78 110.998C281.748 98.0556 253.354 106.12 249.523 123.63" stroke="white" stroke-width="0.5"/>
<path d="M295.173 113.7C309.215 154.113 321.139 182.937 308.323 182.472" stroke="white" stroke-width="0.5"/>
<path d="M300.518 187.604C294.988 201.458 289.846 199.829 277.972 195.892" stroke="white" stroke-width="0.5"/>
<path d="M311.185 166.851L312.813 176.83" stroke="white" stroke-width="0.5"/>
<path d="M297.384 156.577L298.266 162.596" stroke="white" stroke-width="0.5"/>
<path d="M275.554 114.749C274.02 114.52 268.038 115.723 265.88 117.329" stroke="white" stroke-width="0.5"/>
<path d="M246.914 144.947L254.027 173.647" stroke="white" stroke-width="0.5"/>
<path d="M249.119 159.993L253.057 175.533" stroke="white" stroke-width="0.5"/>
<path d="M255.861 179.359L258.118 189.663" stroke="white" stroke-width="0.5"/>
<path d="M255.638 185.208L257.319 190.445" stroke="white" stroke-width="0.5"/>
<path d="M250.882 172.03L254.38 184.561" stroke="white" stroke-width="0.5"/>
<path d="M247.913 154.604L242.617 133.198" stroke="white" stroke-width="0.5"/>
<path d="M80.6356 181.522C57.405 185.873 44.752 186.484 22.39 186.567" stroke="white" stroke-width="0.5"/>
<path d="M54.9452 188.193C42.22 190.576 36.6685 189.785 26.3161 188.982M126.491 167.326C117.782 172.134 112.29 172.942 102.688 174.968" stroke="white" stroke-width="0.5"/>
<path d="M46.4163 198.295C52.8385 185.095 65.7526 201.697 47.2479 212.814C27.496 202.154 38.2479 186.972 46.4163 198.295Z" stroke="white" stroke-width="0.5"/>
<path d="M75.8846 193.868C80.5555 179.951 95.4978 194.754 78.5768 208.159C57.6178 200.128 66.3275 183.689 75.8846 193.868Z" stroke="white" stroke-width="0.5"/>
<path d="M104.898 186.634C109.107 172.571 124.53 186.872 108.061 200.829C86.848 193.494 95.01 176.777 104.898 186.634Z" stroke="white" stroke-width="0.5"/>
<path d="M225.922 141.72C213.016 134.725 212.178 155.741 233.696 154.01C243.552 133.845 225.973 127.758 225.922 141.72Z" stroke="white" stroke-width="0.5"/>
<path d="M199.383 155.273C187.484 146.676 183.95 167.409 205.512 168.461C217.88 149.731 201.229 141.433 199.383 155.273Z" stroke="white" stroke-width="0.5"/>
<path d="M169.276 165.645C157.668 156.659 153.451 177.264 174.966 179.028C187.946 160.716 171.579 151.873 169.276 165.645Z" stroke="white" stroke-width="0.5"/>
<path d="M137.373 177.267C140.623 162.952 156.976 176.179 141.486 191.216C119.827 185.33 126.842 168.099 137.373 177.267Z" stroke="white" stroke-width="0.5"/>
<path d="M237.338 40.2873L228.883 99.442C227.077 109.917 222.969 116.72 178.914 139.91L183.792 141.524C136.02 161.094 95.4174 152.351 82.3289 139.911L94.7491 134.249C80.9698 125.904 71.4002 118.824 64.8719 112.623L60.6619 116.062C60.6619 116.062 52.4045 89.7719 41.4274 98.8745C30.4504 107.977 23.3694 102.401 11.7865 95.9176C-1.86894 90.0843 8.04108 55.4789 9.41382 35.0713C12.3636 20.8818 41.4937 20.9242 52.1682 36.5021L52.1738 27.8329C121.509 46.9457 179.306 52.7598 237.338 40.2873Z" fill="white"/>
<path d="M52.1682 36.5021L52.1738 27.8329C121.509 46.9457 179.306 52.7598 237.338 40.2873L228.883 99.442C227.077 109.917 222.969 116.72 178.914 139.91L183.792 141.524C136.02 161.094 95.4174 152.351 82.3289 139.911L94.7491 134.249C80.9698 125.904 71.4002 118.824 64.8719 112.623M52.1682 36.5021C41.4937 20.9242 12.3636 20.8818 9.41382 35.0713C8.04108 55.4789 -1.86894 90.0843 11.7865 95.9176C23.3694 102.401 30.4504 107.977 41.4274 98.8745C52.4045 89.7719 60.6619 116.062 60.6619 116.062L64.8719 112.623M52.1682 36.5021L52.1611 47.5793M64.8719 112.623C56.3179 104.497 52.9856 97.8794 52.247 91.896M52.1611 47.5793L52.1355 87.5538C52.0402 88.9711 52.064 90.4141 52.247 91.896M52.1611 47.5793C45.7231 35.0101 18.0649 36.9836 19.5963 46.3522C20.0354 67.0206 15.2809 77.0876 23.2912 87.5402C30.0922 101.435 42.5912 81.573 52.247 91.896" stroke="black"/>
<path d="M178.467 139.968C164.847 144.354 157.06 144.506 140.961 142.477M153.599 145.843C164.781 145.199 171.792 144.57 180.702 140.677" stroke="black" stroke-width="0.5"/>
<path d="M98.1284 127.359C127.305 138.186 145.057 140.053 180.199 132.879M75.4891 114.806C88.1374 126.034 94.4156 132.889 116.419 137.701" stroke="black" stroke-width="0.5"/>
<path d="M234.4 47.3423L226.698 100.806" stroke="black" stroke-width="0.5"/>
<path d="M229.134 76.7977C227.284 95.5825 225.915 103.613 222.125 107.749" stroke="black" stroke-width="0.5"/>
<path d="M55.6515 31.291C79.6372 39.3814 93.2661 42.4852 117.956 45.0037M68.2185 36.8973C80.9585 41.5319 88.4579 42.9661 102.033 44.8849" stroke="black" stroke-width="0.5"/>
<path d="M51.7698 27.9492C75.5062 -6.33062 211.125 7.63988 237.327 40.43C174.734 52.22 127.131 48.8591 51.7698 27.9492Z" fill="black" stroke="white" stroke-width="0.5"/>
<path d="M189.761 130.581C201.447 124.646 207.494 120.674 218.06 113.314M199.489 122.417L216.176 111.654" stroke="black" stroke-width="0.5"/>
<path d="M88.3289 142.007C88.8898 141.458 94.5627 136.97 97.3291 134.794" stroke="black" stroke-width="0.5"/>
<path d="M92.3289 143.33L98.6989 137.624" stroke="black" stroke-width="0.5"/>
<path d="M20.4237 37.5253C23.2473 36.0148 38.84 35.9344 46.3498 37.7356" stroke="black" stroke-width="0.5"/>
<path d="M11.3114 36.5307C18.0922 24.7177 41.5833 25.5311 47.9386 37.8441" stroke="black" stroke-width="0.5"/>
<path d="M10.7602 38.7934C7.75547 71.387 4.1388 94.9827 13.9457 92.2989" stroke="black" stroke-width="0.5"/>
<path d="M20.9685 94.6885C27.9265 103.974 31.5813 101.826 39.9868 96.7345" stroke="black" stroke-width="0.5"/>
<path d="M8.70544 81.2119L9.38387 88.9254" stroke="black" stroke-width="0.5"/>
<path d="M17.3704 71.0596L17.8569 75.693" stroke="black" stroke-width="0.5"/>
<path d="M26.114 35.994C27.2539 35.5439 32.1071 35.3471 34.0853 36.1468" stroke="black" stroke-width="0.5"/>
<path d="M54.0891 53.2109L54.1636 75.836" stroke="black" stroke-width="0.5"/>
<path d="M55.3048 64.793L55.2779 77.0597" stroke="black" stroke-width="0.5"/>
<path d="M53.855 80.415L54.1105 88.4834" stroke="black" stroke-width="0.5"/>
<path d="M55.162 84.7207L54.8796 88.919" stroke="black" stroke-width="0.5"/>
<path d="M56.2786 74.0605L56.0084 84.0105" stroke="black" stroke-width="0.5"/>
<path d="M55.1904 60.5687L55.1281 43.6953" stroke="black" stroke-width="0.5"/>
<path d="M189.589 50.0541C208.372 49.049 218.262 47.1948 235.547 43.1772" stroke="black" stroke-width="0.5"/>
<path d="M210.722 50.3245C221.011 49.7735 225.145 48.1727 232.984 45.6876M151.424 47.8696C159.082 49.8536 163.48 49.4522 171.289 49.2057" stroke="black" stroke-width="0.5"/>
</svg>
