<svg width="124" height="113" viewBox="0 0 124 113" fill="none" xmlns="http://www.w3.org/2000/svg">
<path d="M104.616 13.0837C66.9991 42.0686 82.8052 31.5686 106.858 15.8418C77.8936 39.7432 76.312 41.9316 109.101 18.5999C78.0667 45.837 81.1754 44.4857 111.33 22.1322C101.334 32.144 95.9763 38.0977 84.2314 45.6891C81.6309 46.8621 80.1295 47.3424 76.9745 46.2443C64.1816 55.7874 56.7001 60.6357 46.3694 74.1792C45.4616 76.687 44.7898 77.7797 42.6669 77.9527C42.7344 78.1124 42.7992 78.3113 42.8626 78.5571C42.3803 80.2164 42.1685 81.1859 40.2153 81.862C39.9977 82.5837 39.7555 82.6801 39.3558 82.935C36.9608 82.6087 35.8155 83.1853 33.8372 84.4653C34.1958 84.4285 34.6054 84.5399 35.1276 84.8453C35.875 85.7647 35.4753 86.8532 34.3411 86.2482C32.9995 86.0657 32.8417 85.8154 32.0597 85.8124C30.8977 87.2237 30.7854 88.3308 31.9685 91.2311C30.0487 97.6477 27.4891 97.2125 23.0994 96.9144L18.8973 97.2765C17.724 98.9938 14.7344 95.3164 16.6551 94.5184L16.7333 89.8738C14.4911 87.1157 16.8898 80.5847 21.8523 80.3678C24.6065 81.3826 26.0423 81.6304 28.3227 81.2156L28.7355 79.3529C29.1614 76.7163 30.6562 78.555 30.9086 79.6556C31.8445 78.6915 32.4305 77.3172 33.0028 75.1204C32.9818 72.7783 33.3738 71.7117 36.1228 71.0569C36.4761 70.7981 36.8833 71.2021 37.2439 72.4359C37.6315 70.0316 38.5086 69.2305 41.4981 68.9773C55.4581 60.7409 61.9868 54.3412 73.5981 42.8812C73.0481 39.0362 73.0719 37.1903 74.1153 34.8259C81.1238 24.9114 91.6836 21.2781 104.616 13.0837Z" fill="black"/>
<path d="M46.3694 74.1792C56.7001 60.6357 64.1816 55.7874 76.9745 46.2443C80.1295 47.3424 81.6309 46.8621 84.2314 45.6891C95.9763 38.0977 101.334 32.144 111.33 22.1322C81.1754 44.4857 78.0667 45.837 109.101 18.5999C76.312 41.9316 77.8936 39.7432 106.858 15.8418C82.8052 31.5686 66.9991 42.0686 104.616 13.0837C91.6836 21.2781 81.1238 24.9114 74.1153 34.8259C73.0719 37.1903 73.0481 39.0362 73.5981 42.8812C61.9868 54.3412 55.4581 60.7409 41.4981 68.9773M46.3694 74.1792C44.5231 73.5286 43.6982 73.4833 43.6752 75.606C43.773 76.8562 43.3747 77.2496 42.6669 77.9527M46.3694 74.1792C45.4616 76.687 44.7898 77.7797 42.6669 77.9527M41.4981 68.9773C38.5086 69.2305 37.6315 70.0316 37.2439 72.4359M41.4981 68.9773C41.7891 70.3222 41.9182 71.0458 40.3249 70.6947C38.8784 70.425 38.2593 71.0232 37.2439 72.4359M37.2439 72.4359C36.8833 71.2021 36.4761 70.7981 36.1228 71.0569C33.3738 71.7117 32.9818 72.7783 33.0028 75.1204M37.2439 72.4359C37.6176 72.8956 37.5916 74.4438 36.0836 73.3791C34.9495 72.7742 34.1075 73.3646 33.0028 75.1204M33.0028 75.1204C32.4305 77.3172 31.8445 78.6915 30.9086 79.6556M28.3227 81.2156C29.4314 80.8019 30.2553 80.3287 30.9086 79.6556M28.3227 81.2156L28.7355 79.3529C29.1614 76.7163 30.6562 78.555 30.9086 79.6556M28.3227 81.2156C26.0423 81.6304 24.6065 81.3826 21.8523 80.3678C16.8898 80.5847 14.4911 87.1157 16.7333 89.8738M16.7333 89.8738C17.8544 91.2529 19.0016 91.0837 20.1619 90.1405C20.7765 88.9925 20.637 88.6088 19.4275 88.447M16.7333 89.8738L16.6551 94.5184C14.7344 95.3164 17.724 98.9938 18.8973 97.2765L23.0994 96.9144M23.0994 96.9144C22.217 94.9631 22.2097 94.1555 23.5383 93.5036C24.6985 92.5603 25.4459 93.4797 25.8196 93.9394M23.0994 96.9144C27.4891 97.2125 30.0487 97.6477 31.9685 91.2311C30.7854 88.3308 30.8977 87.2238 32.0597 85.8124M32.0597 85.8124C32.8417 85.8154 32.9995 86.0657 34.3411 86.2482C35.4753 86.8532 35.875 85.7647 35.1276 84.8453C34.6054 84.5399 34.1958 84.4285 33.8372 84.4653M32.0597 85.8124C32.7225 85.0655 33.1993 84.5309 33.8372 84.4653M33.8372 84.4653C35.8155 83.1853 36.9608 82.6087 39.3558 82.935C39.7555 82.6801 39.9977 82.5837 40.2153 81.862M40.2153 81.862C42.1685 81.1859 42.3803 80.2164 42.8626 78.5571C42.7992 78.3113 42.7344 78.1125 42.6669 77.9527M40.2153 81.862C40.2748 79.8656 40.3539 78.7806 41.3547 77.4925C41.9543 77.32 42.342 77.1831 42.6669 77.9527" stroke="white" stroke-width="0.5" stroke-linecap="round" stroke-linejoin="round"/>
<path d="M70.3998 51.5893C75.4821 52.8045 78.1153 55.0213 82.7498 58.923L82.8625 59.0179L82.7582 65.2107C82.867 70.125 81.6506 71.3953 77.3177 71.1606C74.8385 69.9875 73.4416 69.1303 70.9125 66.4424L68.3365 56.3206L64.8028 66.8284C52.931 69.6083 51.2042 76.9658 54.2432 82.2843L59.1927 82.8416L58.7929 83.9301L62.1954 85.7449C58.5672 86.6149 53.4176 86.0095 51.5751 82.1629C50.0193 71.6902 53.0778 68.4257 63.2949 65.7637L66.9321 53.6449L67.6926 53.7902L69.2265 53.3066L70.3998 51.5893Z" fill="white"/>
<path d="M82.7582 65.2107L82.8625 59.0179C78.1577 55.0572 75.5232 52.8143 70.3998 51.5893L69.2265 53.3066M82.7582 65.2107C82.5632 64.8466 82.3731 64.4929 82.1858 64.149M82.7582 65.2107C82.867 70.125 81.6506 71.3953 77.3177 71.1606M69.2265 53.3066L67.6926 53.7902M69.2265 53.3066C69.9117 53.5453 70.5541 53.785 71.1577 54.0271M82.1858 64.149C79.6492 59.4901 77.6377 56.6257 71.1577 54.0271M82.1858 64.149C80.9838 66.6485 80.3677 68.2605 78.4311 70.1598M77.3177 71.1606C74.8385 69.9875 73.4416 69.1303 70.9125 66.4424L68.3365 56.3206M77.3177 71.1606C77.7334 70.8148 78.1014 70.4831 78.4311 70.1598M67.6926 53.7902L68.3365 56.3206M67.6926 53.7902L66.9321 53.6449L63.2949 65.7637C53.0778 68.4257 50.0193 71.6902 51.5751 82.1629C53.4176 86.0095 58.5672 86.6149 62.1954 85.745L58.7929 83.9301L59.1927 82.8416L54.2432 82.2843C51.2042 76.9658 52.931 69.6083 64.8028 66.8284L68.3365 56.3206M71.1577 54.0271L73.6197 64.2415C74.6847 67.0185 75.9773 68.1773 78.4311 70.1598" stroke="black" stroke-width="0.5" stroke-linecap="round" stroke-linejoin="round"/>
<path d="M67.1539 40.4853L68.1577 48.8313L65.0637 51.3466L57.4852 48.3456C55.3214 47.8128 53.9619 48.0876 53.0008 42.8294C53.742 39.4318 54.0509 37.5168 53.5309 33.9999C55.4056 32.0045 54.8013 28.1405 61.909 34.8238C64.3819 36.1335 65.5129 37.4063 67.1539 40.4853Z" fill="white" stroke="black" stroke-width="0.5" stroke-linecap="round" stroke-linejoin="round"/>
<path d="M14.7388 72.4079C15.0482 72.1563 16.6551 71.8679 17.4199 71.7552L11.7491 68.7304C22.5385 70.5896 27.0101 67.0363 35.1451 61.1627C43.2684 48.5271 54.3282 60.3078 65.0189 52.8717C60.3053 62.0863 45.1744 54.5362 35.1451 61.1627C27.345 71.3214 20.7833 75.8923 14.7388 72.4079Z" fill="white"/>
<path d="M35.1451 61.1627C27.345 71.3214 20.7833 75.8923 14.7388 72.4079C15.0482 72.1563 16.6551 71.8679 17.4199 71.7552L11.7491 68.7304C22.5385 70.5896 27.0101 67.0363 35.1451 61.1627ZM35.1451 61.1627C43.2684 48.5271 54.3282 60.3078 65.0189 52.8717M35.1451 61.1627C45.1744 54.5362 60.3053 62.0863 65.0189 52.8717M65.4243 52.5802C65.2892 52.6805 65.1541 52.7776 65.0189 52.8717" stroke="black" stroke-width="0.5" stroke-linecap="round" stroke-linejoin="round"/>
<ellipse cx="67.358" cy="51.0082" rx="3.55455" ry="2.99055" transform="rotate(50.8901 67.358 51.0082)" fill="white"/>
<path d="M76.2239 35.0491C74.9217 36.0879 73.861 40.5566 74.9593 42.1851M83.8675 34.1795C83.5581 34.4311 83.2056 35.7357 83.0679 36.3566" stroke="black" stroke-width="0.5" stroke-linecap="round" stroke-linejoin="round"/>
<path d="M86.4834 37.3973L86.4443 39.7196" stroke="white" stroke-width="0.5" stroke-linecap="round" stroke-linejoin="round"/>
<path d="M77.2145 44.1691C81.3416 46.4638 83.0302 44.1176 86.4051 42.0419M88.3389 40.4698C88.6483 40.2183 94.1314 36.2697 96.8343 34.3269" stroke="white" stroke-width="0.5" stroke-linecap="round" stroke-linejoin="round"/>
<path d="M77 44.5197C81.1271 46.8144 82.8157 44.4682 86.1907 42.3925M88.1244 40.8204C88.4338 40.5689 93.9169 36.6203 96.6198 34.6775" stroke="white" stroke-width="0.5" stroke-linecap="round" stroke-linejoin="round"/>
<path d="M80.8778 30.5021L82.0511 28.7847" stroke="white" stroke-width="0.5" stroke-linecap="round" stroke-linejoin="round"/>
<path d="M28.5105 82.2367C26.135 83.2932 24.724 83.3365 22.0271 82.1631" stroke="white" stroke-width="0.5" stroke-linecap="round" stroke-linejoin="round"/>
<path d="M49.7685 65.7182C47.6358 67.7346 46.6071 69.198 43.2329 68.7409" stroke="white" stroke-width="0.5" stroke-linecap="round" stroke-linejoin="round"/>
<path d="M35.1113 75.3436C35.7197 75.4598 37.6505 75.5698 38.5399 75.6103" stroke="white" stroke-width="0.5" stroke-linecap="round" stroke-linejoin="round"/>
<path d="M17.7207 88.718C17.2395 86.4788 17.1622 85.2347 18.9592 83.1302" stroke="white" stroke-width="0.5" stroke-linecap="round" stroke-linejoin="round"/>
<path d="M28.4323 86.8813C26.9131 88.9911 26.5826 90.3635 27.1807 93.2432" stroke="white" stroke-width="0.5" stroke-linecap="round" stroke-linejoin="round"/>
<path d="M50.2359 67.8733C47.8265 69.5495 46.184 70.2578 45.9425 73.6542" stroke="white" stroke-width="0.5" stroke-linecap="round" stroke-linejoin="round"/>
<path d="M38.8222 81.4886C38.8327 80.8693 39.1192 78.9567 39.2612 78.0778" stroke="black" stroke-width="0.5" stroke-linecap="round" stroke-linejoin="round"/>
<path d="M23.713 95.2988C25.288 95.772 26.2144 95.8901 28.3018 94.6223" stroke="black" stroke-width="0.5" stroke-linecap="round" stroke-linejoin="round"/>
<path d="M67.2113 49.2474C66.6029 49.1312 66.1669 50.8599 66.025 51.7388" stroke="black" stroke-width="0.5"/>
<path d="M69.4013 55.1019L71.926 63.7384" stroke="black" stroke-width="0.5"/>
<path d="M42.668 56.9842L46.1096 56.4768" stroke="black" stroke-width="0.5"/>
<path d="M48.0174 56.4529L53.3536 56.6958" stroke="black" stroke-width="0.5"/>
<path d="M58.6552 36.3525C57.4669 36.2497 55.9677 38.6018 56.6823 40.2468" stroke="black" stroke-width="0.5"/>
<path d="M54.8049 83.7653L55.9521 83.5961" stroke="black" stroke-width="0.5"/>
<path d="M28.3715 67.8433C24.767 69.5424 22.9039 70.8379 18.4074 70.5994" stroke="black" stroke-width="0.5"/>
</svg>
