<svg width="201" height="152" viewBox="0 0 201 152" fill="none" xmlns="http://www.w3.org/2000/svg">
<path d="M179.155 25.0148C112.857 55.3754 140.207 45.2695 181.751 30.2881C130.224 56.1654 127.144 58.9731 184.348 35.5613C128.648 65.8582 133.811 64.9977 186.69 42.0515C168.376 53.7663 158.381 60.9728 138.122 68.1494C133.79 68.9364 131.348 69.08 126.854 66.054C104.403 75.8832 91.4937 80.4745 71.5995 97.6284C69.4532 101.216 68.0955 102.667 64.796 102.07C64.8509 102.35 64.8899 102.691 64.9127 103.105C63.6735 105.527 63.0567 106.971 59.8647 107.239C59.3139 108.289 58.9142 108.342 58.2258 108.581C54.661 107.085 52.7349 107.527 49.322 108.738C49.8818 108.826 50.4746 109.17 51.1811 109.866C52.0466 111.624 51.1062 113.179 49.5541 111.759C47.5571 110.921 47.3914 110.462 46.1962 110.137C43.9922 111.889 43.486 113.591 44.4194 118.655C39.5442 128 35.7603 126.265 29.1358 123.997L22.5988 122.848C20.2852 125.079 16.8233 118.048 20.0023 117.574L21.5253 110.273C18.9289 104.999 24.5713 95.6695 32.2276 97.3594C36.1339 100.09 38.2553 101.069 41.8688 101.348L43.063 98.5759C44.5111 94.5871 46.2421 98.1026 46.2956 99.9438C48.0185 98.8047 49.33 96.8747 50.8692 93.6404C51.5447 89.9338 52.4667 88.4101 56.8695 88.5021C57.488 88.2381 57.9888 89.0429 58.1676 91.1386C59.487 87.5011 61.0706 86.5954 65.72 87.4199C89.5621 80.1319 101.482 72.7008 122.706 59.3611C123.026 53.0647 123.62 50.1599 125.931 46.8537C139.647 34.0694 156.897 32.6571 179.155 25.0148Z" fill="black"/>
<path d="M71.5995 97.6284C91.4937 80.4745 104.403 75.8832 126.854 66.054C131.348 69.08 133.79 68.9364 138.122 68.1494C158.381 60.9728 168.376 53.7663 186.69 42.0515C133.811 64.9977 128.648 65.8582 184.348 35.5613C127.144 58.9731 130.224 56.1654 181.751 30.2881C140.207 45.2695 112.857 55.3754 179.155 25.0148C156.897 32.6571 139.647 34.0694 125.931 46.8537C123.62 50.1599 123.026 53.0647 122.706 59.3611C101.482 72.7008 89.5621 80.1319 65.72 87.4199M71.5995 97.6284C68.972 95.845 67.7239 95.4356 67.0473 98.7779C66.8192 100.792 66.0911 101.25 64.796 102.07M71.5995 97.6284C69.4532 101.216 68.0955 102.667 64.796 102.07M65.72 87.4199C61.0706 86.5954 59.487 87.5011 58.1676 91.1386M65.72 87.4199C65.7588 89.6627 65.7376 90.858 63.4065 89.6511C61.2755 88.633 60.1477 89.3239 58.1676 91.1386M58.1676 91.1386C57.9888 89.0429 57.488 88.2381 56.8695 88.5021C52.4667 88.4101 51.5447 89.9338 50.8692 93.6404M58.1676 91.1386C58.6004 92.0176 58.0928 94.4514 56.1079 92.1527C54.5559 90.7332 53.0895 91.3206 50.8692 93.6404M50.8692 93.6404C49.3301 96.8747 48.0185 98.8047 46.2956 99.9438M41.8688 101.348C43.6897 101.149 45.0929 100.739 46.2956 99.9438M41.8688 101.348L43.063 98.5759C44.5111 94.5871 46.2421 98.1026 46.2956 99.9438M41.8688 101.348C38.2553 101.069 36.1339 100.09 32.2276 97.3594C24.5713 95.6695 18.9289 104.999 21.5253 110.273M21.5253 110.273C22.8235 112.909 24.6294 113.112 26.6892 112.098C27.9763 110.537 27.8787 109.874 26.0775 109.123M21.5253 110.273L20.0023 117.574C16.8233 118.048 20.2852 125.079 22.5988 122.848L29.1358 123.997M29.1358 123.997C28.3756 120.554 28.6085 119.276 30.8377 118.791C32.8974 117.777 33.7629 119.534 34.1956 120.413M29.1358 123.997C35.7603 126.265 39.5442 128 44.4193 118.655C43.486 113.591 43.9922 111.889 46.1962 110.137M46.1962 110.137C47.3913 110.462 47.5571 110.921 49.5541 111.759C51.1062 113.179 52.0466 111.624 51.1811 109.866C50.4746 109.17 49.8818 108.826 49.322 108.738M46.1962 110.137C47.4356 109.229 48.3265 108.58 49.322 108.738M49.322 108.738C52.7349 107.527 54.661 107.085 58.2258 108.581C58.9142 108.342 59.3139 108.289 59.8647 107.239M59.8647 107.239C63.0567 106.971 63.6735 105.527 64.9127 103.105C64.8899 102.691 64.8509 102.35 64.796 102.07M59.8647 107.239C60.559 104.111 61.0078 102.43 62.9278 100.806C63.8971 100.78 64.5315 100.722 64.796 102.07" stroke="white" stroke-width="0.5" stroke-linecap="round" stroke-linejoin="round"/>
<path d="M115.183 71.801C122.59 75.8012 125.948 80.3799 131.858 88.4385L132.001 88.6345L129.971 98.37C128.652 106.174 126.408 107.682 119.851 105.537C116.413 102.669 114.536 100.743 111.479 95.4635L110.597 78.4267L102.017 93.5709C83.0175 93.0983 78.1531 104.008 81.1948 113.651L88.5973 116.558L87.6569 118.113L92.313 122.372C86.5004 122.259 78.8063 119.195 77.1502 112.366C77.9346 95.1931 83.5993 91.2911 100.032 91.2723L109.257 73.6266L110.377 74.1674L112.869 74.0321L115.183 71.801Z" fill="white"/>
<path d="M129.971 98.37L132.001 88.6345C126.002 80.4539 122.649 75.8335 115.183 71.801L112.869 74.0321M129.971 98.37C129.782 97.7152 129.599 97.0789 129.416 96.4592M129.971 98.37C128.652 106.174 126.408 107.682 119.851 105.537M112.869 74.0321L110.377 74.1674M112.869 74.0321C113.845 74.6896 114.755 75.3313 115.605 75.9607M129.416 96.4592C126.944 88.0641 124.732 82.7176 115.605 75.9607M129.416 96.4592C126.822 99.9136 125.393 102.207 121.857 104.412M119.851 105.537C116.413 102.669 114.536 100.743 111.479 95.4635L110.597 78.4267M119.851 105.537C120.591 105.161 121.254 104.788 121.857 104.412M110.377 74.1674L110.597 78.4267M110.377 74.1674L109.257 73.6266L100.032 91.2723C83.5993 91.2911 77.9346 95.1931 77.1502 112.366C78.8063 119.195 86.5004 122.259 92.313 122.372L87.6569 118.113L88.5973 116.558L81.1948 113.651C78.1531 104.008 83.0175 93.0983 102.017 93.5709L110.597 78.4267M115.605 75.9607L116.285 93.0971C117.075 97.918 118.702 100.277 121.857 104.412" stroke="black" stroke-width="0.5" stroke-linecap="round" stroke-linejoin="round"/>
<path d="M113.573 52.9389L112.586 66.528L107.094 69.2325L96.4081 61.3904C93.2592 59.6629 91.0967 59.5401 91.2152 50.8439C93.3757 45.7828 94.4267 42.8855 94.694 37.1196C98.1644 34.7366 98.4075 28.388 107.26 41.8516C110.647 44.9323 111.993 47.4053 113.573 52.9389Z" fill="white" stroke="black" stroke-width="0.5" stroke-linecap="round" stroke-linejoin="round"/>
<path d="M23.7517 81.8778C24.301 81.6073 26.8462 81.8101 28.0501 81.9452L20.2898 74.8468C36.2318 82.201 44.1453 78.4218 58.3634 72.4792C74.6068 55.8548 87.9647 78.9854 106.564 71.6223C96.5701 84.2414 75.7068 66.1235 58.3634 72.4792C43.3627 85.325 31.9448 89.8551 23.7517 81.8778Z" fill="white"/>
<path d="M58.3634 72.4792C43.3627 85.325 31.9448 89.8551 23.7517 81.8778C24.301 81.6073 26.8462 81.8101 28.0501 81.9452L20.2898 74.8468C36.2318 82.201 44.1453 78.4218 58.3634 72.4792ZM58.3634 72.4792C74.6068 55.8548 87.9647 78.9854 106.564 71.6223M58.3634 72.4792C75.7068 66.1235 96.5701 84.2414 106.564 71.6223M107.272 71.3281C107.036 71.4312 106.799 71.5292 106.564 71.6223" stroke="black" stroke-width="0.5" stroke-linecap="round" stroke-linejoin="round"/>
<ellipse cx="110.705" cy="69.6378" rx="5.87781" ry="4.59175" transform="rotate(63.7851 110.705 69.6378)" fill="white"/>
<path d="M129.089 48.0698C126.783 49.1768 123.81 55.7984 124.998 58.8195M141.043 49.8272C140.494 50.0977 139.561 52.0132 139.162 52.9372" stroke="black" stroke-width="0.5" stroke-linecap="round" stroke-linejoin="round"/>
<path d="M144.073 55.9792L143.311 59.63" stroke="white" stroke-width="0.5" stroke-linecap="round" stroke-linejoin="round"/>
<path d="M127.848 62.8757C133.468 68.1891 136.76 65.1762 142.549 63.2808M145.982 61.5905C146.532 61.3201 156.112 57.3309 160.833 55.3702" stroke="white" stroke-width="0.5" stroke-linecap="round" stroke-linejoin="round"/>
<path d="M127.414 63.3414C133.034 68.6549 136.326 65.6419 142.115 63.7466M145.548 62.0563C146.097 61.7858 155.678 57.7967 160.399 55.8359" stroke="white" stroke-width="0.5" stroke-linecap="round" stroke-linejoin="round"/>
<path d="M137.581 42.7962L139.895 40.5651" stroke="white" stroke-width="0.5" stroke-linecap="round" stroke-linejoin="round"/>
<path d="M41.8476 103.037C37.8947 103.732 35.7233 103.223 31.9526 100.266" stroke="white" stroke-width="0.5" stroke-linecap="round" stroke-linejoin="round"/>
<path d="M79.3554 85.661C75.4838 87.9714 73.4682 89.8606 68.4451 87.7572" stroke="white" stroke-width="0.5" stroke-linecap="round" stroke-linejoin="round"/>
<path d="M54.0271 94.8564C54.9225 95.2891 57.8428 96.2535 59.1909 96.6816" stroke="white" stroke-width="0.5" stroke-linecap="round" stroke-linejoin="round"/>
<path d="M23.3849 108.852C23.3254 105.119 23.5831 103.123 26.9677 100.536" stroke="white" stroke-width="0.5" stroke-linecap="round" stroke-linejoin="round"/>
<path d="M40.3246 110.339C37.3633 113.048 36.4431 115.08 36.488 119.872" stroke="white" stroke-width="0.5" stroke-linecap="round" stroke-linejoin="round"/>
<path d="M79.4191 89.2552C75.2272 90.915 72.5008 91.3607 71.1052 96.6246" stroke="white" stroke-width="0.5" stroke-linecap="round" stroke-linejoin="round"/>
<path d="M57.8468 106.079C58.0498 105.105 59.066 102.203 59.5487 100.873" stroke="black" stroke-width="0.5" stroke-linecap="round" stroke-linejoin="round"/>
<path d="M30.5626 121.697C32.8288 123.089 34.2101 123.655 37.7861 122.508" stroke="black" stroke-width="0.5" stroke-linecap="round" stroke-linejoin="round"/>
<path d="M111.013 66.7975C110.117 66.3648 108.928 68.9159 108.445 70.2455" stroke="black" stroke-width="0.5"/>
<path d="M112.594 76.9385L113.846 91.6091" stroke="black" stroke-width="0.5"/>
<path d="M71.1331 68.9624L76.5508 69.5706" stroke="black" stroke-width="0.5"/>
<path d="M79.4761 70.3141L87.5652 72.8829" stroke="black" stroke-width="0.5"/>
<path d="M101.821 42.9328C100.035 42.2839 97.0309 45.3838 97.627 48.2739" stroke="black" stroke-width="0.5"/>
<path d="M81.6063 116.219L83.4122 116.422" stroke="black" stroke-width="0.5"/>
<path d="M45.9838 80.2536C39.9569 81.4601 36.7156 82.7428 29.9096 80.5246" stroke="black" stroke-width="0.5"/>
</svg>
