<svg width="65" height="87" viewBox="0 0 65 87" fill="none" xmlns="http://www.w3.org/2000/svg">
<path d="M9.45295 8.84843C23.8803 37.7932 18.8859 25.8821 11.4457 7.79397C23.5615 30.3179 24.7847 31.68 13.4384 6.7395C27.4552 31.116 26.9268 28.8802 15.922 5.80934C21.2247 13.846 24.4404 18.2416 28.0175 27.0608C28.4866 28.9375 28.6322 29.9916 27.5979 31.8915C32.3046 41.6881 34.5912 47.3078 42.1041 56.0919C43.6023 57.0608 44.2256 57.6637 44.1096 59.0784C44.2184 59.0582 44.3517 59.0455 44.5148 59.0408C45.5186 59.6045 46.1126 59.888 46.3346 61.267C46.7704 61.5172 46.8059 61.6901 46.9255 61.9898C46.463 63.5078 46.7077 64.3433 47.3111 65.829C47.3258 65.5889 47.4403 65.3376 47.6901 65.0416C48.3544 64.6901 49.004 65.1145 48.4986 65.766C48.2396 66.6164 48.0637 66.6822 47.9785 67.1933C48.7523 68.1647 49.4443 68.4037 51.4147 68.0634C55.2909 70.279 54.7416 71.8885 54.0846 74.7158L53.8675 77.519C54.8347 78.5434 52.1777 79.9494 51.8747 78.5735L48.9294 77.8277C46.9367 78.8822 43.0387 76.3361 43.4292 73.0571C44.3678 71.407 44.6783 70.5047 44.6573 68.9508L43.5167 68.4022C41.8853 67.7292 43.2138 67.0262 43.9406 67.0257C43.4271 66.2692 42.6155 65.6803 41.2794 64.9774C39.7878 64.6409 39.1512 64.2249 39.0275 62.3285C38.9005 62.0587 39.2008 61.8527 40.0238 61.8013C38.5361 61.1881 38.1201 60.4945 38.2774 58.5008C34.5259 48.1361 31.1512 42.9077 25.0997 33.5975C22.5959 33.3823 21.4246 33.0907 20.032 32.0544C14.4733 25.9866 13.2871 18.5347 9.45295 8.84843Z" fill="black"/>
<path d="M42.1041 56.0919C34.5912 47.3078 32.3046 41.6881 27.5979 31.8915C28.6322 29.9916 28.4866 28.9375 28.0175 27.0608C24.4404 18.2416 21.2247 13.846 15.922 5.80934C26.9268 28.8802 27.4552 31.116 13.4384 6.7395C24.7847 31.68 23.5615 30.3179 11.4457 7.79397C18.8859 25.8821 23.8803 37.7932 9.45295 8.84843C13.2871 18.5347 14.4733 25.9866 20.032 32.0544C21.4246 33.0907 22.5959 33.3823 25.0997 33.5975C31.1512 42.9077 34.5259 48.1361 38.2774 58.5008M42.1041 56.0919C41.4938 57.2024 41.3771 57.7353 42.7246 58.0678C43.5301 58.1908 43.7378 58.5102 44.1096 59.0784M42.1041 56.0919C43.6023 57.0608 44.2256 57.6637 44.1096 59.0784M38.2774 58.5008C38.1201 60.4945 38.5361 61.1881 40.0238 61.8013M38.2774 58.5008C39.1636 58.5116 39.6375 58.5353 39.2446 59.5252C38.9191 60.4312 39.2336 60.9257 40.0238 61.8013M40.0238 61.8013C39.2008 61.8527 38.9005 62.0587 39.0275 62.3285C39.1512 64.2249 39.7878 64.6409 41.2794 64.9774M40.0238 61.8013C40.356 61.6255 41.3377 61.8741 40.5001 62.7014C39.9947 63.3529 40.2805 63.9921 41.2794 64.9774M41.2794 64.9774C42.6155 65.6803 43.4271 66.2692 43.9406 67.0257M44.6573 68.9508C44.5123 68.1635 44.2991 67.5538 43.9406 67.0257M44.6573 68.9508L43.5167 68.4022C41.8853 67.7292 43.2138 67.0262 43.9406 67.0257M44.6573 68.9508C44.6783 70.5047 44.3678 71.407 43.4292 73.0571C43.0387 76.3361 46.9367 78.8822 48.9294 77.8277M48.9294 77.8277C49.9258 77.3005 49.9404 76.5246 49.4641 75.6245C48.7994 75.0507 48.5406 75.0846 48.3089 75.8517M48.9294 77.8277L51.8747 78.5735C52.1777 79.9494 54.8347 78.5434 53.8675 77.519L54.0846 74.7158M54.0846 74.7158C52.7497 75.0012 52.2354 74.8852 51.9623 73.9185C51.486 73.0184 52.1502 72.6669 52.4823 72.4912M54.0846 74.7158C54.7416 71.8885 55.2909 70.279 51.4147 68.0634C49.4443 68.4037 48.7523 68.1647 47.9785 67.1933M47.9785 67.1933C48.0637 66.6822 48.2396 66.6164 48.4986 65.766C49.004 65.1145 48.3544 64.6901 47.6901 65.0416C47.4403 65.3376 47.3258 65.5889 47.3111 65.829M47.9785 67.1933C47.574 66.6481 47.2848 66.2562 47.3111 65.829M47.3111 65.829C46.7077 64.3433 46.463 63.5078 46.9255 61.9898C46.8059 61.6901 46.7704 61.5172 46.3346 61.267M46.3346 61.267C46.1126 59.888 45.5186 59.6045 44.5148 59.0408C44.3517 59.0455 44.2184 59.0582 44.1096 59.0784M46.3346 61.267C45.0714 60.9295 44.3898 60.7155 43.6772 59.8681C43.6314 59.45 43.5856 59.1759 44.1096 59.0784" stroke="white" stroke-width="0.5" stroke-linecap="round" stroke-linejoin="round"/>
<path d="M30.2969 36.9921C31.6109 33.8489 33.301 32.4577 36.2757 30.0092L36.3481 29.9496L40.2752 30.944C43.4119 31.6078 44.0903 32.5936 43.4797 35.3932C42.4697 36.8397 41.7758 37.6254 39.7972 38.878L33.0861 39.0495L39.3921 42.9329C39.8959 51.1155 44.391 53.3455 48.0968 52.1526L48.9782 48.9979L49.6279 49.4222L51.1443 47.4677C51.3112 49.9714 50.3779 53.2499 47.7355 53.88C40.9098 53.3317 39.1595 50.8426 38.5545 43.7601L31.2349 39.5682L31.4083 39.0924L31.2641 38.0166L30.2969 36.9921Z" fill="white"/>
<path d="M40.2752 30.944L36.3481 29.9496C33.3283 32.4353 31.6215 33.8235 30.2969 36.9921L31.2641 38.0166M40.2752 30.944C40.0229 31.0171 39.7777 31.0886 39.5391 31.1597M40.2752 30.944C43.4119 31.6078 44.0903 32.5936 43.4797 35.3932M31.2641 38.0166L31.4083 39.0924M31.2641 38.0166C31.4889 37.604 31.7097 37.2196 31.9279 36.8609M39.5391 31.1597C36.3062 32.1225 34.2705 33.0101 31.9279 36.8609M39.5391 31.1597C41.0006 32.3199 41.9602 32.964 42.9618 34.5151M43.4797 35.3932C42.4697 36.8397 41.7758 37.6254 39.7972 38.878L33.0861 39.0495M43.4797 35.3932C43.304 35.0695 43.1323 34.7792 42.9618 34.5151M31.4083 39.0924L33.0861 39.0495M31.4083 39.0924L31.2349 39.5682L38.5545 43.7601C39.1595 50.8426 40.9098 53.3317 47.7355 53.88C50.3779 53.2499 51.3112 49.9714 51.1443 47.4677L49.6279 49.4222L48.9782 48.9979L48.0968 52.1526C44.391 53.3455 39.8959 51.1155 39.3921 42.9329L33.0861 39.0495M31.9279 36.8609L38.6858 36.7777C40.5652 36.4963 41.4397 35.8239 42.9618 34.5151" stroke="black" stroke-width="0.5" stroke-linecap="round" stroke-linejoin="round"/>
<path d="M22.8899 37.455L28.3043 38.0465L29.5745 40.4468L26.8591 44.956C26.2899 46.292 26.3199 47.2225 22.8737 47.065C20.7919 46.0719 19.607 45.5835 17.3151 45.3977C16.2458 43.8728 13.7241 43.6903 18.7311 40.0397C19.8273 38.6177 20.7572 38.0682 22.8899 37.455Z" fill="white" stroke="black" stroke-width="0.5" stroke-linecap="round" stroke-linejoin="round"/>
<path d="M37.6098 76.5205C37.4827 76.2805 37.4704 75.186 37.4802 74.6688L34.9528 77.9264C37.2839 71.1458 35.5004 67.689 32.6313 61.4884C25.4608 54.2843 34.1301 48.8105 30.5395 40.7043C35.8976 45.1661 29.4851 53.936 32.6313 61.4884C38.2611 68.1107 40.4693 73.0871 37.6098 76.5205Z" fill="white"/>
<path d="M32.6313 61.4884C38.2611 68.1107 40.4693 73.0871 37.6098 76.5205C37.4827 76.2805 37.4704 75.186 37.4802 74.6688L34.9528 77.9264C37.2839 71.1458 35.5004 67.689 32.6313 61.4884ZM32.6313 61.4884C25.4608 54.2843 34.1301 48.8105 30.5395 40.7043M32.6313 61.4884C29.4851 53.936 35.8976 45.1661 30.5395 40.7043M30.3974 40.3955C30.4467 40.4988 30.4941 40.6018 30.5395 40.7043" stroke="black" stroke-width="0.5" stroke-linecap="round" stroke-linejoin="round"/>
<ellipse cx="29.6035" cy="38.8953" rx="2.25452" ry="2.03675" transform="rotate(-27.8857 29.6035 38.8953)" fill="white"/>
<path d="M20.3985 30.7083C20.9205 31.7156 23.6494 33.0778 24.802 32.6028M20.6594 25.5776C20.7864 25.8176 21.5786 26.2434 21.9587 26.4263" stroke="black" stroke-width="0.5" stroke-linecap="round" stroke-linejoin="round"/>
<path d="M22.9843 24.3474L24.4569 24.7203" stroke="white" stroke-width="0.5" stroke-linecap="round" stroke-linejoin="round"/>
<path d="M26.3038 31.4241C28.2025 29.0672 26.8903 27.6116 25.9296 25.0932M25.1358 23.593C25.0088 23.353 23.0815 19.1752 22.1338 17.1164" stroke="white" stroke-width="0.5" stroke-linecap="round" stroke-linejoin="round"/>
<path d="M26.5039 31.6168C28.4026 29.2599 27.0904 27.8043 26.1297 25.2859M25.3358 23.7857C25.2088 23.5457 23.2816 19.368 22.3339 17.3091" stroke="white" stroke-width="0.5" stroke-linecap="round" stroke-linejoin="round"/>
<path d="M18.0024 26.9836L17.0352 25.9592" stroke="white" stroke-width="0.5" stroke-linecap="round" stroke-linejoin="round"/>
<path d="M45.3267 68.9806C45.7456 70.6927 45.6229 71.6223 44.5895 73.2112" stroke="white" stroke-width="0.5" stroke-linecap="round" stroke-linejoin="round"/>
<path d="M37.0854 52.6027C38.1406 54.2995 38.9617 55.1913 38.3118 57.3305" stroke="white" stroke-width="0.5" stroke-linecap="round" stroke-linejoin="round"/>
<path d="M41.6459 63.6313C41.7846 63.2507 42.0601 62.0039 42.1805 61.4281" stroke="white" stroke-width="0.5" stroke-linecap="round" stroke-linejoin="round"/>
<path d="M48.2995 77.0089C46.8243 76.9888 46.0249 76.8533 44.8779 75.363" stroke="white" stroke-width="0.5" stroke-linecap="round" stroke-linejoin="round"/>
<path d="M48.2721 69.7264C49.452 71.0358 50.2896 71.4572 52.1846 71.4966" stroke="white" stroke-width="0.5" stroke-linecap="round" stroke-linejoin="round"/>
<path d="M38.5056 52.6192C39.315 54.4461 39.5906 55.6266 41.7248 56.2925" stroke="white" stroke-width="0.5" stroke-linecap="round" stroke-linejoin="round"/>
<path d="M45.9489 62.1225C45.5562 62.023 44.3704 61.5495 43.8265 61.3252" stroke="black" stroke-width="0.5" stroke-linecap="round" stroke-linejoin="round"/>
<path d="M53.1226 74.0727C53.5912 73.113 53.7649 72.5246 53.1809 70.9694" stroke="black" stroke-width="0.5" stroke-linecap="round" stroke-linejoin="round"/>
<path d="M28.4682 38.728C28.3295 39.1086 29.3825 39.6524 29.9263 39.8767" stroke="black" stroke-width="0.5"/>
<path d="M32.4244 38.1707L38.1855 37.8106" stroke="black" stroke-width="0.5"/>
<path d="M30.7751 55.9418L30.8188 53.6144" stroke="black" stroke-width="0.5"/>
<path d="M31.0068 52.3627L31.7294 48.9079" stroke="black" stroke-width="0.5"/>
<path d="M19.3568 42.3971C19.1649 43.1591 20.5011 44.4917 21.6233 44.2702" stroke="black" stroke-width="0.5"/>
<path d="M49.0984 52.0067L49.113 51.2309" stroke="black" stroke-width="0.5"/>
<path d="M36.1586 66.919C36.8553 69.5312 37.4808 70.9439 36.8503 73.8499" stroke="black" stroke-width="0.5"/>
</svg>
