<svg width="129" height="8" viewBox="0 0 129 8" fill="none" xmlns="http://www.w3.org/2000/svg">
<path d="M128.354 4.35307C128.549 4.1578 128.549 3.84122 128.354 3.64596L125.172 0.463978C124.976 0.268716 124.66 0.268716 124.464 0.463978C124.269 0.65924 124.269 0.975822 124.464 1.17108L127.293 3.99951L124.464 6.82794C124.269 7.0232 124.269 7.33978 124.464 7.53505C124.66 7.73031 124.976 7.73031 125.172 7.53505L128.354 4.35307ZM0.646454 3.64596C0.451187 3.84122 0.451187 4.1578 0.646454 4.35307L3.82843 7.53505C4.0237 7.73031 4.34028 7.73031 4.53554 7.53505C4.7308 7.33978 4.7308 7.0232 4.53554 6.82794L1.70711 3.99951L4.53554 1.17108C4.7308 0.975822 4.7308 0.65924 4.53554 0.463978C4.34028 0.268716 4.0237 0.268716 3.82843 0.463978L0.646454 3.64596ZM128 3.99951V3.49951H1V3.99951V4.49951H128V3.99951Z" fill="white"/>
</svg>
