<svg width="1132" height="463" viewBox="0 0 1132 463" fill="none" xmlns="http://www.w3.org/2000/svg">
<path d="M137.735 42.2388C125.509 37.2538 119.761 39.5307 110.526 48.2347L103.59 42.2388C137.735 22.0479 83.8509 -1.73146 79.0494 31.2462C33.1682 28.2483 45.4388 82.2117 79.0494 61.2259C116.928 123.184 110.526 234.109 56.1088 269.085C97.722 211.124 -11.6461 215.122 2.22509 272.083C25.6991 327.546 114.26 298.066 125.998 215.122L137.735 211.124V366.02C144.109 375.569 146.601 381.714 147.871 395C149.009 378.771 151.982 371.15 159.608 359.024C161.966 330.161 164.3 326.515 168.144 316.053V296.067C167.991 283.952 170.161 279.051 176.147 272.083C203.889 276.58 203.889 262.59 199.621 253.596C210.824 253.596 212.958 242.603 203.889 239.605C217.76 239.605 215.092 225.615 203.889 225.615C212.463 236.108 184.683 239.605 196.42 218.619C193.2 215.98 191.302 215.488 187.35 220.618L191.085 66.2225C191.62 72.8853 192.314 76.1173 196.42 78.2144C203.889 40.2401 238.033 90.2063 207.623 78.2144C224.695 109.693 249.77 49.7337 203.889 55.7296C222.561 42.2388 203.889 20.7533 185.75 28.2483C199.621 -11.7247 113.727 -6.72809 144.137 36.7425C140.081 36.3727 138.72 37.648 137.735 42.2388Z" fill="black" stroke="black" stroke-width="2"/>
<path d="M154.5 160.5L117.5 179L115.5 197L152 179V277L176 251L168 242.5L166.5 214L169 53L174.5 47.5L162.5 38L152.5 53H154.5L156 70L154.5 160.5Z" fill="white" stroke="black" stroke-width="1.5"/>
<path d="M186.5 118.416H957C907.199 169.771 1103.07 156.808 1096.34 106.949C1086.92 85.0108 988.658 88.0023 1022.31 111.436C1029.04 116.422 1045.19 115.425 1045.19 111.436C1045.19 106.949 1027.69 110.439 1029.04 118.416L1022.31 240.571C1022.31 250.543 1029.04 254.532 1058.65 252.538C1058.65 293.347 1058.65 316.227 1058.65 357.036C1048.47 372.39 1045.5 421 1045.5 421C1044.6 394.283 1044 379 1028.36 359.814" stroke="black" stroke-width="1.5"/>
<path d="M153 192L167 186" stroke="black" stroke-width="4"/>
<path d="M153 201L167 195" stroke="black" stroke-width="5"/>
<path d="M153 210L167 204" stroke="black" stroke-width="5"/>
<path d="M153 219L167 213" stroke="black" stroke-width="5"/>
<path d="M152 257L175 246" stroke="black" stroke-width="6"/>
<path d="M151.356 268.636L162.828 263" stroke="black" stroke-width="6"/>
<path d="M151 229L167 222" stroke="black" stroke-width="6"/>
<path d="M151 238L167 231" stroke="black" stroke-width="6"/>
<path d="M151 247L167 240" stroke="black" stroke-width="6"/>
<path d="M182.5 404.5C79.5001 247.5 763.5 197.5 1000 328C1038.88 354.142 1040.27 390.632 1014.75 405.253" stroke="black" stroke-width="1.5"/>
<path d="M44.2707 242C63 244 51.5 268 41.2707 254C27.0636 266 32.2709 286 63.7708 283.5C14.7709 296 21.7709 242 44.2707 242Z" fill="black"/>
<path d="M32.5 246.5L51.5 244" stroke="white"/>
<path d="M29 251.5L54.5 248" stroke="white"/>
<path d="M26.5 257.5L40.5 255.5M54.5 253.5L41.5 255.5" stroke="white"/>
<path d="M26.5 263.5C27.7 263.5 33.6667 262.167 36.5 261.5" stroke="white"/>
<path d="M27 270.5L35.5 269" stroke="white"/>
<path d="M30.5 277L37 275" stroke="white"/>
<path d="M37 283L45 281" stroke="white"/>
<path d="M48 286.5C48.8 285.3 52.3333 283.667 54 283" stroke="white"/>
<path d="M154 56L172.5 46" stroke="black" stroke-width="0.5"/>
<path d="M155.5 64L168.5 57.5" stroke="black" stroke-width="0.5"/>
<path d="M156 73.5L168 67.5" stroke="black" stroke-width="0.5"/>
<path d="M156 82L168 76" stroke="black" stroke-width="0.5"/>
<path d="M156 91L168 85" stroke="black"/>
<path d="M156 100L168 94" stroke="black"/>
<path d="M155 109L167 103" stroke="black"/>
<path d="M155 117.5L167 111.5" stroke="black"/>
<path d="M155 126.5L167 120.5" stroke="black" stroke-width="2"/>
<path d="M155 135.5L167 129.5" stroke="black" stroke-width="2"/>
<path d="M155 145L167 139" stroke="black" stroke-width="2"/>
<path d="M154 154L167 148" stroke="black" stroke-width="3"/>
<path d="M117 182L166.5 157" stroke="black" stroke-width="3"/>
<path d="M116.5 191L167 165.5" stroke="black" stroke-width="4"/>
<path d="M152.5 183L167 177" stroke="black" stroke-width="4"/>
<path d="M155.552 30.8317C142.052 27.8317 152.552 13.3317 161.052 24.8317C166.552 11.3317 180.552 30.8317 166.552 26.8317C163.052 33.3317 167.552 41.3317 175.552 40.8317C175.552 32.8317 184.552 35.8317 180.052 44.3317C196.052 45.3317 184.552 61.3317 182.552 48.8317C175.552 48.3317 171.552 55.8317 171.552 63.8317C171.552 71.8317 169.552 234.332 169.552 234.332C169.552 241 174.5 247.5 179 246C176.5 234 195 246.5 183.552 250.332C169.552 253.332 166.052 241 166.052 231.332L168.052 57.8317C168.052 54.278 170.578 49.7141 174.552 46.8326C167.155 44.1762 164.023 41.7391 161.176 34.8317C160.692 42.6007 158.345 47.1258 152.274 52.5C157.552 55 155.183 115.375 154.052 160.5L117.552 179.5L115.552 196.5L152.552 178.5V278C159.552 256 170.552 247.332 183.552 254.5C191 258.607 173.448 268 177.5 256C166.948 254.5 158.696 265.241 152.552 290.5C150 308.5 152.528 317.06 148.552 333L149.5 184L115.552 200.5C114.5 240.5 90.5197 279.349 62.5518 288C35.5517 293.5 22.0517 275.5 23.0518 260C24.5517 244.5 35.5517 236.5 49.5518 240C65.5517 246 53.0517 269.5 42.0517 258.5C31.3356 270.681 46.0517 285.5 64.0517 279.5C93.0517 269 112.552 223 114.052 166.5C115.552 97.5 111.052 80.5 88.0517 48.8317C83.5517 41.937 72.0517 46 74.0517 50.2039C77.5517 57.8317 68.0517 57.8317 68.0517 51.5C71.5517 30.8317 102.552 38 114.052 96.5C112.834 83.8329 115.413 69.6229 119.652 60.5C104.052 59 93.0517 46 92.0517 40.8317C89.5517 33 93.5517 24.8317 101.052 27.8317C108.052 31.5 100.052 36.5 96.5517 31.5C94.0517 34.8317 97.4967 53.8317 121.515 57C125.769 50.0816 131.158 48.1759 136.052 56.3317H131.052C129.229 56.456 127.649 56.966 126.283 57.8317H139.963C136.978 53.1206 140.985 43.1504 149.552 50.2039C155.355 45.7399 157.38 40.9492 155.552 30.8317Z" fill="white"/>
<path d="M161.052 24.8317C152.552 13.3317 142.052 27.8317 155.552 30.8317M161.052 24.8317C166.552 11.3317 180.552 30.8317 166.552 26.8317C163.052 33.3317 167.552 41.3317 175.552 40.8317C175.552 32.8317 184.552 35.8317 180.052 44.3317M161.052 24.8317C161.281 28.7296 161.353 31.9966 161.176 34.8317M155.552 30.8317C156.552 30.8317 157.552 29.3317 156.052 27.8317M155.552 30.8317C157.38 40.9492 155.355 45.7399 149.552 50.2039M180.052 44.3317C196.052 45.3317 184.552 61.3317 182.552 48.8317C175.552 48.3317 171.552 55.8317 171.552 63.8317C171.552 71.8317 169.552 234.332 169.552 234.332C169.552 241 174.5 247.5 179 246C176.5 234 195 246.5 183.552 250.332C169.552 253.332 166.052 241 166.052 231.332L168.052 57.8317C168.052 54.278 170.578 49.7141 174.552 46.8326M180.052 44.3317C178.027 44.7656 176.17 45.6597 174.552 46.8326M161.176 34.8317C164.023 41.7391 167.155 44.1762 174.552 46.8326M161.176 34.8317C160.692 42.6007 158.345 47.1258 152.274 52.5M149.552 50.2039C147.991 51.4044 146.157 52.5812 144.052 53.8317C142.052 55 144.052 59 147.552 56.3317C148.692 55.4651 149.745 54.6359 150.716 53.8317M149.552 50.2039C140.985 43.1504 136.978 53.1206 139.963 57.8317M150.552 57.8317C150.628 56.5803 150.666 55.7549 150.716 53.8317M150.552 57.8317C154.112 51.9181 151.149 111.87 150.552 159L117.552 176.5C121.753 125.246 112.893 76.3437 123.005 61.1363M150.552 57.8317C147.03 60.0023 144.373 60.4108 142.5 59.8149M150.716 53.8317C151.261 53.3807 151.78 52.9375 152.274 52.5M152.274 52.5C157.552 55 155.183 115.375 154.052 160.5L117.552 179.5L115.552 196.5L152.552 178.5V278C159.552 256 170.552 247.332 183.552 254.5C191 258.607 173.448 268 177.5 256C166.948 254.5 158.696 265.241 152.552 290.5C150 308.5 152.528 317.06 148.552 333L149.5 184L115.552 200.5C114.5 240.5 90.5197 279.349 62.5518 288C35.5517 293.5 22.0517 275.5 23.0518 260C24.5517 244.5 35.5517 236.5 49.5518 240C65.5517 246 53.0517 269.5 42.0517 258.5C31.3356 270.681 46.0517 285.5 64.0517 279.5C93.0517 269 112.552 223 114.052 166.5C115.552 97.5 111.052 80.5 88.0517 48.8317C83.5517 41.937 72.0517 46 74.0517 50.2039C77.5517 57.8317 68.0517 57.8317 68.0517 51.5C71.5517 30.8317 102.552 38 114.052 96.5C112.834 83.8329 115.413 69.6229 119.652 60.5M121.515 57C125.769 50.0816 131.158 48.1759 136.052 56.3317H131.052C129.229 56.456 127.649 56.966 126.283 57.8317M121.515 57C97.4967 53.8317 94.0517 34.8317 96.5517 31.5C100.052 36.5 108.052 31.5 101.052 27.8317C93.5517 24.8317 89.5517 33 92.0517 40.8317C93.0517 46 104.052 59 119.652 60.5M121.515 57C120.865 58.0559 120.242 59.2285 119.652 60.5M126.283 57.8317H139.963M126.283 57.8317C125.015 58.635 123.931 59.7445 123.005 61.1363M139.963 57.8317C140.541 58.7437 141.38 59.4587 142.5 59.8149M123.005 61.1363C125.486 61.5402 127.601 61.8 129.5 61.9134M142.5 59.8149C140.168 60.6754 138.13 61.2764 136.052 61.623M129.5 61.9134C129.5 66 137 65.5 136.052 61.623M129.5 61.9134L136.052 61.623" stroke="black" stroke-width="2"/>
<path d="M238.138 293.648C239.444 293.255 240.528 293.22 241.354 293.42C231.335 290.276 224.606 290.449 217.099 302.242C219.731 289.699 232.054 285.067 240.288 286.799C247.55 280.357 263.592 284.344 264.658 290.967C265.839 295.874 260.075 296.638 257.796 291.434C258.163 308.319 276.695 301.034 266.977 296.936C273.245 293.663 279.406 299.077 272.362 303.153C264.414 308.441 254.591 303.005 250.28 291.695L247.679 296.643C246.936 297.614 246.113 298.401 245.25 299.025C245.064 299.16 244.875 299.287 244.685 299.407C239.402 303.012 232.391 308.628 223.5 313L233.882 298.858C232.968 297.342 233.879 295.303 238.138 293.648Z" fill="black"/>
<path d="M200.214 327.489C207.656 315.782 209.723 312.372 204.984 305.776C199.088 317.245 191.557 298.009 202.148 299.784M207.46 322.279C211.496 312.083 212.879 304.984 207.763 301.932C205.495 300.702 203.641 300.034 202.148 299.784M202.148 299.784C205.211 291.698 214.069 291.858 217.099 302.242M217.099 302.242C216.72 305.343 216.288 306.835 215.002 308.92M217.099 302.242C224.606 290.449 231.335 290.276 241.354 293.42M217.099 302.242C219.731 289.699 232.054 285.067 240.288 286.799M247.679 296.643C248.779 291.247 245.287 287.85 240.288 286.799M247.679 296.643C246.936 297.614 246.113 298.401 245.25 299.025M247.679 296.643L250.28 291.695C254.591 303.005 264.414 308.441 272.362 303.153C279.406 299.077 273.245 293.663 266.977 296.936C276.695 301.034 258.163 308.319 257.796 291.434M241.533 297.858C243.942 296.307 243.628 293.972 241.354 293.42M241.354 293.42C240.528 293.22 239.444 293.255 238.138 293.648C233.879 295.303 232.968 297.342 233.882 298.858M240.288 286.799C247.55 280.357 263.592 284.344 264.658 290.967C265.839 295.874 260.075 296.638 257.796 291.434M257.025 288.571C257.172 289.674 257.442 290.626 257.796 291.434M233.882 298.858L223.5 313C232.712 308.47 239.906 302.605 245.25 299.025M233.882 298.858C235.262 301.146 240.8 302.242 245.25 299.025" stroke="black" stroke-width="1.5"/>
<path d="M1082.2 407.443C1079.68 408.061 1076.71 408.982 1071.31 404.484C1045.8 376.993 1081.22 333.508 1071.9 306.018C1059.65 311.183 1057.95 294.109 1064.54 293.416C1063.08 286.995 1071.33 280.172 1080.24 294.519C1072.83 281.368 1067.11 271.74 1073.77 276.028C1067.78 266.791 1067.7 261.501 1068.37 252.036C1071.9 265.531 1086.13 273.029 1082.2 283.025C1090.88 270.325 1093.57 293.481 1086.17 308.334C1091.4 300.084 1096.03 303.259 1092.9 311.016C1100.36 306.116 1106.39 304.277 1111.05 304.338C1133.62 302.019 1136.07 330.009 1120.86 323.31C1118.14 325.935 1113.34 326.432 1106.64 322.012C1101.73 315.014 1116.94 311.485 1116.94 322.012C1118.55 317.987 1118.57 314.848 1117.51 312.515C1106.22 309.017 1088.55 316.386 1072.37 342.505C1065.98 366.44 1057.99 391.938 1079.17 405.668C1080.12 406.283 1081.13 406.876 1082.2 407.443Z" fill="black"/>
<path d="M1086.13 402.557C1086.13 405.319 1084.35 406.915 1082.2 407.443M1082.2 407.443C1079.68 408.061 1076.71 408.982 1071.31 404.484C1045.8 376.993 1081.22 333.508 1071.9 306.018C1059.65 311.183 1057.95 294.109 1064.54 293.416M1082.2 407.443C1075.84 405.739 1075.33 396.059 1084.66 397.058C1088.58 398.058 1093.36 408.742 1081.22 410.554C1081.22 416.052 1070.92 417.052 1066.5 410.554C1063.56 417.551 1053.75 412.553 1057.67 406.555C1065.03 397.058 1047.86 397.058 1050.31 410.554C1049.82 419.551 1060.12 434.046 1064.54 423.05C1071.9 427.548 1069.94 432.546 1061.6 432.546C1075.33 436.045 1082.2 447.541 1071.9 456.038L1061.6 441.543C1053.63 445.218 1052.42 440.351 1050.31 431.547C1050.44 449.036 1047.93 455.207 1040.5 462.036M1082.2 407.443C1057.27 394.229 1065.7 367.514 1072.37 342.505M1064.54 293.416C1065.6 293.305 1066.88 293.619 1068.37 294.522C1081.65 304.777 1077.54 323.129 1072.37 342.505M1064.54 293.416C1062.97 286.524 1072.59 279.171 1082.2 298.02C1073.91 283.147 1066.53 271.367 1073.77 276.028C1067.78 266.791 1067.7 261.501 1068.37 252.036C1071.9 265.531 1086.13 273.029 1082.2 283.025C1091.43 269.53 1093.88 296.521 1084.66 311.016C1090.45 299.52 1096.33 302.519 1092.9 311.016M1092.9 311.016C1104.67 304.018 1123.32 306.018 1116.94 322.012C1116.94 311.485 1101.73 315.014 1106.64 322.012C1113.34 326.432 1118.14 325.935 1120.86 323.31M1092.9 311.016C1100.36 306.116 1106.39 304.277 1111.05 304.338M1072.37 342.505C1088.55 316.386 1106.22 309.017 1117.51 312.515M1111.05 304.338C1123.46 304.501 1126.27 318.099 1120.86 323.31M1111.05 304.338C1133.62 302.019 1136.07 330.009 1120.86 323.31" stroke="black" stroke-width="1.5"/>
<path d="M976.882 302.47C975.592 302.028 974.51 301.952 973.677 302.121C983.807 299.358 990.526 299.785 997.581 311.854C995.425 299.22 983.286 294.126 974.993 295.544C967.979 288.833 951.798 292.21 950.483 298.788C949.116 303.647 954.847 304.628 957.322 299.514C956.316 316.373 938.073 308.393 947.939 304.665C941.8 301.157 935.438 306.334 942.323 310.674C950.066 316.259 960.087 311.198 964.822 300.059L967.235 305.102C967.94 306.101 968.732 306.918 969.571 307.574C969.739 307.706 969.909 307.831 970.08 307.949C975.235 311.796 982.157 318.412 990.9 323.13L980.938 307.837C981.908 306.357 981.076 304.285 976.882 302.47Z" fill="black"/>
<path d="M1013.19 338.63C1006.2 326.649 1004.57 322.255 1009.55 315.844C1015.01 327.527 1023.26 308.59 1012.61 309.963M1006.14 332.451C1002.5 322.11 1001.69 314.754 1006.92 311.897C1009.24 310.754 1011.11 310.157 1012.61 309.963M1012.61 309.963C1009.86 301.767 1001 301.592 997.581 311.854M997.581 311.854C997.842 314.967 998.218 316.474 999.423 318.607M997.581 311.854C990.526 299.785 983.807 299.358 973.677 302.121M997.581 311.854C995.425 299.22 983.286 294.126 974.993 295.544M967.235 305.102C966.34 299.668 969.958 296.406 974.993 295.544M967.235 305.102C967.94 306.101 968.732 306.918 969.571 307.574M967.235 305.102L964.822 300.059C960.087 311.198 950.066 316.259 942.323 310.674C935.438 306.334 941.8 301.157 947.939 304.665C938.073 308.393 956.316 316.373 957.322 299.514M973.33 306.549C970.982 304.908 971.384 302.586 973.677 302.121M973.677 302.121C974.51 301.952 975.592 302.028 976.882 302.47C981.076 304.285 981.908 306.357 980.938 307.837M974.993 295.544C967.979 288.833 951.798 292.21 950.483 298.788C949.116 303.647 954.847 304.628 957.322 299.514M958.201 296.683C958.012 297.779 957.706 298.72 957.322 299.514M980.938 307.837L990.9 323.13C981.866 318.255 974.777 311.354 969.571 307.574M980.938 307.837C979.472 310.072 973.896 310.958 969.571 307.574" stroke="black" stroke-width="1.5"/>
<path d="M44.2707 242C60.7709 246.5 49.9085 263.123 41.2707 254C27.0636 266 32.2709 286 63.7708 283.5C14.7709 296 21.7709 242 44.2707 242Z" fill="black"/>
<path d="M110.22 406.46C112.788 407.078 115.819 408 121.319 403.5C147.319 376 111.22 332.5 120.72 305C133.207 310.167 134.941 293.087 128.22 292.395C129.71 285.971 121.298 279.146 112.222 293.497C119.775 280.342 125.6 270.711 118.819 275C124.914 265.76 125.002 260.468 124.319 251C120.72 264.5 106.22 272 110.22 282C101.373 269.295 98.6378 292.459 106.181 307.318C100.846 299.065 96.1243 302.241 99.3193 310C91.7171 305.099 85.5758 303.259 80.8193 303.32C57.8193 301 55.3193 329 70.8193 322.299C73.5922 324.924 78.4864 325.421 85.3193 321C90.3193 314 74.8193 310.469 74.8193 321C73.1833 316.973 73.1627 313.833 74.2392 311.5C85.7392 308 103.753 315.372 120.243 341.5C126.749 365.443 134.897 390.95 113.308 404.684C112.339 405.3 111.311 405.893 110.22 406.46Z" fill="black"/>
<path d="M106.22 401.572C106.22 404.336 108.028 405.932 110.22 406.46M110.22 406.46C112.788 407.078 115.819 408 121.319 403.5C147.319 376 111.22 332.5 120.72 305C133.207 310.167 134.941 293.087 128.22 292.395M110.22 406.46C116.7 404.756 117.22 395.072 107.72 396.072C103.72 397.072 98.8461 407.76 111.22 409.572C111.22 415.072 121.72 416.072 126.22 409.572C129.22 416.572 139.22 411.572 135.22 405.572C127.72 396.072 145.22 396.072 142.72 409.572C143.22 418.572 132.72 433.072 128.22 422.072C120.72 426.572 122.72 431.572 131.22 431.572C117.22 435.072 110.22 446.572 120.72 455.072L131.22 440.572C139.34 444.248 140.576 439.38 142.72 430.572C142.595 448.067 145.149 454.241 152.72 461.072M110.22 406.46C135.631 393.241 127.041 366.517 120.243 341.5M128.22 292.395C127.137 292.283 125.833 292.597 124.319 293.5C110.786 303.759 114.977 322.117 120.243 341.5M128.22 292.395C129.819 285.5 120.012 278.144 110.22 297C118.667 282.122 126.19 270.338 118.819 275C124.914 265.76 125.002 260.468 124.319 251C120.72 264.5 106.22 272 110.22 282C100.819 268.5 98.3193 295.5 107.72 310C101.819 298.5 95.8193 301.5 99.3193 310M99.3193 310C87.3193 303 68.3193 305 74.8193 321C74.8193 310.469 90.3193 314 85.3193 321C78.4864 325.421 73.5922 324.924 70.8193 322.299M99.3193 310C91.7171 305.099 85.5758 303.259 80.8193 303.32M120.243 341.5C103.753 315.372 85.7392 308 74.2392 311.5M80.8193 303.32C68.1706 303.482 65.3141 317.086 70.8193 322.299M80.8193 303.32C57.8193 301 55.3193 329 70.8193 322.299" stroke="black" stroke-width="1.5"/>
<path d="M127.35 292.94C133.684 293.608 132.05 310.088 120.282 305.102C111.329 331.636 146.503 374.466 122 401C116.817 405.342 114.92 406.596 112.5 406C136.448 393.246 128 364 120.282 341M127.35 292.94C126.329 292.832 125.1 293.136 123.674 294.007C110.92 303.905 115.319 322.298 120.282 341M127.35 292.94C128.857 286.288 119.615 279.19 110.386 297.384C118.347 283.028 125.436 271.658 118.49 276.157C124.234 267.241 124.317 262.135 123.674 253C120.282 266.026 106.617 273.262 110.386 282.911C101.527 269.885 99.1707 295.936 108.03 309.927C102.469 298.831 96.8146 301.725 100.113 309.927M100.113 309.927C88.804 303.173 70.8979 305.102 77.0237 320.54C77.0237 310.38 91.6313 313.786 86.9192 320.54C80.4797 324.806 75.8672 324.327 73.254 321.793M100.113 309.927C92.9487 305.198 87.161 303.423 82.6783 303.482M120.282 341C104.741 315.79 87.3149 307.997 76.477 311.374M82.6783 303.482C70.7579 303.638 68.0658 316.763 73.254 321.793M82.6783 303.482C61.0025 301.243 58.6464 328.259 73.254 321.793" stroke="white" stroke-width="1.5"/>
<path d="M889 98.78C882.5 103.78 875 96.2799 882.5 92.78C881 74.2799 850.5 97.2799 876.5 116.78L876 110.78C878.515 115.909 880.758 116.704 885.5 116.28C879.5 105.78 887.5 100.78 895.5 108.28C904.094 114.072 914.366 111.115 934.5 103.78C918.729 101.762 912.091 98.1582 906 85.2799C918.077 86.4715 924.092 88.513 932 97.2799C922 84.2799 931 75.2798 942.5 76.7799C933.03 84.7935 936.781 89.6896 951.5 98.78C946.784 90.5512 947.486 87.6203 954.5 85.2799C958.843 89.323 960.76 91.8562 959.5 98.78C958.149 103.49 959.858 104.624 963.5 106.28C963.5 106.28 966 107.28 967.5 106.28C975 103.78 999.5 93.7799 999.5 81.7799C1007.34 86.6583 1012 73.2798 1004 72.2798C1001 59.7798 1027 62.2798 1011 83.2799C1024.49 70.0311 1038.24 48.7387 1020.5 53.7799C1018 42.7798 1034.5 38.2799 1037.5 55.2799C1044 51.7798 1048 55.2799 1045 61.2799C1060.5 66.2798 1048 72.2798 1053.5 86.7798C1049.8 81.253 1047.54 78.5153 1041 78.2798C1030.25 78.5441 1024.22 78.7466 1014.5 88.7799C1041 76.7799 1063 97.2799 1078.5 120.28C1081 125.28 1091.5 126.28 1096.5 120.28C1092.88 130.953 1090.11 135.3 1076.5 123.78C1078.26 130.562 1079.85 134.69 1078.5 139.78C1091.57 144.426 1091 153.28 1089.5 164.78L1089.47 164.724C1085.02 155.717 1082.52 150.65 1076.5 153.28C1074.41 158.637 1074.57 161.086 1076.5 164.78C1073.7 164.446 1072.52 163.775 1071.5 161.28C1071.5 174.78 1057 180.78 1049 180.78C1060.44 176.263 1071.14 162.365 1067.5 156.78C1059.74 162.575 1055.01 164.581 1045 162.78C1036.62 163.125 1035.23 167.207 1033 174.78C1029.13 169.655 1027.83 166.75 1033 161.28C1023.4 158.263 1020.21 160.577 1016.5 168.28C1013.16 160.488 1013.52 156.735 1020.5 151.78C1014.36 140.93 1009.65 136.355 999.5 130.28C1003.72 129.033 1006.4 128.787 1012.5 130.28C1009.19 124.866 998.148 119.724 997.527 120.231C997.518 120.247 997.509 120.263 997.5 120.28C997.502 120.26 997.511 120.244 997.527 120.231C998.957 117.683 1004.52 117.621 1007.5 120.28C1009.5 110.78 998.6 106.28 1001 106.28C1007.5 105.28 1014.35 107.365 1016.5 113.28C1016.8 108.528 1017.65 106.43 1020.5 103.78C1022.58 100.685 1021.31 98.5657 1019 94.7798C1024.99 96.8189 1027.57 98.5721 1029.5 103.78C1034.11 101.239 1036.25 99.1866 1038.5 93.2798C1042 99.4725 1042.18 102.576 1038.5 107.28C1033.74 110.116 1032.32 112.667 1030.5 117.78C1029.26 129.538 1026.21 133.458 1021.5 141.28C1024.24 146.325 1026.29 148.013 1030.5 149.78C1029.68 145.499 1029.71 143.317 1030.5 139.78C1029.01 126.733 1032.81 126.335 1037 121.78C1045.83 121.34 1045.93 117.872 1047 112.28L1047.03 112.334C1048.81 115.745 1049.82 117.674 1049 121.78C1055.5 123.78 1057 131.855 1051.5 127.78C1046 123.704 1041 141.28 1051.5 143.28C1043.3 142.965 1042.29 144.225 1045 148.28C1056.43 157.968 1061.51 155.336 1068.5 138.28C1066.15 143.67 1064.53 145.933 1060 145.78C1065.85 139.046 1066.52 134.971 1067.5 127.78C1062.26 133.084 1058.78 134.764 1051.5 135.28C1065.45 127.518 1065.82 122.243 1062 112.28L1057 117.78C1062.5 100.725 1028.5 81.7799 1019 90.2798C1004.43 100.387 997.918 107.629 976 110.78C991 117.78 1008.5 139.78 999.5 149.78C962 183.28 963.5 121.78 976 143.28C970 144.78 976 154.28 980.5 148.28C980.5 148.28 993 137.28 983.5 126.28C974 115.28 948.154 108.285 942.5 130.28C938.473 122.947 939.68 118.682 948.5 110.78C918.5 116.28 905.298 123.628 915 139.78C923 148.78 927.64 132.132 918.5 135.28C930 114.78 946 156.78 916.5 149.78C903 146.78 900.5 136.28 906 125.28C885.5 130.28 849.955 149.517 794.5 109.28C784 102.78 782 110.78 794.5 120.28C776.847 114.436 776.372 105.377 779.5 86.7798C774.928 104.13 771.805 113.315 740.5 104.78C720 96.7798 713.935 90.0648 695 92.78C703.336 84.2608 708.794 80.7358 727.5 88.78C731.113 72.2372 736.644 77.14 745 79.7798C711.5 78.7798 756 126.78 776.5 90.2798C773.167 91.7798 766.756 96.6073 764.5 96.7798C767.5 90.2798 766 88.78 764.5 86.7798C777.868 87.2913 773.786 79.8648 769 68.2798C747 80.2798 750.5 37.7798 776.5 61.7798C781.712 46.9153 791.5 44.7798 799.5 52.7798C809.5 61.7798 791 66.2798 793.5 57.2798C784.372 62.2647 779.868 65.1182 793.5 72.2798C792.543 77.0912 790.941 79.0599 784 79.7798C789.899 98.5715 792.836 100.135 797.5 88.78C793.5 112.78 827.5 110.78 814.5 94.7798C828.352 97.0492 834.329 99.6453 833.5 112.78C836.298 101.86 839.297 100.384 846.5 103.78C839.711 130.045 885.375 125.121 882.5 123.28C876 122.28 863 104.78 850 104.78C853 102.78 855.434 101.226 863 102.78C858.781 84.9591 853.912 81.8714 842 85.2799C846.5 75.7798 862 78.7798 863.5 88.78C878 68.7799 898.5 85.7799 889 98.78Z" fill="black"/>
<path d="M882.5 92.78C875 96.2799 882.5 103.78 889 98.78C898.5 85.7799 878 68.7799 863.5 88.78C862 78.7798 846.5 75.7798 842 85.2799C853.912 81.8714 858.781 84.9591 863 102.78C855.434 101.226 853 102.78 850 104.78C863 104.78 876 122.28 882.5 123.28C885.375 125.121 839.711 130.045 846.5 103.78C839.297 100.384 836.298 101.86 833.5 112.78C834.329 99.6453 828.352 97.0492 814.5 94.7798C827.5 110.78 793.5 112.78 797.5 88.78C792.836 100.135 789.899 98.5715 784 79.7798C790.941 79.0599 792.543 77.0912 793.5 72.2798C779.868 65.1182 784.372 62.2647 793.5 57.2798C791 66.2798 809.5 61.7798 799.5 52.7798C791.5 44.7798 781.712 46.9153 776.5 61.7798C750.5 37.7798 747 80.2798 769 68.2798C773.786 79.8648 777.868 87.2913 764.5 86.7798C766 88.78 767.5 90.2798 764.5 96.7798C766.756 96.6073 773.167 91.7798 776.5 90.2798C756 126.78 711.5 78.7798 745 79.7798C736.644 77.14 731.113 72.2372 727.5 88.78C708.794 80.7358 703.336 84.2608 695 92.78C713.935 90.0648 720 96.7798 740.5 104.78C771.805 113.315 774.928 104.13 779.5 86.7798C776.372 105.377 776.847 114.436 794.5 120.28C782 110.78 784 102.78 794.5 109.28C849.955 149.517 885.5 130.28 906 125.28C900.5 136.28 903 146.78 916.5 149.78C946 156.78 930 114.78 918.5 135.28C927.64 132.132 923 148.78 915 139.78C905.298 123.628 918.5 116.28 948.5 110.78C939.68 118.682 938.473 122.947 942.5 130.28C948.154 108.285 974 115.28 983.5 126.28C993 137.28 980.5 148.28 980.5 148.28C976 154.28 970 144.78 976 143.28C963.5 121.78 962 183.28 999.5 149.78C1008.5 139.78 991 117.78 976 110.78C997.918 107.629 1004.43 100.387 1019 90.2798C1028.5 81.7799 1062.5 100.725 1057 117.78L1062 112.28C1065.82 122.243 1065.45 127.518 1051.5 135.28C1058.78 134.764 1062.26 133.084 1067.5 127.78C1066.52 134.971 1065.85 139.046 1060 145.78C1064.53 145.933 1066.15 143.67 1068.5 138.28C1061.51 155.336 1056.43 157.968 1045 148.28C1042.29 144.225 1043.3 142.965 1051.5 143.28C1041 141.28 1046 123.704 1051.5 127.78C1057 131.855 1055.5 123.78 1049 121.78C1049.83 117.652 1048.8 115.725 1047 112.28C1045.93 117.872 1045.83 121.34 1037 121.78C1032.81 126.335 1029.01 126.733 1030.5 139.78C1029.71 143.317 1029.68 145.499 1030.5 149.78C1026.29 148.013 1024.24 146.325 1021.5 141.28C1026.21 133.458 1029.26 129.538 1030.5 117.78C1032.32 112.667 1033.74 110.116 1038.5 107.28C1042.18 102.576 1042 99.4725 1038.5 93.2798C1036.25 99.1866 1034.11 101.239 1029.5 103.78C1027.57 98.5721 1024.99 96.8189 1019 94.7798C1021.31 98.5657 1022.58 100.685 1020.5 103.78C1017.65 106.43 1016.8 108.528 1016.5 113.28C1014.35 107.365 1007.5 105.28 1001 106.28C998.6 106.28 1009.5 110.78 1007.5 120.28C1004.5 117.604 998.886 117.683 997.5 120.28C997.589 119.466 1009.11 124.731 1012.5 130.28C1006.4 128.787 1003.72 129.033 999.5 130.28C1009.65 136.355 1014.36 140.93 1020.5 151.78C1013.52 156.735 1013.16 160.488 1016.5 168.28C1020.21 160.577 1023.4 158.263 1033 161.28C1027.83 166.75 1029.13 169.655 1033 174.78C1035.23 167.207 1036.62 163.125 1045 162.78C1055.01 164.581 1059.74 162.575 1067.5 156.78C1071.14 162.365 1060.44 176.263 1049 180.78C1057 180.78 1071.5 174.78 1071.5 161.28C1072.52 163.775 1073.7 164.446 1076.5 164.78C1074.57 161.086 1074.41 158.637 1076.5 153.28C1082.53 150.644 1085.03 155.738 1089.5 164.78C1091 153.28 1091.57 144.426 1078.5 139.78C1079.85 134.69 1078.26 130.562 1076.5 123.78C1090.11 135.3 1092.88 130.953 1096.5 120.28C1091.5 126.28 1081 125.28 1078.5 120.28C1063 97.2799 1041 76.7799 1014.5 88.7799C1024.22 78.7466 1030.25 78.5441 1041 78.2798C1047.54 78.5153 1049.8 81.253 1053.5 86.7798C1048 72.2798 1060.5 66.2798 1045 61.2799C1048 55.2799 1044 51.7798 1037.5 55.2799C1034.5 38.2799 1018 42.7798 1020.5 53.7799C1038.24 48.7387 1024.49 70.0311 1011 83.2799C1027 62.2798 1001 59.7798 1004 72.2798C1012 73.2798 1007.34 86.6583 999.5 81.7799C999.5 93.7799 975 103.78 967.5 106.28C966 107.28 963.5 106.28 963.5 106.28C959.858 104.624 958.149 103.49 959.5 98.78C960.76 91.8562 958.843 89.323 954.5 85.2799C947.486 87.6203 946.784 90.5512 951.5 98.78C936.781 89.6896 933.03 84.7935 942.5 76.7799C931 75.2798 922 84.2799 932 97.2799C924.092 88.513 918.077 86.4715 906 85.2799C912.091 98.1582 918.729 101.762 934.5 103.78C914.366 111.115 904.094 114.072 895.5 108.28C887.5 100.78 879.5 105.78 885.5 116.28C880.758 116.704 878.515 115.909 876 110.78L876.5 116.78C850.5 97.2799 881 74.2799 882.5 92.78Z" stroke="black" stroke-width="1.5"/>
<path d="M442.795 295.687C437.866 289.822 430.053 296.152 436.104 300.68C431.819 318.727 408.615 291.661 434.658 276.131L433.256 281.983C436.295 277.28 438.4 276.815 442.512 277.912C435.541 287.419 441.793 293.498 450.046 287.239C458.55 282.751 467.132 287.139 483.707 297.259C469.48 296.995 463.051 299.603 455.62 311.444C466.457 311.995 472.086 310.84 480.462 303.317C469.565 314.719 476.057 324.89 486.435 325.054C479.37 315.79 483.461 311.493 497.893 304.625C492.417 312.073 492.567 315.067 498.375 318.38C502.851 315.01 504.947 312.784 504.945 305.769C504.509 300.927 506.196 300.052 509.672 298.938C509.672 298.938 512.036 298.309 513.199 299.51C519.41 303.051 539.407 316.426 537.485 328.271C545.176 324.576 547.143 338.449 539.931 338.292C535.284 350.201 558.605 351.452 547.863 328.435C557.631 343.441 566.345 366.426 551.514 358.913C547.549 369.413 561.374 376.215 566.741 359.863C571.91 364.248 575.997 361.365 574.313 355.013C588.778 352.295 578.72 344.584 585.89 331.058C581.747 335.985 579.31 338.363 573.509 337.661C564.073 335.862 558.796 334.801 551.829 323.506C573.269 339.141 595.946 322.052 613.294 301.566C616.298 296.988 625.715 297.503 629.162 304.14C627.677 293.087 625.934 288.4 612.091 297.825C614.73 291.383 616.791 287.535 616.416 282.318C628.682 279.6 629.598 270.779 630.117 259.213L630.084 259.264C624.719 267.519 621.701 272.163 616.815 268.706C615.831 263.119 616.368 260.725 618.657 257.354C616.132 257.283 614.991 257.778 613.688 260.094C615.85 246.768 604.028 238.772 596.976 237.628C606.34 243.723 613.545 258.972 609.442 263.964C603.525 257.133 599.684 254.478 590.567 254.823C583.234 253.284 582.662 249.056 581.91 241.262C577.68 245.767 576.067 248.449 579.748 254.588C570.8 256.192 568.364 253.453 566.323 245.318C562.128 252.531 561.848 256.288 567.208 262.178C560.061 272.01 555.174 275.852 545.252 280.397C548.776 282.231 551.096 282.857 556.712 282.256C552.93 287.127 542.37 290.623 541.903 290.034C541.898 290.016 541.892 289.999 541.887 289.982C541.886 290.002 541.891 290.019 541.903 290.034C542.756 292.754 547.649 293.61 550.703 291.412C550.945 301.075 540.615 303.958 542.731 304.301C548.301 306.218 554.676 305.14 557.516 299.609C557.022 304.342 557.434 306.534 559.521 309.558C560.861 312.911 559.398 314.82 556.757 318.227C562.363 317.071 564.917 315.709 567.455 310.845C571.111 314.012 572.672 316.345 573.708 322.497C577.783 316.884 578.444 313.847 575.949 308.678C572.21 305.198 571.361 302.475 570.578 297.169C571.367 285.385 569.306 281.079 566.408 272.685C569.629 268.096 571.705 266.723 575.703 265.582C574.297 269.691 573.968 271.848 574.101 275.453C570.698 288.118 573.981 289.054 576.949 294.15C584.66 295.846 584.193 299.284 584.243 304.958L584.277 304.908C586.397 301.797 587.596 300.037 587.528 295.866C593.578 294.822 596.194 287.065 590.693 290.301C585.191 293.537 583.598 275.474 593.175 275.001C585.899 274.14 585.209 272.751 588.245 269.136C599.877 261.208 603.926 264.532 607.361 282.368C606.15 276.711 605.086 274.246 601.068 273.749C605.145 281.232 605.084 285.351 604.798 292.59C601.028 286.604 598.225 284.448 591.894 282.898C602.952 292.555 602.434 297.815 597.467 307.103L593.94 300.959C596.057 318.58 563.05 332.418 556.037 322.669C544.807 310.609 540.23 302.53 521.412 296.284C535.757 291.52 554.707 272.306 548.374 261.148C520.681 222.718 512.154 283.638 526.617 264.204C521.568 261.865 528.378 253.346 531.385 259.912C531.385 259.912 540.643 272.557 530.506 282.057C520.37 291.556 496.465 294.764 495.003 272.245C490.278 278.907 490.66 283.29 497.17 292.351C471.603 282.632 461.142 273.49 472.281 258.934C480.775 251.195 482.2 268.291 474.646 263.877C481.501 285.757 502.332 246.587 475.205 249.278C462.823 250.309 458.938 260.316 462.025 271.96C444.754 264.093 416.5 240.02 361.169 271.807C350.872 276.722 350.39 268.539 362.93 260.949C346.433 264.193 344.563 273.067 344.342 291.872C343.09 274.092 341.809 264.579 312.844 268.526C293.491 273.491 287.069 279.252 270.811 273.864C276.796 283.466 281.043 287.726 298.822 282.461C299.358 299.307 305.019 295.258 312.808 293.847C283.115 290.043 330.031 249.027 342.258 287.988C339.56 286.031 334.682 280.349 332.72 279.856C334.324 286.701 332.762 287.967 331.119 289.727C342.985 291.133 338.198 297.88 332.124 308.631C314.651 293.64 310.931 336.092 337.694 316.12C339.909 331.538 348.195 335.046 356.529 328.293C366.786 320.84 351.198 313.752 351.96 322.993C344.712 316.767 341.198 313.307 354.362 308.187C354.289 303.301 353.192 301.128 347.189 299.425C355.398 281.719 358.238 280.596 360.531 292.472C360.848 268.21 390.501 275.046 376.478 288.981C389.053 288.722 394.738 287.014 396.11 273.93C396.828 285.11 399.236 286.995 406.129 284.673C404.35 257.776 443.817 269.167 440.988 270.573C435.098 270.631 420.835 286.046 409.375 284.187C411.699 286.59 413.596 288.472 420.515 288.02C413.942 305.007 409.155 307.359 399.2 302.291C401.646 312.312 415.79 311.567 418.714 301.911C428.294 323.727 449.088 309.878 442.795 295.687Z" fill="black"/>
<path d="M436.104 300.68C430.053 296.152 437.866 289.822 442.795 295.687C449.088 309.878 428.294 323.727 418.714 301.911C415.79 311.567 401.646 312.312 399.2 302.291C409.155 307.359 413.942 305.007 420.515 288.02C413.596 288.472 411.699 286.59 409.375 284.187C420.835 286.046 435.098 270.631 440.988 270.573C443.817 269.167 404.35 257.776 406.129 284.673C399.236 286.995 396.828 285.11 396.11 273.93C394.738 287.014 389.053 288.722 376.478 288.981C390.501 275.046 360.848 268.21 360.531 292.472C358.238 280.596 355.398 281.719 347.189 299.425C353.192 301.128 354.289 303.301 354.362 308.187C341.198 313.307 344.712 316.767 351.96 322.993C351.198 313.752 366.786 320.84 356.529 328.293C348.195 335.046 339.909 331.538 337.694 316.12C310.931 336.092 314.651 293.64 332.124 308.631C338.198 297.88 342.985 291.133 331.119 289.727C332.762 287.967 334.324 286.701 332.72 279.856C334.682 280.349 339.56 286.031 342.258 287.988C330.031 249.027 283.115 290.043 312.808 293.847C305.019 295.258 299.358 299.307 298.822 282.461C281.043 287.726 276.796 283.466 270.811 273.864C287.069 279.252 293.491 273.491 312.844 268.526C341.809 264.579 343.09 274.092 344.342 291.872C344.563 273.067 346.433 264.193 362.93 260.949C350.39 268.539 350.872 276.722 361.169 271.807C416.5 240.02 444.754 264.093 462.025 271.96C458.938 260.316 462.823 250.309 475.205 249.278C502.332 246.587 481.501 285.757 474.646 263.877C482.2 268.291 480.775 251.195 472.281 258.934C461.142 273.49 471.603 282.632 497.17 292.351C490.66 283.29 490.278 278.907 495.003 272.245C496.465 294.764 520.37 291.556 530.506 282.057C540.643 272.557 531.385 259.912 531.385 259.912C528.378 253.346 521.568 261.865 526.617 264.204C512.154 283.638 520.681 222.718 548.374 261.148C554.707 272.306 535.757 291.52 521.412 296.284C540.23 302.53 544.807 310.609 556.037 322.669C563.05 332.418 596.057 318.58 593.94 300.959L597.467 307.103C602.434 297.815 602.952 292.555 591.894 282.898C598.225 284.448 601.028 286.604 604.798 292.59C605.084 285.351 605.145 281.232 601.068 273.749C605.086 274.246 606.15 276.711 607.361 282.368C603.926 264.532 599.877 261.208 588.245 269.136C585.209 272.751 585.899 274.14 593.175 275.001C583.598 275.474 585.191 293.537 590.693 290.301C596.194 287.065 593.578 294.822 587.528 295.866C587.596 300.059 586.384 301.815 584.243 304.958C584.193 299.284 584.66 295.846 576.949 294.15C573.981 289.054 570.698 288.118 574.101 275.453C573.968 271.848 574.297 269.691 575.703 265.582C571.705 266.723 569.629 268.096 566.408 272.685C569.306 281.079 571.367 285.385 570.578 297.169C571.361 302.475 572.21 305.198 575.949 308.678C578.444 313.847 577.783 316.884 573.708 322.497C572.672 316.345 571.111 314.012 567.455 310.845C564.917 315.709 562.363 317.071 556.757 318.227C559.398 314.82 560.861 312.911 559.521 309.558C557.434 306.534 557.022 304.342 557.516 299.609C554.676 305.14 548.301 306.218 542.731 304.301C540.615 303.958 550.945 301.075 550.703 291.412C547.629 293.624 542.693 292.743 541.887 289.982C541.835 290.798 552.835 287.249 556.712 282.256C551.096 282.857 548.776 282.231 545.252 280.397C555.174 275.852 560.061 272.01 567.208 262.178C561.848 256.288 562.128 252.531 566.323 245.318C568.364 253.453 570.8 256.192 579.748 254.588C576.067 248.449 577.68 245.767 581.91 241.262C582.662 249.056 583.234 253.284 590.567 254.823C599.684 254.478 603.525 257.133 609.442 263.964C613.545 258.972 606.34 243.723 596.976 237.628C604.028 238.772 615.85 246.768 613.688 260.094C614.991 257.778 616.132 257.283 618.657 257.354C616.368 260.725 615.831 263.119 616.815 268.706C621.711 272.17 624.731 267.5 630.117 259.213C629.598 270.779 628.682 279.6 616.416 282.318C616.791 287.535 614.73 291.383 612.091 297.825C625.934 288.4 627.677 293.087 629.162 304.14C625.715 297.503 616.298 296.988 613.294 301.566C595.946 322.052 573.269 339.141 551.829 323.506C558.796 334.801 564.073 335.862 573.509 337.661C579.31 338.363 581.747 335.985 585.89 331.058C578.72 344.584 588.778 352.295 574.313 355.013C575.997 361.365 571.91 364.248 566.741 359.863C561.374 376.215 547.549 369.413 551.514 358.913C566.345 366.426 557.631 343.441 547.863 328.435C558.605 351.452 535.284 350.201 539.931 338.292C547.143 338.449 545.176 324.576 537.485 328.271C539.407 316.426 519.41 303.051 513.199 299.51C512.036 298.309 509.672 298.938 509.672 298.938C506.196 300.052 504.509 300.927 504.945 305.769C504.947 312.784 502.851 315.01 498.375 318.38C492.567 315.067 492.417 312.073 497.893 304.625C483.461 311.493 479.37 315.79 486.435 325.054C476.057 324.89 469.565 314.719 480.462 303.317C472.086 310.84 466.457 311.995 455.62 311.444C463.051 299.603 469.48 296.995 483.707 297.259C467.132 287.139 458.55 282.751 450.046 287.239C441.793 293.498 435.541 287.419 442.512 277.912C438.4 276.815 436.295 277.28 433.256 281.983L434.658 276.131C408.615 291.661 431.819 318.727 436.104 300.68Z" stroke="black" stroke-width="1.5"/>
<path d="M434.104 299.68C428.053 295.152 435.866 288.822 440.795 294.687C447.088 308.878 426.294 322.727 416.714 300.911C413.79 310.567 399.646 311.312 397.2 301.291C407.155 306.359 411.942 304.007 418.515 287.02C411.596 287.472 409.699 285.59 407.375 283.187C418.835 285.046 433.098 269.631 438.988 269.573C441.817 268.167 402.35 256.776 404.129 283.673C397.236 285.995 394.828 284.11 394.11 272.93C392.738 286.014 387.053 287.722 374.478 287.981C388.501 274.046 358.848 267.21 358.531 291.472C356.238 279.596 353.398 280.719 345.189 298.425C351.192 300.128 352.289 302.301 352.362 307.187C339.198 312.307 342.712 315.767 349.96 321.993C349.198 312.752 364.786 319.84 354.529 327.293C346.195 334.046 337.909 330.538 335.694 315.12C308.931 335.092 312.651 292.64 330.124 307.631C336.198 296.88 340.985 290.133 329.119 288.727C330.762 286.967 332.324 285.701 330.72 278.856C332.682 279.349 337.56 285.031 340.258 286.988C328.031 248.027 281.115 289.043 310.808 292.847C303.019 294.258 297.358 298.307 296.822 281.461C279.043 286.726 274.796 282.466 268.811 272.864C285.069 278.252 291.491 272.491 310.844 267.526C339.809 263.579 341.09 273.092 342.342 290.872C342.563 272.067 344.433 263.193 360.93 259.949C348.39 267.539 348.872 275.722 359.169 270.807C414.5 239.02 442.754 263.093 460.025 270.96C456.938 259.316 460.823 249.309 473.205 248.278C500.332 245.587 479.501 284.757 472.646 262.877C480.2 267.291 478.775 250.195 470.281 257.934C459.142 272.49 469.603 281.632 495.17 291.351C488.66 282.29 488.278 277.907 493.003 271.245C494.465 293.764 518.37 290.556 528.506 281.057C538.643 271.557 529.385 258.912 529.385 258.912C526.378 252.346 519.568 260.865 524.617 263.204C510.154 282.638 518.681 221.718 546.374 260.148C552.707 271.306 533.757 290.52 519.412 295.284C538.23 301.53 542.807 309.609 554.037 321.669C561.05 331.418 594.057 317.58 591.94 299.959L595.467 306.103C600.434 296.815 600.952 291.555 589.894 281.898C596.225 283.448 599.028 285.604 602.798 291.59C603.084 284.351 603.145 280.232 599.068 272.749C603.086 273.246 604.15 275.711 605.361 281.368C601.926 263.532 597.877 260.208 586.245 268.136C583.209 271.751 583.899 273.14 591.175 274.001C581.598 274.474 583.191 292.537 588.693 289.301C594.194 286.065 591.578 293.822 585.528 294.866C585.596 299.059 584.384 300.815 582.243 303.958C582.193 298.284 582.66 294.846 574.949 293.15C571.981 288.054 568.698 287.118 572.101 274.453C571.968 270.848 572.297 268.691 573.703 264.582C569.705 265.723 567.629 267.096 564.408 271.685C567.306 280.079 569.367 284.385 568.578 296.169C569.361 301.475 570.21 304.198 573.949 307.678C576.444 312.847 575.783 315.884 571.708 321.497C570.672 315.345 569.111 313.012 565.455 309.845C562.917 314.709 560.363 316.071 554.757 317.227C557.398 313.82 558.861 311.911 557.521 308.558C555.434 305.534 555.022 303.342 555.516 298.609C552.676 304.14 546.301 305.218 540.731 303.301C538.615 302.958 548.945 300.075 548.703 290.412C545.629 292.624 540.693 291.743 539.887 288.982C539.835 289.798 550.835 286.249 554.712 281.256C549.096 281.857 546.776 281.231 543.252 279.397C553.174 274.852 558.061 271.01 565.208 261.178C559.848 255.288 560.128 251.531 564.323 244.318C566.364 252.453 568.8 255.192 577.748 253.588C574.067 247.449 575.68 244.767 579.91 240.262C580.662 248.056 581.234 252.284 588.567 253.823C597.684 253.478 601.525 256.133 607.442 262.964C611.545 257.972 604.34 242.723 594.976 236.628C602.028 237.772 613.85 245.768 611.688 259.094C612.991 256.778 614.132 256.283 616.657 256.354C614.368 259.725 613.831 262.119 614.815 267.706C619.711 271.17 622.731 266.5 628.117 258.213C627.598 269.779 626.682 278.6 614.416 281.318C614.791 286.535 612.73 290.383 610.091 296.825C623.934 287.4 625.677 292.087 627.162 303.14C623.715 296.503 614.298 295.988 611.294 300.566C593.946 321.052 571.269 338.141 549.829 322.506C556.796 333.801 562.073 334.862 571.509 336.661C577.31 337.363 579.747 334.985 583.89 330.058C576.72 343.584 586.778 351.295 572.313 354.013C573.997 360.365 569.91 363.248 564.741 358.863C559.374 375.215 545.549 368.413 549.514 357.913C564.345 365.426 555.631 342.441 545.863 327.435C556.605 350.452 533.284 349.201 537.931 337.292C545.143 337.449 543.176 323.576 535.485 327.271C537.407 315.426 517.41 302.051 511.199 298.51C510.036 297.309 507.672 297.938 507.672 297.938C504.196 299.052 502.509 299.927 502.945 304.769C502.947 311.784 500.851 314.01 496.375 317.38C490.567 314.067 490.417 311.073 495.893 303.625C481.461 310.493 477.37 314.79 484.435 324.054C474.057 323.89 467.565 313.719 478.462 302.317C470.086 309.84 464.457 310.995 453.62 310.444C461.051 298.603 467.48 295.995 481.707 296.259C465.132 286.139 456.55 281.751 448.046 286.239C439.793 292.498 433.541 286.419 440.512 276.912C436.4 275.815 434.295 276.28 431.256 280.983L432.658 275.131C406.615 290.661 429.819 317.727 434.104 299.68Z" stroke="white" stroke-width="1.5"/>
<path d="M997.581 313.843C997.842 316.956 998.218 318.463 999.423 320.596M997.581 313.843C990.526 301.774 983.807 301.347 973.677 304.11M997.581 313.843C995.425 301.209 983.286 296.115 974.993 297.533M967.235 307.091C966.34 301.657 969.958 298.395 974.993 297.533M967.235 307.091C967.94 308.09 968.732 308.907 969.571 309.563M967.235 307.091L964.822 302.048C960.087 313.187 950.066 318.248 942.323 312.663C935.438 308.324 941.8 303.146 947.939 306.654C938.073 310.382 956.316 318.362 957.322 301.503M973.33 308.538C970.982 306.897 971.384 304.575 973.677 304.11M973.677 304.11C974.51 303.941 975.592 304.017 976.882 304.459C981.076 306.274 981.908 308.346 980.938 309.826M974.993 297.533C967.979 290.822 951.798 294.199 950.483 300.777C949.116 305.636 954.847 306.617 957.322 301.503M958.201 298.672C958.012 299.768 957.706 300.709 957.322 301.503M980.938 309.826L990.9 325.119C981.866 320.244 974.777 313.343 969.571 309.563M980.938 309.826C979.472 312.061 973.896 312.947 969.571 309.563" stroke="white" stroke-width="1.5"/>
<path d="M217.499 304.843C217.238 307.956 216.863 309.463 215.657 311.596M217.499 304.843C224.555 292.774 231.273 292.347 241.403 295.11M217.499 304.843C219.655 292.209 231.794 287.115 240.087 288.533M247.845 298.091C248.74 292.657 245.123 289.395 240.087 288.533M247.845 298.091C247.14 299.09 246.348 299.907 245.509 300.563M247.845 298.091L250.258 293.048C254.993 304.187 265.015 309.248 272.757 303.663C279.642 299.324 273.28 294.146 267.141 297.654C277.007 301.382 258.764 309.362 257.758 292.503M241.75 299.538C244.098 297.897 243.696 295.575 241.403 295.11M241.403 295.11C240.57 294.941 239.488 295.017 238.198 295.459C234.004 297.274 233.172 299.346 234.143 300.826M240.087 288.533C247.101 281.822 263.282 285.199 264.598 291.777C265.964 296.636 260.233 297.617 257.758 292.503M256.88 289.672C257.068 290.768 257.374 291.709 257.758 292.503M234.143 300.826L224.18 316.119C233.214 311.244 240.304 304.343 245.509 300.563M234.143 300.826C235.608 303.061 241.184 303.947 245.509 300.563" stroke="white" stroke-width="1.5"/>
<path d="M261.813 131.67C263.168 131.514 264.178 131.117 264.856 130.606C256.902 137.46 250.654 139.965 239.091 132.108C246.474 142.584 259.624 141.958 266.499 137.108C275.719 140.149 288.871 130.136 287.228 123.632C286.37 118.658 280.774 120.239 280.742 125.921C274.394 110.27 294.296 109.622 286.994 117.233C294.046 117.757 297.56 110.346 289.478 109.392C280.085 107.683 273.217 116.564 273.737 128.656L269.389 125.142C268.322 124.544 267.256 124.148 266.216 123.916C265.991 123.866 265.767 123.824 265.545 123.789C259.267 122.571 250.606 120.189 240.71 119.694L255.843 128.571C255.604 130.325 257.247 131.836 261.813 131.67Z" fill="black"/>
<path d="M214.564 119.694C222.564 126.805 228.307 125.726 226.567 133.659C216.612 125.461 217.312 146.107 226.335 140.284M222.564 119.694C230.307 127.459 234.13 131.26 230.641 136.089C229.045 138.116 227.607 139.463 226.335 140.284M226.335 140.284C232.349 146.497 240.42 142.843 239.091 132.108M239.091 132.108C237.515 129.41 236.528 128.211 234.522 126.805M239.091 132.108C250.654 139.965 256.902 137.46 264.856 130.606M239.091 132.108C246.474 142.584 259.624 141.958 266.499 137.108M269.389 125.142C272.535 129.662 270.674 134.164 266.499 137.108M269.389 125.142C268.322 124.544 267.256 124.148 266.216 123.916M269.389 125.142L273.737 128.656C273.217 116.564 280.085 107.683 289.478 109.392C297.56 110.346 294.046 117.757 286.994 117.233C294.296 109.622 274.394 110.27 280.742 125.921M263.264 126.46C266.09 126.93 266.727 129.199 264.856 130.606M264.856 130.606C264.178 131.117 263.168 131.514 261.813 131.67C257.247 131.836 255.604 130.325 255.843 128.571M266.499 137.108C275.719 140.149 288.871 130.136 287.228 123.632C286.37 118.658 280.774 120.239 280.742 125.921M281.167 128.854C280.866 127.784 280.737 126.803 280.742 125.921M255.843 128.571L240.71 119.694C250.963 120.207 259.891 122.745 266.216 123.916M255.843 128.571C256.204 125.923 260.856 122.724 266.216 123.916" stroke="black" stroke-width="1.5"/>
<path d="M239.969 130.955C238.424 128.167 237.448 126.917 235.448 125.42M239.969 130.955C251.499 139.335 257.84 137.031 265.973 130.39M239.969 130.955C247.242 141.83 260.511 141.684 267.523 137.031M270.633 125.029C273.731 129.719 271.781 134.206 267.523 137.031M270.633 125.029C269.567 124.384 268.498 123.943 267.453 123.671M270.633 125.029L274.959 128.746C274.634 116.489 281.704 107.756 291.147 109.834C299.28 111.099 295.616 118.469 288.514 117.677C296.001 110.245 275.923 110.163 282.067 126.237M264.436 126.135C267.277 126.715 267.882 129.035 265.973 130.39M265.973 130.39C265.28 130.881 264.256 131.246 262.887 131.354C258.28 131.353 256.648 129.762 256.918 127.996M267.523 137.031C276.77 140.449 290.196 130.804 288.645 124.161C287.861 119.096 282.193 120.488 282.067 126.237M282.448 129.221C282.162 128.127 282.048 127.129 282.067 126.237M256.918 127.996L241.37 117.789C251.7 118.688 261.095 122.251 267.453 123.671M256.918 127.996C257.326 125.33 262.068 122.265 267.453 123.671" stroke="white" stroke-width="1.5"/>
<path d="M1066.65 296.94C1060.32 297.608 1061.95 314.088 1073.72 309.102C1082.67 335.636 1047.5 378.466 1072 405C1077.18 409.342 1079.08 410.596 1081.5 410C1057.55 397.246 1066 368 1073.72 345M1066.65 296.94C1067.67 296.832 1068.9 297.136 1070.33 298.007C1083.08 307.905 1078.68 326.298 1073.72 345M1066.65 296.94C1065.14 290.288 1074.39 283.19 1083.61 301.384C1075.65 287.028 1068.56 275.658 1075.51 280.157C1069.77 271.241 1069.68 266.135 1070.33 257C1073.72 270.026 1087.38 277.262 1083.61 286.911C1092.47 273.885 1094.83 299.936 1085.97 313.927C1091.53 302.831 1097.19 305.725 1093.89 313.927M1093.89 313.927C1105.2 307.173 1123.1 309.102 1116.98 324.54C1116.98 314.38 1102.37 317.786 1107.08 324.54C1113.52 328.806 1118.13 328.327 1120.75 325.793M1093.89 313.927C1101.05 309.198 1106.84 307.423 1111.32 307.482M1073.72 345C1089.26 319.79 1106.69 311.997 1117.52 315.374M1111.32 307.482C1123.24 307.638 1125.93 320.763 1120.75 325.793M1111.32 307.482C1133 305.243 1135.35 332.259 1120.75 325.793" stroke="white" stroke-width="1.5"/>
<path d="M150 190.5L119 203.5C99.5 315.5 26.5 308 23 264C33 315 105.5 287.5 116 199.5L150 184V190.5Z" fill="black"/>
<path d="M182.32 404C183.657 406.158 186.752 407.006 189.32 406.388M193.32 401.5C193.32 404.263 191.512 405.86 189.32 406.388M189.32 406.388C182.84 404.683 182.32 395 191.82 396C195.82 397 200.694 407.688 188.32 409.5C188.32 415 177.82 416 173.32 409.5C170.32 416.5 160.32 411.5 164.32 405.5C171.82 396 154.32 396 156.82 409.5C156.32 418.5 166.82 433 171.32 422C178.82 426.5 176.82 431.5 168.32 431.5C182.32 435 189.32 446.5 178.82 455L168.32 440.5C160.2 444.176 158.964 439.308 156.82 430.5C156.945 447.995 154.391 454.168 146.82 461" stroke="black" stroke-width="1.5"/>
<path d="M1015 405C1013.66 407.158 1010.47 408.078 1007.9 407.46M1003.9 402.572C1003.9 405.336 1005.71 406.932 1007.9 407.46M1007.9 407.46C1014.38 405.756 1014.9 396.072 1005.4 397.072C1001.4 398.072 996.527 408.76 1008.9 410.572C1008.9 416.072 1019.4 417.072 1023.9 410.572C1026.9 417.572 1036.9 412.572 1032.9 406.572C1025.4 397.072 1042.9 397.072 1040.4 410.572C1040.9 419.572 1030.4 434.072 1025.9 423.072C1018.4 427.572 1020.4 432.572 1028.9 432.572C1014.9 436.072 1007.9 447.572 1018.4 456.072L1028.9 441.572C1037.02 445.248 1038.26 440.38 1040.4 431.572C1040.28 449.067 1042.83 455.241 1050.4 462.072" stroke="black" stroke-width="1.5"/>
<path d="M665.3 107.298C663.95 107.493 662.952 107.92 662.289 108.45C670.04 101.367 676.213 98.6807 687.999 106.197C680.314 95.9417 667.188 96.9501 660.457 101.998C651.153 99.228 638.298 109.62 640.13 116.073C641.133 121.02 646.68 119.276 646.547 113.596C653.348 129.056 633.473 130.283 640.55 122.462C633.486 122.144 630.19 129.655 638.296 130.373C647.734 131.807 654.34 122.73 653.469 110.658L657.917 114.043C659.001 114.61 660.079 114.975 661.125 115.176C661.351 115.22 661.576 115.255 661.799 115.284C668.11 116.319 676.837 118.447 686.743 118.653L671.358 110.222C671.546 108.462 669.859 106.998 665.3 107.298Z" fill="black"/>
<path d="M713.5 118.653C701.809 111.186 698.965 112.263 700.473 104.282C710.663 112.186 709.361 91.57 700.511 97.6533M704 118.653C696.035 111.117 692.983 106.901 696.33 101.972C697.866 99.8989 699.264 98.5108 700.511 97.6533M700.511 97.6533C694.319 91.6181 686.358 95.5061 687.999 106.197M687.999 106.197C689.653 108.849 690.675 110.018 692.721 111.365M687.999 106.197C676.213 98.6807 670.04 101.367 662.289 108.45M687.999 106.197C680.314 95.9417 667.188 96.9501 660.457 101.998M657.917 114.043C654.641 109.617 656.37 105.063 660.457 101.998M657.917 114.043C659.001 114.61 660.079 114.975 661.125 115.176M657.917 114.043L653.469 110.658C654.34 122.73 647.734 131.807 638.296 130.373C630.19 129.655 633.486 122.144 640.55 122.462C633.473 130.283 653.348 129.056 646.547 113.596M664.001 112.548C661.163 112.16 660.46 109.911 662.289 108.45M662.289 108.45C662.952 107.92 663.95 107.493 665.3 107.298C669.859 106.998 671.546 108.462 671.358 110.222M660.457 101.998C651.153 99.228 638.298 109.62 640.13 116.073C641.133 121.02 646.68 119.276 646.547 113.596M646.036 110.676C646.369 111.738 646.526 112.714 646.547 113.596M671.358 110.222L686.743 118.653C676.479 118.439 667.481 116.163 661.125 115.176M671.358 110.222C671.074 112.879 666.517 116.212 661.125 115.176" stroke="black" stroke-width="1.5"/>
<path d="M881.5 95.78C874 99.2799 881.5 106.78 888 101.78C897.5 88.7799 877 71.7799 862.5 91.78C861 81.7798 845.5 78.7798 841 88.2799C852.912 84.8714 857.781 87.9591 862 105.78C854.434 104.226 852 105.78 849 107.78C862 107.78 875 125.28 881.5 126.28C884.375 128.121 838.711 133.045 845.5 106.78C838.297 103.384 835.298 104.86 832.5 115.78C833.329 102.645 827.352 100.049 813.5 97.7798C826.5 113.78 792.5 115.78 796.5 91.78C791.836 103.135 788.899 101.572 783 82.7798C789.941 82.0599 791.543 80.0912 792.5 75.2798C778.868 68.1182 783.372 65.2647 792.5 60.2798C790 69.2798 808.5 64.7798 798.5 55.7798C790.5 47.7798 780.712 49.9153 775.5 64.7798C749.5 40.7798 746 83.2798 768 71.2798C772.786 82.8648 776.868 90.2913 763.5 89.7798C765 91.78 766.5 93.2798 763.5 99.7798C765.756 99.6073 772.167 94.7798 775.5 93.2798C755 129.78 710.5 81.7798 744 82.7798C735.644 80.14 730.113 75.2372 726.5 91.78C707.794 83.7358 702.336 87.2608 694 95.78C712.935 93.0648 719 99.7798 739.5 107.78C770.805 116.315 773.928 107.13 778.5 89.7798C775.372 108.377 775.847 117.436 793.5 123.28C781 113.78 783 105.78 793.5 112.28C848.955 152.517 884.5 133.28 905 128.28C899.5 139.28 902 149.78 915.5 152.78C945 159.78 929 117.78 917.5 138.28C926.64 135.132 922 151.78 914 142.78C904.298 126.628 917.5 119.28 947.5 113.78C938.68 121.682 937.473 125.947 941.5 133.28C947.154 111.285 973 118.28 982.5 129.28C992 140.28 979.5 151.28 979.5 151.28C975 157.28 969 147.78 975 146.28C962.5 124.78 961 186.28 998.5 152.78C1007.5 142.78 990 120.78 975 113.78C996.918 110.629 1003.43 103.387 1018 93.2798C1027.5 84.7799 1061.5 103.725 1056 120.78L1061 115.28C1064.82 125.243 1064.45 130.518 1050.5 138.28C1057.78 137.764 1061.26 136.084 1066.5 130.78C1065.52 137.971 1064.85 142.046 1059 148.78C1063.53 148.933 1065.15 146.67 1067.5 141.28C1060.51 158.336 1055.43 160.968 1044 151.28C1041.29 147.225 1042.3 145.965 1050.5 146.28C1040 144.28 1045 126.704 1050.5 130.78C1056 134.855 1054.5 126.78 1048 124.78C1048.83 120.652 1047.8 118.725 1046 115.28C1044.93 120.872 1044.83 124.34 1036 124.78C1031.81 129.335 1028.01 129.733 1029.5 142.78C1028.71 146.317 1028.68 148.499 1029.5 152.78C1025.29 151.013 1023.24 149.325 1020.5 144.28C1025.21 136.458 1028.26 132.538 1029.5 120.78C1031.32 115.667 1032.74 113.116 1037.5 110.28C1041.18 105.576 1041 102.473 1037.5 96.2798C1035.25 102.187 1033.11 104.239 1028.5 106.78C1026.57 101.572 1023.99 99.8189 1018 97.7798C1020.31 101.566 1021.58 103.685 1019.5 106.78C1016.65 109.43 1015.8 111.528 1015.5 116.28C1013.35 110.365 1006.5 108.28 1000 109.28C997.6 109.28 1008.5 113.78 1006.5 123.28C1003.5 120.604 997.886 120.683 996.5 123.28C996.589 122.466 1008.11 127.731 1011.5 133.28C1005.4 131.787 1002.72 132.033 998.5 133.28C1008.65 139.355 1013.36 143.93 1019.5 154.78C1012.52 159.735 1012.16 163.488 1015.5 171.28C1019.21 163.577 1022.4 161.263 1032 164.28C1026.83 169.75 1028.13 172.655 1032 177.78C1034.23 170.207 1035.62 166.125 1044 165.78C1054.01 167.581 1058.74 165.575 1066.5 159.78C1070.14 165.365 1059.44 179.263 1048 183.78C1056 183.78 1070.5 177.78 1070.5 164.28C1071.52 166.775 1072.7 167.446 1075.5 167.78C1073.57 164.086 1073.41 161.637 1075.5 156.28C1081.53 153.644 1084.03 158.738 1088.5 167.78C1090 156.28 1090.57 147.426 1077.5 142.78C1078.85 137.69 1077.26 133.562 1075.5 126.78C1089.11 138.3 1091.88 133.953 1095.5 123.28C1090.5 129.28 1080 128.28 1077.5 123.28C1062 100.28 1040 79.7799 1013.5 91.7799C1023.22 81.7466 1029.25 81.5441 1040 81.2798C1046.54 81.5153 1048.8 84.253 1052.5 89.7798C1047 75.2798 1059.5 69.2798 1044 64.2799C1047 58.2799 1043 54.7798 1036.5 58.2799C1033.5 41.2799 1017 45.7798 1019.5 56.7799C1037.24 51.7387 1023.49 73.0311 1010 86.2799C1026 65.2798 1000 62.7798 1003 75.2798C1011 76.2798 1006.34 89.6583 998.5 84.7799C998.5 96.7799 974 106.78 966.5 109.28C965 110.28 962.5 109.28 962.5 109.28C958.858 107.624 957.149 106.49 958.5 101.78C959.76 94.8562 957.843 92.323 953.5 88.2799C946.486 90.6203 945.784 93.5512 950.5 101.78C935.781 92.6896 932.03 87.7935 941.5 79.7799C930 78.2798 921 87.2799 931 100.28C923.092 91.513 917.077 89.4715 905 88.2799C911.091 101.158 917.729 104.762 933.5 106.78C913.366 114.115 903.094 117.072 894.5 111.28C886.5 103.78 878.5 108.78 884.5 119.28C879.758 119.704 877.515 118.909 875 113.78L875.5 119.78C849.5 100.28 880 77.2799 881.5 95.78Z" stroke="white" stroke-width="1.5"/>
<path d="M692.58 109.777C693.86 112.627 694.715 113.924 696.56 115.535M692.58 109.777C681.918 100.735 675.439 102.563 666.801 108.533M692.58 109.777C686.352 98.576 673.21 97.8008 665.858 101.892M661.714 113.484C659.065 108.655 661.395 104.377 665.858 101.892M661.714 113.484C662.711 114.192 663.729 114.699 664.739 115.04M661.714 113.484L657.764 109.528C656.995 121.607 649.223 129.708 640.065 127.011C632.13 125.203 636.412 118.207 643.368 119.478C635.298 126.27 655.156 127.74 650.508 111.504M667.944 112.825C665.184 112.057 664.792 109.733 666.801 108.533M666.801 108.533C667.53 108.097 668.576 107.809 669.94 107.798C674.498 108.118 675.971 109.796 675.547 111.514M665.858 101.892C657.014 97.89 642.872 106.449 643.815 113.09C644.14 118.127 649.872 117.15 650.508 111.504M650.397 108.542C650.583 109.638 650.607 110.627 650.508 111.504M675.547 111.514L690.022 122.631C679.882 121.032 670.903 116.877 664.739 115.04M675.547 111.514C674.907 114.109 669.942 116.795 664.739 115.04" stroke="white" stroke-width="1.5"/>
</svg>
