<svg width="327" height="64" viewBox="0 0 327 64" fill="none" xmlns="http://www.w3.org/2000/svg">
<g filter="url(#filter0_d_322_3)">
<path d="M322 1H5V55.5H322V1Z" fill="white"/>
<path d="M322 1H5V55.5H322V1Z" stroke="black"/>
</g>
<g filter="url(#filter1_d_322_3)">
<path d="M124.361 38.3516C122.615 38.3516 121.742 37.4551 121.742 35.6621C121.742 35.2637 121.836 34.7012 122.023 33.9746L124.906 23.1289C125.047 22.5547 125.117 22.0859 125.117 21.7227C125.117 21.3945 125.053 21.166 124.924 21.0371C124.795 20.8965 124.584 20.8262 124.291 20.8262C123.729 20.8262 123.113 21.2188 122.445 22.0039C121.789 22.7773 121.35 23.5977 121.127 24.4648C121.021 25.0391 120.781 25.3262 120.406 25.3262C120.23 25.3262 120.084 25.2676 119.967 25.1504C119.85 25.0215 119.791 24.8516 119.791 24.6406C119.791 23.7148 120.125 22.7656 120.793 21.793C121.309 21.0078 121.947 20.3633 122.709 19.8594C123.471 19.3555 124.273 19.1035 125.117 19.1035C126.922 19.1035 127.824 19.9883 127.824 21.7578C127.824 22.1562 127.713 22.7246 127.49 23.4629L124.572 34.3965C124.455 34.9238 124.396 35.3809 124.396 35.7676C124.396 36.3418 124.648 36.6289 125.152 36.6289C125.738 36.6289 126.359 36.2422 127.016 35.4688C127.684 34.6836 128.129 33.8574 128.352 32.9902C128.469 32.416 128.709 32.1289 129.072 32.1289C129.248 32.1289 129.395 32.1992 129.512 32.3398C129.629 32.4688 129.688 32.6387 129.688 32.8496C129.688 33.7285 129.354 34.666 128.686 35.6621C128.182 36.459 127.543 37.1094 126.77 37.6133C126.008 38.1055 125.205 38.3516 124.361 38.3516ZM127.209 15.7461C126.764 15.7461 126.4 15.6055 126.119 15.3242C125.838 15.043 125.697 14.7031 125.697 14.3047C125.697 13.6484 125.92 13.1094 126.365 12.6875C126.822 12.2539 127.367 12.0371 128 12.0371C128.445 12.0371 128.814 12.166 129.107 12.4238C129.4 12.6816 129.547 13.0098 129.547 13.4082C129.547 14.0879 129.324 14.6504 128.879 15.0957C128.434 15.5293 127.877 15.7461 127.209 15.7461ZM139.76 17.5566L139.268 19.5605L144.383 19.4199C144.582 19.4199 144.746 19.4961 144.875 19.6484C145.004 19.7891 145.068 19.9766 145.068 20.2109C145.068 20.5508 144.963 20.8262 144.752 21.0371C144.541 21.2363 144.307 21.3359 144.049 21.3359L138.969 21.1953L135.91 33.5703C135.723 34.2734 135.629 34.8711 135.629 35.3633C135.629 36.1836 136.086 36.5938 137 36.5938C137.879 36.5938 138.711 36.2129 139.496 35.4512C140.293 34.6895 140.838 33.752 141.131 32.6387C141.248 32.0645 141.477 31.7773 141.816 31.7773C142.227 31.7773 142.432 32.0293 142.432 32.5332C142.432 33.4121 142.062 34.4199 141.324 35.5566C140.727 36.4238 140 37.127 139.145 37.666C138.289 38.2051 137.357 38.4746 136.35 38.4746C135.248 38.4746 134.404 38.2051 133.818 37.666C133.244 37.1152 132.957 36.3652 132.957 35.416C132.957 34.8652 133.068 34.1562 133.291 33.2891L136.279 21.1953L134.223 21.3359C134.023 21.3359 133.859 21.2598 133.73 21.1074C133.602 20.9551 133.537 20.7676 133.537 20.5449C133.537 20.1934 133.637 19.918 133.836 19.7188C134.035 19.5195 134.275 19.4199 134.557 19.4199L136.666 19.5605L137.352 16.8359C137.516 16.2852 137.984 16.0098 138.758 16.0098H139.057C139.385 16.0098 139.607 16.0684 139.725 16.1855C139.854 16.291 139.918 16.4609 139.918 16.6953C139.918 16.8359 139.865 17.123 139.76 17.5566ZM154.859 18.9629C155.973 18.9629 156.898 19.2266 157.637 19.7539C158.375 20.2695 158.949 20.9141 159.359 21.6875L159.711 20.2109C159.805 19.8945 159.945 19.666 160.133 19.5254C160.332 19.3848 160.625 19.3145 161.012 19.3145H161.293C161.926 19.3145 162.242 19.543 162.242 20C162.242 20.0352 162.166 20.3691 162.014 21.002L158.674 34.4316C158.557 34.9707 158.498 35.3809 158.498 35.6621C158.498 36.0137 158.557 36.2656 158.674 36.418C158.803 36.5586 158.996 36.6289 159.254 36.6289C159.875 36.6289 160.502 36.2539 161.135 35.5039C161.768 34.7422 162.207 33.9043 162.453 32.9902C162.57 32.416 162.811 32.1289 163.174 32.1289C163.561 32.1289 163.754 32.4043 163.754 32.9551C163.754 33.7871 163.438 34.6895 162.805 35.6621C162.324 36.4355 161.709 37.0801 160.959 37.5957C160.209 38.0996 159.412 38.3516 158.568 38.3516C156.857 38.3516 156.002 37.4434 156.002 35.627C156.002 35.2637 156.078 34.8184 156.23 34.291C155.422 35.6387 154.561 36.6816 153.646 37.4199C152.744 38.1465 151.719 38.5098 150.57 38.5098C149.105 38.5098 147.922 37.9062 147.02 36.6992C146.129 35.4922 145.684 33.7754 145.684 31.5488C145.684 29.9199 145.912 28.3438 146.369 26.8203C146.838 25.2852 147.471 23.9434 148.268 22.7949C149.076 21.6348 150.055 20.709 151.203 20.0176C152.352 19.3145 153.57 18.9629 154.859 18.9629ZM151.186 36.7344C152.193 36.7344 153.184 36.0957 154.156 34.8184C155.141 33.5293 156.201 31.5898 157.338 29L158.639 23.7793C158.334 22.8066 157.883 22.0332 157.285 21.459C156.688 20.873 155.961 20.5801 155.105 20.5801C154.18 20.5801 153.301 20.9375 152.469 21.6523C151.648 22.3555 150.963 23.2637 150.412 24.377C149.873 25.4902 149.439 26.7207 149.111 28.0684C148.795 29.4043 148.637 30.7109 148.637 31.9883C148.637 33.6172 148.865 34.8184 149.322 35.5918C149.779 36.3535 150.4 36.7344 151.186 36.7344ZM169.115 38.3516C167.299 38.3516 166.391 37.4199 166.391 35.5566C166.391 35.1582 166.461 34.6191 166.602 33.9395L171.277 13.707C171.324 13.4258 171.348 13.2676 171.348 13.2324C171.348 13.1152 171.277 13.0566 171.137 13.0566H168.588C168.412 12.9512 168.324 12.7695 168.324 12.5117C168.324 12.0547 168.553 11.668 169.01 11.3516C169.209 11.3633 169.531 11.3809 169.977 11.4043C170.422 11.4277 170.814 11.4512 171.154 11.4746C171.506 11.498 171.717 11.5098 171.787 11.5098C172.115 11.5098 172.484 11.457 172.895 11.3516C173.316 11.2344 173.609 11.1758 173.773 11.1758C174.148 11.1758 174.336 11.3574 174.336 11.7207C174.336 11.9902 174.277 12.3477 174.16 12.793L169.186 34.3965C169.068 34.8887 169.01 35.3223 169.01 35.6973C169.01 36.3184 169.285 36.6289 169.836 36.6289C170.422 36.6289 171.031 36.2422 171.664 35.4688C172.309 34.6836 172.719 33.8574 172.895 32.9902C173.012 32.416 173.252 32.1289 173.615 32.1289C173.779 32.1289 173.914 32.1992 174.02 32.3398C174.137 32.4805 174.195 32.6738 174.195 32.9199C174.195 33.7871 173.896 34.7012 173.299 35.6621C172.83 36.4473 172.221 37.0918 171.471 37.5957C170.732 38.0996 169.947 38.3516 169.115 38.3516ZM180.857 38.3516C179.111 38.3516 178.238 37.4551 178.238 35.6621C178.238 35.2637 178.332 34.7012 178.52 33.9746L181.402 23.1289C181.543 22.5547 181.613 22.0859 181.613 21.7227C181.613 21.3945 181.549 21.166 181.42 21.0371C181.291 20.8965 181.08 20.8262 180.787 20.8262C180.225 20.8262 179.609 21.2188 178.941 22.0039C178.285 22.7773 177.846 23.5977 177.623 24.4648C177.518 25.0391 177.277 25.3262 176.902 25.3262C176.727 25.3262 176.58 25.2676 176.463 25.1504C176.346 25.0215 176.287 24.8516 176.287 24.6406C176.287 23.7148 176.621 22.7656 177.289 21.793C177.805 21.0078 178.443 20.3633 179.205 19.8594C179.967 19.3555 180.77 19.1035 181.613 19.1035C183.418 19.1035 184.32 19.9883 184.32 21.7578C184.32 22.1562 184.209 22.7246 183.986 23.4629L181.068 34.3965C180.951 34.9238 180.893 35.3809 180.893 35.7676C180.893 36.3418 181.145 36.6289 181.648 36.6289C182.234 36.6289 182.855 36.2422 183.512 35.4688C184.18 34.6836 184.625 33.8574 184.848 32.9902C184.965 32.416 185.205 32.1289 185.568 32.1289C185.744 32.1289 185.891 32.1992 186.008 32.3398C186.125 32.4688 186.184 32.6387 186.184 32.8496C186.184 33.7285 185.85 34.666 185.182 35.6621C184.678 36.459 184.039 37.1094 183.266 37.6133C182.504 38.1055 181.701 38.3516 180.857 38.3516ZM183.705 15.7461C183.26 15.7461 182.896 15.6055 182.615 15.3242C182.334 15.043 182.193 14.7031 182.193 14.3047C182.193 13.6484 182.416 13.1094 182.861 12.6875C183.318 12.2539 183.863 12.0371 184.496 12.0371C184.941 12.0371 185.311 12.166 185.604 12.4238C185.896 12.6816 186.043 13.0098 186.043 13.4082C186.043 14.0879 185.82 14.6504 185.375 15.0957C184.93 15.5293 184.373 15.7461 183.705 15.7461ZM194.938 38.5098C193.098 38.5098 191.627 37.8711 190.525 36.5938C189.436 35.3164 188.891 33.459 188.891 31.0215C188.891 28.9238 189.301 26.9551 190.121 25.1152C190.953 23.2637 192.096 21.7754 193.549 20.6504C195.014 19.5254 196.613 18.9629 198.348 18.9629C199.59 18.9629 200.645 19.2383 201.512 19.7891C202.191 20.1875 202.713 20.7324 203.076 21.4238C203.451 22.1152 203.639 22.8535 203.639 23.6387C203.639 24.5645 203.404 25.291 202.936 25.8184C202.467 26.334 201.898 26.5918 201.23 26.5918C200.75 26.5918 200.357 26.4453 200.053 26.1523C199.76 25.8477 199.613 25.4902 199.613 25.0801C199.613 24.6113 199.871 24.0664 200.387 23.4453C200.902 22.8125 201.16 22.3262 201.16 21.9863C201.16 21.5527 200.891 21.1953 200.352 20.9141C199.824 20.6211 199.232 20.4746 198.576 20.4746C197.381 20.4746 196.268 21.002 195.236 22.0566C194.205 23.1113 193.396 24.4707 192.811 26.1348C192.236 27.7988 191.949 29.5332 191.949 31.3379C191.949 34.959 193.15 36.7695 195.553 36.7695C196.725 36.7695 197.861 36.2891 198.963 35.3281C199.244 35.0703 199.508 34.7891 199.754 34.4844C200.012 34.1797 200.24 33.8633 200.439 33.5352C200.639 33.1953 200.791 32.9141 200.896 32.6914C201.014 32.4688 201.148 32.1875 201.301 31.8477C201.465 31.4961 201.564 31.291 201.6 31.2324C201.787 30.7988 202.051 30.582 202.391 30.582C202.742 30.582 202.918 30.7988 202.918 31.2324C202.941 31.666 202.73 32.375 202.285 33.3594C201.84 34.332 201.189 35.2578 200.334 36.1367C198.787 37.7188 196.988 38.5098 194.938 38.5098Z" fill="black"/>
</g>
<defs>
<filter id="filter0_d_322_3" x="0.5" y="0.5" width="326" height="63.5" filterUnits="userSpaceOnUse" color-interpolation-filters="sRGB">
<feFlood flood-opacity="0" result="BackgroundImageFix"/>
<feColorMatrix in="SourceAlpha" type="matrix" values="0 0 0 0 0 0 0 0 0 0 0 0 0 0 0 0 0 0 127 0" result="hardAlpha"/>
<feOffset dy="4"/>
<feGaussianBlur stdDeviation="2"/>
<feComposite in2="hardAlpha" operator="out"/>
<feColorMatrix type="matrix" values="0 0 0 0 0 0 0 0 0 0 0 0 0 0 0 0 0 0 0.25 0"/>
<feBlend mode="normal" in2="BackgroundImageFix" result="effect1_dropShadow_322_3"/>
<feBlend mode="normal" in="SourceGraphic" in2="effect1_dropShadow_322_3" result="shape"/>
</filter>
<filter id="filter1_d_322_3" x="115.791" y="11.1758" width="91.8477" height="35.334" filterUnits="userSpaceOnUse" color-interpolation-filters="sRGB">
<feFlood flood-opacity="0" result="BackgroundImageFix"/>
<feColorMatrix in="SourceAlpha" type="matrix" values="0 0 0 0 0 0 0 0 0 0 0 0 0 0 0 0 0 0 127 0" result="hardAlpha"/>
<feOffset dy="4"/>
<feGaussianBlur stdDeviation="2"/>
<feComposite in2="hardAlpha" operator="out"/>
<feColorMatrix type="matrix" values="0 0 0 0 0 0 0 0 0 0 0 0 0 0 0 0 0 0 0.25 0"/>
<feBlend mode="normal" in2="BackgroundImageFix" result="effect1_dropShadow_322_3"/>
<feBlend mode="normal" in="SourceGraphic" in2="effect1_dropShadow_322_3" result="shape"/>
</filter>
</defs>
</svg>
