<svg width="126" height="125" viewBox="0 0 126 125" fill="none" xmlns="http://www.w3.org/2000/svg">
<path d="M88.2409 10.3525C96.3207 -2.18174 110.826 11.6633 103.39 20.9507C103.168 21.2278 102.864 21.4272 102.509 21.5559C117.895 31.6896 109.482 58.1969 82.5317 44.6109C78.6945 44.0573 75.6527 47.153 77.6992 48.7919C78.4443 48.9267 78.6843 48.7059 78.8448 47.8472C78.8781 46.4499 80.4399 46.9507 81.1026 47.355C86.5585 50.6834 79.6128 56.0201 75.3748 52.0787C74.3244 53.3428 73.5823 53.6294 71.7545 52.5204C71.2539 52.1889 70.7398 52.419 70.4674 52.8009C70.3102 53.0215 70.2335 53.2926 70.2864 53.5354C70.5757 54.8624 69.5025 56.1389 68.2122 56.4202C67.779 56.5217 67.4645 56.6175 67.2793 56.7904C67.0833 56.9735 67.0323 57.2429 67.139 57.6967C67.1781 59.4257 65.4597 60.8428 64.1695 61.1241C63.9171 61.2683 63.7358 61.3911 63.6129 61.5929C63.5094 61.7628 63.4472 61.9887 63.4188 62.3303C63.3856 63.7276 63.1237 63.9384 61.8451 64.4109C61.7365 64.462 61.6355 64.5133 61.5413 64.5667C60.8541 64.9564 60.5333 65.4578 60.3437 66.8232L44.9625 86.1618C44.7535 87.9218 44.2346 88.5173 42.4935 88.7851C42.1875 88.9207 41.9671 89.057 41.8094 89.2817C41.6428 89.5191 41.5461 89.8551 41.4926 90.3933C41.1641 92.5956 40.3484 93.0323 38.8456 93.7504L36.7714 96.6351L49.6631 107.726L46.0875 113.023L43.9686 111.052C44.0959 102.336 33.7251 116.76 42.2169 113.866L43.5462 115.314L39.7204 121.013L26.7564 109.591L24.8602 111.742C21.8964 118.296 16.7575 111.771 21.5566 108.987L32.7172 95.0863C34.1268 91.3533 34.787 89.0678 37.3993 87.1154C38.1549 86.8391 38.4283 86.5392 38.4002 85.5071C38.8471 83.5351 39.5477 83.0081 41.1195 82.4818L55.9279 63.6156C56.2346 62.1301 56.5376 61.3011 56.9523 60.5651C57.1696 60.1795 57.4176 59.8195 57.7128 59.4039C58.6389 59.3705 59.2601 59.2481 59.6622 58.6315C59.915 58.2436 60.0811 57.6603 60.1818 56.7806C60.5424 55.4469 60.9514 55.1235 61.7555 54.7C62.6156 54.7319 63.2895 54.5274 63.5786 53.9551C63.7475 53.6207 63.7851 53.1608 63.6518 52.5491C64.0815 51.284 64.5509 50.7262 65.7983 49.9961C66.2461 50.0481 66.5805 49.8671 66.7273 49.6079C66.9213 49.2653 66.7874 48.7861 66.1541 48.5285C65.6893 47.2257 65.474 46.4924 65.7535 45.1406C66.3263 44.6683 66.5042 43.9345 65.4642 43.8136C64.7357 43.0416 64.506 42.5578 64.3129 41.632C63.4003 32.7956 72.2985 36.4161 69.2958 41.2408C68.8676 42.3767 69.6573 42.8996 70.8029 41.9549C73.1663 40.3971 72.6934 36.6776 69.9626 33.4502C56.9149 15.4435 68.6425 -2.05606 88.2409 10.3525Z" fill="black"/>
<path d="M97.5788 19.0899C97.7318 21.0827 100.74 22.1972 102.509 21.5559M88.2409 10.3525C96.3207 -2.18174 110.826 11.6633 103.39 20.9507C103.168 21.2278 102.864 21.4272 102.509 21.5559M88.2409 10.3525C87.635 12.2221 89.6483 15.2584 92.2286 14.696M88.2409 10.3525C68.6425 -2.05606 56.9149 15.4435 69.9626 33.4502C72.6934 36.6776 73.1663 40.3971 70.8029 41.9549C69.6573 42.8996 68.8676 42.3767 69.2958 41.2408C72.2985 36.4161 63.4003 32.7956 64.3129 41.632C64.506 42.5578 64.7357 43.0416 65.4642 43.8136C66.5042 43.9345 66.3263 44.6683 65.7535 45.1406C65.474 46.4924 65.6893 47.2257 66.1541 48.5285C66.7874 48.7861 66.9213 49.2653 66.7273 49.6079M41.1195 82.4818L55.9279 63.6156C56.2346 62.1301 56.5376 61.3011 56.9523 60.5651M41.1195 82.4818C39.5478 83.0081 38.8471 83.5351 38.4002 85.5071C38.4283 86.5392 38.1549 86.8391 37.3993 87.1154C34.787 89.0678 34.1268 91.3533 32.7172 95.0863L21.5566 108.987M41.1195 82.4818C42.4349 84.2889 43.3473 84.9528 44.9625 86.1618M21.5566 108.987C16.7575 111.771 21.8964 118.296 24.8602 111.742M21.5566 108.987C22.3208 110.914 23.1355 111.369 24.8602 111.742M24.8602 111.742L26.7564 109.591M26.7564 109.591L39.7204 121.013L43.5462 115.314L42.2169 113.866C33.7251 116.76 44.0959 102.336 43.9686 111.052L46.0875 113.023L49.6631 107.726L36.7714 96.6351M26.7564 109.591L36.7714 96.6351M36.7714 96.6351L38.8456 93.7504C40.3484 93.0323 41.1641 92.5956 41.4926 90.3933C41.5461 89.8551 41.6428 89.5191 41.8094 89.2817M44.9625 86.1618C44.7535 87.9218 44.2346 88.5173 42.4935 88.7851C42.1875 88.9207 41.9671 89.057 41.8094 89.2817M44.9625 86.1618L60.3437 66.8232C60.5333 65.4578 60.8541 64.9564 61.5413 64.5667M102.509 21.5559C117.895 31.6896 109.482 58.1969 82.5317 44.6109C78.6945 44.0573 75.6527 47.153 77.6992 48.7919C78.4443 48.9267 78.6843 48.7059 78.8448 47.8472C78.8781 46.4499 80.4399 46.9507 81.1026 47.355C86.5585 50.6834 79.6128 56.0201 75.3748 52.0787C74.3244 53.3428 73.5823 53.6294 71.7545 52.5204C71.2539 52.1889 70.7398 52.419 70.4674 52.8009M38.2946 86.5727C39.499 88.0979 40.3137 88.5661 41.8094 89.2817M59.6622 58.6315C59.915 58.2436 60.0811 57.6603 60.1818 56.7806C60.5424 55.4469 60.9514 55.1235 61.7555 54.7C62.6156 54.7319 63.2895 54.5274 63.5786 53.9551M59.6622 58.6315C59.2601 59.2481 58.6389 59.3705 57.7128 59.4039C57.4176 59.8195 57.1696 60.1795 56.9523 60.5651M59.6622 58.6315C59.7651 60.0763 62.2378 62.0697 63.6129 61.5929M63.6129 61.5929C63.5094 61.7628 63.4472 61.9887 63.4188 62.3303C63.3856 63.7276 63.1237 63.9384 61.8451 64.4109C61.7365 64.462 61.6354 64.5133 61.5413 64.5667M63.6129 61.5929C63.7358 61.3911 63.9171 61.2683 64.1695 61.1241C65.4597 60.8428 67.1781 59.4257 67.139 57.6967C67.0323 57.2429 67.0833 56.9735 67.2793 56.7904M56.9523 60.5651C57.1355 62.3654 59.5639 64.7543 61.5413 64.5667M63.5786 53.9551C63.7475 53.6207 63.7851 53.1608 63.6518 52.5491C64.0815 51.284 64.5509 50.7262 65.7983 49.9961C66.2461 50.0481 66.5805 49.8671 66.7273 49.6079M63.5786 53.9551C64.4148 56.3009 65.3257 56.716 67.2793 56.7904M67.2793 56.7904C67.4645 56.6175 67.779 56.5217 68.2122 56.4202C69.5025 56.1389 70.5757 54.8624 70.2864 53.5354C70.2335 53.2926 70.3102 53.0214 70.4674 52.8009M66.7273 49.6079C66.5791 50.5327 68.8756 52.6657 70.4674 52.8009" stroke="white" stroke-width="0.5" stroke-linecap="round" stroke-linejoin="round"/>
<path d="M89.722 35.7457C87.3943 33.869 86.7826 32.072 86.3736 28.1352C84.2724 28.8329 82.2528 29.381 76.4745 26.1229C73.8551 24.9564 72.7818 26.2328 74.5059 27.9421C75.7576 29.1462 75.8248 29.8417 74.1891 31.1388C73.3895 31.9736 73.4743 32.5325 74.0503 33.6017C74.0169 34.999 75.7743 35.3109 75.7801 38.4373C74.8905 42.1064 76.1807 41.8251 79.5841 40.3882C82.9542 40.3486 85.5403 42.9125 86.5413 41.3043C87.2196 39.7663 88.3652 38.8216 89.9447 39.8673C91.9913 41.5063 92.8808 37.8372 89.722 35.7457Z" fill="white" stroke="white" stroke-width="0.5" stroke-linecap="round" stroke-linejoin="round"/>
<path d="M91.0224 21.5617C91.1308 20.0344 91.1318 15.9862 91.0109 15.3089C91.4665 15.233 91.6676 15.1226 91.9062 14.7662C93.7692 14.0126 93.4355 12.4818 92.6179 11.831C92.5107 10.4483 92.8063 10.0722 93.4742 9.55925C97.378 7.31822 102.011 11.5211 102.161 15.3109C102.2 17.04 101.055 17.9848 99.1526 17.0093C98.1445 17.3435 97.6224 17.5831 97.5789 19.0899C97.5487 20.1391 97.4701 20.2904 96.578 20.6982C94.3233 20.611 93.1123 20.8291 91.0224 21.5617Z" fill="white" stroke="white" stroke-width="0.5" stroke-linecap="round" stroke-linejoin="round"/>
<path d="M99.7875 30.7714C98.775 26.127 90.639 27.553 94.5934 33.2937C92.4802 34.4494 89.4269 31.2923 90.2832 29.0206C94.4981 20.4565 100.744 24.3078 104.553 29.3851C106.35 31.4261 106.606 34.1504 106.144 36.6836C105.044 42.4837 99.0988 46.2122 92.6421 44.492C94.2221 42.8984 94.7433 41.9837 94.427 40.2803C94.1619 38.2558 94.5087 37.304 97.0016 36.5914C100.385 35.1457 100.149 32.4302 99.7875 30.7714Z" fill="white" stroke="white" stroke-width="0.5" stroke-linecap="round" stroke-linejoin="round"/>
<path d="M79.8058 14.9264C84.294 14.5615 85.4018 23.4225 79.0588 21.0738C78.638 23.6143 82.3848 25.816 84.1824 24.2377C90.6685 17.2656 85.3559 11.9689 79.6541 9.5681C77.2841 8.32862 74.7509 8.89263 72.6013 10.1415C67.6923 13.0469 66.0779 20.3389 69.53 26.503C70.5028 24.3815 71.1746 23.5634 72.8045 23.3725C74.709 23.031 75.4656 22.3821 75.3749 19.5831C75.6834 15.6383 78.2029 15.0567 79.8058 14.9264Z" fill="white" stroke="white" stroke-width="0.5" stroke-linecap="round" stroke-linejoin="round"/>
<path d="M37.6898 108.598C35.5024 108.38 30.9985 107.971 30.4824 108.084L35.1312 101.51L37.6898 108.598Z" fill="white" stroke="white" stroke-width="0.5" stroke-linecap="round" stroke-linejoin="round"/>
<path d="M31.7061 110.597C33.0686 110.648 35.8581 110.735 36.1161 110.679L34.6147 113.091L31.7061 110.597Z" fill="white" stroke="white" stroke-width="0.5" stroke-linecap="round" stroke-linejoin="round"/>
<path d="M38.105 102.252C38.3717 103.626 38.9021 106.443 38.8895 106.714L40.9656 104.804L38.105 102.252Z" fill="white" stroke="white" stroke-width="0.5" stroke-linecap="round" stroke-linejoin="round"/>
<path d="M66.185 44.2805C68.1558 46.4509 69.9676 46.4573 73.2087 45.3824" stroke="white" stroke-width="0.5" stroke-linecap="round" stroke-linejoin="round"/>
<path d="M75.3319 52.075C73.4632 49.7022 73.0698 47.8452 73.6759 45.9756" stroke="white" stroke-width="0.5" stroke-linecap="round" stroke-linejoin="round"/>
<path d="M80.455 47.6254C81.1792 47.7388 82.5139 49.3697 82.396 50.3299" stroke="white" stroke-width="0.5" stroke-linecap="round" stroke-linejoin="round"/>
<path d="M64.9005 50.6686C65.1586 50.6123 65.8942 51.6104 66.2297 52.1164M64.0775 51.543C64.3934 51.7522 65.3103 52.5485 65.7293 52.9205M63.8996 52.2768L65.1565 53.3929" stroke="white" stroke-width="0.5" stroke-linecap="round" stroke-linejoin="round"/>
<path d="M81.9104 20.2021C83.1615 18.1918 81.2205 15.4872 78.9626 15.9794" stroke="white" stroke-width="0.5" stroke-linecap="round" stroke-linejoin="round"/>
<path d="M74.8534 23.4779C74.5954 23.5342 73.4576 24.8247 72.0228 24.4425" stroke="white" stroke-width="0.5" stroke-linecap="round" stroke-linejoin="round"/>
<path d="M78.5345 17.1153C78.3344 17.4369 77.5688 18.3683 77.2111 18.7938" stroke="white" stroke-width="0.5" stroke-linecap="round" stroke-linejoin="round"/>
<path d="M77.6898 25.6397L81.4938 27.5907" stroke="white" stroke-width="0.5" stroke-linecap="round" stroke-linejoin="round"/>
<path d="M79.7697 25.8814L81.9942 26.7865" stroke="white" stroke-width="0.5" stroke-linecap="round" stroke-linejoin="round"/>
<path d="M65.6269 16.8013C65.5408 21.0202 65.5021 23.3929 68.9144 30.3328" stroke="white" stroke-width="0.5" stroke-linecap="round" stroke-linejoin="round"/>
<path d="M87.0263 14.2216C88.4656 18.5847 88.5339 20.919 85.5755 24.6158" stroke="white" stroke-width="0.5" stroke-linecap="round" stroke-linejoin="round"/>
<path d="M89.4736 19.2484C88.9589 21.9019 88.5486 23.2864 86.6155 24.7366" stroke="white" stroke-width="0.5" stroke-linecap="round" stroke-linejoin="round"/>
<path d="M94.4838 29.6555C96.3522 28.2371 99.1122 30.0415 98.7874 32.3879" stroke="white" stroke-width="0.5" stroke-linecap="round" stroke-linejoin="round"/>
<path d="M94.6398 36.7479C94.6027 37.016 93.426 38.2692 93.895 39.713" stroke="white" stroke-width="0.5" stroke-linecap="round" stroke-linejoin="round"/>
<path d="M98.636 33.3807C98.337 33.6077 97.484 34.4552 97.0949 34.8506" stroke="white" stroke-width="0.5" stroke-linecap="round" stroke-linejoin="round"/>
<path d="M89.389 34.0508L87.2346 30.2868" stroke="white" stroke-width="0.5" stroke-linecap="round" stroke-linejoin="round"/>
<path d="M89.0128 31.9366L87.982 29.7194" stroke="white" stroke-width="0.5" stroke-linecap="round" stroke-linejoin="round"/>
<path d="M98.7976 45.8065C94.7039 46.1816 92.4009 46.3825 85.4254 43.359" stroke="white" stroke-width="0.5" stroke-linecap="round" stroke-linejoin="round"/>
<path d="M99.8494 23.7105C95.5119 22.5328 93.239 22.6216 89.8479 25.9034" stroke="white" stroke-width="0.5" stroke-linecap="round" stroke-linejoin="round"/>
<path d="M94.7983 21.5454C92.255 22.2531 90.9375 22.7675 89.6597 24.8463" stroke="white" stroke-width="0.5" stroke-linecap="round" stroke-linejoin="round"/>
<path d="M93.1824 8.36206C98.6325 7.10988 103.009 10.0426 103.165 16.9589" stroke="white" stroke-width="0.5" stroke-linecap="round" stroke-linejoin="round"/>
<path d="M69.7719 48.2166C69.8298 48.482 68.2334 49.942 67.3029 50.8399M69.6721 52.4085L71.7462 49.5238M68.1649 51.6945L70.6339 49.0712" stroke="white" stroke-width="0.5" stroke-linecap="round" stroke-linejoin="round"/>
<path d="M67.785 37.5293C68.4418 37.867 69.2226 39.8363 68.8198 40.7082" stroke="white" stroke-width="0.5" stroke-linecap="round" stroke-linejoin="round"/>
<path d="M36.9858 97.7602L47.8308 107.212" stroke="white" stroke-width="0.5" stroke-linecap="round" stroke-linejoin="round"/>
<path d="M42.8423 104.476C43.2161 104.951 46.3016 107.429 47.7976 108.609" stroke="white" stroke-width="0.5" stroke-linecap="round" stroke-linejoin="round"/>
<path d="M28.0441 109.44C28.36 109.649 35.669 116.002 39.284 119.153" stroke="white" stroke-width="0.5" stroke-linecap="round" stroke-linejoin="round"/>
<path d="M36.4086 115.262C36.7823 115.736 39.0781 117.692 40.1793 118.61" stroke="white" stroke-width="0.5" stroke-linecap="round" stroke-linejoin="round"/>
<path d="M36.5636 102.022L37.8262 106.265" stroke="white" stroke-width="0.5" stroke-linecap="round" stroke-linejoin="round"/>
<path d="M36.5417 109.673L31.7368 109.33" stroke="white" stroke-width="0.5" stroke-linecap="round" stroke-linejoin="round"/>
<path d="M38.3312 88.4316C35.7411 90.1839 34.6268 92.0684 32.9317 96.2114" stroke="white" stroke-width="0.5" stroke-linecap="round" stroke-linejoin="round"/>
<path d="M34.083 98.393L24.891 110.475" stroke="white" stroke-width="0.5" stroke-linecap="round" stroke-linejoin="round"/>
<path d="M41.0113 83.6772C39.7701 83.851 39.4837 84.5649 39.1874 86.1598" stroke="white" stroke-width="0.5" stroke-linecap="round" stroke-linejoin="round"/>
<path d="M43.5975 86.2411C42.6307 86.0532 42.083 85.9384 42.2017 87.5879" stroke="white" stroke-width="0.5" stroke-linecap="round" stroke-linejoin="round"/>
<path d="M59.1451 59.9159C59.656 61.3137 61.2012 62.3288 61.9815 62.0778M55.1414 66.3489L53.3175 68.8316" stroke="white" stroke-width="0.5" stroke-linecap="round" stroke-linejoin="round"/>
<path d="M51.7438 70.9122L48.3461 75.4755" stroke="white" stroke-width="0.5" stroke-linecap="round" stroke-linejoin="round"/>
<path d="M65.168 59.6456L63.3773 60.731" stroke="white" stroke-width="0.5" stroke-linecap="round" stroke-linejoin="round"/>
<path d="M61.3972 56.2974L60.5409 58.5691" stroke="white" stroke-width="0.5" stroke-linecap="round" stroke-linejoin="round"/>
<path d="M74.02 38.2552C73.2752 42.5878 75.3615 44.6663 79.7425 42.1307" stroke="white" stroke-width="0.5" stroke-linecap="round" stroke-linejoin="round"/>
</svg>
