<svg width="156" height="161" viewBox="0 0 156 161" fill="none" xmlns="http://www.w3.org/2000/svg">
<path d="M11.314 25.9546C-4.186 9.95447 20.2836 -7.0455 31.314 6.95462C31.6431 7.37239 31.8343 7.88789 31.9082 8.45447C51.314 -11.0456 86.814 9.95441 58.814 45.4545C56.814 50.9544 60.314 56.4544 63.314 53.9545C63.7416 52.8955 63.4992 52.4689 62.314 51.9545C60.314 51.4544 61.5245 49.3048 62.314 48.4545C68.814 41.4544 74.314 53.4544 67.314 58.4545C68.8034 60.4167 68.983 61.6074 66.814 63.9545C66.1801 64.5884 66.3499 65.4233 66.814 65.9496C67.082 66.2535 67.448 66.4545 67.814 66.4545C69.814 66.4544 71.314 68.4544 71.314 70.4545C71.3242 71.1284 71.3635 71.6247 71.5541 71.9545C71.7561 72.3037 72.1277 72.466 72.814 72.4545C75.314 72.9544 76.814 75.9544 76.814 77.9545C76.9423 78.3745 77.0622 78.6824 77.314 78.9295C77.526 79.1374 77.8314 79.3022 78.314 79.4545C80.314 79.9544 80.5352 80.4099 80.814 82.4545C80.8536 82.6316 80.8957 82.7978 80.943 82.9544C81.288 84.097 81.9089 84.7334 83.814 85.4545L106.814 114.454C109.281 115.332 109.975 116.292 109.814 118.954C109.913 119.451 110.04 119.821 110.314 120.127C110.603 120.45 111.057 120.702 111.814 120.954C114.88 122.151 115.252 123.499 115.814 125.954L119.314 129.954L139.314 114.454L145.814 121.454L142.314 123.954C129.814 120.954 147.314 140.954 145.814 127.454L148.314 125.954L155.314 133.454L134.814 148.954L137.314 152.454C145.814 158.954 134.814 164.454 132.314 156.454L115.814 135.454C110.885 132.164 107.804 130.45 105.814 125.954C105.654 124.747 105.308 124.246 103.814 123.954C101.117 122.657 100.578 121.45 100.314 118.954L77.814 90.9545C75.7729 90.0214 74.6752 89.3056 73.7463 88.4544C73.2597 88.0085 72.8194 87.5254 72.314 86.9545C72.5565 85.5732 72.5752 84.6144 71.814 83.8205C71.3353 83.3213 70.5481 82.8873 69.314 82.4545C67.5083 81.4906 67.1712 80.781 66.814 79.4545C67.1296 78.192 67.0468 77.1288 66.314 76.5163C65.8859 76.1585 65.236 75.9545 64.314 75.9545C62.6286 74.9105 61.9732 74.036 61.314 71.9545C61.5294 71.3085 61.3738 70.7552 61.0469 70.4545C60.6148 70.0568 59.8834 70.1004 59.314 70.9545C57.2938 71.222 56.1712 71.3041 54.314 70.4545C53.814 69.4545 52.814 68.9545 52.314 70.4545C50.9747 71.2836 50.2066 71.4674 48.814 71.4545C35.814 69.9545 43.814 57.9545 49.814 63.9545C51.314 64.9545 52.314 63.9545 51.314 61.9545C49.814 57.9545 44.314 57.4545 38.814 60.4545C8.81403 73.9545 -12.686 50.9545 11.314 25.9546Z" fill="black"/>
<path d="M26.814 14.9546C29.7291 15.371 32.2763 11.2784 31.9082 8.45447M11.314 25.9546C-4.186 9.95447 20.2836 -7.0455 31.314 6.95462C31.6431 7.37239 31.8343 7.88789 31.9082 8.45447M11.314 25.9546C13.814 27.4545 18.814 25.4545 18.814 21.4546M11.314 25.9546C-12.686 50.9545 8.81403 73.9545 38.814 60.4545C44.314 57.4545 49.814 57.9545 51.314 61.9545C52.314 63.9545 51.314 64.9545 49.814 63.9545C43.814 57.9545 35.814 69.9545 48.814 71.4545C50.2066 71.4674 50.9747 71.2836 52.314 70.4545C52.814 68.9545 53.814 69.4545 54.314 70.4545C56.1712 71.3041 57.2938 71.222 59.314 70.9545C59.8834 70.1004 60.6148 70.0568 61.0469 70.4545M100.314 118.954L77.814 90.9545C75.7729 90.0214 74.6752 89.3056 73.7463 88.4544M100.314 118.954C100.578 121.45 101.117 122.657 103.814 123.954C105.308 124.246 105.654 124.747 105.814 125.954C107.804 130.45 110.885 132.164 115.814 135.454L132.314 156.454M100.314 118.954C103.327 117.591 104.568 116.455 106.814 114.454M132.314 156.454C134.814 164.454 145.814 158.954 137.314 152.454M132.314 156.454C135.325 155.945 136.236 154.886 137.314 152.454M137.314 152.454L134.814 148.954M134.814 148.954L155.314 133.454L148.314 125.954L145.814 127.454C147.314 140.954 129.814 120.954 142.314 123.954L145.814 121.454L139.314 114.454L119.314 129.954M134.814 148.954L119.314 129.954M119.314 129.954L115.814 125.954C115.252 123.499 114.88 122.151 111.814 120.954C111.057 120.702 110.603 120.45 110.314 120.127M106.814 114.454C109.281 115.332 109.975 116.292 109.814 118.954C109.913 119.451 110.04 119.821 110.314 120.127M106.814 114.454L83.814 85.4545C81.9089 84.7334 81.288 84.097 80.943 82.9544M31.9082 8.45447C51.314 -11.0456 86.814 9.95441 58.814 45.4545C56.814 50.9544 60.314 56.4544 63.314 53.9545C63.7416 52.8955 63.4992 52.4689 62.314 51.9545C60.314 51.4544 61.5245 49.3048 62.314 48.4545C68.814 41.4544 74.314 53.4544 67.314 58.4545C68.8034 60.4167 68.983 61.6074 66.814 63.9545C66.1801 64.5884 66.3499 65.4233 66.814 65.9496M105.314 124.454C107.886 123.164 108.815 122.11 110.314 120.127M71.814 83.8205C71.3353 83.3213 70.5481 82.8873 69.314 82.4545C67.5083 81.4906 67.1712 80.781 66.814 79.4545C67.1296 78.192 67.0468 77.1288 66.314 76.5163M71.814 83.8205C72.5752 84.6144 72.5565 85.5732 72.314 86.9545C72.8194 87.5254 73.2597 88.0085 73.7463 88.4544M71.814 83.8205C73.9251 84.1342 77.5687 81.1181 77.314 78.9295M77.314 78.9295C77.526 79.1374 77.8314 79.3022 78.314 79.4545C80.314 79.9544 80.5352 80.4099 80.814 82.4545C80.8536 82.6316 80.8957 82.7978 80.943 82.9544M77.314 78.9295C77.0622 78.6824 76.9423 78.3745 76.814 77.9545C76.814 75.9544 75.314 72.9544 72.814 72.4545C72.1277 72.466 71.756 72.3037 71.5541 71.9545M73.7463 88.4544C76.3939 88.7641 80.5927 85.941 80.943 82.9544M66.314 76.5163C65.8859 76.1585 65.236 75.9545 64.314 75.9545C62.6286 74.9105 61.9732 74.036 61.314 71.9545C61.5294 71.3085 61.3738 70.7552 61.0469 70.4545M66.314 76.5163C69.9514 76.0356 70.8344 74.8215 71.5541 71.9545M71.5541 71.9545C71.3635 71.6247 71.3242 71.1284 71.314 70.4545C71.314 68.4544 69.814 66.4544 67.814 66.4545C67.448 66.4545 67.082 66.2535 66.814 65.9496M61.0469 70.4545C62.3309 70.9721 66.1201 68.2616 66.814 65.9496" stroke="white" stroke-width="0.5" stroke-linecap="round" stroke-linejoin="round"/>
<path d="M48.314 31.9544C44.8837 34.7935 42.1064 35.1191 36.314 34.4544C36.6587 37.7889 36.814 40.9544 30.314 48.4543C27.814 51.9543 29.314 53.9544 32.314 51.9543C34.4389 50.4904 35.4607 50.6155 36.814 53.4543C37.7644 54.907 38.595 54.9618 40.3139 54.4543C42.3139 54.9544 43.314 52.4544 47.814 53.4543C52.814 55.9544 52.814 53.9544 51.814 48.4543C52.814 43.4544 57.314 40.4544 55.314 38.4544C53.314 36.9544 52.314 34.9544 54.314 32.9544C57.314 30.4544 52.314 27.9544 48.314 31.9544Z" fill="white" stroke="white" stroke-width="0.5" stroke-linecap="round" stroke-linejoin="round"/>
<path d="M28.3141 25.4544C26.1507 24.8014 20.3264 23.494 19.3141 23.4544C19.3478 22.7557 19.252 22.4224 18.8141 21.9544C18.3141 18.9544 16.0068 18.9544 14.8141 19.9544C12.791 19.667 12.3427 19.1082 11.8141 17.9544C9.81408 11.4544 17.3141 5.95447 22.8141 6.95444C25.3141 7.45447 26.3141 9.45447 24.3141 11.9544C24.4788 13.5541 24.6598 14.404 26.8141 14.9544C28.3141 15.3377 28.5072 15.5027 28.8141 16.9544C27.9815 20.2629 27.9155 22.1253 28.3141 25.4544Z" fill="white" stroke="white" stroke-width="0.5" stroke-linecap="round" stroke-linejoin="round"/>
<path d="M44.314 15.4544C37.314 15.4544 36.8141 27.9544 46.314 23.9544C47.314 27.4544 41.814 30.9544 38.8141 28.9544C27.814 19.9544 35.314 11.9544 43.8141 7.95437C47.314 5.95437 51.314 6.4544 54.814 7.95437C62.814 11.4544 66.314 21.4544 61.814 30.4544C60.0166 27.6021 58.8641 26.5359 56.314 26.4544C53.318 26.1937 52.0574 25.3735 51.814 21.4544C50.7952 15.9805 46.814 15.4544 44.314 15.4544Z" fill="white" stroke="white" stroke-width="0.5" stroke-linecap="round" stroke-linejoin="round"/>
<path d="M15.2494 39.9127C16.132 33.1532 29.2285 34.3723 23.8599 43.0013C27.3833 44.4435 31.7261 39.609 30.019 36.4398C22.022 24.5923 12.7349 30.7454 7.49235 38.4088C4.96567 41.5162 4.98267 45.4469 6.10533 49.0308C8.74595 57.2325 18.7314 61.9738 28.6829 58.8538C25.9356 56.7298 24.9691 55.4717 25.2057 52.9981C25.3116 50.0696 24.6154 48.7406 20.5597 47.9719C14.9808 46.2429 14.9341 42.3268 15.2494 39.9127Z" fill="white" stroke="white" stroke-width="0.5" stroke-linecap="round" stroke-linejoin="round"/>
<path d="M136.814 132.454C135.814 135.621 133.814 142.154 133.814 142.954L125.814 133.954L136.814 132.454Z" fill="white" stroke="white" stroke-width="0.5" stroke-linecap="round" stroke-linejoin="round"/>
<path d="M137.814 141.954C138.314 139.954 139.314 135.854 139.314 135.454L142.314 138.454L137.814 141.954Z" fill="white" stroke="white" stroke-width="0.5" stroke-linecap="round" stroke-linejoin="round"/>
<path d="M127.814 129.793C129.875 129.842 134.093 129.965 134.479 130.071L132.382 126.383L127.814 129.793Z" fill="white" stroke="white" stroke-width="0.5" stroke-linecap="round" stroke-linejoin="round"/>
<path d="M53.2118 69.5384C56.9527 67.3221 57.53 64.6429 57 59.5" stroke="white" stroke-width="0.5" stroke-linecap="round" stroke-linejoin="round"/>
<path d="M67.2952 58.5168C63.2952 60.5168 60.5 60.5 58 59" stroke="white" stroke-width="0.5" stroke-linecap="round" stroke-linejoin="round"/>
<path d="M62.5 49.5C62.8902 48.4648 65.6554 47.0158 67 47.5" stroke="white" stroke-width="0.5" stroke-linecap="round" stroke-linejoin="round"/>
<path d="M62 73.5C62 73.1 63.6667 72.3333 64.5 72M63 75C63.4 74.6 64.8333 73.5 65.5 73M64 75.5L66 74" stroke="white" stroke-width="0.5" stroke-linecap="round" stroke-linejoin="round"/>
<path d="M23.5 38.5001C21 36.0001 16.5 38.0001 16.5 41.5001" stroke="white" stroke-width="0.5" stroke-linecap="round" stroke-linejoin="round"/>
<path d="M26 50C26 50.4 27.5 52.5 26.5 54.5" stroke="white" stroke-width="0.5" stroke-linecap="round" stroke-linejoin="round"/>
<path d="M18 42.5C18.4 42.9 19.5 44.3333 20 45" stroke="white" stroke-width="0.5" stroke-linecap="round" stroke-linejoin="round"/>
<path d="M30 46.5L34 41.5" stroke="white" stroke-width="0.5" stroke-linecap="round" stroke-linejoin="round"/>
<path d="M31 43.5L33 40.5" stroke="white" stroke-width="0.5" stroke-linecap="round" stroke-linejoin="round"/>
<path d="M13.5 61.5C19.543 62.9884 22.9448 63.811 34 61" stroke="white" stroke-width="0.5" stroke-linecap="round" stroke-linejoin="round"/>
<path d="M16.5 29.0001C23.2289 28.2776 26.6089 28.9295 31 34.5001" stroke="white" stroke-width="0.5" stroke-linecap="round" stroke-linejoin="round"/>
<path d="M24.5 27C28.1563 28.6177 30.0197 29.6715 31.5 33" stroke="white" stroke-width="0.5" stroke-linecap="round" stroke-linejoin="round"/>
<path d="M41.0449 22.9428C39.5902 19.7204 43.052 16.2181 46.326 17.4556" stroke="white" stroke-width="0.5" stroke-linecap="round" stroke-linejoin="round"/>
<path d="M51.2983 25C51.6725 25.1414 53.1066 27.287 55.3309 27.0587" stroke="white" stroke-width="0.5" stroke-linecap="round" stroke-linejoin="round"/>
<path d="M47.707 18C47.9398 18.5156 48.8916 20.0513 49.3385 20.7547" stroke="white" stroke-width="0.5" stroke-linecap="round" stroke-linejoin="round"/>
<path d="M45.771 31.9003L39.6797 33.8742" stroke="white" stroke-width="0.5" stroke-linecap="round" stroke-linejoin="round"/>
<path d="M42.6112 31.775L39.0978 32.5852" stroke="white" stroke-width="0.5" stroke-linecap="round" stroke-linejoin="round"/>
<path d="M65.6357 21.7692C64.8914 27.9481 64.4582 31.4211 57.9202 40.7684" stroke="white" stroke-width="0.5" stroke-linecap="round" stroke-linejoin="round"/>
<path d="M34.1741 13.085C31.1193 19.1239 30.5341 22.5161 34.1924 28.5931" stroke="white" stroke-width="0.5" stroke-linecap="round" stroke-linejoin="round"/>
<path d="M29.4749 19.8612C29.6954 23.8533 30.0223 25.9689 32.6125 28.5304" stroke="white" stroke-width="0.5" stroke-linecap="round" stroke-linejoin="round"/>
<path d="M10 17.9999C9.90773 9.53071 15.5 4 25.5 5.9999" stroke="white" stroke-width="0.5" stroke-linecap="round" stroke-linejoin="round"/>
<path d="M60 65.5C60.4 65.5 62 68.3333 63 70M66 67L62.5 63M64.5 69L61.5 64.5" stroke="white" stroke-width="0.5" stroke-linecap="round" stroke-linejoin="round"/>
<path d="M44 64.9929C44.692 64.1297 47.7702 63.6096 48.8984 64.4869" stroke="white" stroke-width="0.5" stroke-linecap="round" stroke-linejoin="round"/>
<path d="M121 130L138 117" stroke="white" stroke-width="0.5" stroke-linecap="round" stroke-linejoin="round"/>
<path d="M132.5 123.5C133.3 123.1 137.833 119.333 140 117.5" stroke="white" stroke-width="0.5" stroke-linecap="round" stroke-linejoin="round"/>
<path d="M135 147C135.4 146.6 146.833 137.833 152.5 133.5" stroke="white" stroke-width="0.5" stroke-linecap="round" stroke-linejoin="round"/>
<path d="M146 136.5C146.8 136.1 150.333 133.333 152 132" stroke="white" stroke-width="0.5" stroke-linecap="round" stroke-linejoin="round"/>
<path d="M127 132L133.5 131.5" stroke="white" stroke-width="0.5" stroke-linecap="round" stroke-linejoin="round"/>
<path d="M138 134.5L136 141.5" stroke="white" stroke-width="0.5" stroke-linecap="round" stroke-linejoin="round"/>
<path d="M108 125C109.709 129.398 112.071 131.655 117.5 135.5" stroke="white" stroke-width="0.5" stroke-linecap="round" stroke-linejoin="round"/>
<path d="M121 134.5L135.5 152" stroke="white" stroke-width="0.5" stroke-linecap="round" stroke-linejoin="round"/>
<path d="M102 119.5C101.861 121.393 102.798 122.047 105 123" stroke="white" stroke-width="0.5" stroke-linecap="round" stroke-linejoin="round"/>
<path d="M106.5 116.5C105.927 117.87 105.59 118.644 108 119" stroke="white" stroke-width="0.5" stroke-linecap="round" stroke-linejoin="round"/>
<path d="M73.5 85C75.6714 84.6948 77.6165 82.7357 77.5 81.5M81.5 93L84.5 96.5" stroke="white" stroke-width="0.5" stroke-linecap="round" stroke-linejoin="round"/>
<path d="M87 99.5L92.5 106" stroke="white" stroke-width="0.5" stroke-linecap="round" stroke-linejoin="round"/>
<path d="M75 76L76 79" stroke="white" stroke-width="0.5" stroke-linecap="round" stroke-linejoin="round"/>
<path d="M69 80.5L72 82.5" stroke="white" stroke-width="0.5" stroke-linecap="round" stroke-linejoin="round"/>
<path d="M47 56.0001C53 58.4999 56.6449 56.083 54.3708 48.782" stroke="white" stroke-width="0.5" stroke-linecap="round" stroke-linejoin="round"/>
</svg>
