<svg width="136" height="72" viewBox="0 0 136 72" fill="none" xmlns="http://www.w3.org/2000/svg">
<path d="M69.0034 36C69.0034 55.6061 53.5572 71.5 34.5034 71.5C15.4495 71.5 0.00335693 55.6061 0.00335693 36C0.00335693 16.3939 15.4495 0.5 34.5034 0.5C53.5572 0.5 69.0034 16.3939 69.0034 36Z" fill="white"/>
<path d="M136 35.5C136 55.1061 120.554 71 101.5 71C82.4462 71 67 55.1061 67 35.5C67 15.8939 82.4462 0 101.5 0C120.554 0 136 15.8939 136 35.5Z" fill="white"/>
<path d="M38.5 47.5L38.7045 1.23975L89.6238 0.981689L89.322 70.5272L4 70V52H34.5C37.5 52 38.5 50.5 38.5 47.5Z" fill="black" stroke="black"/>
<path d="M99 48.5V1H89V70.5H134V52.5H103.5C100.5 52.5 99 51.5 99 48.5Z" fill="black" stroke="black"/>
</svg>
