<svg width="327" height="64" viewBox="0 0 327 64" fill="none" xmlns="http://www.w3.org/2000/svg">
<g filter="url(#filter0_d_347_11)">
<path d="M322 1H5V55.5H322V1Z" fill="white"/>
<path d="M322 1H5V55.5H322V1Z" stroke="black"/>
</g>
<g filter="url(#filter1_d_347_11)">
<path d="M124.406 21.1602C124.113 20.9609 123.967 20.668 123.967 20.2812C123.967 19.8828 124.113 19.584 124.406 19.3848C124.629 19.3965 124.969 19.4141 125.426 19.4375C125.895 19.4492 126.287 19.4609 126.604 19.4727C126.92 19.4844 127.137 19.4902 127.254 19.4902C127.57 19.4902 127.922 19.4434 128.309 19.3496C128.695 19.2559 128.965 19.209 129.117 19.209C129.668 19.209 129.943 19.4961 129.943 20.0703V36.9277C129.943 38.6387 129.85 39.9805 129.662 40.9531C129.475 41.9258 129.199 42.7754 128.836 43.502C128.508 44.1582 128.039 44.7031 127.43 45.1367C126.82 45.582 126.146 45.8047 125.408 45.8047C124.729 45.8047 124.195 45.6172 123.809 45.2422C123.434 44.8789 123.246 44.4453 123.246 43.9414C123.246 43.543 123.375 43.1973 123.633 42.9043C123.891 42.6113 124.219 42.4648 124.617 42.4648C124.91 42.4648 125.156 42.5234 125.355 42.6406C125.566 42.7578 125.719 42.8867 125.812 43.0273C125.918 43.1797 126.047 43.3145 126.199 43.4316C126.363 43.5488 126.545 43.6074 126.744 43.6074C127.412 43.6074 127.746 42.8516 127.746 41.3398C127.746 41.1758 127.646 40.4609 127.447 39.1953C127.248 37.9297 127.148 36.8809 127.148 36.0488V21.4414C127.148 21.2539 127.061 21.1602 126.885 21.1602H124.406ZM128.537 15.7461C127.986 15.7461 127.512 15.5586 127.113 15.1836C126.727 14.7969 126.533 14.3281 126.533 13.7773C126.533 13.2383 126.727 12.7871 127.113 12.4238C127.512 12.0488 127.986 11.8613 128.537 11.8613C129.111 11.8613 129.592 12.0488 129.979 12.4238C130.365 12.7871 130.559 13.2383 130.559 13.7773C130.559 14.3281 130.365 14.7969 129.979 15.1836C129.592 15.5586 129.111 15.7461 128.537 15.7461ZM144.094 46.3496C143.227 46.3496 142.518 46.0859 141.967 45.5586C141.428 45.0312 141.158 44.3574 141.158 43.5371C141.158 42.7051 141.381 41.8906 141.826 41.0938C142.283 40.2969 142.945 39.4473 143.812 38.5449C143.742 38.5449 143.637 38.5508 143.496 38.5625C143.367 38.5742 143.268 38.5801 143.197 38.5801C142.061 38.5801 140.994 38.3516 139.998 37.8945C139.002 37.4375 138.141 36.793 137.414 35.9609C136.688 35.1289 136.113 34.0977 135.691 32.8672C135.27 31.625 135.059 30.2656 135.059 28.7891C135.059 26.9961 135.41 25.3438 136.113 23.832C136.828 22.3203 137.818 21.1191 139.084 20.2285C140.35 19.3379 141.756 18.8926 143.303 18.8926C144.299 18.8926 145.248 19.0801 146.15 19.4551C147.053 19.8301 147.867 20.375 148.594 21.0898C149.32 21.8047 149.9 22.7422 150.334 23.9023C150.768 25.0508 150.984 26.3398 150.984 27.7695C150.984 28.7539 150.48 29.2461 149.473 29.2461H138.24V29.4746C138.24 31.7129 138.721 33.5117 139.682 34.8711C140.643 36.2188 141.961 36.8926 143.637 36.8926C144.891 36.8926 146.027 36.4883 147.047 35.6797C148.078 34.8711 148.799 33.7988 149.209 32.4629C149.35 32.041 149.49 31.7305 149.631 31.5312C149.771 31.332 149.959 31.2324 150.193 31.2324C150.65 31.2324 150.879 31.5195 150.879 32.0938C150.879 32.3281 150.797 32.6797 150.633 33.1484C150.48 33.6172 150.293 34.0566 150.07 34.4668C149.672 35.2754 149.115 35.9961 148.4 36.6289C147.697 37.25 146.889 37.7305 145.975 38.0703C145.975 38.0938 145.957 38.1289 145.922 38.1758C145.898 38.2344 145.881 38.2812 145.869 38.3164C145.178 39.043 144.615 39.8223 144.182 40.6543C143.748 41.498 143.531 42.3066 143.531 43.0801C143.531 43.6074 143.637 44.0117 143.848 44.293C144.07 44.5859 144.357 44.7324 144.709 44.7324C145.119 44.7324 145.6 44.5156 146.15 44.082C146.197 44.0352 146.262 43.9648 146.344 43.8711C146.438 43.7773 146.508 43.707 146.555 43.6602C146.602 43.625 146.654 43.5781 146.713 43.5195C146.783 43.4609 146.842 43.4199 146.889 43.3965C146.947 43.373 147 43.3613 147.047 43.3613C147.188 43.3613 147.311 43.4141 147.416 43.5195C147.533 43.625 147.592 43.7422 147.592 43.8711C147.592 44.1055 147.492 44.375 147.293 44.6797C147.105 44.9844 146.859 45.2539 146.555 45.4883C145.887 46.0625 145.066 46.3496 144.094 46.3496ZM138.311 27.5938H147.557C147.967 27.5938 148.172 27.3887 148.172 26.9785C148.172 25.1504 147.721 23.6152 146.818 22.373C145.916 21.1309 144.744 20.5098 143.303 20.5098C141.92 20.5098 140.766 21.1719 139.84 22.4961C138.926 23.8086 138.416 25.5078 138.311 27.5938ZM157.893 36.4883L165.521 36.3477C166.799 36.3477 167.473 35.4219 167.543 33.5703L167.648 32.1992C167.848 31.9414 168.111 31.8125 168.439 31.8125C168.768 31.8125 169.031 31.9414 169.23 32.1992L169.09 37.7891C169.09 38 168.99 38.1055 168.791 38.1055C168.779 38.1055 167.209 38.082 164.08 38.0352C160.963 37.9883 159.164 37.9648 158.684 37.9648C158.262 37.9648 157.646 37.9824 156.838 38.0176C156.041 38.0527 155.59 38.0703 155.484 38.0703C155.227 38.0703 155.01 37.9824 154.834 37.8066C154.658 37.6309 154.57 37.4082 154.57 37.1387C154.57 37.0098 154.617 36.8281 154.711 36.5938L165.275 21.002L158.578 21.1074C157.406 21.1426 156.779 21.9512 156.697 23.5332L156.627 24.9395C156.475 25.2207 156.211 25.3613 155.836 25.3613C155.461 25.3613 155.197 25.2207 155.045 24.9395L155.15 19.6836C155.15 19.5898 155.186 19.5137 155.256 19.4551C155.326 19.3848 155.414 19.3496 155.52 19.3496C155.555 19.3496 156.316 19.3672 157.805 19.4023C159.293 19.4258 160.846 19.4551 162.463 19.4902C164.08 19.5137 165.064 19.5254 165.416 19.5254C165.803 19.5254 166.277 19.502 166.84 19.4551C167.414 19.4082 167.742 19.3848 167.824 19.3848C168.059 19.3848 168.258 19.4785 168.422 19.666C168.598 19.8418 168.686 20.0586 168.686 20.3164C168.686 20.4688 168.615 20.6621 168.475 20.8965L157.893 36.4883ZM186.932 19.4902L189.955 19.3848C190.201 19.6309 190.324 19.918 190.324 20.2461C190.324 20.6445 190.201 20.9492 189.955 21.1602H188.232C188.021 21.1602 187.869 21.2656 187.775 21.4766L179.443 42.9746C179.045 44.0293 178.506 44.7969 177.826 45.2773C177.158 45.7578 176.449 45.998 175.699 45.998C175.043 45.998 174.51 45.8164 174.1 45.4531C173.689 45.0898 173.484 44.668 173.484 44.1875C173.484 43.7539 173.619 43.3789 173.889 43.0625C174.17 42.7578 174.498 42.6055 174.873 42.6055C175.178 42.6055 175.436 42.6641 175.646 42.7812C175.857 42.9102 176.004 43.0508 176.086 43.2031C176.18 43.3555 176.297 43.4902 176.438 43.6074C176.578 43.7363 176.742 43.8008 176.93 43.8008C177.234 43.8008 177.486 43.5254 177.686 42.9746L179.848 37.3145L173.836 21.6172C173.777 21.4414 173.713 21.3242 173.643 21.2656C173.584 21.1953 173.479 21.1602 173.326 21.1602H171.568C171.299 20.9258 171.164 20.6211 171.164 20.2461C171.164 19.9414 171.299 19.6543 171.568 19.3848L175.102 19.4902L179.408 19.3848C179.678 19.6191 179.812 19.9062 179.812 20.2461C179.812 20.6562 179.678 20.9609 179.408 21.1602H177C176.789 21.1602 176.684 21.2539 176.684 21.4414C176.684 21.5469 176.719 21.6875 176.789 21.8633L181.289 33.6406L185.279 23.2695C185.326 23.1523 185.391 22.9766 185.473 22.7422C185.566 22.5078 185.631 22.3379 185.666 22.2324C185.713 22.1152 185.754 21.9863 185.789 21.8457C185.836 21.7051 185.859 21.5938 185.859 21.5117C185.859 21.2773 185.725 21.1602 185.455 21.1602H182.977C182.719 20.9727 182.59 20.668 182.59 20.2461C182.59 19.8945 182.719 19.6074 182.977 19.3848L186.932 19.4902ZM195.721 37.9648L191.625 38.0703C191.332 37.8828 191.186 37.5957 191.186 37.209C191.186 36.834 191.332 36.5352 191.625 36.3125H194.139C194.279 36.3125 194.35 36.2246 194.35 36.0488V13.373C194.35 13.1855 194.268 13.0918 194.104 13.0918H191.625C191.332 12.9277 191.186 12.6406 191.186 12.2305C191.186 11.8203 191.332 11.5156 191.625 11.3164C191.953 11.3281 192.475 11.3574 193.189 11.4043C193.916 11.4512 194.344 11.4746 194.473 11.4746C194.789 11.4746 195.146 11.4219 195.545 11.3164C195.943 11.1992 196.219 11.1406 196.371 11.1406C196.898 11.1406 197.162 11.4395 197.162 12.0371V36.0488C197.162 36.2246 197.232 36.3125 197.373 36.3125H199.641C199.934 36.5117 200.08 36.8105 200.08 37.209C200.08 37.6191 199.934 37.9062 199.641 38.0703L195.721 37.9648ZM206.953 37.9648L202.998 38.0703C202.705 37.8828 202.559 37.5957 202.559 37.209C202.559 36.834 202.705 36.5352 202.998 36.3125H204.369C204.557 36.3125 204.65 36.2246 204.65 36.0488C204.65 35.9316 204.58 35.8027 204.439 35.6621L197.232 27.8926V27.5938L203.244 22.4434C203.314 22.3848 203.408 22.3086 203.525 22.2148C203.643 22.1211 203.736 22.0449 203.807 21.9863C203.877 21.9277 203.953 21.8633 204.035 21.793C204.117 21.7109 204.176 21.6406 204.211 21.582C204.246 21.5234 204.264 21.4648 204.264 21.4062C204.264 21.2422 204.141 21.1602 203.895 21.1602H201.768C201.51 20.9375 201.381 20.6328 201.381 20.2461C201.381 19.9297 201.51 19.6426 201.768 19.3848L205.688 19.4902L209.396 19.3848C209.666 19.6191 209.801 19.9062 209.801 20.2461C209.801 20.6211 209.666 20.9258 209.396 21.1602H207.674C207.416 21.1602 207.199 21.2305 207.023 21.3711L200.115 27.2422L208.113 35.9434C208.324 36.1895 208.588 36.3125 208.904 36.3125H210.873C211.166 36.5352 211.312 36.834 211.312 37.209C211.312 37.3613 211.271 37.5254 211.189 37.7012C211.107 37.877 211.002 38 210.873 38.0703L206.953 37.9648Z" fill="black"/>
</g>
<defs>
<filter id="filter0_d_347_11" x="0.5" y="0.5" width="326" height="63.5" filterUnits="userSpaceOnUse" color-interpolation-filters="sRGB">
<feFlood flood-opacity="0" result="BackgroundImageFix"/>
<feColorMatrix in="SourceAlpha" type="matrix" values="0 0 0 0 0 0 0 0 0 0 0 0 0 0 0 0 0 0 127 0" result="hardAlpha"/>
<feOffset dy="4"/>
<feGaussianBlur stdDeviation="2"/>
<feComposite in2="hardAlpha" operator="out"/>
<feColorMatrix type="matrix" values="0 0 0 0 0 0 0 0 0 0 0 0 0 0 0 0 0 0 0.25 0"/>
<feBlend mode="normal" in2="BackgroundImageFix" result="effect1_dropShadow_347_11"/>
<feBlend mode="normal" in="SourceGraphic" in2="effect1_dropShadow_347_11" result="shape"/>
</filter>
<filter id="filter1_d_347_11" x="119.246" y="11.1406" width="96.0664" height="43.209" filterUnits="userSpaceOnUse" color-interpolation-filters="sRGB">
<feFlood flood-opacity="0" result="BackgroundImageFix"/>
<feColorMatrix in="SourceAlpha" type="matrix" values="0 0 0 0 0 0 0 0 0 0 0 0 0 0 0 0 0 0 127 0" result="hardAlpha"/>
<feOffset dy="4"/>
<feGaussianBlur stdDeviation="2"/>
<feComposite in2="hardAlpha" operator="out"/>
<feColorMatrix type="matrix" values="0 0 0 0 0 0 0 0 0 0 0 0 0 0 0 0 0 0 0.25 0"/>
<feBlend mode="normal" in2="BackgroundImageFix" result="effect1_dropShadow_347_11"/>
<feBlend mode="normal" in="SourceGraphic" in2="effect1_dropShadow_347_11" result="shape"/>
</filter>
</defs>
</svg>
