<svg width="327" height="64" viewBox="0 0 327 64" fill="none" xmlns="http://www.w3.org/2000/svg">
<g filter="url(#filter0_d_347_13)">
<path d="M322 1H5V55.5H322V1Z" fill="white"/>
<path d="M322 1H5V55.5H322V1Z" stroke="black"/>
</g>
<g filter="url(#filter1_d_347_13)">
<path d="M134.084 20.4902L137.107 20.3848C137.354 20.6309 137.477 20.918 137.477 21.2461C137.477 21.6445 137.354 21.9492 137.107 22.1602H135.385C135.174 22.1602 135.021 22.2656 134.928 22.4766L126.596 43.9746C126.197 45.0293 125.658 45.7969 124.979 46.2773C124.311 46.7578 123.602 46.998 122.852 46.998C122.195 46.998 121.662 46.8164 121.252 46.4531C120.842 46.0898 120.637 45.668 120.637 45.1875C120.637 44.7539 120.771 44.3789 121.041 44.0625C121.322 43.7578 121.65 43.6055 122.025 43.6055C122.33 43.6055 122.588 43.6641 122.799 43.7812C123.01 43.9102 123.156 44.0508 123.238 44.2031C123.332 44.3555 123.449 44.4902 123.59 44.6074C123.73 44.7363 123.895 44.8008 124.082 44.8008C124.387 44.8008 124.639 44.5254 124.838 43.9746L127 38.3145L120.988 22.6172C120.93 22.4414 120.865 22.3242 120.795 22.2656C120.736 22.1953 120.631 22.1602 120.479 22.1602H118.721C118.451 21.9258 118.316 21.6211 118.316 21.2461C118.316 20.9414 118.451 20.6543 118.721 20.3848L122.254 20.4902L126.561 20.3848C126.83 20.6191 126.965 20.9062 126.965 21.2461C126.965 21.6562 126.83 21.9609 126.561 22.1602H124.152C123.941 22.1602 123.836 22.2539 123.836 22.4414C123.836 22.5469 123.871 22.6875 123.941 22.8633L128.441 34.6406L132.432 24.2695C132.479 24.1523 132.543 23.9766 132.625 23.7422C132.719 23.5078 132.783 23.3379 132.818 23.2324C132.865 23.1152 132.906 22.9863 132.941 22.8457C132.988 22.7051 133.012 22.5938 133.012 22.5117C133.012 22.2773 132.877 22.1602 132.607 22.1602H130.129C129.871 21.9727 129.742 21.668 129.742 21.2461C129.742 20.8945 129.871 20.6074 130.129 20.3848L134.084 20.4902ZM154.492 39.2461C154.234 39.2461 154.047 39.1758 153.93 39.0352C153.824 38.9062 153.771 38.6895 153.771 38.3848V35.5723C152.072 38.1973 149.793 39.5098 146.934 39.5098C145.387 39.5098 144.133 39.1055 143.172 38.2969C142.223 37.4883 141.748 36.4395 141.748 35.1504V22.4062C141.748 22.2422 141.678 22.1602 141.537 22.1602H139.023C138.73 21.9609 138.584 21.6562 138.584 21.2461C138.584 20.8711 138.73 20.584 139.023 20.3848C141.027 20.4551 142.047 20.4902 142.082 20.4902C142.387 20.4902 142.715 20.4727 143.066 20.4375C143.418 20.4023 143.676 20.3848 143.84 20.3848C144.098 20.3848 144.279 20.4551 144.385 20.5957C144.502 20.7246 144.561 20.9414 144.561 21.2461V34.8164C144.561 35.8125 144.824 36.5566 145.352 37.0488C145.891 37.5293 146.6 37.7695 147.479 37.7695C148.229 37.7695 148.92 37.6406 149.553 37.3828C150.197 37.1133 150.76 36.7324 151.24 36.2402C151.732 35.748 152.131 35.2852 152.436 34.8516C152.752 34.418 153.08 33.9023 153.42 33.3047V22.4062C153.42 22.2422 153.344 22.1602 153.191 22.1602H150.678C150.396 21.9727 150.256 21.668 150.256 21.2461C150.256 20.8594 150.396 20.5723 150.678 20.3848C152.682 20.4551 153.701 20.4902 153.736 20.4902C154.029 20.4902 154.357 20.4727 154.721 20.4375C155.084 20.4023 155.348 20.3848 155.512 20.3848C155.77 20.3848 155.951 20.4551 156.057 20.5957C156.174 20.7246 156.232 20.9414 156.232 21.2461V37.0137C156.232 37.2129 156.326 37.3125 156.514 37.3125H158.992C159.262 37.5117 159.396 37.8105 159.396 38.209C159.396 38.584 159.262 38.8711 158.992 39.0703C158.734 39.0586 158.395 39.041 157.973 39.0176C157.551 39.0059 157.188 38.9941 156.883 38.9824C156.578 38.9707 156.361 38.9648 156.232 38.9648C155.928 38.9648 155.6 39.0117 155.248 39.1055C154.896 39.1992 154.645 39.2461 154.492 39.2461ZM144.35 12.1758C144.502 12.1758 144.689 12.2637 144.912 12.4395L148.779 15.5332L152.629 12.4395C152.887 12.2637 153.074 12.1758 153.191 12.1758C153.332 12.1758 153.479 12.2402 153.631 12.3691C153.795 12.4863 153.877 12.627 153.877 12.791C153.877 12.9434 153.818 13.0781 153.701 13.1953L149.465 18.0469C149.289 18.2578 149.061 18.3633 148.779 18.3633C148.486 18.3633 148.27 18.2578 148.129 18.0469L143.84 13.1953C143.723 13.043 143.664 12.9082 143.664 12.791C143.664 12.627 143.74 12.4863 143.893 12.3691C144.057 12.2402 144.209 12.1758 144.35 12.1758ZM175.99 20.4902L179.014 20.3848C179.26 20.6309 179.383 20.918 179.383 21.2461C179.383 21.6445 179.26 21.9492 179.014 22.1602H177.291C177.08 22.1602 176.928 22.2656 176.834 22.4766L168.502 43.9746C168.104 45.0293 167.564 45.7969 166.885 46.2773C166.217 46.7578 165.508 46.998 164.758 46.998C164.102 46.998 163.568 46.8164 163.158 46.4531C162.748 46.0898 162.543 45.668 162.543 45.1875C162.543 44.7539 162.678 44.3789 162.947 44.0625C163.229 43.7578 163.557 43.6055 163.932 43.6055C164.236 43.6055 164.494 43.6641 164.705 43.7812C164.916 43.9102 165.062 44.0508 165.145 44.2031C165.238 44.3555 165.355 44.4902 165.496 44.6074C165.637 44.7363 165.801 44.8008 165.988 44.8008C166.293 44.8008 166.545 44.5254 166.744 43.9746L168.906 38.3145L162.895 22.6172C162.836 22.4414 162.771 22.3242 162.701 22.2656C162.643 22.1953 162.537 22.1602 162.385 22.1602H160.627C160.357 21.9258 160.223 21.6211 160.223 21.2461C160.223 20.9414 160.357 20.6543 160.627 20.3848L164.16 20.4902L168.467 20.3848C168.736 20.6191 168.871 20.9062 168.871 21.2461C168.871 21.6562 168.736 21.9609 168.467 22.1602H166.059C165.848 22.1602 165.742 22.2539 165.742 22.4414C165.742 22.5469 165.777 22.6875 165.848 22.8633L170.348 34.6406L174.338 24.2695C174.385 24.1523 174.449 23.9766 174.531 23.7422C174.625 23.5078 174.689 23.3379 174.725 23.2324C174.771 23.1152 174.812 22.9863 174.848 22.8457C174.895 22.7051 174.918 22.5938 174.918 22.5117C174.918 22.2773 174.783 22.1602 174.514 22.1602H172.035C171.777 21.9727 171.648 21.668 171.648 21.2461C171.648 20.8945 171.777 20.6074 172.035 20.3848L175.99 20.4902ZM192.426 35.5371H192.232C191.682 36.5684 190.902 37.4531 189.895 38.1914C188.887 38.918 187.727 39.2812 186.414 39.2812C184.832 39.2812 183.561 38.8125 182.6 37.875C181.639 36.9375 181.158 35.6953 181.158 34.1484C181.158 33.0469 181.404 32.0508 181.896 31.1602C182.389 30.2578 183.016 29.5254 183.777 28.9629C184.551 28.3887 185.436 27.9082 186.432 27.5215C187.428 27.1348 188.4 26.8594 189.35 26.6953C190.311 26.5312 191.248 26.4434 192.162 26.4316V24.0586C192.162 23.2031 191.881 22.5527 191.318 22.1074C190.756 21.6621 189.982 21.4395 188.998 21.4395C187.85 21.4395 186.912 21.5918 186.186 21.8965C185.471 22.2012 185.113 22.5234 185.113 22.8633C185.113 23.0156 185.178 23.2734 185.307 23.6367C185.436 23.9883 185.5 24.2871 185.5 24.5332C185.5 24.9551 185.336 25.3301 185.008 25.6582C184.691 25.9863 184.246 26.1504 183.672 26.1504C183.086 26.1504 182.617 25.9688 182.266 25.6055C181.926 25.2305 181.756 24.75 181.756 24.1641C181.756 23.3789 182.189 22.6465 183.057 21.9668C183.924 21.2871 184.943 20.7715 186.115 20.4199C187.299 20.0684 188.43 19.8926 189.508 19.8926C191.242 19.8926 192.584 20.2676 193.533 21.0176C194.494 21.7559 194.975 22.8926 194.975 24.4277V36.1523C194.975 36.9023 195.297 37.2773 195.941 37.2773C196.211 37.2773 196.451 37.1953 196.662 37.0312C196.885 36.8555 197.037 36.6973 197.119 36.5566C197.201 36.4043 197.312 36.1875 197.453 35.9062C197.652 35.4258 197.928 35.1855 198.279 35.1855C198.514 35.1855 198.695 35.2617 198.824 35.4141C198.965 35.5547 199.035 35.7539 199.035 36.0117C199.035 36.293 198.953 36.6094 198.789 36.9609C198.637 37.3008 198.414 37.6406 198.121 37.9805C197.84 38.3203 197.453 38.6074 196.961 38.8418C196.48 39.0645 195.953 39.1758 195.379 39.1758C193.41 39.1758 192.426 37.9629 192.426 35.5371ZM186.977 37.3125C188.406 37.3125 189.59 36.7324 190.527 35.5723C191.465 34.4121 192.01 33.0234 192.162 31.4062V27.9082C191.459 27.9199 190.75 27.9844 190.035 28.1016C189.332 28.2188 188.611 28.4238 187.873 28.7168C187.135 29.0098 186.484 29.373 185.922 29.8066C185.371 30.2285 184.914 30.7852 184.551 31.4766C184.199 32.168 184.023 32.9473 184.023 33.8145C184.023 36.1465 185.008 37.3125 186.977 37.3125ZM190.439 12.2812H193.428C193.568 12.2812 193.691 12.3398 193.797 12.457C193.914 12.5625 193.973 12.6855 193.973 12.8262C193.973 12.9785 193.896 13.1133 193.744 13.2305C192.244 14.4023 191.084 15.4922 190.264 16.5L188.928 18.1523C188.811 18.3281 188.641 18.416 188.418 18.416C188.254 18.416 188.096 18.3516 187.943 18.2227C187.803 18.0938 187.732 17.9531 187.732 17.8008C187.732 17.7656 187.738 17.7246 187.75 17.6777C187.773 17.6191 187.797 17.5605 187.82 17.502C187.855 17.4316 187.879 17.3848 187.891 17.3613L190.439 12.2812ZM217 38.9648L212.816 39.0703C212.535 38.918 212.395 38.6309 212.395 38.209C212.395 37.7988 212.535 37.5 212.816 37.3125H215.348C215.488 37.3125 215.559 37.2246 215.559 37.0488V24.5684C215.559 23.584 215.277 22.8457 214.715 22.3535C214.164 21.8613 213.449 21.6152 212.57 21.6152C210.168 21.6152 208.164 23.1035 206.559 26.0801V37.0488C206.559 37.2246 206.629 37.3125 206.77 37.3125H209.336C209.594 37.5 209.723 37.7988 209.723 38.209C209.723 38.6191 209.594 38.9062 209.336 39.0703L205.152 38.9648L201.004 39.0703C200.723 38.918 200.582 38.6309 200.582 38.209C200.582 37.7988 200.723 37.5 201.004 37.3125H203.535C203.676 37.3125 203.746 37.2246 203.746 37.0488V22.4414C203.746 22.2539 203.664 22.1602 203.5 22.1602H201.004C200.723 21.9727 200.582 21.6797 200.582 21.2812C200.582 20.8711 200.723 20.5723 201.004 20.3848C201.238 20.3965 201.572 20.4141 202.006 20.4375C202.439 20.4492 202.809 20.4609 203.113 20.4727C203.418 20.4844 203.629 20.4902 203.746 20.4902C204.062 20.4902 204.391 20.4434 204.73 20.3496C205.07 20.2559 205.316 20.209 205.469 20.209C205.738 20.209 205.926 20.2734 206.031 20.4023C206.137 20.5312 206.189 20.7539 206.189 21.0703V23.8828C207.936 21.2227 210.244 19.8926 213.115 19.8926C214.662 19.8926 215.922 20.3203 216.895 21.1758C217.879 22.0195 218.371 23.1387 218.371 24.5332V37.0488C218.371 37.2246 218.441 37.3125 218.582 37.3125H221.131C221.4 37.5117 221.535 37.8105 221.535 38.209C221.535 38.6191 221.4 38.9062 221.131 39.0703L217 38.9648Z" fill="black"/>
</g>
<defs>
<filter id="filter0_d_347_13" x="0.5" y="0.5" width="326" height="63.5" filterUnits="userSpaceOnUse" color-interpolation-filters="sRGB">
<feFlood flood-opacity="0" result="BackgroundImageFix"/>
<feColorMatrix in="SourceAlpha" type="matrix" values="0 0 0 0 0 0 0 0 0 0 0 0 0 0 0 0 0 0 127 0" result="hardAlpha"/>
<feOffset dy="4"/>
<feGaussianBlur stdDeviation="2"/>
<feComposite in2="hardAlpha" operator="out"/>
<feColorMatrix type="matrix" values="0 0 0 0 0 0 0 0 0 0 0 0 0 0 0 0 0 0 0.25 0"/>
<feBlend mode="normal" in2="BackgroundImageFix" result="effect1_dropShadow_347_13"/>
<feBlend mode="normal" in="SourceGraphic" in2="effect1_dropShadow_347_13" result="shape"/>
</filter>
<filter id="filter1_d_347_13" x="114.316" y="12.1758" width="111.219" height="42.8223" filterUnits="userSpaceOnUse" color-interpolation-filters="sRGB">
<feFlood flood-opacity="0" result="BackgroundImageFix"/>
<feColorMatrix in="SourceAlpha" type="matrix" values="0 0 0 0 0 0 0 0 0 0 0 0 0 0 0 0 0 0 127 0" result="hardAlpha"/>
<feOffset dy="4"/>
<feGaussianBlur stdDeviation="2"/>
<feComposite in2="hardAlpha" operator="out"/>
<feColorMatrix type="matrix" values="0 0 0 0 0 0 0 0 0 0 0 0 0 0 0 0 0 0 0.25 0"/>
<feBlend mode="normal" in2="BackgroundImageFix" result="effect1_dropShadow_347_13"/>
<feBlend mode="normal" in="SourceGraphic" in2="effect1_dropShadow_347_13" result="shape"/>
</filter>
</defs>
</svg>
