<svg width="327" height="64" viewBox="0 0 327 64" fill="none" xmlns="http://www.w3.org/2000/svg">
<g filter="url(#filter0_d_347_9)">
<path d="M322 1H5V55.5H322V1Z" fill="white"/>
<path d="M322 1H5V55.5H322V1Z" stroke="black"/>
</g>
<g filter="url(#filter1_d_347_9)">
<path d="M133.859 38.9648L129.676 39.0703C129.395 38.918 129.254 38.6309 129.254 38.209C129.254 37.7988 129.395 37.5 129.676 37.3125H132.207C132.348 37.3125 132.418 37.2246 132.418 37.0488V24.5684C132.418 23.584 132.137 22.8457 131.574 22.3535C131.023 21.8613 130.309 21.6152 129.43 21.6152C127.027 21.6152 125.023 23.1035 123.418 26.0801V37.0488C123.418 37.2246 123.488 37.3125 123.629 37.3125H126.195C126.453 37.5 126.582 37.7988 126.582 38.209C126.582 38.6191 126.453 38.9062 126.195 39.0703L122.012 38.9648L117.863 39.0703C117.582 38.918 117.441 38.6309 117.441 38.209C117.441 37.7988 117.582 37.5 117.863 37.3125H120.395C120.535 37.3125 120.605 37.2246 120.605 37.0488V22.4414C120.605 22.2539 120.523 22.1602 120.359 22.1602H117.863C117.582 21.9727 117.441 21.6797 117.441 21.2812C117.441 20.8711 117.582 20.5723 117.863 20.3848C118.098 20.3965 118.432 20.4141 118.865 20.4375C119.299 20.4492 119.668 20.4609 119.973 20.4727C120.277 20.4844 120.488 20.4902 120.605 20.4902C120.922 20.4902 121.25 20.4434 121.59 20.3496C121.93 20.2559 122.176 20.209 122.328 20.209C122.598 20.209 122.785 20.2734 122.891 20.4023C122.996 20.5312 123.049 20.7539 123.049 21.0703V23.8828C124.795 21.2227 127.104 19.8926 129.975 19.8926C131.521 19.8926 132.781 20.3203 133.754 21.1758C134.738 22.0195 135.23 23.1387 135.23 24.5332V37.0488C135.23 37.2246 135.301 37.3125 135.441 37.3125H137.99C138.26 37.5117 138.395 37.8105 138.395 38.209C138.395 38.6191 138.26 38.9062 137.99 39.0703L133.859 38.9648ZM154.584 20.4902L157.607 20.3848C157.854 20.6309 157.977 20.918 157.977 21.2461C157.977 21.6445 157.854 21.9492 157.607 22.1602H155.885C155.674 22.1602 155.521 22.2656 155.428 22.4766L147.096 43.9746C146.697 45.0293 146.158 45.7969 145.479 46.2773C144.811 46.7578 144.102 46.998 143.352 46.998C142.695 46.998 142.162 46.8164 141.752 46.4531C141.342 46.0898 141.137 45.668 141.137 45.1875C141.137 44.7539 141.271 44.3789 141.541 44.0625C141.822 43.7578 142.15 43.6055 142.525 43.6055C142.83 43.6055 143.088 43.6641 143.299 43.7812C143.51 43.9102 143.656 44.0508 143.738 44.2031C143.832 44.3555 143.949 44.4902 144.09 44.6074C144.23 44.7363 144.395 44.8008 144.582 44.8008C144.887 44.8008 145.139 44.5254 145.338 43.9746L147.5 38.3145L141.488 22.6172C141.43 22.4414 141.365 22.3242 141.295 22.2656C141.236 22.1953 141.131 22.1602 140.979 22.1602H139.221C138.951 21.9258 138.816 21.6211 138.816 21.2461C138.816 20.9414 138.951 20.6543 139.221 20.3848L142.754 20.4902L147.061 20.3848C147.33 20.6191 147.465 20.9062 147.465 21.2461C147.465 21.6562 147.33 21.9609 147.061 22.1602H144.652C144.441 22.1602 144.336 22.2539 144.336 22.4414C144.336 22.5469 144.371 22.6875 144.441 22.8633L148.941 34.6406L152.932 24.2695C152.979 24.1523 153.043 23.9766 153.125 23.7422C153.219 23.5078 153.283 23.3379 153.318 23.2324C153.365 23.1152 153.406 22.9863 153.441 22.8457C153.488 22.7051 153.512 22.5938 153.512 22.5117C153.512 22.2773 153.377 22.1602 153.107 22.1602H150.629C150.371 21.9727 150.242 21.668 150.242 21.2461C150.242 20.8945 150.371 20.6074 150.629 20.3848L154.584 20.4902ZM159.488 29.7891C159.488 27.9961 159.84 26.3438 160.543 24.832C161.258 23.3203 162.248 22.1191 163.514 21.2285C164.779 20.3379 166.186 19.8926 167.732 19.8926C168.729 19.8926 169.678 20.0801 170.58 20.4551C171.482 20.8301 172.297 21.375 173.023 22.0898C173.75 22.8047 174.33 23.7422 174.764 24.9023C175.197 26.0508 175.414 27.3398 175.414 28.7695C175.414 29.7539 174.91 30.2461 173.902 30.2461H162.67V30.4746C162.67 32.7129 163.15 34.5117 164.111 35.8711C165.072 37.2188 166.391 37.8926 168.066 37.8926C169.32 37.8926 170.457 37.4883 171.477 36.6797C172.508 35.8711 173.229 34.7988 173.639 33.4629C173.779 33.041 173.92 32.7305 174.061 32.5312C174.201 32.332 174.389 32.2324 174.623 32.2324C175.08 32.2324 175.309 32.5195 175.309 33.0938C175.309 33.3281 175.227 33.6797 175.062 34.1484C174.91 34.6172 174.723 35.0566 174.5 35.4668C173.914 36.6504 173.006 37.6348 171.775 38.4199C170.545 39.1934 169.162 39.5801 167.627 39.5801C166.49 39.5801 165.424 39.3516 164.428 38.8945C163.432 38.4375 162.57 37.793 161.844 36.9609C161.117 36.1289 160.543 35.0977 160.121 33.8672C159.699 32.625 159.488 31.2656 159.488 29.7891ZM162.74 28.5938H171.986C172.396 28.5938 172.602 28.3887 172.602 27.9785C172.602 26.1504 172.15 24.6152 171.248 23.373C170.346 22.1309 169.174 21.5098 167.732 21.5098C166.35 21.5098 165.195 22.1719 164.27 23.4961C163.355 24.8086 162.846 26.5078 162.74 28.5938ZM182.709 38.9648L178.613 39.0703C178.32 38.8828 178.174 38.5957 178.174 38.209C178.174 37.834 178.32 37.5352 178.613 37.3125H181.127C181.268 37.3125 181.338 37.2246 181.338 37.0488V14.373C181.338 14.1855 181.256 14.0918 181.092 14.0918H178.613C178.32 13.9277 178.174 13.6406 178.174 13.2305C178.174 12.8203 178.32 12.5156 178.613 12.3164C178.941 12.3281 179.463 12.3574 180.178 12.4043C180.904 12.4512 181.332 12.4746 181.461 12.4746C181.777 12.4746 182.135 12.4219 182.533 12.3164C182.932 12.1992 183.207 12.1406 183.359 12.1406C183.887 12.1406 184.15 12.4395 184.15 13.0371V37.0488C184.15 37.2246 184.221 37.3125 184.361 37.3125H186.893C187.174 37.5234 187.314 37.8223 187.314 38.209C187.314 38.6074 187.174 38.8945 186.893 39.0703L182.709 38.9648ZM198.477 35.0098L202.625 24.2344C202.672 24.1055 202.73 23.9355 202.801 23.7246C202.883 23.502 202.941 23.332 202.977 23.2148C203.023 23.0977 203.064 22.9746 203.1 22.8457C203.135 22.7051 203.152 22.5938 203.152 22.5117C203.152 22.2773 203.023 22.1602 202.766 22.1602H200.199C199.918 21.9727 199.777 21.668 199.777 21.2461C199.777 20.8945 199.918 20.6074 200.199 20.3848L204.277 20.4902L207.266 20.3848C207.523 20.6074 207.652 20.8945 207.652 21.2461C207.652 21.668 207.523 21.9727 207.266 22.1602H205.543C205.332 22.1602 205.174 22.2656 205.068 22.4766L198.758 38.7891C198.594 39.1992 198.318 39.4043 197.932 39.4043C197.545 39.4043 197.27 39.1992 197.105 38.7891L190.883 22.6523C190.789 22.3242 190.619 22.1602 190.373 22.1602H188.615C188.346 21.9609 188.211 21.6562 188.211 21.2461C188.211 20.9062 188.346 20.6191 188.615 20.3848L192.043 20.4902L196.648 20.3848C196.906 20.6074 197.035 20.8945 197.035 21.2461C197.035 21.668 196.906 21.9727 196.648 22.1602H194.047C193.812 22.1602 193.695 22.2539 193.695 22.4414L193.801 22.8633L198.477 35.0098Z" fill="black"/>
</g>
<defs>
<filter id="filter0_d_347_9" x="0.5" y="0.5" width="326" height="63.5" filterUnits="userSpaceOnUse" color-interpolation-filters="sRGB">
<feFlood flood-opacity="0" result="BackgroundImageFix"/>
<feColorMatrix in="SourceAlpha" type="matrix" values="0 0 0 0 0 0 0 0 0 0 0 0 0 0 0 0 0 0 127 0" result="hardAlpha"/>
<feOffset dy="4"/>
<feGaussianBlur stdDeviation="2"/>
<feComposite in2="hardAlpha" operator="out"/>
<feColorMatrix type="matrix" values="0 0 0 0 0 0 0 0 0 0 0 0 0 0 0 0 0 0 0.25 0"/>
<feBlend mode="normal" in2="BackgroundImageFix" result="effect1_dropShadow_347_9"/>
<feBlend mode="normal" in="SourceGraphic" in2="effect1_dropShadow_347_9" result="shape"/>
</filter>
<filter id="filter1_d_347_9" x="113.441" y="12.1406" width="98.2109" height="42.8574" filterUnits="userSpaceOnUse" color-interpolation-filters="sRGB">
<feFlood flood-opacity="0" result="BackgroundImageFix"/>
<feColorMatrix in="SourceAlpha" type="matrix" values="0 0 0 0 0 0 0 0 0 0 0 0 0 0 0 0 0 0 127 0" result="hardAlpha"/>
<feOffset dy="4"/>
<feGaussianBlur stdDeviation="2"/>
<feComposite in2="hardAlpha" operator="out"/>
<feColorMatrix type="matrix" values="0 0 0 0 0 0 0 0 0 0 0 0 0 0 0 0 0 0 0.25 0"/>
<feBlend mode="normal" in2="BackgroundImageFix" result="effect1_dropShadow_347_9"/>
<feBlend mode="normal" in="SourceGraphic" in2="effect1_dropShadow_347_9" result="shape"/>
</filter>
</defs>
</svg>
