<svg width="327" height="64" viewBox="0 0 327 64" fill="none" xmlns="http://www.w3.org/2000/svg">
<g filter="url(#filter0_d_347_10)">
<path d="M322 1H5V55.5H322V1Z" fill="white"/>
<path d="M322 1H5V55.5H322V1Z" stroke="black"/>
</g>
<g filter="url(#filter1_d_347_10)">
<path d="M88.4316 37.9648L84.3359 38.0703C84.043 37.8828 83.8965 37.5957 83.8965 37.209C83.8965 36.834 84.043 36.5352 84.3359 36.3125H86.8496C86.9902 36.3125 87.0605 36.2246 87.0605 36.0488V13.373C87.0605 13.1855 86.9785 13.0918 86.8145 13.0918H84.3359C84.043 12.9277 83.8965 12.6406 83.8965 12.2305C83.8965 11.8203 84.043 11.5156 84.3359 11.3164C84.6641 11.3281 85.1855 11.3574 85.9004 11.4043C86.627 11.4512 87.0547 11.4746 87.1836 11.4746C87.5 11.4746 87.8574 11.4219 88.2559 11.3164C88.6543 11.1992 88.9297 11.1406 89.082 11.1406C89.6094 11.1406 89.873 11.4395 89.873 12.0371V36.0488C89.873 36.2246 89.9434 36.3125 90.084 36.3125H92.6152C92.8965 36.5234 93.0371 36.8223 93.0371 37.209C93.0371 37.6074 92.8965 37.8945 92.6152 38.0703L88.4316 37.9648ZM107.117 34.5371H106.924C106.373 35.5684 105.594 36.4531 104.586 37.1914C103.578 37.918 102.418 38.2812 101.105 38.2812C99.5234 38.2812 98.252 37.8125 97.291 36.875C96.3301 35.9375 95.8496 34.6953 95.8496 33.1484C95.8496 32.0469 96.0957 31.0508 96.5879 30.1602C97.0801 29.2578 97.707 28.5254 98.4688 27.9629C99.2422 27.3887 100.127 26.9082 101.123 26.5215C102.119 26.1348 103.092 25.8594 104.041 25.6953C105.002 25.5312 105.939 25.4434 106.854 25.4316V23.0586C106.854 22.2031 106.572 21.5527 106.01 21.1074C105.447 20.6621 104.674 20.4395 103.689 20.4395C102.541 20.4395 101.604 20.5918 100.877 20.8965C100.162 21.2012 99.8047 21.5234 99.8047 21.8633C99.8047 22.0156 99.8691 22.2734 99.998 22.6367C100.127 22.9883 100.191 23.2871 100.191 23.5332C100.191 23.9551 100.027 24.3301 99.6992 24.6582C99.3828 24.9863 98.9375 25.1504 98.3633 25.1504C97.7773 25.1504 97.3086 24.9688 96.957 24.6055C96.6172 24.2305 96.4473 23.75 96.4473 23.1641C96.4473 22.3789 96.8809 21.6465 97.748 20.9668C98.6152 20.2871 99.6348 19.7715 100.807 19.4199C101.99 19.0684 103.121 18.8926 104.199 18.8926C105.934 18.8926 107.275 19.2676 108.225 20.0176C109.186 20.7559 109.666 21.8926 109.666 23.4277V35.1523C109.666 35.9023 109.988 36.2773 110.633 36.2773C110.902 36.2773 111.143 36.1953 111.354 36.0312C111.576 35.8555 111.729 35.6973 111.811 35.5566C111.893 35.4043 112.004 35.1875 112.145 34.9062C112.344 34.4258 112.619 34.1855 112.971 34.1855C113.205 34.1855 113.387 34.2617 113.516 34.4141C113.656 34.5547 113.727 34.7539 113.727 35.0117C113.727 35.293 113.645 35.6094 113.48 35.9609C113.328 36.3008 113.105 36.6406 112.812 36.9805C112.531 37.3203 112.145 37.6074 111.652 37.8418C111.172 38.0645 110.645 38.1758 110.07 38.1758C108.102 38.1758 107.117 36.9629 107.117 34.5371ZM101.668 36.3125C103.098 36.3125 104.281 35.7324 105.219 34.5723C106.156 33.4121 106.701 32.0234 106.854 30.4062V26.9082C106.15 26.9199 105.441 26.9844 104.727 27.1016C104.023 27.2188 103.303 27.4238 102.564 27.7168C101.826 28.0098 101.176 28.373 100.613 28.8066C100.062 29.2285 99.6055 29.7852 99.2422 30.4766C98.8906 31.168 98.7148 31.9473 98.7148 32.8145C98.7148 35.1465 99.6992 36.3125 101.668 36.3125ZM131.691 37.9648L127.508 38.0703C127.227 37.918 127.086 37.6309 127.086 37.209C127.086 36.7988 127.227 36.5 127.508 36.3125H130.039C130.18 36.3125 130.25 36.2246 130.25 36.0488V23.5684C130.25 22.584 129.969 21.8457 129.406 21.3535C128.855 20.8613 128.141 20.6152 127.262 20.6152C124.859 20.6152 122.855 22.1035 121.25 25.0801V36.0488C121.25 36.2246 121.32 36.3125 121.461 36.3125H124.027C124.285 36.5 124.414 36.7988 124.414 37.209C124.414 37.6191 124.285 37.9062 124.027 38.0703L119.844 37.9648L115.695 38.0703C115.414 37.918 115.273 37.6309 115.273 37.209C115.273 36.7988 115.414 36.5 115.695 36.3125H118.227C118.367 36.3125 118.438 36.2246 118.438 36.0488V21.4414C118.438 21.2539 118.355 21.1602 118.191 21.1602H115.695C115.414 20.9727 115.273 20.6797 115.273 20.2812C115.273 19.8711 115.414 19.5723 115.695 19.3848C115.93 19.3965 116.264 19.4141 116.697 19.4375C117.131 19.4492 117.5 19.4609 117.805 19.4727C118.109 19.4844 118.32 19.4902 118.438 19.4902C118.754 19.4902 119.082 19.4434 119.422 19.3496C119.762 19.2559 120.008 19.209 120.16 19.209C120.43 19.209 120.617 19.2734 120.723 19.4023C120.828 19.5312 120.881 19.7539 120.881 20.0703V22.8828C122.627 20.2227 124.936 18.8926 127.807 18.8926C129.354 18.8926 130.613 19.3203 131.586 20.1758C132.57 21.0195 133.062 22.1387 133.062 23.5332V36.0488C133.062 36.2246 133.133 36.3125 133.273 36.3125H135.822C136.092 36.5117 136.227 36.8105 136.227 37.209C136.227 37.6191 136.092 37.9062 135.822 38.0703L131.691 37.9648ZM139.232 34.6953C139.232 33.9219 139.484 33.2129 139.988 32.5684C140.504 31.9121 141.189 31.4316 142.045 31.127C140.357 29.8262 139.514 27.9863 139.514 25.6074C139.514 23.498 140.188 21.8516 141.535 20.668C142.883 19.4844 144.611 18.8926 146.721 18.8926C148.01 18.8926 149.182 19.1387 150.236 19.6309C151.303 20.123 152.158 20.832 152.803 21.7578C153.131 20.9258 153.594 20.2402 154.191 19.7012C154.789 19.1621 155.469 18.8926 156.23 18.8926C156.922 18.8926 157.514 19.1094 158.006 19.543C158.498 19.9648 158.744 20.5273 158.744 21.2305C158.744 21.793 158.604 22.2031 158.322 22.4609C158.053 22.7188 157.736 22.8477 157.373 22.8477C157.057 22.8477 156.793 22.7656 156.582 22.6016C156.371 22.4375 156.219 22.2559 156.125 22.0566C156.043 21.8574 155.914 21.6758 155.738 21.5117C155.574 21.3477 155.363 21.2656 155.105 21.2656C154.707 21.2656 154.355 21.459 154.051 21.8457C153.758 22.2207 153.57 22.6484 153.488 23.1289C153.805 24.0195 153.963 24.8984 153.963 25.7656C153.963 27.875 153.283 29.5332 151.924 30.7402C150.564 31.9355 148.83 32.5332 146.721 32.5332C145.514 32.5332 144.447 32.3398 143.521 31.9531C142.771 32.0703 142.215 32.3105 141.852 32.6738C141.5 33.0371 141.324 33.4707 141.324 33.9746C141.324 34.6191 141.547 35.0879 141.992 35.3809C142.438 35.6738 143.293 35.8379 144.559 35.873L151.186 35.9785C152.018 35.9902 152.744 36.0547 153.365 36.1719C153.986 36.2773 154.555 36.4648 155.07 36.7344C155.598 36.9922 155.996 37.3672 156.266 37.8594C156.547 38.3516 156.688 38.9492 156.688 39.6523C156.688 40.9766 156.207 42.1543 155.246 43.1855C154.285 44.2168 153.014 45.002 151.432 45.541C149.861 46.0801 148.145 46.3496 146.281 46.3496C144.09 46.3496 142.262 45.9453 140.797 45.1367C139.344 44.3281 138.617 43.2676 138.617 41.9551C138.617 41.1348 138.975 40.4082 139.689 39.7754C140.416 39.1426 141.383 38.6328 142.59 38.2461C141.418 38.0234 140.562 37.584 140.023 36.9277C139.496 36.2598 139.232 35.5156 139.232 34.6953ZM146.721 30.9863C148.045 30.9863 149.088 30.5527 149.85 29.6855C150.623 28.8066 151.01 27.5 151.01 25.7656C151.01 23.9961 150.623 22.6602 149.85 21.7578C149.088 20.8555 148.045 20.4043 146.721 20.4043C145.408 20.4043 144.371 20.8438 143.609 21.7227C142.848 22.5898 142.467 23.8848 142.467 25.6074C142.467 27.377 142.848 28.7188 143.609 29.6328C144.383 30.5352 145.42 30.9863 146.721 30.9863ZM151.361 38.5801L144.77 38.4043C143.586 38.8027 142.678 39.3008 142.045 39.8984C141.424 40.4961 141.113 41.123 141.113 41.7793C141.113 42.6699 141.576 43.3906 142.502 43.9414C143.428 44.4922 144.717 44.7676 146.369 44.7676C148.596 44.7676 150.494 44.3105 152.064 43.3965C153.635 42.4824 154.42 41.3809 154.42 40.0918C154.42 39.7754 154.344 39.5117 154.191 39.3008C154.051 39.1016 153.828 38.9492 153.523 38.8438C153.23 38.75 152.92 38.6855 152.592 38.6504C152.275 38.6152 151.865 38.5918 151.361 38.5801ZM175.32 38.2461C175.062 38.2461 174.875 38.1758 174.758 38.0352C174.652 37.9062 174.6 37.6895 174.6 37.3848V34.5723C172.9 37.1973 170.621 38.5098 167.762 38.5098C166.215 38.5098 164.961 38.1055 164 37.2969C163.051 36.4883 162.576 35.4395 162.576 34.1504V21.4062C162.576 21.2422 162.506 21.1602 162.365 21.1602H159.852C159.559 20.9609 159.412 20.6562 159.412 20.2461C159.412 19.8711 159.559 19.584 159.852 19.3848C161.855 19.4551 162.875 19.4902 162.91 19.4902C163.215 19.4902 163.543 19.4727 163.895 19.4375C164.246 19.4023 164.504 19.3848 164.668 19.3848C164.926 19.3848 165.107 19.4551 165.213 19.5957C165.33 19.7246 165.389 19.9414 165.389 20.2461V33.8164C165.389 34.8125 165.652 35.5566 166.18 36.0488C166.719 36.5293 167.428 36.7695 168.307 36.7695C169.057 36.7695 169.748 36.6406 170.381 36.3828C171.025 36.1133 171.588 35.7324 172.068 35.2402C172.561 34.748 172.959 34.2852 173.264 33.8516C173.58 33.418 173.908 32.9023 174.248 32.3047V21.4062C174.248 21.2422 174.172 21.1602 174.02 21.1602H171.506C171.225 20.9727 171.084 20.668 171.084 20.2461C171.084 19.8594 171.225 19.5723 171.506 19.3848C173.51 19.4551 174.529 19.4902 174.564 19.4902C174.857 19.4902 175.186 19.4727 175.549 19.4375C175.912 19.4023 176.176 19.3848 176.34 19.3848C176.598 19.3848 176.779 19.4551 176.885 19.5957C177.002 19.7246 177.061 19.9414 177.061 20.2461V36.0137C177.061 36.2129 177.154 36.3125 177.342 36.3125H179.82C180.09 36.5117 180.225 36.8105 180.225 37.209C180.225 37.584 180.09 37.8711 179.82 38.0703C179.562 38.0586 179.223 38.041 178.801 38.0176C178.379 38.0059 178.016 37.9941 177.711 37.9824C177.406 37.9707 177.189 37.9648 177.061 37.9648C176.756 37.9648 176.428 38.0117 176.076 38.1055C175.725 38.1992 175.473 38.2461 175.32 38.2461ZM194.27 34.5371H194.076C193.525 35.5684 192.746 36.4531 191.738 37.1914C190.73 37.918 189.57 38.2812 188.258 38.2812C186.676 38.2812 185.404 37.8125 184.443 36.875C183.482 35.9375 183.002 34.6953 183.002 33.1484C183.002 32.0469 183.248 31.0508 183.74 30.1602C184.232 29.2578 184.859 28.5254 185.621 27.9629C186.395 27.3887 187.279 26.9082 188.275 26.5215C189.271 26.1348 190.244 25.8594 191.193 25.6953C192.154 25.5312 193.092 25.4434 194.006 25.4316V23.0586C194.006 22.2031 193.725 21.5527 193.162 21.1074C192.6 20.6621 191.826 20.4395 190.842 20.4395C189.693 20.4395 188.756 20.5918 188.029 20.8965C187.314 21.2012 186.957 21.5234 186.957 21.8633C186.957 22.0156 187.021 22.2734 187.15 22.6367C187.279 22.9883 187.344 23.2871 187.344 23.5332C187.344 23.9551 187.18 24.3301 186.852 24.6582C186.535 24.9863 186.09 25.1504 185.516 25.1504C184.93 25.1504 184.461 24.9688 184.109 24.6055C183.77 24.2305 183.6 23.75 183.6 23.1641C183.6 22.3789 184.033 21.6465 184.9 20.9668C185.768 20.2871 186.787 19.7715 187.959 19.4199C189.143 19.0684 190.273 18.8926 191.352 18.8926C193.086 18.8926 194.428 19.2676 195.377 20.0176C196.338 20.7559 196.818 21.8926 196.818 23.4277V35.1523C196.818 35.9023 197.141 36.2773 197.785 36.2773C198.055 36.2773 198.295 36.1953 198.506 36.0312C198.729 35.8555 198.881 35.6973 198.963 35.5566C199.045 35.4043 199.156 35.1875 199.297 34.9062C199.496 34.4258 199.771 34.1855 200.123 34.1855C200.357 34.1855 200.539 34.2617 200.668 34.4141C200.809 34.5547 200.879 34.7539 200.879 35.0117C200.879 35.293 200.797 35.6094 200.633 35.9609C200.48 36.3008 200.258 36.6406 199.965 36.9805C199.684 37.3203 199.297 37.6074 198.805 37.8418C198.324 38.0645 197.797 38.1758 197.223 38.1758C195.254 38.1758 194.27 36.9629 194.27 34.5371ZM188.82 36.3125C190.25 36.3125 191.434 35.7324 192.371 34.5723C193.309 33.4121 193.854 32.0234 194.006 30.4062V26.9082C193.303 26.9199 192.594 26.9844 191.879 27.1016C191.176 27.2188 190.455 27.4238 189.717 27.7168C188.979 28.0098 188.328 28.373 187.766 28.8066C187.215 29.2285 186.758 29.7852 186.395 30.4766C186.043 31.168 185.867 31.9473 185.867 32.8145C185.867 35.1465 186.852 36.3125 188.82 36.3125ZM203.287 34.6953C203.287 33.9219 203.539 33.2129 204.043 32.5684C204.559 31.9121 205.244 31.4316 206.1 31.127C204.412 29.8262 203.568 27.9863 203.568 25.6074C203.568 23.498 204.242 21.8516 205.59 20.668C206.938 19.4844 208.666 18.8926 210.775 18.8926C212.064 18.8926 213.236 19.1387 214.291 19.6309C215.357 20.123 216.213 20.832 216.857 21.7578C217.186 20.9258 217.648 20.2402 218.246 19.7012C218.844 19.1621 219.523 18.8926 220.285 18.8926C220.977 18.8926 221.568 19.1094 222.061 19.543C222.553 19.9648 222.799 20.5273 222.799 21.2305C222.799 21.793 222.658 22.2031 222.377 22.4609C222.107 22.7188 221.791 22.8477 221.428 22.8477C221.111 22.8477 220.848 22.7656 220.637 22.6016C220.426 22.4375 220.273 22.2559 220.18 22.0566C220.098 21.8574 219.969 21.6758 219.793 21.5117C219.629 21.3477 219.418 21.2656 219.16 21.2656C218.762 21.2656 218.41 21.459 218.105 21.8457C217.812 22.2207 217.625 22.6484 217.543 23.1289C217.859 24.0195 218.018 24.8984 218.018 25.7656C218.018 27.875 217.338 29.5332 215.979 30.7402C214.619 31.9355 212.885 32.5332 210.775 32.5332C209.568 32.5332 208.502 32.3398 207.576 31.9531C206.826 32.0703 206.27 32.3105 205.906 32.6738C205.555 33.0371 205.379 33.4707 205.379 33.9746C205.379 34.6191 205.602 35.0879 206.047 35.3809C206.492 35.6738 207.348 35.8379 208.613 35.873L215.24 35.9785C216.072 35.9902 216.799 36.0547 217.42 36.1719C218.041 36.2773 218.609 36.4648 219.125 36.7344C219.652 36.9922 220.051 37.3672 220.32 37.8594C220.602 38.3516 220.742 38.9492 220.742 39.6523C220.742 40.9766 220.262 42.1543 219.301 43.1855C218.34 44.2168 217.068 45.002 215.486 45.541C213.916 46.0801 212.199 46.3496 210.336 46.3496C208.145 46.3496 206.316 45.9453 204.852 45.1367C203.398 44.3281 202.672 43.2676 202.672 41.9551C202.672 41.1348 203.029 40.4082 203.744 39.7754C204.471 39.1426 205.438 38.6328 206.645 38.2461C205.473 38.0234 204.617 37.584 204.078 36.9277C203.551 36.2598 203.287 35.5156 203.287 34.6953ZM210.775 30.9863C212.1 30.9863 213.143 30.5527 213.904 29.6855C214.678 28.8066 215.064 27.5 215.064 25.7656C215.064 23.9961 214.678 22.6602 213.904 21.7578C213.143 20.8555 212.1 20.4043 210.775 20.4043C209.463 20.4043 208.426 20.8438 207.664 21.7227C206.902 22.5898 206.521 23.8848 206.521 25.6074C206.521 27.377 206.902 28.7188 207.664 29.6328C208.438 30.5352 209.475 30.9863 210.775 30.9863ZM215.416 38.5801L208.824 38.4043C207.641 38.8027 206.732 39.3008 206.1 39.8984C205.479 40.4961 205.168 41.123 205.168 41.7793C205.168 42.6699 205.631 43.3906 206.557 43.9414C207.482 44.4922 208.771 44.7676 210.424 44.7676C212.65 44.7676 214.549 44.3105 216.119 43.3965C217.689 42.4824 218.475 41.3809 218.475 40.0918C218.475 39.7754 218.398 39.5117 218.246 39.3008C218.105 39.1016 217.883 38.9492 217.578 38.8438C217.285 38.75 216.975 38.6855 216.646 38.6504C216.33 38.6152 215.92 38.5918 215.416 38.5801ZM224.047 28.7891C224.047 26.9961 224.398 25.3438 225.102 23.832C225.816 22.3203 226.807 21.1191 228.072 20.2285C229.338 19.3379 230.744 18.8926 232.291 18.8926C233.287 18.8926 234.236 19.0801 235.139 19.4551C236.041 19.8301 236.855 20.375 237.582 21.0898C238.309 21.8047 238.889 22.7422 239.322 23.9023C239.756 25.0508 239.973 26.3398 239.973 27.7695C239.973 28.7539 239.469 29.2461 238.461 29.2461H227.229V29.4746C227.229 31.7129 227.709 33.5117 228.67 34.8711C229.631 36.2188 230.949 36.8926 232.625 36.8926C233.879 36.8926 235.016 36.4883 236.035 35.6797C237.066 34.8711 237.787 33.7988 238.197 32.4629C238.338 32.041 238.479 31.7305 238.619 31.5312C238.76 31.332 238.947 31.2324 239.182 31.2324C239.639 31.2324 239.867 31.5195 239.867 32.0938C239.867 32.3281 239.785 32.6797 239.621 33.1484C239.469 33.6172 239.281 34.0566 239.059 34.4668C238.473 35.6504 237.564 36.6348 236.334 37.4199C235.104 38.1934 233.721 38.5801 232.186 38.5801C231.049 38.5801 229.982 38.3516 228.986 37.8945C227.99 37.4375 227.129 36.793 226.402 35.9609C225.676 35.1289 225.102 34.0977 224.68 32.8672C224.258 31.625 224.047 30.2656 224.047 28.7891ZM227.299 27.5938H236.545C236.955 27.5938 237.16 27.3887 237.16 26.9785C237.16 25.1504 236.709 23.6152 235.807 22.373C234.904 21.1309 233.732 20.5098 232.291 20.5098C230.908 20.5098 229.754 21.1719 228.828 22.4961C227.914 23.8086 227.404 25.5078 227.299 27.5938Z" fill="black"/>
</g>
<defs>
<filter id="filter0_d_347_10" x="0.5" y="0.5" width="326" height="63.5" filterUnits="userSpaceOnUse" color-interpolation-filters="sRGB">
<feFlood flood-opacity="0" result="BackgroundImageFix"/>
<feColorMatrix in="SourceAlpha" type="matrix" values="0 0 0 0 0 0 0 0 0 0 0 0 0 0 0 0 0 0 127 0" result="hardAlpha"/>
<feOffset dy="4"/>
<feGaussianBlur stdDeviation="2"/>
<feComposite in2="hardAlpha" operator="out"/>
<feColorMatrix type="matrix" values="0 0 0 0 0 0 0 0 0 0 0 0 0 0 0 0 0 0 0.25 0"/>
<feBlend mode="normal" in2="BackgroundImageFix" result="effect1_dropShadow_347_10"/>
<feBlend mode="normal" in="SourceGraphic" in2="effect1_dropShadow_347_10" result="shape"/>
</filter>
<filter id="filter1_d_347_10" x="79.8965" y="11.1406" width="164.076" height="43.209" filterUnits="userSpaceOnUse" color-interpolation-filters="sRGB">
<feFlood flood-opacity="0" result="BackgroundImageFix"/>
<feColorMatrix in="SourceAlpha" type="matrix" values="0 0 0 0 0 0 0 0 0 0 0 0 0 0 0 0 0 0 127 0" result="hardAlpha"/>
<feOffset dy="4"/>
<feGaussianBlur stdDeviation="2"/>
<feComposite in2="hardAlpha" operator="out"/>
<feColorMatrix type="matrix" values="0 0 0 0 0 0 0 0 0 0 0 0 0 0 0 0 0 0 0.25 0"/>
<feBlend mode="normal" in2="BackgroundImageFix" result="effect1_dropShadow_347_10"/>
<feBlend mode="normal" in="SourceGraphic" in2="effect1_dropShadow_347_10" result="shape"/>
</filter>
</defs>
</svg>
