<svg width="327" height="64" viewBox="0 0 327 64" fill="none" xmlns="http://www.w3.org/2000/svg">
<g filter="url(#filter0_d_347_14)">
<path d="M322 1H5V55.5H322V1Z" fill="white"/>
<path d="M322 1H5V55.5H322V1Z" stroke="black"/>
</g>
<g filter="url(#filter1_d_347_14)">
<path d="M115.432 37.9648L111.336 38.0703C111.043 37.8828 110.896 37.5957 110.896 37.209C110.896 36.834 111.043 36.5352 111.336 36.3125H113.85C113.99 36.3125 114.061 36.2246 114.061 36.0488V13.373C114.061 13.1855 113.979 13.0918 113.814 13.0918H111.336C111.043 12.9277 110.896 12.6406 110.896 12.2305C110.896 11.8203 111.043 11.5156 111.336 11.3164C111.664 11.3281 112.186 11.3574 112.9 11.4043C113.627 11.4512 114.055 11.4746 114.184 11.4746C114.5 11.4746 114.857 11.4219 115.256 11.3164C115.654 11.1992 115.93 11.1406 116.082 11.1406C116.609 11.1406 116.873 11.4395 116.873 12.0371V36.0488C116.873 36.2246 116.943 36.3125 117.084 36.3125H119.615C119.896 36.5234 120.037 36.8223 120.037 37.209C120.037 37.6074 119.896 37.8945 119.615 38.0703L115.432 37.9648ZM126.945 37.9648L122.85 38.0703C122.557 37.8828 122.41 37.5957 122.41 37.209C122.41 36.834 122.557 36.5352 122.85 36.3125H125.363C125.504 36.3125 125.574 36.2246 125.574 36.0488V21.4414C125.574 21.2539 125.492 21.1602 125.328 21.1602H122.85C122.557 20.9609 122.41 20.668 122.41 20.2812C122.41 19.8828 122.557 19.584 122.85 19.3848C123.072 19.3965 123.412 19.4141 123.869 19.4375C124.326 19.4492 124.713 19.4609 125.029 19.4727C125.346 19.4844 125.562 19.4902 125.68 19.4902C125.996 19.4902 126.348 19.4434 126.734 19.3496C127.133 19.2559 127.408 19.209 127.561 19.209C128.111 19.209 128.387 19.4961 128.387 20.0703V36.0488C128.387 36.2246 128.457 36.3125 128.598 36.3125H131.129C131.41 36.5234 131.551 36.8223 131.551 37.209C131.551 37.6074 131.41 37.8945 131.129 38.0703L126.945 37.9648ZM126.98 15.7461C126.418 15.7461 125.938 15.5586 125.539 15.1836C125.152 14.7969 124.959 14.3281 124.959 13.7773C124.959 13.2383 125.158 12.7871 125.557 12.4238C125.955 12.0488 126.43 11.8613 126.98 11.8613C127.555 11.8613 128.035 12.0488 128.422 12.4238C128.809 12.7871 129.002 13.2383 129.002 13.7773C129.002 14.3281 128.809 14.7969 128.422 15.1836C128.035 15.5586 127.555 15.7461 126.98 15.7461ZM150.324 37.9648L146.141 38.0703C145.859 37.918 145.719 37.6309 145.719 37.209C145.719 36.7988 145.859 36.5 146.141 36.3125H148.672C148.812 36.3125 148.883 36.2246 148.883 36.0488V23.5684C148.883 22.584 148.602 21.8457 148.039 21.3535C147.488 20.8613 146.773 20.6152 145.895 20.6152C143.492 20.6152 141.488 22.1035 139.883 25.0801V36.0488C139.883 36.2246 139.953 36.3125 140.094 36.3125H142.66C142.918 36.5 143.047 36.7988 143.047 37.209C143.047 37.6191 142.918 37.9062 142.66 38.0703L138.477 37.9648L134.328 38.0703C134.047 37.918 133.906 37.6309 133.906 37.209C133.906 36.7988 134.047 36.5 134.328 36.3125H136.859C137 36.3125 137.07 36.2246 137.07 36.0488V21.4414C137.07 21.2539 136.988 21.1602 136.824 21.1602H134.328C134.047 20.9727 133.906 20.6797 133.906 20.2812C133.906 19.8711 134.047 19.5723 134.328 19.3848C134.562 19.3965 134.896 19.4141 135.33 19.4375C135.764 19.4492 136.133 19.4609 136.438 19.4727C136.742 19.4844 136.953 19.4902 137.07 19.4902C137.387 19.4902 137.715 19.4434 138.055 19.3496C138.395 19.2559 138.641 19.209 138.793 19.209C139.062 19.209 139.25 19.2734 139.355 19.4023C139.461 19.5312 139.514 19.7539 139.514 20.0703V22.8828C141.26 20.2227 143.568 18.8926 146.439 18.8926C147.986 18.8926 149.246 19.3203 150.219 20.1758C151.203 21.0195 151.695 22.1387 151.695 23.5332V36.0488C151.695 36.2246 151.766 36.3125 151.906 36.3125H154.455C154.725 36.5117 154.859 36.8105 154.859 37.209C154.859 37.6191 154.725 37.9062 154.455 38.0703L150.324 37.9648ZM157.865 34.6953C157.865 33.9219 158.117 33.2129 158.621 32.5684C159.137 31.9121 159.822 31.4316 160.678 31.127C158.99 29.8262 158.146 27.9863 158.146 25.6074C158.146 23.498 158.82 21.8516 160.168 20.668C161.516 19.4844 163.244 18.8926 165.354 18.8926C166.643 18.8926 167.814 19.1387 168.869 19.6309C169.936 20.123 170.791 20.832 171.436 21.7578C171.764 20.9258 172.227 20.2402 172.824 19.7012C173.422 19.1621 174.102 18.8926 174.863 18.8926C175.555 18.8926 176.146 19.1094 176.639 19.543C177.131 19.9648 177.377 20.5273 177.377 21.2305C177.377 21.793 177.236 22.2031 176.955 22.4609C176.686 22.7188 176.369 22.8477 176.006 22.8477C175.689 22.8477 175.426 22.7656 175.215 22.6016C175.004 22.4375 174.852 22.2559 174.758 22.0566C174.676 21.8574 174.547 21.6758 174.371 21.5117C174.207 21.3477 173.996 21.2656 173.738 21.2656C173.34 21.2656 172.988 21.459 172.684 21.8457C172.391 22.2207 172.203 22.6484 172.121 23.1289C172.438 24.0195 172.596 24.8984 172.596 25.7656C172.596 27.875 171.916 29.5332 170.557 30.7402C169.197 31.9355 167.463 32.5332 165.354 32.5332C164.146 32.5332 163.08 32.3398 162.154 31.9531C161.404 32.0703 160.848 32.3105 160.484 32.6738C160.133 33.0371 159.957 33.4707 159.957 33.9746C159.957 34.6191 160.18 35.0879 160.625 35.3809C161.07 35.6738 161.926 35.8379 163.191 35.873L169.818 35.9785C170.65 35.9902 171.377 36.0547 171.998 36.1719C172.619 36.2773 173.188 36.4648 173.703 36.7344C174.23 36.9922 174.629 37.3672 174.898 37.8594C175.18 38.3516 175.32 38.9492 175.32 39.6523C175.32 40.9766 174.84 42.1543 173.879 43.1855C172.918 44.2168 171.646 45.002 170.064 45.541C168.494 46.0801 166.777 46.3496 164.914 46.3496C162.723 46.3496 160.895 45.9453 159.43 45.1367C157.977 44.3281 157.25 43.2676 157.25 41.9551C157.25 41.1348 157.607 40.4082 158.322 39.7754C159.049 39.1426 160.016 38.6328 161.223 38.2461C160.051 38.0234 159.195 37.584 158.656 36.9277C158.129 36.2598 157.865 35.5156 157.865 34.6953ZM165.354 30.9863C166.678 30.9863 167.721 30.5527 168.482 29.6855C169.256 28.8066 169.643 27.5 169.643 25.7656C169.643 23.9961 169.256 22.6602 168.482 21.7578C167.721 20.8555 166.678 20.4043 165.354 20.4043C164.041 20.4043 163.004 20.8438 162.242 21.7227C161.48 22.5898 161.1 23.8848 161.1 25.6074C161.1 27.377 161.48 28.7188 162.242 29.6328C163.016 30.5352 164.053 30.9863 165.354 30.9863ZM169.994 38.5801L163.402 38.4043C162.219 38.8027 161.311 39.3008 160.678 39.8984C160.057 40.4961 159.746 41.123 159.746 41.7793C159.746 42.6699 160.209 43.3906 161.135 43.9414C162.061 44.4922 163.35 44.7676 165.002 44.7676C167.229 44.7676 169.127 44.3105 170.697 43.3965C172.268 42.4824 173.053 41.3809 173.053 40.0918C173.053 39.7754 172.977 39.5117 172.824 39.3008C172.684 39.1016 172.461 38.9492 172.156 38.8438C171.863 38.75 171.553 38.6855 171.225 38.6504C170.908 38.6152 170.498 38.5918 169.994 38.5801ZM193.953 38.2461C193.695 38.2461 193.508 38.1758 193.391 38.0352C193.285 37.9062 193.232 37.6895 193.232 37.3848V34.5723C191.533 37.1973 189.254 38.5098 186.395 38.5098C184.848 38.5098 183.594 38.1055 182.633 37.2969C181.684 36.4883 181.209 35.4395 181.209 34.1504V21.4062C181.209 21.2422 181.139 21.1602 180.998 21.1602H178.484C178.191 20.9609 178.045 20.6562 178.045 20.2461C178.045 19.8711 178.191 19.584 178.484 19.3848C180.488 19.4551 181.508 19.4902 181.543 19.4902C181.848 19.4902 182.176 19.4727 182.527 19.4375C182.879 19.4023 183.137 19.3848 183.301 19.3848C183.559 19.3848 183.74 19.4551 183.846 19.5957C183.963 19.7246 184.021 19.9414 184.021 20.2461V33.8164C184.021 34.8125 184.285 35.5566 184.812 36.0488C185.352 36.5293 186.061 36.7695 186.939 36.7695C187.689 36.7695 188.381 36.6406 189.014 36.3828C189.658 36.1133 190.221 35.7324 190.701 35.2402C191.193 34.748 191.592 34.2852 191.896 33.8516C192.213 33.418 192.541 32.9023 192.881 32.3047V21.4062C192.881 21.2422 192.805 21.1602 192.652 21.1602H190.139C189.857 20.9727 189.717 20.668 189.717 20.2461C189.717 19.8594 189.857 19.5723 190.139 19.3848C192.143 19.4551 193.162 19.4902 193.197 19.4902C193.49 19.4902 193.818 19.4727 194.182 19.4375C194.545 19.4023 194.809 19.3848 194.973 19.3848C195.23 19.3848 195.412 19.4551 195.518 19.5957C195.635 19.7246 195.693 19.9414 195.693 20.2461V36.0137C195.693 36.2129 195.787 36.3125 195.975 36.3125H198.453C198.723 36.5117 198.857 36.8105 198.857 37.209C198.857 37.584 198.723 37.8711 198.453 38.0703C198.195 38.0586 197.855 38.041 197.434 38.0176C197.012 38.0059 196.648 37.9941 196.344 37.9824C196.039 37.9707 195.822 37.9648 195.693 37.9648C195.389 37.9648 195.061 38.0117 194.709 38.1055C194.357 38.1992 194.105 38.2461 193.953 38.2461ZM212.902 34.5371H212.709C212.158 35.5684 211.379 36.4531 210.371 37.1914C209.363 37.918 208.203 38.2812 206.891 38.2812C205.309 38.2812 204.037 37.8125 203.076 36.875C202.115 35.9375 201.635 34.6953 201.635 33.1484C201.635 32.0469 201.881 31.0508 202.373 30.1602C202.865 29.2578 203.492 28.5254 204.254 27.9629C205.027 27.3887 205.912 26.9082 206.908 26.5215C207.904 26.1348 208.877 25.8594 209.826 25.6953C210.787 25.5312 211.725 25.4434 212.639 25.4316V23.0586C212.639 22.2031 212.357 21.5527 211.795 21.1074C211.232 20.6621 210.459 20.4395 209.475 20.4395C208.326 20.4395 207.389 20.5918 206.662 20.8965C205.947 21.2012 205.59 21.5234 205.59 21.8633C205.59 22.0156 205.654 22.2734 205.783 22.6367C205.912 22.9883 205.977 23.2871 205.977 23.5332C205.977 23.9551 205.812 24.3301 205.484 24.6582C205.168 24.9863 204.723 25.1504 204.148 25.1504C203.562 25.1504 203.094 24.9688 202.742 24.6055C202.402 24.2305 202.232 23.75 202.232 23.1641C202.232 22.3789 202.666 21.6465 203.533 20.9668C204.4 20.2871 205.42 19.7715 206.592 19.4199C207.775 19.0684 208.906 18.8926 209.984 18.8926C211.719 18.8926 213.061 19.2676 214.01 20.0176C214.971 20.7559 215.451 21.8926 215.451 23.4277V35.1523C215.451 35.9023 215.773 36.2773 216.418 36.2773C216.688 36.2773 216.928 36.1953 217.139 36.0312C217.361 35.8555 217.514 35.6973 217.596 35.5566C217.678 35.4043 217.789 35.1875 217.93 34.9062C218.129 34.4258 218.404 34.1855 218.756 34.1855C218.99 34.1855 219.172 34.2617 219.301 34.4141C219.441 34.5547 219.512 34.7539 219.512 35.0117C219.512 35.293 219.43 35.6094 219.266 35.9609C219.113 36.3008 218.891 36.6406 218.598 36.9805C218.316 37.3203 217.93 37.6074 217.438 37.8418C216.957 38.0645 216.43 38.1758 215.855 38.1758C213.887 38.1758 212.902 36.9629 212.902 34.5371ZM207.453 36.3125C208.883 36.3125 210.066 35.7324 211.004 34.5723C211.941 33.4121 212.486 32.0234 212.639 30.4062V26.9082C211.936 26.9199 211.227 26.9844 210.512 27.1016C209.809 27.2188 209.088 27.4238 208.35 27.7168C207.611 28.0098 206.961 28.373 206.398 28.8066C205.848 29.2285 205.391 29.7852 205.027 30.4766C204.676 31.168 204.5 31.9473 204.5 32.8145C204.5 35.1465 205.484 36.3125 207.453 36.3125Z" fill="black"/>
</g>
<defs>
<filter id="filter0_d_347_14" x="0.5" y="0.5" width="326" height="63.5" filterUnits="userSpaceOnUse" color-interpolation-filters="sRGB">
<feFlood flood-opacity="0" result="BackgroundImageFix"/>
<feColorMatrix in="SourceAlpha" type="matrix" values="0 0 0 0 0 0 0 0 0 0 0 0 0 0 0 0 0 0 127 0" result="hardAlpha"/>
<feOffset dy="4"/>
<feGaussianBlur stdDeviation="2"/>
<feComposite in2="hardAlpha" operator="out"/>
<feColorMatrix type="matrix" values="0 0 0 0 0 0 0 0 0 0 0 0 0 0 0 0 0 0 0.25 0"/>
<feBlend mode="normal" in2="BackgroundImageFix" result="effect1_dropShadow_347_14"/>
<feBlend mode="normal" in="SourceGraphic" in2="effect1_dropShadow_347_14" result="shape"/>
</filter>
<filter id="filter1_d_347_14" x="106.896" y="11.1406" width="116.615" height="43.209" filterUnits="userSpaceOnUse" color-interpolation-filters="sRGB">
<feFlood flood-opacity="0" result="BackgroundImageFix"/>
<feColorMatrix in="SourceAlpha" type="matrix" values="0 0 0 0 0 0 0 0 0 0 0 0 0 0 0 0 0 0 127 0" result="hardAlpha"/>
<feOffset dy="4"/>
<feGaussianBlur stdDeviation="2"/>
<feComposite in2="hardAlpha" operator="out"/>
<feColorMatrix type="matrix" values="0 0 0 0 0 0 0 0 0 0 0 0 0 0 0 0 0 0 0.25 0"/>
<feBlend mode="normal" in2="BackgroundImageFix" result="effect1_dropShadow_347_14"/>
<feBlend mode="normal" in="SourceGraphic" in2="effect1_dropShadow_347_14" result="shape"/>
</filter>
</defs>
</svg>
