<svg width="450" height="65" viewBox="0 0 450 65" fill="none" xmlns="http://www.w3.org/2000/svg">
<g filter="url(#filter0_d_347_12)">
<path d="M445 1H5V56H445V1Z" fill="black"/>
<path d="M445 1H5V56H445V1Z" stroke="black"/>
</g>
<g filter="url(#filter1_d_347_12)">
<path d="M62.0488 38.9648L57.0215 39.0703C56.7285 38.8828 56.582 38.5957 56.582 38.209C56.582 37.834 56.7285 37.5352 57.0215 37.3125H60.2559C60.4199 37.3125 60.502 37.2246 60.502 37.0488V14.3379C60.502 14.1738 60.4199 14.0918 60.2559 14.0918H57.0215C56.7285 13.9043 56.582 13.6172 56.582 13.2305C56.582 12.8438 56.7285 12.5391 57.0215 12.3164L61.9785 12.4746L68.7109 12.3516C71.3125 12.3516 73.334 13.0488 74.7754 14.4434C76.2285 15.8379 76.9551 17.6777 76.9551 19.9629C76.9551 22.248 76.2109 24.0762 74.7227 25.4473C73.2461 26.8066 71.1016 27.4863 68.2891 27.4863H63.6484V37.0488C63.6484 37.2246 63.7305 37.3125 63.8945 37.3125H67.8145C68.1074 37.5352 68.2539 37.834 68.2539 38.209C68.2539 38.5957 68.1074 38.8828 67.8145 39.0703L62.0488 38.9648ZM63.6484 25.8164H68.3594C69.9531 25.8164 71.1836 25.2891 72.0508 24.2344C72.918 23.168 73.3516 21.7441 73.3516 19.9629C73.3516 18.1582 72.9238 16.7285 72.0684 15.6738C71.2246 14.6191 70.0234 14.0918 68.4648 14.0918H63.8945C63.7305 14.0918 63.6484 14.1738 63.6484 14.3379V25.8164ZM90.8945 35.5371H90.7012C90.1504 36.5684 89.3711 37.4531 88.3633 38.1914C87.3555 38.918 86.1953 39.2812 84.8828 39.2812C83.3008 39.2812 82.0293 38.8125 81.0684 37.875C80.1074 36.9375 79.627 35.6953 79.627 34.1484C79.627 33.0469 79.873 32.0508 80.3652 31.1602C80.8574 30.2578 81.4844 29.5254 82.2461 28.9629C83.0195 28.3887 83.9043 27.9082 84.9004 27.5215C85.8965 27.1348 86.8691 26.8594 87.8184 26.6953C88.7793 26.5312 89.7168 26.4434 90.6309 26.4316V24.0586C90.6309 23.2031 90.3496 22.5527 89.7871 22.1074C89.2246 21.6621 88.4512 21.4395 87.4668 21.4395C86.3184 21.4395 85.3809 21.5918 84.6543 21.8965C83.9395 22.2012 83.582 22.5234 83.582 22.8633C83.582 23.0156 83.6465 23.2734 83.7754 23.6367C83.9043 23.9883 83.9688 24.2871 83.9688 24.5332C83.9688 24.9551 83.8047 25.3301 83.4766 25.6582C83.1602 25.9863 82.7148 26.1504 82.1406 26.1504C81.5547 26.1504 81.0859 25.9688 80.7344 25.6055C80.3945 25.2305 80.2246 24.75 80.2246 24.1641C80.2246 23.3789 80.6582 22.6465 81.5254 21.9668C82.3926 21.2871 83.4121 20.7715 84.584 20.4199C85.7676 20.0684 86.8984 19.8926 87.9766 19.8926C89.7109 19.8926 91.0527 20.2676 92.002 21.0176C92.9629 21.7559 93.4434 22.8926 93.4434 24.4277V36.1523C93.4434 36.9023 93.7656 37.2773 94.4102 37.2773C94.6797 37.2773 94.9199 37.1953 95.1309 37.0312C95.3535 36.8555 95.5059 36.6973 95.5879 36.5566C95.6699 36.4043 95.7812 36.1875 95.9219 35.9062C96.1211 35.4258 96.3965 35.1855 96.748 35.1855C96.9824 35.1855 97.1641 35.2617 97.293 35.4141C97.4336 35.5547 97.5039 35.7539 97.5039 36.0117C97.5039 36.293 97.4219 36.6094 97.2578 36.9609C97.1055 37.3008 96.8828 37.6406 96.5898 37.9805C96.3086 38.3203 95.9219 38.6074 95.4297 38.8418C94.9492 39.0645 94.4219 39.1758 93.8477 39.1758C91.8789 39.1758 90.8945 37.9629 90.8945 35.5371ZM85.4453 37.3125C86.875 37.3125 88.0586 36.7324 88.9961 35.5723C89.9336 34.4121 90.4785 33.0234 90.6309 31.4062V27.9082C89.9277 27.9199 89.2188 27.9844 88.5039 28.1016C87.8008 28.2188 87.0801 28.4238 86.3418 28.7168C85.6035 29.0098 84.9531 29.373 84.3906 29.8066C83.8398 30.2285 83.3828 30.7852 83.0195 31.4766C82.668 32.168 82.4922 32.9473 82.4922 33.8145C82.4922 36.1465 83.4766 37.3125 85.4453 37.3125ZM104.658 21.0703V24.9551C105.174 23.5605 105.982 22.3711 107.084 21.3867C108.197 20.3906 109.322 19.8926 110.459 19.8926C111.525 19.8926 112.346 20.2031 112.92 20.8242C113.494 21.4336 113.781 22.1133 113.781 22.8633C113.781 23.4961 113.6 24.0117 113.236 24.4102C112.873 24.7969 112.416 24.9902 111.865 24.9902C110.928 24.9902 110.307 24.4277 110.002 23.3027C109.92 22.9395 109.82 22.6758 109.703 22.5117C109.598 22.3477 109.416 22.2656 109.158 22.2656C108.572 22.2656 107.857 22.7695 107.014 23.7773C106.182 24.7734 105.52 26.0215 105.027 27.5215V37.0488C105.027 37.2246 105.098 37.3125 105.238 37.3125H108.561C108.842 37.5 108.982 37.7988 108.982 38.209C108.982 38.6309 108.842 38.918 108.561 39.0703L103.621 38.9648L99.4727 39.0703C99.1914 38.918 99.0508 38.6309 99.0508 38.209C99.0508 37.7988 99.1914 37.5 99.4727 37.3125H102.004C102.145 37.3125 102.215 37.2246 102.215 37.0488V22.4414C102.215 22.2539 102.133 22.1602 101.969 22.1602H99.4727C99.1914 21.9727 99.0508 21.6797 99.0508 21.2812C99.0508 20.8711 99.1914 20.5723 99.4727 20.3848C99.707 20.3965 100.041 20.4141 100.475 20.4375C100.908 20.4492 101.277 20.4609 101.582 20.4727C101.887 20.4844 102.098 20.4902 102.215 20.4902C102.531 20.4902 102.859 20.4434 103.199 20.3496C103.539 20.2559 103.785 20.209 103.938 20.209C104.207 20.209 104.395 20.2734 104.5 20.4023C104.605 20.5312 104.658 20.7539 104.658 21.0703ZM131.729 38.9648L127.598 39.0703C127.328 38.9062 127.193 38.6191 127.193 38.209C127.193 37.8105 127.328 37.5117 127.598 37.3125H130.111C130.229 37.3125 130.287 37.2246 130.287 37.0488V24.5684C130.287 23.6426 130.023 22.9219 129.496 22.4062C128.969 21.8789 128.295 21.6152 127.475 21.6152C126.912 21.6152 126.373 21.709 125.857 21.8965C125.342 22.084 124.896 22.3125 124.521 22.582C124.146 22.8516 123.777 23.1914 123.414 23.6016C123.051 24.0117 122.758 24.3926 122.535 24.7441C122.312 25.084 122.078 25.4707 121.832 25.9043V37.0488C121.832 37.2246 121.902 37.3125 122.043 37.3125H124.521C124.814 37.5117 124.961 37.8105 124.961 38.209C124.961 38.6191 124.814 38.9062 124.521 39.0703L120.426 38.9648L116.277 39.0703C115.996 38.918 115.855 38.6309 115.855 38.209C115.855 37.7988 115.996 37.5 116.277 37.3125H118.809C118.949 37.3125 119.02 37.2246 119.02 37.0488V22.4414C119.02 22.2539 118.938 22.1602 118.773 22.1602H116.277C115.996 21.9727 115.855 21.6797 115.855 21.2812C115.855 20.8711 115.996 20.5723 116.277 20.3848C116.512 20.3965 116.846 20.4141 117.279 20.4375C117.713 20.4492 118.082 20.4609 118.387 20.4727C118.691 20.4844 118.902 20.4902 119.02 20.4902C119.336 20.4902 119.664 20.4434 120.004 20.3496C120.344 20.2559 120.59 20.209 120.742 20.209C121.012 20.209 121.199 20.2734 121.305 20.4023C121.41 20.5312 121.463 20.7539 121.463 21.0703V23.7422C123.045 21.1758 125.254 19.8926 128.09 19.8926C129.32 19.8926 130.375 20.2207 131.254 20.877C132.133 21.5215 132.701 22.377 132.959 23.4434C134.541 21.0762 136.686 19.8926 139.393 19.8926C140.857 19.8926 142.059 20.332 142.996 21.2109C143.934 22.0898 144.402 23.2207 144.402 24.6035V37.0488C144.402 37.2246 144.473 37.3125 144.613 37.3125H147.18C147.438 37.5 147.566 37.7988 147.566 38.209C147.566 38.6191 147.438 38.9062 147.18 39.0703L143.031 38.9648L138.9 39.0703C138.607 38.8828 138.461 38.5957 138.461 38.209C138.461 37.834 138.607 37.5352 138.9 37.3125H141.379C141.52 37.3125 141.59 37.2246 141.59 37.0488V24.5684C141.59 23.6426 141.326 22.9219 140.799 22.4062C140.271 21.8789 139.598 21.6152 138.777 21.6152C138.203 21.6152 137.652 21.7148 137.125 21.9141C136.609 22.1016 136.164 22.3359 135.789 22.6172C135.414 22.8867 135.045 23.2324 134.682 23.6543C134.318 24.0762 134.025 24.457 133.803 24.7969C133.58 25.1367 133.346 25.5293 133.1 25.9746V37.0488C133.1 37.2246 133.17 37.3125 133.311 37.3125H135.807C136.088 37.5 136.229 37.7988 136.229 38.209C136.229 38.6309 136.088 38.918 135.807 39.0703L131.729 38.9648ZM154.316 38.9648L150.221 39.0703C149.928 38.8828 149.781 38.5957 149.781 38.209C149.781 37.834 149.928 37.5352 150.221 37.3125H152.734C152.875 37.3125 152.945 37.2246 152.945 37.0488V22.4414C152.945 22.2539 152.863 22.1602 152.699 22.1602H150.221C149.928 21.9609 149.781 21.668 149.781 21.2812C149.781 20.8828 149.928 20.584 150.221 20.3848C150.443 20.3965 150.783 20.4141 151.24 20.4375C151.697 20.4492 152.084 20.4609 152.4 20.4727C152.717 20.4844 152.934 20.4902 153.051 20.4902C153.367 20.4902 153.719 20.4434 154.105 20.3496C154.504 20.2559 154.779 20.209 154.932 20.209C155.482 20.209 155.758 20.4961 155.758 21.0703V37.0488C155.758 37.2246 155.828 37.3125 155.969 37.3125H158.5C158.781 37.5234 158.922 37.8223 158.922 38.209C158.922 38.6074 158.781 38.8945 158.5 39.0703L154.316 38.9648ZM154.352 16.7461C153.789 16.7461 153.309 16.5586 152.91 16.1836C152.523 15.7969 152.33 15.3281 152.33 14.7773C152.33 14.2383 152.529 13.7871 152.928 13.4238C153.326 13.0488 153.801 12.8613 154.352 12.8613C154.926 12.8613 155.406 13.0488 155.793 13.4238C156.18 13.7871 156.373 14.2383 156.373 14.7773C156.373 15.3281 156.18 15.7969 155.793 16.1836C155.406 16.5586 154.926 16.7461 154.352 16.7461ZM162.139 35.6953C162.139 34.9219 162.391 34.2129 162.895 33.5684C163.41 32.9121 164.096 32.4316 164.951 32.127C163.264 30.8262 162.42 28.9863 162.42 26.6074C162.42 24.498 163.094 22.8516 164.441 21.668C165.789 20.4844 167.518 19.8926 169.627 19.8926C170.916 19.8926 172.088 20.1387 173.143 20.6309C174.209 21.123 175.064 21.832 175.709 22.7578C176.037 21.9258 176.5 21.2402 177.098 20.7012C177.695 20.1621 178.375 19.8926 179.137 19.8926C179.828 19.8926 180.42 20.1094 180.912 20.543C181.404 20.9648 181.65 21.5273 181.65 22.2305C181.65 22.793 181.51 23.2031 181.229 23.4609C180.959 23.7188 180.643 23.8477 180.279 23.8477C179.963 23.8477 179.699 23.7656 179.488 23.6016C179.277 23.4375 179.125 23.2559 179.031 23.0566C178.949 22.8574 178.82 22.6758 178.645 22.5117C178.48 22.3477 178.27 22.2656 178.012 22.2656C177.613 22.2656 177.262 22.459 176.957 22.8457C176.664 23.2207 176.477 23.6484 176.395 24.1289C176.711 25.0195 176.869 25.8984 176.869 26.7656C176.869 28.875 176.189 30.5332 174.83 31.7402C173.471 32.9355 171.736 33.5332 169.627 33.5332C168.42 33.5332 167.354 33.3398 166.428 32.9531C165.678 33.0703 165.121 33.3105 164.758 33.6738C164.406 34.0371 164.23 34.4707 164.23 34.9746C164.23 35.6191 164.453 36.0879 164.898 36.3809C165.344 36.6738 166.199 36.8379 167.465 36.873L174.092 36.9785C174.924 36.9902 175.65 37.0547 176.271 37.1719C176.893 37.2773 177.461 37.4648 177.977 37.7344C178.504 37.9922 178.902 38.3672 179.172 38.8594C179.453 39.3516 179.594 39.9492 179.594 40.6523C179.594 41.9766 179.113 43.1543 178.152 44.1855C177.191 45.2168 175.92 46.002 174.338 46.541C172.768 47.0801 171.051 47.3496 169.188 47.3496C166.996 47.3496 165.168 46.9453 163.703 46.1367C162.25 45.3281 161.523 44.2676 161.523 42.9551C161.523 42.1348 161.881 41.4082 162.596 40.7754C163.322 40.1426 164.289 39.6328 165.496 39.2461C164.324 39.0234 163.469 38.584 162.93 37.9277C162.402 37.2598 162.139 36.5156 162.139 35.6953ZM169.627 31.9863C170.951 31.9863 171.994 31.5527 172.756 30.6855C173.529 29.8066 173.916 28.5 173.916 26.7656C173.916 24.9961 173.529 23.6602 172.756 22.7578C171.994 21.8555 170.951 21.4043 169.627 21.4043C168.314 21.4043 167.277 21.8438 166.516 22.7227C165.754 23.5898 165.373 24.8848 165.373 26.6074C165.373 28.377 165.754 29.7188 166.516 30.6328C167.289 31.5352 168.326 31.9863 169.627 31.9863ZM174.268 39.5801L167.676 39.4043C166.492 39.8027 165.584 40.3008 164.951 40.8984C164.33 41.4961 164.02 42.123 164.02 42.7793C164.02 43.6699 164.482 44.3906 165.408 44.9414C166.334 45.4922 167.623 45.7676 169.275 45.7676C171.502 45.7676 173.4 45.3105 174.971 44.3965C176.541 43.4824 177.326 42.3809 177.326 41.0918C177.326 40.7754 177.25 40.5117 177.098 40.3008C176.957 40.1016 176.734 39.9492 176.43 39.8438C176.137 39.75 175.826 39.6855 175.498 39.6504C175.182 39.6152 174.771 39.5918 174.268 39.5801ZM187.574 38.9648L183.479 39.0703C183.186 38.8828 183.039 38.5957 183.039 38.209C183.039 37.834 183.186 37.5352 183.479 37.3125H185.992C186.133 37.3125 186.203 37.2246 186.203 37.0488V22.4414C186.203 22.2539 186.121 22.1602 185.957 22.1602H183.479C183.186 21.9609 183.039 21.668 183.039 21.2812C183.039 20.8828 183.186 20.584 183.479 20.3848C183.701 20.3965 184.041 20.4141 184.498 20.4375C184.955 20.4492 185.342 20.4609 185.658 20.4727C185.975 20.4844 186.191 20.4902 186.309 20.4902C186.625 20.4902 186.977 20.4434 187.363 20.3496C187.762 20.2559 188.037 20.209 188.189 20.209C188.74 20.209 189.016 20.4961 189.016 21.0703V37.0488C189.016 37.2246 189.086 37.3125 189.227 37.3125H191.758C192.039 37.5234 192.18 37.8223 192.18 38.209C192.18 38.6074 192.039 38.8945 191.758 39.0703L187.574 38.9648ZM187.609 16.7461C187.047 16.7461 186.566 16.5586 186.168 16.1836C185.781 15.7969 185.588 15.3281 185.588 14.7773C185.588 14.2383 185.787 13.7871 186.186 13.4238C186.584 13.0488 187.059 12.8613 187.609 12.8613C188.184 12.8613 188.664 13.0488 189.051 13.4238C189.438 13.7871 189.631 14.2383 189.631 14.7773C189.631 15.3281 189.438 15.7969 189.051 16.1836C188.664 16.5586 188.184 16.7461 187.609 16.7461ZM206.277 35.5371H206.084C205.533 36.5684 204.754 37.4531 203.746 38.1914C202.738 38.918 201.578 39.2812 200.266 39.2812C198.684 39.2812 197.412 38.8125 196.451 37.875C195.49 36.9375 195.01 35.6953 195.01 34.1484C195.01 33.0469 195.256 32.0508 195.748 31.1602C196.24 30.2578 196.867 29.5254 197.629 28.9629C198.402 28.3887 199.287 27.9082 200.283 27.5215C201.279 27.1348 202.252 26.8594 203.201 26.6953C204.162 26.5312 205.1 26.4434 206.014 26.4316V24.0586C206.014 23.2031 205.732 22.5527 205.17 22.1074C204.607 21.6621 203.834 21.4395 202.85 21.4395C201.701 21.4395 200.764 21.5918 200.037 21.8965C199.322 22.2012 198.965 22.5234 198.965 22.8633C198.965 23.0156 199.029 23.2734 199.158 23.6367C199.287 23.9883 199.352 24.2871 199.352 24.5332C199.352 24.9551 199.188 25.3301 198.859 25.6582C198.543 25.9863 198.098 26.1504 197.523 26.1504C196.938 26.1504 196.469 25.9688 196.117 25.6055C195.777 25.2305 195.607 24.75 195.607 24.1641C195.607 23.3789 196.041 22.6465 196.908 21.9668C197.775 21.2871 198.795 20.7715 199.967 20.4199C201.15 20.0684 202.281 19.8926 203.359 19.8926C205.094 19.8926 206.436 20.2676 207.385 21.0176C208.346 21.7559 208.826 22.8926 208.826 24.4277V36.1523C208.826 36.9023 209.148 37.2773 209.793 37.2773C210.062 37.2773 210.303 37.1953 210.514 37.0312C210.736 36.8555 210.889 36.6973 210.971 36.5566C211.053 36.4043 211.164 36.1875 211.305 35.9062C211.504 35.4258 211.779 35.1855 212.131 35.1855C212.365 35.1855 212.547 35.2617 212.676 35.4141C212.816 35.5547 212.887 35.7539 212.887 36.0117C212.887 36.293 212.805 36.6094 212.641 36.9609C212.488 37.3008 212.266 37.6406 211.973 37.9805C211.691 38.3203 211.305 38.6074 210.812 38.8418C210.332 39.0645 209.805 39.1758 209.23 39.1758C207.262 39.1758 206.277 37.9629 206.277 35.5371ZM200.828 37.3125C202.258 37.3125 203.441 36.7324 204.379 35.5723C205.316 34.4121 205.861 33.0234 206.014 31.4062V27.9082C205.311 27.9199 204.602 27.9844 203.887 28.1016C203.184 28.2188 202.463 28.4238 201.725 28.7168C200.986 29.0098 200.336 29.373 199.773 29.8066C199.223 30.2285 198.766 30.7852 198.402 31.4766C198.051 32.168 197.875 32.9473 197.875 33.8145C197.875 36.1465 198.859 37.3125 200.828 37.3125ZM230.852 38.9648L226.668 39.0703C226.387 38.918 226.246 38.6309 226.246 38.209C226.246 37.7988 226.387 37.5 226.668 37.3125H229.199C229.34 37.3125 229.41 37.2246 229.41 37.0488V24.5684C229.41 23.584 229.129 22.8457 228.566 22.3535C228.016 21.8613 227.301 21.6152 226.422 21.6152C224.02 21.6152 222.016 23.1035 220.41 26.0801V37.0488C220.41 37.2246 220.48 37.3125 220.621 37.3125H223.188C223.445 37.5 223.574 37.7988 223.574 38.209C223.574 38.6191 223.445 38.9062 223.188 39.0703L219.004 38.9648L214.855 39.0703C214.574 38.918 214.434 38.6309 214.434 38.209C214.434 37.7988 214.574 37.5 214.855 37.3125H217.387C217.527 37.3125 217.598 37.2246 217.598 37.0488V22.4414C217.598 22.2539 217.516 22.1602 217.352 22.1602H214.855C214.574 21.9727 214.434 21.6797 214.434 21.2812C214.434 20.8711 214.574 20.5723 214.855 20.3848C215.09 20.3965 215.424 20.4141 215.857 20.4375C216.291 20.4492 216.66 20.4609 216.965 20.4727C217.27 20.4844 217.48 20.4902 217.598 20.4902C217.914 20.4902 218.242 20.4434 218.582 20.3496C218.922 20.2559 219.168 20.209 219.32 20.209C219.59 20.209 219.777 20.2734 219.883 20.4023C219.988 20.5312 220.041 20.7539 220.041 21.0703V23.8828C221.787 21.2227 224.096 19.8926 226.967 19.8926C228.514 19.8926 229.773 20.3203 230.746 21.1758C231.73 22.0195 232.223 23.1387 232.223 24.5332V37.0488C232.223 37.2246 232.293 37.3125 232.434 37.3125H234.982C235.252 37.5117 235.387 37.8105 235.387 38.209C235.387 38.6191 235.252 38.9062 234.982 39.0703L230.852 38.9648ZM238.568 33.8672C238.111 32.6133 237.883 31.2422 237.883 29.7539C237.883 28.2656 238.111 26.8945 238.568 25.6406C239.037 24.3867 239.67 23.3496 240.467 22.5293C241.264 21.6973 242.184 21.0527 243.227 20.5957C244.27 20.127 245.371 19.8926 246.531 19.8926C247.691 19.8926 248.793 20.127 249.836 20.5957C250.879 21.0527 251.793 21.6973 252.578 22.5293C253.375 23.3496 254.002 24.3867 254.459 25.6406C254.928 26.8945 255.162 28.2656 255.162 29.7539C255.162 31.2422 254.928 32.6133 254.459 33.8672C254.002 35.1094 253.375 36.1465 252.578 36.9785C251.793 37.7988 250.879 38.4375 249.836 38.8945C248.793 39.3516 247.691 39.5801 246.531 39.5801C245.371 39.5801 244.27 39.3516 243.227 38.8945C242.184 38.4375 241.264 37.7988 240.467 36.9785C239.67 36.1465 239.037 35.1094 238.568 33.8672ZM241.064 29.7539C241.064 31.2422 241.217 32.543 241.521 33.6562C241.826 34.7578 242.242 35.6133 242.77 36.2227C243.309 36.832 243.889 37.2832 244.51 37.5762C245.131 37.8574 245.805 37.998 246.531 37.998C247.258 37.998 247.932 37.8574 248.553 37.5762C249.174 37.2832 249.748 36.832 250.275 36.2227C250.814 35.6133 251.236 34.7578 251.541 33.6562C251.846 32.543 251.998 31.2422 251.998 29.7539C251.998 28.2539 251.846 26.9531 251.541 25.8516C251.236 24.7383 250.814 23.877 250.275 23.2676C249.748 22.6465 249.174 22.1953 248.553 21.9141C247.932 21.6211 247.258 21.4746 246.531 21.4746C245.805 21.4746 245.131 21.6211 244.51 21.9141C243.889 22.1953 243.309 22.6465 242.77 23.2676C242.242 23.877 241.826 24.7383 241.521 25.8516C241.217 26.9531 241.064 28.2539 241.064 29.7539ZM273.584 38.9648L268.557 39.0703C268.264 38.8828 268.117 38.5957 268.117 38.209C268.117 37.834 268.264 37.5352 268.557 37.3125H271.791C271.955 37.3125 272.037 37.2246 272.037 37.0488V14.3379C272.037 14.1738 271.955 14.0918 271.791 14.0918H268.557C268.264 13.9043 268.117 13.6172 268.117 13.2305C268.117 12.8438 268.264 12.5391 268.557 12.3164L273.514 12.4746L280.246 12.3516C282.848 12.3516 284.869 13.0488 286.311 14.4434C287.764 15.8379 288.49 17.6777 288.49 19.9629C288.49 22.248 287.746 24.0762 286.258 25.4473C284.781 26.8066 282.637 27.4863 279.824 27.4863H275.184V37.0488C275.184 37.2246 275.266 37.3125 275.43 37.3125H279.35C279.643 37.5352 279.789 37.834 279.789 38.209C279.789 38.5957 279.643 38.8828 279.35 39.0703L273.584 38.9648ZM275.184 25.8164H279.895C281.488 25.8164 282.719 25.2891 283.586 24.2344C284.453 23.168 284.887 21.7441 284.887 19.9629C284.887 18.1582 284.459 16.7285 283.604 15.6738C282.76 14.6191 281.559 14.0918 280 14.0918H275.43C275.266 14.0918 275.184 14.1738 275.184 14.3379V25.8164ZM295.855 38.9648L291.76 39.0703C291.467 38.8828 291.32 38.5957 291.32 38.209C291.32 37.834 291.467 37.5352 291.76 37.3125H294.273C294.414 37.3125 294.484 37.2246 294.484 37.0488V22.4414C294.484 22.2539 294.402 22.1602 294.238 22.1602H291.76C291.467 21.9609 291.32 21.668 291.32 21.2812C291.32 20.8828 291.467 20.584 291.76 20.3848C291.982 20.3965 292.322 20.4141 292.779 20.4375C293.236 20.4492 293.623 20.4609 293.939 20.4727C294.256 20.4844 294.473 20.4902 294.59 20.4902C294.906 20.4902 295.258 20.4434 295.645 20.3496C296.043 20.2559 296.318 20.209 296.471 20.209C297.021 20.209 297.297 20.4961 297.297 21.0703V37.0488C297.297 37.2246 297.367 37.3125 297.508 37.3125H300.039C300.32 37.5234 300.461 37.8223 300.461 38.209C300.461 38.6074 300.32 38.8945 300.039 39.0703L295.855 38.9648ZM295.891 16.7461C295.328 16.7461 294.848 16.5586 294.449 16.1836C294.062 15.7969 293.869 15.3281 293.869 14.7773C293.869 14.2383 294.068 13.7871 294.467 13.4238C294.865 13.0488 295.34 12.8613 295.891 12.8613C296.465 12.8613 296.945 13.0488 297.332 13.4238C297.719 13.7871 297.912 14.2383 297.912 14.7773C297.912 15.3281 297.719 15.7969 297.332 16.1836C296.945 16.5586 296.465 16.7461 295.891 16.7461ZM303.203 29.7891C303.203 27.9844 303.561 26.3262 304.275 24.8145C305.002 23.3027 306.004 22.1074 307.281 21.2285C308.57 20.3379 309.988 19.8926 311.535 19.8926C314.312 19.8926 316.375 21.0059 317.723 23.2324C318.227 24.0176 318.479 24.7734 318.479 25.5C318.479 26.0156 318.297 26.4961 317.934 26.9414C317.57 27.375 317.066 27.5918 316.422 27.5918C315.871 27.5918 315.426 27.4395 315.086 27.1348C314.758 26.8184 314.594 26.3906 314.594 25.8516C314.594 25.6055 314.699 25.2129 314.91 24.6738C315.121 24.1348 315.227 23.7598 315.227 23.5488C315.227 22.916 314.887 22.418 314.207 22.0547C313.527 21.6914 312.742 21.5098 311.852 21.5098C310.305 21.5098 309.01 22.1953 307.967 23.5664C306.936 24.9375 306.42 26.9883 306.42 29.7188C306.42 32.4727 306.9 34.5234 307.861 35.8711C308.834 37.2188 310.129 37.8926 311.746 37.8926C312.977 37.8926 314.061 37.4941 314.998 36.6973C315.936 35.9004 316.604 34.8223 317.002 33.4629C317.143 33.041 317.283 32.7305 317.424 32.5312C317.564 32.332 317.746 32.2324 317.969 32.2324C318.426 32.2324 318.654 32.5195 318.654 33.0938C318.654 33.3516 318.584 33.7207 318.443 34.2012C318.314 34.6816 318.145 35.1152 317.934 35.502C317.324 36.7324 316.451 37.7227 315.314 38.4727C314.189 39.2109 312.877 39.5801 311.377 39.5801C310.24 39.5801 309.174 39.3516 308.178 38.8945C307.182 38.4375 306.314 37.7988 305.576 36.9785C304.838 36.1465 304.258 35.1152 303.836 33.8848C303.414 32.6426 303.203 31.2773 303.203 29.7891ZM322.152 29.7891C322.152 27.9844 322.51 26.3262 323.225 24.8145C323.951 23.3027 324.953 22.1074 326.23 21.2285C327.52 20.3379 328.938 19.8926 330.484 19.8926C333.262 19.8926 335.324 21.0059 336.672 23.2324C337.176 24.0176 337.428 24.7734 337.428 25.5C337.428 26.0156 337.246 26.4961 336.883 26.9414C336.52 27.375 336.016 27.5918 335.371 27.5918C334.82 27.5918 334.375 27.4395 334.035 27.1348C333.707 26.8184 333.543 26.3906 333.543 25.8516C333.543 25.6055 333.648 25.2129 333.859 24.6738C334.07 24.1348 334.176 23.7598 334.176 23.5488C334.176 22.916 333.836 22.418 333.156 22.0547C332.477 21.6914 331.691 21.5098 330.801 21.5098C329.254 21.5098 327.959 22.1953 326.916 23.5664C325.885 24.9375 325.369 26.9883 325.369 29.7188C325.369 32.4727 325.85 34.5234 326.811 35.8711C327.783 37.2188 329.078 37.8926 330.695 37.8926C331.926 37.8926 333.01 37.4941 333.947 36.6973C334.885 35.9004 335.553 34.8223 335.951 33.4629C336.092 33.041 336.232 32.7305 336.373 32.5312C336.514 32.332 336.695 32.2324 336.918 32.2324C337.375 32.2324 337.604 32.5195 337.604 33.0938C337.604 33.3516 337.533 33.7207 337.393 34.2012C337.264 34.6816 337.094 35.1152 336.883 35.502C336.273 36.7324 335.4 37.7227 334.264 38.4727C333.139 39.2109 331.826 39.5801 330.326 39.5801C329.189 39.5801 328.123 39.3516 327.127 38.8945C326.131 38.4375 325.264 37.7988 324.525 36.9785C323.787 36.1465 323.207 35.1152 322.785 33.8848C322.363 32.6426 322.152 31.2773 322.152 29.7891ZM341.752 33.8672C341.295 32.6133 341.066 31.2422 341.066 29.7539C341.066 28.2656 341.295 26.8945 341.752 25.6406C342.221 24.3867 342.854 23.3496 343.65 22.5293C344.447 21.6973 345.367 21.0527 346.41 20.5957C347.453 20.127 348.555 19.8926 349.715 19.8926C350.875 19.8926 351.977 20.127 353.02 20.5957C354.062 21.0527 354.977 21.6973 355.762 22.5293C356.559 23.3496 357.186 24.3867 357.643 25.6406C358.111 26.8945 358.346 28.2656 358.346 29.7539C358.346 31.2422 358.111 32.6133 357.643 33.8672C357.186 35.1094 356.559 36.1465 355.762 36.9785C354.977 37.7988 354.062 38.4375 353.02 38.8945C351.977 39.3516 350.875 39.5801 349.715 39.5801C348.555 39.5801 347.453 39.3516 346.41 38.8945C345.367 38.4375 344.447 37.7988 343.65 36.9785C342.854 36.1465 342.221 35.1094 341.752 33.8672ZM344.248 29.7539C344.248 31.2422 344.4 32.543 344.705 33.6562C345.01 34.7578 345.426 35.6133 345.953 36.2227C346.492 36.832 347.072 37.2832 347.693 37.5762C348.314 37.8574 348.988 37.998 349.715 37.998C350.441 37.998 351.115 37.8574 351.736 37.5762C352.357 37.2832 352.932 36.832 353.459 36.2227C353.998 35.6133 354.42 34.7578 354.725 33.6562C355.029 32.543 355.182 31.2422 355.182 29.7539C355.182 28.2539 355.029 26.9531 354.725 25.8516C354.42 24.7383 353.998 23.877 353.459 23.2676C352.932 22.6465 352.357 22.1953 351.736 21.9141C351.115 21.6211 350.441 21.4746 349.715 21.4746C348.988 21.4746 348.314 21.6211 347.693 21.9141C347.072 22.1953 346.492 22.6465 345.953 23.2676C345.426 23.877 345.01 24.7383 344.705 25.8516C344.4 26.9531 344.248 28.2539 344.248 29.7539ZM365.588 38.9648L361.492 39.0703C361.199 38.8828 361.053 38.5957 361.053 38.209C361.053 37.834 361.199 37.5352 361.492 37.3125H364.006C364.146 37.3125 364.217 37.2246 364.217 37.0488V14.373C364.217 14.1855 364.135 14.0918 363.971 14.0918H361.492C361.199 13.9277 361.053 13.6406 361.053 13.2305C361.053 12.8203 361.199 12.5156 361.492 12.3164C361.82 12.3281 362.342 12.3574 363.057 12.4043C363.783 12.4512 364.211 12.4746 364.34 12.4746C364.656 12.4746 365.014 12.4219 365.412 12.3164C365.811 12.1992 366.086 12.1406 366.238 12.1406C366.766 12.1406 367.029 12.4395 367.029 13.0371V37.0488C367.029 37.2246 367.1 37.3125 367.24 37.3125H369.771C370.053 37.5234 370.193 37.8223 370.193 38.209C370.193 38.6074 370.053 38.8945 369.771 39.0703L365.588 38.9648ZM373.568 33.8672C373.111 32.6133 372.883 31.2422 372.883 29.7539C372.883 28.2656 373.111 26.8945 373.568 25.6406C374.037 24.3867 374.67 23.3496 375.467 22.5293C376.264 21.6973 377.184 21.0527 378.227 20.5957C379.27 20.127 380.371 19.8926 381.531 19.8926C382.691 19.8926 383.793 20.127 384.836 20.5957C385.879 21.0527 386.793 21.6973 387.578 22.5293C388.375 23.3496 389.002 24.3867 389.459 25.6406C389.928 26.8945 390.162 28.2656 390.162 29.7539C390.162 31.2422 389.928 32.6133 389.459 33.8672C389.002 35.1094 388.375 36.1465 387.578 36.9785C386.793 37.7988 385.879 38.4375 384.836 38.8945C383.793 39.3516 382.691 39.5801 381.531 39.5801C380.371 39.5801 379.27 39.3516 378.227 38.8945C377.184 38.4375 376.264 37.7988 375.467 36.9785C374.67 36.1465 374.037 35.1094 373.568 33.8672ZM376.064 29.7539C376.064 31.2422 376.217 32.543 376.521 33.6562C376.826 34.7578 377.242 35.6133 377.77 36.2227C378.309 36.832 378.889 37.2832 379.51 37.5762C380.131 37.8574 380.805 37.998 381.531 37.998C382.258 37.998 382.932 37.8574 383.553 37.5762C384.174 37.2832 384.748 36.832 385.275 36.2227C385.814 35.6133 386.236 34.7578 386.541 33.6562C386.846 32.543 386.998 31.2422 386.998 29.7539C386.998 28.2539 386.846 26.9531 386.541 25.8516C386.236 24.7383 385.814 23.877 385.275 23.2676C384.748 22.6465 384.174 22.1953 383.553 21.9141C382.932 21.6211 382.258 21.4746 381.531 21.4746C380.805 21.4746 380.131 21.6211 379.51 21.9141C378.889 22.1953 378.309 22.6465 377.77 23.2676C377.242 23.877 376.826 24.7383 376.521 25.8516C376.217 26.9531 376.064 28.2539 376.064 29.7539Z" fill="white"/>
</g>
<defs>
<filter id="filter0_d_347_12" x="0.5" y="0.5" width="449" height="64" filterUnits="userSpaceOnUse" color-interpolation-filters="sRGB">
<feFlood flood-opacity="0" result="BackgroundImageFix"/>
<feColorMatrix in="SourceAlpha" type="matrix" values="0 0 0 0 0 0 0 0 0 0 0 0 0 0 0 0 0 0 127 0" result="hardAlpha"/>
<feOffset dy="4"/>
<feGaussianBlur stdDeviation="2"/>
<feComposite in2="hardAlpha" operator="out"/>
<feColorMatrix type="matrix" values="0 0 0 0 0 0 0 0 0 0 0 0 0 0 0 0 0 0 0.25 0"/>
<feBlend mode="normal" in2="BackgroundImageFix" result="effect1_dropShadow_347_12"/>
<feBlend mode="normal" in="SourceGraphic" in2="effect1_dropShadow_347_12" result="shape"/>
</filter>
<filter id="filter1_d_347_12" x="52.582" y="12.1406" width="341.58" height="43.209" filterUnits="userSpaceOnUse" color-interpolation-filters="sRGB">
<feFlood flood-opacity="0" result="BackgroundImageFix"/>
<feColorMatrix in="SourceAlpha" type="matrix" values="0 0 0 0 0 0 0 0 0 0 0 0 0 0 0 0 0 0 127 0" result="hardAlpha"/>
<feOffset dy="4"/>
<feGaussianBlur stdDeviation="2"/>
<feComposite in2="hardAlpha" operator="out"/>
<feColorMatrix type="matrix" values="0 0 0 0 0 0 0 0 0 0 0 0 0 0 0 0 0 0 0.25 0"/>
<feBlend mode="normal" in2="BackgroundImageFix" result="effect1_dropShadow_347_12"/>
<feBlend mode="normal" in="SourceGraphic" in2="effect1_dropShadow_347_12" result="shape"/>
</filter>
</defs>
</svg>
