<svg width="327" height="64" viewBox="0 0 327 64" fill="none" xmlns="http://www.w3.org/2000/svg">
<g filter="url(#filter0_d_347_15)">
<path d="M322 1H5V55.5H322V1Z" fill="white"/>
<path d="M322 1H5V55.5H322V1Z" stroke="black"/>
</g>
<g filter="url(#filter1_d_347_15)">
<path d="M124.184 38.4043C123.551 38.4043 123.006 38.2461 122.549 37.9297C122.104 37.6133 121.77 37.1855 121.547 36.6465C121.324 36.1074 121.166 35.5566 121.072 34.9941C120.99 34.4199 120.955 33.8047 120.967 33.1484C120.99 32.7852 121.084 32.4746 121.248 32.2168C121.424 31.9473 121.629 31.8125 121.863 31.8125C122.262 31.8125 122.432 32.0996 122.373 32.6738C122.35 33.7402 122.461 34.6836 122.707 35.5039C122.953 36.3242 123.264 36.7344 123.639 36.7344C123.979 36.7344 124.225 36.6055 124.377 36.3477C124.529 36.0898 124.676 35.5742 124.816 34.8008C124.852 34.5312 124.893 34.2734 124.939 34.0273C124.986 33.7695 125.051 33.459 125.133 33.0957C125.227 32.7324 125.303 32.3984 125.361 32.0938C125.607 31.0859 125.959 30.3535 126.416 29.8965C126.873 29.4277 127.482 29.1406 128.244 29.0352C128.432 29 128.525 28.918 128.525 28.7891C128.525 28.6719 128.408 28.5957 128.174 28.5605C125.338 28.373 123.92 27.0078 123.92 24.4648C123.92 23.7852 124.061 23.1465 124.342 22.5488C124.635 21.9512 125.057 21.4238 125.607 20.9668C126.158 20.498 126.879 20.1289 127.77 19.8594C128.66 19.5781 129.668 19.4316 130.793 19.4199L135.082 19.5605L139.16 19.4551C139.441 19.6074 139.582 19.8945 139.582 20.3164C139.582 20.75 139.441 21.043 139.16 21.1953H136.664C136.523 21.1953 136.453 21.2773 136.453 21.4414V36.0488C136.453 36.2246 136.523 36.3125 136.664 36.3125H139.16C139.441 36.5 139.582 36.7871 139.582 37.1738C139.582 37.584 139.441 37.8828 139.16 38.0703C139.184 38.0703 138.85 38.0586 138.158 38.0352C137.479 38.0234 136.793 38.0117 136.102 38C135.41 37.9766 135.07 37.9648 135.082 37.9648C135.094 37.9648 134.742 37.9766 134.027 38C133.312 38.0117 132.598 38.0234 131.883 38.0352C131.18 38.0586 130.84 38.0703 130.863 38.0703C130.582 37.8828 130.441 37.584 130.441 37.1738C130.441 36.7871 130.582 36.5 130.863 36.3125H133.43C133.57 36.3125 133.641 36.2246 133.641 36.0488V29.5098H131.848C130.57 29.5098 129.68 29.6973 129.176 30.0723C128.684 30.4473 128.326 31.2031 128.104 32.3398C127.834 33.9453 127.688 34.8242 127.664 34.9766C127.406 36.1367 127.025 36.998 126.521 37.5605C126.018 38.123 125.238 38.4043 124.184 38.4043ZM131.092 27.9277H133.641V21.4766C133.641 21.3125 133.57 21.2305 133.43 21.2305H130.951C129.58 21.2305 128.543 21.5059 127.84 22.0566C127.148 22.5957 126.803 23.4688 126.803 24.6758C126.803 26.8438 128.232 27.9277 131.092 27.9277ZM149.549 38.5098C147.709 38.5098 146.15 38.0117 144.873 37.0156C143.607 36.0195 142.975 34.8125 142.975 33.3945C142.975 32.5977 143.156 31.9941 143.52 31.584C143.883 31.1621 144.381 30.9512 145.014 30.9512C145.506 30.9512 145.916 31.127 146.244 31.4785C146.584 31.8184 146.754 32.2402 146.754 32.7441C146.754 33.166 146.59 33.6055 146.262 34.0625C145.934 34.5195 145.77 34.8594 145.77 35.082C145.77 35.5859 146.139 36.0312 146.877 36.418C147.627 36.8047 148.436 36.998 149.303 36.998C150.041 36.998 150.691 36.8691 151.254 36.6113C151.816 36.3535 152.256 36.0078 152.572 35.5742C152.9 35.1406 153.141 34.666 153.293 34.1504C153.445 33.6348 153.521 33.084 153.521 32.498C153.521 31.3379 153.129 30.4355 152.344 29.791C151.559 29.1465 150.568 28.8242 149.373 28.8242C149.197 28.8242 148.934 28.8711 148.582 28.9648C148.23 29.0586 147.943 29.1055 147.721 29.1055C147.146 29.1055 146.859 28.8535 146.859 28.3496C146.859 27.752 147.146 27.4531 147.721 27.4531C147.932 27.4531 148.195 27.4766 148.512 27.5234C148.828 27.5703 149.08 27.5938 149.268 27.5938C150.17 27.5938 150.979 27.207 151.693 26.4336C152.408 25.6602 152.766 24.7637 152.766 23.7441C152.766 21.6582 151.658 20.6152 149.443 20.6152C148.096 20.6152 147.006 21.0312 146.174 21.8633C145.354 22.6836 144.955 23.7324 144.979 25.0098L145.014 25.1855C145.014 25.502 144.949 25.748 144.82 25.9238C144.703 26.0996 144.539 26.1875 144.328 26.1875C143.801 26.1875 143.537 25.8418 143.537 25.1504V20C143.537 19.7891 143.607 19.6309 143.748 19.5254C143.9 19.4082 144.07 19.3496 144.258 19.3496C144.445 19.3496 144.609 19.4082 144.75 19.5254C144.902 19.6309 144.979 19.7891 144.979 20V20.4746C144.979 20.7559 145.09 20.8965 145.312 20.8965C145.348 20.8965 145.377 20.8906 145.4 20.8789C145.436 20.8672 145.471 20.8496 145.506 20.8262C145.553 20.8027 145.594 20.7793 145.629 20.7559C145.664 20.7324 145.711 20.6973 145.77 20.6504C145.828 20.6035 145.875 20.5625 145.91 20.5273C145.957 20.4922 146.016 20.4453 146.086 20.3867C146.168 20.3164 146.232 20.2578 146.279 20.2109C147.451 19.3789 148.699 18.9629 150.023 18.9629C151.664 18.9629 152.988 19.3789 153.996 20.2109C155.016 21.0312 155.525 22.127 155.525 23.498C155.525 24.459 155.244 25.3262 154.682 26.0996C154.131 26.8613 153.311 27.4414 152.221 27.8398C152.127 27.8867 152.08 27.9395 152.08 27.998C152.08 28.0098 152.127 28.0332 152.221 28.0684C153.51 28.3613 154.529 28.8945 155.279 29.668C156.041 30.4414 156.422 31.3848 156.422 32.498C156.422 34.1973 155.818 35.627 154.611 36.7871C153.404 37.9355 151.717 38.5098 149.549 38.5098ZM176.285 38.0703C176.004 37.918 175.863 37.6309 175.863 37.209C175.863 36.7988 176.004 36.5 176.285 36.3125H178.447C178.588 36.3125 178.658 36.2246 178.658 36.0488V21.4414C178.658 21.2773 178.588 21.1953 178.447 21.1953H175.934C175.664 21.0312 175.529 20.7383 175.529 20.3164C175.529 19.9062 175.664 19.6191 175.934 19.4551L180.064 19.5605L184.213 19.4551C184.494 19.6074 184.635 19.8945 184.635 20.3164C184.635 20.75 184.494 21.043 184.213 21.1953H181.682C181.541 21.1953 181.471 21.2773 181.471 21.4414V36.0488C181.471 36.2246 181.541 36.3125 181.682 36.3125H184.213C184.494 36.5 184.635 36.7988 184.635 37.209C184.635 37.6309 184.494 37.918 184.213 38.0703L180.064 37.9648L176.285 38.0703ZM160.078 38.0703C159.797 37.8594 159.656 37.5723 159.656 37.209C159.656 36.8223 159.797 36.5234 160.078 36.3125H162.609C162.75 36.3125 162.82 36.2246 162.82 36.0488V21.4414C162.82 21.2773 162.75 21.1953 162.609 21.1953H160.078C159.797 21.0195 159.656 20.7266 159.656 20.3164C159.656 19.918 159.797 19.6309 160.078 19.4551L164.191 19.5605L168.445 19.4551C168.727 19.6074 168.867 19.8945 168.867 20.3164C168.867 20.75 168.727 21.043 168.445 21.1953H165.844C165.703 21.1953 165.633 21.2773 165.633 21.4414V26.9785H168.691C170.812 27.002 172.5 27.4414 173.754 28.2969C175.008 29.1523 175.635 30.4414 175.635 32.1641C175.635 33.8633 175.008 35.2754 173.754 36.4004C172.5 37.5137 170.742 38.0703 168.48 38.0703L164.191 37.9648L160.078 38.0703ZM165.844 36.3125H168.322C169.846 36.3125 170.965 35.9316 171.68 35.1699C172.395 34.4082 172.752 33.418 172.752 32.1992C172.752 30.9922 172.395 30.084 171.68 29.4746C170.977 28.8652 169.969 28.5605 168.656 28.5605H165.633V36.0488C165.633 36.2246 165.703 36.3125 165.844 36.3125ZM202.688 38.4043C201.633 38.4043 200.824 38.1172 200.262 37.543C199.711 36.957 199.342 36.1133 199.154 35.0117C199.119 34.7539 199.078 34.3438 199.031 33.7812C198.996 33.2188 198.955 32.7383 198.908 32.3398C198.768 31.2148 198.428 30.4238 197.889 29.9668C197.35 29.5098 196.477 29.2812 195.27 29.2812H193.512V36.0488C193.512 36.2246 193.582 36.3125 193.723 36.3125H195.92C196.189 36.5117 196.324 36.8105 196.324 37.209C196.324 37.6191 196.189 37.9062 195.92 38.0703L192.07 37.9648L187.957 38.0703C187.676 37.8945 187.535 37.6074 187.535 37.209C187.535 36.8223 187.676 36.5234 187.957 36.3125H190.488C190.629 36.3125 190.699 36.2246 190.699 36.0488V21.4414C190.699 21.2773 190.629 21.1953 190.488 21.1953H187.957C187.676 21.0195 187.535 20.7266 187.535 20.3164C187.535 19.918 187.676 19.6309 187.957 19.4551L192.07 19.5605L195.92 19.4551C196.189 19.6191 196.324 19.9062 196.324 20.3164C196.324 20.7383 196.189 21.0312 195.92 21.1953H193.723C193.582 21.1953 193.512 21.2773 193.512 21.4414V27.8398H195.305C196.125 27.8398 196.775 27.6172 197.256 27.1719C197.736 26.7148 198.117 26.0293 198.398 25.1152C198.645 24.1074 198.861 23.1113 199.049 22.127C199.295 21.2129 199.641 20.4805 200.086 19.9297C200.531 19.3789 201.17 19.1035 202.002 19.1035C203.033 19.1035 203.836 19.3965 204.41 19.9824C204.996 20.5566 205.289 21.3301 205.289 22.3027C205.289 22.959 205.125 23.4922 204.797 23.9023C204.469 24.3008 204.029 24.5 203.479 24.5C202.869 24.5 202.395 24.3535 202.055 24.0605C201.715 23.7559 201.557 23.3516 201.58 22.8477C201.592 22.5547 201.709 22.2148 201.932 21.8281C202.166 21.4414 202.289 21.1543 202.301 20.9668C202.312 20.791 202.271 20.6445 202.178 20.5273C202.084 20.4102 201.967 20.3516 201.826 20.3516C201.51 20.3516 201.258 20.498 201.07 20.791C200.883 21.0723 200.725 21.5176 200.596 22.127C200.432 22.9238 200.133 24.1367 199.699 25.7656C199.477 26.4922 199.207 27.0371 198.891 27.4004C198.574 27.7637 198.199 28.0215 197.766 28.1738C197.613 28.209 197.537 28.2676 197.537 28.3496C197.537 28.4551 197.625 28.5254 197.801 28.5605C198.328 28.6191 198.773 28.7012 199.137 28.8066C199.5 28.9121 199.875 29.0879 200.262 29.334C200.648 29.5801 200.959 29.9375 201.193 30.4062C201.439 30.875 201.604 31.4609 201.686 32.1641C201.826 32.9961 201.932 33.875 202.002 34.8008C202.084 35.5156 202.219 36.0195 202.406 36.3125C202.605 36.5938 202.881 36.7344 203.232 36.7344C203.725 36.7344 204.129 36.3242 204.445 35.5039C204.773 34.6719 204.92 33.7285 204.885 32.6738C204.885 32.0996 205.055 31.8125 205.395 31.8125C205.641 31.8125 205.852 31.9473 206.027 32.2168C206.203 32.4746 206.291 32.7852 206.291 33.1484C206.291 34.0156 206.174 34.8301 205.939 35.5918C205.717 36.3535 205.318 37.0156 204.744 37.5781C204.182 38.1289 203.496 38.4043 202.688 38.4043Z" fill="black"/>
</g>
<defs>
<filter id="filter0_d_347_15" x="0.5" y="0.5" width="326" height="63.5" filterUnits="userSpaceOnUse" color-interpolation-filters="sRGB">
<feFlood flood-opacity="0" result="BackgroundImageFix"/>
<feColorMatrix in="SourceAlpha" type="matrix" values="0 0 0 0 0 0 0 0 0 0 0 0 0 0 0 0 0 0 127 0" result="hardAlpha"/>
<feOffset dy="4"/>
<feGaussianBlur stdDeviation="2"/>
<feComposite in2="hardAlpha" operator="out"/>
<feColorMatrix type="matrix" values="0 0 0 0 0 0 0 0 0 0 0 0 0 0 0 0 0 0 0.25 0"/>
<feBlend mode="normal" in2="BackgroundImageFix" result="effect1_dropShadow_347_15"/>
<feBlend mode="normal" in="SourceGraphic" in2="effect1_dropShadow_347_15" result="shape"/>
</filter>
<filter id="filter1_d_347_15" x="116.949" y="18.9629" width="93.3418" height="27.5469" filterUnits="userSpaceOnUse" color-interpolation-filters="sRGB">
<feFlood flood-opacity="0" result="BackgroundImageFix"/>
<feColorMatrix in="SourceAlpha" type="matrix" values="0 0 0 0 0 0 0 0 0 0 0 0 0 0 0 0 0 0 127 0" result="hardAlpha"/>
<feOffset dy="4"/>
<feGaussianBlur stdDeviation="2"/>
<feComposite in2="hardAlpha" operator="out"/>
<feColorMatrix type="matrix" values="0 0 0 0 0 0 0 0 0 0 0 0 0 0 0 0 0 0 0.25 0"/>
<feBlend mode="normal" in2="BackgroundImageFix" result="effect1_dropShadow_347_15"/>
<feBlend mode="normal" in="SourceGraphic" in2="effect1_dropShadow_347_15" result="shape"/>
</filter>
</defs>
</svg>
