<svg width="307" height="438" viewBox="0 0 307 438" fill="none" xmlns="http://www.w3.org/2000/svg">
<g filter="url(#filter0_d_283_3091)">
<path d="M204.855 396.02L174.763 404.72L167.643 415.294L210.377 409.975L204.855 396.02Z" fill="black"/>
<path d="M204.855 396.02L174.763 404.72L167.643 415.294L210.377 409.975L204.855 396.02Z" stroke="black" stroke-linecap="round" stroke-linejoin="round"/>
</g>
<g filter="url(#filter1_d_283_3091)">
<path d="M207.694 393.911L214.772 407.591" stroke="black" stroke-linecap="round" stroke-linejoin="round"/>
</g>
<g filter="url(#filter2_d_283_3091)">
<path d="M179.856 373.63L187.008 386.815" stroke="black" stroke-linecap="round" stroke-linejoin="round"/>
</g>
<g filter="url(#filter3_d_283_3091)">
<path d="M209.612 394.194L207.73 402.003" stroke="black" stroke-linecap="round" stroke-linejoin="round"/>
</g>
<g filter="url(#filter4_d_283_3091)">
<path d="M192.105 372.405L190.223 380.214" stroke="black" stroke-linecap="round" stroke-linejoin="round"/>
</g>
<g filter="url(#filter5_d_283_3091)">
<path d="M195.681 378.998L193.799 386.807" stroke="black" stroke-linecap="round" stroke-linejoin="round"/>
</g>
<g filter="url(#filter6_d_283_3091)">
<path d="M191.432 380.393L189.55 388.201" stroke="black" stroke-linecap="round" stroke-linejoin="round"/>
</g>
<g filter="url(#filter7_d_283_3091)">
<path d="M182.033 379.006L180.151 386.815" stroke="black" stroke-linecap="round" stroke-linejoin="round"/>
</g>
<g filter="url(#filter8_d_283_3091)">
<path d="M185.147 378.454L183.265 386.263" stroke="black" stroke-linecap="round" stroke-linejoin="round"/>
</g>
<g filter="url(#filter9_d_283_3091)">
<path d="M185.034 372.373L183.152 380.181" stroke="black" stroke-linecap="round" stroke-linejoin="round"/>
</g>
<g filter="url(#filter10_d_283_3091)">
<path d="M214.525 401.995L212.643 409.804" stroke="black" stroke-linecap="round" stroke-linejoin="round"/>
</g>
<g filter="url(#filter11_d_283_3091)">
<path d="M212.141 397.6L210.26 405.409" stroke="black" stroke-linecap="round" stroke-linejoin="round"/>
</g>
<g filter="url(#filter12_d_283_3091)">
<path d="M247.509 377.548L254.661 390.734" stroke="black" stroke-linecap="round" stroke-linejoin="round"/>
</g>
<g filter="url(#filter13_d_283_3091)">
<path d="M240.853 374.703L251.719 393.754" stroke="black" stroke-linecap="round" stroke-linejoin="round"/>
</g>
<g filter="url(#filter14_d_283_3091)">
<path d="M231.567 369.131L247.265 399.751" stroke="black" stroke-linecap="round" stroke-linejoin="round"/>
</g>
<g filter="url(#filter15_d_283_3091)">
<path d="M224.496 369.098L241.881 401.989" stroke="black" stroke-linecap="round" stroke-linejoin="round"/>
</g>
<g filter="url(#filter16_d_283_3091)">
<path d="M218.56 368.222L237.486 404.373" stroke="black" stroke-linecap="round" stroke-linejoin="round"/>
</g>
<g filter="url(#filter17_d_283_3091)">
<path d="M213.614 367.492L231.55 403.497" stroke="black" stroke-linecap="round" stroke-linejoin="round"/>
</g>
<g filter="url(#filter18_d_283_3091)">
<path d="M207.532 367.606L227.009 406.87" stroke="black" stroke-linecap="round" stroke-linejoin="round"/>
</g>
<g filter="url(#filter19_d_283_3091)">
<path d="M210.661 394.349L217.813 407.534" stroke="black" stroke-linecap="round" stroke-linejoin="round"/>
</g>
<g filter="url(#filter20_d_283_3091)">
<path d="M203.137 369.99L221.624 409.108" stroke="black" stroke-linecap="round" stroke-linejoin="round"/>
</g>
<g filter="url(#filter21_d_283_3091)">
<path d="M197.899 371.239L205.05 384.424" stroke="black" stroke-linecap="round" stroke-linejoin="round"/>
</g>
<g filter="url(#filter22_d_283_3091)">
<path d="M189.895 374.101L197.047 387.286" stroke="black" stroke-linecap="round" stroke-linejoin="round"/>
</g>
<g filter="url(#filter23_d_283_3091)">
<path d="M183.959 373.225L191.111 386.41" stroke="black" stroke-linecap="round" stroke-linejoin="round"/>
</g>
<g filter="url(#filter24_d_283_3091)">
<path d="M130.196 72.6564C134.608 75.0394 151.412 46.2339 171.883 36.7595M171.883 36.7595C175.306 35.1753 178.832 34.1316 182.419 33.8645C194.874 31.6592 195.217 27.1747 200.51 20.8663C211.846 46.799 185.005 71.1414 146.268 83.6201L153.598 119.575M171.883 36.7595C174.405 35.1538 177.807 24.121 176.548 18.8466C150.964 33.3265 140.75 46.6712 125.655 76.0296C108.18 77.9997 92.1492 73.6124 86.6994 89.9923C79.4741 108.132 65.0238 113.581 73.327 122.387C73.9329 129.532 83.6146 132.904 87.9883 127.583M89.9424 122.817C89.642 124.852 88.9411 126.424 87.9883 127.583M153.598 119.575L156.217 118.951L157.749 122.715L155.487 123.897M153.598 119.575C137.003 120.802 128.046 121.683 104.174 118.852L102.436 137.296M133.69 127.757L101.497 147.266L102.436 137.296M87.9883 127.583C90.5686 136.07 94.5094 137.005 102.436 137.296" stroke="black" stroke-linecap="round" stroke-linejoin="round"/>
<path d="M111.18 102.197C108.825 96.8764 105.726 94.8416 99.0656 91.8169C97.0871 91.5249 97.1763 87.4948 101.06 88.5734C104.945 89.6519 111.243 93.3341 115.081 99.7397L120.522 100.543C122.5 100.835 121.568 103.729 121.568 103.729L111.18 102.197Z" fill="black" stroke="black" stroke-linecap="round" stroke-linejoin="round"/>
<path d="M100.971 92.6035C100.121 92.8825 99.4493 100.634 99.2195 104.475C107.37 107.77 108.426 105.62 111.107 102.691" stroke="black" stroke-linecap="round" stroke-linejoin="round"/>
<path d="M106.566 106.065C104.813 102.46 103.791 101.31 100.022 99.0339L99.2194 104.475C102.958 106.543 104.158 106.57 106.566 106.065Z" fill="black" stroke="black" stroke-linecap="round" stroke-linejoin="round"/>
<path d="M93.3473 151.118L101.497 147.266L155.487 123.897L157.522 127.23C131.85 143.515 117.166 152.418 100.799 175.972C96.3277 166.472 95.0773 160.98 93.3473 151.118Z" stroke="black" stroke-linecap="round" stroke-linejoin="round"/>
<path d="M105.356 169.063C110.759 162.413 115.783 157.112 120.942 152.491M105.356 169.063L118.691 167.746M105.356 169.063C112.114 165.511 125.93 158.352 127.135 158.125M120.942 152.491L118.691 167.746M120.942 152.491C123.786 149.945 126.672 147.605 129.684 145.361M118.691 167.746L127.923 166.834L127.135 158.125M127.135 158.125L126.578 151.978L130.336 157.334M129.684 145.361L137.951 158.71M129.684 145.361C131.825 143.765 134.031 142.218 136.332 140.679M137.951 158.71L134.094 162.69L130.336 157.334M137.951 158.71L143.522 152.962M136.332 140.679L143.522 152.962M136.332 140.679C138.474 139.246 140.7 137.82 143.033 136.368M143.522 152.962L148.999 147.31M143.033 136.368L148.999 147.31M143.033 136.368C144.645 135.365 146.309 134.349 148.033 133.311M148.999 147.31L153.806 142.35M153.806 142.35L148.033 133.311M153.806 142.35L159.135 136.851M148.033 133.311C149.739 132.283 151.503 131.233 153.334 130.15M159.135 136.851L161.52 134.39L159.484 131.058M159.135 136.851L153.334 130.15M153.334 130.15C154.67 129.36 156.04 128.553 157.449 127.725L159.484 131.058M159.484 131.058L130.336 157.334" stroke="black" stroke-linecap="round" stroke-linejoin="round"/>
<path d="M170.738 205.498L162.264 187.569L155.575 181.528L151.658 187.52L156.442 192.775L161.388 193.505L162.491 199.732L170.738 205.498Z" fill="black"/>
<path d="M148.885 175.486L155.575 181.528M155.575 181.528L162.264 187.569L170.738 205.498L162.491 199.732L161.388 193.505L156.442 192.775L151.658 187.52L155.575 181.528Z" stroke="#101010" stroke-linecap="round" stroke-linejoin="round"/>
<path d="M174.331 146.895C176.699 148.272 178.781 151.584 180.808 155.937M174.331 146.895C172.915 148.092 171.565 149.238 170.281 150.34M174.331 146.895L138.782 158.328L150.718 176.768C151.489 171.002 154.067 166.337 158.651 161.26M174.331 146.895C171.752 145.041 169.791 143.487 168.062 141.926M188.407 222.762C192.271 220.828 195.06 218.734 196.96 216.443M188.407 222.762L184.309 222.672M188.407 222.762C196.777 246.5 199.041 259.869 198.095 283.831C198.095 283.831 169.864 295.333 165.789 297.259C161.714 299.184 156.738 294.074 155.159 287.098C152.55 281.012 153.127 279.537 140.839 264.263C127.323 244.675 124.49 235.675 117.713 218.901C115.501 215.6 113.664 212.668 112.125 209.99M144.075 221.78L164.73 222.238M153.174 180.668C161.031 167.916 167.047 162.462 180.808 155.937M180.808 155.937C181.866 158.21 182.909 160.766 183.97 163.48M157.829 183.377C163.217 175.018 169.028 170.672 183.97 163.48M183.97 163.48C185.107 166.388 186.265 169.477 187.483 172.59M187.483 172.59C176.223 176.686 170.062 179.152 162.759 187.642C157.9 173.949 153.328 166.555 144.036 153.543M187.483 172.59C188.471 175.113 189.498 177.652 190.587 180.124M165.767 194.656C173.347 187.541 179.422 184.796 190.587 180.124M190.587 180.124C191.58 182.378 192.624 184.575 193.735 186.653C193.865 186.922 193.993 187.19 194.12 187.456M167.251 194.875L171.657 199.269M164.73 222.238L171.727 205.644L175.437 206.191M164.73 222.238L171.004 222.377M175.437 206.191L171.004 222.377M175.437 206.191L177.292 206.465M171.004 222.377L177.656 222.524M173.199 200.807L179.147 206.739L177.292 206.465M173.199 200.807L171.657 199.269M173.199 200.807C176.316 201.512 178.686 202.514 180.443 203.638M177.292 206.465C178.091 208.457 178.958 209.878 179.809 210.835M171.657 199.269L194.12 187.456M194.12 187.456C195.635 190.632 196.952 193.599 197.976 196.377M182.642 205.4L197.976 196.377M182.642 205.4C183.869 206.654 184.505 207.945 184.704 209.075M182.642 205.4C182.051 204.797 181.324 204.202 180.443 203.638M197.976 196.377C199.087 199.393 199.852 202.186 200.146 204.783M184.704 209.075C184.875 210.046 184.723 210.897 184.345 211.504M184.704 209.075L193.833 206.538M200.146 204.783C200.645 209.193 199.786 213.037 196.96 216.443M200.146 204.783L193.833 206.538M184.345 211.504C183.806 212.372 182.807 212.739 181.632 212.24M184.345 211.504L190.653 213.974M196.96 216.443L190.653 213.974M181.632 212.24L184.309 222.672M181.632 212.24C181.056 211.995 180.437 211.541 179.809 210.835M184.309 222.672L177.656 222.524M179.809 210.835L177.656 222.524M158.651 161.26C169.846 176.207 174.078 185.808 180.443 203.638M158.651 161.26C160.468 159.247 162.6 157.171 165.058 154.935M158.651 161.26L149.015 147.202L150.471 145.901M165.058 154.935C179.249 177.166 194.262 210.486 190.653 213.974M165.058 154.935C166.659 153.48 168.399 151.957 170.281 150.34M165.058 154.935L154.838 141.997L150.471 145.901M165.058 154.935C157.549 157.529 146.724 161.267 136.833 164.681M170.281 150.34C184.558 176.357 191.364 189.983 193.833 206.538M170.281 150.34L158.536 137.488L161.447 134.885C163.853 137.738 165.751 139.839 168.062 141.926M150.471 145.901L168.062 141.926M118.195 171.112C114.74 172.302 112.544 173.058 112.338 173.126C112.825 175.168 112.226 177.282 111.028 178.997M118.195 171.112L132.431 201.362M118.195 171.112C120.033 170.478 122.226 169.722 124.666 168.88M124.666 168.88L140.711 200.056M124.666 168.88C126.785 168.149 129.09 167.354 131.508 166.519M124.666 168.88L131.508 166.519M131.508 166.519L152.155 205.283M131.508 166.519C133.234 165.923 135.018 165.308 136.833 164.681M136.833 164.681L141.453 171.052M152.372 186.109L149.499 182.147M141.453 171.052L145.862 177.132M141.453 171.052L111.868 178.778M111.028 178.997L111.868 178.778M111.028 178.997C110.433 179.85 109.69 180.605 108.86 181.204M104.134 189.305C103.687 187.118 103.298 184.836 102.891 182.345C103.87 182.696 104.895 182.738 105.895 182.538M104.134 189.305L145.862 177.132M104.134 189.305C104.597 191.569 105.124 193.73 105.798 195.915M145.862 177.132L149.499 182.147M105.798 195.915L149.499 182.147M105.798 195.915C106.471 198.095 107.292 200.298 108.345 202.649M108.345 202.649L152.007 188.582M108.345 202.649C109.363 204.921 110.597 207.33 112.125 209.99M108.345 202.649L112.125 209.99M112.125 209.99L124.136 206.202L108.86 181.204M111.868 178.778L126.35 201.475M108.86 181.204C107.95 181.861 106.936 182.33 105.895 182.538M105.895 182.538L123.357 221.755" stroke="black" stroke-linecap="round" stroke-linejoin="round"/>
<path d="M143.094 204.451C142.34 199.286 136.478 197.915 132.504 200.867C124.663 199.204 124.136 206.202 124.136 206.202C121.165 211.121 122.018 212.754 124.306 215.325C128.395 225.037 134.075 223.636 143.435 222.696M143.435 222.696C138.963 216.016 140.882 212.012 143.022 204.946M143.435 222.696L144.57 221.853" stroke="black" stroke-linecap="round" stroke-linejoin="round"/>
<path d="M143.094 204.451L156.944 206.495L161.923 200.154" stroke="black" stroke-linecap="round" stroke-linejoin="round"/>
<path d="M72.5567 120.757C75.702 119.873 77.0958 118.814 77.6088 113.921" stroke="black" stroke-linecap="round" stroke-linejoin="round"/>
<path d="M80.5604 117.895L94.1674 111.311" stroke="black" stroke-linecap="round" stroke-linejoin="round"/>
<path d="M84.5175 118.479L95.1403 114.992" stroke="black" stroke-linecap="round" stroke-linejoin="round"/>
<path d="M87.615 121.463L96.3889 120.231" stroke="black" stroke-linecap="round" stroke-linejoin="round"/>
<path d="M108.528 109.892L114.407 107.727" stroke="black" stroke-linecap="round" stroke-linejoin="round"/>
<path d="M110.637 112.73L115.105 109.852" stroke="black" stroke-linecap="round" stroke-linejoin="round"/>
<path d="M99.9167 106.6L98.1408 108.359" stroke="black" stroke-linecap="round" stroke-linejoin="round"/>
<path d="M93.1944 107.629L95.0433 105.375" stroke="black" stroke-linecap="round" stroke-linejoin="round"/>
<path d="M95.5138 95.3362L97.1274 98.1014" stroke="black" stroke-linecap="round" stroke-linejoin="round"/>
<path d="M90.3888 102.666L89.6752 104.077" stroke="black" stroke-linecap="round" stroke-linejoin="round"/>
<path d="M93.7216 100.631C94.0589 101.085 95.7812 103.799 96.6001 105.099" stroke="black" stroke-linecap="round" stroke-linejoin="round"/>
<path d="M103.072 81.7945C112.57 82.0463 116.592 83.8761 122.201 89.166M126.044 114.498L125.679 116.972" stroke="black" stroke-linecap="round" stroke-linejoin="round"/>
<path d="M147.728 73.7272C148.563 72.6882 149.385 71.6812 150.196 70.7036M150.196 70.7036L153.809 73.6138M150.196 70.7036C151.001 69.7321 151.796 68.7895 152.581 67.8731M150.196 70.7036L152.581 67.8731M152.581 67.8731L155.383 69.8027M152.581 67.8731C153.644 66.6343 154.69 65.4434 155.725 64.2936M155.725 64.2936L158.44 66.2105M155.725 64.2936C156.925 62.9619 158.11 61.6853 159.289 60.4535M155.725 64.2936L159.289 60.4535M159.289 60.4535L161.424 63.1129M159.289 60.4535C160.283 59.4161 161.272 58.4104 162.263 57.4302M162.263 57.4302L164.408 60.0154M162.263 57.4302C163.242 56.4612 164.222 55.517 165.208 54.5917M162.263 57.4302L165.208 54.5917M165.208 54.5917L166.898 56.8449M165.208 54.5917C165.984 53.8646 166.762 53.1492 167.547 52.4424M167.547 52.4424L170.155 55.3216M167.547 52.4424C168.374 51.6979 169.208 50.963 170.051 50.2344M170.051 50.2344L171.999 53.0994M170.051 50.2344C171.055 49.367 172.073 48.5085 173.109 47.6531M170.051 50.2344L173.109 47.6531M173.109 47.6531L175.907 50.5931M173.109 47.6531C173.973 46.9392 174.85 46.2276 175.743 45.5147M173.109 47.6531L175.743 45.5147M175.743 45.5147L177.829 47.8442M175.743 45.5147C176.642 44.7963 177.558 44.0767 178.492 43.3524M178.492 43.3524L180.594 46.2306M178.492 43.3524C179.422 42.6308 180.371 41.9047 181.341 41.1706M178.492 43.3524L181.341 41.1706M181.341 41.1706L183.933 44.1553M181.341 41.1706C182.448 40.3324 183.583 39.4839 184.749 38.6198M184.749 38.6198L186.782 41.9735M184.749 38.6198C185.262 38.2399 185.781 37.8571 186.307 37.4708M186.307 37.4708L188.046 40.2545M186.307 37.4708C187.276 36.7583 188.268 36.0342 189.283 35.2957M189.283 35.2957L190.957 37.6516M189.283 35.2957C190.025 34.7567 190.779 34.21 191.547 33.6546M189.283 35.2957L191.547 33.6546M191.547 33.6546C192.105 33.251 192.671 32.8427 193.244 32.4295L194.363 35.1217" stroke="black" stroke-linecap="round" stroke-linejoin="round"/>
<path d="M122.935 221.188C134.733 254.264 156.01 271.05 163.17 297.883" stroke="black" stroke-linecap="round" stroke-linejoin="round"/>
<path d="M125.425 218.017C131.31 238.925 166.987 281.719 167.346 296.983" stroke="black" stroke-linecap="round" stroke-linejoin="round"/>
<path d="M171.101 295.515C167.152 277.748 142.956 249.918 132.188 223.564" stroke="black" stroke-linecap="round" stroke-linejoin="round"/>
<path d="M138.269 223.45C146.986 250.007 164.353 266.304 174.506 292.985" stroke="black" stroke-linecap="round" stroke-linejoin="round"/>
<path d="M144.424 222.842C150.302 251.508 172.054 266.876 179.745 291.737" stroke="black" stroke-linecap="round" stroke-linejoin="round"/>
<path d="M183.645 289.28C174.453 263.506 157.446 251.046 148.6 221.942" stroke="black" stroke-linecap="round" stroke-linejoin="round"/>
<path d="M186.905 287.739C182.624 265.375 163.618 249.105 155.103 222.397M191.576 286.912C187.391 262.388 167.524 248.489 161.185 222.283" stroke="black" stroke-linecap="round" stroke-linejoin="round"/>
<path d="M194.836 285.371C194.617 258.46 169.902 248.84 167.267 222.17M197.601 283.758C196.667 263.412 175.943 242.15 175.254 222.843M197.974 264.102C187.084 251.674 189.842 233.588 179.852 222.511" stroke="black" stroke-linecap="round" stroke-linejoin="round"/>
<path d="M124.776 236.116C138.814 219.275 166.796 232.209 190.296 227.084M125.749 239.798C145.996 230.279 166.212 236.166 191.326 233.807M128.06 244.687C149.873 235.017 168.726 243.107 193.491 239.686" stroke="black" stroke-linecap="round" stroke-linejoin="round"/>
<path d="M121.419 228.039L133.177 223.71" stroke="black" stroke-linecap="round" stroke-linejoin="round"/>
<path d="M118.832 221.593L126.69 219.72" stroke="black" stroke-linecap="round" stroke-linejoin="round"/>
<path d="M116.1 216.136L123.462 214.19" stroke="black" stroke-linecap="round" stroke-linejoin="round"/>
<path d="M157.324 292.977C155.444 290.298 185.364 284.479 197.982 277.749M155.159 287.098L198.785 272.308" stroke="black" stroke-linecap="round" stroke-linejoin="round"/>
<path d="M152.077 280.578C153.44 279.566 183.378 270.54 198.177 266.153" stroke="black" stroke-linecap="round" stroke-linejoin="round"/>
<path d="M149.766 275.688L197.642 259.504" stroke="black" stroke-linecap="round" stroke-linejoin="round"/>
<path d="M146.393 271.147L196.539 253.276" stroke="black" stroke-linecap="round" stroke-linejoin="round"/>
<path d="M141.682 265.398C158.606 260.314 174.029 258.547 195.437 247.049" stroke="black" stroke-linecap="round" stroke-linejoin="round"/>
<path d="M131.854 249.796C135.349 243.236 175.983 248.727 194.885 243.935M135.082 255.326C154.65 246.493 170.526 251.459 194.666 245.419M138.803 260.93C157.556 255.03 171.785 252.035 195.51 246.554" stroke="black" stroke-linecap="round" stroke-linejoin="round"/>
<path d="M193.7 286.215C200.552 310.333 204.917 323.906 191.939 346.099C192.212 360.598 188.114 365.39 175.778 369.996C186.352 377.116 175.987 416.525 157.012 421.812C151.777 422.816 150.503 421.941 151.588 417.473C150.639 423.904 143.478 421.785 144.168 416.378C140.6 423.433 130.431 420.416 133.91 417.392L140.722 412.332C141.896 407.947 143.454 407.144 147.039 407.199C160.374 398.594 159.609 393.05 159.665 383.286C144.998 377.431 143.741 372.45 141.866 363.476C137.378 364.632 136.093 358.075 139.88 349.536C135.212 346.788 137.42 343.278 143.902 335.978" stroke="black" stroke-linecap="round" stroke-linejoin="round"/>
<path d="M208.457 336.912C211.271 324.692 207.793 318.157 200.243 324.075C198.319 334.126 196.765 339.239 191.939 346.099C199.437 347.039 206.008 346.659 208.457 336.912Z" fill="black" stroke="black" stroke-linecap="round" stroke-linejoin="round"/>
<path d="M147.558 376.472C141.769 384.876 131.216 391.579 119.645 395.98C110.645 393.936 107.766 396.015 102.867 400.075C94.5877 401.38 93.7229 405.186 101.845 407M101.845 407L112.557 399.483M101.845 407C101.828 409.147 103.928 409.404 110.181 408.735M110.181 408.735L116.222 402.046M110.181 408.735C131.552 411.465 141.172 409.304 157.058 397.972" stroke="black" stroke-linecap="round" stroke-linejoin="round"/>
<path d="M173.298 294.323L177.442 300.494" stroke="black" stroke-linecap="round" stroke-linejoin="round"/>
<path d="M181.375 290.966L183.905 294.372" stroke="black" stroke-linecap="round" stroke-linejoin="round"/>
<path d="M185.697 289.077L187.237 292.337" stroke="black" stroke-linecap="round" stroke-linejoin="round"/>
<path d="M177.547 292.929L181.269 298.532" stroke="black" stroke-linecap="round" stroke-linejoin="round"/>
<path d="M189.378 288.104L200.333 320.045" stroke="black" stroke-linecap="round" stroke-linejoin="round"/>
<path d="M191.576 286.912L198.127 307.59" stroke="black" stroke-linecap="round" stroke-linejoin="round"/>
<path d="M162.122 356.356C162.577 356.019 185.65 335.063 197.13 324.627" stroke="black" stroke-linecap="round" stroke-linejoin="round"/>
<path d="M167.272 359.138C167.667 359.196 187.233 339.172 196.967 329.152" stroke="black" stroke-linecap="round" stroke-linejoin="round"/>
<path d="M172.567 360.93C173.987 359.522 187.561 344.948 194.169 337.836" stroke="black" stroke-linecap="round" stroke-linejoin="round"/>
<path d="M178.137 364.279L191.793 347.088" stroke="black" stroke-linecap="round" stroke-linejoin="round"/>
<path d="M174.391 348.564L182.224 367.409" stroke="black" stroke-linecap="round" stroke-linejoin="round"/>
<path d="M180.854 342.442L187.333 363.614" stroke="black" stroke-linecap="round" stroke-linejoin="round"/>
<path d="M177.376 345.467C177.713 345.921 182.311 358.83 184.568 365.228" stroke="black" stroke-linecap="round" stroke-linejoin="round"/>
<path d="M186.336 349.821L189.969 359.455" stroke="black" stroke-linecap="round" stroke-linejoin="round"/>
<path d="M138.389 304.84C140.205 303.491 146.19 299.926 148.955 298.312" stroke="black" stroke-linecap="round" stroke-linejoin="round"/>
<path d="M136.743 309.146L151.631 300.729" stroke="black" stroke-linecap="round" stroke-linejoin="round"/>
<path d="M135.94 314.587L151.323 306.243" stroke="black" stroke-linecap="round" stroke-linejoin="round"/>
<path d="M140.173 316.727L147.26 313.225" stroke="black" stroke-linecap="round" stroke-linejoin="round"/>
<path d="M132.501 324.188L152.06 314.944" stroke="black" stroke-linecap="round" stroke-linejoin="round"/>
<path d="M137.375 325.412L145.8 323.117" stroke="black" stroke-linecap="round" stroke-linejoin="round"/>
<path d="M138.769 329.661L145.143 327.569" stroke="black" stroke-linecap="round" stroke-linejoin="round"/>
<path d="M135.55 337.778C136.912 336.766 141.929 334.508 144.267 333.505" stroke="black" stroke-linecap="round" stroke-linejoin="round"/>
<path d="M96.296 278.412C91.4437 319.058 96.6569 338.764 138.128 361.408" stroke="black" stroke-linecap="round" stroke-linejoin="round"/>
<path d="M95.5598 208.05C96.3347 196.649 99.1694 189.782 102.112 181.219C106.075 195.718 107.168 203.832 117.851 218.416C124.62 238.645 130.219 249.209 142.241 265.48C146.122 270.338 148.134 273.015 149.547 277.172L128.229 284.64L107.729 283.131L102.54 273.773L101.153 283.172L94.3904 277.625L95.6313 269.216L97.6098 269.508C86.3667 253.233 88.2919 242.277 96.0622 221.771C99.0218 215.089 97.6131 212.63 95.5598 208.05Z" fill="black" stroke="black" stroke-linecap="round" stroke-linejoin="round"/>
<path d="M103.718 187.016C101.172 195.135 98.3983 203.614 99.7764 213.727C100.947 218.619 100.501 221.212 99.0139 225.744C94.7847 245.802 93.6751 256.755 102.54 273.773" stroke="white" stroke-linecap="round" stroke-linejoin="round"/>
<path d="M131.959 273.061L139.192 268.569" stroke="white" stroke-linecap="round" stroke-linejoin="round"/>
<path d="M129.502 269.16L136.736 264.668" stroke="white" stroke-linecap="round" stroke-linejoin="round"/>
<path d="M123.502 251.596L128.043 248.223" stroke="white" stroke-linecap="round" stroke-linejoin="round"/>
<path d="M126.381 256.064L130.776 253.68" stroke="white" stroke-linecap="round" stroke-linejoin="round"/>
<path d="M125.578 261.505L132.811 257.013" stroke="white" stroke-linecap="round" stroke-linejoin="round"/>
<path d="M127.118 264.765L132.722 261.043" stroke="white" stroke-linecap="round" stroke-linejoin="round"/>
<path d="M102.467 274.268C102.921 273.931 116.858 271.506 123.769 270.336" stroke="white" stroke-linecap="round" stroke-linejoin="round"/>
<path d="M97.7247 213.929C92.7172 214.238 88.9382 214.122 85.1566 213.473M58.616 184.404L55.9727 174.916C57.2052 175.007 58.2926 175.029 59.2541 174.988M58.616 184.404L76.9902 172.964M58.616 184.404C59.3649 188.103 60.3485 190.52 62.444 192.713M100.182 187L96.0792 187.405M76.9902 172.964C75.3254 169.464 72.3171 167.609 68.112 164.578C67.7828 165.779 67.5447 166.928 67.2976 167.995M76.9902 172.964C77.432 173.892 77.7791 174.937 78.029 176.149C78.6435 177.825 79.2168 179.233 79.7874 180.452M62.444 192.713C63.5808 193.902 65.0448 195.025 66.976 196.251C67.4216 198.009 67.8797 199.522 68.505 201.026M62.444 192.713C63.7084 192.365 74.5331 184.394 79.7874 180.452M79.7874 180.452C81.1826 183.433 82.5617 185.287 84.4885 187.176M68.505 201.026C69.6388 203.751 71.3221 206.444 74.4764 210.499C78.5781 211.942 81.8684 212.909 85.1566 213.473M68.505 201.026L84.4885 187.176M84.4885 187.176C84.9053 187.584 85.3476 187.995 85.8213 188.418L90.0675 187.999M75.3348 210.625L90.0675 187.999M90.0675 187.999L96.0792 187.405M85.1566 213.473C89.0785 205.162 96.7538 188.313 96.0792 187.405M59.2541 174.988C68.6473 197.328 75.7865 206.796 96.7517 210.248M59.2541 174.988C62.4715 174.851 64.2795 174.005 65.4028 172.662M65.4028 172.662C72.5113 190.35 77.9293 198.373 96.014 201.547M65.4028 172.662C66.4118 171.456 66.8683 169.849 67.2976 167.995M67.2976 167.995C75.9379 184.895 81.1663 194.828 97.5222 195.199" stroke="black" stroke-linecap="round" stroke-linejoin="round"/>
<path d="M106.273 169.704C110.13 170.273 112.768 173.636 112.249 177.156C111.729 180.676 108.232 183.133 104.375 182.564C100.517 181.995 97.8793 178.632 98.3987 175.112C98.9181 171.592 102.415 169.134 106.273 169.704Z" fill="black" stroke="#101010" stroke-linecap="round" stroke-linejoin="round"/>
<path d="M55.9727 174.916C53.9746 171.068 52.8543 168.911 50.8562 165.064C42.8181 166.419 38.8601 166.102 37.1848 154.96C37.5497 152.486 43.3558 150.816 45.537 153.16C45.9627 153.586 46.3166 153.972 46.6012 154.327M46.291 158.325C47.7464 156.992 47.9419 156.001 46.6012 154.327M38.612 152.138C35.3272 143.903 39.7816 141.88 43.6154 142.206M44.5073 146.437C49.5907 149.026 52.462 154.181 46.6012 154.327M44.5073 146.437L40.8988 146.916M44.5073 146.437C50.8019 145.323 47.5325 142.539 43.6154 142.206M39.0096 142.593C39.8174 136.034 44.5725 132.295 51.3352 137.842C54.5788 139.837 51.6864 142.016 45.5292 139.512L43.6154 142.206M49.3019 136.026C48.6337 131.971 54.2627 131.704 57.4899 137.234" stroke="black" stroke-linecap="round" stroke-linejoin="round"/>
<path d="M56.9955 137.161C44.8158 140.923 50.086 163.434 66.9203 162.38C76.4969 155.707 67.8046 139.262 56.9955 137.161Z" fill="black" stroke="white" stroke-linecap="round" stroke-linejoin="round"/>
<path d="M49.2993 165.34C50.8784 165.573 52.0479 167.264 51.7562 169.24C51.4646 171.216 49.8565 172.498 48.2774 172.265C46.6983 172.032 45.5288 170.341 45.8205 168.364C46.1121 166.388 47.7202 165.107 49.2993 165.34Z" stroke="black" stroke-linecap="round" stroke-linejoin="round"/>
<path d="M50.548 170.578C52.1271 170.811 53.2965 172.502 53.0049 174.478C52.7132 176.455 51.1052 177.736 49.5261 177.503C47.9469 177.27 46.7775 175.579 47.0692 173.602C47.3608 171.626 48.9688 170.345 50.548 170.578Z" stroke="black" stroke-linecap="round" stroke-linejoin="round"/>
<path d="M51.7966 175.816C53.3757 176.049 54.5452 177.74 54.2535 179.717C53.9619 181.693 52.3539 182.974 50.7747 182.741C49.1956 182.508 48.0262 180.817 48.3178 178.841C48.6095 176.865 50.2175 175.583 51.7966 175.816Z" stroke="black" stroke-linecap="round" stroke-linejoin="round"/>
<path d="M55.5426 191.531C57.1217 191.764 58.2912 193.456 57.9995 195.432C57.7079 197.408 56.0998 198.69 54.5207 198.456C52.9416 198.223 51.7721 196.532 52.0638 194.556C52.3554 192.58 53.9635 191.298 55.5426 191.531Z" stroke="black" stroke-linecap="round" stroke-linejoin="round"/>
<path d="M54.2939 186.293C55.8731 186.526 57.0425 188.217 56.7508 190.194C56.4592 192.17 54.8512 193.451 53.272 193.218C51.6929 192.985 50.5235 191.294 50.8151 189.318C51.1068 187.341 52.7148 186.06 54.2939 186.293Z" stroke="black" stroke-linecap="round" stroke-linejoin="round"/>
<path d="M53.0453 181.055C54.6244 181.288 55.7938 182.979 55.5022 184.955C55.2105 186.932 53.6025 188.213 52.0234 187.98C50.4443 187.747 49.2748 186.056 49.5665 184.079C49.8581 182.103 51.4661 180.822 53.0453 181.055Z" stroke="black" stroke-linecap="round" stroke-linejoin="round"/>
<path d="M72.1166 216.216C73.6957 216.449 74.8651 218.14 74.5735 220.116C74.2818 222.092 72.6738 223.374 71.0947 223.141C69.5155 222.908 68.3461 221.216 68.6378 219.24C68.9294 217.264 70.5374 215.983 72.1166 216.216Z" stroke="black" stroke-linecap="round" stroke-linejoin="round"/>
<path d="M76.7711 218.924C78.3502 219.157 79.5197 220.848 79.228 222.825C78.9364 224.801 77.3283 226.082 75.7492 225.849C74.1701 225.616 73.0006 223.925 73.2923 221.949C73.5839 219.972 75.192 218.691 76.7711 218.924Z" stroke="black" stroke-linecap="round" stroke-linejoin="round"/>
<path d="M81.7175 219.654C83.2966 219.887 84.4661 221.578 84.1744 223.554C83.8828 225.531 82.2747 226.812 80.6956 226.579C79.1165 226.346 77.9471 224.655 78.2387 222.679C78.5304 220.702 80.1384 219.421 81.7175 219.654Z" stroke="black" stroke-linecap="round" stroke-linejoin="round"/>
<path d="M92.8916 219.281C94.4707 219.514 95.6401 221.205 95.3485 223.182C95.0569 225.158 93.4488 226.439 91.8697 226.206C90.2906 225.973 89.1211 224.282 89.4128 222.306C89.7044 220.329 91.3125 219.048 92.8916 219.281Z" stroke="black" stroke-linecap="round" stroke-linejoin="round"/>
<path d="M86.8099 219.395C88.389 219.628 89.5585 221.319 89.2668 223.295C88.9752 225.271 87.3672 226.553 85.788 226.32C84.2089 226.086 83.0395 224.395 83.3311 222.419C83.6228 220.443 85.2308 219.161 86.8099 219.395Z" stroke="black" stroke-linecap="round" stroke-linejoin="round"/>
<path d="M57.9265 195.927C59.5056 196.16 60.6751 197.851 60.3834 199.827C60.0918 201.804 58.4837 203.085 56.9046 202.852C55.3255 202.619 54.156 200.928 54.4477 198.951C54.7393 196.975 56.3474 195.694 57.9265 195.927Z" stroke="black" stroke-linecap="round" stroke-linejoin="round"/>
<path d="M59.1752 201.165C60.7543 201.398 61.9237 203.089 61.6321 205.065C61.3404 207.042 59.7324 208.323 58.1533 208.09C56.5741 207.857 55.4047 206.166 55.6963 204.19C55.988 202.213 57.596 200.932 59.1752 201.165Z" stroke="black" stroke-linecap="round" stroke-linejoin="round"/>
<path d="M61.5591 205.56C63.1382 205.793 64.3076 207.484 64.016 209.461C63.7243 211.437 62.1163 212.718 60.5372 212.485C58.958 212.252 57.7886 210.561 58.0803 208.585C58.3719 206.608 59.9799 205.327 61.5591 205.56Z" stroke="black" stroke-linecap="round" stroke-linejoin="round"/>
<path d="M68.4514 213.653C70.0305 213.886 71.2 215.577 70.9083 217.554C70.6167 219.53 69.0086 220.811 67.4295 220.578C65.8504 220.345 64.6809 218.654 64.9726 216.678C65.2642 214.701 66.8723 213.42 68.4514 213.653Z" stroke="black" stroke-linecap="round" stroke-linejoin="round"/>
<path d="M64.9322 210.101C66.5114 210.334 67.6808 212.025 67.3892 214.002C67.0975 215.978 65.4895 217.259 63.9103 217.026C62.3312 216.793 61.1618 215.102 61.4534 213.126C61.7451 211.149 63.3531 209.868 64.9322 210.101Z" stroke="black" stroke-linecap="round" stroke-linejoin="round"/>
<path d="M144.627 177.385C146.723 176.886 149.323 176.393 150.361 176.209" stroke="black" stroke-linecap="round" stroke-linejoin="round"/>
<path d="M140.484 171.214L153.653 167.598" stroke="black" stroke-linecap="round" stroke-linejoin="round"/>
<path d="M143.232 203.966L161.64 199.101" stroke="black" stroke-linecap="round" stroke-linejoin="round"/>
<path d="M140.775 200.066C141.683 199.391 154.328 194.99 160.537 192.874" stroke="black" stroke-linecap="round" stroke-linejoin="round"/>
<path d="M66.0685 161.749L68.1767 164.587" stroke="black" stroke-linecap="round" stroke-linejoin="round"/>
</g>
<g filter="url(#filter25_d_283_3091)">
<path d="M194.144 372.706L201.296 385.892" stroke="black" stroke-linecap="round" stroke-linejoin="round"/>
</g>
<defs>
<filter id="filter0_d_283_3091" x="163.143" y="395.52" width="51.7343" height="28.2742" filterUnits="userSpaceOnUse" color-interpolation-filters="sRGB">
<feFlood flood-opacity="0" result="BackgroundImageFix"/>
<feColorMatrix in="SourceAlpha" type="matrix" values="0 0 0 0 0 0 0 0 0 0 0 0 0 0 0 0 0 0 127 0" result="hardAlpha"/>
<feOffset dy="4"/>
<feGaussianBlur stdDeviation="2"/>
<feComposite in2="hardAlpha" operator="out"/>
<feColorMatrix type="matrix" values="0 0 0 0 0 0 0 0 0 0 0 0 0 0 0 0 0 0 0.25 0"/>
<feBlend mode="normal" in2="BackgroundImageFix" result="effect1_dropShadow_283_3091"/>
<feBlend mode="normal" in="SourceGraphic" in2="effect1_dropShadow_283_3091" result="shape"/>
</filter>
<filter id="filter1_d_283_3091" x="203.194" y="393.411" width="16.079" height="22.6799" filterUnits="userSpaceOnUse" color-interpolation-filters="sRGB">
<feFlood flood-opacity="0" result="BackgroundImageFix"/>
<feColorMatrix in="SourceAlpha" type="matrix" values="0 0 0 0 0 0 0 0 0 0 0 0 0 0 0 0 0 0 127 0" result="hardAlpha"/>
<feOffset dy="4"/>
<feGaussianBlur stdDeviation="2"/>
<feComposite in2="hardAlpha" operator="out"/>
<feColorMatrix type="matrix" values="0 0 0 0 0 0 0 0 0 0 0 0 0 0 0 0 0 0 0.25 0"/>
<feBlend mode="normal" in2="BackgroundImageFix" result="effect1_dropShadow_283_3091"/>
<feBlend mode="normal" in="SourceGraphic" in2="effect1_dropShadow_283_3091" result="shape"/>
</filter>
<filter id="filter2_d_283_3091" x="175.356" y="373.13" width="16.152" height="22.1853" filterUnits="userSpaceOnUse" color-interpolation-filters="sRGB">
<feFlood flood-opacity="0" result="BackgroundImageFix"/>
<feColorMatrix in="SourceAlpha" type="matrix" values="0 0 0 0 0 0 0 0 0 0 0 0 0 0 0 0 0 0 127 0" result="hardAlpha"/>
<feOffset dy="4"/>
<feGaussianBlur stdDeviation="2"/>
<feComposite in2="hardAlpha" operator="out"/>
<feColorMatrix type="matrix" values="0 0 0 0 0 0 0 0 0 0 0 0 0 0 0 0 0 0 0.25 0"/>
<feBlend mode="normal" in2="BackgroundImageFix" result="effect1_dropShadow_283_3091"/>
<feBlend mode="normal" in="SourceGraphic" in2="effect1_dropShadow_283_3091" result="shape"/>
</filter>
<filter id="filter3_d_283_3091" x="203.229" y="393.694" width="10.8822" height="16.8091" filterUnits="userSpaceOnUse" color-interpolation-filters="sRGB">
<feFlood flood-opacity="0" result="BackgroundImageFix"/>
<feColorMatrix in="SourceAlpha" type="matrix" values="0 0 0 0 0 0 0 0 0 0 0 0 0 0 0 0 0 0 127 0" result="hardAlpha"/>
<feOffset dy="4"/>
<feGaussianBlur stdDeviation="2"/>
<feComposite in2="hardAlpha" operator="out"/>
<feColorMatrix type="matrix" values="0 0 0 0 0 0 0 0 0 0 0 0 0 0 0 0 0 0 0.25 0"/>
<feBlend mode="normal" in2="BackgroundImageFix" result="effect1_dropShadow_283_3091"/>
<feBlend mode="normal" in="SourceGraphic" in2="effect1_dropShadow_283_3091" result="shape"/>
</filter>
<filter id="filter4_d_283_3091" x="185.723" y="371.905" width="10.8822" height="16.8091" filterUnits="userSpaceOnUse" color-interpolation-filters="sRGB">
<feFlood flood-opacity="0" result="BackgroundImageFix"/>
<feColorMatrix in="SourceAlpha" type="matrix" values="0 0 0 0 0 0 0 0 0 0 0 0 0 0 0 0 0 0 127 0" result="hardAlpha"/>
<feOffset dy="4"/>
<feGaussianBlur stdDeviation="2"/>
<feComposite in2="hardAlpha" operator="out"/>
<feColorMatrix type="matrix" values="0 0 0 0 0 0 0 0 0 0 0 0 0 0 0 0 0 0 0.25 0"/>
<feBlend mode="normal" in2="BackgroundImageFix" result="effect1_dropShadow_283_3091"/>
<feBlend mode="normal" in="SourceGraphic" in2="effect1_dropShadow_283_3091" result="shape"/>
</filter>
<filter id="filter5_d_283_3091" x="189.299" y="378.498" width="10.8822" height="16.8091" filterUnits="userSpaceOnUse" color-interpolation-filters="sRGB">
<feFlood flood-opacity="0" result="BackgroundImageFix"/>
<feColorMatrix in="SourceAlpha" type="matrix" values="0 0 0 0 0 0 0 0 0 0 0 0 0 0 0 0 0 0 127 0" result="hardAlpha"/>
<feOffset dy="4"/>
<feGaussianBlur stdDeviation="2"/>
<feComposite in2="hardAlpha" operator="out"/>
<feColorMatrix type="matrix" values="0 0 0 0 0 0 0 0 0 0 0 0 0 0 0 0 0 0 0.25 0"/>
<feBlend mode="normal" in2="BackgroundImageFix" result="effect1_dropShadow_283_3091"/>
<feBlend mode="normal" in="SourceGraphic" in2="effect1_dropShadow_283_3091" result="shape"/>
</filter>
<filter id="filter6_d_283_3091" x="185.05" y="379.893" width="10.8822" height="16.8091" filterUnits="userSpaceOnUse" color-interpolation-filters="sRGB">
<feFlood flood-opacity="0" result="BackgroundImageFix"/>
<feColorMatrix in="SourceAlpha" type="matrix" values="0 0 0 0 0 0 0 0 0 0 0 0 0 0 0 0 0 0 127 0" result="hardAlpha"/>
<feOffset dy="4"/>
<feGaussianBlur stdDeviation="2"/>
<feComposite in2="hardAlpha" operator="out"/>
<feColorMatrix type="matrix" values="0 0 0 0 0 0 0 0 0 0 0 0 0 0 0 0 0 0 0.25 0"/>
<feBlend mode="normal" in2="BackgroundImageFix" result="effect1_dropShadow_283_3091"/>
<feBlend mode="normal" in="SourceGraphic" in2="effect1_dropShadow_283_3091" result="shape"/>
</filter>
<filter id="filter7_d_283_3091" x="175.651" y="378.506" width="10.8822" height="16.8091" filterUnits="userSpaceOnUse" color-interpolation-filters="sRGB">
<feFlood flood-opacity="0" result="BackgroundImageFix"/>
<feColorMatrix in="SourceAlpha" type="matrix" values="0 0 0 0 0 0 0 0 0 0 0 0 0 0 0 0 0 0 127 0" result="hardAlpha"/>
<feOffset dy="4"/>
<feGaussianBlur stdDeviation="2"/>
<feComposite in2="hardAlpha" operator="out"/>
<feColorMatrix type="matrix" values="0 0 0 0 0 0 0 0 0 0 0 0 0 0 0 0 0 0 0.25 0"/>
<feBlend mode="normal" in2="BackgroundImageFix" result="effect1_dropShadow_283_3091"/>
<feBlend mode="normal" in="SourceGraphic" in2="effect1_dropShadow_283_3091" result="shape"/>
</filter>
<filter id="filter8_d_283_3091" x="178.765" y="377.954" width="10.8822" height="16.8091" filterUnits="userSpaceOnUse" color-interpolation-filters="sRGB">
<feFlood flood-opacity="0" result="BackgroundImageFix"/>
<feColorMatrix in="SourceAlpha" type="matrix" values="0 0 0 0 0 0 0 0 0 0 0 0 0 0 0 0 0 0 127 0" result="hardAlpha"/>
<feOffset dy="4"/>
<feGaussianBlur stdDeviation="2"/>
<feComposite in2="hardAlpha" operator="out"/>
<feColorMatrix type="matrix" values="0 0 0 0 0 0 0 0 0 0 0 0 0 0 0 0 0 0 0.25 0"/>
<feBlend mode="normal" in2="BackgroundImageFix" result="effect1_dropShadow_283_3091"/>
<feBlend mode="normal" in="SourceGraphic" in2="effect1_dropShadow_283_3091" result="shape"/>
</filter>
<filter id="filter9_d_283_3091" x="178.652" y="371.873" width="10.8822" height="16.8091" filterUnits="userSpaceOnUse" color-interpolation-filters="sRGB">
<feFlood flood-opacity="0" result="BackgroundImageFix"/>
<feColorMatrix in="SourceAlpha" type="matrix" values="0 0 0 0 0 0 0 0 0 0 0 0 0 0 0 0 0 0 127 0" result="hardAlpha"/>
<feOffset dy="4"/>
<feGaussianBlur stdDeviation="2"/>
<feComposite in2="hardAlpha" operator="out"/>
<feColorMatrix type="matrix" values="0 0 0 0 0 0 0 0 0 0 0 0 0 0 0 0 0 0 0.25 0"/>
<feBlend mode="normal" in2="BackgroundImageFix" result="effect1_dropShadow_283_3091"/>
<feBlend mode="normal" in="SourceGraphic" in2="effect1_dropShadow_283_3091" result="shape"/>
</filter>
<filter id="filter10_d_283_3091" x="208.143" y="401.495" width="10.8822" height="16.8091" filterUnits="userSpaceOnUse" color-interpolation-filters="sRGB">
<feFlood flood-opacity="0" result="BackgroundImageFix"/>
<feColorMatrix in="SourceAlpha" type="matrix" values="0 0 0 0 0 0 0 0 0 0 0 0 0 0 0 0 0 0 127 0" result="hardAlpha"/>
<feOffset dy="4"/>
<feGaussianBlur stdDeviation="2"/>
<feComposite in2="hardAlpha" operator="out"/>
<feColorMatrix type="matrix" values="0 0 0 0 0 0 0 0 0 0 0 0 0 0 0 0 0 0 0.25 0"/>
<feBlend mode="normal" in2="BackgroundImageFix" result="effect1_dropShadow_283_3091"/>
<feBlend mode="normal" in="SourceGraphic" in2="effect1_dropShadow_283_3091" result="shape"/>
</filter>
<filter id="filter11_d_283_3091" x="205.759" y="397.1" width="10.8822" height="16.8091" filterUnits="userSpaceOnUse" color-interpolation-filters="sRGB">
<feFlood flood-opacity="0" result="BackgroundImageFix"/>
<feColorMatrix in="SourceAlpha" type="matrix" values="0 0 0 0 0 0 0 0 0 0 0 0 0 0 0 0 0 0 127 0" result="hardAlpha"/>
<feOffset dy="4"/>
<feGaussianBlur stdDeviation="2"/>
<feComposite in2="hardAlpha" operator="out"/>
<feColorMatrix type="matrix" values="0 0 0 0 0 0 0 0 0 0 0 0 0 0 0 0 0 0 0.25 0"/>
<feBlend mode="normal" in2="BackgroundImageFix" result="effect1_dropShadow_283_3091"/>
<feBlend mode="normal" in="SourceGraphic" in2="effect1_dropShadow_283_3091" result="shape"/>
</filter>
<filter id="filter12_d_283_3091" x="243.009" y="377.048" width="16.152" height="22.1853" filterUnits="userSpaceOnUse" color-interpolation-filters="sRGB">
<feFlood flood-opacity="0" result="BackgroundImageFix"/>
<feColorMatrix in="SourceAlpha" type="matrix" values="0 0 0 0 0 0 0 0 0 0 0 0 0 0 0 0 0 0 127 0" result="hardAlpha"/>
<feOffset dy="4"/>
<feGaussianBlur stdDeviation="2"/>
<feComposite in2="hardAlpha" operator="out"/>
<feColorMatrix type="matrix" values="0 0 0 0 0 0 0 0 0 0 0 0 0 0 0 0 0 0 0.25 0"/>
<feBlend mode="normal" in2="BackgroundImageFix" result="effect1_dropShadow_283_3091"/>
<feBlend mode="normal" in="SourceGraphic" in2="effect1_dropShadow_283_3091" result="shape"/>
</filter>
<filter id="filter13_d_283_3091" x="236.353" y="374.203" width="19.866" height="28.051" filterUnits="userSpaceOnUse" color-interpolation-filters="sRGB">
<feFlood flood-opacity="0" result="BackgroundImageFix"/>
<feColorMatrix in="SourceAlpha" type="matrix" values="0 0 0 0 0 0 0 0 0 0 0 0 0 0 0 0 0 0 127 0" result="hardAlpha"/>
<feOffset dy="4"/>
<feGaussianBlur stdDeviation="2"/>
<feComposite in2="hardAlpha" operator="out"/>
<feColorMatrix type="matrix" values="0 0 0 0 0 0 0 0 0 0 0 0 0 0 0 0 0 0 0.25 0"/>
<feBlend mode="normal" in2="BackgroundImageFix" result="effect1_dropShadow_283_3091"/>
<feBlend mode="normal" in="SourceGraphic" in2="effect1_dropShadow_283_3091" result="shape"/>
</filter>
<filter id="filter14_d_283_3091" x="227.067" y="368.631" width="24.6984" height="39.6199" filterUnits="userSpaceOnUse" color-interpolation-filters="sRGB">
<feFlood flood-opacity="0" result="BackgroundImageFix"/>
<feColorMatrix in="SourceAlpha" type="matrix" values="0 0 0 0 0 0 0 0 0 0 0 0 0 0 0 0 0 0 127 0" result="hardAlpha"/>
<feOffset dy="4"/>
<feGaussianBlur stdDeviation="2"/>
<feComposite in2="hardAlpha" operator="out"/>
<feColorMatrix type="matrix" values="0 0 0 0 0 0 0 0 0 0 0 0 0 0 0 0 0 0 0.25 0"/>
<feBlend mode="normal" in2="BackgroundImageFix" result="effect1_dropShadow_283_3091"/>
<feBlend mode="normal" in="SourceGraphic" in2="effect1_dropShadow_283_3091" result="shape"/>
</filter>
<filter id="filter15_d_283_3091" x="219.996" y="368.598" width="26.385" height="41.8904" filterUnits="userSpaceOnUse" color-interpolation-filters="sRGB">
<feFlood flood-opacity="0" result="BackgroundImageFix"/>
<feColorMatrix in="SourceAlpha" type="matrix" values="0 0 0 0 0 0 0 0 0 0 0 0 0 0 0 0 0 0 127 0" result="hardAlpha"/>
<feOffset dy="4"/>
<feGaussianBlur stdDeviation="2"/>
<feComposite in2="hardAlpha" operator="out"/>
<feColorMatrix type="matrix" values="0 0 0 0 0 0 0 0 0 0 0 0 0 0 0 0 0 0 0.25 0"/>
<feBlend mode="normal" in2="BackgroundImageFix" result="effect1_dropShadow_283_3091"/>
<feBlend mode="normal" in="SourceGraphic" in2="effect1_dropShadow_283_3091" result="shape"/>
</filter>
<filter id="filter16_d_283_3091" x="214.06" y="367.722" width="27.9256" height="45.1501" filterUnits="userSpaceOnUse" color-interpolation-filters="sRGB">
<feFlood flood-opacity="0" result="BackgroundImageFix"/>
<feColorMatrix in="SourceAlpha" type="matrix" values="0 0 0 0 0 0 0 0 0 0 0 0 0 0 0 0 0 0 127 0" result="hardAlpha"/>
<feOffset dy="4"/>
<feGaussianBlur stdDeviation="2"/>
<feComposite in2="hardAlpha" operator="out"/>
<feColorMatrix type="matrix" values="0 0 0 0 0 0 0 0 0 0 0 0 0 0 0 0 0 0 0.25 0"/>
<feBlend mode="normal" in2="BackgroundImageFix" result="effect1_dropShadow_283_3091"/>
<feBlend mode="normal" in="SourceGraphic" in2="effect1_dropShadow_283_3091" result="shape"/>
</filter>
<filter id="filter17_d_283_3091" x="209.114" y="366.992" width="26.9363" height="45.0042" filterUnits="userSpaceOnUse" color-interpolation-filters="sRGB">
<feFlood flood-opacity="0" result="BackgroundImageFix"/>
<feColorMatrix in="SourceAlpha" type="matrix" values="0 0 0 0 0 0 0 0 0 0 0 0 0 0 0 0 0 0 127 0" result="hardAlpha"/>
<feOffset dy="4"/>
<feGaussianBlur stdDeviation="2"/>
<feComposite in2="hardAlpha" operator="out"/>
<feColorMatrix type="matrix" values="0 0 0 0 0 0 0 0 0 0 0 0 0 0 0 0 0 0 0.25 0"/>
<feBlend mode="normal" in2="BackgroundImageFix" result="effect1_dropShadow_283_3091"/>
<feBlend mode="normal" in="SourceGraphic" in2="effect1_dropShadow_283_3091" result="shape"/>
</filter>
<filter id="filter18_d_283_3091" x="203.032" y="367.106" width="28.4769" height="48.2642" filterUnits="userSpaceOnUse" color-interpolation-filters="sRGB">
<feFlood flood-opacity="0" result="BackgroundImageFix"/>
<feColorMatrix in="SourceAlpha" type="matrix" values="0 0 0 0 0 0 0 0 0 0 0 0 0 0 0 0 0 0 127 0" result="hardAlpha"/>
<feOffset dy="4"/>
<feGaussianBlur stdDeviation="2"/>
<feComposite in2="hardAlpha" operator="out"/>
<feColorMatrix type="matrix" values="0 0 0 0 0 0 0 0 0 0 0 0 0 0 0 0 0 0 0.25 0"/>
<feBlend mode="normal" in2="BackgroundImageFix" result="effect1_dropShadow_283_3091"/>
<feBlend mode="normal" in="SourceGraphic" in2="effect1_dropShadow_283_3091" result="shape"/>
</filter>
<filter id="filter19_d_283_3091" x="206.161" y="393.849" width="16.152" height="22.1853" filterUnits="userSpaceOnUse" color-interpolation-filters="sRGB">
<feFlood flood-opacity="0" result="BackgroundImageFix"/>
<feColorMatrix in="SourceAlpha" type="matrix" values="0 0 0 0 0 0 0 0 0 0 0 0 0 0 0 0 0 0 127 0" result="hardAlpha"/>
<feOffset dy="4"/>
<feGaussianBlur stdDeviation="2"/>
<feComposite in2="hardAlpha" operator="out"/>
<feColorMatrix type="matrix" values="0 0 0 0 0 0 0 0 0 0 0 0 0 0 0 0 0 0 0.25 0"/>
<feBlend mode="normal" in2="BackgroundImageFix" result="effect1_dropShadow_283_3091"/>
<feBlend mode="normal" in="SourceGraphic" in2="effect1_dropShadow_283_3091" result="shape"/>
</filter>
<filter id="filter20_d_283_3091" x="198.637" y="369.49" width="27.4877" height="48.1182" filterUnits="userSpaceOnUse" color-interpolation-filters="sRGB">
<feFlood flood-opacity="0" result="BackgroundImageFix"/>
<feColorMatrix in="SourceAlpha" type="matrix" values="0 0 0 0 0 0 0 0 0 0 0 0 0 0 0 0 0 0 127 0" result="hardAlpha"/>
<feOffset dy="4"/>
<feGaussianBlur stdDeviation="2"/>
<feComposite in2="hardAlpha" operator="out"/>
<feColorMatrix type="matrix" values="0 0 0 0 0 0 0 0 0 0 0 0 0 0 0 0 0 0 0.25 0"/>
<feBlend mode="normal" in2="BackgroundImageFix" result="effect1_dropShadow_283_3091"/>
<feBlend mode="normal" in="SourceGraphic" in2="effect1_dropShadow_283_3091" result="shape"/>
</filter>
<filter id="filter21_d_283_3091" x="193.398" y="370.739" width="16.152" height="22.1853" filterUnits="userSpaceOnUse" color-interpolation-filters="sRGB">
<feFlood flood-opacity="0" result="BackgroundImageFix"/>
<feColorMatrix in="SourceAlpha" type="matrix" values="0 0 0 0 0 0 0 0 0 0 0 0 0 0 0 0 0 0 127 0" result="hardAlpha"/>
<feOffset dy="4"/>
<feGaussianBlur stdDeviation="2"/>
<feComposite in2="hardAlpha" operator="out"/>
<feColorMatrix type="matrix" values="0 0 0 0 0 0 0 0 0 0 0 0 0 0 0 0 0 0 0.25 0"/>
<feBlend mode="normal" in2="BackgroundImageFix" result="effect1_dropShadow_283_3091"/>
<feBlend mode="normal" in="SourceGraphic" in2="effect1_dropShadow_283_3091" result="shape"/>
</filter>
<filter id="filter22_d_283_3091" x="185.395" y="373.601" width="16.152" height="22.1853" filterUnits="userSpaceOnUse" color-interpolation-filters="sRGB">
<feFlood flood-opacity="0" result="BackgroundImageFix"/>
<feColorMatrix in="SourceAlpha" type="matrix" values="0 0 0 0 0 0 0 0 0 0 0 0 0 0 0 0 0 0 127 0" result="hardAlpha"/>
<feOffset dy="4"/>
<feGaussianBlur stdDeviation="2"/>
<feComposite in2="hardAlpha" operator="out"/>
<feColorMatrix type="matrix" values="0 0 0 0 0 0 0 0 0 0 0 0 0 0 0 0 0 0 0.25 0"/>
<feBlend mode="normal" in2="BackgroundImageFix" result="effect1_dropShadow_283_3091"/>
<feBlend mode="normal" in="SourceGraphic" in2="effect1_dropShadow_283_3091" result="shape"/>
</filter>
<filter id="filter23_d_283_3091" x="179.459" y="372.725" width="16.152" height="22.1853" filterUnits="userSpaceOnUse" color-interpolation-filters="sRGB">
<feFlood flood-opacity="0" result="BackgroundImageFix"/>
<feColorMatrix in="SourceAlpha" type="matrix" values="0 0 0 0 0 0 0 0 0 0 0 0 0 0 0 0 0 0 127 0" result="hardAlpha"/>
<feOffset dy="4"/>
<feGaussianBlur stdDeviation="2"/>
<feComposite in2="hardAlpha" operator="out"/>
<feColorMatrix type="matrix" values="0 0 0 0 0 0 0 0 0 0 0 0 0 0 0 0 0 0 0.25 0"/>
<feBlend mode="normal" in2="BackgroundImageFix" result="effect1_dropShadow_283_3091"/>
<feBlend mode="normal" in="SourceGraphic" in2="effect1_dropShadow_283_3091" result="shape"/>
</filter>
<filter id="filter24_d_283_3091" x="32.6847" y="18.3467" width="181.243" height="412.34" filterUnits="userSpaceOnUse" color-interpolation-filters="sRGB">
<feFlood flood-opacity="0" result="BackgroundImageFix"/>
<feColorMatrix in="SourceAlpha" type="matrix" values="0 0 0 0 0 0 0 0 0 0 0 0 0 0 0 0 0 0 127 0" result="hardAlpha"/>
<feOffset dy="4"/>
<feGaussianBlur stdDeviation="2"/>
<feComposite in2="hardAlpha" operator="out"/>
<feColorMatrix type="matrix" values="0 0 0 0 0 0 0 0 0 0 0 0 0 0 0 0 0 0 0.25 0"/>
<feBlend mode="normal" in2="BackgroundImageFix" result="effect1_dropShadow_283_3091"/>
<feBlend mode="normal" in="SourceGraphic" in2="effect1_dropShadow_283_3091" result="shape"/>
</filter>
<filter id="filter25_d_283_3091" x="189.644" y="372.206" width="16.152" height="22.1853" filterUnits="userSpaceOnUse" color-interpolation-filters="sRGB">
<feFlood flood-opacity="0" result="BackgroundImageFix"/>
<feColorMatrix in="SourceAlpha" type="matrix" values="0 0 0 0 0 0 0 0 0 0 0 0 0 0 0 0 0 0 127 0" result="hardAlpha"/>
<feOffset dy="4"/>
<feGaussianBlur stdDeviation="2"/>
<feComposite in2="hardAlpha" operator="out"/>
<feColorMatrix type="matrix" values="0 0 0 0 0 0 0 0 0 0 0 0 0 0 0 0 0 0 0.25 0"/>
<feBlend mode="normal" in2="BackgroundImageFix" result="effect1_dropShadow_283_3091"/>
<feBlend mode="normal" in="SourceGraphic" in2="effect1_dropShadow_283_3091" result="shape"/>
</filter>
</defs>
</svg>
