<svg width="360" height="691" viewBox="0 0 360 691" fill="none" xmlns="http://www.w3.org/2000/svg">
<g filter="url(#filter0_d_94_1221)">
<path d="M185 144.448L196.5 147.948H182M185 144.448L196.5 136.948V139.448L218 128.948L215.5 133.448L227 126.448L225 130.448L237.5 124.448L236.5 127.948L250.5 122.448L269 118.448V120.948H291L288.5 122.448L302.5 124.448L299 126.448L306.5 130.448L312.5 122.448C339.154 65.6405 365.986 46.7229 406 4.44834C414 -3.5516 422 3.94839 419 10.9483L383.5 83.9483M185 144.448L182 147.948M383.5 83.9483C350.313 104.863 331.579 116.462 302.5 141.448M383.5 83.9483L479.5 45.4484C482.5 43.9484 485 47.9484 481 50.4484C471.93 72.5471 461.508 84.6207 431 105.448C401.5 131.448 365 127.948 336 152.948L346.5 163.448L342 161.948L351 177.448L346.5 175.448L348.5 190.448L345.5 187.948L348.5 197.448L342 194.448L346.5 210.948L342 209.448L344 220.948L341 221.948L342 226.948H334.5L328.5 223.948C322.935 222.23 319.783 221.56 314 221.948C309.046 218.519 305.619 217.8 299 217.448C292.088 216.245 288.199 215.556 284.5 217.448C281.404 210.774 277.42 210.177 269 210.948C262.158 204.896 257.716 203.738 248.5 203.948C244.559 201.343 241.857 201.094 236.5 201.948C230.039 196.646 227.486 198.328 222.5 199.448L213 187.948L209.5 180.948L207.5 183.948L203.5 175.448L201.5 177.448L178.5 157.448L182 147.948" stroke="black"/>
<path d="M341 123.948C335 128.448 327 140.448 334 147.448M357 108.448C361.349 110.162 362.519 111.522 363 114.448M352 125.448L348 130.948" stroke="black"/>
<path d="M344 132.948C342.8 134.948 340.167 141.115 339 143.948L337.5 140.948" stroke="black"/>
<path d="M353.5 135.948L355 131.448" stroke="black"/>
<path d="M360 130.948L365 128.948" stroke="black"/>
<path d="M327.5 132.448V137.948" stroke="black"/>
<path d="M348.5 116.448L347 120.448" stroke="black"/>
<path d="M357.5 80.9484L356.5 89.4484" stroke="black"/>
<path d="M351.5 93.4484C351.5 94.2484 349.833 99.4484 349 101.948" stroke="black"/>
<path d="M344.5 98.9484L343 104.448" stroke="black"/>
<path d="M247 160.448C259 140.448 281.5 139.948 287.5 162.448C279 182.948 260.5 171.448 248.314 166.088M247 160.448L249 165.948C248.764 166.006 248.535 166.052 248.314 166.088M247 160.448C242.191 161.41 242.747 166.998 248.314 166.088" stroke="black"/>
<path d="M255.5 168.948C250 162.448 251.5 154.948 257.5 149.448C268.561 142.061 278 146.448 282.5 151.948C283.576 159.95 283.709 164.338 280.5 171.448C269.604 176.887 262 172.448 255.5 168.948Z" stroke="black"/>
<path d="M268 146.448C274.332 146.448 279.5 151.802 279.5 158.448C279.5 165.095 274.332 170.448 268 170.448C261.668 170.448 256.5 165.095 256.5 158.448C256.5 151.802 261.668 146.448 268 146.448Z" fill="black" stroke="black"/>
<path d="M267.5 150.448C271.336 150.448 274.5 153.775 274.5 157.948C274.5 162.121 271.336 165.448 267.5 165.448C263.664 165.448 260.5 162.121 260.5 157.948C260.5 153.775 263.664 150.448 267.5 150.448Z" fill="white" stroke="black"/>
<path d="M321.5 171.948L325 175.448" stroke="black"/>
<path d="M328.5 179.448L330.5 185.948" stroke="black"/>
<path d="M319.5 178.948L318.5 187.448" stroke="black"/>
<path d="M322.5 192.948C322.9 193.748 323.333 197.948 323.5 199.948L320.5 195.948" stroke="black"/>
<path d="M328.5 191.948C329.3 193.148 329.833 195.782 330 196.948" stroke="black"/>
<path d="M334.5 204.948V210.448" stroke="black"/>
<path d="M336.5 188.448C337.3 189.248 338.5 191.115 339 191.948" stroke="black"/>
<path d="M314.5 150.948L316 146.948" stroke="black"/>
<path d="M320 146.948C320.8 146.148 322 142.282 322.5 140.448" stroke="black"/>
<path d="M329.5 154.448C329.9 154.048 330.333 152.948 330.5 152.448" stroke="black"/>
<path d="M323.5 152.448C323.9 151.248 326.667 145.615 328 142.948" stroke="black"/>
<path d="M330.5 163.448L329.5 158.448" stroke="black"/>
<path d="M308.5 145.948C308.9 145.148 309.667 143.282 310 142.448" stroke="black"/>
<path d="M313 145.448L314.5 142.448" stroke="black"/>
<path d="M340 174.448L338 170.948" stroke="black"/>
<path d="M331 212.448L330 205.448" stroke="black"/>
<path d="M332 225.448C332 224.648 332 222.448 332 221.448" stroke="black"/>
<path d="M336 226.448C336 226.048 335 219.282 334.5 215.948" stroke="black"/>
<path d="M327.5 217.448L326 212.948" stroke="black"/>
<path d="M322.5 210.448C322.1 210.048 320.333 204.948 319.5 202.448" stroke="black"/>
<path d="M316.5 201.948L311 190.448" stroke="black"/>
<path d="M308.5 185.948C307.7 185.148 305.833 182.282 305 180.948" stroke="black"/>
<path d="M304 199.948L305 195.948" stroke="black"/>
<path d="M301.5 195.448V189.948" stroke="black"/>
<path d="M296 190.448L294.5 184.948" stroke="black"/>
<path d="M294 200.948C294 199.748 294 195.115 294 192.948" stroke="black"/>
<path d="M304 213.948C304 213.548 300.333 207.782 298.5 204.948" stroke="black"/>
<path d="M310 219.448L309 215.948" stroke="black"/>
<path d="M293.5 206.448L296 211.448" stroke="black"/>
<path d="M298 213.948L299 217.448" stroke="black"/>
<path d="M306.5 202.948L309 209.448" stroke="black"/>
<path d="M324.5 202.448L328 209.948" stroke="black"/>
<path d="M267 179.948C267.4 180.348 267.167 183.115 267 184.448" stroke="black"/>
<path d="M270 178.948V184.448" stroke="black"/>
<path d="M274 179.948V185.448" stroke="black"/>
<path d="M277 179.948V184.448" stroke="black"/>
<path d="M280 179.948V183.448" stroke="black"/>
<path d="M282.5 179.448V181.448" stroke="black"/>
<path d="M289 174.948V178.448" stroke="black"/>
<path d="M292 170.948V174.948" stroke="black"/>
<path d="M294.5 167.948V171.448" stroke="black"/>
<path d="M239 167.948C233.5 170.948 239 173.448 239 176.448M243 173.448C243 172.115 243 169.148 243 167.948C243 167.948 245.5 169.948 244.75 171.698M246.5 175.448C245.577 174.818 245.252 173.79 244.75 171.698M244.75 171.698C247.889 171.711 249.605 171.847 250.5 178.448" stroke="black"/>
<path d="M249.5 199.948C249.5 200.348 249.167 202.448 249 203.448" stroke="black"/>
<path d="M253 203.948L253.5 200.448" stroke="black"/>
<path d="M258 204.448V200.448" stroke="black"/>
<path d="M263 206.448C263 206.048 263 200.615 263 197.948" stroke="black"/>
<path d="M269 192.448V194.448" stroke="black"/>
<path d="M268.5 196.948L269.5 210.948" stroke="black"/>
<path d="M271.5 192.948V197.948" stroke="black"/>
<path d="M273 210.448L272 201.448" stroke="black"/>
<path d="M275.5 194.448V196.948" stroke="black"/>
<path d="M279.5 211.948L276.5 200.448" stroke="black"/>
<path d="M287.5 216.448L283.5 203.948" stroke="black"/>
<path d="M281 204.448C280.6 203.648 279.167 197.782 278.5 194.948" stroke="black"/>
<path d="M254 176.448L255 179.948" stroke="black"/>
<path d="M256.5 176.448L258.5 180.448" stroke="black"/>
<path d="M262 177.448L263 180.448" stroke="black"/>
<path d="M243.5 179.448L244.5 182.448" stroke="black"/>
<path d="M247.5 183.948V187.448" stroke="black"/>
<path d="M238 179.448L239 182.948" stroke="black"/>
<path d="M200.5 151.448L195 155.448" stroke="black"/>
<path d="M222.5 142.948L219 144.948" stroke="black"/>
<path d="M216 148.948C214.8 150.548 210.833 152.615 209 153.448" stroke="black"/>
<path d="M206 155.448C205.2 155.848 203.333 157.948 202.5 158.948" stroke="black"/>
<path d="M200.5 163.948L203.5 167.948" stroke="black"/>
<path d="M212 169.448V171.448" stroke="black"/>
<path d="M206.5 170.948V174.448" stroke="black"/>
<path d="M209 168.948C209.4 170.548 209.167 172.282 209 172.948" stroke="black"/>
<path d="M216 152.448C216.8 151.648 224.333 145.448 228 142.448" stroke="black"/>
<path d="M220.5 158.948C222.1 157.748 234.167 145.115 240 138.948" stroke="black"/>
<path d="M222.5 164.448C224.5 162.448 231.667 154.615 235 150.948" stroke="black"/>
<path d="M239.5 147.948C240.7 147.148 245.333 141.282 247.5 138.448" stroke="black"/>
<path d="M266.5 137.948C265.3 139.548 263.333 141.615 262.5 142.448" stroke="black"/>
<path d="M273.5 137.448L269.5 143.448" stroke="black"/>
<path d="M278.5 138.448L274.5 141.948" stroke="black"/>
<path d="M252 146.948C251.6 147.348 247.167 153.782 245 156.948" stroke="black"/>
<path d="M247.5 147.448L252 142.948" stroke="black"/>
<path d="M235.5 160.948C236.3 160.548 238.5 158.448 239.5 157.448" stroke="black"/>
<path d="M227.5 165.948L240 152.448" stroke="black"/>
<path d="M209.5 163.448C210.5 162.948 215.5 154.948 216.5 155.448" stroke="black"/>
<path d="M226 148.948L234.5 140.448" stroke="black"/>
<path d="M191.5 152.948C189.083 157.237 190.84 159.479 194.5 163.448" stroke="black"/>
<path d="M222.5 199.948C228.451 197.332 231.529 197.712 236.5 201.948C241.915 200.755 244.52 201.201 248.5 203.948C256.735 204.1 261.369 203.999 269 210.948C278.233 210.081 282.534 210.531 284 217.948C288.5 213.448 310.5 218.948 314.5 221.948L334.5 226.948H350L363 234.448C364.922 255.039 361.063 264.343 346.5 277.448C340.5 278.448 336.48 275.831 334.5 272.948C328.6 273.464 326.057 272.918 323 270.329C321.935 270.092 321.108 269.269 320.769 267.948C315.291 268.561 312.991 267.848 310.811 263.948C308.305 265.775 306.114 264.945 305.106 262.448C299.069 262.729 297.616 261.399 296 258.273C293.066 260.499 289.812 259.74 289.434 255.448C285.5 257.448 281.5 254.948 282.387 251.448C279.433 254.437 274.396 254.352 273.843 250.448L266 243.827C264.012 244.745 261.336 242.7 261.291 238.948L252 230.448L244.5 221.448L234.5 211.448L222.5 199.948Z" fill="black"/>
<path d="M346.5 277.448C361.063 264.343 364.922 255.039 363 234.448L350 226.948H334.5L314.5 221.948C310.5 218.948 288.5 213.448 284 217.948C282.534 210.531 278.233 210.081 269 210.948C261.369 203.999 256.735 204.1 248.5 203.948C244.52 201.201 241.915 200.755 236.5 201.948C231.529 197.712 228.451 197.332 222.5 199.948L234.5 211.448M346.5 277.448C340.5 278.448 336.48 275.831 334.5 272.948M346.5 277.448C346.851 276.247 347.191 275.081 347.519 273.948M348 236.948C350 230.948 355 230.948 355 236.948C355.019 237.278 355.034 237.612 355.043 237.948M348 236.948L355.043 237.948M348 236.948C347.742 239.47 347.433 241.747 347.075 243.827M334.5 272.948C328.6 273.464 326.057 272.918 323 270.329M334.5 272.948C335.012 272.039 335.512 271.168 336.002 270.329M334.5 272.948L337.773 262.448M340 233.448C342.25 226.948 347 228.948 346.5 234.448L346.032 235.948M340 233.448L338.27 238.638M340 233.448L346.032 235.948M329 266.448C327.093 269.547 324.732 270.714 323 270.329M329 266.448L336.002 270.329M329 266.448L331 260.448M330.5 235.948L329.163 239.888M330.5 235.948L323 234.448M330.5 235.948C330.752 234.606 330.778 233.432 330.636 232.448M323 234.448L321.81 237.948M323 234.448C323.434 232.973 323.988 231.815 324.6 230.948M302.5 230.448C302.817 228.547 303.347 227.16 304.01 226.198M302.5 230.448L313.1 234.448M302.5 230.448L301.783 235.948M290 250.448C289.475 252.462 289.317 254.124 289.434 255.448M290 250.448L284 248.448L284.411 243.827M290 250.448L291.191 246.448M286 225.948L285.622 230.198M286 225.948L296.032 230.198M286 225.948C286.188 224.162 286.73 222.853 287.478 221.948M284 248.948C283.621 249.934 283.058 250.77 282.387 251.448M274.5 246.448C273.87 248.069 273.694 249.397 273.843 250.448M274.5 246.448L276.064 241.198M274.5 246.448L268 240.448M281.5 222.948L280.085 227.698M281.5 222.948L270.546 217.308M281.5 222.948C281.673 221.566 281.66 220.33 281.5 219.241M269.5 221.448L269.125 226.198M269.5 221.448L280.085 227.698M269.5 221.448C269.642 219.819 270.014 218.44 270.546 217.308M268 240.448C267.713 242.313 266.932 243.396 266 243.827M268 240.448L268.375 235.698M244.5 221.448L252 229.948L251.889 226.948M244.5 221.448L252 230.448L261.291 238.948M244.5 221.448L234.5 211.448M244.5 221.448L245.452 217.448M236.5 206.948C238.5 202.948 248 206.948 247 210.948L246.405 213.448M236.5 206.948L246.405 213.448M236.5 206.948L235.5 209.198M234.5 211.448L235.5 209.198M323 270.329C321.935 270.092 321.108 269.269 320.769 267.948M320.769 267.948C315.291 268.561 312.991 267.848 310.811 263.948M320.769 267.948C320.655 267.504 320.597 267.003 320.603 266.448M310.811 263.948C308.305 265.775 306.114 264.945 305.106 262.448M310.811 263.948C311.554 263.407 312.324 262.633 313.1 261.599M305.106 262.448C299.069 262.729 297.616 261.399 296 258.273M305.106 262.448C304.662 261.351 304.447 259.931 304.534 258.273M296 258.273C293.066 260.499 289.812 259.74 289.434 255.448M296 258.273C296.888 257.6 297.747 256.653 298.488 255.448M289.434 255.448C285.5 257.448 281.5 254.948 282.387 251.448M282.387 251.448C279.433 254.437 274.396 254.352 273.843 250.448M273.843 250.448L266 243.827M266 243.827C264.012 244.745 261.336 242.7 261.291 238.948M261.291 238.948C261.283 238.327 261.348 237.658 261.5 236.948L261.639 235.948M246.405 213.448L245.452 217.448M245.452 217.448L235.5 209.198M263.122 225.271L251.556 217.948M263.122 225.271L263.792 220.448M263.122 225.271L262.472 229.948M251.556 217.948L251.5 216.448C251.5 215.184 251.884 214.19 252.517 213.448M251.556 217.948L251.741 222.948M263.792 220.448L264 218.948C264.072 218.37 264.069 217.823 264 217.308M263.792 220.448L252.517 213.448M252.517 213.448C253.349 212.475 254.611 211.938 256 211.801M264 217.308C263.489 213.484 259.372 211.466 256 211.801M264 217.308L256 211.801M262.472 229.948L251.741 222.948M262.472 229.948L261.639 235.948M251.741 222.948L251.889 226.948M261.639 235.948L251.889 226.948M277.628 235.948L268.75 230.948M277.628 235.948L278.67 232.448M277.628 235.948L276.064 241.198M268.75 230.948L269.125 226.198M268.75 230.948L268.375 235.698M277.628 232.448H278.67M278.67 232.448L269.125 226.198M278.67 232.448L280.085 227.698M270.546 217.308C271.179 215.957 272.039 214.958 273 214.303M281.5 219.241C280.704 213.82 276.263 212.079 273 214.303M281.5 219.241L273 214.303M276.064 241.198L268.375 235.698M291.191 246.448L284.411 243.827M291.191 246.448L292.532 241.948M284.411 243.827L284.844 238.948M292.532 241.948L284.844 238.948M292.532 241.948L294.021 236.948M284.844 238.948L285.244 234.448M294.021 236.948L285.244 234.448M294.021 236.948L295.064 233.448M285.244 234.448L285.622 230.198M295.064 233.448L285.622 230.198M295.064 233.448L296.032 230.198M296.032 230.198L297 226.948C297.052 226.608 297.072 226.274 297.062 225.948M297.062 225.948L287.478 221.948M297.062 225.948C297.025 224.814 296.627 223.782 296 222.92M287.478 221.948C288.178 221.103 289.058 220.611 290 220.411M296 222.92C294.625 221.028 292.152 219.955 290 220.411M296 222.92L290 220.411M304.01 226.198C306.79 222.162 311.895 225.62 313.287 229.948M304.01 226.198L313.287 229.948M313.287 229.948C313.656 231.095 313.764 232.303 313.5 233.448L313.1 234.448M313.1 234.448L310.811 240.171M301.783 235.948L310.811 240.171M301.783 235.948L301 241.948M310.811 240.171L308.3 246.448M301 241.948C300.896 242.748 305.823 245.282 308.3 246.448M301 241.948L300.087 248.948M308.3 246.448L305.9 252.448M300.087 248.948L299.5 253.448C299.199 254.178 298.858 254.846 298.488 255.448M300.087 248.948L305.9 252.448M305.9 252.448L305.5 253.448C304.916 255.201 304.61 256.828 304.534 258.273M298.488 255.448L304.534 258.273M313.1 261.599C313.566 260.978 314.035 260.263 314.5 259.448L315.18 257.448M313.1 261.599L320.603 266.448M320.603 266.448C320.612 265.707 320.736 264.871 321 263.948L322.188 260.448M322.188 260.448L315.18 257.448M322.188 260.448L323.205 257.448M315.18 257.448L316.2 254.448M316.2 254.448L323.205 257.448M316.2 254.448L317.22 251.448M323.205 257.448L324.223 254.448M324.223 254.448L317.22 251.448M324.223 254.448L325.241 251.448M317.22 251.448L318.07 248.948M318.07 248.948L325.241 251.448M318.07 248.948L318.92 246.448M325.241 251.448L326.089 248.948M326.089 248.948L318.92 246.448M326.089 248.948L326.938 246.448M318.92 246.448L319.811 243.827M319.811 243.827L326.938 246.448M319.811 243.827L321.81 237.948M326.938 246.448L327.827 243.827M327.827 243.827L321 241.198L321.81 237.948M327.827 243.827L329.163 239.888M321.81 237.948L329.163 239.888M330.636 232.448C330.078 228.59 326.923 227.661 324.6 230.948M330.636 232.448L324.6 230.948M355.043 237.948C355.108 240.217 354.951 242.656 354.557 245.448M347.075 243.827L354.557 245.448M347.075 243.827C346.756 245.678 346.398 247.374 346.003 248.948M354.557 245.448C354.299 247.279 353.94 249.261 353.475 251.448M346.003 248.948L353.475 251.448M346.003 248.948C345.398 251.358 344.707 253.483 343.935 255.448M353.475 251.448C353.082 253.293 352.615 255.282 352.07 257.448M343.935 255.448L352.07 257.448M343.935 255.448C343.24 257.215 342.481 258.852 341.66 260.448M352.07 257.448C351.565 259.455 350.993 261.614 350.353 263.948M341.66 260.448L350.353 263.948M341.66 260.448C340.798 262.125 339.87 263.757 338.879 265.448M350.353 263.948C349.878 265.681 349.365 267.511 348.813 269.448M338.879 265.448L348.813 269.448M338.879 265.448C337.971 266.999 337.01 268.599 336.002 270.329M348.813 269.448C348.403 270.888 347.972 272.386 347.519 273.948M336.002 270.329L347.519 273.948M331 260.448L337.773 262.448M331 260.448L333 254.448M337.773 262.448L339.643 256.448M333 254.448L339.643 256.448M333 254.448L335 248.448M339.643 256.448L341.513 250.448M335 248.448L341.513 250.448M335 248.448L336.54 243.827M341.513 250.448L342.76 246.448M336.54 243.827L342.76 246.448M336.54 243.827L338.27 238.638M342.76 246.448L344.396 241.198M338.27 238.638L344.396 241.198M344.396 241.198L346.032 235.948" stroke="white"/>
<path d="M129.5 112.448C136.82 124.901 140.388 115.421 138.32 110.948M124 113.448C126.377 107.219 129.5 108.948 135.5 108.948C136.849 108.948 137.778 109.777 138.32 110.948M138.32 110.948C142.408 111.671 145.012 112.59 146.5 114.191M148 121.448C148.356 118.041 147.977 115.78 146.5 114.191M146.5 114.191C152.398 114.259 155.456 116.408 160.5 123.448C162 125.948 159.296 127.014 155 127.448" stroke="black"/>
<path d="M13.9998 69.9484C15.4998 66.9484 63.4998 12.9484 63.4998 12.9484C66.5 9.94833 66.5 13.4483 65.5 15.4484C57.5 50.9484 69 74.9484 135 121.948L133 129.948C84.9231 85.6643 57.9946 61.0088 18.4998 73.4484C16 75.4484 12 72.4484 13.9998 69.9484Z" fill="black" stroke="black"/>
<path d="M21.7666 21.131L21.9014 21.589L22.3652 21.4757L32.1113 19.1036L25.1396 26.0948L24.7871 26.4484L25.1396 26.8019L32.1113 33.7921L22.3652 31.421L21.9014 31.3077L21.7666 31.7657L19 41.1759L16.2334 31.7657L16.0986 31.3077L15.6348 31.421L5.8877 33.7921L12.8604 26.8019L13.2129 26.4484L12.8604 26.0948L5.8877 19.1036L15.6348 21.4757L16.0986 21.589L16.2334 21.131L19 11.7198L21.7666 21.131Z" fill="black" stroke="black"/>
<path d="M178.5 552.948C113.565 541.641 85.368 528.102 38.5 500.948L36 505.948C79.3799 526.931 85.093 539.423 178.5 558.448C199.999 482.481 210.646 422.257 231 331.948L228 321.448L178.5 552.948Z" fill="black"/>
<path d="M162 222.948C109.073 329.652 80.6392 389.968 38.5 500.948M38.5 500.948C85.368 528.102 113.565 541.641 178.5 552.948L228 321.448L231 331.948C210.646 422.257 199.999 482.481 178.5 558.448C85.093 539.423 79.3799 526.931 36 505.948L38.5 500.948Z" stroke="black"/>
<path d="M132.5 547.448C130.902 552.928 122.569 550.929 121.939 546.026C121.359 550.328 115.014 548.212 114.5 542.448C112.421 548.301 107.362 545.181 108 540.448C106.211 544.15 98.6531 542.08 100.5 537.948C98.2306 542.023 93.1857 539.013 92.9203 534.597C91.264 540.506 83.8625 536.181 84.5 531.448C82.1726 535.954 74.8045 532.112 75.5 526.948C73.2885 530.593 66.1886 528.972 67 522.948C63.7697 527.77 59.4204 522.801 60 518.498C57.3081 522.516 49.94 518.707 51 514.032C47.8277 518.423 40.9987 516.244 43.5 510.448C40.2698 515.27 31.348 512.723 33.5594 509.078L35.7815 506.226" stroke="black"/>
<path d="M178.5 558.448C176.933 562.413 168.713 562.601 168.5 556.526C166.127 561.822 159.652 559.287 159.5 554.948C157.522 559.362 149.241 557.236 149.5 552.448C147.111 557.311 140.509 556.582 142 550.448C139.627 555.744 129.752 555.651 131.319 551.687L133.03 548.502" stroke="black"/>
<path d="M83.0001 524.448C84.5984 518.969 89.3702 522.545 90.0001 527.448C90.5796 523.146 95.4861 524.684 96.0001 530.448C98.0789 524.596 103.638 528.216 103 532.948C104.789 529.247 112.847 531.817 111 535.948C113.269 531.874 119.235 534.532 119.5 538.948C121.156 533.039 128.638 536.716 128 541.448C130.327 536.943 138.696 538.785 138 543.948C140.212 540.304 144.811 539.425 144 545.448C147.23 540.627 151.58 543.146 151 547.448C153.692 543.43 160.56 544.273 159.5 548.948C162.672 544.557 170.001 545.152 167.5 550.948C170.73 546.127 177 547.448 178 550.948L178 552.448" stroke="black"/>
<path d="M39 500.948C40.5671 496.984 48.2868 500.374 48.4999 506.448C50.8733 501.152 56.3477 506.61 56.4999 510.948C58.4778 506.535 65.7585 511.161 65.4999 515.948C67.8886 511.086 74.9909 513.814 73.4999 519.948C75.8733 514.652 82.4999 516.948 82.9999 520.448L82.9999 523.948" stroke="black"/>
<path d="M178.5 157.448C178.5 157.448 171.5 142.448 167.5 133.948C165.5 126.948 155 123.948 159 137.448L155 128.448C152.852 121.255 149.423 121.302 143 121.948M143 121.948L149 133.948M143 121.948C139.826 116.836 136 116.448 134.5 121.948C128.89 144.619 133.47 150.482 140.5 161.948L147 176.948V191.948L156 207.448L151.5 205.948L161.5 217.948H157L170.5 231.448L167.5 233.448L176.5 244.448L172.5 245.948L180.5 253.948L193 272.948L194.5 281.948L197.5 279.948L201 295.448L204.5 290.448L210 307.448L212 302.448L216 315.948L219 310.448L224.5 325.948L228.5 319.448L230 333.948L234 327.448C234.833 331.948 236.6 341.248 237 342.448C237.4 343.648 239.833 340.282 241 338.448" stroke="black"/>
<path d="M210 404.448L94.5 363.448L96 359.948L211.5 400.448L210 404.448Z" fill="black" stroke="black"/>
<path d="M173.5 424.275C181.443 432.062 182.09 447.463 160.874 469.948C157.616 473.402 153.842 477.022 149.5 480.808C146.479 483.441 143.182 486.155 139.593 488.948C135.74 491.947 131.55 495.036 127 498.216C123.842 500.424 120.511 502.674 117 504.969C114.742 506.444 112.409 507.937 110 509.448C109.164 506.895 108.371 504.395 107.62 501.948C106.401 497.977 105.292 494.145 104.286 490.448C103.103 486.096 102.063 481.932 101.159 477.948C100.206 473.749 99.4026 469.752 98.7391 465.948C97.9009 461.144 97.2854 456.649 96.871 452.448C96.121 444.846 96.0299 438.209 96.4699 432.448C97.7107 416.205 103.175 406.928 110 402.617C112.222 401.213 114.588 400.336 117 399.917C120.333 399.337 123.754 399.63 127 400.616C129.723 401.442 132.324 402.756 134.649 404.448C136.498 405.794 138.171 407.38 139.593 409.151C141.011 410.917 142.177 412.867 143.017 414.948C143.968 417.306 144.5 419.832 144.5 422.448C146.02 421.343 147.709 420.464 149.5 419.81C153.07 418.505 157.041 418.092 160.874 418.55C163.679 418.885 166.409 419.687 168.854 420.948C170.567 421.833 172.141 422.942 173.5 424.275Z" fill="black"/>
<path d="M144.5 422.448C146.02 421.343 147.709 420.464 149.5 419.81M144.5 422.448L117 504.969M144.5 422.448C144.5 419.832 143.968 417.306 143.017 414.948M160.874 469.948C182.09 447.463 181.443 432.062 173.5 424.275M160.874 469.948L173.5 424.275M160.874 469.948C157.616 473.402 153.842 477.022 149.5 480.808M173.5 424.275C172.141 422.942 170.567 421.833 168.854 420.948M168.854 420.948L149.5 480.808M168.854 420.948C166.409 419.687 163.679 418.885 160.874 418.55M149.5 480.808C146.479 483.441 143.182 486.155 139.593 488.948M139.593 488.948L160.874 418.55M139.593 488.948C135.74 491.947 131.55 495.036 127 498.216M160.874 418.55C157.041 418.092 153.07 418.505 149.5 419.81M149.5 419.81L127 498.216M127 498.216C123.842 500.424 120.511 502.674 117 504.969M117 504.969C114.742 506.444 112.409 507.937 110 509.448C109.164 506.895 108.371 504.395 107.62 501.948M107.62 501.948L143.017 414.948M107.62 501.948C106.401 497.977 105.292 494.145 104.286 490.448M143.017 414.948C142.177 412.867 141.011 410.917 139.593 409.151M104.286 490.448L139.593 409.151M104.286 490.448C103.103 486.096 102.063 481.932 101.159 477.948M139.593 409.151C138.171 407.38 136.498 405.794 134.649 404.448M101.159 477.948L134.649 404.448M101.159 477.948C100.206 473.749 99.4026 469.752 98.7391 465.948M134.649 404.448C132.324 402.756 129.723 401.442 127 400.616M98.7391 465.948L127 400.616M98.7391 465.948C97.9009 461.144 97.2854 456.649 96.871 452.448M127 400.616C123.754 399.63 120.333 399.337 117 399.917M96.871 452.448L117 399.917M96.871 452.448C96.121 444.846 96.0299 438.209 96.4699 432.448M117 399.917C114.588 400.336 112.222 401.213 110 402.617M96.4699 432.448C97.7107 416.205 103.175 406.928 110 402.617M96.4699 432.448L110 402.617" stroke="white"/>
<path d="M168 365.948C167.167 357.782 165.5 341.148 165.5 339.948C207.449 376.526 201 323.448 183 261.948C144 298.948 107.5 350.948 159 339.948L146.5 360.948L168 365.948Z" fill="black" stroke="black"/>
<path d="M204 456.448C209.227 457.235 205.898 465.245 201.5 466.58C205.513 466.529 204.7 473.114 199.5 474.458C205.134 475.667 202.968 481.124 198.554 481.18C202.182 482.413 201.144 490.191 197.115 488.963C201.149 490.617 199.082 496.045 195.08 496.948C200.709 497.73 196.902 505.393 192.488 505.448C196.924 507.098 195.815 514.888 191 514.948C194.633 516.608 194.115 523.868 188.497 523.938C193.345 526.436 190.88 531.804 186.867 531.854C190.907 533.935 188.425 541.778 184.006 541.407C188.452 543.909 187.388 550.981 181.749 549.347C186.596 551.844 185.478 561.041 181.846 559.381L178.936 557.596" stroke="black"/>
<path d="M204.265 456.129L207.174 457.914C210.807 459.574 210.847 449.945 206 447.448C211.639 449.083 211.946 442.951 207.5 440.448C211.919 440.819 213.401 433.044 209.361 430.964C213.374 430.913 216.673 424.969 211.826 422.472C217.444 422.401 217.459 415.141 213.826 413.482C218.641 413.421 219.75 405.631 215.314 403.982C219.728 403.926 222.593 396.263 216.965 395.481C220.967 394.579 223.034 389.151 219 387.496C223.028 388.724 224.18 380.946 220.553 379.713C224.966 379.658 227.132 374.2 221.498 372.992C226.699 371.647 227.513 366.029 223.5 366.08C227.898 364.746 231.227 356.736 226 355.948C231.5 355.948 234 348.448 228 346.948C233.5 347.448 235.5 339.448 229.5 337.448C236.5 338.448 234.5 332.948 231.5 332.948" stroke="black"/>
<path d="M177.868 551.583C172.627 550.895 175.804 542.823 180.176 541.406C176.165 541.532 176.852 534.933 182.026 533.491C176.371 532.389 178.432 526.892 182.844 526.753C179.194 525.588 180.084 517.792 184.136 518.944C180.071 517.366 182.035 511.9 186.019 510.921C180.377 510.246 184.037 502.512 188.449 502.373C183.983 500.808 184.944 492.999 189.757 492.847C186.094 491.256 186.474 483.988 192.089 483.811C187.195 481.406 189.558 475.992 193.569 475.866C189.491 473.862 191.823 465.974 196.249 466.261C191.756 463.843 192.686 456.752 198.355 458.279C193.462 455.875 194.404 446.658 198.068 448.249L201.011 449.978" stroke="black"/>
<path d="M226 330.448L224.072 329.224C220.422 327.603 219.401 336.81 224.274 339.257C218.618 337.681 217.628 344.765 222.1 347.22C217.677 346.895 215.939 355.41 220 357.448C215.988 357.541 213.58 362.935 218.453 365.381C212.836 365.51 212.85 372.827 216.5 374.448C211.686 374.559 210.048 381.845 214.5 383.448C210.087 383.55 206.864 391.725 212.5 392.448C208.508 393.393 205.487 398.186 209.538 399.798C205.497 398.612 205.36 406.753 209 407.948C204.587 408.05 201.659 413.177 207.305 414.326C202.119 415.725 202.488 422.541 206.5 422.448C202.116 423.828 198.765 432.216 204 432.948C199 432.948 197.5 438.448 202.5 439.948C197.5 440.448 196 444.448 200.5 449.448" stroke="black"/>
<path d="M96.6733 359.565C98.051 354.462 105.629 358.682 106.453 363.203C106.861 359.211 113.31 360.769 114.053 366.089C115.896 360.629 120.948 364.057 120.5 368.448C122.139 364.985 129.68 367.086 128 370.948C130.104 367.129 135.059 369.37 135.5 373.448C136.919 367.946 144.49 372.196 144.042 376.587C146.186 372.369 153.489 374.658 153 379.448C155.063 376.029 162.526 377.071 161.956 382.66C164.989 378.129 170.042 381.19 169.635 385.182C172.162 381.406 179.671 384.766 178.798 389.114C181.791 384.982 188.696 386.846 186.43 392.262C189.463 387.731 198.472 389.889 196.409 393.309L195.5 394.948C198.5 392.262 202.5 393.448 201 396.948C202.643 393.678 209.62 394.881 207.5 399.448" stroke="black"/>
<path d="M96.4512 364.655C94.2837 369.476 102.821 371.013 106.323 368.037C104.109 371.384 110.085 374.265 114.03 370.62C111.997 376.011 118.078 376.56 120.514 372.879C119.587 376.597 126.752 379.749 127.9 375.697C127.108 379.985 132.361 381.391 135.286 378.515C132.897 383.671 141.448 385.18 143.883 381.498C142.87 386.121 149.97 388.977 152.627 384.961C152.056 388.914 158.4 392.134 161.5 387.448C160.976 392.876 167.286 393.795 169.5 390.448C169.063 394.971 176.63 397.746 178.71 393.83C178.407 398.922 184.93 401.856 186.608 396.23C186.084 401.657 194.422 405.695 194.993 401.743L195.328 399.898C195.947 403.878 199.793 405.494 200.85 401.836C200.049 405.407 206.209 408.897 207.463 404.02" stroke="black"/>
<path d="M120.5 118.948L117.5 128.448L120.5 130.448L119 142.448L122.5 137.948L125 167.448L127.5 165.948L129.5 195.948L131.5 185.948L136.5 208.448V201.448L142 223.448L143.5 216.948C145.167 222.115 148.6 232.648 149 233.448C149.4 234.248 151.833 239.115 153 241.448" stroke="black"/>
<path d="M362 578C344.736 595.708 319.696 614.953 301.5 619.448V613.448L297 622.448C302.183 632.127 304.129 637.414 291 644.448L255 663.448L235.5 679.448L233.5 676.948C227.069 681.974 224.061 682.553 219 682.448H184.5L153 680.948M153 680.948C159.849 675.56 162.886 671.695 167 663.448L189 661.948M153 680.948H149C146.595 680.902 144.498 681.208 149.229 676.948M246 629.448L229 647.948C227.521 646.021 226.295 645.515 222.5 646.948L219 650.948C216.802 651.191 215.36 651.741 212.5 653.448L211.8 654.948M209 660.948L211.8 654.948M211.8 654.948C208.29 656.843 206.671 656.772 204 655.948L202.5 658.448M201 660.948L202.5 658.448M202.5 658.448C196.849 659.17 194.408 658.589 190.5 656.948M184.5 658.448C180.14 658.974 177.285 659.633 173.715 659.948M158.146 663.448C159.715 662.07 161.784 661.03 164.5 659.948C168.412 660.221 171.236 660.167 173.715 659.948M158.146 663.448C155.834 665.479 154.609 668.242 154 672.948C151.941 674.6 150.382 675.91 149.229 676.948M158.146 663.448C149.29 664.541 148.515 668.413 149.229 676.948M173.715 659.948C188.691 648.826 198.932 643.824 222.5 638.448C231.473 636.247 233.263 634.237 237 630.448C237.331 624.633 236.079 621.663 233.5 617.448" stroke="black"/>
<path d="M118 547.948L124.5 573.948V569.448L136 579.448L156.5 596.448L162.5 612.948V607.448L172.5 620.448L171 612.948L177 620.448V615.448L183.5 622.448C169 633.115 139.7 654.548 138.5 654.948C123.2 655.518 116.298 657.09 111.5 659.603M132.5 661.448C125.894 661.302 122.977 659.757 113.5 664.948C110.71 669.509 108.478 671.561 104 674.844M104 674.844L101.5 677.448C95.9122 678.884 93.8424 678.856 92 677.448C93.4682 674.928 93.8371 673.303 96.1454 670.948M104 674.844H120.5L122.5 679.448H142.5H147M111.5 659.603C108.701 661.068 106.617 662.854 104 664.948C99.9892 667.561 97.6534 669.41 96.1454 670.948M111.5 659.603C101.374 659.458 99.0298 663.07 96.1454 670.948" stroke="black"/>
<path d="M269.5 626.448L262.5 620.448V623.948L253 618.948L255 626.448L236.5 613.948L237.383 619.877L225 611.948L213.5 604.448L216.5 609.448L204.5 596.948V602.448L191 585.948V590.448L183.5 577.448V581.948L171.5 567.948V573.448L163.5 559.448" stroke="black"/>
<path d="M235.5 649.948L230 657.948" stroke="black"/>
<path d="M238 651.448C237.6 652.648 236.833 655.948 236.5 657.448" stroke="black"/>
<path d="M246 649.448C245.6 650.648 243.5 653.948 242.5 655.448" stroke="black"/>
<path d="M261.5 626.448C261.5 628.448 261.5 632.948 261.5 634.948" stroke="black"/>
<path d="M265 627.448V636.448" stroke="black"/>
<path d="M269 630.448C269.4 631.648 269.167 635.948 269 637.948" stroke="black"/>
<path d="M258 626.448L255.5 633.948" stroke="black"/>
<path d="M224.5 670.948L220 674.948" stroke="black"/>
<path d="M229.5 671.448C229.1 671.848 227 674.282 226 675.448" stroke="black"/>
<path d="M234 669.948L230.5 674.448" stroke="black"/>
<path d="M240.5 666.448L239.029 668.948M235.5 674.948L239.029 668.948M239.029 668.948V671.948L249 662.448" stroke="black"/>
<path d="M209.5 666.948C208.3 668.548 206 670.948 205 671.948" stroke="black"/>
<path d="M205.5 666.448L203 669.448" stroke="black"/>
<path d="M201 665.448L199.5 667.448" stroke="black"/>
<path d="M216 657.448L214 660.948" stroke="black"/>
<path d="M189 664.948L186 669.948" stroke="black"/>
<path d="M184.5 665.948C183.7 666.748 182.167 668.282 181.5 668.948" stroke="black"/>
<path d="M179 665.948L178.5 667.448" stroke="black"/>
<path d="M130.5 669.448C129.3 671.448 125.333 676.948 123.5 679.448" stroke="black"/>
<path d="M137.5 668.948L131 679.448" stroke="black"/>
<path d="M143 668.948L137 679.448" stroke="black"/>
<path d="M146 672.948L141.5 679.448" stroke="black"/>
<path d="M152 566.948L154.5 576.948" stroke="black"/>
<path d="M158 577.948L159.5 583.448" stroke="black"/>
<path d="M163.5 576.448C163.9 577.248 166 585.115 167 588.948" stroke="black"/>
<path d="M170.5 581.448L172 591.948" stroke="black"/>
<path d="M174.5 585.448L176.5 594.948" stroke="black"/>
<path d="M189 604.448L190 616.448" stroke="black"/>
<path d="M200 623.948L196.5 630.948" stroke="black"/>
<path d="M214.5 611.448L216.5 636.448" stroke="black"/>
<path d="M218 612.948L219.5 633.448" stroke="black"/>
<path d="M222.5 617.448L224 631.448" stroke="black"/>
<path d="M228.5 619.948L230 628.948" stroke="black"/>
<path d="M199.5 638.448C199.9 639.248 199.667 643.115 199.5 644.948" stroke="black"/>
<path d="M205 636.448V642.948" stroke="black"/>
<path d="M208.5 631.448C208.9 631.848 209.333 638.615 209.5 641.948" stroke="black"/>
<path d="M196 608.948C197.2 610.548 199.167 613.615 200 614.948" stroke="black"/>
<path d="M175 602.948C175.8 604.548 178.667 610.615 180 613.448L175 602.948ZM175 602.948L182 607.948" stroke="black"/>
<path d="M208 605.948L209 618.448" stroke="black"/>
<path d="M203 608.948L204.5 620.948" stroke="black"/>
<path d="M197.5 617.948L202 621.948" stroke="black"/>
<path d="M194.5 617.948L196 622.448" stroke="black"/>
<path d="M191.5 619.948V623.948" stroke="black"/>
<path d="M133 562.448C134.2 563.648 142.167 572.948 146 577.448" stroke="black"/>
<path d="M138 559.448L143.5 566.948" stroke="black"/>
<path d="M123.5 553.948L122.5 561.448L127 567.948" stroke="black"/>
<path d="M127.5 555.448V560.948" stroke="black"/>
<path d="M146 558.448L144 560.948L149 568.448" stroke="black"/>
<path d="M250 544.948L245.5 554.948" stroke="black"/>
<path d="M258 546.448L253.5 558.448" stroke="black"/>
<path d="M254 546.948L249.5 556.448" stroke="black"/>
<path d="M308.5 597.948L304 607.948" stroke="black"/>
<path d="M316.5 599.448L312 611.448" stroke="black"/>
<path d="M312.5 599.948L308 609.448" stroke="black"/>
<path d="M305.968 564.401L306.719 575.341" stroke="black"/>
<path d="M313.729 561.948L315.423 574.652" stroke="black"/>
<path d="M310.438 564.277L310.953 574.776" stroke="black"/>
<path d="M203.472 489.879L206.361 500.458" stroke="black"/>
<path d="M210.6 485.948L214.76 498.07" stroke="black"/>
<path d="M207.831 488.878L210.401 499.071" stroke="black"/>
<path d="M206.939 467.027L211.572 476.966" stroke="black"/>
<path d="M213.3 461.948L219.448 473.194" stroke="black"/>
<path d="M211.066 465.304L215.321 474.916" stroke="black"/>
<path d="M204.033 519.15L208.387 533.948" stroke="black"/>
<path d="M210.534 511.948L216.365 528.729" stroke="black"/>
<path d="M208.207 516.788L212.191 531.091" stroke="black"/>
<path d="M195.18 536.548L199.075 546.799" stroke="black"/>
<path d="M201.896 531.948L207.205 543.613" stroke="black"/>
<path d="M199.422 535.132L202.963 545.029" stroke="black"/>
<path d="M188.583 570.638L194.189 580.063" stroke="black"/>
<path d="M194.403 564.948L201.647 575.521" stroke="black"/>
<path d="M192.517 568.511L197.713 577.649" stroke="black"/>
<path d="M233.035 505.406L239.919 513.941" stroke="black"/>
<path d="M237.99 498.948L246.658 508.388" stroke="black"/>
<path d="M236.627 502.742L243.066 511.052" stroke="black"/>
<path d="M245.294 467.301L248.813 477.687" stroke="black"/>
<path d="M252.172 462.948L257.054 474.798" stroke="black"/>
<path d="M249.584 466.04L252.763 476.059" stroke="black"/>
<path d="M296.012 439.976L300.429 460.356" stroke="black"/>
<path d="M302.482 429.948L308.384 453.046" stroke="black"/>
<path d="M300.176 436.661L304.221 456.361" stroke="black"/>
<path d="M210.569 549.336L213.09 564.948" stroke="black"/>
<path d="M217.828 543.948L221.567 561.882" stroke="black"/>
<path d="M214.96 548.092L217.176 563.125" stroke="black"/>
<path d="M216.781 494.915L221.861 509.357" stroke="black"/>
<path d="M222.905 486.948L229.557 503.226" stroke="black"/>
<path d="M220.826 492.08L225.513 506.062" stroke="black"/>
<path d="M261.5 452.948L257 462.948" stroke="black"/>
<path d="M269.5 454.448L265 466.448" stroke="black"/>
<path d="M265.5 454.948L261 464.448" stroke="black"/>
<path d="M302.5 517.948L298 527.948" stroke="black"/>
<path d="M310.5 519.448L306 531.448" stroke="black"/>
<path d="M306.5 519.948L302 529.448" stroke="black"/>
<path d="M224.042 533.976L228.369 544.353" stroke="black"/>
<path d="M230.555 528.948L236.356 540.718" stroke="black"/>
<path d="M228.22 532.332L232.178 542.362" stroke="black"/>
<path d="M226 422.448L233.5 446.948" stroke="black"/>
<path d="M219 443.448L227.5 457.448" stroke="black"/>
<path d="M227 410.448C227.4 411.648 233.167 431.282 236 440.948" stroke="black"/>
<path d="M243 442.948L247 459.948" stroke="black"/>
<path d="M233.5 480.448L237.5 495.948" stroke="black"/>
<path d="M233.5 460.948C233.9 462.148 233.667 464.782 233.5 465.948" stroke="black"/>
<path d="M240.5 480.948C240.5 481.748 243.167 490.615 244.5 494.948" stroke="black"/>
<path d="M306 408.948C306.4 410.548 307.5 414.615 308 416.448" stroke="black"/>
<path d="M288 538.448L291 554.448" stroke="black"/>
<path d="M286 547.448V554.448" stroke="black"/>
<path d="M292.5 534.948C292.9 536.148 295.333 546.448 296.5 551.448" stroke="black"/>
<path d="M220 400.948L263.5 402.448V406.448L217 404.948" stroke="black"/>
<path d="M317.5 392.948L271 401.948L273 405.948L319 397.948L317.5 392.948Z" stroke="black"/>
<path d="M271.5 401.948L263 402.448L263.5 406.948L273 406.448L271.5 401.948Z" fill="black"/>
<path d="M273 406.448L271.5 401.948L263 402.448L263.5 406.948L273 406.448ZM273 406.448H274.5L287.5 423.948L279.5 427.948L269 412.948L278.5 440.948C280 445.448 275 447.948 273.5 443.948L267 414.948L269 446.448C269.5 450.948 263.5 449.448 263.5 446.948V415.948L257.5 435.948L250 431.948L260.5 406.448" stroke="black"/>
<path d="M150 176.448C151.6 178.448 158.667 191.948 162 198.448" stroke="black"/>
<path d="M165.5 164.948C166.7 168.948 168 172.948 168.5 174.448" stroke="black"/>
<path d="M178.5 177.948C179.3 180.348 180.167 183.282 180.5 184.448" stroke="black"/>
<path d="M197.5 184.948C198.7 186.948 200.333 188.448 201 188.948" stroke="black"/>
<path d="M172 160.448L175 169.948" stroke="black"/>
<path d="M153.5 149.948V154.948" stroke="black"/>
<path d="M161 168.448C161 169.648 161 173.615 161 175.448" stroke="black"/>
<path d="M178.5 166.448L185.5 176.948" stroke="black"/>
<path d="M195.5 224.448C197.1 226.848 198.5 230.782 199 232.448" stroke="black"/>
<path d="M203.5 276.948L208 287.948" stroke="black"/>
<path d="M209 282.948L214 290.448" stroke="black"/>
<path d="M219 292.448C219 293.648 219 301.615 219 305.448" stroke="black"/>
<path d="M216 274.448C218.4 277.248 224 282.282 226.5 284.448" stroke="black"/>
<path d="M226 299.948C228.8 302.748 232.833 307.115 234.5 308.948" stroke="black"/>
<path d="M149 216.948C149.4 218.148 151.5 224.115 152.5 226.948" stroke="black"/>
<path d="M149 207.948L151 214.448" stroke="black"/>
<path d="M143 200.948L145 207.448" stroke="black"/>
<path d="M141 205.948L143 212.448" stroke="black"/>
<path d="M127.5 142.948C128.3 145.348 129.167 151.948 129.5 154.948" stroke="black"/>
<path d="M287.5 362.448L290 369.948" stroke="black"/>
<path d="M293.5 352.948L295 365.948" stroke="black"/>
<path d="M303.5 363.948L308 378.448" stroke="black"/>
<path d="M262.5 301.448L264 304.948" stroke="black"/>
<path d="M276.5 324.448V335.448" stroke="black"/>
<path d="M285.5 330.448C285.9 331.648 286.667 336.948 287 339.448" stroke="black"/>
<path d="M282 301.448C282.8 303.048 285 309.448 286 312.448" stroke="black"/>
<path d="M292 317.948L297 344.448" stroke="black"/>
<path d="M282.5 284.948C283.7 287.348 289 298.615 291.5 303.948" stroke="black"/>
<path d="M243 368.448L247 376.448" stroke="black"/>
<path d="M247 360.448L255.5 368.448" stroke="black"/>
<path d="M232.5 361.948L235 371.948" stroke="black"/>
<path d="M234.5 349.948L239.5 362.948" stroke="black"/>
<path d="M226.5 388.448L229 395.448" stroke="black"/>
<path d="M229.5 380.448C229.9 382.848 232.333 387.782 233.5 389.948" stroke="black"/>
<path d="M236.5 383.448C237.3 385.048 237.833 387.115 238 387.948" stroke="black"/>
<path d="M295 259.448C314 319.448 340.141 417.553 355.5 554.448L403.5 543.448M295 259.448C321.194 390.24 350.227 569.952 357.5 560.448L405.5 549.948L403.5 543.448M295 259.448C297.892 261.953 299.583 263.256 305 261.948C305.827 264.223 306.589 265.242 311 264.448C312.982 267.914 315.658 268.134 320.5 268.448C323.692 271.938 326.342 273.212 333 273.948C377.822 394.442 386.609 447.586 403.5 543.448" stroke="black"/>
<path d="M314.5 364.948C308.847 366.58 309.041 357.645 313 354.448C308.922 356.299 306.273 350.015 311.047 346.448C304.811 347.879 305.514 341.484 310 339.448C305.803 339.953 303.895 332.638 308.5 331.948C303.72 332.251 302.773 326.573 306.5 323.948C300.439 325.766 301.014 316.984 305.5 314.948C300.312 315.436 298.606 308.169 303.5 305.948C299.127 306.066 296.291 299.04 302 296.448C296.053 296.348 296.422 290.799 300.5 288.948C295.544 288.864 292.892 280.51 297.553 278.861C292.013 278.575 290.277 271.636 296.689 270.593C290.742 270.492 288.211 261.588 292.584 261.47L296.268 261.792" stroke="black"/>
<path d="M334.5 469.948C328.847 471.58 327.973 461.645 331.932 458.448C327.854 460.299 325.205 454.015 329.979 450.448C323.743 451.879 324.446 445.484 328.932 443.449C324.735 443.953 322.827 436.638 327.432 435.949C322.651 436.251 321.705 430.573 325.432 427.949C319.371 429.766 319.946 420.984 324.432 418.949C319.243 419.436 317.538 412.169 322.432 409.949C318.059 410.066 315.222 403.04 320.932 400.449C314.984 400.348 315.354 394.799 319.432 392.949C314.476 392.864 311.824 384.51 316.485 382.861C310.945 382.575 309.209 375.636 315.621 374.593C309.674 374.492 307.143 365.588 311.516 365.47L315.2 365.792" stroke="black"/>
<path d="M356.5 560.448C352.422 562.299 348.225 557.015 353 553.448C346.764 554.879 346.014 548.484 350.5 546.448C346.303 546.953 344.327 541.138 348.932 540.448C344.151 540.751 343.273 534.573 347 531.948C340.939 533.766 340.514 524.984 345 522.948C339.812 523.436 338.106 516.169 343 513.948C338.627 514.066 335.222 507.04 340.932 504.448C334.984 504.348 335.354 498.799 339.432 496.948C334.476 496.864 333.339 488.597 338 486.948C332.46 486.662 330.088 479.992 336.5 478.948C330.553 478.848 327.627 471.066 332 470.948L335.2 469.792" stroke="black"/>
<path d="M347.001 310.448C296.5 310.448 378.5 417.948 389.501 464.449C376.891 405.805 367.314 371.985 347.001 310.448Z" fill="black" stroke="black"/>
<path d="M324.5 367.448C330.281 366.356 326.913 356.494 321.938 355.427C326.412 355.239 325.943 348.436 320.072 347.406C326.283 345.87 322.772 340.48 317.85 340.686C321.824 339.243 320.228 331.854 315.807 333.315C320.21 331.43 318.494 325.935 313.984 325.273C320.213 324.162 316.422 316.242 311.5 316.448C316.351 314.544 314.869 307.224 309.5 307.448C313.456 305.582 312.764 298.186 306.5 298.448C311.763 295.676 308.974 290.761 304.5 290.948C308.886 288.638 306.54 280.366 301.636 280.996C306.451 278.243 304.871 271.266 298.678 273.227C303.941 270.454 302.184 261.366 298.228 263.233L295.085 265.182" stroke="black"/>
<path d="M344 470.948C349.839 470.227 347.397 463.332 342.5 461.948C346.977 462.047 347.292 454.351 341.5 452.948C347.796 451.812 344.925 446.057 340 445.948C344.058 444.763 343.005 437.773 338.5 438.948C343.015 437.348 341.721 431.096 337.263 430.148C343.55 429.436 340.425 421.557 335.5 421.448C340.463 419.858 339.373 412.067 334 411.948C338.067 410.338 338.268 403.087 332 402.948C337.429 400.518 334.977 395.047 330.5 394.948C335.024 392.923 333.434 385.132 328.5 385.448C333.481 383.008 333.617 374.669 327.311 376.23C332.74 373.8 331.567 364.618 327.5 366.228L324.239 367.973" stroke="black"/>
<path d="M355 553.948C359.058 552.763 359.506 544.273 355 545.448C359.515 543.848 358.459 537.897 354 536.948C360.287 536.237 357.949 526.557 353.023 526.448C357.986 524.858 356.396 515.567 351.023 515.448C355.091 513.838 355.792 507.087 349.523 506.948C354.952 504.518 353.477 499.547 349 499.448C353.524 497.423 352.458 489.132 347.523 489.448C352.505 487.008 352.641 478.669 346.335 480.23C351.764 477.8 350.591 468.618 346.523 470.228L343.262 471.973" stroke="black"/>
</g>
<defs>
<filter id="filter0_d_94_1221" x="0.277588" y="0.499023" width="487.299" height="690.46" filterUnits="userSpaceOnUse" color-interpolation-filters="sRGB">
<feFlood flood-opacity="0" result="BackgroundImageFix"/>
<feColorMatrix in="SourceAlpha" type="matrix" values="0 0 0 0 0 0 0 0 0 0 0 0 0 0 0 0 0 0 127 0" result="hardAlpha"/>
<feOffset dy="4"/>
<feGaussianBlur stdDeviation="2"/>
<feComposite in2="hardAlpha" operator="out"/>
<feColorMatrix type="matrix" values="0 0 0 0 0 0 0 0 0 0 0 0 0 0 0 0 0 0 0.25 0"/>
<feBlend mode="normal" in2="BackgroundImageFix" result="effect1_dropShadow_94_1221"/>
<feBlend mode="normal" in="SourceGraphic" in2="effect1_dropShadow_94_1221" result="shape"/>
</filter>
</defs>
</svg>
