<svg width="360" height="691" viewBox="0 0 360 691" fill="none" xmlns="http://www.w3.org/2000/svg">
<g filter="url(#filter0_d_94_1222)">
<path d="M175.074 144.448L163.574 147.948H178.074M175.074 144.448L163.574 136.948V139.448L142.074 128.948L144.574 133.448L133.074 126.448L135.074 130.448L122.574 124.448L123.574 127.948L109.574 122.448L91.0744 118.448V120.948H69.0744L71.5744 122.448L57.5744 124.448L61.0744 126.448L53.5744 130.448L47.5744 122.448C20.9203 65.6405 -5.9118 46.7229 -45.9256 4.44834C-53.9256 -3.5516 -61.9256 3.94839 -58.9256 10.9483L-23.4256 83.9483M175.074 144.448L178.074 147.948M-23.4256 83.9483C9.76155 104.863 28.4957 116.462 57.5744 141.448M-23.4256 83.9483L-119.426 45.4484C-122.426 43.9484 -124.926 47.9484 -120.926 50.4484C-111.856 72.5471 -101.433 84.6207 -70.9256 105.448C-41.4256 131.448 -4.9256 127.948 24.0744 152.948L13.5744 163.448L18.0744 161.948L9.0744 177.448L13.5744 175.448L11.5744 190.448L14.5744 187.948L11.5744 197.448L18.0744 194.448L13.5744 210.948L18.0744 209.448L16.0744 220.948L19.0744 221.948L18.0744 226.948H25.5744L31.5744 223.948C37.1396 222.23 40.291 221.56 46.0744 221.948C51.0288 218.519 54.4555 217.8 61.0744 217.448C67.9863 216.245 71.8757 215.556 75.5744 217.448C78.6709 210.774 82.6542 210.177 91.0744 210.948C97.916 204.896 102.359 203.738 111.574 203.948C115.515 201.343 118.218 201.094 123.574 201.948C130.035 196.646 132.589 198.328 137.574 199.448L147.074 187.948L150.574 180.948L152.574 183.948L156.574 175.448L158.574 177.448L181.574 157.448L178.074 147.948" stroke="black"/>
<path d="M19.0743 123.948C25.0743 128.448 33.0744 140.448 26.0743 147.448M3.07438 108.448C-1.27425 110.162 -2.44419 111.522 -2.92562 114.448M8.0744 125.448L12.0744 130.948" stroke="black"/>
<path d="M16.0744 132.948C17.2744 134.948 19.9077 141.115 21.0744 143.948L22.5744 140.948" stroke="black"/>
<path d="M6.5744 135.948L5.0744 131.448" stroke="black"/>
<path d="M0.0744019 130.948L-4.9256 128.948" stroke="black"/>
<path d="M32.5744 132.448V137.948" stroke="black"/>
<path d="M11.5744 116.448L13.0744 120.448" stroke="black"/>
<path d="M2.5744 80.9484L3.5744 89.4484" stroke="black"/>
<path d="M-2.4256 82.4484L-0.425598 77.4484" stroke="black"/>
<path d="M8.5744 93.4484C8.5744 94.2484 10.2411 99.4484 11.0744 101.948" stroke="black"/>
<path d="M15.5744 98.9484L17.0744 104.448" stroke="black"/>
<path d="M113.074 160.448C101.074 140.448 78.5744 139.948 72.5744 162.448C81.0744 182.948 99.5744 171.448 111.76 166.088M113.074 160.448L111.074 165.948C111.311 166.006 111.539 166.052 111.76 166.088M113.074 160.448C117.884 161.41 117.327 166.998 111.76 166.088" stroke="black"/>
<path d="M104.574 168.948C110.074 162.448 108.574 154.948 102.574 149.448C91.5135 142.061 82.0744 146.448 77.5744 151.948C76.4984 159.95 76.3656 164.338 79.5744 171.448C90.4709 176.887 98.0744 172.448 104.574 168.948Z" stroke="black"/>
<path d="M92.0744 146.448C85.7422 146.448 80.5744 151.802 80.5744 158.448C80.5744 165.095 85.7422 170.448 92.0744 170.448C98.4066 170.448 103.574 165.095 103.574 158.448C103.574 151.802 98.4066 146.448 92.0744 146.448Z" fill="black" stroke="black"/>
<path d="M92.5744 150.448C88.7383 150.448 85.5744 153.775 85.5744 157.948C85.5744 162.121 88.7383 165.448 92.5744 165.448C96.4105 165.448 99.5744 162.121 99.5744 157.948C99.5744 153.775 96.4105 150.448 92.5744 150.448Z" fill="white" stroke="black"/>
<path d="M38.5744 171.948L35.0744 175.448" stroke="black"/>
<path d="M31.5744 179.448L29.5744 185.948" stroke="black"/>
<path d="M40.5744 178.948L41.5744 187.448" stroke="black"/>
<path d="M37.5744 192.948C37.1744 193.748 36.7411 197.948 36.5744 199.948L39.5744 195.948" stroke="black"/>
<path d="M31.5744 191.948C30.7744 193.148 30.2411 195.782 30.0744 196.948" stroke="black"/>
<path d="M25.5744 204.948V210.448" stroke="black"/>
<path d="M23.5744 188.448C22.7744 189.248 21.5744 191.115 21.0744 191.948" stroke="black"/>
<path d="M45.5744 150.948L44.0744 146.948" stroke="black"/>
<path d="M40.0744 146.948C39.2744 146.148 38.0744 142.282 37.5744 140.448" stroke="black"/>
<path d="M30.5744 154.448C30.1744 154.048 29.7411 152.948 29.5744 152.448" stroke="black"/>
<path d="M36.5744 152.448C36.1744 151.248 33.4077 145.615 32.0744 142.948" stroke="black"/>
<path d="M29.5744 163.448L30.5744 158.448" stroke="black"/>
<path d="M51.5744 145.948C51.1744 145.148 50.4077 143.282 50.0744 142.448" stroke="black"/>
<path d="M47.0744 145.448L45.5744 142.448" stroke="black"/>
<path d="M20.0744 174.448L22.0744 170.948" stroke="black"/>
<path d="M29.0744 212.448L30.0744 205.448" stroke="black"/>
<path d="M28.0744 225.448C28.0744 224.648 28.0744 222.448 28.0744 221.448" stroke="black"/>
<path d="M24.0744 226.448C24.0744 226.048 25.0744 219.282 25.5744 215.948" stroke="black"/>
<path d="M32.5744 217.448L34.0744 212.948" stroke="black"/>
<path d="M37.5744 210.448C37.9744 210.048 39.7411 204.948 40.5744 202.448" stroke="black"/>
<path d="M43.5744 201.948L49.0744 190.448" stroke="black"/>
<path d="M51.5744 185.948C52.3744 185.148 54.2411 182.282 55.0744 180.948" stroke="black"/>
<path d="M56.0744 199.948L55.0744 195.948" stroke="black"/>
<path d="M58.5744 195.448V189.948" stroke="black"/>
<path d="M64.0744 190.448L65.5744 184.948" stroke="black"/>
<path d="M66.0744 200.948C66.0744 199.748 66.0744 195.115 66.0744 192.948" stroke="black"/>
<path d="M56.0744 213.948C56.0744 213.548 59.7411 207.782 61.5744 204.948" stroke="black"/>
<path d="M50.0744 219.448L51.0744 215.948" stroke="black"/>
<path d="M66.5744 206.448L64.0744 211.448" stroke="black"/>
<path d="M62.0744 213.948L61.0744 217.448" stroke="black"/>
<path d="M53.5744 202.948L51.0744 209.448" stroke="black"/>
<path d="M35.5744 202.448L32.0744 209.948" stroke="black"/>
<path d="M93.0744 179.948C92.6744 180.348 92.9077 183.115 93.0744 184.448" stroke="black"/>
<path d="M90.0744 178.948V184.448" stroke="black"/>
<path d="M86.0744 179.948V185.448" stroke="black"/>
<path d="M83.0744 179.948V184.448" stroke="black"/>
<path d="M80.0744 179.948V183.448" stroke="black"/>
<path d="M77.5744 179.448V181.448" stroke="black"/>
<path d="M71.0744 174.948V178.448" stroke="black"/>
<path d="M68.0744 170.948V174.948" stroke="black"/>
<path d="M65.5744 167.948V171.448" stroke="black"/>
<path d="M121.075 167.948C126.574 170.948 121.075 173.448 121.075 176.448M117.074 173.448C117.074 172.115 117.074 169.148 117.074 167.948C117.074 167.948 114.574 169.948 115.324 171.698M113.574 175.448C114.497 174.818 114.822 173.79 115.324 171.698M115.324 171.698C112.185 171.711 110.469 171.847 109.574 178.448" stroke="black"/>
<path d="M110.574 199.948C110.574 200.348 110.908 202.448 111.074 203.448" stroke="black"/>
<path d="M107.074 203.948L106.574 200.448" stroke="black"/>
<path d="M102.074 204.448V200.448" stroke="black"/>
<path d="M97.0744 206.448C97.0744 206.048 97.0744 200.615 97.0744 197.948" stroke="black"/>
<path d="M91.0744 192.448V194.448" stroke="black"/>
<path d="M91.5744 196.948L90.5744 210.948" stroke="black"/>
<path d="M88.5744 192.948V197.948" stroke="black"/>
<path d="M87.0744 210.448L88.0744 201.448" stroke="black"/>
<path d="M84.5744 194.448V196.948" stroke="black"/>
<path d="M80.5744 211.948L83.5744 200.448" stroke="black"/>
<path d="M72.5744 216.448L76.5744 203.948" stroke="black"/>
<path d="M79.0744 204.448C79.4744 203.648 80.9077 197.782 81.5744 194.948" stroke="black"/>
<path d="M106.074 176.448L105.074 179.948" stroke="black"/>
<path d="M103.574 176.448L101.574 180.448" stroke="black"/>
<path d="M98.0744 177.448L97.0744 180.448" stroke="black"/>
<path d="M116.574 179.448L115.574 182.448" stroke="black"/>
<path d="M112.574 183.948V187.448" stroke="black"/>
<path d="M122.074 179.448L121.074 182.948" stroke="black"/>
<path d="M159.574 151.448L165.074 155.448" stroke="black"/>
<path d="M137.574 142.948L141.074 144.948" stroke="black"/>
<path d="M144.074 148.948C145.274 150.548 149.241 152.615 151.074 153.448" stroke="black"/>
<path d="M154.074 155.448C154.874 155.848 156.741 157.948 157.574 158.948" stroke="black"/>
<path d="M159.574 163.948L156.574 167.948" stroke="black"/>
<path d="M148.074 169.448V171.448" stroke="black"/>
<path d="M153.574 170.948V174.448" stroke="black"/>
<path d="M151.074 168.948C150.674 170.548 150.908 172.282 151.074 172.948" stroke="black"/>
<path d="M144.074 152.448C143.274 151.648 135.741 145.448 132.074 142.448" stroke="black"/>
<path d="M139.574 158.948C137.974 157.748 125.908 145.115 120.074 138.948" stroke="black"/>
<path d="M137.574 164.448C135.574 162.448 128.408 154.615 125.074 150.948" stroke="black"/>
<path d="M120.574 147.948C119.374 147.148 114.741 141.282 112.574 138.448" stroke="black"/>
<path d="M93.5744 137.948C94.7744 139.548 96.7411 141.615 97.5744 142.448" stroke="black"/>
<path d="M86.5744 137.448L90.5744 143.448" stroke="black"/>
<path d="M81.5744 138.448L85.5744 141.948" stroke="black"/>
<path d="M108.074 146.948C108.474 147.348 112.908 153.782 115.074 156.948" stroke="black"/>
<path d="M112.574 147.448L108.074 142.948" stroke="black"/>
<path d="M124.574 160.948C123.774 160.548 121.574 158.448 120.574 157.448" stroke="black"/>
<path d="M132.574 165.948L120.074 152.448" stroke="black"/>
<path d="M150.574 163.448C149.574 162.948 144.574 154.948 143.574 155.448" stroke="black"/>
<path d="M134.074 148.948L125.574 140.448" stroke="black"/>
<path d="M168.574 152.948C170.992 157.237 169.234 159.479 165.574 163.448" stroke="black"/>
<path d="M137.574 199.948C131.623 197.332 128.545 197.712 123.574 201.948C118.159 200.755 115.554 201.201 111.574 203.948C103.339 204.1 98.7052 203.999 91.0744 210.948C81.8413 210.081 77.5403 210.531 76.0744 217.948C71.5744 213.448 49.5744 218.948 45.5744 221.948L25.5744 226.948H10.0744L-2.9256 234.448C-4.84792 255.039 -0.988647 264.343 13.5744 277.448C19.5744 278.448 23.5941 275.831 25.5744 272.948C31.4746 273.464 34.0178 272.918 37.0744 270.329C38.139 270.092 38.9663 269.269 39.3049 267.948C44.7836 268.561 47.0833 267.848 49.2634 263.948C51.7699 265.775 53.9602 264.945 54.9687 262.448C61.0053 262.729 62.4587 261.399 64.0744 258.273C67.0087 260.499 70.2624 259.74 70.6404 255.448C74.5744 257.448 78.5744 254.948 77.687 251.448C80.6413 254.437 85.6789 254.352 86.2319 250.448L94.0744 243.827C96.062 244.745 98.7381 242.7 98.7836 238.948L108.074 230.448L115.574 221.448L125.574 211.448L137.574 199.948Z" fill="black"/>
<path d="M13.5744 277.448C-0.988641 264.343 -4.84791 255.039 -2.9256 234.448L10.0744 226.948H25.5744L45.5744 221.948C49.5744 218.948 71.5744 213.448 76.0744 217.948C77.5403 210.531 81.8413 210.081 91.0744 210.948C98.7052 203.999 103.339 204.1 111.574 203.948C115.554 201.201 118.159 200.755 123.574 201.948C128.545 197.712 131.623 197.332 137.574 199.948L125.574 211.448M13.5744 277.448C19.5744 278.448 23.5941 275.831 25.5744 272.948M13.5744 277.448C13.2232 276.247 12.8834 275.081 12.5551 273.948M12.0744 236.948C10.0744 230.948 5.0744 230.948 5.0744 236.948C5.05509 237.278 5.04061 237.612 5.03102 237.948M12.0744 236.948L5.03102 237.948M12.0744 236.948C12.3322 239.47 12.6415 241.747 12.9999 243.827M25.5744 272.948C31.4746 273.464 34.0178 272.918 37.0744 270.329M25.5744 272.948C25.0628 272.039 24.562 271.168 24.0725 270.329M25.5744 272.948L22.3017 262.448M20.0744 233.448C17.8244 226.948 13.0744 228.948 13.5744 234.448L14.0419 235.948M20.0744 233.448L21.8042 238.638M20.0744 233.448L14.0419 235.948M31.0744 266.448C32.981 269.547 35.342 270.714 37.0744 270.329M31.0744 266.448L24.0725 270.329M31.0744 266.448L29.0744 260.448M29.5744 235.948L30.9109 239.888M29.5744 235.948L37.0744 234.448M29.5744 235.948C29.3226 234.606 29.2962 233.432 29.4385 232.448M37.0744 234.448L38.2644 237.948M37.0744 234.448C36.6406 232.973 36.0863 231.815 35.4743 230.948M57.5744 230.448C57.2575 228.547 56.7271 227.16 56.0648 226.198M57.5744 230.448L46.9744 234.448M57.5744 230.448L58.2918 235.948M70.0744 250.448C70.5998 252.462 70.7571 254.124 70.6404 255.448M70.0744 250.448L76.0744 248.448L75.6636 243.827M70.0744 250.448L68.8829 246.448M74.0744 225.948L74.4522 230.198M74.0744 225.948L64.0425 230.198M74.0744 225.948C73.8864 224.162 73.3448 222.853 72.596 221.948M76.0744 248.948C76.4535 249.934 77.0166 250.77 77.687 251.448M85.5744 246.448C86.2044 248.069 86.3808 249.397 86.2319 250.448M85.5744 246.448L84.0106 241.198M85.5744 246.448L92.0744 240.448M78.5744 222.948L79.9893 227.698M78.5744 222.948L89.5289 217.308M78.5744 222.948C78.4016 221.566 78.4146 220.33 78.5744 219.241M90.5744 221.448L90.9494 226.198M90.5744 221.448L79.9893 227.698M90.5744 221.448C90.4327 219.819 90.06 218.44 89.5289 217.308M92.0744 240.448C92.3613 242.313 93.1421 243.396 94.0744 243.827M92.0744 240.448L91.6994 235.698M115.574 221.448L108.074 229.948L108.186 226.948M115.574 221.448L108.074 230.448L98.7836 238.948M115.574 221.448L125.574 211.448M115.574 221.448L114.622 217.448M123.574 206.948C121.574 202.948 112.074 206.948 113.074 210.948L113.67 213.448M123.574 206.948L113.67 213.448M123.574 206.948L124.574 209.198M125.574 211.448L124.574 209.198M37.0744 270.329C38.139 270.092 38.9663 269.269 39.3049 267.948M39.3049 267.948C44.7836 268.561 47.0833 267.848 49.2634 263.948M39.3049 267.948C39.4189 267.504 39.4775 267.003 39.4712 266.448M49.2634 263.948C51.7699 265.775 53.9602 264.945 54.9687 262.448M49.2634 263.948C48.5207 263.407 47.7501 262.633 46.9744 261.599M54.9687 262.448C61.0053 262.729 62.4587 261.399 64.0744 258.273M54.9687 262.448C55.4121 261.351 55.627 259.931 55.54 258.273M64.0744 258.273C67.0087 260.499 70.2624 259.74 70.6404 255.448M64.0744 258.273C63.1864 257.6 62.3277 256.653 61.5868 255.448M70.6404 255.448C74.5744 257.448 78.5744 254.948 77.687 251.448M77.687 251.448C80.6413 254.437 85.6789 254.352 86.2319 250.448M86.2319 250.448L94.0744 243.827M94.0744 243.827C96.062 244.745 98.7381 242.7 98.7836 238.948M98.7836 238.948C98.7912 238.327 98.7265 237.658 98.5744 236.948L98.4355 235.948M113.67 213.448L114.622 217.448M114.622 217.448L124.574 209.198M96.9525 225.271L108.519 217.948M96.9525 225.271L96.2827 220.448M96.9525 225.271L97.6022 229.948M108.519 217.948L108.574 216.448C108.574 215.184 108.191 214.19 107.557 213.448M108.519 217.948L108.334 222.948M96.2827 220.448L96.0744 218.948C96.0021 218.37 96.0056 217.823 96.0744 217.308M96.2827 220.448L107.557 213.448M107.557 213.448C106.726 212.475 105.463 211.938 104.074 211.801M96.0744 217.308C96.5858 213.484 100.703 211.466 104.074 211.801M96.0744 217.308L104.074 211.801M97.6022 229.948L108.334 222.948M97.6022 229.948L98.4355 235.948M108.334 222.948L108.186 226.948M98.4355 235.948L108.186 226.948M82.4467 235.948L91.3244 230.948M82.4467 235.948L81.4042 232.448M82.4467 235.948L84.0106 241.198M91.3244 230.948L90.9494 226.198M91.3244 230.948L91.6994 235.698M82.4467 232.448H81.4042M81.4042 232.448L90.9494 226.198M81.4042 232.448L79.9893 227.698M89.5289 217.308C88.8951 215.957 88.0359 214.958 87.0744 214.303M78.5744 219.241C79.3706 213.82 83.8112 212.079 87.0744 214.303M78.5744 219.241L87.0744 214.303M84.0106 241.198L91.6994 235.698M68.8829 246.448L75.6636 243.827M68.8829 246.448L67.5425 241.948M75.6636 243.827L75.23 238.948M67.5425 241.948L75.23 238.948M67.5425 241.948L66.0531 236.948M75.23 238.948L74.83 234.448M66.0531 236.948L74.83 234.448M66.0531 236.948L65.0106 233.448M74.83 234.448L74.4522 230.198M65.0106 233.448L74.4522 230.198M65.0106 233.448L64.0425 230.198M64.0425 230.198L63.0744 226.948C63.022 226.608 63.0025 226.274 63.0129 225.948M63.0129 225.948L72.596 221.948M63.0129 225.948C63.049 224.814 63.4477 223.782 64.0744 222.92M72.596 221.948C71.8966 221.103 71.0163 220.611 70.0744 220.411M64.0744 222.92C65.4496 221.028 67.9229 219.955 70.0744 220.411M64.0744 222.92L70.0744 220.411M56.0648 226.198C53.2845 222.162 48.1798 225.62 46.7873 229.948M56.0648 226.198L46.7873 229.948M46.7873 229.948C46.4184 231.095 46.31 232.303 46.5744 233.448L46.9744 234.448M46.9744 234.448L49.2634 240.171M58.2918 235.948L49.2634 240.171M58.2918 235.948L59.0744 241.948M49.2634 240.171L51.7744 246.448M59.0744 241.948C59.1787 242.748 54.2512 245.282 51.7744 246.448M59.0744 241.948L59.9874 248.948M51.7744 246.448L54.1744 252.448M59.9874 248.948L60.5744 253.448C60.875 254.178 61.2161 254.846 61.5868 255.448M59.9874 248.948L54.1744 252.448M54.1744 252.448L54.5744 253.448C55.1585 255.201 55.4641 256.828 55.54 258.273M61.5868 255.448L55.54 258.273M46.9744 261.599C46.508 260.978 46.0397 260.263 45.5744 259.448L44.8944 257.448M46.9744 261.599L39.4712 266.448M39.4712 266.448C39.4627 265.707 39.3381 264.871 39.0744 263.948L37.8869 260.448M37.8869 260.448L44.8944 257.448M37.8869 260.448L36.869 257.448M44.8944 257.448L43.8744 254.448M43.8744 254.448L36.869 257.448M43.8744 254.448L42.8544 251.448M36.869 257.448L35.8512 254.448M35.8512 254.448L42.8544 251.448M35.8512 254.448L34.8333 251.448M42.8544 251.448L42.0044 248.948M42.0044 248.948L34.8333 251.448M42.0044 248.948L41.1544 246.448M34.8333 251.448L33.9851 248.948M33.9851 248.948L41.1544 246.448M33.9851 248.948L33.1369 246.448M41.1544 246.448L40.2631 243.827M40.2631 243.827L33.1369 246.448M40.2631 243.827L38.2644 237.948M33.1369 246.448L32.2475 243.827M32.2475 243.827L39.0744 241.198L38.2644 237.948M32.2475 243.827L30.9109 239.888M38.2644 237.948L30.9109 239.888M29.4385 232.448C29.9967 228.59 33.1514 227.661 35.4743 230.948M29.4385 232.448L35.4743 230.948M5.03102 237.948C4.96643 240.217 5.1235 242.656 5.51709 245.448M12.9999 243.827L5.51709 245.448M12.9999 243.827C13.3189 245.678 13.6767 247.374 14.0717 248.948M5.51709 245.448C5.77502 247.279 6.13453 249.261 6.59979 251.448M14.0717 248.948L6.59979 251.448M14.0717 248.948C14.6761 251.358 15.3676 253.483 16.1398 255.448M6.59979 251.448C6.99208 253.293 7.45955 255.282 8.00471 257.448M16.1398 255.448L8.00471 257.448M16.1398 255.448C16.8342 257.215 17.5938 258.852 18.4143 260.448M8.00471 257.448C8.50971 259.455 9.08137 261.614 9.72168 263.948M18.4143 260.448L9.72168 263.948M18.4143 260.448C19.276 262.125 20.2049 263.757 21.1956 265.448M9.72168 263.948C10.1968 265.681 10.7098 267.511 11.2614 269.448M21.1956 265.448L11.2614 269.448M21.1956 265.448C22.1039 266.999 23.0642 268.599 24.0725 270.329M11.2614 269.448C11.6712 270.888 12.1023 272.386 12.5551 273.948M24.0725 270.329L12.5551 273.948M29.0744 260.448L22.3017 262.448M29.0744 260.448L27.0744 254.448M22.3017 262.448L20.4315 256.448M27.0744 254.448L20.4315 256.448M27.0744 254.448L25.0744 248.448M20.4315 256.448L18.5614 250.448M25.0744 248.448L18.5614 250.448M25.0744 248.448L23.5339 243.827M18.5614 250.448L17.3147 246.448M23.5339 243.827L17.3147 246.448M23.5339 243.827L21.8042 238.638M17.3147 246.448L15.6783 241.198M21.8042 238.638L15.6783 241.198M15.6783 241.198L14.0419 235.948" stroke="white"/>
<path d="M230.574 112.448C223.254 124.901 219.686 115.421 221.754 110.948M236.074 113.448C233.697 107.219 230.574 108.948 224.574 108.948C223.225 108.948 222.296 109.777 221.754 110.948M221.754 110.948C217.666 111.671 215.063 112.59 213.574 114.191M212.074 121.448C211.718 118.041 212.097 115.78 213.574 114.191M213.574 114.191C207.677 114.259 204.619 116.408 199.574 123.448C198.074 125.948 200.778 127.014 205.074 127.448" stroke="black"/>
<path d="M346.075 69.9484C344.575 66.9484 296.575 12.9484 296.575 12.9484C293.574 9.94833 293.574 13.4483 294.574 15.4484C302.574 50.9484 291.074 74.9484 225.074 121.948L227.075 129.948C275.151 85.6643 302.08 61.0088 341.575 73.4484C344.074 75.4484 348.074 72.4484 346.075 69.9484Z" fill="black" stroke="black"/>
<path d="M338.308 21.131L338.173 21.589L337.709 21.4757L327.963 19.1036L334.935 26.0948L335.287 26.4484L334.935 26.8019L327.963 33.7921L337.709 31.421L338.173 31.3077L338.308 31.7657L341.074 41.1759L343.841 31.7657L343.976 31.3077L344.44 31.421L354.187 33.7921L347.214 26.8019L346.862 26.4484L347.214 26.0948L354.187 19.1036L344.44 21.4757L343.976 21.589L343.841 21.131L341.074 11.7198L338.308 21.131Z" fill="black" stroke="black"/>
<path d="M181.574 552.948C246.509 541.641 274.706 528.102 321.574 500.948L324.074 505.948C280.694 526.931 274.981 539.423 181.574 558.448C160.076 482.481 149.429 422.257 129.074 331.948L132.074 321.448L181.574 552.948Z" fill="black"/>
<path d="M198.074 222.948C251.001 329.652 279.435 389.968 321.574 500.948M321.574 500.948C274.706 528.102 246.509 541.641 181.574 552.948L132.074 321.448L129.074 331.948C149.429 422.257 160.076 482.481 181.574 558.448C274.981 539.423 280.694 526.931 324.074 505.948L321.574 500.948Z" stroke="black"/>
<path d="M227.574 547.448C229.172 552.928 237.506 550.929 238.136 546.026C238.715 550.328 245.06 548.212 245.574 542.448C247.653 548.301 252.712 545.181 252.074 540.448C253.863 544.15 261.421 542.08 259.574 537.948C261.844 542.023 266.889 539.013 267.154 534.597C268.81 540.506 276.212 536.181 275.574 531.448C277.902 535.954 285.27 532.112 284.574 526.948C286.786 530.593 293.886 528.972 293.074 522.948C296.305 527.77 300.654 522.801 300.074 518.498C302.766 522.516 310.134 518.707 309.074 514.032C312.247 518.423 319.076 516.244 316.574 510.448C319.805 515.27 328.726 512.723 326.515 509.078L324.293 506.226" stroke="black"/>
<path d="M181.574 558.448C183.142 562.413 191.361 562.601 191.574 556.526C193.948 561.822 200.422 559.287 200.574 554.948C202.552 559.362 210.833 557.236 210.574 552.448C212.963 557.311 219.565 556.582 218.074 550.448C220.448 555.744 230.323 555.651 228.755 551.687L227.045 548.502" stroke="black"/>
<path d="M277.074 524.448C275.476 518.969 270.704 522.545 270.074 527.448C269.495 523.146 264.588 524.684 264.074 530.448C261.996 524.596 256.437 528.216 257.074 532.948C255.285 529.247 247.227 531.817 249.074 535.948C246.805 531.874 240.84 534.532 240.574 538.948C238.918 533.039 231.437 536.716 232.074 541.448C229.747 536.943 221.379 538.785 222.074 543.948C219.863 540.304 215.263 539.425 216.074 545.448C212.844 540.627 208.495 543.146 209.074 547.448C206.382 543.43 199.514 544.273 200.574 548.948C197.402 544.557 190.073 545.152 192.574 550.948C189.344 546.127 183.074 547.448 182.074 550.948L182.074 552.448" stroke="black"/>
<path d="M321.074 500.948C319.507 496.984 311.788 500.374 311.575 506.448C309.201 501.152 303.727 506.61 303.575 510.948C301.597 506.535 294.316 511.161 294.575 515.948C292.186 511.086 285.084 513.814 286.575 519.948C284.201 514.652 277.575 516.948 277.075 520.448L277.075 523.948" stroke="black"/>
<path d="M181.575 157.448C181.575 157.448 188.575 142.448 192.575 133.948C194.575 126.948 205.074 123.948 201.074 137.448L205.074 128.448C207.223 121.255 210.651 121.302 217.074 121.948M217.074 121.948L211.074 133.948M217.074 121.948C220.249 116.836 224.074 116.448 225.574 121.948C231.184 144.619 226.605 150.482 219.574 161.948L213.074 176.948V191.948L204.074 207.448L208.574 205.948L198.574 217.948H203.074L189.574 231.448L192.574 233.448L183.574 244.448L187.574 245.948L179.574 253.948L167.074 272.948L165.574 281.948L162.574 279.948L159.074 295.448L155.574 290.448L150.074 307.448L148.074 302.448L144.074 315.948L141.074 310.448L135.574 325.948L131.574 319.448L130.074 333.948L126.074 327.448C125.241 331.948 123.474 341.248 123.074 342.448C122.674 343.648 120.241 340.282 119.074 338.448" stroke="black"/>
<path d="M150.074 404.448L265.574 363.448L264.074 359.948L148.574 400.448L150.074 404.448Z" fill="black" stroke="black"/>
<path d="M186.574 424.275C178.632 432.062 177.984 447.463 199.2 469.948C202.458 473.402 206.232 477.022 210.574 480.808C213.596 483.441 216.892 486.155 220.481 488.948C224.334 491.947 228.525 495.036 233.074 498.216C236.232 500.424 239.563 502.674 243.074 504.969C245.333 506.444 247.665 507.937 250.075 509.448C250.91 506.895 251.703 504.395 252.454 501.948C253.673 497.977 254.783 494.145 255.788 490.448C256.972 486.096 258.011 481.932 258.915 477.948C259.869 473.749 260.672 469.752 261.335 465.948C262.173 461.144 262.789 456.649 263.203 452.448C263.953 444.846 264.045 438.209 263.604 432.448C262.364 416.205 256.9 406.928 250.075 402.617C247.853 401.213 245.486 400.336 243.074 399.917C239.741 399.337 236.321 399.63 233.074 400.616C230.351 401.442 227.75 402.756 225.425 404.448C223.577 405.794 221.903 407.38 220.481 409.151C219.064 410.917 217.897 412.867 217.057 414.948C216.106 417.306 215.575 419.832 215.575 422.448C214.055 421.343 212.365 420.464 210.574 419.81C207.005 418.505 203.033 418.092 199.2 418.55C196.395 418.885 193.665 419.687 191.221 420.948C189.507 421.833 187.934 422.942 186.574 424.275Z" fill="black"/>
<path d="M215.575 422.448C214.055 421.343 212.365 420.464 210.574 419.81M215.575 422.448L243.074 504.969M215.575 422.448C215.575 419.832 216.106 417.306 217.057 414.948M199.2 469.948C177.984 447.463 178.632 432.062 186.574 424.275M199.2 469.948L186.574 424.275M199.2 469.948C202.458 473.402 206.232 477.022 210.574 480.808M186.574 424.275C187.934 422.942 189.507 421.833 191.221 420.948M191.221 420.948L210.574 480.808M191.221 420.948C193.665 419.687 196.395 418.885 199.2 418.55M210.574 480.808C213.596 483.441 216.892 486.155 220.481 488.948M220.481 488.948L199.2 418.55M220.481 488.948C224.334 491.947 228.525 495.036 233.074 498.216M199.2 418.55C203.033 418.092 207.005 418.505 210.574 419.81M210.574 419.81L233.074 498.216M233.074 498.216C236.232 500.424 239.563 502.674 243.074 504.969M243.074 504.969C245.333 506.444 247.665 507.937 250.075 509.448C250.91 506.895 251.703 504.395 252.454 501.948M252.454 501.948L217.057 414.948M252.454 501.948C253.673 497.977 254.783 494.145 255.788 490.448M217.057 414.948C217.897 412.867 219.064 410.917 220.481 409.151M255.788 490.448L220.481 409.151M255.788 490.448C256.972 486.096 258.011 481.932 258.915 477.948M220.481 409.151C221.903 407.38 223.577 405.794 225.425 404.448M258.915 477.948L225.425 404.448M258.915 477.948C259.869 473.749 260.672 469.752 261.335 465.948M225.425 404.448C227.75 402.756 230.351 401.442 233.074 400.616M261.335 465.948L233.074 400.616M261.335 465.948C262.173 461.144 262.789 456.649 263.203 452.448M233.074 400.616C236.321 399.63 239.741 399.337 243.074 399.917M263.203 452.448L243.074 399.917M263.203 452.448C263.953 444.846 264.045 438.209 263.604 432.448M243.074 399.917C245.486 400.336 247.853 401.213 250.075 402.617M263.604 432.448C262.364 416.205 256.9 406.928 250.075 402.617M263.604 432.448L250.075 402.617" stroke="white"/>
<path d="M192.075 365.948C192.908 357.782 194.575 341.148 194.575 339.948C152.625 376.526 159.074 323.448 177.075 261.948C216.075 298.948 252.574 350.948 201.075 339.948L213.575 360.948L192.075 365.948Z" fill="black" stroke="black"/>
<path d="M156.074 456.448C150.847 457.235 154.176 465.245 158.574 466.58C154.562 466.529 155.374 473.114 160.574 474.458C154.941 475.667 157.106 481.124 161.52 481.18C157.893 482.413 158.931 490.191 162.959 488.963C158.925 490.617 160.992 496.045 164.994 496.948C159.366 497.73 163.172 505.393 167.586 505.448C163.151 507.098 164.259 514.888 169.074 514.948C165.442 516.608 165.959 523.868 171.577 523.938C166.73 526.436 169.195 531.804 173.207 531.854C169.168 533.935 171.649 541.778 176.068 541.407C171.623 543.909 172.687 550.981 178.326 549.347C173.479 551.844 174.596 561.041 178.229 559.381L181.138 557.596" stroke="black"/>
<path d="M155.809 456.129L152.9 457.914C149.267 459.574 149.227 449.945 154.075 447.448C148.435 449.083 148.129 442.951 152.575 440.448C148.155 440.819 146.674 433.044 150.713 430.964C146.701 430.913 143.401 424.969 148.248 422.472C142.631 422.401 142.615 415.141 146.248 413.482C141.433 413.421 140.325 405.631 144.76 403.982C140.346 403.926 137.481 396.263 143.109 395.481C139.108 394.579 137.041 389.151 141.075 387.496C137.046 388.724 135.895 380.946 139.522 379.713C135.108 379.658 132.943 374.2 138.576 372.992C133.376 371.647 132.562 366.029 136.574 366.08C132.177 364.746 128.848 356.736 134.075 355.948C128.574 355.948 126.074 348.448 132.075 346.948C126.574 347.448 124.574 339.448 130.574 337.448C123.574 338.448 125.574 332.948 128.574 332.948" stroke="black"/>
<path d="M182.206 551.583C187.447 550.895 184.271 542.823 179.899 541.406C183.91 541.532 183.222 534.933 178.048 533.491C183.704 532.389 181.642 526.892 177.23 526.753C180.88 525.588 179.99 517.792 175.939 518.944C180.003 517.366 178.04 511.9 174.056 510.921C179.698 510.246 176.037 502.512 171.625 502.373C176.091 500.808 175.13 492.999 170.317 492.847C173.981 491.256 173.601 483.988 167.985 483.811C172.879 481.406 170.516 475.992 166.505 475.866C170.584 473.862 168.251 465.974 163.826 466.261C168.318 463.843 167.388 456.752 161.719 458.279C166.613 455.875 165.67 446.658 162.006 448.249L159.064 449.978" stroke="black"/>
<path d="M134.074 330.448L136.002 329.224C139.652 327.603 140.673 336.81 135.8 339.257C141.456 337.681 142.447 344.765 137.975 347.22C142.398 346.895 144.135 355.41 140.074 357.448C144.086 357.541 146.495 362.935 141.622 365.381C147.238 365.51 147.224 372.827 143.574 374.448C148.389 374.559 150.027 381.845 145.574 383.448C149.987 383.55 153.211 391.725 147.574 392.448C151.567 393.393 154.587 398.186 150.536 399.798C154.577 398.612 154.714 406.753 151.074 407.948C155.487 408.05 158.415 413.177 152.77 414.326C157.955 415.725 157.586 422.541 153.574 422.448C157.958 423.828 161.309 432.216 156.074 432.948C161.074 432.948 162.574 438.448 157.574 439.948C162.574 440.448 164.074 444.448 159.574 449.448" stroke="black"/>
<path d="M263.401 359.565C262.023 354.462 254.445 358.682 253.621 363.203C253.214 359.211 246.764 360.769 246.021 366.089C244.179 360.629 239.126 364.057 239.574 368.448C237.936 364.985 230.395 367.086 232.074 370.948C229.971 367.129 225.015 369.37 224.574 373.448C223.156 367.946 215.585 372.196 216.033 376.587C213.888 372.369 206.586 374.658 207.074 379.448C205.011 376.029 197.548 377.071 198.118 382.66C195.085 378.129 190.032 381.19 190.44 385.182C187.912 381.406 180.404 384.766 181.276 389.114C178.283 384.982 171.378 386.846 173.645 392.262C170.612 387.731 161.602 389.889 163.665 393.309L164.574 394.948C161.574 392.262 157.574 393.448 159.074 396.948C157.431 393.678 150.454 394.881 152.574 399.448" stroke="black"/>
<path d="M263.623 364.655C265.791 369.476 257.254 371.013 253.751 368.037C255.966 371.384 249.989 374.265 246.044 370.62C248.077 376.011 241.997 376.56 239.561 372.879C240.487 376.597 233.322 379.749 232.174 375.697C232.967 379.985 227.713 381.391 224.788 378.515C227.177 383.671 218.627 385.18 216.191 381.498C217.205 386.121 210.105 388.977 207.447 384.961C208.018 388.914 201.674 392.134 198.574 387.448C199.099 392.876 192.789 393.795 190.574 390.448C191.011 394.971 183.445 397.746 181.364 393.83C181.667 398.922 175.144 401.856 173.466 396.23C173.99 401.657 165.652 405.695 165.082 401.743L164.746 399.898C164.128 403.878 160.281 405.494 159.224 401.836C160.025 405.407 153.865 408.897 152.611 404.02" stroke="black"/>
<path d="M239.574 118.948L242.574 128.448L239.574 130.448L241.074 142.448L237.574 137.948L235.074 167.448L232.574 165.948L230.574 195.948L228.574 185.948L223.574 208.448V201.448L218.074 223.448L216.574 216.948C214.908 222.115 211.474 232.648 211.074 233.448C210.674 234.248 208.241 239.115 207.074 241.448" stroke="black"/>
<path d="M-1.9256 578C15.3383 595.708 40.3781 614.953 58.5744 619.448V613.448L63.0744 622.448C57.8918 632.127 55.9459 637.414 69.0744 644.448L105.074 663.448L124.574 679.448L126.574 676.948C133.005 681.974 136.013 682.553 141.074 682.448H175.574L207.074 680.948M207.074 680.948C200.226 675.56 197.189 671.695 193.074 663.448L171.074 661.948M207.074 680.948H211.074C213.479 680.902 215.577 681.208 210.846 676.948M114.074 629.448L131.074 647.948C132.553 646.021 133.779 645.515 137.574 646.948L141.074 650.948C143.272 651.191 144.714 651.741 147.574 653.448L148.274 654.948M151.074 660.948L148.274 654.948M148.274 654.948C151.784 656.843 153.404 656.772 156.074 655.948L157.574 658.448M159.074 660.948L157.574 658.448M157.574 658.448C163.225 659.17 165.666 658.589 169.574 656.948M175.574 658.448C179.934 658.974 182.789 659.633 186.359 659.948M201.929 663.448C200.36 662.07 198.291 661.03 195.574 659.948C191.663 660.221 188.839 660.167 186.359 659.948M201.929 663.448C204.24 665.479 205.466 668.242 206.074 672.948C208.134 674.6 209.692 675.91 210.846 676.948M201.929 663.448C210.785 664.541 211.56 668.413 210.846 676.948M186.359 659.948C171.384 648.826 161.142 643.824 137.574 638.448C128.601 636.247 126.811 634.237 123.074 630.448C122.744 624.633 123.996 621.663 126.574 617.448" stroke="black"/>
<path d="M242.074 547.948L235.574 573.948V569.448L224.074 579.448L203.574 596.448L197.574 612.948V607.448L187.574 620.448L189.074 612.948L183.074 620.448V615.448L176.574 622.448C191.074 633.115 220.374 654.548 221.574 654.948C236.874 655.518 243.776 657.09 248.574 659.603M227.574 661.448C234.181 661.302 237.097 659.757 246.574 664.948C249.364 669.509 251.597 671.561 256.074 674.844M256.074 674.844L258.574 677.448C264.162 678.884 266.232 678.856 268.074 677.448C266.606 674.928 266.237 673.303 263.929 670.948M256.074 674.844H239.574L237.574 679.448H217.574H213.074M248.574 659.603C251.374 661.068 253.457 662.854 256.074 664.948C260.085 667.561 262.421 669.41 263.929 670.948M248.574 659.603C258.701 659.458 261.045 663.07 263.929 670.948" stroke="black"/>
<path d="M90.5744 626.448L97.5744 620.448V623.948L107.074 618.948L105.074 626.448L123.574 613.948L122.692 619.877L135.074 611.948L146.574 604.448L143.574 609.448L155.574 596.948V602.448L169.074 585.948V590.448L176.574 577.448V581.948L188.574 567.948V573.448L196.574 559.448" stroke="black"/>
<path d="M124.574 649.948L130.074 657.948" stroke="black"/>
<path d="M122.074 651.448C122.474 652.648 123.241 655.948 123.574 657.448" stroke="black"/>
<path d="M114.074 649.448C114.474 650.648 116.574 653.948 117.574 655.448" stroke="black"/>
<path d="M98.5744 626.448C98.5744 628.448 98.5744 632.948 98.5744 634.948" stroke="black"/>
<path d="M95.0744 627.448V636.448" stroke="black"/>
<path d="M91.0744 630.448C90.6744 631.648 90.9077 635.948 91.0744 637.948" stroke="black"/>
<path d="M102.074 626.448L104.574 633.948" stroke="black"/>
<path d="M135.574 670.948L140.074 674.948" stroke="black"/>
<path d="M130.574 671.448C130.974 671.848 133.074 674.282 134.074 675.448" stroke="black"/>
<path d="M126.074 669.948L129.574 674.448" stroke="black"/>
<path d="M119.574 666.448L121.045 668.948M124.574 674.948L121.045 668.948M121.045 668.948V671.948L111.074 662.448" stroke="black"/>
<path d="M150.574 666.948C151.774 668.548 154.074 670.948 155.074 671.948" stroke="black"/>
<path d="M154.574 666.448L157.074 669.448" stroke="black"/>
<path d="M159.074 665.448L160.574 667.448" stroke="black"/>
<path d="M144.074 657.448L146.074 660.948" stroke="black"/>
<path d="M171.074 664.948L174.074 669.948" stroke="black"/>
<path d="M175.574 665.948C176.374 666.748 177.908 668.282 178.574 668.948" stroke="black"/>
<path d="M181.074 665.948L181.574 667.448" stroke="black"/>
<path d="M229.574 669.448C230.774 671.448 234.741 676.948 236.574 679.448" stroke="black"/>
<path d="M222.574 668.948L229.074 679.448" stroke="black"/>
<path d="M217.074 668.948L223.074 679.448" stroke="black"/>
<path d="M214.074 672.948L218.574 679.448" stroke="black"/>
<path d="M208.074 566.948L205.574 576.948" stroke="black"/>
<path d="M202.074 577.948L200.574 583.448" stroke="black"/>
<path d="M196.574 576.448C196.174 577.248 194.074 585.115 193.074 588.948" stroke="black"/>
<path d="M189.574 581.448L188.074 591.948" stroke="black"/>
<path d="M185.574 585.448L183.574 594.948" stroke="black"/>
<path d="M171.074 604.448L170.074 616.448" stroke="black"/>
<path d="M160.074 623.948L163.574 630.948" stroke="black"/>
<path d="M145.574 611.448L143.574 636.448" stroke="black"/>
<path d="M142.074 612.948L140.574 633.448" stroke="black"/>
<path d="M137.574 617.448L136.074 631.448" stroke="black"/>
<path d="M131.574 619.948L130.074 628.948" stroke="black"/>
<path d="M160.574 638.448C160.174 639.248 160.408 643.115 160.574 644.948" stroke="black"/>
<path d="M155.074 636.448V642.948" stroke="black"/>
<path d="M151.574 631.448C151.174 631.848 150.741 638.615 150.574 641.948" stroke="black"/>
<path d="M164.074 608.948C162.874 610.548 160.908 613.615 160.074 614.948" stroke="black"/>
<path d="M185.074 602.948C184.274 604.548 181.408 610.615 180.074 613.448L185.074 602.948ZM185.074 602.948L178.074 607.948" stroke="black"/>
<path d="M152.074 605.948L151.074 618.448" stroke="black"/>
<path d="M157.074 608.948L155.574 620.948" stroke="black"/>
<path d="M162.574 617.948L158.074 621.948" stroke="black"/>
<path d="M165.574 617.948L164.074 622.448" stroke="black"/>
<path d="M168.574 619.948V623.948" stroke="black"/>
<path d="M227.074 562.448C225.874 563.648 217.908 572.948 214.074 577.448" stroke="black"/>
<path d="M222.074 559.448L216.574 566.948" stroke="black"/>
<path d="M236.574 553.948L237.574 561.448L233.074 567.948" stroke="black"/>
<path d="M232.574 555.448V560.948" stroke="black"/>
<path d="M214.074 558.448L216.074 560.948L211.074 568.448" stroke="black"/>
<path d="M110.074 544.948L114.574 554.948" stroke="black"/>
<path d="M102.074 546.448L106.574 558.448" stroke="black"/>
<path d="M106.074 546.948L110.574 556.448" stroke="black"/>
<path d="M51.5744 597.948L56.0744 607.948" stroke="black"/>
<path d="M43.5744 599.448L48.0744 611.448" stroke="black"/>
<path d="M47.5744 599.948L52.0744 609.448" stroke="black"/>
<path d="M54.1069 564.401L53.3559 575.341" stroke="black"/>
<path d="M46.3457 561.948L44.6511 574.652" stroke="black"/>
<path d="M49.6365 564.277L49.1215 574.776" stroke="black"/>
<path d="M156.602 489.879L153.714 500.458" stroke="black"/>
<path d="M149.475 485.948L145.314 498.07" stroke="black"/>
<path d="M152.243 488.878L149.673 499.071" stroke="black"/>
<path d="M153.135 467.027L148.502 476.966" stroke="black"/>
<path d="M146.774 461.948L140.627 473.194" stroke="black"/>
<path d="M149.008 465.304L144.754 474.916" stroke="black"/>
<path d="M156.041 519.15L151.688 533.948" stroke="black"/>
<path d="M149.54 511.948L143.71 528.729" stroke="black"/>
<path d="M151.867 516.788L147.883 531.091" stroke="black"/>
<path d="M164.894 536.548L161 546.799" stroke="black"/>
<path d="M158.179 531.948L152.87 543.613" stroke="black"/>
<path d="M160.652 535.132L157.111 545.029" stroke="black"/>
<path d="M171.491 570.638L165.886 580.063" stroke="black"/>
<path d="M165.671 564.948L158.428 575.521" stroke="black"/>
<path d="M167.558 568.511L162.362 577.649" stroke="black"/>
<path d="M127.04 505.406L120.155 513.941" stroke="black"/>
<path d="M122.084 498.948L113.416 508.388" stroke="black"/>
<path d="M123.447 502.742L117.008 511.052" stroke="black"/>
<path d="M114.781 467.301L111.261 477.687" stroke="black"/>
<path d="M107.903 462.948L103.021 474.798" stroke="black"/>
<path d="M110.49 466.04L107.311 476.059" stroke="black"/>
<path d="M64.062 439.976L59.6456 460.356" stroke="black"/>
<path d="M57.5922 429.948L51.6902 453.046" stroke="black"/>
<path d="M59.8985 436.661L55.8536 456.361" stroke="black"/>
<path d="M149.505 549.336L146.984 564.948" stroke="black"/>
<path d="M142.246 543.948L138.507 561.882" stroke="black"/>
<path d="M145.114 548.092L142.898 563.125" stroke="black"/>
<path d="M143.293 494.915L138.213 509.357" stroke="black"/>
<path d="M137.169 486.948L130.517 503.226" stroke="black"/>
<path d="M139.248 492.08L134.562 506.062" stroke="black"/>
<path d="M98.5744 452.948L103.074 462.948" stroke="black"/>
<path d="M90.5744 454.448L95.0744 466.448" stroke="black"/>
<path d="M94.5744 454.948L99.0744 464.448" stroke="black"/>
<path d="M57.5744 517.948L62.0744 527.948" stroke="black"/>
<path d="M49.5744 519.448L54.0744 531.448" stroke="black"/>
<path d="M53.5744 519.948L58.0744 529.448" stroke="black"/>
<path d="M136.032 533.976L131.705 544.353" stroke="black"/>
<path d="M129.519 528.948L123.718 540.718" stroke="black"/>
<path d="M131.855 532.332L127.896 542.362" stroke="black"/>
<path d="M134.074 422.448L126.574 446.948" stroke="black"/>
<path d="M141.074 443.448L132.574 457.448" stroke="black"/>
<path d="M133.074 410.448C132.674 411.648 126.908 431.282 124.074 440.948" stroke="black"/>
<path d="M117.074 442.948L113.074 459.948" stroke="black"/>
<path d="M126.574 480.448L122.574 495.948" stroke="black"/>
<path d="M126.574 460.948C126.174 462.148 126.408 464.782 126.574 465.948" stroke="black"/>
<path d="M119.574 480.948C119.574 481.748 116.908 490.615 115.574 494.948" stroke="black"/>
<path d="M54.0744 408.948C53.6744 410.548 52.5744 414.615 52.0744 416.448" stroke="black"/>
<path d="M72.0744 538.448L69.0744 554.448" stroke="black"/>
<path d="M74.0744 547.448V554.448" stroke="black"/>
<path d="M67.5744 534.948C67.1744 536.148 64.7411 546.448 63.5744 551.448" stroke="black"/>
<path d="M140.074 400.948L96.5744 402.448V406.448L143.074 404.948" stroke="black"/>
<path d="M42.5744 392.948L89.0744 401.948L87.0744 405.948L41.0744 397.948L42.5744 392.948Z" stroke="black"/>
<path d="M88.5744 401.948L97.0744 402.448L96.5744 406.948L87.0744 406.448L88.5744 401.948Z" fill="black"/>
<path d="M87.0744 406.448L88.5744 401.948L97.0744 402.448L96.5744 406.948L87.0744 406.448ZM87.0744 406.448H85.5744L72.5744 423.948L80.5744 427.948L91.0744 412.948L81.5744 440.948C80.0744 445.448 85.0744 447.948 86.5744 443.948L93.0744 414.948L91.0744 446.448C90.5744 450.948 96.5744 449.448 96.5744 446.948V415.948L102.574 435.948L110.074 431.948L99.5744 406.448" stroke="black"/>
<path d="M210.074 176.448C208.474 178.448 201.408 191.948 198.074 198.448" stroke="black"/>
<path d="M194.574 164.948C193.374 168.948 192.074 172.948 191.574 174.448" stroke="black"/>
<path d="M181.574 177.948C180.774 180.348 179.908 183.282 179.574 184.448" stroke="black"/>
<path d="M162.574 184.948C161.374 186.948 159.741 188.448 159.074 188.948" stroke="black"/>
<path d="M188.074 160.448L185.074 169.948" stroke="black"/>
<path d="M206.574 149.948V154.948" stroke="black"/>
<path d="M199.074 168.448C199.074 169.648 199.074 173.615 199.074 175.448" stroke="black"/>
<path d="M181.574 166.448L174.574 176.948" stroke="black"/>
<path d="M164.574 224.448C162.974 226.848 161.574 230.782 161.074 232.448" stroke="black"/>
<path d="M156.574 276.948L152.074 287.948" stroke="black"/>
<path d="M151.074 282.948L146.074 290.448" stroke="black"/>
<path d="M141.074 292.448C141.074 293.648 141.074 301.615 141.074 305.448" stroke="black"/>
<path d="M144.074 274.448C141.674 277.248 136.074 282.282 133.574 284.448" stroke="black"/>
<path d="M134.074 299.948C131.274 302.748 127.241 307.115 125.574 308.948" stroke="black"/>
<path d="M211.074 216.948C210.674 218.148 208.574 224.115 207.574 226.948" stroke="black"/>
<path d="M211.074 207.948L209.074 214.448" stroke="black"/>
<path d="M217.074 200.948L215.074 207.448" stroke="black"/>
<path d="M219.074 205.948L217.074 212.448" stroke="black"/>
<path d="M232.574 142.948C231.774 145.348 230.908 151.948 230.574 154.948" stroke="black"/>
<path d="M72.5744 362.448L70.0744 369.948" stroke="black"/>
<path d="M66.5744 352.948L65.0744 365.948" stroke="black"/>
<path d="M56.5744 363.948L52.0744 378.448" stroke="black"/>
<path d="M97.5744 301.448L96.0744 304.948" stroke="black"/>
<path d="M83.5744 324.448V335.448" stroke="black"/>
<path d="M74.5744 330.448C74.1744 331.648 73.4077 336.948 73.0744 339.448" stroke="black"/>
<path d="M78.0744 301.448C77.2744 303.048 75.0744 309.448 74.0744 312.448" stroke="black"/>
<path d="M68.0744 317.948L63.0744 344.448" stroke="black"/>
<path d="M77.5744 284.948C76.3744 287.348 71.0744 298.615 68.5744 303.948" stroke="black"/>
<path d="M117.074 368.448L113.074 376.448" stroke="black"/>
<path d="M113.074 360.448L104.574 368.448" stroke="black"/>
<path d="M127.574 361.948L125.074 371.948" stroke="black"/>
<path d="M125.574 349.948L120.574 362.948" stroke="black"/>
<path d="M133.574 388.448L131.074 395.448" stroke="black"/>
<path d="M130.574 380.448C130.174 382.848 127.741 387.782 126.574 389.948" stroke="black"/>
<path d="M123.574 383.448C122.774 385.048 122.241 387.115 122.074 387.948" stroke="black"/>
<path d="M65.0748 259.448C46.0744 319.448 19.9336 417.553 4.57479 554.448L-43.4252 543.448M65.0748 259.448C38.8802 390.24 9.84732 569.952 2.57479 560.448L-45.4252 549.948L-43.4252 543.448M65.0748 259.448C62.182 261.953 60.4912 263.256 55.0744 261.948C54.247 264.223 53.4852 265.242 49.0744 264.448C47.0928 267.914 44.4165 268.134 39.5744 268.448C36.3826 271.938 33.7324 273.212 27.0744 273.948C-17.7475 394.442 -26.5344 447.586 -43.4252 543.448" stroke="black"/>
<path d="M45.5744 364.948C51.2271 366.58 51.0333 357.645 47.0743 354.448C51.1523 356.299 53.8015 350.015 49.0269 346.448C55.263 347.879 54.5602 341.484 50.0744 339.448C54.2714 339.953 56.1793 332.638 51.5744 331.948C56.3549 332.251 57.3012 326.573 53.5744 323.948C59.6349 325.766 59.0604 316.984 54.5744 314.948C59.7628 315.436 61.4682 308.169 56.5744 305.948C60.9472 306.066 63.7838 299.04 58.0744 296.448C64.0219 296.348 63.6525 290.799 59.5744 288.948C64.5306 288.864 67.1827 280.51 62.5213 278.861C68.0609 278.575 69.7973 271.636 63.3854 270.593C69.3327 270.492 71.863 261.588 67.4902 261.47L63.8061 261.792" stroke="black"/>
<path d="M25.5744 469.948C31.2271 471.58 32.1014 461.645 28.1424 458.448C32.2204 460.299 34.8696 454.015 30.095 450.448C36.3311 451.879 35.6283 445.484 31.1425 443.449C35.3396 443.953 37.2474 436.638 32.6425 435.949C37.423 436.251 38.3693 430.573 34.6425 427.949C40.703 429.766 40.1285 420.984 35.6425 418.949C40.8309 419.436 42.5363 412.169 37.6425 409.949C42.0153 410.066 44.8519 403.04 39.1425 400.449C45.09 400.348 44.7206 394.799 40.6425 392.949C45.5987 392.864 48.2508 384.51 43.5894 382.861C49.129 382.575 50.8654 375.636 44.4535 374.593C50.4009 374.492 52.9311 365.588 48.5583 365.47L44.8742 365.792" stroke="black"/>
<path d="M3.57425 560.448C7.65226 562.299 11.849 557.015 7.07441 553.448C13.3105 554.879 14.0602 548.484 9.5744 546.448C13.7714 546.953 15.7474 541.138 11.1425 540.448C15.923 540.751 16.8012 534.573 13.0744 531.948C19.1349 533.766 19.5604 524.984 15.0744 522.948C20.2628 523.436 21.9682 516.169 17.0744 513.948C21.4472 514.066 24.8519 507.04 19.1425 504.448C25.09 504.348 24.7207 498.799 20.6425 496.948C25.5987 496.864 26.7359 488.597 22.0744 486.948C27.6141 486.662 29.9863 479.992 23.5744 478.948C29.5218 478.848 32.4472 471.066 28.0744 470.948L24.8742 469.792" stroke="black"/>
<path d="M13.0738 310.448C63.5744 310.448 -18.4256 417.948 -29.4262 464.449C-16.8166 405.805 -7.23912 371.985 13.0738 310.448Z" fill="black" stroke="black"/>
<path d="M35.5744 367.448C29.7932 366.356 33.1617 356.494 38.1369 355.427C33.6625 355.239 34.1319 348.436 40.002 347.406C33.7911 345.87 37.3021 340.48 42.2239 340.686C38.2503 339.243 39.8464 331.854 44.2675 333.315C39.8642 331.43 41.5804 325.935 46.0903 325.273C39.8617 324.162 43.6525 316.242 48.5745 316.448C43.7236 314.544 45.205 307.224 50.5745 307.448C46.6185 305.582 47.3101 298.186 53.5745 298.448C48.3117 295.676 51.0999 290.761 55.5745 290.948C51.1888 288.638 53.5345 280.366 58.4386 280.996C53.6233 278.243 55.2031 271.266 61.3964 273.227C56.1337 270.454 57.8909 261.366 61.8469 263.233L64.9898 265.182" stroke="black"/>
<path d="M16.0744 470.948C10.2352 470.227 12.6776 463.332 17.5744 461.948C13.0972 462.047 12.7821 454.351 18.5744 452.948C12.2781 451.812 15.1495 446.057 20.0744 445.948C16.0168 444.763 17.069 437.773 21.5744 438.948C17.0597 437.348 18.3533 431.096 22.8118 430.148C16.5249 429.436 19.6493 421.557 24.5744 421.448C19.6118 419.858 20.7016 412.067 26.0744 411.948C22.0073 410.338 21.8061 403.087 28.0744 402.948C22.6453 400.518 25.0971 395.047 29.5744 394.948C25.0502 392.923 26.6401 385.132 31.5744 385.448C26.5931 383.008 26.4572 374.669 32.763 376.23C27.334 373.8 28.5072 364.618 32.5744 366.228L35.8353 367.973" stroke="black"/>
<path d="M5.0744 553.948C1.01678 552.763 0.568796 544.273 5.07417 545.448C0.559419 543.848 1.61568 537.897 6.07417 536.948C-0.212772 536.237 2.1259 526.557 7.05101 526.448C2.08839 524.858 3.67816 515.567 9.05101 515.448C4.98387 513.838 4.2827 507.087 10.551 506.948C5.12191 504.518 6.59704 499.547 11.0744 499.448C6.55015 497.423 7.61666 489.132 12.551 489.448C7.56965 487.008 7.43376 478.669 13.7396 480.23C8.3106 477.8 9.48381 468.618 13.5509 470.228L16.8119 471.973" stroke="black"/>
</g>
<defs>
<filter id="filter0_d_94_1222" x="-127.502" y="0.499023" width="487.299" height="690.46" filterUnits="userSpaceOnUse" color-interpolation-filters="sRGB">
<feFlood flood-opacity="0" result="BackgroundImageFix"/>
<feColorMatrix in="SourceAlpha" type="matrix" values="0 0 0 0 0 0 0 0 0 0 0 0 0 0 0 0 0 0 127 0" result="hardAlpha"/>
<feOffset dy="4"/>
<feGaussianBlur stdDeviation="2"/>
<feComposite in2="hardAlpha" operator="out"/>
<feColorMatrix type="matrix" values="0 0 0 0 0 0 0 0 0 0 0 0 0 0 0 0 0 0 0.25 0"/>
<feBlend mode="normal" in2="BackgroundImageFix" result="effect1_dropShadow_94_1222"/>
<feBlend mode="normal" in="SourceGraphic" in2="effect1_dropShadow_94_1222" result="shape"/>
</filter>
</defs>
</svg>
