<svg width="327" height="64" viewBox="0 0 327 64" fill="none" xmlns="http://www.w3.org/2000/svg">
<g filter="url(#filter0_d_322_2)">
<path d="M322 1H5V55.5H322V1Z" fill="white"/>
<path d="M322 1H5V55.5H322V1Z" stroke="black"/>
</g>
<g filter="url(#filter1_d_322_2)">
<path d="M112.049 20.0703V23.9551C112.564 22.5605 113.373 21.3711 114.475 20.3867C115.588 19.3906 116.713 18.8926 117.85 18.8926C118.916 18.8926 119.736 19.2031 120.311 19.8242C120.885 20.4336 121.172 21.1133 121.172 21.8633C121.172 22.4961 120.99 23.0117 120.627 23.4102C120.264 23.7969 119.807 23.9902 119.256 23.9902C118.318 23.9902 117.697 23.4277 117.393 22.3027C117.311 21.9395 117.211 21.6758 117.094 21.5117C116.988 21.3477 116.807 21.2656 116.549 21.2656C115.963 21.2656 115.248 21.7695 114.404 22.7773C113.572 23.7734 112.91 25.0215 112.418 26.5215V36.0488C112.418 36.2246 112.488 36.3125 112.629 36.3125H115.951C116.232 36.5 116.373 36.7988 116.373 37.209C116.373 37.6309 116.232 37.918 115.951 38.0703L111.012 37.9648L106.863 38.0703C106.582 37.918 106.441 37.6309 106.441 37.209C106.441 36.7988 106.582 36.5 106.863 36.3125H109.395C109.535 36.3125 109.605 36.2246 109.605 36.0488V21.4414C109.605 21.2539 109.523 21.1602 109.359 21.1602H106.863C106.582 20.9727 106.441 20.6797 106.441 20.2812C106.441 19.8711 106.582 19.5723 106.863 19.3848C107.098 19.3965 107.432 19.4141 107.865 19.4375C108.299 19.4492 108.668 19.4609 108.973 19.4727C109.277 19.4844 109.488 19.4902 109.605 19.4902C109.922 19.4902 110.25 19.4434 110.59 19.3496C110.93 19.2559 111.176 19.209 111.328 19.209C111.598 19.209 111.785 19.2734 111.891 19.4023C111.996 19.5312 112.049 19.7539 112.049 20.0703ZM123.967 32.8672C123.51 31.6133 123.281 30.2422 123.281 28.7539C123.281 27.2656 123.51 25.8945 123.967 24.6406C124.436 23.3867 125.068 22.3496 125.865 21.5293C126.662 20.6973 127.582 20.0527 128.625 19.5957C129.668 19.127 130.77 18.8926 131.93 18.8926C133.09 18.8926 134.191 19.127 135.234 19.5957C136.277 20.0527 137.191 20.6973 137.977 21.5293C138.773 22.3496 139.4 23.3867 139.857 24.6406C140.326 25.8945 140.561 27.2656 140.561 28.7539C140.561 30.2422 140.326 31.6133 139.857 32.8672C139.4 34.1094 138.773 35.1465 137.977 35.9785C137.191 36.7988 136.277 37.4375 135.234 37.8945C134.191 38.3516 133.09 38.5801 131.93 38.5801C130.77 38.5801 129.668 38.3516 128.625 37.8945C127.582 37.4375 126.662 36.7988 125.865 35.9785C125.068 35.1465 124.436 34.1094 123.967 32.8672ZM126.463 28.7539C126.463 30.2422 126.615 31.543 126.92 32.6562C127.225 33.7578 127.641 34.6133 128.168 35.2227C128.707 35.832 129.287 36.2832 129.908 36.5762C130.529 36.8574 131.203 36.998 131.93 36.998C132.656 36.998 133.33 36.8574 133.951 36.5762C134.572 36.2832 135.146 35.832 135.674 35.2227C136.213 34.6133 136.635 33.7578 136.939 32.6562C137.244 31.543 137.396 30.2422 137.396 28.7539C137.396 27.2539 137.244 25.9531 136.939 24.8516C136.635 23.7383 136.213 22.877 135.674 22.2676C135.146 21.6465 134.572 21.1953 133.951 20.9141C133.33 20.6211 132.656 20.4746 131.93 20.4746C131.203 20.4746 130.529 20.6211 129.908 20.9141C129.287 21.1953 128.707 21.6465 128.168 22.2676C127.641 22.877 127.225 23.7383 126.92 24.8516C126.615 25.9531 126.463 27.2539 126.463 28.7539ZM159.686 37.9648L155.555 38.0703C155.285 37.9062 155.15 37.6191 155.15 37.209C155.15 36.8105 155.285 36.5117 155.555 36.3125H158.068C158.186 36.3125 158.244 36.2246 158.244 36.0488V23.5684C158.244 22.6426 157.98 21.9219 157.453 21.4062C156.926 20.8789 156.252 20.6152 155.432 20.6152C154.869 20.6152 154.33 20.709 153.814 20.8965C153.299 21.084 152.854 21.3125 152.479 21.582C152.104 21.8516 151.734 22.1914 151.371 22.6016C151.008 23.0117 150.715 23.3926 150.492 23.7441C150.27 24.084 150.035 24.4707 149.789 24.9043V36.0488C149.789 36.2246 149.859 36.3125 150 36.3125H152.479C152.771 36.5117 152.918 36.8105 152.918 37.209C152.918 37.6191 152.771 37.9062 152.479 38.0703L148.383 37.9648L144.234 38.0703C143.953 37.918 143.812 37.6309 143.812 37.209C143.812 36.7988 143.953 36.5 144.234 36.3125H146.766C146.906 36.3125 146.977 36.2246 146.977 36.0488V21.4414C146.977 21.2539 146.895 21.1602 146.73 21.1602H144.234C143.953 20.9727 143.812 20.6797 143.812 20.2812C143.812 19.8711 143.953 19.5723 144.234 19.3848C144.469 19.3965 144.803 19.4141 145.236 19.4375C145.67 19.4492 146.039 19.4609 146.344 19.4727C146.648 19.4844 146.859 19.4902 146.977 19.4902C147.293 19.4902 147.621 19.4434 147.961 19.3496C148.301 19.2559 148.547 19.209 148.699 19.209C148.969 19.209 149.156 19.2734 149.262 19.4023C149.367 19.5312 149.42 19.7539 149.42 20.0703V22.7422C151.002 20.1758 153.211 18.8926 156.047 18.8926C157.277 18.8926 158.332 19.2207 159.211 19.877C160.09 20.5215 160.658 21.377 160.916 22.4434C162.498 20.0762 164.643 18.8926 167.35 18.8926C168.814 18.8926 170.016 19.332 170.953 20.2109C171.891 21.0898 172.359 22.2207 172.359 23.6035V36.0488C172.359 36.2246 172.43 36.3125 172.57 36.3125H175.137C175.395 36.5 175.523 36.7988 175.523 37.209C175.523 37.6191 175.395 37.9062 175.137 38.0703L170.988 37.9648L166.857 38.0703C166.564 37.8828 166.418 37.5957 166.418 37.209C166.418 36.834 166.564 36.5352 166.857 36.3125H169.336C169.477 36.3125 169.547 36.2246 169.547 36.0488V23.5684C169.547 22.6426 169.283 21.9219 168.756 21.4062C168.229 20.8789 167.555 20.6152 166.734 20.6152C166.16 20.6152 165.609 20.7148 165.082 20.9141C164.566 21.1016 164.121 21.3359 163.746 21.6172C163.371 21.8867 163.002 22.2324 162.639 22.6543C162.275 23.0762 161.982 23.457 161.76 23.7969C161.537 24.1367 161.303 24.5293 161.057 24.9746V36.0488C161.057 36.2246 161.127 36.3125 161.268 36.3125H163.764C164.045 36.5 164.186 36.7988 164.186 37.209C164.186 37.6309 164.045 37.918 163.764 38.0703L159.686 37.9648ZM189.445 34.5371H189.252C188.701 35.5684 187.922 36.4531 186.914 37.1914C185.906 37.918 184.746 38.2812 183.434 38.2812C181.852 38.2812 180.58 37.8125 179.619 36.875C178.658 35.9375 178.178 34.6953 178.178 33.1484C178.178 32.0469 178.424 31.0508 178.916 30.1602C179.408 29.2578 180.035 28.5254 180.797 27.9629C181.57 27.3887 182.455 26.9082 183.451 26.5215C184.447 26.1348 185.42 25.8594 186.369 25.6953C187.33 25.5312 188.268 25.4434 189.182 25.4316V23.0586C189.182 22.2031 188.9 21.5527 188.338 21.1074C187.775 20.6621 187.002 20.4395 186.018 20.4395C184.869 20.4395 183.932 20.5918 183.205 20.8965C182.49 21.2012 182.133 21.5234 182.133 21.8633C182.133 22.0156 182.197 22.2734 182.326 22.6367C182.455 22.9883 182.52 23.2871 182.52 23.5332C182.52 23.9551 182.355 24.3301 182.027 24.6582C181.711 24.9863 181.266 25.1504 180.691 25.1504C180.105 25.1504 179.637 24.9688 179.285 24.6055C178.945 24.2305 178.775 23.75 178.775 23.1641C178.775 22.3789 179.209 21.6465 180.076 20.9668C180.943 20.2871 181.963 19.7715 183.135 19.4199C184.318 19.0684 185.449 18.8926 186.527 18.8926C188.262 18.8926 189.604 19.2676 190.553 20.0176C191.514 20.7559 191.994 21.8926 191.994 23.4277V35.1523C191.994 35.9023 192.316 36.2773 192.961 36.2773C193.23 36.2773 193.471 36.1953 193.682 36.0312C193.904 35.8555 194.057 35.6973 194.139 35.5566C194.221 35.4043 194.332 35.1875 194.473 34.9062C194.672 34.4258 194.947 34.1855 195.299 34.1855C195.533 34.1855 195.715 34.2617 195.844 34.4141C195.984 34.5547 196.055 34.7539 196.055 35.0117C196.055 35.293 195.973 35.6094 195.809 35.9609C195.656 36.3008 195.434 36.6406 195.141 36.9805C194.859 37.3203 194.473 37.6074 193.98 37.8418C193.5 38.0645 192.973 38.1758 192.398 38.1758C190.43 38.1758 189.445 36.9629 189.445 34.5371ZM183.996 36.3125C185.426 36.3125 186.609 35.7324 187.547 34.5723C188.484 33.4121 189.029 32.0234 189.182 30.4062V26.9082C188.479 26.9199 187.77 26.9844 187.055 27.1016C186.352 27.2188 185.631 27.4238 184.893 27.7168C184.154 28.0098 183.504 28.373 182.941 28.8066C182.391 29.2285 181.934 29.7852 181.57 30.4766C181.219 31.168 181.043 31.9473 181.043 32.8145C181.043 35.1465 182.027 36.3125 183.996 36.3125ZM214.02 37.9648L209.836 38.0703C209.555 37.918 209.414 37.6309 209.414 37.209C209.414 36.7988 209.555 36.5 209.836 36.3125H212.367C212.508 36.3125 212.578 36.2246 212.578 36.0488V23.5684C212.578 22.584 212.297 21.8457 211.734 21.3535C211.184 20.8613 210.469 20.6152 209.59 20.6152C207.188 20.6152 205.184 22.1035 203.578 25.0801V36.0488C203.578 36.2246 203.648 36.3125 203.789 36.3125H206.355C206.613 36.5 206.742 36.7988 206.742 37.209C206.742 37.6191 206.613 37.9062 206.355 38.0703L202.172 37.9648L198.023 38.0703C197.742 37.918 197.602 37.6309 197.602 37.209C197.602 36.7988 197.742 36.5 198.023 36.3125H200.555C200.695 36.3125 200.766 36.2246 200.766 36.0488V21.4414C200.766 21.2539 200.684 21.1602 200.52 21.1602H198.023C197.742 20.9727 197.602 20.6797 197.602 20.2812C197.602 19.8711 197.742 19.5723 198.023 19.3848C198.258 19.3965 198.592 19.4141 199.025 19.4375C199.459 19.4492 199.828 19.4609 200.133 19.4727C200.438 19.4844 200.648 19.4902 200.766 19.4902C201.082 19.4902 201.41 19.4434 201.75 19.3496C202.09 19.2559 202.336 19.209 202.488 19.209C202.758 19.209 202.945 19.2734 203.051 19.4023C203.156 19.5312 203.209 19.7539 203.209 20.0703V22.8828C204.955 20.2227 207.264 18.8926 210.135 18.8926C211.682 18.8926 212.941 19.3203 213.914 20.1758C214.898 21.0195 215.391 22.1387 215.391 23.5332V36.0488C215.391 36.2246 215.461 36.3125 215.602 36.3125H218.15C218.42 36.5117 218.555 36.8105 218.555 37.209C218.555 37.6191 218.42 37.9062 218.15 38.0703L214.02 37.9648Z" fill="black"/>
</g>
<defs>
<filter id="filter0_d_322_2" x="0.5" y="0.5" width="326" height="63.5" filterUnits="userSpaceOnUse" color-interpolation-filters="sRGB">
<feFlood flood-opacity="0" result="BackgroundImageFix"/>
<feColorMatrix in="SourceAlpha" type="matrix" values="0 0 0 0 0 0 0 0 0 0 0 0 0 0 0 0 0 0 127 0" result="hardAlpha"/>
<feOffset dy="4"/>
<feGaussianBlur stdDeviation="2"/>
<feComposite in2="hardAlpha" operator="out"/>
<feColorMatrix type="matrix" values="0 0 0 0 0 0 0 0 0 0 0 0 0 0 0 0 0 0 0.25 0"/>
<feBlend mode="normal" in2="BackgroundImageFix" result="effect1_dropShadow_322_2"/>
<feBlend mode="normal" in="SourceGraphic" in2="effect1_dropShadow_322_2" result="shape"/>
</filter>
<filter id="filter1_d_322_2" x="102.441" y="18.8926" width="120.113" height="27.6875" filterUnits="userSpaceOnUse" color-interpolation-filters="sRGB">
<feFlood flood-opacity="0" result="BackgroundImageFix"/>
<feColorMatrix in="SourceAlpha" type="matrix" values="0 0 0 0 0 0 0 0 0 0 0 0 0 0 0 0 0 0 127 0" result="hardAlpha"/>
<feOffset dy="4"/>
<feGaussianBlur stdDeviation="2"/>
<feComposite in2="hardAlpha" operator="out"/>
<feColorMatrix type="matrix" values="0 0 0 0 0 0 0 0 0 0 0 0 0 0 0 0 0 0 0.25 0"/>
<feBlend mode="normal" in2="BackgroundImageFix" result="effect1_dropShadow_322_2"/>
<feBlend mode="normal" in="SourceGraphic" in2="effect1_dropShadow_322_2" result="shape"/>
</filter>
</defs>
</svg>
