<svg width="241" height="157" viewBox="0 0 241 157" fill="none" xmlns="http://www.w3.org/2000/svg">
<path d="M25.2955 141.67C-1.9062 122.139 -3.66961 106.021 7.31889 71.8623V62.8911H20.1977C79.8515 67.5636 199.803 76.7405 202.379 76.0676C204.955 75.3948 184.313 125.129 173.67 150.08C114.976 155.283 81.6193 163.284 25.2955 141.67Z" fill="white" stroke="black"/>
<path d="M167.23 140.548C164.62 125.851 177.158 113.354 183.866 84.7584C189.232 74.292 200.071 52.9666 200.501 51.3966C200.93 49.8267 221.25 55.0412 231.356 57.8447C236.659 74.2645 241.773 81.2958 239.405 105.504C235.381 131.297 212.036 152.587 176.085 154.005C172.06 154.005 168.692 146.795 167.23 140.548Z" fill="white" stroke="black" stroke-width="2"/>
<path d="M201.984 142.554C234.599 125.324 235.056 110.397 231.659 82.5281" stroke="black"/>
<path d="M5.44112 58.9656C5.40688 47.1328 9.78554 46.0001 15.9051 41.8642C22.1335 40.4545 22.9676 38.6488 23.6861 35.1358C24.4908 30.6502 29.2126 29.3168 34.4184 28.6877C37.3585 24.301 39.4386 24.0403 43.2726 24.2021C49.7118 24.2021 51.712 21.0863 53.4683 17.754C55.6145 12.7077 59.9075 11.5863 65.2738 11.5863C77.2337 7.21233 81.0791 7.99257 89.9581 7.10068C109.511 0.807278 121.001 -1.9606 150.059 5.41857C154.078 6.88509 156.528 7.13482 161.06 7.10068C175.583 8.93007 183.143 10.6309 191.647 19.4361C195.174 23.2618 196.718 23.6666 199.428 24.2021C204.598 24.3342 206.368 25.7156 209.087 28.6877C211.1 31.6817 212.293 32.5585 214.453 33.734C224.732 36.6654 224.037 39.4596 226.259 43.8266L232.43 48.873C235.649 52.7984 233.771 57.5644 228.673 59.8067C225.185 60.6482 223.307 66.5356 223.307 70.7403C221.429 69.0588 219.455 75.0088 221.429 79.1509C228.405 91.2065 217.673 96.5332 214.453 81.9544C213.599 77.9344 212.61 76.6798 210.16 75.7867C208.652 73.9668 208.124 72.8425 207.477 70.7403C205.867 65.6946 198.891 63.7321 191.647 73.5439C187.354 78.3103 184.939 92.3279 173.939 83.3562C172.06 80.2728 169.393 78.6493 165.621 81.9544C162.669 84.7584 158.913 84.1977 155.425 81.9544C149.522 77.7496 143.888 81.9544 142.815 87.5615C142.01 93.169 139.863 95.6921 133.961 94.8506C127.253 94.8506 127.521 100.738 122.692 104.383C112.434 111.352 106.669 115.029 95.3243 104.383C89.4213 97.9349 84.0005 95.0338 77.616 100.738C72.4788 105.27 69.9083 104.953 65.384 104.396L65.2738 104.383C61.7856 103.822 58.2978 104.383 58.2978 111.391C58.2978 129.334 38.9796 121.765 47.0289 106.345C48.1019 104.383 47.3445 102.996 45.419 102.7C44.0722 102.694 43.4765 102.453 43.2726 100.738C42.3962 97.1518 41.4771 96.7159 38.9796 99.0558C35.9342 104.002 36.0675 107.8 37.6381 115.316C38.6413 120.106 39.3477 122.837 36.8332 126.53C35.2753 132.194 36.8364 135.066 38.9796 140.267C40.0527 145.034 38.3522 147.095 36.8332 149.799C29.5888 158.21 19.3726 147.65 25.8325 143.632C29.2391 141.298 29.8492 139.647 29.5888 136.343C27.7105 118.12 31.1985 101.86 27.1741 91.4864C25.8325 88.403 23.4129 86.0638 25.8325 81.1134C26.5674 75.1366 25.2715 75.5407 23.6861 74.6653C21.8339 73.7634 21.0299 73.1201 20.7347 71.301C20.4453 69.1838 20.1129 68.3475 18.5882 68.7779C16.5599 68.5569 15.8569 68.0065 15.1002 66.5351C13.2219 64.0125 11.9312 65.6613 11.0756 68.7779C8.12374 80.5532 5.9774 65.9749 5.44112 58.9656Z" fill="white" stroke="black" stroke-width="2"/>
<path d="M182.256 21.96C184.939 25.6045 185.475 31.2115 174.475 34.2954C167.767 36.5382 156.23 39.6221 157.035 41.3042C157.035 46.3505 148.717 50.2754 146.302 44.6684C145.115 42.1815 144.079 41.2728 140.131 42.1452C116.171 46.7307 101.103 45.951 73.0543 42.1452" stroke="black" stroke-width="2"/>
<path d="M53.4679 32.613C54.529 35.0802 55.1926 36.4472 60.4439 37.9397" stroke="black" stroke-width="2"/>
<path d="M88.3479 13.8296C88.7165 14.9278 88.9397 15.5373 87.8113 17.1938C84.055 23.9222 91.5677 30.6507 92.3725 27.0061C93.3242 24.2402 94.1643 23.2039 97.2021 23.9222C99.3335 25.8792 100.329 27.2429 105.788 24.7633C108.807 23.536 111.154 26.165 111.154 26.165C113.301 29.2489 117.593 31.7721 121.081 27.5668C122.993 25.034 124.948 24.5727 128.594 23.9222" stroke="black" stroke-width="2"/>
<path d="M154.083 21.9597C155.002 21.0648 154.801 18.5981 154.083 17.4741" stroke="black" stroke-width="2"/>
<path d="M118.935 11.8671C96.3885 12.1324 101.495 5.97974 118.935 5.97974C135.838 5.97974 134.765 18.3152 115.715 18.3152C96.6654 18.3152 95.1453 15.4913 97.2021 9.90465" stroke="black" stroke-width="2"/>
<path d="M142.278 9.62427C142.707 10.0728 146.034 13.8295 143.888 17.4741" stroke="black" stroke-width="2"/>
<path d="M74.6642 19.1562C62.8168 31.7979 100.153 38.7808 152.205 27.2864" stroke="black" stroke-width="2"/>
<path d="M19.6609 50.2751C21.3755 54.7651 22.6157 56.4929 25.832 56.7232M35.2229 62.6106C44.5715 69.5329 51.1955 70.0053 63.3952 69.8997" stroke="black" stroke-width="2"/>
<path d="M45.9553 30.9312C30.499 46.4854 72.2494 57.8448 144.156 49.995" stroke="black" stroke-width="2"/>
<path d="M27.7102 44.9486C57.4924 74.6658 170.987 75.2265 205.062 37.6594" stroke="black" stroke-width="2"/>
<path d="M188.427 83.9175C185.744 102.14 174.743 117.279 172.328 128.213C171.154 137.499 170.325 142.774 178.231 148.398" stroke="black"/>
<path d="M189.768 95.6921C187.354 105.504 177.158 117.279 177.158 124.568" stroke="black"/>
<path d="M177.963 142.23C178.448 145.541 179.64 147.178 183.866 148.959" stroke="black"/>
<path d="M28.2469 82.2351C27.1816 84.863 27.3408 86.9895 30.3934 93.1688" stroke="black"/>
<path d="M31.1982 96.5332V106.065" stroke="black"/>
<path d="M31.1982 110.551V134.661" stroke="black"/>
<path d="M26.9054 146.436C26.8334 149.723 27.7655 150.729 32.2715 150.08" stroke="black"/>
<path d="M47.8335 111.953C46.8725 115.406 47.3086 116.853 49.7116 118.681" stroke="black"/>
<path d="M41.394 94.8511C41.8233 95.0754 44.882 96.2528 44.882 99.0563C44.882 101.86 47.5498 99.6387 48.3701 101.86" stroke="black"/>
<path d="M98.007 102.981C100.263 106.768 102.698 107.574 107.666 108.308" stroke="black"/>
<path d="M8.12379 64.0125C7.3824 66.0862 7.69207 67.552 8.92872 70.4605" stroke="black"/>
<path d="M64.7368 101.019C66.0604 103.211 71.1549 102.984 73.0544 101.019" stroke="black"/>
<path d="M15.0998 66.5354L13.2217 85.3189" stroke="black"/>
<path d="M17.2463 69.0588L16.4414 79.4318" stroke="black"/>
<path d="M19.9293 69.3391L18.3195 88.9637" stroke="black"/>
<path d="M21.5819 73.2402L20.6916 84.7824" stroke="black"/>
<path d="M23.504 74.3855L21.8075 110.788" stroke="black"/>
<path d="M4.36758 93.7295C2.56022 111.093 4.22051 120.109 19.1245 132.979" stroke="black"/>
<path d="M5.17236 108.588C6.63765 114.961 8.14728 117.801 11.6118 122.045" stroke="black"/>
<path d="M132.887 92.0476C134.772 94.09 138.356 93.5474 139.058 92.0476" stroke="black"/>
<path d="M157.035 79.9927C158.328 82.0401 159.608 82.4712 162.669 82.2355" stroke="black"/>
<path d="M84.8599 98.2153V116.999" stroke="black"/>
<path d="M87.2747 97.9348V111.111" stroke="black"/>
<path d="M89.6895 99.6172V106.906" stroke="black"/>
<path d="M71.4446 104.944V114.195" stroke="black"/>
<path d="M68.7615 104.944V131.297" stroke="black"/>
<path d="M59.9072 106.065V123.166" stroke="black"/>
<path d="M76.274 102.421V118.401" stroke="black"/>
<path d="M127.789 97.9348V127.932" stroke="black"/>
<path d="M130.472 96.5332V111.953" stroke="black"/>
<path d="M123.228 104.103V114.195" stroke="black"/>
<path d="M142.01 92.0476V103.262" stroke="black"/>
<path d="M143.351 86.1602V98.4956" stroke="black"/>
<path d="M150.864 80.5532V87.2816" stroke="black"/>
<path d="M153.815 81.6746V100.738" stroke="black"/>
<path d="M156.23 82.5156V91.4869" stroke="black"/>
<path d="M161.596 84.1975V96.2526" stroke="black"/>
<path d="M168.304 80.5532V110.551" stroke="black"/>
<path d="M164.547 82.7959V90.3654" stroke="black"/>
<path d="M178.768 86.1602V92.0475" stroke="black"/>
<path d="M174.743 83.9175V93.7298" stroke="black"/>
<path d="M216.599 82.7959C216.994 86.3089 218.015 87.378 220.624 88.4029" stroke="black"/>
<path d="M183.866 78.3104C191.587 74.5796 189.768 67.3767 198.086 62.8911" stroke="black"/>
<path d="M88.0796 73.8246C130.204 80.2727 156.672 71.6968 195.939 57.2839" stroke="black"/>
<path d="M30.6616 47.7522L33.0764 45.229" stroke="black"/>
<path d="M37.906 52.2379L39.5158 49.9951M36.0278 51.1165L37.3693 48.5933M33.8813 49.9951L36.0278 47.4719M32.0032 48.5933L33.8813 46.6309" stroke="black"/>
<path d="M46.2579 56.0889L47.4722 53.5889M44.2224 55.3239L45.126 52.5963M41.9227 54.6073L43.6191 51.7342M39.8408 53.5662L41.3657 51.2938" stroke="black"/>
<path d="M55.3452 58.9321L56.2349 56.2872M53.2312 58.4529L53.7843 55.625M50.8613 58.0581L52.182 54.9771M48.6666 57.3115L49.8929 54.8496" stroke="black"/>
<path d="M64.0429 61.4895L64.954 58.8526M61.9329 60.9917L62.5089 58.1687M59.5663 60.5758L60.912 57.5067M57.3777 59.8099L58.6239 57.3589" stroke="black"/>
<path d="M73.2256 63.4045L73.9754 60.7127M71.0897 63.0469L71.4938 60.1916M68.7027 62.7882L69.8601 59.6363M66.4722 62.1683L67.5676 59.64" stroke="black"/>
<path d="M82.6473 64.4352L83.0826 61.6688M80.4857 64.3479L80.5591 61.4626M78.0863 64.3903L78.8734 61.1161M75.8007 64.0544L76.598 61.4071" stroke="black"/>
<path d="M91.1532 65.5935L91.6856 62.8458M88.9961 65.4232L89.1711 62.5426M86.5968 65.3732L87.4988 62.1315M84.3246 64.9497L85.2146 62.3348" stroke="black"/>
<path d="M99.9926 65.9656L100.141 63.1664M97.8346 66.1218L97.6106 63.2449M95.4534 66.4335L95.899 63.0899M93.1465 66.3564L93.6667 63.6348" stroke="black"/>
<path d="M109.085 66.5651L109.296 63.7702M106.924 66.6683L106.765 63.7867M104.537 66.9216L105.057 63.5898M102.232 66.788L102.813 64.0799" stroke="black"/>
<path d="M171.972 57.0685L171.552 54.2996M169.894 57.6965L169.095 54.9336M167.63 58.5258L167.391 55.1591M165.359 58.9586L165.318 56.1836" stroke="black"/>
<path d="M118.156 66.6156L118.458 63.83M115.993 66.6418L115.928 63.7562M113.599 66.8098L114.228 63.4985M111.3 66.5941L111.969 63.9083" stroke="black"/>
<path d="M127.379 65.936L127.482 63.1345M125.224 66.1304L124.953 63.2579M122.848 66.4843L123.239 63.1332M120.54 66.4481L121.016 63.7177" stroke="black"/>
<path d="M136.556 65.2328L136.468 62.4308M134.42 65.5866L133.955 62.7415M132.074 66.116L132.237 62.7444M129.77 66.2512L130.059 63.4923" stroke="black"/>
<path d="M146.225 63.4922L146.068 60.6935M144.098 63.9035L143.563 61.0718M141.767 64.4959L141.846 61.121M139.466 64.6931L139.687 61.9274" stroke="black"/>
<path d="M155.307 61.9652L155.344 59.162M153.157 62.2146L152.819 59.3499M150.79 62.6291L151.102 59.2691M148.482 62.652L148.894 59.9102" stroke="black"/>
<path d="M163.939 59.4802L163.686 56.6892M161.827 59.9708L161.195 57.1609M159.517 60.6499L159.481 57.2742M157.225 60.9329L157.351 58.1607" stroke="black"/>
<path d="M180.443 53.8906L179.711 51.1933M178.451 54.7717L177.343 52.1273M176.296 55.8757L175.676 52.5624M174.09 56.5868L173.735 53.8364" stroke="black"/>
<path d="M188.985 49.8682L188.183 47.1931M187.018 50.8067L185.84 48.1956M184.893 51.9729L184.186 48.6789M182.707 52.7478L182.279 50.0088" stroke="black"/>
<path d="M196.905 45.0137L195.848 42.437M195.038 46.1552L193.614 43.6817M193.037 47.5397L192.015 44.3373M190.938 48.5414L190.247 45.8616" stroke="black"/>
<path d="M204.022 38.8075L202.38 36.5903M202.488 40.4018L200.517 38.3804M200.884 42.2663L199.126 39.4341M199.092 43.7862L197.78 41.3731" stroke="black"/>
<path d="M58.6001 48.239L59.8144 45.7391M56.5646 47.474L57.4682 44.7464M54.2648 46.7575L55.9612 43.8844M52.1829 45.7163L53.7079 43.444" stroke="black"/>
<path d="M88.9916 52.1302L89.6651 49.4164M86.8465 51.8385L87.1699 48.972M84.4532 51.6534L85.5212 48.4673M82.2062 51.1024L83.2299 48.5415" stroke="black"/>
<path d="M110.701 52.3547L110.172 49.3148M108.524 52.6071L107.593 49.4974M106.155 53.0367L105.798 49.3954M103.767 53.0421L103.639 50.0721" stroke="black"/>
<path d="M84.3577 31.9785L85.5719 29.4786M82.3222 31.2135L83.2258 28.4859M80.0224 30.497L81.7188 27.6239M77.9405 29.4558L79.4654 27.1835" stroke="black"/>
<path d="M110.067 33.0041L110.43 30.2264M107.904 32.978L107.902 30.0917M105.506 33.0883L106.208 29.7931M103.213 32.8173L103.941 30.1483" stroke="black"/>
<path d="M128.36 11.2327L129.574 8.7327M126.325 10.4677L127.228 7.74005M124.025 9.75112L125.721 6.87803M121.943 8.70997L123.468 6.43763" stroke="black"/>
<path d="M143.01 29.7917L142.788 26.9978M140.894 30.2568L140.293 27.4396M138.576 30.9082L138.577 27.5324M136.281 31.1638L136.438 28.3933" stroke="black"/>
<path d="M138.121 50.2183L138.197 47.4159M135.968 50.435L135.67 47.5654M133.596 50.8134L133.955 47.4585M131.288 50.8012L131.738 48.066" stroke="black"/>
<path d="M147.376 41.8647C148.39 45.0631 149.471 45.5975 151.937 45.229" stroke="black"/>
<path d="M82.9818 41.0235C109.276 43.5467 116.512 42.2127 136.912 39.9021" stroke="black"/>
<path d="M208.728 132.251C222.662 123.177 226.721 117.265 225.814 104.926" stroke="black"/>
<path d="M211.426 76.7046V92.3831" stroke="black"/>
<path d="M30 153C41.0381 133.165 39.7222 123.583 30 108H204C190.072 125.571 190.967 135.429 204 153H30Z" fill="white" stroke="black"/>
</svg>
