<svg width="209" height="261" viewBox="0 0 209 261" fill="none" xmlns="http://www.w3.org/2000/svg">
<path d="M40.0076 240.602L13.9365 164.028L21.3854 164.135L28.4205 164.236L40.0076 164.402L51.1809 164.561L65.1114 164.761L84.2871 165.035L99.5987 165.254L116.979 165.503L134.774 165.758L153.396 166.025L168.294 166.238L177.398 166.368L181.95 166.433L186.502 166.498L162.914 244.307C161.544 246.083 160.706 246.717 158.776 245.542C157.483 248.09 156.317 248.942 153.396 249.248C150.042 251.925 148.241 252.306 145.12 251.718C141.467 255.035 139.193 255.412 134.774 253.776C131.939 258.42 129.122 258.687 122.773 256.658C118.629 260.31 115.963 260.363 110.772 257.893C105.885 261.165 102.902 260.199 97.5295 257.893C94.2546 259.844 92.4004 260.861 88.0115 257.893C83.372 259.688 80.7399 259.204 76.0105 256.658C71.8346 256.863 69.5803 256.495 66.0787 252.953C62.8841 254.173 60.9115 254.284 55.733 249.248C52.0762 249.857 50.4363 249.067 48.2841 245.542C45.6786 245.273 44.3351 244.665 42.4906 241.426C41.641 242.273 41.1095 242.217 40.0076 240.602Z" fill="white"/>
<path d="M42.4906 241.426C41.641 242.273 41.1095 242.217 40.0076 240.602L13.9365 164.028L21.3854 164.135M42.4906 241.426C44.3351 244.665 45.6786 245.273 48.2841 245.542M42.4906 241.426L21.3854 164.135M48.2841 245.542C50.4363 249.067 52.0762 249.857 55.733 249.248M48.2841 245.542L28.4205 164.236M55.733 249.248C60.9115 254.284 62.8841 254.173 66.0787 252.953M55.733 249.248L40.0076 164.402M66.0787 252.953C69.5803 256.495 71.8346 256.863 76.0105 256.658M66.0787 252.953L51.1809 164.561M76.0105 256.658C80.7399 259.204 83.372 259.688 88.0115 257.893M76.0105 256.658L65.1114 164.761M88.0115 257.893C92.4004 260.861 94.2546 259.844 97.5295 257.893M88.0115 257.893L84.2871 165.035M97.5295 257.893C102.902 260.199 105.885 261.165 110.772 257.893M97.5295 257.893L99.5987 165.254M110.772 257.893C115.963 260.363 118.629 260.31 122.773 256.658M110.772 257.893L116.979 165.503M122.773 256.658C129.122 258.687 131.939 258.42 134.774 253.776M122.773 256.658L134.774 165.758M134.774 253.776C139.193 255.412 141.467 255.035 145.12 251.718M134.774 253.776L153.396 166.025M145.12 251.718C148.241 252.306 150.042 251.925 153.396 249.248M145.12 251.718L168.294 166.238M153.396 249.248C156.317 248.942 157.483 248.09 158.776 245.542M153.396 249.248L177.398 166.368M158.776 245.542C160.706 246.717 161.544 246.083 162.914 244.307L186.502 166.498L181.95 166.433M158.776 245.542L181.95 166.433M21.3854 164.135L28.4205 164.236M28.4205 164.236L40.0076 164.402M40.0076 164.402L51.1809 164.561M51.1809 164.561L65.1114 164.761M65.1114 164.761L84.2871 165.035M84.2871 165.035L99.5987 165.254M99.5987 165.254L116.979 165.503M116.979 165.503L134.774 165.758M134.774 165.758L153.396 166.025M153.396 166.025L168.294 166.238M168.294 166.238L177.398 166.368M177.398 166.368L181.95 166.433" stroke="black"/>
<path d="M8.97045 131.916C9.58959 121.243 15.0524 122.014 22.2129 119.978L193.951 122.859C204.096 125.945 206.961 129.451 207.607 138.503C208.29 143.746 208.352 146.389 205.538 148.384C200.158 182.142 76.838 203.138 10.2119 162.381C-4.2719 152.913 0.693978 141.797 8.97045 131.916Z" fill="black" stroke="white"/>
<path d="M74.7691 41.3454C92.5636 31.4649 92.1498 1 103.737 1C100.537 10.5894 100.006 15.0312 107.048 17.0558C107.461 13.7623 110.358 16.2324 113.255 22.4077C114.496 21.1727 118.396 22.0661 119.462 27.7597C123.123 25.5474 124.966 27.3042 128.153 31.8766C133.47 31.6421 136.304 33.713 140.981 42.9921C147.285 44.7175 149.556 47.7013 152.155 55.3427C157.288 56.7041 159.462 58.9726 162.5 64.8115C168.723 72.1359 172.06 76.5273 173.205 89.6847C179.547 96.4622 183.708 99.5686 183.192 114.214C183.841 118.219 184.12 120.501 187.744 123.271C190.549 136.966 186.17 140.835 176.157 146.326C166.157 153.461 160.999 155.118 152.155 156.206C136.002 165.64 129.642 165.103 119.876 160.735C96.3189 168.504 91.0269 166.385 83.8732 160.735C62.6733 164.287 55.5494 160.504 44.5597 151.678C31.3988 148.591 28.0658 144.36 21.3854 137.269C21.636 134.058 22.0577 132.14 23.0407 128.623L18.1721 118.331L16.4194 114.626C20.2829 107.921 22.5217 105.973 26.5394 103.098L23.0407 90.3362C24.8169 85.4183 29.4634 82.6115 39.9559 77.5739L38.3523 64.8115C43.7667 59.5769 55.8878 54.3083 56.4269 55.3427L56.1522 52.8726C54.4514 49.9273 61.4155 44.1308 74.7691 41.3454Z" fill="white"/>
<path d="M74.7691 41.3454C92.5636 31.4649 92.1498 1 103.737 1C100.537 10.5894 100.006 15.0312 107.048 17.0558M74.7691 41.3454C74.7691 50.4025 100.84 41.3454 107.048 17.0558M74.7691 41.3454C61.4155 44.1308 54.4514 49.9273 56.1522 52.8726M107.048 17.0558C107.461 13.7623 110.358 16.2324 113.255 22.4077M84.7009 49.1674C66.6423 55.8797 57.7193 55.5864 56.1522 52.8726M56.1522 52.8726L56.4269 55.3427M113.255 22.4077C116.152 27.348 113.255 46.2856 94.6327 56.5778C80.2923 62.9384 72.1968 65.5672 57.3883 63.9882L56.4269 55.3427M113.255 22.4077C114.496 21.1727 118.396 22.0661 119.462 27.7597M56.4269 55.3427C55.8878 54.3083 43.7667 59.5769 38.3523 64.8115M38.3523 64.8115L39.9559 77.5739M38.3523 64.8115C39.8998 73.0453 71.8199 78.5498 92.0419 67.2817M119.462 27.7597C135.188 70.9869 48.6979 95.6881 40.4214 81.279L39.9559 77.5739M119.462 27.7597C123.123 25.5474 124.966 27.3042 128.153 31.8766M39.9559 77.5739C29.4634 82.6115 24.8169 85.4183 23.0407 90.3362M23.0407 90.3362C34.8213 98.9396 67.7339 98.1582 96.7018 81.279M23.0407 90.3362L26.5394 103.098M128.153 31.8766C141.395 64.8115 94.6054 113.683 28.0066 108.45L26.5394 103.098M128.153 31.8766C133.47 31.6421 136.304 33.713 140.981 42.9921M26.5394 103.098C22.5217 105.973 20.2829 107.921 16.4194 114.626L18.1721 118.331M23.0407 128.623C48.4696 136.2 69.6376 126.476 111.6 100.628M23.0407 128.623L18.1721 118.331M23.0407 128.623C22.0577 132.14 21.636 134.058 21.3854 137.269M18.1721 118.331C42.7573 121.447 55.9925 118.77 78.9073 108.45M21.3854 137.269C28.0658 144.36 31.3988 148.591 44.5596 151.678M21.3854 137.269C30.268 143.416 66.6713 136.878 73.1137 130.682M44.5596 151.678C119.462 123.271 143.05 81.279 140.981 42.9921M44.5596 151.678C55.5494 160.504 62.6733 164.287 83.8732 160.735M140.981 42.9921C147.285 44.7175 149.556 47.7013 152.155 55.3427M83.8732 160.735C106.634 148.384 147.602 115.861 152.155 55.3427M83.8732 160.735C91.0269 166.385 96.3189 168.504 119.876 160.735M152.155 55.3427C157.288 56.7041 159.462 58.9726 162.5 64.8115M119.876 160.735C162.391 122.108 162.5 92.3946 162.5 64.8115M119.876 160.735C129.642 165.103 136.002 165.64 152.155 156.206M162.5 64.8115C168.723 72.1359 172.06 76.5273 173.205 89.6847M152.155 156.206C164.667 134.62 170.83 121.692 173.26 90.3362C173.242 90.1166 173.224 89.8995 173.205 89.6847M152.155 156.206C160.999 155.118 166.157 153.461 176.157 146.326M176.157 146.326L183.192 114.214M176.157 146.326C186.17 140.835 190.549 136.966 187.744 123.271C184.12 120.501 183.841 118.219 183.192 114.214M183.192 114.214C183.708 99.5686 179.547 96.4622 173.205 89.6847" stroke="black"/>
<path d="M60.1772 54.5193L63.074 64.3998" stroke="black" stroke-width="0.5"/>
<path d="M58.9358 59.0479C59.2669 59.7066 59.9014 62.6158 60.1773 63.9881" stroke="black" stroke-width="0.5"/>
<path d="M62.2463 54.5193L63.4878 57.8128" stroke="black" stroke-width="0.5"/>
<path d="M64.3154 59.4597L65.9707 64.4" stroke="black" stroke-width="0.5"/>
<path d="M65.5569 54.5193L68.8675 63.9881" stroke="black" stroke-width="0.5"/>
<path d="M68.04 54.1077L69.6953 59.0479" stroke="black" stroke-width="0.5"/>
<path d="M70.5229 60.6946L71.7644 63.9881" stroke="black" stroke-width="0.5"/>
<path d="M71.6003 53.0308L76.5339 62.9101" stroke="black" stroke-width="0.5"/>
<path d="M71.3506 58.1497C71.8143 58.7766 73.0535 61.7357 73.6151 63.1369" stroke="black" stroke-width="0.5"/>
<path d="M73.6226 52.5549L75.5367 55.7846" stroke="black" stroke-width="0.5"/>
<path d="M76.696 57.3523L79.365 62.2444" stroke="black" stroke-width="0.5"/>
<path d="M76.8582 51.7935L82.1085 61.1383" stroke="black" stroke-width="0.5"/>
<path d="M79.1973 50.7832L81.8662 55.6753" stroke="black" stroke-width="0.5"/>
<path d="M83.0256 57.2429L84.9398 60.4726" stroke="black" stroke-width="0.5"/>
<path d="M44.0007 70.1633L42.7965 83.3373" stroke="black" stroke-width="0.5"/>
<path d="M41.9502 75.0557C41.9783 76.0517 41.3487 79.9907 41.0304 81.8357" stroke="black" stroke-width="0.5"/>
<path d="M46.2327 70.9871L45.9964 75.7372" stroke="black" stroke-width="0.5"/>
<path d="M46.0884 77.574L45.5455 84.5841" stroke="black" stroke-width="0.5"/>
<path d="M48.7957 71.8103L47.8808 85.323" stroke="black" stroke-width="0.5"/>
<path d="M51.0544 72.6335L50.5116 79.6437" stroke="black" stroke-width="0.5"/>
<path d="M50.3708 80.8672L50.1346 85.6173" stroke="black" stroke-width="0.5"/>
<path d="M41.2666 68.5166L41.0303 73.2667" stroke="black" stroke-width="0.5"/>
<path d="M56.4683 73.2026L56.0596 85.6491" stroke="black" stroke-width="0.5"/>
<path d="M53.5522 77.574C53.6103 78.629 53.033 83.0666 52.7371 85.1535" stroke="black" stroke-width="0.5"/>
<path d="M58.4729 73.7112L58.7951 77.3004" stroke="black" stroke-width="0.5"/>
<path d="M58.9822 78.6575L58.9358 84.9841" stroke="black" stroke-width="0.5"/>
<path d="M61.2188 73.9111L61.8325 84.5724" stroke="black" stroke-width="0.5"/>
<path d="M63.7988 73.6392L63.925 79.4894" stroke="black" stroke-width="0.5"/>
<path d="M63.9255 80.4268L64.2477 84.016" stroke="black" stroke-width="0.5"/>
<path d="M53.7441 72.6335L53.497 76.2401" stroke="black" stroke-width="0.5"/>
<path d="M66.1982 73.7676L67.2121 83.7492" stroke="black" stroke-width="0.5"/>
<path d="M68.1243 73.7795L68.9176 76.6869" stroke="black" stroke-width="0.5"/>
<path d="M69.2778 77.7732L70.1075 83.0233" stroke="black" stroke-width="0.5"/>
<path d="M70.6936 73.3853L73.0059 82.1025" stroke="black" stroke-width="0.5"/>
<path d="M73.0059 73.0452L73.9679 77.4538" stroke="black" stroke-width="0.5"/>
<path d="M74.0979 78.2305L74.8912 81.1379" stroke="black" stroke-width="0.5"/>
<path d="M75.6299 72.8464L77.4711 80.8438" stroke="black" stroke-width="0.5"/>
<path d="M77.9055 72.6335L78.7537 75.2575" stroke="black" stroke-width="0.5"/>
<path d="M78.9028 75.8735L79.9865 79.91" stroke="black" stroke-width="0.5"/>
<path d="M80.041 72.2219L82.5405 78.8628" stroke="black" stroke-width="0.5"/>
<path d="M82.1946 71.4012L83.3514 75.1037" stroke="black" stroke-width="0.5"/>
<path d="M83.7449 76.123L84.6788 78.3512" stroke="black" stroke-width="0.5"/>
<path d="M84.593 70.6721L87.076 77.1622" stroke="black" stroke-width="0.5"/>
<path d="M86.1921 70.1726L87.3853 71.9389" stroke="black" stroke-width="0.5"/>
<path d="M87.8843 72.5818L89.5389 75.9301" stroke="black" stroke-width="0.5"/>
<path d="M88.2502 69.2275L91.4718 74.3686" stroke="black" stroke-width="0.5"/>
<path d="M90.0613 68.0974L91.7147 71.1289" stroke="black" stroke-width="0.5"/>
<path d="M91.9653 71.6221L93.1584 73.3883" stroke="black" stroke-width="0.5"/>
<path d="M31.2617 93.7092L30.5192 107.898" stroke="black" stroke-width="0.5"/>
<path d="M28.8862 98.8904C29.0171 99.9024 28.1671 105.305 27.8986 107.215" stroke="black" stroke-width="0.5"/>
<path d="M34.4155 94.3333L34.5287 99.195" stroke="black" stroke-width="0.5"/>
<path d="M34.8257 101.057L34.7249 108.251" stroke="black" stroke-width="0.5"/>
<path d="M38.0264 94.9258L38.0136 108.779" stroke="black" stroke-width="0.5"/>
<path d="M41.217 95.5466L41.1163 102.74" stroke="black" stroke-width="0.5"/>
<path d="M41.0356 104L41.1488 108.862" stroke="black" stroke-width="0.5"/>
<path d="M27.3394 92.2947L27.4525 97.1564" stroke="black" stroke-width="0.5"/>
<path d="M48.7354 95.6057L49.3221 108.324" stroke="black" stroke-width="0.5"/>
<path d="M45.1182 100.339C45.3672 101.511 45.0536 106.509 44.8656 108.862" stroke="black" stroke-width="0.5"/>
<path d="M51.5469 95.9304L52.3229 99.5558" stroke="black" stroke-width="0.5"/>
<path d="M52.7061 100.92L53.1422 108.039" stroke="black" stroke-width="0.5"/>
<path d="M54.9253 94.8406L57.2803 107.215" stroke="black" stroke-width="0.5"/>
<path d="M58.9358 94.8647L59.599 101.292" stroke="black" stroke-width="0.5"/>
<path d="M59.6865 102.247L60.5911 106.392" stroke="black" stroke-width="0.5"/>
<path d="M44.8657 95.6882L44.9188 98.986" stroke="black" stroke-width="0.5"/>
<path d="M61.4187 94.0413L64.7293 105.98" stroke="black" stroke-width="0.5"/>
<path d="M63.9016 94.0413L66.2246 97.9565" stroke="black" stroke-width="0.5"/>
<path d="M66.822 99.0281L68.8676 104.745" stroke="black" stroke-width="0.5"/>
<path d="M67.2124 93.2183L73.006 103.922" stroke="black" stroke-width="0.5"/>
<path d="M70.5229 92.3945L73.26 98.2514" stroke="black" stroke-width="0.5"/>
<path d="M73.5107 99.0303L75.4887 103.099" stroke="black" stroke-width="0.5"/>
<path d="M73.8335 91.5713L78.4039 101.368" stroke="black" stroke-width="0.5"/>
<path d="M77.144 90.3362L79.6566 95.5537" stroke="black" stroke-width="0.5"/>
<path d="M79.9192 96.167L81.7866 100.175" stroke="black" stroke-width="0.5"/>
<path d="M79.2937 89.4473L85.4207 98.9818" stroke="black" stroke-width="0.5"/>
<path d="M82.1101 88.2778L85.9826 94.9544" stroke="black" stroke-width="0.5"/>
<path d="M86.6191 95.9551L87.4898 97.7466" stroke="black" stroke-width="0.5"/>
<path d="M85.4207 87.4543L90.8004 96.0998" stroke="black" stroke-width="0.5"/>
<path d="M87.9036 85.8076L91.2526 91.3418" stroke="black" stroke-width="0.5"/>
<path d="M92 91.949L93.6972 94.8648" stroke="black" stroke-width="0.5"/>
<path d="M90.0012 84.8713L96.1802 93.2181" stroke="black" stroke-width="0.5"/>
<path d="M92.8696 83.8777L95.4299 86.8068" stroke="black" stroke-width="0.5"/>
<path d="M97.0078 89.5061L98.8163 91.1906" stroke="black" stroke-width="0.5"/>
<path d="M24.1743 118.742L25.002 129.446" stroke="black" stroke-width="0.5"/>
<path d="M22.3972 122.752C22.6027 123.325 22.1734 126.545 22.0533 127.681" stroke="black" stroke-width="0.5"/>
<path d="M27.5024 119.527L27.9816 122.333" stroke="black" stroke-width="0.5"/>
<path d="M28.4153 123.38L29.1403 130.27" stroke="black" stroke-width="0.5"/>
<path d="M31.1062 119.488L32.4509 130.27" stroke="black" stroke-width="0.5"/>
<path d="M34.2981 119.511L34.7428 123.691" stroke="black" stroke-width="0.5"/>
<path d="M34.7583 124.429L35.7613 131.093" stroke="black" stroke-width="0.5"/>
<path d="M20.3738 119.094L20.853 121.899" stroke="black" stroke-width="0.5"/>
<path d="M84.1793 164.44C94.4139 170.662 102.036 169.801 117.285 164.44M43.2104 154.148C52.3595 163.169 58.8845 166.748 77.5581 165.675" stroke="white" stroke-width="0.5"/>
<path d="M41.9687 119.154L44.0379 131.093" stroke="black" stroke-width="0.5"/>
<path d="M38.5056 121.876C39.0808 123.088 39.1229 128.526 39.0722 131.093" stroke="black" stroke-width="0.5"/>
<path d="M44.7451 118.801L45.7841 120.82" stroke="black" stroke-width="0.5"/>
<path d="M46.0283 121.411L48.1763 130.27" stroke="black" stroke-width="0.5"/>
<path d="M48.1763 118.742L53.1422 129.446" stroke="black" stroke-width="0.5"/>
<path d="M52.3145 117.919L52.8503 120.897" stroke="black" stroke-width="0.5"/>
<path d="M53.0088 121.441L56.4527 128.623" stroke="black" stroke-width="0.5"/>
<path d="M37.905 119.208L38.2067 121.113" stroke="black" stroke-width="0.5"/>
<path d="M54.2517 117.725L59.7635 127.8" stroke="black" stroke-width="0.5"/>
<path d="M57.1597 116.272L59.1411 118.885" stroke="black" stroke-width="0.5"/>
<path d="M59.7634 120.389L63.0396 126.312" stroke="black" stroke-width="0.5"/>
<path d="M60.4392 115.449L67.7734 125.007" stroke="black" stroke-width="0.5"/>
<path d="M62.9446 114.586L66.0852 117.691" stroke="black" stroke-width="0.5"/>
<path d="M66.3906 118.117L71.3504 122.859" stroke="black" stroke-width="0.5"/>
<path d="M66.1455 113.759L74.6612 121.213" stroke="black" stroke-width="0.5"/>
<path d="M69.3152 112.694L72.1862 115.452" stroke="black" stroke-width="0.5"/>
<path d="M72.4912 115.779L77.9717 119.566" stroke="black" stroke-width="0.5"/>
<path d="M71.3665 111.951L80.4546 118.743" stroke="black" stroke-width="0.5"/>
<path d="M74.054 110.976L82.1099 117.919" stroke="black" stroke-width="0.5"/>
<path d="M76.3164 109.778L84.5929 116.272" stroke="black" stroke-width="0.5"/>
<path d="M30.2644 139.39L31.956 149.993" stroke="black" stroke-width="0.5"/>
<path d="M28.8179 143.529C29.069 144.084 28.9019 147.328 28.8741 148.469" stroke="black" stroke-width="0.5"/>
<path d="M33.6453 139.906L34.35 142.663" stroke="black" stroke-width="0.5"/>
<path d="M34.8669 143.673L36.1474 150.482" stroke="black" stroke-width="0.5"/>
<path d="M37.2341 139.578L39.4474 150.217" stroke="black" stroke-width="0.5"/>
<path d="M40.4175 139.345L41.1991 143.475" stroke="black" stroke-width="0.5"/>
<path d="M41.2744 144.21L42.8137 150.772" stroke="black" stroke-width="0.5"/>
<path d="M26.5046 140.045L27.2094 142.803" stroke="black" stroke-width="0.5"/>
<path d="M48.0344 138.375L50.6592 149.207" stroke="black" stroke-width="0.5"/>
<path d="M44.8027 141.365C45.4741 142.527 45.95 148.703 46.1072 151.266" stroke="black" stroke-width="0.5"/>
<path d="M51.073 138.092L51.9722 139.729" stroke="black" stroke-width="0.5"/>
<path d="M52.2634 140.298L54.3837 147.561" stroke="black" stroke-width="0.5"/>
<path d="M54.1885 137.467L58.9359 145.914" stroke="black" stroke-width="0.5"/>
<path d="M58.2466 136.315L59.0218 139.24" stroke="black" stroke-width="0.5"/>
<path d="M59.2236 139.77L61.4186 144.267" stroke="black" stroke-width="0.5"/>
<path d="M44.0381 139.327L44.4432 140.628" stroke="black" stroke-width="0.5"/>
<path d="M60.1616 135.966L64.7294 143.032" stroke="black" stroke-width="0.5"/>
<path d="M63.9016 135.21L65.129 136.73" stroke="black" stroke-width="0.5"/>
<path d="M65.8711 138.18L68.0398 141.797" stroke="black" stroke-width="0.5"/>
<path d="M67.2124 133.975L71.7645 139.739" stroke="black" stroke-width="0.5"/>
<path d="M69.6953 132.74L71.9542 134.984" stroke="black" stroke-width="0.5"/>
<path d="M72.293 135.384L75.4888 137.68" stroke="black" stroke-width="0.5"/>
<path d="M72.1782 131.505L78.3856 136.033" stroke="black" stroke-width="0.5"/>
<path d="M8.44887 139.327C1.41982 150.976 9.56485 157.566 35.3476 169.38" stroke="white" stroke-width="0.5"/>
<path d="M12.5872 146.737C12.6337 151.676 16.0272 154.04 25.4158 157.853" stroke="white" stroke-width="0.5"/>
<path d="M152.874 175.967C176.384 171.506 183.862 166.507 195.912 157.029" stroke="white" stroke-width="0.5"/>
<path d="M179.359 147.561C191.239 140.693 193.444 135.567 190.533 124.506" stroke="white" stroke-width="0.5"/>
<path d="M42.3588 177.486L39.7779 177.682M42.7464 179.428L40.1365 179.972M43.3017 181.556L40.1885 181.546M43.4926 183.661L40.9406 183.51" stroke="black"/>
<path d="M43.6075 185.754L40.8159 186.143M44.2533 187.851L41.47 188.622M45.1033 190.139L41.7075 190.339M45.5532 192.428L42.7533 192.435" stroke="black"/>
<path d="M45.6693 194.777L43.0884 194.973M46.0569 196.719L43.447 197.263M46.6123 198.847L43.499 198.837M46.8031 200.952L44.2512 200.801" stroke="black"/>
<path d="M47.3246 203.01L44.7437 203.206M47.7122 204.953L45.1023 205.496M48.2676 207.08L45.1543 207.07M48.4584 209.186L45.9064 209.035" stroke="black"/>
<path d="M48.9801 212.068L46.3992 212.264M49.3677 214.01L46.7578 214.554M49.9231 216.138L46.8098 216.128M50.1139 218.243L47.5619 218.092" stroke="black"/>
<path d="M50.6354 221.125L48.0545 221.321M51.023 223.067L48.4131 223.611M51.5783 225.195L48.4651 225.185M51.7692 227.3L49.2172 227.149" stroke="black"/>
<path d="M52.2907 230.182L49.7097 230.378M52.6782 232.124L50.0684 232.668M53.2336 234.252L50.1203 234.242M53.4244 236.357L50.8725 236.206" stroke="black"/>
<path d="M53.9459 239.239L51.365 239.435M54.3335 241.182L51.7236 241.725M54.8889 243.309L51.7756 243.299M55.0797 245.414L52.5278 245.263" stroke="black"/>
<path d="M54.1647 182.321L51.4622 182.436M54.51 184.275L51.7666 184.736M55.025 186.418L51.7726 186.311M55.1598 188.529L52.4982 188.298" stroke="black"/>
<path d="M55.2158 190.624L52.2873 190.926M55.8262 192.741L52.8946 193.425M56.644 195.053L53.09 195.148M57.0439 197.355L54.1183 197.276" stroke="black"/>
<path d="M57.0931 199.707L54.3907 199.822M57.4385 201.66L54.6951 202.122M57.9535 203.804L54.7011 203.697M58.0882 205.915L55.4267 205.684" stroke="black"/>
<path d="M58.57 207.988L55.8675 208.103M58.9153 209.942L56.1719 210.404M59.4303 212.085L56.1779 211.978M59.565 214.196L56.9035 213.965" stroke="black"/>
<path d="M60.0214 217.093L57.3189 217.208M60.3667 219.046L57.6233 219.508M60.8817 221.19L57.6293 221.083M61.0165 223.301L58.3549 223.07" stroke="black"/>
<path d="M61.473 226.198L58.7705 226.313M61.8184 228.151L59.075 228.613M62.3334 230.295L59.081 230.188M62.4681 232.406L59.8065 232.175" stroke="black"/>
<path d="M62.9244 235.302L60.222 235.417M63.2698 237.256L60.5264 237.718M63.7848 239.399L60.5324 239.292M63.9195 241.51L61.258 241.279" stroke="black"/>
<path d="M64.3761 244.406L61.6736 244.522M64.7214 246.36L61.978 246.822M65.2364 248.503L61.9841 248.397M65.3712 250.614L62.7096 250.383" stroke="black"/>
<path d="M67.3297 184.141L64.7413 184.154M67.5774 186.106L64.9353 186.464M67.9794 188.267L64.8747 188.037M68.0193 190.381L65.4846 190.05" stroke="black"/>
<path d="M67.9844 192.477L65.172 192.668M68.4786 194.614L65.6473 195.187M69.1629 196.956L65.7615 196.916M69.4482 199.271L66.6548 199.081" stroke="black"/>
<path d="M69.3961 201.622L66.8077 201.635M69.6438 203.587L67.0018 203.945M70.0458 205.749L66.9411 205.518M70.0857 207.862L67.551 207.531" stroke="black"/>
<path d="M70.4591 209.952L67.8707 209.965M70.7068 211.917L68.0647 212.275M71.1088 214.078L68.0041 213.848M71.1487 216.192L68.614 215.861" stroke="black"/>
<path d="M71.4627 219.103L68.8743 219.116M71.7105 221.069L69.0684 221.426M72.1125 223.23L69.0078 223M72.1523 225.344L69.6176 225.012" stroke="black"/>
<path d="M72.4666 228.255L69.8782 228.268M72.7144 230.22L70.0723 230.577M73.1164 232.381L70.0117 232.151M73.1562 234.495L70.6216 234.164" stroke="black"/>
<path d="M73.4705 237.406L70.8822 237.419M73.7183 239.371L71.0762 239.729M74.1203 241.532L71.0156 241.302M74.1601 243.646L71.6255 243.315" stroke="black"/>
<path d="M74.4744 246.557L71.8861 246.57M74.7222 248.522L72.0801 248.88M75.1242 250.683L72.0195 250.453M75.164 252.797L72.6294 252.466" stroke="black"/>
<path d="M132.162 186.564L134.339 186.705M131.886 188.515L134.097 189.002M131.474 190.653L134.094 190.576M131.368 192.762L133.512 192.556" stroke="black"/>
<path d="M131.325 194.857L133.685 195.186M130.836 196.967L133.199 197.678M130.18 199.272L133.043 199.399M129.861 201.57L132.218 201.517" stroke="black"/>
<path d="M129.824 203.921L132.001 204.061M129.548 205.871L131.759 206.358M129.136 208.01L131.756 207.933M129.03 210.119L131.174 209.913" stroke="black"/>
<path d="M128.645 212.187L130.822 212.328M128.369 214.138L130.579 214.625M127.956 216.276L130.576 216.199M127.85 218.385L129.994 218.179" stroke="black"/>
<path d="M127.486 221.278L129.664 221.418M127.211 223.228L129.421 223.715M126.798 225.367L129.418 225.289M126.692 227.476L128.836 227.269" stroke="black"/>
<path d="M126.328 230.367L128.505 230.508M126.052 232.318L128.263 232.805M125.64 234.456L128.26 234.379M125.534 236.565L127.678 236.359" stroke="black"/>
<path d="M125.17 239.457L127.347 239.597M124.894 241.408L127.104 241.895M124.482 243.546L127.101 243.469M124.376 245.655L126.519 245.449" stroke="black"/>
<path d="M124.011 248.547L126.189 248.688M123.736 250.498L125.946 250.985M123.323 252.636L125.943 252.559M123.217 254.745L125.361 254.539" stroke="black"/>
<path d="M149.875 184.025L152.033 184.339M149.442 185.947L151.607 186.609M148.859 188.046L151.477 188.178M148.583 190.14L150.737 190.105" stroke="black"/>
<path d="M147.908 192.435L150.697 192.74M147.714 194.289L150.011 195.186M146.874 196.534L149.718 196.889M146.371 198.799L148.724 198.934" stroke="black"/>
<path d="M146.144 201.139L148.303 201.453M145.712 203.061L147.876 203.723M145.128 205.16L147.746 205.292M144.853 207.254L147.006 207.219" stroke="black"/>
<path d="M144.302 209.285L146.46 209.599M143.869 211.207L146.033 211.869M143.286 213.306L145.903 213.438M143.01 215.4L145.164 215.365" stroke="black"/>
<path d="M142.414 218.253L144.573 218.566M141.981 220.175L144.146 220.837M141.398 222.274L144.016 222.406M141.122 224.367L143.276 224.333" stroke="black"/>
<path d="M140.526 227.221L142.685 227.535M140.094 229.143L142.258 229.805M139.51 231.242L142.128 231.374M139.234 233.336L141.388 233.301" stroke="black"/>
<path d="M138.638 236.189L140.797 236.503M138.206 238.111L140.37 238.773M137.622 240.21L140.24 240.342M137.347 242.304L139.5 242.269" stroke="black"/>
<path d="M136.75 245.157L138.909 245.471M136.318 247.079L138.482 247.741M135.735 249.178L138.352 249.31M135.459 251.272L137.612 251.237" stroke="black"/>
<path d="M164.02 182.33L166.159 182.755M163.487 184.227L165.614 185M162.795 186.292L165.402 186.56M162.41 188.369L164.562 188.446" stroke="black"/>
<path d="M162.089 190.439L164.384 191.075M161.324 192.467L163.571 193.482M160.368 194.666L163.189 195.168M159.746 196.901L162.089 197.159" stroke="black"/>
<path d="M159.397 199.227L161.537 199.652M158.865 201.124L160.991 201.897M158.172 203.19L160.779 203.457M157.787 205.266L159.94 205.344" stroke="black"/>
<path d="M157.13 207.266L159.27 207.691M156.598 209.163L158.724 209.936M155.905 211.229L158.512 211.496M155.52 213.305L157.672 213.383" stroke="black"/>
<path d="M154.775 216.124L156.914 216.549M154.242 218.021L156.369 218.794M153.55 220.087L156.157 220.354M153.165 222.163L155.317 222.24" stroke="black"/>
<path d="M152.419 224.982L154.559 225.407M151.887 226.879L154.014 227.652M151.194 228.945L153.802 229.212M150.809 231.021L152.962 231.098" stroke="black"/>
<path d="M150.064 233.84L152.204 234.265M149.532 235.737L151.658 236.51M148.839 237.803L151.446 238.07M148.454 239.879L150.606 239.957" stroke="black"/>
<path d="M147.709 242.698L149.848 243.123M147.176 244.595L149.303 245.368M146.484 246.661L149.091 246.929M146.099 248.737L148.251 248.815" stroke="black"/>
<path d="M115.692 187.47L117.874 187.474M115.54 189.434L117.777 189.782M115.264 191.594L117.874 191.353M115.291 193.706L117.418 193.366" stroke="black"/>
<path d="M115.381 195.799L117.757 195.98M115.026 197.936L117.429 198.497M114.517 200.278L117.383 200.225M114.344 202.591L116.693 202.391" stroke="black"/>
<path d="M114.456 204.939L116.638 204.943M114.304 206.903L116.541 207.251M114.028 209.063L116.637 208.822M114.055 211.175L116.182 210.835" stroke="black"/>
<path d="M113.801 213.263L115.983 213.267M113.649 215.227L115.886 215.575M113.373 217.387L115.983 217.146M113.4 219.499L115.527 219.159" stroke="black"/>
<path d="M113.219 222.407L115.401 222.411M113.067 224.371L115.304 224.719M112.791 226.531L115.401 226.29M112.819 228.643L114.945 228.303" stroke="black"/>
<path d="M112.638 231.552L114.82 231.556M112.486 233.516L114.723 233.863M112.21 235.676L114.82 235.435M112.237 237.787L114.364 237.447" stroke="black"/>
<path d="M112.057 240.696L114.238 240.7M111.905 242.66L114.142 243.008M111.628 244.82L114.238 244.579M111.656 246.932L113.782 246.592" stroke="black"/>
<path d="M111.475 249.84L113.657 249.844M111.323 251.804L113.56 252.152M111.047 253.964L113.657 253.723M111.074 256.076L113.201 255.736" stroke="black"/>
<path d="M85.027 186.672L82.444 186.506M85.1367 188.65L82.476 188.824M85.3864 190.834L82.3054 190.389M85.2782 192.945L82.7729 192.439" stroke="black"/>
<path d="M85.0967 195.033L82.2778 195.029M85.4401 197.2L82.5756 197.575M85.9589 199.584L82.5685 199.308M86.0814 201.912L83.3081 201.529" stroke="black"/>
<path d="M85.8649 204.254L83.2819 204.088M85.9746 206.232L83.3139 206.405M86.2243 208.416L83.1432 207.971M86.1161 210.527L83.6108 210.021" stroke="black"/>
<path d="M86.3422 212.638L83.7592 212.471M86.4518 214.615L83.7911 214.789M86.7016 216.799L83.6205 216.354M86.5934 218.911L84.0881 218.404" stroke="black"/>
<path d="M86.7031 221.836L84.1201 221.67M86.8127 223.814L84.152 223.988M87.0624 225.998L83.9814 225.553M86.9542 228.109L84.4489 227.603" stroke="black"/>
<path d="M87.0639 231.035L84.4809 230.868M87.1735 233.012L84.5128 233.186M87.4233 235.196L84.3422 234.751M87.3151 237.307L84.8097 236.801" stroke="black"/>
<path d="M87.425 240.233L84.842 240.067M87.5346 242.211L84.8739 242.385M87.7843 244.395L84.7033 243.95M87.6762 246.506L85.1708 246" stroke="black"/>
<path d="M87.7858 249.432L85.2028 249.266M87.8954 251.41L85.2348 251.583M88.1452 253.594L85.0641 253.149M88.037 255.705L85.5317 255.199" stroke="black"/>
<path d="M100.398 188.372L97.8318 188.036M100.376 190.352L97.7096 190.35M100.48 192.548L97.4353 191.901M100.232 194.647L97.7655 193.978" stroke="black"/>
<path d="M99.9117 196.719L97.0993 196.529M100.11 198.904L97.2272 199.089M100.47 201.316L97.1049 200.818M100.437 203.648L97.6952 203.083" stroke="black"/>
<path d="M100.065 205.97L97.4991 205.634M100.043 207.951L97.3768 207.949M100.147 210.146L97.1025 209.499M99.8989 212.246L97.4327 211.576" stroke="black"/>
<path d="M99.9841 214.367L97.4178 214.031M99.9619 216.347L97.2955 216.346M100.066 218.543L97.0212 217.896M99.8176 220.643L97.3514 219.973" stroke="black"/>
<path d="M99.7326 223.569L97.1663 223.233M99.7105 225.549L97.0441 225.547M99.8145 227.745L96.7697 227.098M99.5661 229.844L97.0999 229.174" stroke="black"/>
<path d="M99.4809 232.771L96.9146 232.435M99.4588 234.752L96.7924 234.75M99.5628 236.947L96.518 236.301M99.3144 239.047L96.8482 238.377" stroke="black"/>
<path d="M99.2294 241.973L96.6631 241.637M99.2073 243.954L96.5409 243.952M99.3113 246.149L96.2666 245.503M99.063 248.249L96.5968 247.579" stroke="black"/>
<path d="M98.978 251.176L96.4117 250.84M98.9558 253.156L96.2894 253.154M99.0598 255.352L96.0151 254.705M98.8115 257.451L96.3453 256.781" stroke="black"/>
<path d="M25 250C34.7059 230.165 33.5489 220.583 25 205H178C165.753 222.571 166.54 232.429 178 250H25Z" fill="white" stroke="black"/>
</svg>
