<svg width="236" height="247" viewBox="0 0 236 247" fill="none" xmlns="http://www.w3.org/2000/svg">
<path d="M17.3284 152.475L17.1222 130.452L202.34 125.371L220.355 133.02L211.457 152.32L209.56 161.621L208.101 168.776L206.107 178.554L203.675 190.479L203.431 191.672C201.066 198.793 197.3 201.953 184.095 205.366C65.9902 205.872 5.00117 214.364 12.3676 204.007L12.233 189.627C12.177 189.416 12.1746 189.195 12.2268 188.963L12.127 178.309C12.1082 178.195 12.1071 178.077 12.1237 177.956L15.6325 166.494C15.6437 166.445 15.6588 166.396 15.6778 166.346L15.6328 161.542C15.5504 161.319 15.5475 161.08 15.6261 160.823L17.3284 152.475Z" fill="white"/>
<path d="M17.3284 152.475L17.1222 130.452L202.34 125.371L220.355 133.02L211.457 152.32M17.3284 152.475C16.9765 159.327 127.444 150.588 211.457 152.32M17.3284 152.475L15.6261 160.823M211.457 152.32L209.56 161.621M15.6261 160.823C12.8909 169.764 108.941 157.496 209.56 161.621M15.6261 160.823L15.6778 166.346M209.56 161.621L208.101 168.776M15.6778 166.346C12.5094 174.688 117.178 167.125 208.101 168.776M15.6778 166.346L12.1237 177.956M208.101 168.776L206.107 178.554M12.1237 177.956C10.9059 186.817 105.022 178.061 206.107 178.554M12.1237 177.956L12.2268 188.963M206.107 178.554L203.431 191.672C201.066 198.793 197.3 201.953 184.095 205.366C65.9902 205.872 5.00117 214.364 12.3676 204.007L12.2268 188.963M12.2268 188.963C10.1895 198.014 91.3703 190.927 203.675 190.479" stroke="black" stroke-width="2"/>
<path d="M98.1495 109.901L98.0018 94.1233" stroke="black" stroke-width="0.5"/>
<path d="M21.1464 156.732C22.6676 156.843 117.386 155.741 164.555 155.175" stroke="black" stroke-width="0.5"/>
<path d="M23.4959 161.434L165.246 158.546" stroke="black" stroke-width="0.5"/>
<path d="M38.8596 159.102L108.411 157.388" stroke="black" stroke-width="0.5"/>
<path d="M16.6819 185.383C18.2031 185.494 112.922 184.392 160.091 183.826" stroke="black" stroke-width="0.5"/>
<path d="M19.0314 190.085L160.782 187.197" stroke="black" stroke-width="0.5"/>
<path d="M34.395 187.753L103.947 186.039" stroke="black" stroke-width="0.5"/>
<path d="M166.276 184.591C166.594 184.604 186.504 183.395 196.419 182.789" stroke="black" stroke-width="0.5"/>
<path d="M150.858 189.893L204.112 188.333" stroke="black" stroke-width="0.5"/>
<path d="M123.816 181.894L193.368 180.18" stroke="black" stroke-width="0.5"/>
<path d="M170.331 74.1287L21.8727 120.6C14.2124 123.012 13.2555 131.76 23.4599 133.096C25.3128 133.473 31.2771 135.447 30.6934 138.309C27.6778 153.096 42.1286 149.833 42.4373 140.207C43.0696 137.107 43.6533 134.245 46.2301 133.777L66.1638 133.371C68.692 133.141 72.5866 135.674 70.3175 138.689C62.8077 149.827 82.4812 158.807 85.4323 140.281C86.016 137.419 85.6868 133.626 89.0577 133.32C99.0226 132.257 104.626 131.911 114.745 133.093C116.638 133.386 116.843 134.112 117.002 135.541C115.337 149.113 128.389 147.303 127.137 135.869C127.667 132.667 128.96 132.422 131.453 132.278C131.453 132.278 172.255 133.644 174.999 133.706C177.743 133.769 178.364 136.132 177.3 138.647C173.426 149.532 185.218 151.192 185.241 140.267C185.126 136.596 185.907 135.639 187.564 134.282C190.676 131.19 215.326 131.994 214.256 137.241L203.701 188.994C203.014 195.065 195.663 199.37 183.517 205.496C194.76 206.734 201.392 208.15 209.307 202.061C222.335 165.22 227.016 124.69 223.414 120.726C205.056 99.9688 193.129 90.0947 170.331 74.1287Z" fill="white" stroke="black" stroke-width="2"/>
<path d="M32.4342 123.014C110.219 124.62 151.228 124.221 221.485 122.071M26.3134 125.989L114.421 126.569" stroke="black"/>
<path d="M135.365 126.617C226.7 127.762 211.061 126.453 221.117 125.226" stroke="black"/>
<path d="M33.6435 131.955C36.4523 135.757 30.1041 143.902 34.7442 146.836M43.9452 132.814C41.3883 134.18 40.6394 135.434 40.0822 138.236M51.0229 121.091L122.282 120.471" stroke="black" stroke-width="0.5"/>
<path d="M71.8264 119.124L122.455 118.27" stroke="black" stroke-width="0.5"/>
<path d="M105.488 104.129C105.185 102.345 146.58 86.4324 170.147 81.7921C186.445 91.3744 194.311 97.4179 204.923 110" stroke="black" stroke-width="0.5"/>
<path d="M71.8955 132.304C77.2268 138.608 69.4907 142.744 74.3197 147.455" stroke="black" stroke-width="0.5"/>
<path d="M79.7595 147.819C82.166 145.812 83.3621 144.556 83.9143 140.965" stroke="black" stroke-width="0.5"/>
<path d="M118.98 133.957C121.467 136.715 121.022 137.957 120.195 140.167" stroke="black" stroke-width="0.5"/>
<path d="M180.439 134.07C180.185 140.726 177.645 146.418 181.232 146.404" stroke="black" stroke-width="0.5"/>
<path d="M163.685 156.737L193.51 157.851" stroke="black" stroke-width="0.5"/>
<path d="M125.817 157.212C126.413 157.532 147.443 157.068 157.884 156.796" stroke="black" stroke-width="0.5"/>
<path d="M168.072 154.154C169.342 154.413 194.567 154.92 207.021 155.142" stroke="black" stroke-width="0.5"/>
<path d="M50.4651 135.63L50.6764 134.121M49.1682 135.593L49.1605 134.021M47.7311 135.629L48.1442 133.841M46.3555 135.457L46.7858 134.012" stroke="black"/>
<path d="M56.0509 135.278L56.2622 133.769M54.754 135.242L54.7463 133.67M53.3169 135.277L53.73 133.49M51.9413 135.106L52.3717 133.66" stroke="black"/>
<path d="M61.5393 135.404L61.7506 133.895M60.2424 135.367L60.2348 133.796M58.8053 135.403L59.2184 133.616M57.4297 135.232L57.8601 133.786" stroke="black"/>
<path d="M67.1251 135.052L67.3365 133.543M65.8283 135.016L65.8206 133.444M64.3912 135.051L64.8042 133.264M63.0155 134.88L63.4459 133.434" stroke="black"/>
<path d="M93.0767 134.88L93.288 133.371M91.7798 134.843L91.7721 133.272M90.3427 134.879L90.7558 133.092M88.9671 134.708L89.3974 133.262" stroke="black"/>
<path d="M98.6625 134.529L98.8738 133.02M97.3656 134.492L97.3579 132.921M95.9285 134.528L96.3416 132.741M94.5529 134.357L94.9832 132.911" stroke="black"/>
<path d="M104.151 134.654L104.362 133.145M102.854 134.618L102.846 133.046M101.417 134.653L101.83 132.866M100.041 134.482L100.472 133.036" stroke="black"/>
<path d="M109.737 134.303L109.948 132.794M108.44 134.267L108.432 132.695M107.003 134.302L107.416 132.515M105.627 134.131L106.057 132.685" stroke="black"/>
<path d="M212.973 136.723L213.839 135.444M211.78 136.216L212.47 134.8M210.425 135.722L211.603 134.266M209.219 135.064L210.262 133.922" stroke="black"/>
<path d="M26.5834 135.797L27.1312 134.372M25.3112 135.521L25.6569 133.994M23.8844 135.289L24.6939 133.631M22.5647 134.868L23.3146 133.544" stroke="black"/>
<path d="M115.225 134.429L115.437 132.92M113.928 134.392L113.921 132.82M112.491 134.428L112.904 132.64M111.116 134.257L111.546 132.811" stroke="black"/>
<path d="M134.789 134.175L135.095 132.699M133.431 134.065L133.512 132.514M131.923 134.017L132.457 132.278M130.491 133.77L131.024 132.368" stroke="black"/>
<path d="M140.663 134.149L140.969 132.673M139.306 134.039L139.386 132.488M137.797 133.992L138.331 132.252M136.365 133.744L136.898 132.342" stroke="black"/>
<path d="M146.408 134.588L146.714 133.112M145.051 134.478L145.131 132.927M143.542 134.431L144.076 132.691M142.11 134.183L142.643 132.781" stroke="black"/>
<path d="M152.282 134.562L152.588 133.086M150.925 134.452L151.005 132.901M149.416 134.404L149.95 132.665M147.984 134.157L148.517 132.755" stroke="black"/>
<path d="M158.151 134.71L158.485 133.224M156.857 134.588L156.976 133.024M155.417 134.527L155.974 132.778M154.054 134.265L154.602 132.856" stroke="black"/>
<path d="M163.767 134.733L164.1 133.247M162.473 134.611L162.592 133.047M161.032 134.55L161.59 132.8M159.67 134.288L160.217 132.879" stroke="black"/>
<path d="M169.247 135.224L169.58 133.738M167.953 135.101L168.072 133.538M166.512 135.041L167.07 133.291M165.15 134.779L165.697 133.37" stroke="black"/>
<path d="M174.863 135.247L175.196 133.761M173.569 135.124L173.688 133.561M172.128 135.064L172.686 133.314M170.766 134.802L171.313 133.393" stroke="black"/>
<path d="M193.527 134.634L193.416 133.105M192.256 134.823L191.919 133.269M190.864 135.107L190.892 133.267M189.489 135.176L189.604 133.67" stroke="black"/>
<path d="M198.471 134.514L198.682 133.005M197.174 134.478L197.167 132.906M195.737 134.513L196.15 132.726M194.361 134.342L194.792 132.896" stroke="black"/>
<path d="M203.43 134.532L203.641 133.023M202.133 134.495L202.125 132.923M200.696 134.531L201.109 132.743M199.32 134.359L199.751 132.913" stroke="black"/>
<path d="M208.195 135.149L208.635 133.689M206.909 134.95L207.14 133.401M205.472 134.805L206.155 133.097M204.128 134.465L204.776 133.094" stroke="black"/>
<path d="M25.3334 172.208L25.667 170.722M24.0391 172.085L24.1587 170.521M22.5987 172.024L23.1566 170.275M21.2365 171.762L21.7841 170.353" stroke="black"/>
<path d="M30.9494 172.232L31.283 170.746M29.6551 172.109L29.7747 170.545M28.2147 172.048L28.7726 170.299M26.8525 171.786L27.4001 170.377" stroke="black"/>
<path d="M36.4293 172.724L36.7628 171.237M35.135 172.601L35.2545 171.037M33.6946 172.54L34.2525 170.79M32.3324 172.278L32.8799 170.869" stroke="black"/>
<path d="M42.0452 172.748L42.3788 171.261M40.7509 172.625L40.8705 171.061M39.3105 172.564L39.8684 170.814M37.9483 172.302L38.4959 170.893" stroke="black"/>
<path d="M65.5553 172.491L65.7666 170.983M64.2584 172.455L64.2507 170.883M62.8213 172.49L63.2344 170.703M61.4457 172.319L61.8761 170.873" stroke="black"/>
<path d="M71.1411 172.14L71.3524 170.631M69.8443 172.104L69.8366 170.532M68.4071 172.139L68.8202 170.352M67.0315 171.968L67.4619 170.522" stroke="black"/>
<path d="M76.6296 172.266L76.841 170.757M75.3328 172.229L75.3251 170.657M73.8957 172.265L74.3087 170.477M72.52 172.093L72.9504 170.648" stroke="black"/>
<path d="M82.7447 172.022L82.9561 170.513M81.4479 171.986L81.4402 170.414M80.0108 172.021L80.4238 170.234M78.6351 171.85L79.0655 170.404" stroke="black"/>
<path d="M97.7192 171.598L97.9306 170.089M96.4224 171.562L96.4147 169.99M94.9853 171.597L95.3983 169.81M93.6096 171.426L94.04 169.98" stroke="black"/>
<path d="M103.305 171.247L103.516 169.738M102.008 171.211L102 169.639M100.571 171.246L100.984 169.459M99.1955 171.075L99.6258 169.629" stroke="black"/>
<path d="M108.794 171.373L109.005 169.864M107.497 171.336L107.489 169.765M106.06 171.372L106.473 169.585M104.684 171.201L105.114 169.755" stroke="black"/>
<path d="M114.379 171.022L114.591 169.513M113.083 170.985L113.075 169.413M111.645 171.02L112.058 169.233M110.27 170.849L110.7 169.403" stroke="black"/>
<path d="M131.471 171.03L131.683 169.521M130.175 170.993L130.167 169.421M128.737 171.029L129.151 169.241M127.362 170.857L127.792 169.411" stroke="black"/>
<path d="M137.057 170.678L137.269 169.169M135.76 170.642L135.753 169.07M134.323 170.677L134.736 168.89M132.948 170.506L133.378 169.06" stroke="black"/>
<path d="M142.546 170.804L142.757 169.295M141.249 170.767L141.241 169.195M139.812 170.803L140.225 169.015M138.436 170.632L138.867 169.186" stroke="black"/>
<path d="M148.131 170.453L148.343 168.944M146.835 170.416L146.827 168.844M145.397 170.452L145.811 168.664M144.022 170.28L144.452 168.835" stroke="black"/>
<path d="M169.027 170.739L169.238 169.23M167.73 170.703L167.722 169.131M166.293 170.738L166.706 168.951M164.917 170.567L165.347 169.121" stroke="black"/>
<path d="M174.612 170.388L174.824 168.879M173.316 170.352L173.308 168.78M171.878 170.387L172.292 168.6M170.503 170.216L170.933 168.77" stroke="black"/>
<path d="M180.101 170.514L180.312 169.005M178.804 170.478L178.796 168.906M177.367 170.513L177.78 168.726M175.991 170.342L176.422 168.896" stroke="black"/>
<path d="M185.687 170.162L185.898 168.653M184.39 170.126L184.382 168.554M182.953 170.161L183.366 168.374M181.577 169.99L182.007 168.544" stroke="black"/>
<path d="M43.2644 195.271L43.4757 193.762M41.9675 195.234L41.9599 193.662M40.5304 195.27L40.9435 193.482M39.1548 195.099L39.5852 193.653" stroke="black"/>
<path d="M48.8503 194.919L49.0617 193.411M47.5535 194.883L47.5458 193.311M46.1164 194.918L46.5294 193.131M44.7407 194.747L45.1711 193.301" stroke="black"/>
<path d="M54.3387 195.045L54.5501 193.536M53.0419 195.009L53.0342 193.437M51.6048 195.044L52.0178 193.257M50.2291 194.873L50.6595 193.427" stroke="black"/>
<path d="M59.8271 195.171L60.0385 193.662M58.5303 195.135L58.5226 193.563M57.0932 195.17L57.5062 193.383M55.7175 194.999L56.1479 193.553" stroke="black"/>
<path d="M83.6611 194.567L83.8725 193.058M82.3643 194.53L82.3566 192.958M80.9272 194.566L81.3402 192.778M79.5515 194.394L79.9819 192.949" stroke="black"/>
<path d="M89.2469 194.215L89.4583 192.706M87.9501 194.179L87.9424 192.607M86.513 194.214L86.926 192.427M85.1373 194.043L85.5677 192.597" stroke="black"/>
<path d="M94.7355 194.341L94.9468 192.832M93.4386 194.304L93.4309 192.732M92.0015 194.34L92.4146 192.552M90.6259 194.168L91.0562 192.722" stroke="black"/>
<path d="M100.321 193.99L100.532 192.481M99.0243 193.953L99.0166 192.381M97.5872 193.989L98.0003 192.201M96.2116 193.817L96.6419 192.371" stroke="black"/>
<path d="M122.47 193.538L122.681 192.029M121.173 193.502L121.165 191.93M119.736 193.537L120.149 191.75M118.36 193.366L118.79 191.92" stroke="black"/>
<path d="M128.055 193.187L128.267 191.678M126.759 193.151L126.751 191.579M125.321 193.186L125.735 191.399M123.946 193.015L124.376 191.569" stroke="black"/>
<path d="M133.544 193.313L133.755 191.804M132.247 193.276L132.239 191.704M130.81 193.312L131.223 191.524M129.434 193.141L129.865 191.695" stroke="black"/>
<path d="M139.13 192.961L139.341 191.452M137.833 192.925L137.825 191.353M136.396 192.96L136.809 191.173M135.02 192.789L135.451 191.343" stroke="black"/>
<path d="M154.634 192.645L154.845 191.136M153.337 192.609L153.329 191.037M151.9 192.644L152.313 190.857M150.524 192.473L150.954 191.027" stroke="black"/>
<path d="M160.122 192.771L160.334 191.262M158.825 192.735L158.818 191.163M157.388 192.77L157.801 190.983M156.013 192.599L156.443 191.153" stroke="black"/>
<path d="M165.708 192.42L165.919 190.911M164.411 192.383L164.403 190.811M162.974 192.419L163.387 190.631M161.598 192.248L162.029 190.802" stroke="black"/>
<path d="M171.196 192.545L171.408 191.037M169.9 192.509L169.892 190.937M168.462 192.544L168.876 190.757M167.087 192.373L167.517 190.927" stroke="black"/>
<path d="M184.388 192.751L184.6 191.243M183.091 192.715L183.084 191.143M181.654 192.75L182.067 190.963M180.279 192.579L180.709 191.133" stroke="black"/>
<path d="M189.974 192.4L190.185 190.891M188.677 192.364L188.669 190.792M187.24 192.399L187.653 190.612M185.864 192.228L186.295 190.782" stroke="black"/>
<path d="M195.463 192.526L195.674 191.017M194.166 192.489L194.158 190.918M192.729 192.525L193.142 190.738M191.353 192.354L191.783 190.908" stroke="black"/>
<path d="M201.048 192.175L201.26 190.666M199.751 192.138L199.744 190.567M198.314 192.174L198.727 190.387M196.939 192.003L197.369 190.557" stroke="black"/>
<path d="M62 114V1H74V114H62Z" fill="white" stroke="black" stroke-width="0.5"/>
<path d="M66 73V114H71.5V58.5" stroke="black" stroke-width="0.5"/>
<path d="M126.5 77.5V42" stroke="black" stroke-width="0.5"/>
<path d="M121.5 77.5V47.5" stroke="black" stroke-width="0.5"/>
<path d="M66.5 54.5C76.9672 31.1392 75.7194 19.8533 66.5 1.5H231.5C218.292 22.1944 219.141 33.8049 231.5 54.5H66.5Z" fill="white" stroke="black"/>
</svg>
