<svg width="246" height="161" viewBox="0 0 246 161" fill="none" xmlns="http://www.w3.org/2000/svg">
<path d="M25.781 145.302C-1.96427 125.266 -3.76291 108.733 7.44514 73.6919V64.489H20.5813C81.427 69.2822 203.775 78.6959 206.403 78.0057C209.03 77.3155 187.976 128.334 177.12 153.929C117.253 159.266 83.2301 167.474 25.781 145.302Z" fill="white" stroke="black"/>
<path d="M170.552 144.151C167.889 129.074 180.678 116.255 187.519 86.9209C192.993 76.1842 204.049 54.3083 204.487 52.6978C204.925 51.0873 225.651 56.4364 235.959 59.3123C241.367 76.156 246.584 83.3688 244.169 108.202C240.064 134.661 216.252 156.501 179.583 157.955C175.478 157.955 172.043 150.559 170.552 144.151Z" fill="white" stroke="black" stroke-width="2"/>
<path d="M206 146.209C239.266 128.533 239.733 113.221 236.268 84.6328" stroke="black"/>
<path d="M5.52999 60.4621C5.49507 48.3239 9.96122 47.1619 16.2031 42.9192C22.5559 41.4731 23.4067 39.6208 24.1395 36.0171C24.9603 31.4157 29.7764 30.0478 35.0862 29.4025C38.0851 24.9025 40.2068 24.6352 44.1173 24.8011C50.6852 24.8011 52.7254 21.6049 54.5168 18.1866C56.7059 13.01 61.0846 11.8596 66.5582 11.8596C78.7571 7.37272 82.6793 8.17311 91.7357 7.25818C111.679 0.802302 123.399 -2.03704 153.038 5.53265C157.137 7.03703 159.635 7.29321 164.258 7.25818C179.071 9.1348 186.782 10.8796 195.456 19.9121C199.053 23.8366 200.629 24.2518 203.393 24.8011C208.666 24.9366 210.472 26.3537 213.245 29.4025C215.298 32.4739 216.515 33.3733 218.718 34.5791C229.202 37.5862 228.493 40.4525 230.76 44.9323L237.054 50.1089C240.338 54.1357 238.422 59.0247 233.223 61.3249C229.665 62.1882 227.749 68.2276 227.749 72.5409C225.834 70.8159 223.82 76.9195 225.834 81.1686C232.949 93.5354 222.002 98.9996 218.718 84.0445C217.847 79.9207 216.839 78.6337 214.34 77.7175C212.801 75.8507 212.262 74.6973 211.603 72.5409C209.961 67.3648 202.845 65.3517 195.456 75.4168C191.077 80.3063 188.614 94.6858 177.394 85.4824C175.478 82.3195 172.757 80.654 168.91 84.0445C165.9 86.9209 162.069 86.3457 158.511 84.0445C152.49 79.7312 146.743 84.0445 145.649 89.7963C144.827 95.5485 142.638 98.1368 136.617 97.2736C129.776 97.2736 130.049 103.313 125.123 107.052C114.661 114.201 108.781 117.973 97.2091 107.052C91.1882 100.438 85.6591 97.4615 79.1469 103.313C73.9071 107.962 71.2853 107.637 66.6705 107.066L66.5582 107.052C63.0003 106.477 59.4428 107.052 59.4428 114.241C59.4428 132.648 39.7386 124.883 47.9487 109.065C49.0432 107.052 48.2706 105.63 46.3067 105.326C44.9329 105.32 44.3253 105.072 44.1173 103.313C43.2234 99.6342 42.286 99.1871 39.7386 101.587C36.6324 106.661 36.7683 110.557 38.3703 118.268C39.3935 123.181 40.114 125.983 37.5493 129.771C35.9602 135.581 37.5525 138.527 39.7386 143.863C40.8331 148.753 39.0987 150.867 37.5493 153.641C30.1602 162.269 19.7398 151.436 26.3288 147.314C29.8035 144.921 30.4257 143.226 30.1602 139.837C28.2443 121.144 31.802 104.464 27.6972 93.8225C26.3288 90.6595 23.8609 88.2599 26.3288 83.1817C27.0784 77.0506 25.7566 77.4652 24.1395 76.5672C22.2503 75.642 21.4302 74.9821 21.1291 73.1161C20.834 70.9441 20.4949 70.0863 18.9398 70.5278C16.8709 70.3011 16.1539 69.7365 15.3821 68.227C13.4662 65.6393 12.1497 67.3307 11.277 70.5278C8.26621 82.607 6.07699 67.6524 5.52999 60.4621Z" fill="white" stroke="black" stroke-width="2"/>
<path d="M185.877 22.501C188.614 26.2396 189.161 31.9914 177.941 35.1549C171.099 37.4556 159.332 40.6191 160.153 42.3446C160.153 47.5212 151.669 51.5475 149.206 45.7957C147.994 43.2446 146.937 42.3124 142.911 43.2074C118.473 47.9112 103.104 47.1114 74.4941 43.2074" stroke="black" stroke-width="2"/>
<path d="M54.5161 33.4292C55.5984 35.96 56.2753 37.3623 61.6315 38.8934" stroke="black" stroke-width="2"/>
<path d="M90.0931 14.1606C90.4691 15.2872 90.6967 15.9124 89.5458 17.6117C85.7145 24.5139 93.3772 31.416 94.1982 27.6773C95.1688 24.84 96.0257 23.777 99.1242 24.5139C101.298 26.5214 102.313 27.9203 107.882 25.3766C110.961 24.1176 113.355 26.8146 113.355 26.8146C115.544 29.978 119.923 32.5663 123.481 28.2525C125.431 25.6544 127.425 25.1811 131.144 24.5139" stroke="black" stroke-width="2"/>
<path d="M157.142 22.5008C158.079 21.5828 157.874 19.0524 157.142 17.8994" stroke="black" stroke-width="2"/>
<path d="M121.291 12.1478C98.2944 12.4199 103.503 6.1084 121.291 6.1084C138.533 6.1084 137.438 18.7623 118.007 18.7623C98.5767 18.7623 97.0262 15.8655 99.1241 10.1346" stroke="black" stroke-width="2"/>
<path d="M145.101 9.84692C145.538 10.3071 148.932 14.1608 146.743 17.8994" stroke="black" stroke-width="2"/>
<path d="M76.136 19.625C64.0518 32.5931 102.135 39.7562 155.226 27.9651" stroke="black" stroke-width="2"/>
<path d="M20.0337 51.5474C21.7825 56.1532 23.0476 57.9256 26.3281 58.1619M35.9066 64.2013C45.442 71.3023 52.1984 71.7869 64.6419 71.6786" stroke="black" stroke-width="2"/>
<path d="M46.8535 31.7039C31.0884 47.6597 73.673 59.3124 147.016 51.2599" stroke="black" stroke-width="2"/>
<path d="M28.2439 46.083C58.6212 76.5675 174.383 77.1426 209.139 38.6057" stroke="black" stroke-width="2"/>
<path d="M192.172 86.0581C189.435 104.751 178.215 120.281 175.752 131.497C174.554 141.023 173.708 146.434 181.772 152.204" stroke="black"/>
<path d="M193.54 98.1367C191.077 108.202 180.678 120.281 180.678 127.758" stroke="black"/>
<path d="M181.499 145.876C181.994 149.272 183.209 150.952 187.519 152.779" stroke="black"/>
<path d="M28.7913 84.3325C27.7048 87.0283 27.8671 89.2097 30.9807 95.5485" stroke="black"/>
<path d="M31.8018 98.9998V108.778" stroke="black"/>
<path d="M31.8018 113.379V138.112" stroke="black"/>
<path d="M27.423 150.19C27.3496 153.562 28.3004 154.595 32.8964 153.929" stroke="black"/>
<path d="M48.7691 114.817C47.7889 118.359 48.2338 119.844 50.6848 121.719" stroke="black"/>
<path d="M42.2012 97.2739C42.639 97.504 45.7589 98.7119 45.7589 101.588C45.7589 104.464 48.48 102.185 49.3166 104.464" stroke="black"/>
<path d="M99.9453 105.614C102.246 109.499 104.73 110.326 109.797 111.078" stroke="black"/>
<path d="M8.26614 65.6394C7.50993 67.7667 7.82579 69.2704 9.08715 72.254" stroke="black"/>
<path d="M66.0103 103.601C67.3603 105.85 72.5565 105.617 74.494 103.601" stroke="black"/>
<path d="M15.3815 68.2275L13.4658 87.496" stroke="black"/>
<path d="M17.5708 70.8159L16.7498 81.4567" stroke="black"/>
<path d="M20.3075 71.1035L18.6655 91.2347" stroke="black"/>
<path d="M21.9932 75.1052L21.0851 86.9453" stroke="black"/>
<path d="M23.9539 76.28L22.2234 113.624" stroke="black"/>
<path d="M4.43479 96.1238C2.59132 113.935 4.28478 123.184 19.4866 136.386" stroke="black"/>
<path d="M5.25586 111.366C6.75043 117.903 8.29022 120.817 11.8239 125.17" stroke="black"/>
<path d="M135.522 94.3982C137.445 96.4934 141.1 95.9367 141.817 94.3982" stroke="black"/>
<path d="M160.152 82.032C161.471 84.1322 162.777 84.5745 165.899 84.3327" stroke="black"/>
<path d="M86.5354 100.725V119.994" stroke="black"/>
<path d="M88.9985 100.438V113.954" stroke="black"/>
<path d="M91.4614 102.163V109.64" stroke="black"/>
<path d="M72.8521 107.627V117.118" stroke="black"/>
<path d="M70.1152 107.627V134.661" stroke="black"/>
<path d="M61.0842 108.778V126.321" stroke="black"/>
<path d="M77.7781 105.039V121.432" stroke="black"/>
<path d="M130.323 100.438V131.21" stroke="black"/>
<path d="M133.059 98.9998V114.817" stroke="black"/>
<path d="M125.67 106.764V117.118" stroke="black"/>
<path d="M144.827 94.3982V105.902" stroke="black"/>
<path d="M146.195 88.3589V101.013" stroke="black"/>
<path d="M153.858 82.6069V89.5091" stroke="black"/>
<path d="M156.868 83.7573V103.313" stroke="black"/>
<path d="M159.332 84.6201V93.823" stroke="black"/>
<path d="M164.805 86.3457V98.712" stroke="black"/>
<path d="M171.646 82.6069V113.379" stroke="black"/>
<path d="M167.815 84.9077V92.6726" stroke="black"/>
<path d="M182.32 88.3589V94.3983" stroke="black"/>
<path d="M178.215 86.0581V96.1237" stroke="black"/>
<path d="M220.907 84.9077C221.309 88.5114 222.352 89.6081 225.012 90.6595" stroke="black"/>
<path d="M187.519 80.3064C195.395 76.4793 193.54 69.0904 202.024 64.489" stroke="black"/>
<path d="M89.8196 75.7048C132.786 82.3194 159.782 73.5221 199.835 58.7371" stroke="black"/>
<path d="M31.2544 48.9592L33.7174 46.3708" stroke="black"/>
<path d="M38.6435 53.5606L40.2855 51.2599M36.7278 52.4103L38.0962 49.822M34.5385 51.2599L36.7278 48.6716M32.6228 49.822L34.5385 47.8088" stroke="black"/>
<path d="M47.1622 57.511L48.4007 54.9465M45.086 56.7263L46.0077 53.9282M42.7403 55.9912L44.4706 53.044M40.6168 54.9232L42.1722 52.5922" stroke="black"/>
<path d="M56.431 60.4278L57.3384 57.7146M54.2747 59.9362L54.8389 57.0352M51.8575 59.5312L53.2046 56.3707M49.619 58.7654L50.8697 56.2399" stroke="black"/>
<path d="M65.3027 63.0513L66.232 60.3463M63.1505 62.5406L63.738 59.6448M60.7366 62.114L62.1092 58.9657M58.5043 61.3283L59.7754 58.8141" stroke="black"/>
<path d="M74.6687 65.0156L75.4335 62.2543M72.4901 64.6488L72.9023 61.7197M70.0554 64.3833L71.2359 61.1501M67.7803 63.7474L68.8977 61.1538" stroke="black"/>
<path d="M84.2786 66.073L84.7226 63.2352M82.0739 65.9835L82.1487 63.0236M79.6264 66.0269L80.4293 62.6682M77.2952 65.6824L78.1084 62.9667" stroke="black"/>
<path d="M92.9546 67.2611L93.4978 64.4424M90.7545 67.0864L90.933 64.1314M88.3072 67.0351L89.2272 63.7098M85.9896 66.6007L86.8974 63.9182" stroke="black"/>
<path d="M101.971 67.6429L102.122 64.7714M99.7694 67.8031L99.5409 64.852M97.3406 68.1229L97.7951 64.693M94.9876 68.0438L95.5182 65.252" stroke="black"/>
<path d="M111.245 68.2579L111.46 65.3909M109.04 68.3638L108.878 65.4078M106.605 68.6236L107.136 65.2058M104.255 68.4866L104.847 65.7086" stroke="black"/>
<path d="M175.389 58.5162L174.96 55.6757M173.269 59.1604L172.454 56.3262M170.959 60.011L170.715 56.5575M168.643 60.455L168.602 57.6084" stroke="black"/>
<path d="M120.497 68.3096L120.805 65.4519M118.291 68.3364L118.224 65.3763M115.848 68.5087L116.49 65.112M113.504 68.2875L114.186 65.5323" stroke="black"/>
<path d="M129.904 67.6124L130.009 64.7386M127.706 67.8118L127.43 64.8651M125.283 68.1748L125.682 64.7373M122.929 68.1377L123.414 65.3368" stroke="black"/>
<path d="M139.265 66.891L139.175 64.0167M137.086 67.254L136.611 64.3354M134.693 67.797L134.859 64.3383M132.343 67.9357L132.638 65.1056" stroke="black"/>
<path d="M149.127 65.1056L148.967 62.2347M146.958 65.5275L146.412 62.6227M144.579 66.1352L144.66 62.6732M142.233 66.3375L142.458 63.5004" stroke="black"/>
<path d="M158.39 63.5392L158.427 60.6636M156.197 63.7951L155.852 60.8564M153.783 64.2203L154.101 60.7735M151.428 64.2437L151.849 61.4311" stroke="black"/>
<path d="M167.195 60.9902L166.937 58.1272M165.041 61.4934L164.396 58.611M162.685 62.1901L162.647 58.7272M160.347 62.4804L160.475 59.6367" stroke="black"/>
<path d="M184.028 55.256L183.282 52.489M181.996 56.1598L180.867 53.4472M179.799 57.2923L179.167 53.8936M177.549 58.0218L177.187 55.2004" stroke="black"/>
<path d="M192.741 51.1298L191.923 48.3856M190.734 52.0926L189.534 49.414M188.567 53.2889L187.846 49.9098M186.338 54.0838L185.901 51.274" stroke="black"/>
<path d="M200.819 46.15L199.741 43.5068M198.915 47.321L197.463 44.7837M196.874 48.7413L195.831 45.4561M194.733 49.7688L194.028 47.0198" stroke="black"/>
<path d="M208.078 39.7837L206.404 37.5093M206.514 41.4192L204.503 39.3456M204.878 43.3319L203.084 40.4265M203.05 44.8909L201.712 42.4156" stroke="black"/>
<path d="M59.751 49.4586L60.9896 46.894M57.6749 48.6738L58.5965 45.8758M55.3292 47.9387L57.0594 44.9915M53.2056 46.8707L54.7611 44.5397" stroke="black"/>
<path d="M90.7497 53.4501L91.4367 50.6663M88.5617 53.151L88.8916 50.2104M86.1206 52.961L87.21 49.6927M83.8287 52.3958L84.8728 49.7688" stroke="black"/>
<path d="M112.893 53.6806L112.353 50.5623M110.672 53.9396L109.723 50.7496M108.256 54.3803L107.892 50.645M105.821 54.3858L105.69 51.3392" stroke="black"/>
<path d="M86.0232 32.7784L87.2618 30.2139M83.9471 31.9936L84.8687 29.1956M81.6014 31.2586L83.3317 28.3113M79.4779 30.1905L81.0333 27.8595" stroke="black"/>
<path d="M112.246 33.8303L112.617 30.9809M110.04 33.8036L110.038 30.8427M107.594 33.9167L108.31 30.5364M105.255 33.6387L105.998 30.9008" stroke="black"/>
<path d="M130.905 11.4969L132.143 8.93236M128.829 10.7121L129.75 7.91408M126.483 9.97708L128.213 7.02981M124.359 8.90904L125.915 6.57803" stroke="black"/>
<path d="M145.848 30.5351L145.621 27.6691M143.689 31.0123L143.076 28.1223M141.325 31.6805L141.326 28.2174M138.984 31.9427L139.144 29.1006" stroke="black"/>
<path d="M140.861 51.489L140.939 48.6143M138.665 51.7113L138.361 48.7676M136.245 52.0995L136.612 48.658M133.891 52.0869L134.35 49.2811" stroke="black"/>
<path d="M150.3 42.9197C151.335 46.2006 152.438 46.7488 154.953 46.3707" stroke="black"/>
<path d="M84.6199 42.0569C111.439 44.6452 118.82 43.2767 139.627 40.9065" stroke="black"/>
<path d="M212.879 135.64C227.091 126.332 231.232 120.267 230.306 107.609" stroke="black"/>
<path d="M215.63 78.6592V94.7424" stroke="black"/>
<path d="M49 160C58.3887 140.165 57.2695 130.583 49 115H197C185.153 132.571 185.914 142.429 197 160H49Z" fill="white" stroke="black"/>
</svg>
