<svg width="235" height="246" viewBox="0 0 235 246" fill="none" xmlns="http://www.w3.org/2000/svg">
<path d="M16.3283 152.475L16.1221 130.452L201.34 125.371L219.355 133.02L210.457 152.32L208.56 161.621L207.101 168.776L205.107 178.554L202.675 190.479L202.431 191.672C200.066 198.793 196.3 201.953 183.095 205.366C64.9901 205.872 4.00105 214.364 11.3675 204.007L11.2329 189.627C11.1769 189.416 11.1745 189.195 11.2267 188.963L11.1269 178.309C11.1081 178.195 11.1069 178.077 11.1236 177.956L14.6323 166.494C14.6436 166.445 14.6587 166.396 14.6777 166.346L14.6327 161.542C14.5503 161.319 14.5473 161.08 14.626 160.823L16.3283 152.475Z" fill="white"/>
<path d="M16.3283 152.475L16.1221 130.452L201.34 125.371L219.355 133.02L210.457 152.32M16.3283 152.475C15.9764 159.327 126.444 150.588 210.457 152.32M16.3283 152.475L14.626 160.823M210.457 152.32L208.56 161.621M14.626 160.823C11.8907 169.764 107.941 157.496 208.56 161.621M14.626 160.823L14.6777 166.346M208.56 161.621L207.101 168.776M14.6777 166.346C11.5093 174.688 116.178 167.125 207.101 168.776M14.6777 166.346L11.1236 177.956M207.101 168.776L205.107 178.554M11.1236 177.956C9.9058 186.817 104.022 178.061 205.107 178.554M11.1236 177.956L11.2267 188.963M205.107 178.554L202.431 191.672C200.066 198.793 196.3 201.953 183.095 205.366C64.9901 205.872 4.00105 214.364 11.3675 204.007L11.2267 188.963M11.2267 188.963C9.1894 198.014 90.3702 190.927 202.675 190.479" stroke="black" stroke-width="2"/>
<path d="M97.1494 109.901L97.0017 94.1233" stroke="black" stroke-width="0.5"/>
<path d="M20.1464 156.732C21.6676 156.844 116.386 155.741 163.555 155.176" stroke="black" stroke-width="0.5"/>
<path d="M22.4959 161.434L164.246 158.546" stroke="black" stroke-width="0.5"/>
<path d="M37.8595 159.103L107.411 157.389" stroke="black" stroke-width="0.5"/>
<path d="M15.6819 185.383C17.2031 185.494 111.922 184.392 159.091 183.826" stroke="black" stroke-width="0.5"/>
<path d="M18.0314 190.085L159.782 187.197" stroke="black" stroke-width="0.5"/>
<path d="M33.395 187.753L102.947 186.039" stroke="black" stroke-width="0.5"/>
<path d="M165.276 184.591C165.594 184.604 185.504 183.395 195.419 182.789" stroke="black" stroke-width="0.5"/>
<path d="M149.858 189.893L203.112 188.333" stroke="black" stroke-width="0.5"/>
<path d="M122.816 181.894L192.368 180.18" stroke="black" stroke-width="0.5"/>
<path d="M169.331 74.1287L20.8727 120.6C13.2124 123.012 12.2555 131.76 22.4599 133.096C24.3128 133.473 30.2771 135.447 29.6934 138.309C26.6778 153.096 41.1286 149.833 41.4373 140.207C42.0696 137.107 42.6533 134.245 45.2301 133.777L65.1638 133.371C67.692 133.141 71.5866 135.674 69.3175 138.689C61.8077 149.827 81.4812 158.807 84.4323 140.281C85.016 137.419 84.6868 133.626 88.0577 133.32C98.0226 132.257 103.626 131.911 113.745 133.093C115.638 133.386 115.843 134.112 116.002 135.541C114.337 149.113 127.389 147.303 126.137 135.869C126.667 132.667 127.96 132.422 130.453 132.278C130.453 132.278 171.255 133.644 173.999 133.706C176.743 133.769 177.364 136.132 176.3 138.647C172.426 149.532 184.218 151.192 184.241 140.267C184.126 136.596 184.907 135.639 186.564 134.282C189.676 131.19 214.326 131.994 213.256 137.241L202.701 188.994C202.014 195.065 194.663 199.37 182.517 205.496C193.76 206.734 200.392 208.15 208.307 202.061C221.335 165.22 226.016 124.69 222.414 120.726C204.056 99.9688 192.129 90.0947 169.331 74.1287Z" fill="white" stroke="black" stroke-width="2"/>
<path d="M31.4344 123.014C109.219 124.62 150.228 124.221 220.485 122.071M25.3136 125.989L113.421 126.569" stroke="black"/>
<path d="M134.365 126.617C225.7 127.762 210.062 126.453 220.117 125.226" stroke="black"/>
<path d="M32.6435 131.955C35.4523 135.757 29.1041 143.902 33.7442 146.836M42.9452 132.814C40.3883 134.18 39.6394 135.434 39.0822 138.236M50.0229 121.091L121.282 120.471" stroke="black" stroke-width="0.5"/>
<path d="M70.8264 119.124L121.455 118.27" stroke="black" stroke-width="0.5"/>
<path d="M104.488 104.128C104.185 102.345 145.58 86.4321 169.147 81.7919C185.445 91.3742 193.311 97.4177 203.923 109.999" stroke="black" stroke-width="0.5"/>
<path d="M70.8955 132.304C76.2268 138.608 68.4907 142.744 73.3197 147.455" stroke="black" stroke-width="0.5"/>
<path d="M78.7595 147.819C81.166 145.812 82.3621 144.556 82.9143 140.965" stroke="black" stroke-width="0.5"/>
<path d="M117.98 133.957C120.467 136.715 120.022 137.957 119.195 140.167" stroke="black" stroke-width="0.5"/>
<path d="M179.439 134.07C179.185 140.726 176.645 146.418 180.232 146.404" stroke="black" stroke-width="0.5"/>
<path d="M162.685 156.737L192.51 157.851" stroke="black" stroke-width="0.5"/>
<path d="M124.817 157.212C125.413 157.532 146.443 157.068 156.884 156.796" stroke="black" stroke-width="0.5"/>
<path d="M167.072 154.154C168.342 154.413 193.567 154.92 206.021 155.142" stroke="black" stroke-width="0.5"/>
<path d="M49.4652 135.63L49.6765 134.121M48.1683 135.593L48.1607 134.021M46.7312 135.629L47.1443 133.841M45.3556 135.457L45.786 134.012" stroke="black"/>
<path d="M55.0509 135.278L55.2622 133.769M53.754 135.242L53.7463 133.67M52.3169 135.277L52.73 133.49M50.9413 135.106L51.3717 133.66" stroke="black"/>
<path d="M60.5393 135.404L60.7506 133.895M59.2424 135.367L59.2348 133.796M57.8053 135.403L58.2184 133.616M56.4297 135.232L56.8601 133.786" stroke="black"/>
<path d="M66.1251 135.053L66.3365 133.544M64.8283 135.016L64.8206 133.444M63.3912 135.052L63.8042 133.264M62.0155 134.88L62.4459 133.434" stroke="black"/>
<path d="M92.0767 134.88L92.288 133.371M90.7798 134.843L90.7721 133.272M89.3427 134.879L89.7558 133.092M87.9671 134.708L88.3974 133.262" stroke="black"/>
<path d="M97.6625 134.529L97.8738 133.02M96.3656 134.492L96.3579 132.921M94.9285 134.528L95.3416 132.741M93.5529 134.357L93.9832 132.911" stroke="black"/>
<path d="M103.151 134.654L103.362 133.145M101.854 134.618L101.846 133.046M100.417 134.653L100.83 132.866M99.0413 134.482L99.4716 133.036" stroke="black"/>
<path d="M108.737 134.303L108.948 132.794M107.44 134.267L107.432 132.695M106.003 134.302L106.416 132.515M104.627 134.131L105.057 132.685" stroke="black"/>
<path d="M211.972 136.723L212.839 135.444M210.78 136.216L211.47 134.8M209.425 135.722L210.603 134.266M208.219 135.064L209.262 133.922" stroke="black"/>
<path d="M25.5834 135.797L26.1312 134.372M24.3112 135.521L24.6569 133.994M22.8844 135.289L23.6939 133.631M21.5647 134.868L22.3146 133.544" stroke="black"/>
<path d="M114.225 134.429L114.437 132.92M112.928 134.392L112.921 132.82M111.491 134.428L111.904 132.64M110.116 134.257L110.546 132.811" stroke="black"/>
<path d="M133.788 134.175L134.095 132.699M132.431 134.065L132.512 132.514M130.923 134.017L131.457 132.278M129.491 133.77L130.024 132.368" stroke="black"/>
<path d="M139.663 134.149L139.969 132.673M138.306 134.039L138.386 132.488M136.797 133.992L137.331 132.252M135.365 133.744L135.898 132.342" stroke="black"/>
<path d="M145.408 134.588L145.714 133.112M144.051 134.478L144.131 132.927M142.542 134.431L143.076 132.691M141.11 134.183L141.643 132.781" stroke="black"/>
<path d="M151.282 134.562L151.588 133.086M149.925 134.452L150.005 132.901M148.416 134.404L148.95 132.665M146.984 134.156L147.517 132.755" stroke="black"/>
<path d="M157.151 134.71L157.484 133.224M155.857 134.588L155.976 133.024M154.417 134.527L154.974 132.778M153.054 134.265L153.602 132.856" stroke="black"/>
<path d="M162.767 134.733L163.1 133.247M161.473 134.611L161.592 133.047M160.032 134.55L160.59 132.8M158.67 134.288L159.217 132.879" stroke="black"/>
<path d="M168.247 135.224L168.58 133.738M166.953 135.101L167.072 133.538M165.512 135.041L166.07 133.291M164.15 134.779L164.697 133.37" stroke="black"/>
<path d="M173.863 135.247L174.196 133.761M172.569 135.124L172.688 133.561M171.128 135.064L171.686 133.314M169.766 134.802L170.313 133.393" stroke="black"/>
<path d="M192.527 134.634L192.416 133.105M191.256 134.823L190.919 133.269M189.864 135.107L189.892 133.267M188.489 135.176L188.604 133.67" stroke="black"/>
<path d="M197.471 134.514L197.682 133.005M196.174 134.478L196.167 132.906M194.737 134.513L195.15 132.726M193.361 134.342L193.792 132.896" stroke="black"/>
<path d="M202.43 134.532L202.641 133.023M201.133 134.495L201.125 132.923M199.696 134.531L200.109 132.743M198.32 134.359L198.751 132.913" stroke="black"/>
<path d="M207.195 135.149L207.634 133.689M205.909 134.95L206.14 133.401M204.472 134.805L205.154 133.097M203.128 134.465L203.776 133.094" stroke="black"/>
<path d="M24.3334 172.208L24.667 170.722M23.0391 172.085L23.1587 170.521M21.5987 172.024L22.1566 170.275M20.2365 171.762L20.7841 170.353" stroke="black"/>
<path d="M29.9494 172.232L30.283 170.746M28.6551 172.109L28.7747 170.545M27.2147 172.048L27.7726 170.299M25.8525 171.786L26.4001 170.377" stroke="black"/>
<path d="M35.4293 172.724L35.7628 171.237M34.135 172.601L34.2545 171.037M32.6946 172.54L33.2525 170.79M31.3324 172.278L31.8799 170.869" stroke="black"/>
<path d="M41.0452 172.748L41.3788 171.261M39.7509 172.625L39.8705 171.061M38.3105 172.564L38.8684 170.814M36.9483 172.302L37.4959 170.893" stroke="black"/>
<path d="M64.5553 172.491L64.7666 170.983M63.2584 172.455L63.2507 170.883M61.8213 172.49L62.2344 170.703M60.4457 172.319L60.8761 170.873" stroke="black"/>
<path d="M70.1411 172.14L70.3524 170.631M68.8443 172.104L68.8366 170.532M67.4071 172.139L67.8202 170.352M66.0315 171.968L66.4619 170.522" stroke="black"/>
<path d="M75.6296 172.266L75.841 170.757M74.3328 172.229L74.3251 170.657M72.8957 172.265L73.3087 170.477M71.52 172.093L71.9504 170.648" stroke="black"/>
<path d="M81.7447 172.022L81.9561 170.513M80.4479 171.986L80.4402 170.414M79.0108 172.021L79.4238 170.234M77.6351 171.85L78.0655 170.404" stroke="black"/>
<path d="M96.7194 171.598L96.9307 170.089M95.4225 171.562L95.4148 169.99M93.9854 171.597L94.3985 169.81M92.6098 171.426L93.0401 169.98" stroke="black"/>
<path d="M102.305 171.247L102.516 169.738M101.008 171.211L101 169.639M99.5711 171.246L99.9841 169.459M98.1955 171.075L98.6258 169.629" stroke="black"/>
<path d="M107.794 171.373L108.005 169.864M106.497 171.336L106.489 169.765M105.06 171.372L105.473 169.585M103.684 171.201L104.114 169.755" stroke="black"/>
<path d="M113.379 171.022L113.591 169.513M112.083 170.985L112.075 169.413M110.645 171.02L111.058 169.233M109.27 170.849L109.7 169.403" stroke="black"/>
<path d="M130.471 171.03L130.683 169.521M129.175 170.993L129.167 169.421M127.737 171.029L128.151 169.241M126.362 170.857L126.792 169.411" stroke="black"/>
<path d="M136.057 170.678L136.269 169.169M134.76 170.642L134.753 169.07M133.323 170.677L133.736 168.89M131.948 170.506L132.378 169.06" stroke="black"/>
<path d="M141.546 170.804L141.757 169.295M140.249 170.767L140.241 169.195M138.812 170.803L139.225 169.015M137.436 170.632L137.867 169.186" stroke="black"/>
<path d="M147.131 170.453L147.343 168.944M145.835 170.416L145.827 168.844M144.397 170.452L144.811 168.664M143.022 170.28L143.452 168.835" stroke="black"/>
<path d="M168.027 170.739L168.238 169.23M166.73 170.703L166.722 169.131M165.293 170.738L165.706 168.951M163.917 170.567L164.347 169.121" stroke="black"/>
<path d="M173.612 170.388L173.824 168.879M172.316 170.352L172.308 168.78M170.878 170.387L171.292 168.6M169.503 170.216L169.933 168.77" stroke="black"/>
<path d="M179.101 170.514L179.312 169.005M177.804 170.478L177.796 168.906M176.367 170.513L176.78 168.726M174.991 170.342L175.422 168.896" stroke="black"/>
<path d="M184.687 170.162L184.898 168.653M183.39 170.126L183.382 168.554M181.953 170.161L182.366 168.374M180.577 169.99L181.007 168.544" stroke="black"/>
<path d="M42.2645 195.271L42.4759 193.762M40.9677 195.234L40.96 193.662M39.5306 195.27L39.9436 193.482M38.1549 195.099L38.5853 193.653" stroke="black"/>
<path d="M47.8502 194.919L48.0615 193.411M46.5534 194.883L46.5457 193.311M45.1162 194.918L45.5293 193.131M43.7406 194.747L44.171 193.301" stroke="black"/>
<path d="M53.3387 195.045L53.5501 193.536M52.0419 195.009L52.0342 193.437M50.6048 195.044L51.0178 193.257M49.2291 194.873L49.6595 193.427" stroke="black"/>
<path d="M58.8273 195.171L59.0386 193.662M57.5304 195.135L57.5227 193.563M56.0933 195.17L56.5064 193.383M54.7177 194.999L55.148 193.553" stroke="black"/>
<path d="M82.6613 194.567L82.8726 193.058M81.3644 194.53L81.3567 192.958M79.9273 194.566L80.3403 192.778M78.5517 194.394L78.982 192.949" stroke="black"/>
<path d="M88.2469 194.215L88.4583 192.706M86.9501 194.179L86.9424 192.607M85.513 194.214L85.926 192.427M84.1373 194.043L84.5677 192.597" stroke="black"/>
<path d="M93.7355 194.341L93.9468 192.832M92.4386 194.304L92.4309 192.732M91.0015 194.34L91.4146 192.552M89.6259 194.168L90.0562 192.722" stroke="black"/>
<path d="M99.3212 193.99L99.5325 192.481M98.0243 193.953L98.0166 192.381M96.5872 193.989L97.0003 192.201M95.2116 193.817L95.6419 192.371" stroke="black"/>
<path d="M121.47 193.538L121.681 192.029M120.173 193.502L120.165 191.93M118.736 193.537L119.149 191.75M117.36 193.366L117.79 191.92" stroke="black"/>
<path d="M127.056 193.187L127.267 191.678M125.759 193.151L125.751 191.579M124.322 193.186L124.735 191.399M122.946 193.015L123.376 191.569" stroke="black"/>
<path d="M132.544 193.313L132.755 191.804M131.247 193.276L131.239 191.704M129.81 193.312L130.223 191.524M128.434 193.141L128.865 191.695" stroke="black"/>
<path d="M138.13 192.961L138.341 191.452M136.833 192.925L136.825 191.353M135.396 192.96L135.809 191.173M134.02 192.789L134.451 191.343" stroke="black"/>
<path d="M153.634 192.645L153.845 191.136M152.337 192.609L152.329 191.037M150.9 192.644L151.313 190.857M149.524 192.473L149.954 191.027" stroke="black"/>
<path d="M159.122 192.771L159.334 191.262M157.825 192.735L157.818 191.163M156.388 192.77L156.801 190.983M155.013 192.599L155.443 191.153" stroke="black"/>
<path d="M164.708 192.42L164.919 190.911M163.411 192.383L163.403 190.811M161.974 192.419L162.387 190.631M160.598 192.248L161.029 190.802" stroke="black"/>
<path d="M170.196 192.545L170.408 191.037M168.9 192.509L168.892 190.937M167.462 192.544L167.876 190.757M166.087 192.373L166.517 190.927" stroke="black"/>
<path d="M183.388 192.751L183.6 191.243M182.091 192.715L182.084 191.143M180.654 192.75L181.067 190.963M179.279 192.579L179.709 191.133" stroke="black"/>
<path d="M188.974 192.401L189.185 190.892M187.677 192.364L187.669 190.792M186.24 192.4L186.653 190.612M184.864 192.228L185.295 190.783" stroke="black"/>
<path d="M194.463 192.526L194.674 191.017M193.166 192.489L193.158 190.918M191.729 192.525L192.142 190.738M190.353 192.354L190.783 190.908" stroke="black"/>
<path d="M200.048 192.175L200.26 190.666M198.751 192.138L198.744 190.567M197.314 192.174L197.727 190.387M195.939 192.003L196.369 190.557" stroke="black"/>
<path d="M61 114V1H73V114H61Z" fill="white" stroke="black" stroke-width="0.5"/>
<path d="M65 73V114H70.5V58.5" stroke="black" stroke-width="0.5"/>
<path d="M65.5 54.5C75.9672 31.1392 74.7194 19.8533 65.5 1.5H230.5C217.292 22.1944 218.141 33.8049 230.5 54.5H65.5Z" fill="white" stroke="black"/>
</svg>
