<svg width="166" height="75" viewBox="0 0 166 75" fill="none" xmlns="http://www.w3.org/2000/svg">
<ellipse cx="131.5" cy="39.5" rx="34.5" ry="35.5" fill="white"/>
<path d="M69 35.5C69 55.1061 53.5538 71 34.5 71C15.4462 71 0 55.1061 0 35.5C0 15.8939 15.4462 2 34.5 2C53.5538 2 69 15.8939 69 35.5Z" fill="white"/>
<path d="M150 1.5L161.5 22L119 20.5C115 20 114 22.7065 114 25.5L114.483 71.5007L100 71.5V1.5H150Z" fill="black" stroke="black"/>
<path d="M17.5933 1L1.5 22.5L48.8454 20.2754C52.8779 19.7681 53.8861 22.5139 53.8861 25.3478V71.5H100L102.545 1.48764L17.5933 1Z" fill="black" stroke="black"/>
</svg>
